<svg width="193" height="96" viewBox="0 0 193 96" fill="none" xmlns="http://www.w3.org/2000/svg">
<g filter="url(#filter0_d_5851_12108)">
<rect x="24.5" y="20" width="144" height="48" rx="10.2857" fill="#191928"/>
<rect x="24.9286" y="20.4286" width="143.143" height="47.1429" rx="9.85714" stroke="white" stroke-width="0.857143"/>
<path d="M49.7417 29.3948C50.2811 28.6658 50.974 28.0614 51.7726 27.6237C52.5712 27.1859 53.4564 26.9251 54.3668 26.8594C54.4445 27.6973 54.3496 28.542 54.088 29.3426C53.8265 30.1431 53.4035 30.8829 52.8449 31.517C50.7934 33.9576 48.4594 33.5581 48.4594 33.5581C48.3703 32.814 48.4383 32.0598 48.659 31.3432C48.8798 30.6265 49.2484 29.9631 49.7417 29.3948ZM48.7055 35.2197C49.7003 35.2197 51.5479 33.8659 53.951 33.8659C55.0846 33.8177 56.2115 34.0608 57.2219 34.5716C58.2324 35.0824 59.092 35.8435 59.7171 36.7808C58.7415 37.3412 57.9331 38.1472 57.374 39.1168C56.8149 40.0865 56.5249 41.1853 56.5336 42.3018C56.5397 43.5652 56.9183 44.7993 57.6229 45.8527C58.3275 46.9061 59.3274 47.733 60.5 48.232C60.5 48.232 57.7274 55.9596 53.9819 55.9596C52.2618 55.9596 50.925 54.8125 49.1091 54.8125C47.2623 54.8125 45.4293 56.0022 44.2363 56.0022C40.8197 55.999 36.5 48.6717 36.5 42.7825C36.5 36.9882 40.1546 33.9479 43.5866 33.9479C45.8159 33.9479 47.5466 35.2205 48.703 35.2205L48.7055 35.2197Z" fill="white"/>
<path d="M78.6521 54.8221H80.7793L76.1261 41.9936H73.9723L69.3125 54.8221H71.368L72.5572 51.4176H77.4726L78.6521 54.8221ZM74.9436 44.3226H75.095L76.9629 49.7454H73.0668L74.9436 44.3226ZM87.392 44.9838C86.7687 44.969 86.1534 45.1259 85.614 45.437C85.0747 45.7482 84.6323 46.2016 84.3357 46.7471H84.1924V45.1469H82.3459V58.0408H84.2662V53.3557H84.4184C84.7102 53.8821 85.1469 54.3147 85.6773 54.6029C86.2077 54.891 86.8097 55.0226 87.4127 54.9823C89.8707 54.9823 91.4344 53.053 91.4344 49.9768C91.4344 46.9007 89.8671 44.9809 87.392 44.9809V44.9838ZM86.8462 53.2668C85.2375 53.2668 84.2271 52.0046 84.2271 49.9864C84.2271 47.9682 85.2375 46.6993 86.855 46.6993C88.4726 46.6993 89.4557 47.9351 89.4557 49.9798C89.4557 52.0244 88.4822 53.2668 86.8462 53.2668ZM98.3292 44.9809C97.7059 44.9661 97.0906 45.1229 96.5512 45.4341C96.0119 45.7452 95.5695 46.1986 95.2729 46.7442H95.1296V45.144H93.2831V58.0408H95.2034V53.3557H95.3556C95.6471 53.8815 96.0833 54.3138 96.6129 54.6018C97.1426 54.8899 97.7438 55.0219 98.3462 54.9823C100.804 54.9823 102.368 53.053 102.368 49.9768C102.368 46.9007 100.805 44.9809 98.3292 44.9809ZM97.7841 53.2668C96.1754 53.2668 95.165 52.0046 95.165 49.9864C95.165 47.9682 96.1754 46.6993 97.793 46.6993C99.4105 46.6993 100.394 47.9351 100.394 49.9798C100.394 52.0244 99.4201 53.2668 97.7841 53.2668ZM108.381 51.3727C108.524 53.6665 110.449 55.1336 113.305 55.1336C116.361 55.1336 118.274 53.5959 118.274 51.142C118.274 49.2127 117.184 48.146 114.539 47.5325L113.118 47.1857C111.438 46.7949 110.758 46.2703 110.758 45.3541C110.758 44.1985 111.813 43.4439 113.395 43.4439C114.897 43.4439 115.934 44.1786 116.121 45.3644H118.067C117.951 43.2044 116.038 41.6836 113.42 41.6836C110.604 41.6836 108.727 43.2037 108.727 45.4886C108.727 47.3731 109.791 48.4935 112.125 49.0357L113.787 49.4361C115.494 49.8365 116.245 50.4228 116.245 51.4007C116.245 52.5387 115.064 53.3652 113.457 53.3652C111.733 53.3652 110.535 52.5916 110.365 51.3735L108.381 51.3727ZM120.9 42.732V45.1859H119.354V46.7949H120.9V52.2625C120.9 54.1293 121.75 54.8765 123.886 54.8765C124.236 54.8741 124.586 54.8422 124.931 54.781V53.1867C124.688 53.2157 124.444 53.2307 124.199 53.2315C123.242 53.2315 122.822 52.787 122.822 51.7731V46.7949H124.931V45.1859H122.822V42.732H120.9ZM130.739 55.0087C133.581 55.0087 135.324 53.1154 135.324 49.9768C135.324 46.8566 133.572 44.9537 130.739 44.9537C127.906 44.9537 126.145 46.8566 126.145 49.9768C126.145 53.1154 127.89 55.0087 130.739 55.0087ZM130.739 53.3109C129.068 53.3109 128.13 52.0927 128.13 49.9768C128.13 47.8785 129.068 46.6516 130.739 46.6516C132.41 46.6516 133.349 47.8785 133.349 49.9768C133.349 52.0751 132.402 53.3116 130.739 53.3116V53.3109ZM137.172 54.8221H139.093V49.1055C139.09 48.7889 139.154 48.4754 139.281 48.185C139.407 47.8946 139.594 47.6337 139.828 47.4192C140.062 47.2047 140.338 47.0413 140.64 46.9394C140.941 46.8376 141.26 46.7996 141.577 46.8279C141.938 46.8299 142.297 46.8685 142.65 46.9433V45.061C142.367 45.0041 142.08 44.9772 141.792 44.9809C141.235 44.944 140.681 45.0834 140.21 45.3789C139.738 45.6744 139.372 46.1109 139.165 46.6259H139.022V45.1411H137.175L137.172 54.8221ZM147.788 46.5811C148.116 46.5736 148.441 46.6344 148.743 46.7594C149.045 46.8844 149.318 47.0709 149.544 47.307C149.769 47.5431 149.943 47.8234 150.053 48.1301C150.163 48.4368 150.208 48.763 150.184 49.0878H145.268C145.264 48.7575 145.326 48.4296 145.451 48.1235C145.576 47.8175 145.762 47.5395 145.997 47.3058C146.232 47.0722 146.511 46.8877 146.819 46.7632C147.126 46.6388 147.456 46.5768 147.788 46.5811ZM150.175 52.2088C149.95 52.6111 149.609 52.9377 149.197 53.1471C148.785 53.3566 148.319 53.4394 147.86 53.3851C146.323 53.3851 145.331 52.3095 145.268 50.6116V50.5051H152.141V49.838C152.141 46.7978 150.506 44.9574 147.797 44.9574C145.053 44.9574 143.31 46.922 143.31 50.0158C143.31 53.1096 145.017 55.0117 147.806 55.0117C150.031 55.0117 151.587 53.9449 152.025 52.211L150.175 52.2088Z" fill="white"/>
<path d="M75.1814 37.0875H76.0626L73.5831 30.3966H72.7529L70.2734 37.0875H71.1539L71.8297 35.1721H74.5049L75.1814 37.0875ZM73.1303 31.4766H73.2042L74.2589 34.4631H72.0771L73.1303 31.4766ZM80.9706 32.0886H80.1131L78.7378 36.2066H78.664L77.2887 32.0923H76.4304L78.2902 37.0882H79.1108L80.9706 32.0886ZM83.7862 36.4755C83.2034 36.4755 82.7698 36.1816 82.7698 35.6673C82.7698 35.153 83.1052 34.9025 83.8696 34.8511L85.2213 34.7629V35.2221C85.2136 35.3994 85.1698 35.5734 85.0928 35.7334C85.0157 35.8935 84.9068 36.0364 84.7727 36.1535C84.6386 36.2706 84.4821 36.3595 84.3125 36.4149C84.143 36.4702 83.9639 36.4908 83.7862 36.4755ZM83.6384 37.1756C83.9474 37.188 84.2541 37.1181 84.5268 36.973C84.7995 36.828 85.0283 36.6131 85.1895 36.3506H85.2634V37.0853H86.0278V33.6653C86.0278 32.6264 85.3424 32.0004 84.1163 32.0004C83.0439 32.0004 82.2521 32.5287 82.1442 33.331H82.9567C83.0682 32.9372 83.4878 32.7094 84.0897 32.7094C84.8401 32.7094 85.2272 33.0481 85.2272 33.6645V34.1186L83.7773 34.2067C82.6073 34.2765 81.9456 34.7945 81.9456 35.6857C81.9486 35.8972 81.9959 36.1057 82.0846 36.298C82.1732 36.4903 82.3012 36.662 82.4604 36.8022C82.6196 36.9425 82.8065 37.0481 83.0091 37.1124C83.2117 37.1767 83.4255 37.1982 83.637 37.1756H83.6384ZM87.9083 37.0875H88.7082V32.0915H87.9061L87.9083 37.0875ZM88.3094 31.0733C88.4575 31.0727 88.5993 31.0139 88.7041 30.9097C88.8088 30.8056 88.8679 30.6644 88.8685 30.5171C88.8679 30.3698 88.8088 30.2287 88.7041 30.1245C88.5993 30.0203 88.4575 29.9615 88.3094 29.9609C88.1612 29.9615 88.0194 30.0203 87.9146 30.1245C87.8099 30.2287 87.7508 30.3698 87.7502 30.5171C87.7508 30.664 87.8096 30.8048 87.9139 30.909C88.0181 31.0131 88.1594 31.0721 88.3071 31.0733H88.3094ZM90.6655 37.0875H91.4676V30.1079H90.6655V37.0875ZM94.9538 36.4755C94.3711 36.4755 93.9375 36.1816 93.9375 35.6673C93.9375 35.153 94.2728 34.9032 95.038 34.8503L96.3897 34.7622V35.2213C96.3821 35.3988 96.3384 35.5729 96.2613 35.7331C96.1842 35.8933 96.0753 36.0363 95.9411 36.1535C95.8069 36.2707 95.6503 36.3597 95.4806 36.415C95.3109 36.4703 95.1317 36.4909 94.9538 36.4755ZM94.8061 37.1756C95.1151 37.188 95.4218 37.1181 95.6945 36.973C95.9672 36.828 96.196 36.6131 96.3572 36.3506H96.431V37.0853H97.1955V33.6653C97.1955 32.6264 96.5101 32.0004 95.284 32.0004C94.2115 32.0004 93.4197 32.5287 93.3119 33.331H94.1244C94.2359 32.9372 94.6554 32.7094 95.2574 32.7094C96.0078 32.7094 96.3948 33.0481 96.3948 33.6645V34.1186L94.945 34.2067C93.775 34.2765 93.1132 34.7945 93.1132 35.6857C93.1162 35.8972 93.1636 36.1057 93.2522 36.298C93.3409 36.4903 93.4689 36.662 93.6281 36.8022C93.7873 36.9425 93.9742 37.0481 94.1767 37.1124C94.3793 37.1767 94.5932 37.1982 94.8046 37.1756H94.8061ZM101.555 37.1756C102.828 37.1756 103.663 36.1507 103.663 34.588C103.663 33.0253 102.833 32.0004 101.555 32.0004C101.237 31.9887 100.922 32.0642 100.644 32.2188C100.366 32.3734 100.136 32.6011 99.98 32.8769H99.9061V30.1042H99.1003V37.0838H99.8648V36.2896H99.9386C100.103 36.5683 100.339 36.7977 100.624 36.9537C100.908 37.1096 101.229 37.1863 101.554 37.1756H101.555ZM101.367 32.7197C102.285 32.7197 102.831 33.4199 102.831 34.588C102.831 35.7562 102.285 36.4571 101.367 36.4571C100.449 36.4571 99.8847 35.743 99.8847 34.5888C99.8847 33.4346 100.453 32.7197 101.367 32.7197ZM105.347 37.0875H106.15V30.1079H105.347V37.0875ZM110.092 32.7058C110.28 32.7057 110.466 32.7446 110.639 32.8202C110.811 32.8957 110.965 33.0062 111.092 33.1445C111.219 33.2828 111.315 33.4459 111.375 33.6234C111.435 33.8008 111.457 33.9888 111.439 34.1751H108.671C108.665 33.9852 108.697 33.7959 108.766 33.6185C108.834 33.4411 108.938 33.2791 109.07 33.1422C109.203 33.0052 109.362 32.8961 109.537 32.8211C109.713 32.7462 109.902 32.7069 110.093 32.7058H110.092ZM111.416 35.7915C111.293 36.0204 111.104 36.2074 110.873 36.3281C110.642 36.4487 110.38 36.4975 110.12 36.4681C109.267 36.4681 108.712 35.8422 108.67 34.8518V34.8151H112.283V34.5087C112.283 32.9555 111.458 31.9953 110.101 31.9953C108.721 31.9953 107.836 33.0151 107.836 34.5873C107.836 36.1595 108.707 37.1698 110.101 37.1698C110.559 37.2165 111.019 37.1053 111.405 36.8548C111.79 36.6043 112.078 36.2297 112.219 35.7937L111.416 35.7915ZM119.065 37.1756C120.497 37.1756 121.382 36.1926 121.382 34.588C121.382 32.9835 120.496 32.0004 119.065 32.0004C117.635 32.0004 116.748 32.9791 116.748 34.588C116.748 36.197 117.634 37.1756 119.065 37.1756ZM119.065 36.4571C118.115 36.4571 117.579 35.7709 117.579 34.5888C117.579 33.4067 118.114 32.7197 119.065 32.7197C120.017 32.7197 120.552 33.4015 120.552 34.588C120.552 35.7746 120.016 36.4571 119.065 36.4571ZM123.023 37.0875H123.825V34.1289C123.804 33.9471 123.823 33.7631 123.881 33.5894C123.938 33.4157 124.033 33.2565 124.158 33.1226C124.284 32.9887 124.436 32.8834 124.607 32.8138C124.777 32.7443 124.96 32.7122 125.143 32.7197C125.946 32.7197 126.325 33.1466 126.325 34.0422V37.0838H127.127V33.8511C127.161 33.6091 127.14 33.3625 127.066 33.1297C126.991 32.8969 126.864 32.6838 126.696 32.5061C126.527 32.3285 126.32 32.1908 126.091 32.1034C125.861 32.016 125.615 31.9811 125.37 32.0012C125.058 31.9734 124.745 32.0429 124.474 32.1999C124.204 32.3569 123.989 32.5938 123.86 32.8777H123.786V32.0886H123.022L123.023 37.0875ZM132.386 30.7955V32.0893H131.574V32.7572H132.386V35.7893C132.386 36.7444 132.801 37.1249 133.836 37.1249C133.994 37.1233 134.151 37.1078 134.307 37.0787V36.4057C134.184 36.4185 134.061 36.4246 133.937 36.424C133.415 36.424 133.191 36.1735 133.191 35.585V32.7564H134.31V32.0886H133.188V30.7955H132.386ZM135.947 37.0875H136.749V34.1289C136.731 33.9413 136.754 33.7521 136.818 33.5745C136.881 33.3969 136.983 33.2353 137.116 33.101C137.248 32.9667 137.409 32.8629 137.587 32.7971C137.764 32.7312 137.954 32.7048 138.143 32.7197C138.903 32.7197 139.303 33.1605 139.303 34.0422V37.0838H140.105V33.8511C140.135 33.6118 140.112 33.3689 140.037 33.1395C139.962 32.91 139.838 32.6997 139.672 32.5233C139.507 32.347 139.305 32.2088 139.08 32.1186C138.855 32.0284 138.613 31.9883 138.371 32.0012C138.054 31.9727 137.735 32.0413 137.458 32.198C137.18 32.3546 136.958 32.5918 136.82 32.8777H136.746V30.1042H135.948L135.947 37.0875ZM143.956 32.7058C144.144 32.7057 144.33 32.7446 144.502 32.8202C144.674 32.8957 144.829 33.0062 144.955 33.1445C145.082 33.2828 145.179 33.4459 145.238 33.6234C145.298 33.8008 145.32 33.9888 145.303 34.1751H142.53C142.524 33.9849 142.556 33.7953 142.625 33.6176C142.694 33.44 142.798 33.2779 142.931 33.1409C143.064 33.0039 143.223 32.8948 143.399 32.82C143.575 32.7453 143.764 32.7064 143.956 32.7058ZM145.279 35.7915C145.156 36.0204 144.967 36.2074 144.736 36.3281C144.505 36.4487 144.243 36.4975 143.984 36.4681C143.131 36.4681 142.576 35.8422 142.534 34.8518V34.8151H146.149V34.5087C146.149 32.9555 145.324 31.9953 143.967 31.9953C142.588 31.9953 141.702 33.0151 141.702 34.5873C141.702 36.1595 142.574 37.1698 143.967 37.1698C144.426 37.2158 144.887 37.1036 145.272 36.852C145.657 36.6004 145.944 36.2246 146.084 35.7878L145.279 35.7915Z" fill="white"/>
</g>
<defs>
<filter id="filter0_d_5851_12108" x="0.5" y="0" width="192" height="96" filterUnits="userSpaceOnUse" color-interpolation-filters="sRGB">
<feFlood flood-opacity="0" result="BackgroundImageFix"/>
<feColorMatrix in="SourceAlpha" type="matrix" values="0 0 0 0 0 0 0 0 0 0 0 0 0 0 0 0 0 0 127 0" result="hardAlpha"/>
<feOffset dy="4"/>
<feGaussianBlur stdDeviation="12"/>
<feColorMatrix type="matrix" values="0 0 0 0 0 0 0 0 0 0 0 0 0 0 0.156863 0 0 0 0.25 0"/>
<feBlend mode="normal" in2="BackgroundImageFix" result="effect1_dropShadow_5851_12108"/>
<feBlend mode="normal" in="SourceGraphic" in2="effect1_dropShadow_5851_12108" result="shape"/>
</filter>
</defs>
</svg>
