<svg width="193" height="96" viewBox="0 0 193 96" fill="none" xmlns="http://www.w3.org/2000/svg">
<g filter="url(#filter0_d_5851_12113)">
<rect x="24.5" y="20" width="144" height="48" rx="10.2857" fill="#191928"/>
<rect x="24.9286" y="20.4286" width="143.143" height="47.1429" rx="9.85714" stroke="white" stroke-width="0.857143"/>
<path d="M75.6669 34.4291C75.6903 34.7986 75.639 35.169 75.5161 35.5184C75.3932 35.8678 75.2011 36.1892 74.9512 36.4635C74.5078 36.9078 73.9415 37.2108 73.3244 37.3338C72.7073 37.4568 72.0673 37.3944 71.4861 37.1544C70.9048 36.9143 70.4085 36.5076 70.0604 35.9861C69.7122 35.4645 69.5281 34.8517 69.5314 34.2256C69.5277 33.8105 69.6072 33.3988 69.7653 33.0146C69.9233 32.6304 70.1566 32.2813 70.4517 31.9878C70.7468 31.6943 71.0978 31.4621 71.484 31.3049C71.8703 31.1478 72.2841 31.0687 72.7014 31.0723C73.1288 31.0767 73.5491 31.1812 73.9283 31.3772C74.2931 31.529 74.6108 31.7747 74.8486 32.0891L74.3375 32.5975C74.1439 32.3551 73.8936 32.1634 73.6084 32.0393C73.3232 31.9152 73.0118 31.8625 72.7014 31.8856C72.3923 31.8727 72.0842 31.9302 71.8007 32.0535C71.5172 32.1769 71.2658 32.3629 71.0654 32.5975C70.8196 32.811 70.627 33.0783 70.5028 33.3784C70.3786 33.6786 70.3262 34.0033 70.3497 34.327C70.3262 34.6507 70.3786 34.9754 70.5028 35.2756C70.627 35.5757 70.8196 35.843 71.0654 36.0565C71.5108 36.4761 72.0894 36.7279 72.7014 36.7684C73.0258 36.782 73.3492 36.7254 73.6494 36.6024C73.9496 36.4795 74.2194 36.2932 74.4401 36.0565C74.6036 35.8978 74.7332 35.708 74.821 35.4983C74.9089 35.2885 74.9532 35.0633 74.9512 34.8361H72.7014V34.0221H75.6669V34.4291ZM80.3704 31.8863H77.6095V33.8186H80.1672V34.5305H77.6095V36.4628H80.3704V37.2768H76.7911V31.1737H80.3696L80.3704 31.8863ZM83.745 37.2768H82.9267V31.8863H81.188V31.1737H85.4852V31.8856H83.7443L83.745 37.2768ZM88.4484 37.2768V31.1737H89.2668V37.2761L88.4484 37.2768ZM92.7434 37.2768H91.925V31.8863H90.1864V31.1737H94.3787V31.8856H92.6407V37.2761L92.7434 37.2768ZM102.457 36.4628C102.014 36.9068 101.448 37.2096 100.831 37.3324C100.214 37.4553 99.5741 37.3928 98.9929 37.1528C98.4118 36.9128 97.9156 36.5062 97.5675 35.9848C97.2195 35.4634 97.0353 34.8508 97.0384 34.2249C97.032 33.8068 97.1092 33.3916 97.2656 33.0035C97.422 32.6153 97.6545 32.262 97.9495 31.9641C98.2444 31.6662 98.596 31.4296 98.9838 31.2681C99.3715 31.1066 99.7877 31.0234 100.208 31.0234C100.628 31.0234 101.045 31.1066 101.432 31.2681C101.82 31.4296 102.172 31.6662 102.467 31.9641C102.762 32.262 102.994 32.6153 103.151 33.0035C103.307 33.3916 103.384 33.8068 103.378 34.2249C103.389 34.6411 103.313 35.0552 103.155 35.4405C102.996 35.8259 102.759 36.1741 102.457 36.4628ZM98.5717 35.9543C99.0055 36.391 99.5909 36.6458 100.208 36.6663C100.517 36.6791 100.825 36.6217 101.108 36.4984C101.392 36.375 101.643 36.1889 101.844 35.9543C102.302 35.4944 102.56 34.8727 102.559 34.2249C102.583 33.9012 102.531 33.5764 102.406 33.2763C102.282 32.9762 102.09 32.7088 101.844 32.4954C101.41 32.0587 100.825 31.804 100.208 31.7835C99.8986 31.7706 99.5905 31.828 99.307 31.9514C99.0235 32.0748 98.772 32.2608 98.5717 32.4954C98.113 32.9553 97.8557 33.577 97.856 34.2249C97.8324 34.5485 97.8847 34.8732 98.0088 35.1733C98.1328 35.4735 98.326 35.7408 98.5717 35.9543ZM104.503 37.2768V31.1737H105.423L108.388 35.9543V31.1737H109.207V37.2761H108.388L105.218 32.2926V37.2768H104.503Z" fill="white" stroke="white" stroke-width="0.171429" stroke-miterlimit="10"/>
<path d="M96.2019 46.2286C95.621 46.2156 95.0434 46.3199 94.5041 46.5351C93.9647 46.7503 93.4748 47.072 93.0639 47.4808C92.653 47.8895 92.3296 48.3768 92.1132 48.9133C91.8969 49.4498 91.792 50.0243 91.8051 50.6022C91.8007 51.1778 91.9115 51.7484 92.1309 52.281C92.3504 52.8136 92.6741 53.2974 93.0832 53.7044C93.4924 54.1114 93.9788 54.4334 94.5142 54.6517C95.0496 54.87 95.6233 54.9801 96.2019 54.9758C96.7829 54.9888 97.3605 54.8845 97.8998 54.6693C98.4392 54.4541 98.9291 54.1324 99.34 53.7237C99.7509 53.3149 100.074 52.8276 100.291 52.2911C100.507 51.7546 100.612 51.1801 100.599 50.6022C100.62 50.0221 100.522 49.4437 100.308 48.9034C100.095 48.363 99.7718 47.8722 99.3592 47.4617C98.9465 47.0512 98.4531 46.7298 97.9098 46.5176C97.3666 46.3055 96.7852 46.2071 96.2019 46.2286ZM96.2019 53.145C95.8653 53.1344 95.5342 53.0572 95.2278 52.918C94.9215 52.7787 94.6461 52.5803 94.4176 52.3341C94.1892 52.0879 94.0123 51.799 93.8972 51.4841C93.7822 51.1692 93.7313 50.8347 93.7476 50.5001C93.7313 50.1655 93.7822 49.831 93.8972 49.5161C94.0123 49.2012 94.1892 48.9123 94.4176 48.6661C94.6461 48.4199 94.9215 48.2214 95.2278 48.0822C95.5342 47.943 95.8653 47.8658 96.2019 47.8552C96.5412 47.8574 96.8764 47.9289 97.1867 48.0653C97.4971 48.2016 97.7759 48.4 98.0061 48.6479C98.2362 48.8959 98.4126 49.1883 98.5245 49.5069C98.6363 49.8255 98.6812 50.1635 98.6563 50.5001C98.6726 50.8347 98.6217 51.1692 98.5067 51.4841C98.3916 51.799 98.2147 52.0879 97.9863 52.3341C97.7578 52.5803 97.4824 52.7787 97.1761 52.918C96.8697 53.0572 96.5386 53.1344 96.2019 53.145ZM86.6895 46.2286C86.1085 46.2156 85.5309 46.3199 84.9916 46.5351C84.4523 46.7503 83.9623 47.072 83.5514 47.4808C83.1405 47.8895 82.8171 48.3768 82.6008 48.9133C82.3844 49.4498 82.2796 50.0243 82.2926 50.6022C82.2883 51.1778 82.3991 51.7484 82.6185 52.281C82.8379 52.8136 83.1616 53.2974 83.5708 53.7044C83.9799 54.1114 84.4664 54.4334 85.0018 54.6517C85.5372 54.87 86.1109 54.9801 86.6895 54.9758C87.2705 54.9888 87.8481 54.8845 88.3874 54.6693C88.9267 54.4541 89.4166 54.1324 89.8276 53.7237C90.2385 53.3149 90.5619 52.8276 90.7782 52.2911C90.9946 51.7546 91.0994 51.1801 91.0864 50.6022C91.108 50.0221 91.0091 49.4437 90.7958 48.9034C90.5825 48.363 90.2594 47.8722 89.8467 47.4617C89.434 47.0512 88.9406 46.7298 88.3974 46.5176C87.8541 46.3055 87.2727 46.2071 86.6895 46.2286ZM86.6895 53.145C86.3529 53.1344 86.0217 53.0572 85.7154 52.918C85.409 52.7787 85.1336 52.5803 84.9052 52.3341C84.6767 52.0879 84.4998 51.799 84.3848 51.4841C84.2698 51.1692 84.2189 50.8347 84.2351 50.5001C84.2189 50.1655 84.2698 49.831 84.3848 49.5161C84.4998 49.2012 84.6767 48.9123 84.9052 48.6661C85.1336 48.4199 85.409 48.2214 85.7154 48.0822C86.0217 47.943 86.3529 47.8658 86.6895 47.8552C87.0288 47.8574 87.3639 47.9289 87.6743 48.0653C87.9846 48.2016 88.2635 48.4 88.4936 48.6479C88.7237 48.8959 88.9002 49.1883 89.012 49.5069C89.1239 49.8255 89.1688 50.1635 89.1439 50.5001C89.1601 50.8347 89.1092 51.1692 88.9942 51.4841C88.8792 51.799 88.7023 52.0879 88.4738 52.3341C88.2454 52.5803 87.97 52.7787 87.6636 52.918C87.3573 53.0572 87.0261 53.1344 86.6895 53.145ZM75.3424 47.5503V49.3826H79.7393C79.6759 50.2553 79.3154 51.0805 78.717 51.7219C78.2766 52.1619 77.7494 52.5065 77.1687 52.7341C76.5879 52.9617 75.9661 53.0673 75.3424 53.0443C74.7008 53.0507 74.0645 52.928 73.4718 52.6836C72.8792 52.4392 72.3422 52.0781 71.8933 51.6222C71.4444 51.1662 71.0928 50.6246 70.8596 50.0301C70.6264 49.4355 70.5164 48.8002 70.5363 48.1623C70.5251 47.5266 70.6411 46.8951 70.8774 46.3044C71.1137 45.7137 71.4656 45.1756 71.9128 44.7214C72.36 44.2672 72.8934 43.9058 73.4822 43.6584C74.0709 43.411 74.7032 43.2825 75.3424 43.2803C76.5927 43.292 77.7946 43.763 78.717 44.6027L80.0465 43.2803C78.8128 42.0942 77.1607 41.4369 75.445 41.4494C73.6495 41.461 71.9293 42.1686 70.6499 43.4219C69.3706 44.6751 68.6329 46.3752 68.5938 48.1608C68.6326 49.9467 69.37 51.6472 70.6494 52.9007C71.9288 54.1543 73.6492 54.8621 75.445 54.8737C76.3244 54.9223 77.2035 54.7739 78.0176 54.4395C78.8316 54.1051 79.5598 53.5931 80.1484 52.9415C81.2278 51.7809 81.8141 50.25 81.7844 48.6692C81.8062 48.2933 81.7718 47.9162 81.6825 47.5503H75.3424ZM121.765 48.9741C121.514 48.193 121.024 47.509 120.365 47.0169C119.705 46.5248 118.908 46.2491 118.084 46.2278C115.834 46.2278 113.993 47.9573 113.993 50.6015C113.978 51.1715 114.077 51.7389 114.286 52.27C114.495 52.801 114.809 53.2849 115.21 53.6928C115.611 54.1008 116.089 54.4245 116.618 54.6448C117.147 54.8651 117.715 54.9774 118.288 54.9751C119.001 54.9818 119.703 54.8079 120.329 54.4699C120.955 54.1318 121.484 53.6407 121.867 53.0429L120.436 52.0275C120.216 52.3992 119.902 52.7073 119.526 52.9213C119.149 53.1353 118.723 53.2479 118.289 53.2478C117.838 53.2711 117.391 53.157 117.008 52.9207C116.624 52.6843 116.322 52.3371 116.142 51.9254L121.97 49.484L121.765 48.9741ZM115.834 50.398C115.813 49.7688 116.034 49.1553 116.452 48.6827C116.87 48.2102 117.454 47.9142 118.084 47.8552C118.415 47.8443 118.742 47.9239 119.03 48.0853C119.319 48.2467 119.557 48.4838 119.72 48.7706L115.834 50.398ZM111.028 54.5681H112.97V41.8549H111.028V54.5681ZM107.961 47.144C107.343 46.5097 106.498 46.1443 105.61 46.1272C104.479 46.1789 103.412 46.6624 102.631 47.4772C101.85 48.292 101.415 49.3751 101.417 50.5008C101.409 51.0555 101.511 51.6063 101.718 52.1216C101.924 52.637 102.231 53.1066 102.621 53.5036C103.01 53.9006 103.475 54.2171 103.988 54.4349C104.501 54.6528 105.052 54.7677 105.61 54.7731C106.036 54.7764 106.459 54.6872 106.847 54.5116C107.236 54.336 107.581 54.0782 107.859 53.7563H107.961V54.3668C107.961 55.9941 107.041 56.9096 105.61 56.9096C105.136 56.9092 104.675 56.762 104.29 56.4884C103.906 56.2149 103.616 55.8286 103.462 55.3836L101.826 56.0955C102.152 56.8517 102.694 57.4961 103.385 57.9484C104.075 58.4008 104.884 58.6412 105.711 58.6398C107.961 58.6398 109.802 57.3173 109.802 54.1647V46.4321H107.961V47.144ZM105.711 53.145C105.375 53.1344 105.044 53.0572 104.737 52.918C104.431 52.7787 104.156 52.5803 103.927 52.3341C103.699 52.0879 103.522 51.799 103.407 51.4841C103.292 51.1692 103.241 50.8347 103.257 50.5001C103.241 50.1655 103.292 49.831 103.407 49.5161C103.522 49.2012 103.699 48.9123 103.927 48.6661C104.156 48.4199 104.431 48.2214 104.737 48.0822C105.044 47.943 105.375 47.8658 105.711 47.8552C106.043 47.8686 106.368 47.9486 106.667 48.0902C106.967 48.2317 107.234 48.4321 107.454 48.6791C107.674 48.9261 107.841 49.2148 107.946 49.5277C108.05 49.8406 108.09 50.1714 108.063 50.5001C108.09 50.8288 108.05 51.1595 107.946 51.4725C107.841 51.7854 107.674 52.074 107.454 52.3211C107.234 52.5681 106.967 52.7684 106.667 52.91C106.368 53.0516 106.043 53.1315 105.711 53.145ZM130.661 41.8549H126.057V54.5688H127.999V49.7882H130.658C131.198 49.8135 131.737 49.7296 132.243 49.5417C132.749 49.3537 133.212 49.0656 133.603 48.6947C133.993 48.3238 134.305 47.8778 134.517 47.3839C134.73 46.8899 134.839 46.3582 134.839 45.8208C134.839 45.2835 134.73 44.7518 134.517 44.2578C134.305 43.7638 133.993 43.3179 133.603 42.947C133.212 42.5761 132.749 42.2879 132.243 42.1C131.737 41.912 131.198 41.8282 130.658 41.8535L130.661 41.8549ZM130.763 47.9573H128.002V43.5837H130.763C131.343 43.5822 131.901 43.8036 132.32 44.2016C132.739 44.5996 132.988 45.1435 133.013 45.7194C132.991 46.3059 132.747 46.8623 132.329 47.2773C131.912 47.6922 131.353 47.9351 130.763 47.9573ZM142.523 46.1265C141.83 46.0712 141.136 46.2263 140.534 46.5713C139.931 46.9163 139.448 47.4349 139.148 48.0587L140.887 48.7706C141.056 48.4673 141.311 48.2194 141.619 48.057C141.928 47.8945 142.277 47.8244 142.625 47.8552C143.109 47.8186 143.59 47.9663 143.969 48.2683C144.349 48.5703 144.599 49.0042 144.67 49.4825V49.5839C144.075 49.2551 143.407 49.0803 142.727 49.0755C140.887 49.0755 139.046 50.0923 139.046 51.9232C139.063 52.3183 139.159 52.7061 139.328 53.064C139.497 53.4219 139.736 53.7427 140.031 54.0077C140.326 54.2728 140.671 54.4768 141.047 54.6078C141.422 54.7388 141.819 54.7942 142.216 54.7709C142.695 54.7865 143.17 54.6832 143.599 54.4701C144.027 54.257 144.396 53.9409 144.67 53.5505H144.772V54.5674H146.613V49.6868C146.539 48.6777 146.068 47.7383 145.302 47.072C144.537 46.4057 143.538 46.066 142.523 46.1265ZM142.318 53.1443C141.704 53.1443 140.784 52.8394 140.784 52.0253C140.784 51.0085 141.909 50.7029 142.829 50.7029C143.432 50.7049 144.027 50.8441 144.568 51.1099C144.49 51.6568 144.223 52.1596 143.812 52.5312C143.401 52.9028 142.873 53.1199 142.318 53.145V53.1443ZM153.054 46.4314L150.907 51.9239H150.805L148.556 46.4314H146.51L149.885 54.1618L147.942 58.434H149.885L155.1 46.4321L153.054 46.4314ZM135.877 54.5688H137.819V41.8549H135.877V54.5688Z" fill="white"/>
<path d="M37.0066 30.7031C36.6521 31.1199 36.4721 31.6555 36.5035 32.1999V55.7859C36.4721 56.3302 36.6521 56.8658 37.0066 57.2826L50.4127 44.1415V43.8297L37.0066 30.7031Z" fill="url(#paint0_linear_5851_12113)"/>
<path d="M54.8473 48.5526L50.4141 44.1411V43.8294L54.8627 39.418L54.9567 39.4806L60.2228 42.4427C61.7322 43.2831 61.7322 44.6721 60.2228 45.5294L54.9567 48.4915L54.8473 48.5526Z" fill="url(#paint1_linear_5851_12113)"/>
<path d="M54.9557 48.4921L50.41 43.9844L37.0039 57.2783C37.3096 57.5474 37.701 57.7011 38.1096 57.7126C38.5181 57.724 38.9177 57.5925 39.2382 57.341L54.9557 48.4921Z" fill="url(#paint2_linear_5851_12113)"/>
<path d="M54.9557 39.4954L39.2382 30.6412C38.3137 30.127 37.4932 30.1889 37.0039 30.7038L50.41 43.9978L54.9557 39.4954Z" fill="url(#paint3_linear_5851_12113)"/>
</g>
<defs>
<filter id="filter0_d_5851_12113" x="0.5" y="0" width="192" height="96" filterUnits="userSpaceOnUse" color-interpolation-filters="sRGB">
<feFlood flood-opacity="0" result="BackgroundImageFix"/>
<feColorMatrix in="SourceAlpha" type="matrix" values="0 0 0 0 0 0 0 0 0 0 0 0 0 0 0 0 0 0 127 0" result="hardAlpha"/>
<feOffset dy="4"/>
<feGaussianBlur stdDeviation="12"/>
<feColorMatrix type="matrix" values="0 0 0 0 0 0 0 0 0 0 0 0 0 0 0.156863 0 0 0 0.25 0"/>
<feBlend mode="normal" in2="BackgroundImageFix" result="effect1_dropShadow_5851_12113"/>
<feBlend mode="normal" in="SourceGraphic" in2="effect1_dropShadow_5851_12113" result="shape"/>
</filter>
<linearGradient id="paint0_linear_5851_12113" x1="49.2162" y1="32.0321" x2="27.911" y2="37.7799" gradientUnits="userSpaceOnUse">
<stop stop-color="#00A0FF"/>
<stop offset="0.007" stop-color="#00A1FF"/>
<stop offset="0.26" stop-color="#00BEFF"/>
<stop offset="0.512" stop-color="#00D2FF"/>
<stop offset="0.76" stop-color="#00DFFF"/>
<stop offset="1" stop-color="#00E3FF"/>
</linearGradient>
<linearGradient id="paint1_linear_5851_12113" x1="62.1644" y1="43.9944" x2="36.1473" y2="43.9944" gradientUnits="userSpaceOnUse">
<stop stop-color="#FFE000"/>
<stop offset="0.409" stop-color="#FFBD00"/>
<stop offset="0.775" stop-color="#FFA500"/>
<stop offset="1" stop-color="#FF9C00"/>
</linearGradient>
<linearGradient id="paint2_linear_5851_12113" x1="52.4783" y1="46.4418" x2="35.5499" y2="75.171" gradientUnits="userSpaceOnUse">
<stop stop-color="#FF3A44"/>
<stop offset="1" stop-color="#C31162"/>
</linearGradient>
<linearGradient id="paint3_linear_5851_12113" x1="33.629" y1="22.8392" x2="41.1781" y2="35.6757" gradientUnits="userSpaceOnUse">
<stop stop-color="#32A071"/>
<stop offset="0.069" stop-color="#2DA771"/>
<stop offset="0.476" stop-color="#15CF74"/>
<stop offset="0.801" stop-color="#06E775"/>
<stop offset="1" stop-color="#00F076"/>
</linearGradient>
</defs>
</svg>
