<svg width="54" height="18" viewBox="0 0 54 18" fill="none" xmlns="http://www.w3.org/2000/svg">
<path d="M22.647 9.23117C22.647 11.7296 20.6924 13.5707 18.2937 13.5707C15.895 13.5707 13.9404 11.7296 13.9404 9.23117C13.9404 6.71508 15.895 4.8916 18.2937 4.8916C20.6924 4.8916 22.647 6.71508 22.647 9.23117ZM20.7413 9.23117C20.7413 7.66986 19.6085 6.6016 18.2937 6.6016C16.9789 6.6016 15.8461 7.66986 15.8461 9.23117C15.8461 10.7768 16.9789 11.8607 18.2937 11.8607C19.6085 11.8607 20.7413 10.7749 20.7413 9.23117Z" fill="#000028" fill-opacity="0.35"/>
<path d="M32.0381 9.23117C32.0381 11.7296 30.0835 13.5707 27.6848 13.5707C25.2861 13.5707 23.3315 11.7296 23.3315 9.23117C23.3315 6.71704 25.2861 4.8916 27.6848 4.8916C30.0835 4.8916 32.0381 6.71508 32.0381 9.23117ZM30.1324 9.23117C30.1324 7.66986 28.9996 6.6016 27.6848 6.6016C26.37 6.6016 25.2372 7.66986 25.2372 9.23117C25.2372 10.7768 26.37 11.8607 27.6848 11.8607C28.9996 11.8607 30.1324 10.7749 30.1324 9.23117Z" fill="#000028" fill-opacity="0.35"/>
<path d="M41.0379 5.15378V12.9446C41.0379 16.1494 39.1479 17.4583 36.9135 17.4583C34.8103 17.4583 33.5444 16.0516 33.067 14.9012L34.7261 14.2105C35.0216 14.9168 35.7455 15.7503 36.9116 15.7503C38.3418 15.7503 39.2281 14.8679 39.2281 13.2068V12.5827H39.1616C38.7351 13.109 37.9133 13.5688 36.8764 13.5688C34.7066 13.5688 32.7188 11.6788 32.7188 9.24682C32.7188 6.79725 34.7066 4.8916 36.8764 4.8916C37.9114 4.8916 38.7331 5.35138 39.1616 5.86204H39.2281V5.15573H41.0379V5.15378ZM39.3631 9.24682C39.3631 7.71878 38.3438 6.6016 37.0466 6.6016C35.7318 6.6016 34.6303 7.71878 34.6303 9.24682C34.6303 10.7592 35.7318 11.8607 37.0466 11.8607C38.3438 11.8607 39.3631 10.7592 39.3631 9.24682Z" fill="#000028" fill-opacity="0.35"/>
<path d="M44.0218 0.586914V13.3043H42.1631V0.586914H44.0218Z" fill="#000028" fill-opacity="0.35"/>
<path d="M51.2646 10.6594L52.7437 11.6455C52.2663 12.3518 51.1159 13.5688 49.1281 13.5688C46.6629 13.5688 44.8218 11.6631 44.8218 9.22921C44.8218 6.64856 46.6785 4.88965 48.9148 4.88965C51.1668 4.88965 52.2683 6.68182 52.6283 7.6503L52.8259 8.14334L47.0248 10.546C47.469 11.4166 48.1596 11.8607 49.1281 11.8607C50.0985 11.8607 50.7716 11.3833 51.2646 10.6594ZM46.7118 9.09813L50.5896 7.48791C50.3763 6.94595 49.7346 6.56834 48.9794 6.56834C48.0109 6.56834 46.6629 7.42334 46.7118 9.09813Z" fill="#000028" fill-opacity="0.35"/>
<path d="M6.90444 8.1018V6.26071H13.1086C13.1692 6.58158 13.2005 6.96114 13.2005 7.37201C13.2005 8.75332 12.8229 10.4614 11.606 11.6783C10.4223 12.9109 8.90988 13.5683 6.9064 13.5683C3.19292 13.5683 0.0703125 10.5435 0.0703125 6.83006C0.0703125 3.11658 3.19292 0.0917969 6.9064 0.0917969C8.96075 0.0917969 10.4242 0.897884 11.5238 1.94854L10.2247 3.24767C9.43618 2.5081 8.36792 1.93288 6.90444 1.93288C4.1927 1.93288 2.07183 4.11832 2.07183 6.83006C2.07183 9.5418 4.1927 11.7272 6.90444 11.7272C8.66336 11.7272 9.6651 11.0209 10.3068 10.3792C10.8273 9.85875 11.1697 9.11527 11.3047 8.09984L6.90444 8.1018Z" fill="#000028" fill-opacity="0.35"/>
</svg>
