<svg width="24" height="24" viewBox="0 0 24 24" fill="none" xmlns="http://www.w3.org/2000/svg">
<path fill-rule="evenodd" clip-rule="evenodd" d="M14 5C14 4.44772 14.4477 4 15 4H19C19.5523 4 20 4.44772 20 5V9C20 9.55228 19.5523 10 19 10C18.4477 10 18 9.55228 18 9V7.41421L14.7071 10.7071C14.3166 11.0976 13.6834 11.0976 13.2929 10.7071C12.9024 10.3166 12.9024 9.68342 13.2929 9.29289L16.5858 6H15C14.4477 6 14 5.55228 14 5Z" fill="#000028"/>
<path fill-rule="evenodd" clip-rule="evenodd" d="M5 9C5 7.34315 6.34315 6 8 6H11C11.5523 6 12 6.44772 12 7C12 7.55228 11.5523 8 11 8H8C7.44772 8 7 8.44772 7 9V16C7 16.5523 7.44772 17 8 17H15C15.5523 17 16 16.5523 16 16V13C16 12.4477 16.4477 12 17 12C17.5523 12 18 12.4477 18 13V16C18 17.6569 16.6569 19 15 19H8C6.34315 19 5 17.6569 5 16V9Z" fill="#000028"/>
</svg>
