<svg width="24" height="24" viewBox="0 0 24 24" fill="none" xmlns="http://www.w3.org/2000/svg">
<path d="M8 10.5C8 10.2239 7.77614 10 7.5 10H4.5C4.22386 10 4 10.2239 4 10.5V17C4 18.6569 5.34315 20 7 20H17C18.6569 20 20 18.6569 20 17V10.5C20 10.2239 19.7761 10 19.5 10H16.5C16.2239 10 16 10.2239 16 10.5V11C16 11.5523 15.5523 12 15 12H9C8.44772 12 8 11.5523 8 11V10.5Z" fill="#000028"/>
<path d="M2 5C2 3.89543 2.89543 3 4 3H20C21.1046 3 22 3.89543 22 5V6C22 7.10457 21.1046 8 20 8H4C2.89543 8 2 7.10457 2 6V5Z" fill="#000028"/>
</svg>
