<svg width="40" height="40" viewBox="0 0 40 40" fill="none" xmlns="http://www.w3.org/2000/svg">
<path fill-rule="evenodd" clip-rule="evenodd" d="M5 18.334C5 10.0497 11.7157 3.33398 20 3.33398C28.2843 3.33398 35 10.0497 35 18.334C35 23.378 31.9837 27.6536 28.5082 30.6657L22.7725 35.6366C21.1814 37.0156 18.8186 37.0156 17.2275 35.6366L11.4918 30.6657C8.01628 27.6536 5 23.378 5 18.334ZM20.7697 12.1843C20.4851 11.4998 19.5155 11.4998 19.2309 12.1843L17.9152 15.3476C17.7959 15.6343 17.5272 15.8309 17.2179 15.8578L14.104 16.1285C13.3894 16.1906 13.0819 17.0665 13.6009 17.5616L15.9662 19.8187C16.1807 20.0233 16.2703 20.3265 16.2015 20.6149L15.4004 23.9731C15.2284 24.6941 16.0128 25.264 16.6454 24.8776L19.5659 23.0938C19.8326 22.9309 20.168 22.9309 20.4347 23.0938L23.3552 24.8776C23.9878 25.264 24.7721 24.6941 24.6002 23.9731L23.7994 20.616C23.7304 20.327 23.8205 20.0232 24.0358 19.8186L26.4092 17.5627C26.9297 17.068 26.6225 16.1905 25.907 16.1285L22.7828 15.8577C22.4734 15.8308 22.2046 15.6342 22.0854 15.3475L20.7697 12.1843Z" fill="url(#paint0_linear_5717_90627)"/>
<defs>
<linearGradient id="paint0_linear_5717_90627" x1="5" y1="3.33398" x2="35.8188" y2="4.10898" gradientUnits="userSpaceOnUse">
<stop stop-color="#FF884D"/>
<stop offset="1" stop-color="#FF4060"/>
</linearGradient>
</defs>
</svg>
