<svg width="184" height="184" viewBox="0 0 184 184" fill="none" xmlns="http://www.w3.org/2000/svg">
<path d="M99.5 60C99.5 55.5817 95.9183 52 91.5 52C87.0817 52 83.5 55.5817 83.5 60V92C83.5 96.4183 87.0817 100 91.5 100C95.9183 100 99.5 96.4183 99.5 92V60Z" fill="#FF4D52"/>
<path d="M83.5 124C83.5 119.582 87.0817 116 91.5 116C95.9183 116 99.5 119.582 99.5 124C99.5 128.418 95.9183 132 91.5 132C87.0817 132 83.5 128.418 83.5 124Z" fill="#FF4D52"/>
<rect x="2" y="2" width="180" height="180" rx="90" stroke="#FFE6D9" stroke-width="4"/>
</svg>
