<svg width="24" height="24" viewBox="0 0 24 24" fill="none" xmlns="http://www.w3.org/2000/svg">
<path d="M13.5681 12C13.3157 12 13.0699 11.9999 12.8618 12.017C12.6332 12.0356 12.3634 12.0797 12.092 12.218C11.7157 12.4097 11.4097 12.7157 11.218 13.092C11.0797 13.3634 11.0356 13.6332 11.017 13.8618C10.9999 14.0699 11 14.3157 11 14.5681L11 18.4319C11 18.6843 10.9999 18.9301 11.017 19.1382C11.0356 19.3668 11.0797 19.6366 11.218 19.908C11.4097 20.2843 11.7157 20.5903 12.092 20.782C12.3634 20.9203 12.6332 20.9644 12.8618 20.9831C13.0699 21.0001 13.3157 21 13.5681 21H18.4319C18.6843 21 18.9301 21.0001 19.1382 20.9831C19.3668 20.9644 19.6366 20.9203 19.908 20.782C20.2843 20.5903 20.5903 20.2843 20.782 19.908C20.9203 19.6366 20.9644 19.3668 20.9831 19.1382C21.0001 18.9301 21 18.6843 21 18.4319V14.5681C21 14.3157 21.0001 14.0699 20.9831 13.8618C20.9644 13.6332 20.9203 13.3634 20.782 13.092C20.5903 12.7157 20.2843 12.4097 19.908 12.218C19.6366 12.0797 19.3668 12.0356 19.1382 12.017C18.9301 11.9999 18.6843 12 18.4319 12L13.5681 12Z" fill="white"/>
<path d="M5.56811 3C5.31573 2.99997 5.06993 2.99994 4.86178 3.01695C4.63318 3.03563 4.36345 3.07969 4.09202 3.21799C3.7157 3.40974 3.40974 3.7157 3.21799 4.09202C3.07969 4.36345 3.03563 4.63318 3.01695 4.86178C2.99994 5.06993 2.99997 5.31572 3 5.56809L3 7.4319C2.99997 7.68428 2.99994 7.93008 3.01695 8.13824C3.03563 8.36683 3.07969 8.63656 3.21799 8.90799C3.40974 9.28431 3.7157 9.59027 4.09202 9.78202C4.36345 9.92032 4.63318 9.96438 4.86178 9.98306C5.06993 10.0001 5.31573 10 5.56811 10H18.4319C18.6843 10 18.9301 10.0001 19.1382 9.98306C19.3668 9.96438 19.6366 9.92032 19.908 9.78202C20.2843 9.59027 20.5903 9.28431 20.782 8.90799C20.9203 8.63656 20.9644 8.36683 20.9831 8.13824C21.0001 7.93011 21 7.68437 21 7.43204V5.56809C21 5.31575 21.0001 5.0699 20.9831 4.86178C20.9644 4.63318 20.9203 4.36345 20.782 4.09202C20.5903 3.7157 20.2843 3.40974 19.908 3.21799C19.6366 3.07969 19.3668 3.03563 19.1382 3.01695C18.9301 2.99994 18.6843 2.99997 18.4319 3L5.56811 3Z" fill="white"/>
<path d="M5.56811 12C5.31572 12 5.06993 11.9999 4.86178 12.017C4.63318 12.0356 4.36345 12.0797 4.09202 12.218C3.7157 12.4097 3.40974 12.7157 3.21799 13.092C3.07969 13.3634 3.03563 13.6332 3.01695 13.8618C2.99994 14.0699 2.99997 14.3157 3 14.5681L3 18.4319C2.99997 18.6843 2.99994 18.9301 3.01695 19.1382C3.03563 19.3668 3.07969 19.6366 3.21799 19.908C3.40974 20.2843 3.7157 20.5903 4.09202 20.782C4.36345 20.9203 4.63318 20.9644 4.86178 20.9831C5.06994 21.0001 5.31574 21 5.56812 21H6.43189C6.68427 21 6.93007 21.0001 7.13824 20.9831C7.36683 20.9644 7.63656 20.9203 7.90799 20.782C8.28431 20.5903 8.59027 20.2843 8.78202 19.908C8.92032 19.6366 8.96438 19.3668 8.98306 19.1382C9.00007 18.9301 9.00004 18.6843 9.00001 18.4319V14.5681C9.00004 14.3157 9.00007 14.0699 8.98306 13.8618C8.96438 13.6332 8.92032 13.3634 8.78202 13.092C8.59027 12.7157 8.28431 12.4097 7.90799 12.218C7.63656 12.0797 7.36683 12.0356 7.13824 12.017C6.93008 11.9999 6.68429 12 6.4319 12H5.56811Z" fill="white"/>
</svg>
