<svg width="24" height="24" viewBox="0 0 24 24" fill="none" xmlns="http://www.w3.org/2000/svg">
<path fill-rule="evenodd" clip-rule="evenodd" d="M18.2929 15.2929C18.6834 14.9024 19.3166 14.9024 19.7071 15.2929L21.7071 17.2929C22.0976 17.6834 22.0976 18.3166 21.7071 18.7071C21.3166 19.0976 20.6834 19.0976 20.2929 18.7071L20 18.4142V22C20 22.5523 19.5523 23 19 23C18.4477 23 18 22.5523 18 22V18.4142L17.7071 18.7071C17.3166 19.0976 16.6834 19.0976 16.2929 18.7071C15.9024 18.3166 15.9024 17.6834 16.2929 17.2929L18.2929 15.2929Z" fill="#000028"/>
<path fill-rule="evenodd" clip-rule="evenodd" d="M2 8.8C2 7.11984 2 6.27976 2.32698 5.63803C2.6146 5.07354 3.07354 4.6146 3.63803 4.32698C4.27976 4 5.11984 4 6.8 4H17.2C18.8802 4 19.7202 4 20.362 4.32698C20.9265 4.6146 21.3854 5.07354 21.673 5.63803C22 6.27976 22 7.11984 22 8.8V12.2C22 12.48 22 12.62 21.9455 12.727C21.8976 12.8211 21.8211 12.8976 21.727 12.9455C21.62 13 21.48 13 21.2 13H19C15.6863 13 13 15.6863 13 19V19.2C13 19.48 13 19.62 12.9455 19.727C12.8976 19.8211 12.8211 19.8976 12.727 19.9455C12.62 20 12.48 20 12.2 20H6.8C5.11984 20 4.27976 20 3.63803 19.673C3.07354 19.3854 2.6146 18.9265 2.32698 18.362C2 17.7202 2 16.8802 2 15.2V8.8ZM6.17538 8.43431C6.4878 7.97889 7.11026 7.86296 7.56569 8.17538L11.4343 10.8293C11.7752 11.0631 12.2248 11.0631 12.5657 10.8293L16.4343 8.17538C16.8897 7.86296 17.5122 7.97889 17.8246 8.43431C18.137 8.88974 18.0211 9.5122 17.5657 9.82462L13.6971 12.4785C12.6744 13.18 11.3256 13.18 10.3029 12.4785L6.43431 9.82462C5.97889 9.5122 5.86296 8.88974 6.17538 8.43431Z" fill="#000028"/>
</svg>
