<svg width="24" height="24" viewBox="0 0 24 24" fill="none" xmlns="http://www.w3.org/2000/svg">
<path d="M15.2929 6.70711C14.9024 6.31658 14.9024 5.68342 15.2929 5.29289C15.6834 4.90237 16.3166 4.90237 16.7071 5.29289L19.7071 8.29289C20.0976 8.68342 20.0976 9.31658 19.7071 9.70711L16.7071 12.7071C16.3166 13.0976 15.6834 13.0976 15.2929 12.7071C14.9024 12.3166 14.9024 11.6834 15.2929 11.2929L16.5858 10H11C10.4477 10 10 9.55229 10 9C10 8.44772 10.4477 8 11 8H16.5858L15.2929 6.70711Z" fill="white"/>
<path d="M8.70711 12.7071C9.09763 12.3166 9.09763 11.6834 8.70711 11.2929C8.31658 10.9024 7.68342 10.9024 7.29289 11.2929L4.29289 14.2929C3.90237 14.6834 3.90237 15.3166 4.29289 15.7071L7.29289 18.7071C7.68342 19.0976 8.31658 19.0976 8.70711 18.7071C9.09763 18.3166 9.09763 17.6834 8.70711 17.2929L7.41421 16H13C13.5523 16 14 15.5523 14 15C14 14.4477 13.5523 14 13 14H7.41421L8.70711 12.7071Z" fill="white"/>
</svg>
