<svg width="24" height="24" viewBox="0 0 24 24" fill="none" xmlns="http://www.w3.org/2000/svg">
<path d="M15.9239 19.1824L15.0375 21.3084C14.8657 21.7206 15.2792 22.1342 15.6914 21.9624L17.8175 21.076C17.938 21.0258 18.0475 20.9525 18.1398 20.8601L21.7029 17.297C22.0934 16.9065 22.0934 16.2733 21.7029 15.8828L21.1171 15.297C20.7266 14.9065 20.0934 14.9065 19.7029 15.297L16.1398 18.8602C16.0475 18.9525 15.9742 19.0619 15.9239 19.1824Z" fill="#000028"/>
<path d="M4 6.8C4 5.11984 4 4.27976 4.32698 3.63803C4.6146 3.07354 5.07354 2.6146 5.63803 2.32698C6.27976 2 7.11984 2 8.8 2H12.2C12.48 2 12.62 2 12.727 2.0545C12.8211 2.10243 12.8976 2.17892 12.9455 2.273C13 2.37996 13 2.51997 13 2.8V5C13 7.20914 14.7909 9 17 9H19.2C19.48 9 19.62 9 19.727 9.0545C19.8211 9.10243 19.8976 9.17892 19.9455 9.273C20 9.37996 20 9.51997 20 9.8V12.2C20 12.48 20 12.62 19.9455 12.727C19.8976 12.8211 19.8211 12.8976 19.727 12.9455C19.62 13 19.48 13 19.2 13H19C15.6863 13 13 15.6863 13 19V21.2C13 21.48 13 21.62 12.9455 21.727C12.8976 21.8211 12.8211 21.8976 12.727 21.9455C12.62 22 12.48 22 12.2 22H8.8C7.11984 22 6.27976 22 5.63803 21.673C5.07354 21.3854 4.6146 20.9265 4.32698 20.362C4 19.7202 4 18.8802 4 17.2V6.8Z" fill="#000028"/>
<path d="M15 2.70711C15 2.31658 15.3166 2 15.7071 2C15.8946 2 16.0745 2.0745 16.2071 2.20711L19.7929 5.79289C19.9255 5.9255 20 6.10536 20 6.29289C20 6.68342 19.6834 7 19.2929 7H17C15.8954 7 15 6.10457 15 5V2.70711Z" fill="#000028"/>
</svg>
