<svg width="24" height="24" viewBox="0 0 24 24" fill="none" xmlns="http://www.w3.org/2000/svg">
<path fill-rule="evenodd" clip-rule="evenodd" d="M14 5C14 4.44772 14.4477 4 15 4H19C19.5523 4 20 4.44772 20 5V9C20 9.55228 19.5523 10 19 10C18.4477 10 18 9.55228 18 9V7.41421L14.7071 10.7071C14.3166 11.0976 13.6834 11.0976 13.2929 10.7071C12.9024 10.3166 12.9024 9.68342 13.2929 9.29289L16.5858 6H15C14.4477 6 14 5.55228 14 5Z" fill="#000028"/>
<path d="M8 6C6.34315 6 5 7.34315 5 9V16C5 17.6569 6.34315 19 8 19H15C16.6569 19 18 17.6569 18 16V13.5C18 13.2239 17.7761 13 17.5 13H14C12.3431 13 11 11.6569 11 10V6.5C11 6.22386 10.7761 6 10.5 6H8Z" fill="#000028"/>
</svg>
