<svg width="24" height="24" viewBox="0 0 24 24" fill="none" xmlns="http://www.w3.org/2000/svg">
<path d="M16.7162 8.00444C15.0437 8.05668 14.2162 8.7557 11.9996 8.7557C9.7829 8.7557 8.95623 8.05668 7.2829 8.00444C4.9779 7.93377 1.19957 8.69117 2.1504 11.3405C2.85207 13.2924 4.18707 15.6091 6.59373 15.9494C8.78373 16.2613 9.8654 15.0591 11.3896 13.8854C11.5373 13.7436 11.7269 13.6455 11.9341 13.6028C11.9772 13.5939 12.0219 13.5939 12.0651 13.6028C12.2722 13.6455 12.4618 13.7436 12.6096 13.8854C14.1337 15.0599 15.2154 16.2613 17.4054 15.9502C19.8112 15.6076 21.1462 13.2916 21.8487 11.3413C22.8021 8.69194 19.0221 7.93377 16.7162 8.00444ZM7.01623 12.8699C6.23448 12.5759 5.58632 12.0495 5.17109 11.3795C5.0643 11.2072 5.14244 10.9904 5.34083 10.9134C5.66328 10.7881 6.00539 10.709 6.35533 10.6794C6.8317 10.6391 7.31195 10.6915 7.76498 10.8331C8.21801 10.9748 8.63372 11.2025 8.98521 11.5016C9.24339 11.7214 9.46269 11.976 9.63594 12.2562C9.74256 12.4286 9.66152 12.6444 9.46301 12.7213C8.69167 13.02 7.83038 13.0744 7.01623 12.8699ZM16.9837 12.8699C16.1698 13.0742 15.3087 13.0198 14.5376 12.7212C14.3392 12.6444 14.2581 12.4287 14.3645 12.2563C14.5375 11.976 14.7565 11.7212 15.0145 11.5013C15.3656 11.202 15.781 10.974 16.2338 10.832C16.6865 10.69 17.1666 10.6372 17.6429 10.6771C17.9928 10.7063 18.3349 10.7851 18.6575 10.91C18.8559 10.9868 18.9343 11.2033 18.8279 11.3757C18.4136 12.047 17.7658 12.5747 16.9837 12.8699Z" fill="#000028"/>
</svg>
