<svg width="24" height="24" viewBox="0 0 24 24" fill="none" xmlns="http://www.w3.org/2000/svg">
<path fill-rule="evenodd" clip-rule="evenodd" d="M3.43597 5.18404C3 6.03969 3 7.15979 3 9.4V14.6C3 16.8402 3 17.9603 3.43597 18.816C3.81947 19.5686 4.43139 20.1805 5.18404 20.564C6.03969 21 7.15979 21 9.4 21H14.6C16.8402 21 17.9603 21 18.816 20.564C19.5686 20.1805 20.1805 19.5686 20.564 18.816C21 17.9603 21 16.8402 21 14.6V9.4C21 7.15979 21 6.03969 20.564 5.18404C20.1805 4.43139 19.5686 3.81947 18.816 3.43597C17.9603 3 16.8402 3 14.6 3H9.4C7.15979 3 6.03969 3 5.18404 3.43597C4.43139 3.81947 3.81947 4.43139 3.43597 5.18404ZM15.7071 10.7071C16.0976 10.3166 16.0976 9.68342 15.7071 9.29289C15.3166 8.90237 14.6834 8.90237 14.2929 9.29289L11 12.5858L9.70711 11.2929C9.31658 10.9024 8.68342 10.9024 8.29289 11.2929C7.90237 11.6834 7.90237 12.3166 8.29289 12.7071L10.2929 14.7071C10.6834 15.0976 11.3166 15.0976 11.7071 14.7071L15.7071 10.7071Z" fill="#000028"/>
</svg>
