<svg width="40" height="40" viewBox="0 0 40 40" fill="none" xmlns="http://www.w3.org/2000/svg">
<path fill-rule="evenodd" clip-rule="evenodd" d="M5 18.333C5 10.0487 11.7157 3.33301 20 3.33301C28.2843 3.33301 35 10.0487 35 18.333C35 23.377 31.9837 27.6526 28.5082 30.6647L22.7725 35.6356C21.1814 37.0146 18.8186 37.0146 17.2275 35.6356L11.4918 30.6647C8.01628 27.6526 5 23.377 5 18.333Z" fill="url(#paint0_linear_5695_90234)"/>
<path fill-rule="evenodd" clip-rule="evenodd" d="M20.5524 13C20.022 13 19.5133 13.2107 19.1382 13.5858L16.2358 16.4882C16.1056 16.6184 16.1056 16.8294 16.2358 16.9596L22.0405 22.7644C22.1707 22.8945 22.3817 22.8945 22.5119 22.7644L25.4143 19.8619C25.7894 19.4869 26.0001 18.9781 26.0001 18.4477V14.3333C26.0001 13.597 25.4032 13 24.6668 13H20.5524Z" fill="white"/>
<path d="M21.0977 24.1786C21.2279 24.0484 21.2279 23.8373 21.0977 23.7072L15.293 17.9024C15.1628 17.7723 14.9517 17.7723 14.8215 17.9024L14.3935 18.3305C13.8728 18.8512 13.8728 19.6954 14.3935 20.2161L18.784 24.6067C19.3047 25.1274 20.1489 25.1274 20.6696 24.6067L21.0977 24.1786Z" fill="white"/>
<defs>
<linearGradient id="paint0_linear_5695_90234" x1="5" y1="3.33301" x2="35.8188" y2="4.108" gradientUnits="userSpaceOnUse">
<stop stop-color="#FF884D"/>
<stop offset="1" stop-color="#FF4060"/>
</linearGradient>
</defs>
</svg>
