<svg width="24" height="24" viewBox="0 0 24 24" fill="none" xmlns="http://www.w3.org/2000/svg">
<path fill-rule="evenodd" clip-rule="evenodd" d="M10.8462 10C10.3788 10 10 10.3788 10 10.8462V19.1538C10 19.6212 10.3788 20 10.8462 20H19.1538C19.6212 20 20 19.6212 20 19.1538V10.8462C20 10.3788 19.6212 10 19.1538 10H10.8462ZM8 10.8462C8 9.27427 9.27427 8 10.8462 8H19.1538C20.7257 8 22 9.27427 22 10.8462V19.1538C22 20.7257 20.7257 22 19.1538 22H10.8462C9.27427 22 8 20.7257 8 19.1538V10.8462Z" fill="#000028"/>
<path fill-rule="evenodd" clip-rule="evenodd" d="M4.84615 4C4.62174 4 4.40652 4.08915 4.24783 4.24783C4.08915 4.40652 4 4.62174 4 4.84615V13.1538C4 13.3783 4.08915 13.5935 4.24783 13.7522C4.40652 13.9109 4.62174 14 4.84615 14H5C5.55228 14 6 14.4477 6 15C6 15.5523 5.55228 16 5 16H4.84615C4.09131 16 3.36738 15.7001 2.83362 15.1664C2.29986 14.6326 2 13.9087 2 13.1538V4.84615C2 4.09131 2.29986 3.36738 2.83362 2.83362C3.36738 2.29986 4.09131 2 4.84615 2H13.1538C13.9087 2 14.6326 2.29986 15.1664 2.83362C15.7001 3.36738 16 4.09131 16 4.84615V5C16 5.55228 15.5523 6 15 6C14.4477 6 14 5.55228 14 5V4.84615C14 4.62174 13.9109 4.40652 13.7522 4.24783C13.5935 4.08915 13.3783 4 13.1538 4H4.84615Z" fill="#000028"/>
</svg>
