<svg width="24" height="24" viewBox="0 0 24 24" fill="none" xmlns="http://www.w3.org/2000/svg">
<g id="Code">
<path id="Shape" fill-rule="evenodd" clip-rule="evenodd" d="M3 9.4C3 7.15979 3 6.03969 3.43597 5.18404C3.81947 4.43139 4.43139 3.81947 5.18404 3.43597C6.03969 3 7.15979 3 9.4 3H14.6C16.8402 3 17.9603 3 18.816 3.43597C19.5686 3.81947 20.1805 4.43139 20.564 5.18404C21 6.03969 21 7.15979 21 9.4V14.6C21 16.8402 21 17.9603 20.564 18.816C20.1805 19.5686 19.5686 20.1805 18.816 20.564C17.9603 21 16.8402 21 14.6 21H9.4C7.15979 21 6.03969 21 5.18404 20.564C4.43139 20.1805 3.81947 19.5686 3.43597 18.816C3 17.9603 3 16.8402 3 14.6V9.4ZM9.6 7.20006C10.0418 7.53143 10.1314 8.15823 9.8 8.60006L7.25 12.0001L9.8 15.4001C10.1314 15.8419 10.0418 16.4687 9.6 16.8001C9.15817 17.1314 8.53137 17.0419 8.2 16.6001L5.2 12.6001C4.93333 12.2445 4.93333 11.7556 5.2 11.4001L8.2 7.40006C8.53137 6.95823 9.15817 6.86869 9.6 7.20006ZM14.2 8.60006C13.8686 8.15823 13.9582 7.53143 14.4 7.20006C14.8418 6.86869 15.4686 6.95823 15.8 7.40006L18.8 11.4001C19.0667 11.7556 19.0667 12.2445 18.8 12.6001L15.8 16.6001C15.4686 17.0419 14.8418 17.1314 14.4 16.8001C13.9582 16.4687 13.8686 15.8419 14.2 15.4001L16.75 12.0001L14.2 8.60006Z" fill="white"/>
</g>
</svg>
