<svg width="24" height="24" viewBox="0 0 24 24" fill="none" xmlns="http://www.w3.org/2000/svg">
<path fill-rule="evenodd" clip-rule="evenodd" d="M3 7.8C3 6.11984 3 5.27976 3.32698 4.63803C3.6146 4.07354 4.07354 3.6146 4.63803 3.32698C5.27976 3 6.11984 3 7.8 3H16.2C17.8802 3 18.7202 3 19.362 3.32698C19.9265 3.6146 20.3854 4.07354 20.673 4.63803C21 5.27976 21 6.11984 21 7.8V16.2C21 17.8802 21 18.7202 20.673 19.362C20.3854 19.9265 19.9265 20.3854 19.362 20.673C18.7202 21 17.8802 21 16.2 21H7.8C6.11984 21 5.27976 21 4.63803 20.673C4.07354 20.3854 3.6146 19.9265 3.32698 19.362C3 18.7202 3 17.8802 3 16.2V7.8ZM15 14C15 13.4477 14.5523 13 14 13C13.4477 13 13 13.4477 13 14V18C13 18.5523 13.4477 19 14 19C14.5523 19 15 18.5523 15 18V14ZM18 7C18.5523 7 19 7.44771 19 8V18C19 18.5523 18.5523 19 18 19C17.4477 19 17 18.5523 17 18V8C17 7.44772 17.4477 7 18 7ZM11 10C11 9.44772 10.5523 9 10 9C9.44772 9 9 9.44772 9 10V18C9 18.5523 9.44772 19 10 19C10.5523 19 11 18.5523 11 18V10ZM6 5C6.55228 5 7 5.44772 7 6V18C7 18.5523 6.55228 19 6 19C5.44772 19 5 18.5523 5 18V6C5 5.44772 5.44772 5 6 5Z" fill="white"/>
</svg>
