<svg width="24" height="24" viewBox="0 0 24 24" fill="none" xmlns="http://www.w3.org/2000/svg">
<path d="M10.609 2.9382C11.114 1.68645 12.8862 1.68645 13.3911 2.9382L15.3284 7.74032C15.3992 7.91575 15.5629 8.03622 15.7514 8.0516L20.6176 8.44866C21.937 8.55632 22.4803 10.1957 21.4862 11.07L17.7937 14.3177C17.6571 14.4379 17.5965 14.6228 17.6356 14.8006L18.8164 20.1676C19.1114 21.5083 17.5997 22.5081 16.4814 21.7119L12.2901 18.7276C12.1165 18.604 11.8837 18.604 11.7101 18.7276L7.51872 21.7119C6.40047 22.5081 4.88878 21.5083 5.18374 20.1676L6.36452 14.8006C6.40362 14.6228 6.34306 14.4379 6.2064 14.3177L2.51376 11.07C1.5197 10.1958 2.06296 8.55632 3.3824 8.44866L8.2487 8.0516C8.43724 8.03622 8.60096 7.91575 8.67173 7.74032L10.609 2.9382Z" fill="#000028"/>
</svg>
