<svg width="40" height="40" viewBox="0 0 40 40" fill="none" xmlns="http://www.w3.org/2000/svg">
<circle cx="20" cy="19" r="8" fill="white"/>
<path fill-rule="evenodd" clip-rule="evenodd" d="M5 18.333C5 10.0487 11.7157 3.33301 20 3.33301C28.2843 3.33301 35 10.0487 35 18.333C35 23.377 31.9837 27.6526 28.5082 30.6647L22.7725 35.6356C21.1814 37.0146 18.8186 37.0146 17.2275 35.6356L11.4918 30.6647C8.01628 27.6526 5 23.377 5 18.333ZM20.7697 12.1833C20.4851 11.4989 19.5155 11.4989 19.2309 12.1833L17.9152 15.3466C17.7959 15.6333 17.5272 15.8299 17.2179 15.8568L14.104 16.1275C13.3894 16.1897 13.0819 17.0655 13.6009 17.5606L15.9662 19.8177C16.1807 20.0223 16.2703 20.3256 16.2015 20.6139L15.4004 23.9721C15.2284 24.6932 16.0128 25.263 16.6454 24.8767L19.5659 23.0928C19.8326 22.9299 20.168 22.9299 20.4347 23.0928L23.3552 24.8767C23.9878 25.263 24.7721 24.6932 24.6002 23.9721L23.7994 20.615C23.7304 20.326 23.8205 20.0223 24.0358 19.8176L26.4092 17.5618C26.9297 17.067 26.6225 16.1896 25.907 16.1275L22.7828 15.8567C22.4734 15.8299 22.2046 15.6332 22.0854 15.3465L20.7697 12.1833Z" fill="#BFBFC9"/>
</svg>
