<svg width="24" height="24" viewBox="0 0 24 24" fill="none" xmlns="http://www.w3.org/2000/svg">
<path d="M11 4.99999C11 4.4477 10.5509 3.99424 10.002 4.05548C8.57508 4.21469 7.20174 4.7137 5.99987 5.51676C4.51983 6.50569 3.36628 7.9113 2.68509 9.55584C2.0039 11.2004 1.82567 13.01 2.17294 14.7558C2.5202 16.5016 3.37737 18.1053 4.63604 19.3639C5.89472 20.6226 7.49836 21.4798 9.24419 21.8271C10.99 22.1743 12.7996 21.9961 14.4442 21.3149C16.0887 20.6337 17.4943 19.4802 18.4832 18.0001C19.2863 16.7982 19.7853 15.4249 19.9445 13.9979C20.0057 13.4491 19.5523 13 19 13H12C11.4477 13 11 12.5523 11 12V4.99999Z" fill="white"/>
<path d="M21 11C21.5523 11 22.0057 10.5509 21.9445 10.0021C21.8509 9.16277 21.6394 8.33915 21.3149 7.55586C20.8626 6.46393 20.1997 5.47178 19.364 4.63605C18.5282 3.80033 17.5361 3.13739 16.4442 2.6851C15.6609 2.36065 14.8372 2.14915 13.998 2.05551C13.4491 1.99427 13 2.44773 13 3.00001V10C13 10.5523 13.4477 11 14 11H21Z" fill="white"/>
</svg>
