<svg width="24" height="24" viewBox="0 0 24 24" fill="none" xmlns="http://www.w3.org/2000/svg">
<path d="M10 20H14C14 21.1046 13.1046 22 12 22C10.8954 22 10 21.1046 10 20Z" fill="white"/>
<path d="M17.9994 8.93042C17.9621 5.64877 15.2902 3 11.9998 3C8.68605 3 5.99976 5.68629 5.99976 9C5.99976 9.01638 5.99982 9.03275 5.99995 9.0491V13.3354C5.99995 14.0691 5.65495 14.7601 5.06849 15.2011C3.02112 16.7405 4.10981 20 6.67133 20H17.3285C19.89 20 20.9787 16.7405 18.9314 15.2011C18.3449 14.7602 18 14.0691 18 13.3354V9.01514C18 8.98687 17.9998 8.95863 17.9994 8.93042Z" fill="white"/>
</svg>
