<svg width="24" height="24" viewBox="0 0 24 24" fill="none" xmlns="http://www.w3.org/2000/svg">
<path d="M20.5556 11.5504C20.8403 11.8351 21.0002 12.2212 21.0002 12.6238C21.0002 13.0259 20.8407 13.4115 20.5566 13.6961C20.2726 13.9807 19.8873 14.141 19.4852 14.1418H19.1432C19.4244 14.3153 19.6413 14.5759 19.7608 14.8839C19.8804 15.192 19.896 15.5307 19.8055 15.8484C19.715 16.1662 19.5231 16.4458 19.2592 16.6446C18.9953 16.8433 18.6736 16.9505 18.3432 16.9498H17.8492C18.1304 17.1233 18.3473 17.3839 18.4668 17.6919C18.5864 18 18.6021 18.3386 18.5115 18.6564C18.421 18.9742 18.2292 19.2538 17.9652 19.4526C17.7013 19.6513 17.3796 19.7585 17.0492 19.7578H9.88718C8.82142 19.7565 7.79969 19.3325 7.04608 18.5789C6.29247 17.8253 5.86851 16.8035 5.86719 15.7378V12.0978C5.86933 11.5884 5.97312 11.0845 6.17248 10.6157C6.37184 10.147 6.66275 9.72269 7.02818 9.36778L13.2502 2.52378C13.5055 2.22994 13.8637 2.04509 14.2511 2.00722C14.6385 1.96936 15.0257 2.08136 15.333 2.3202C15.6404 2.55905 15.8445 2.90658 15.9035 3.29133C15.9625 3.67609 15.8719 4.06882 15.6502 4.38878L13.0592 8.29778H18.6062C18.9366 8.29704 19.2583 8.40422 19.5222 8.60301C19.7861 8.8018 19.978 9.08134 20.0685 9.39912C20.159 9.71691 20.1434 10.0556 20.0238 10.3636C19.9043 10.6717 19.6874 10.9323 19.4062 11.1058H19.4822C19.8848 11.1058 20.2709 11.2657 20.5556 11.5504Z" fill="#000028" fill-opacity="0.35"/>
<path d="M3.5 10.0254C4.32843 10.0254 5 10.697 5 11.5254V17.5254C5 18.3538 4.32843 19.0254 3.5 19.0254C2.67157 19.0254 2 18.3538 2 17.5254V11.5254C2 10.697 2.67157 10.0254 3.5 10.0254Z" fill="#000028" fill-opacity="0.35"/>
</svg>
