<svg width="24" height="24" viewBox="0 0 24 24" fill="none" xmlns="http://www.w3.org/2000/svg">
<path d="M2 7C2 6.44772 2.44772 6 3 6H6C6.55228 6 7 6.44772 7 7C7 7.55228 6.55228 8 6 8H3C2.44772 8 2 7.55228 2 7Z" fill="white"/>
<path d="M3 16C2.44772 16 2 16.4477 2 17C2 17.5523 2.44772 18 3 18H10C10.5523 18 11 17.5523 11 17C11 16.4477 10.5523 16 10 16H3Z" fill="white"/>
<path d="M18 16C17.4477 16 17 16.4477 17 17C17 17.5523 17.4477 18 18 18H21C21.5523 18 22 17.5523 22 17C22 16.4477 21.5523 16 21 16H18Z" fill="white"/>
<path d="M14 6C13.4477 6 13 6.44772 13 7C13 7.55228 13.4477 8 14 8H21C21.5523 8 22 7.55228 22 7C22 6.44772 21.5523 6 21 6H14Z" fill="white"/>
<path d="M8 10C9.65685 10 11 8.65685 11 7C11 5.34315 9.65685 4 8 4C6.34315 4 5 5.34315 5 7C5 8.65685 6.34315 10 8 10Z" fill="white"/>
<path d="M16 20C17.6569 20 19 18.6569 19 17C19 15.3431 17.6569 14 16 14C14.3431 14 13 15.3431 13 17C13 18.6569 14.3431 20 16 20Z" fill="white"/>
</svg>
