<svg width="24" height="24" viewBox="0 0 24 24" fill="none" xmlns="http://www.w3.org/2000/svg">
<path d="M12 7C13.1867 7 14.3467 7.35189 15.3334 8.01118C16.3201 8.67047 17.0892 9.60754 17.5433 10.7039C17.9974 11.8003 18.1162 13.0067 17.8847 14.1705C17.6532 15.3344 17.0818 16.4035 16.2426 17.2426C15.4035 18.0818 14.3344 18.6532 13.1705 18.8847C12.0067 19.1162 10.8003 18.9974 9.7039 18.5433C8.60754 18.0892 7.67047 17.3201 7.01118 16.3334C6.35189 15.3467 6 14.1867 6 13C6 12.4477 5.55228 12 5 12C4.44772 12 4 12.4477 4 13C4 14.5823 4.46919 16.129 5.34824 17.4446C6.22729 18.7602 7.47672 19.7855 8.93853 20.391C10.4003 20.9965 12.0089 21.155 13.5607 20.8463C15.1126 20.5376 16.538 19.7757 17.6569 18.6569C18.7757 17.538 19.5376 16.1126 19.8463 14.5607C20.155 13.0089 19.9965 11.4003 19.391 9.93853C18.7855 8.47672 17.7602 7.22729 16.4446 6.34824C15.129 5.46919 13.5823 5 12 5H4V7H12Z" fill="#000028"/>
<path fill-rule="evenodd" clip-rule="evenodd" d="M3.29289 5.29289C2.90237 5.68342 2.90237 6.31658 3.29289 6.70711L5.29289 8.70711C5.68342 9.09763 6.31658 9.09763 6.70711 8.70711C7.09763 8.31658 7.09763 7.68342 6.70711 7.29289L5.41421 6L6.70711 4.70711C7.09763 4.31658 7.09763 3.68342 6.70711 3.29289C6.31658 2.90237 5.68342 2.90237 5.29289 3.29289L3.29289 5.29289Z" fill="#000028"/>
</svg>
