<svg width="24" height="24" viewBox="0 0 24 24" fill="none" xmlns="http://www.w3.org/2000/svg">
<path d="M12.0545 10H11.9468C11.9644 10.0002 11.9822 10.0003 12 10.0003C12.0183 10.0003 12.0365 10.0002 12.0545 10Z" fill="white"/>
<path d="M18.0375 10C18.025 10.0002 18.0125 10.0003 18 10.0003C17.9855 10.0003 17.9711 10.0002 17.9568 10H18.0375Z" fill="white"/>
<path d="M19.2584 11.8165C19.6119 11.7124 20 11.9573 20 12.3258V18C20 19.6569 18.6569 21 17 21H15.1395C14.5102 21 14 20.4898 14 19.8605V17C14 15.8954 13.1046 15 12 15C10.8954 15 10 15.8954 10 17V19.8605C10 20.4898 9.48982 21 8.86047 21H7C5.34315 21 4 19.6569 4 18V12.3255C4 11.957 4.38809 11.7121 4.7416 11.8162C5.14015 11.9334 5.56189 12 6 12C7.04838 12 7.91464 11.6767 8.59379 11.2615C8.77437 11.1511 9.00289 11.1518 9.18407 11.2612C9.91411 11.7021 10.8459 12.0001 11.9997 12.0003C13.1538 12.0005 14.0858 11.7025 14.816 11.2615C14.9972 11.1521 15.2257 11.1514 15.4063 11.2618C16.0854 11.677 16.9517 12.0003 18 12.0003C18.4381 12.0003 18.8598 11.9338 19.2584 11.8165Z" fill="white"/>
<path d="M7 3.00037C8 2.99919 16 3.00177 17 3.00131C19 3.00037 21 4.50037 21 7.00037C21 8.50037 19.5 10.0004 18 10.0004C16 10.0004 15 8.00037 15 8.00037C15 8.00037 14.5 10.0007 12 10.0004C9.5 10 9 8.00037 9 8.00037C9 8.00037 8 10.0001 6 10.0001C4.5 10.0001 3 8.50037 3 7.00037C3 4.50037 5 3.00273 7 3.00037Z" fill="white"/>
</svg>
