<svg width="185" height="184" viewBox="0 0 185 184" fill="none" xmlns="http://www.w3.org/2000/svg">
<path d="M92.4987 15.334C50.1569 15.334 15.832 49.6588 15.832 92.0007C15.832 134.342 50.1569 168.667 92.4987 168.667C134.841 168.667 169.165 134.342 169.165 92.0007C169.165 49.6588 134.841 15.334 92.4987 15.334Z" fill="#F1F7D2"/>
<path fill-rule="evenodd" clip-rule="evenodd" d="M120.92 71.2455C123.914 74.2395 123.914 79.0938 120.92 82.0878L90.2532 112.754C87.2592 115.749 82.4049 115.749 79.4109 112.754L64.0775 97.4212C61.0835 94.4271 61.0835 89.5729 64.0775 86.5788C67.0716 83.5848 71.9258 83.5848 74.9199 86.5788L84.832 96.491L110.078 71.2455C113.072 68.2515 117.926 68.2515 120.92 71.2455Z" fill="#28BF0A"/>
</svg>
