<svg width="98" height="18" viewBox="0 0 98 18" fill="none" xmlns="http://www.w3.org/2000/svg">
<path d="M5.98125 16.3591C5.20792 16.3591 4.50125 16.2191 3.86125 15.9391C3.23458 15.6591 2.68792 15.2725 2.22125 14.7791C1.75458 14.2725 1.39458 13.6791 1.14125 12.9991C0.90125 12.3191 0.78125 11.5858 0.78125 10.7991V10.3391C0.78125 9.55247 0.894583 8.81914 1.12125 8.13914C1.36125 7.45914 1.70125 6.86581 2.14125 6.35914C2.59458 5.83914 3.13458 5.43914 3.76125 5.15914C4.38792 4.86581 5.08792 4.71914 5.86125 4.71914C6.74125 4.71914 7.50125 4.91247 8.14125 5.29914C8.78125 5.67247 9.28125 6.23247 9.64125 6.97914C10.0013 7.71247 10.2012 8.61914 10.2413 9.69914L9.40125 8.91914V1.39914H12.6213V15.9991H10.0813V11.4591H10.5213C10.4813 12.4991 10.2613 13.3858 9.86125 14.1191C9.47458 14.8525 8.94792 15.4125 8.28125 15.7991C7.61458 16.1725 6.84792 16.3591 5.98125 16.3591ZM6.78125 13.6791C7.27458 13.6791 7.72125 13.5725 8.12125 13.3591C8.53458 13.1325 8.86125 12.8058 9.10125 12.3791C9.35458 11.9525 9.48125 11.4391 9.48125 10.8391V10.0991C9.48125 9.51247 9.35458 9.01914 9.10125 8.61914C8.84792 8.21914 8.51458 7.91247 8.10125 7.69914C7.68792 7.48581 7.24125 7.37914 6.76125 7.37914C6.22792 7.37914 5.74792 7.51914 5.32125 7.79914C4.90792 8.06581 4.58125 8.43914 4.34125 8.91914C4.10125 9.38581 3.98125 9.93247 3.98125 10.5591C3.98125 11.1991 4.10125 11.7525 4.34125 12.2191C4.58125 12.6858 4.91458 13.0458 5.34125 13.2991C5.76792 13.5525 6.24792 13.6791 6.78125 13.6791Z" fill="white"/>
<path d="M15.0437 15.9991V5.03914H18.2437V15.9991H15.0437ZM13.5837 7.39914V5.03914H18.2437V7.39914H13.5837ZM16.2838 3.95914C15.6838 3.95914 15.2371 3.80581 14.9438 3.49914C14.6638 3.17914 14.5238 2.77914 14.5238 2.29914C14.5238 1.80581 14.6638 1.40581 14.9438 1.09914C15.2371 0.779141 15.6838 0.619141 16.2838 0.619141C16.8838 0.619141 17.3238 0.779141 17.6038 1.09914C17.8971 1.40581 18.0438 1.80581 18.0438 2.29914C18.0438 2.77914 17.8971 3.17914 17.6038 3.49914C17.3238 3.80581 16.8838 3.95914 16.2838 3.95914Z" fill="white"/>
<path d="M20.2034 15.9991V5.03914H22.7434V9.73914H22.5634C22.5634 8.61914 22.7034 7.68581 22.9834 6.93914C23.2768 6.19247 23.7168 5.63248 24.3034 5.25914C24.8901 4.88581 25.6034 4.69914 26.4434 4.69914H26.5834C27.8634 4.69914 28.8368 5.11914 29.5034 5.95914C30.1834 6.78581 30.5234 8.04581 30.5234 9.73914V15.9991H27.3234V9.55914C27.3234 8.97247 27.1501 8.49247 26.8034 8.11914C26.4568 7.74581 25.9901 7.55914 25.4034 7.55914C24.8034 7.55914 24.3168 7.75247 23.9434 8.13914C23.5834 8.51247 23.4034 9.00581 23.4034 9.61914V15.9991H20.2034Z" fill="white"/>
<path d="M37.2703 16.3791C36.337 16.3791 35.5103 16.2191 34.7903 15.8991C34.0836 15.5791 33.4903 15.1525 33.0103 14.6191C32.5436 14.0725 32.1836 13.4658 31.9303 12.7991C31.6903 12.1191 31.5703 11.4258 31.5703 10.7191V10.3191C31.5703 9.58581 31.6903 8.88581 31.9303 8.21914C32.1836 7.53914 32.5436 6.93247 33.0103 6.39914C33.477 5.86581 34.057 5.44581 34.7503 5.13914C35.457 4.81914 36.257 4.65914 37.1503 4.65914C38.3236 4.65914 39.3103 4.92581 40.1103 5.45914C40.9236 5.97914 41.5436 6.66581 41.9703 7.51914C42.397 8.35914 42.6103 9.27914 42.6103 10.2791V11.3591H32.9103V9.53914H40.6703L39.6303 10.3791C39.6303 9.72581 39.537 9.16581 39.3503 8.69914C39.1636 8.23247 38.8836 7.87914 38.5103 7.63914C38.1503 7.38581 37.697 7.25914 37.1503 7.25914C36.5903 7.25914 36.117 7.38581 35.7303 7.63914C35.3436 7.89247 35.0503 8.26581 34.8503 8.75914C34.6503 9.23914 34.5503 9.83247 34.5503 10.5391C34.5503 11.1925 34.6436 11.7658 34.8303 12.2591C35.017 12.7391 35.3103 13.1125 35.7103 13.3791C36.1103 13.6458 36.6303 13.7791 37.2703 13.7791C37.857 13.7791 38.337 13.6658 38.7103 13.4391C39.0836 13.2125 39.337 12.9325 39.4703 12.5991H42.4103C42.2503 13.3325 41.937 13.9858 41.4703 14.5591C41.0036 15.1325 40.417 15.5791 39.7103 15.8991C39.0036 16.2191 38.1903 16.3791 37.2703 16.3791Z" fill="white"/>
<path d="M50.7708 16.3391C49.4641 16.3391 48.3441 16.1125 47.4108 15.6591C46.4908 15.1925 45.7374 14.5858 45.1508 13.8391C44.5774 13.0925 44.1574 12.2858 43.8908 11.4191C43.6241 10.5391 43.4908 9.68581 43.4908 8.85914V8.47914C43.4908 7.58581 43.6241 6.69914 43.8908 5.81914C44.1708 4.92581 44.5974 4.11914 45.1708 3.39914C45.7574 2.67914 46.5041 2.10581 47.4108 1.67914C48.3174 1.23914 49.3908 1.01914 50.6308 1.01914C51.8841 1.01914 52.9641 1.23914 53.8708 1.67914C54.7908 2.11914 55.5241 2.73914 56.0708 3.53914C56.6174 4.32581 56.9508 5.25914 57.0708 6.33914H55.5308C55.4241 5.47247 55.1441 4.75247 54.6908 4.17914C54.2374 3.59247 53.6574 3.15247 52.9508 2.85914C52.2574 2.56581 51.4841 2.41914 50.6308 2.41914C49.7108 2.41914 48.8974 2.58581 48.1908 2.91914C47.4974 3.23914 46.9174 3.69247 46.4508 4.27914C45.9841 4.85247 45.6308 5.51914 45.3908 6.27914C45.1508 7.02581 45.0308 7.82581 45.0308 8.67914C45.0308 9.49247 45.1441 10.2725 45.3708 11.0191C45.6108 11.7658 45.9708 12.4391 46.4508 13.0391C46.9308 13.6258 47.5308 14.0925 48.2508 14.4391C48.9708 14.7725 49.8108 14.9391 50.7708 14.9391C52.1041 14.9391 53.2241 14.6058 54.1308 13.9391C55.0374 13.2591 55.5974 12.2858 55.8108 11.0191H57.3508C57.2041 12.0191 56.8575 12.9258 56.3108 13.7391C55.7641 14.5391 55.0241 15.1725 54.0908 15.6391C53.1708 16.1058 52.0641 16.3391 50.7708 16.3391Z" fill="white"/>
<path d="M59.1897 15.9991V1.39914H60.6897V15.9991H59.1897ZM57.6497 2.61914V1.39914H60.6897V2.61914H57.6497Z" fill="white"/>
<path d="M68.318 16.3391C67.4113 16.3391 66.6113 16.1858 65.918 15.8791C65.238 15.5591 64.658 15.1391 64.178 14.6191C63.7113 14.0858 63.3513 13.4925 63.098 12.8391C62.858 12.1858 62.738 11.5191 62.738 10.8391V10.5591C62.738 9.87914 62.8646 9.21247 63.118 8.55914C63.3713 7.89247 63.738 7.29914 64.218 6.77914C64.698 6.25914 65.278 5.84581 65.958 5.53914C66.6513 5.21914 67.438 5.05914 68.318 5.05914C69.2113 5.05914 69.998 5.21914 70.678 5.53914C71.3713 5.84581 71.958 6.25914 72.438 6.77914C72.918 7.29914 73.278 7.89247 73.518 8.55914C73.7713 9.21247 73.898 9.87914 73.898 10.5591V10.8391C73.898 11.5191 73.778 12.1858 73.538 12.8391C73.298 13.4925 72.938 14.0858 72.458 14.6191C71.9913 15.1391 71.4113 15.5591 70.718 15.8791C70.0246 16.1858 69.2246 16.3391 68.318 16.3391ZM68.318 14.9991C69.198 14.9991 69.938 14.8058 70.538 14.4191C71.1513 14.0191 71.618 13.4991 71.938 12.8591C72.258 12.2058 72.418 11.4858 72.418 10.6991C72.418 9.89914 72.2513 9.17914 71.918 8.53914C71.598 7.88581 71.1313 7.37247 70.518 6.99914C69.9046 6.61247 69.1713 6.41914 68.318 6.41914C67.478 6.41914 66.7513 6.61247 66.138 6.99914C65.5246 7.37247 65.0513 7.88581 64.718 8.53914C64.398 9.17914 64.238 9.89914 64.238 10.6991C64.238 11.4858 64.398 12.2058 64.718 12.8591C65.038 13.4991 65.498 14.0191 66.098 14.4191C66.7113 14.8058 67.4513 14.9991 68.318 14.9991Z" fill="white"/>
<path d="M79.6169 16.2991C78.3502 16.2991 77.3835 15.8925 76.7169 15.0791C76.0502 14.2525 75.7169 13.1058 75.7169 11.6391V5.39914H77.1969V11.9391C77.1969 12.8591 77.4369 13.5925 77.9169 14.1391C78.4102 14.6725 79.0902 14.9391 79.9569 14.9391C80.8635 14.9391 81.5835 14.6525 82.1169 14.0791C82.6635 13.5058 82.9369 12.7391 82.9369 11.7791V5.39914H84.4369V15.9991H83.2369V11.5791H83.4769C83.4769 12.5658 83.3369 13.4125 83.0569 14.1191C82.7769 14.8125 82.3569 15.3525 81.7969 15.7391C81.2369 16.1125 80.5302 16.2991 79.6769 16.2991H79.6169Z" fill="white"/>
<path d="M91.6992 16.3391C90.9259 16.3391 90.2192 16.1991 89.5792 15.9191C88.9525 15.6258 88.4059 15.2258 87.9392 14.7191C87.4859 14.1991 87.1326 13.6125 86.8792 12.9591C86.6392 12.2925 86.5192 11.5858 86.5192 10.8391V10.5591C86.5192 9.83914 86.6392 9.15247 86.8792 8.49914C87.1192 7.83247 87.4592 7.24581 87.8992 6.73914C88.3525 6.21914 88.8926 5.81247 89.5192 5.51914C90.1592 5.21247 90.8726 5.05914 91.6592 5.05914C92.5526 5.05914 93.3392 5.25247 94.0192 5.63914C94.6992 6.02581 95.2459 6.58581 95.6592 7.31914C96.0726 8.03914 96.2926 8.92581 96.3192 9.97914L95.6592 8.73914V1.39914H97.1592V15.9991H95.9592V11.2991H96.4392C96.4126 12.4058 96.1792 13.3391 95.7392 14.0991C95.3126 14.8458 94.7459 15.4058 94.0392 15.7791C93.3459 16.1525 92.5659 16.3391 91.6992 16.3391ZM91.8992 15.0191C92.6192 15.0191 93.2659 14.8591 93.8392 14.5391C94.4259 14.2191 94.8859 13.7658 95.2192 13.1791C95.5525 12.5791 95.7192 11.8925 95.7192 11.1191V10.1591C95.7192 9.41247 95.5525 8.75914 95.2192 8.19914C94.8859 7.62581 94.4259 7.17914 93.8392 6.85914C93.2659 6.53914 92.6126 6.37914 91.8792 6.37914C91.0926 6.37914 90.4059 6.57247 89.8192 6.95914C89.2459 7.33247 88.7992 7.84581 88.4792 8.49914C88.1726 9.15247 88.0192 9.88581 88.0192 10.6991C88.0192 11.5391 88.1792 12.2858 88.4992 12.9391C88.8192 13.5925 89.2726 14.1058 89.8592 14.4791C90.4459 14.8391 91.1259 15.0191 91.8992 15.0191Z" fill="white"/>
</svg>
