<svg width="64" height="64" viewBox="0 0 64 64" fill="none" xmlns="http://www.w3.org/2000/svg">
<g clip-path="url(#clip0_4999_81021)">
<rect width="64" height="64" fill="#001326" fill-opacity="0.02"/>
<g clip-path="url(#clip1_4999_81021)">
<path d="M812 -748H0V64H812V-748Z" fill="#000028" fill-opacity="0.02"/>
<path d="M119.53 18.5896C117.01 14.6696 114.94 10.6696 111.91 7.08962C109.91 4.77962 106.18 -0.710359 102.91 -1.27036C101.08 -1.58036 99.51 -0.330359 98.06 0.729641C95.6482 2.62081 92.9467 4.10999 90.06 5.13964C86.67 6.32964 82.84 8.01962 79.18 7.02962C74.53 5.76962 74.37 -1.05036 78.01 -3.77036C80.67 -5.77036 84.95 -6.20036 87.91 -8.15036C90.2881 -9.74448 92.5292 -11.534 94.61 -13.5004C97.93 -16.6404 97.29 -20.2204 96.61 -24.3604C95.82 -28.9904 93.41 -33.3604 92.16 -37.9704C90.3 -44.7304 93.16 -52.2104 89.65 -58.7304C85.39 -66.6804 78.39 -54.0004 75.71 -51.5904C72.12 -48.3504 66.78 -50.0804 62.71 -51.4604C61.17 -51.9904 61.33 -52.5204 59.35 -51.3104C57.7248 -50.1546 56.1812 -48.8882 54.73 -47.5204C50.3 -43.8404 45.11 -40.2604 42.03 -35.3204C38.43 -29.5404 33.91 -26.4404 28.81 -21.9404C27.21 -20.5304 23.46 -17.3504 23.39 -14.9404C23.34 -13.1404 24.96 -13.1804 25.39 -11.6804C26.85 -6.86036 17.71 1.66963 14.68 4.15963C11.2833 6.74884 7.65454 9.0185 3.84 10.9396C2.44719 11.7862 1.1584 12.793 0 13.9396L0 63.9396H125.07C125.266 62.2809 125.102 60.5995 124.59 59.0096C123.32 54.7496 122.26 53.3196 125.59 50.2696C127.029 48.9551 128.125 47.3081 128.78 45.4724C129.435 43.6367 129.631 41.6684 129.35 39.7396C128.08 32.0096 123.67 25.0096 119.53 18.5896Z" fill="#000028" fill-opacity="0.06"/>
<g opacity="0.504">
<path opacity="0.504" d="M65.4098 1.93945C64.4098 3.75945 62.6398 5.01944 61.3198 6.51944C59.8498 8.17944 58.4798 9.88944 56.9198 11.5194C53.4998 15.0294 49.6798 18.0395 46.1298 21.3795C45.1298 22.3195 43.4298 23.9195 44.0198 25.3795C45.0198 27.8095 47.0198 25.9494 48.3198 25.0494C50.7498 23.3094 53.7298 22.2995 56.3198 20.8495C59.7198 18.9695 62.7398 16.4095 66.3198 14.9795C67.2298 14.6195 69.7498 14.1895 70.4198 13.4995C71.2998 12.5895 70.3098 11.3695 69.7498 10.3595C68.4898 7.93947 66.0898 5.45945 65.4098 1.93945Z" fill="#D0FFB7"/>
</g>
<path d="M-4.125 -490.971C-4.125 -490.971 21.986 -459.24 76.575 -466.223C131.164 -473.206 183.861 -489.071 228.939 -405.279C274.017 -321.487 234.022 -241.479 169.897 -177.367C105.772 -113.255 34.522 -47.8512 -4.125 2.2338" stroke="white" stroke-width="5" stroke-linecap="round" stroke-linejoin="round"/>
<path d="M30.3164 -37.8765L67.6974 -1.45245L102.138 68.3415" stroke="white" stroke-linecap="round" stroke-linejoin="round"/>
<path d="M4.96875 -9.06934L41.4688 22.7747L66.2197 68.3407" stroke="white" stroke-linecap="round" stroke-linejoin="round"/>
<path d="M-4.125 56.6496L15.247 48.6765L144.875 -77.0444" stroke="white" stroke-linecap="round" stroke-linejoin="round"/>
<path d="M132.667 -100.071L21.4668 5.31871" stroke="white" stroke-linecap="round" stroke-linejoin="round"/>
<path d="M176.039 -18.1304L10.5869 68.3416" stroke="white" stroke-linecap="round" stroke-linejoin="round"/>
<path d="M187.682 3.93848L62.7119 68.3415" stroke="white" stroke-linecap="round" stroke-linejoin="round"/>
<path d="M23.545 68.3407L15.245 48.6757L-4.125 18.4717" stroke="white" stroke-linecap="round" stroke-linejoin="round"/>
</g>
</g>
<defs>
<clipPath id="clip0_4999_81021">
<rect width="64" height="64" fill="white"/>
</clipPath>
<clipPath id="clip1_4999_81021">
<rect width="812" height="812" fill="white" transform="translate(0 -748)"/>
</clipPath>
</defs>
</svg>
