<svg width="208" height="158" viewBox="0 0 208 158" fill="none" xmlns="http://www.w3.org/2000/svg">
<g clip-path="url(#clip0_5179_88555)">
<rect width="208" height="158" fill="#001326" fill-opacity="0.02"/>
<g clip-path="url(#clip1_5179_88555)">
<path d="M812 -654H0V158H812V-654Z" fill="#000028" fill-opacity="0.02"/>
<path d="M119.53 112.59C117.01 108.67 114.94 104.67 111.91 101.09C109.91 98.7796 106.18 93.2896 102.91 92.7296C101.08 92.4196 99.51 93.6696 98.06 94.7296C95.6482 96.6208 92.9467 98.11 90.06 99.1396C86.67 100.33 82.84 102.02 79.18 101.03C74.53 99.7696 74.37 92.9496 78.01 90.2296C80.67 88.2296 84.95 87.7996 87.91 85.8496C90.2881 84.2555 92.5292 82.466 94.61 80.4996C97.93 77.3596 97.29 73.7796 96.61 69.6396C95.82 65.0096 93.41 60.6396 92.16 56.0296C90.3 49.2696 93.16 41.7896 89.65 35.2696C85.39 27.3196 78.39 39.9996 75.71 42.4096C72.12 45.6496 66.78 43.9196 62.71 42.5396C61.17 42.0096 61.33 41.4796 59.35 42.6896C57.7248 43.8454 56.1812 45.1118 54.73 46.4796C50.3 50.1596 45.11 53.7396 42.03 58.6796C38.43 64.4596 33.91 67.5596 28.81 72.0596C27.21 73.4696 23.46 76.6496 23.39 79.0596C23.34 80.8596 24.96 80.8196 25.39 82.3196C26.85 87.1396 17.71 95.6696 14.68 98.1596C11.2833 100.749 7.65454 103.018 3.84 104.94C2.44719 105.786 1.1584 106.793 0 107.94L0 157.94H125.07C125.266 156.281 125.102 154.6 124.59 153.01C123.32 148.75 122.26 147.32 125.59 144.27C127.029 142.955 128.125 141.308 128.78 139.472C129.435 137.637 129.631 135.668 129.35 133.74C128.08 126.01 123.67 119.01 119.53 112.59Z" fill="#000028" fill-opacity="0.06"/>
<path opacity="0.505" d="M66.513 -359.655C35.171 -356.177 9.588 -373.259 0 -380.829V-344.369C15.72 -336.896 66.027 -324.958 77.869 -322.71C91.204 -320.235 113.445 -312.843 131.242 -304.48C149.039 -296.117 151 -304.969 154.457 -298.01C157.914 -291.051 175.709 -287.156 179.164 -279.764C182.619 -272.372 193.992 -270.415 203.871 -253.171C213.75 -235.927 211.285 -215.223 203.871 -190.588C196.457 -165.953 152.477 -116.18 134.194 -99.9241C115.911 -83.6681 111.028 -68.8691 98.18 -60.0841C86.986 -52.3521 17.68 15.2459 0 32.4559V66.0039C13.27 51.5589 55.449 5.92792 76.928 -14.2591C102.628 -38.4091 176.26 -94.0851 216.768 -161.586C257.276 -229.087 238.02 -285.749 203.433 -331.069C168.846 -376.389 106.583 -364.087 66.513 -359.655ZM214.74 -290.1C210.668 -285.361 207.261 -286.38 201.145 -290.1C195.029 -293.82 197.073 -294.176 191.638 -296.878C186.203 -299.58 186.187 -296.878 177.362 -301.617C168.537 -306.356 162.307 -304.254 157.716 -305.984C153.125 -307.714 156.256 -313.926 143.343 -318.666C130.43 -323.406 129.781 -325.702 115.537 -330.102C101.293 -334.502 87.601 -338.578 80.869 -337.902C74.137 -337.226 57.817 -345.99 73.39 -345.019C73.39 -345.019 84.6 -342.302 93.782 -345.019C102.964 -347.736 120.971 -354.854 136.61 -353.107C152.249 -351.36 173.31 -342.933 187.582 -329.377C201.854 -315.821 218.859 -294.858 214.771 -290.119L214.74 -290.1Z" fill="#D6E6FF"/>
<g opacity="0.504">
<path opacity="0.504" d="M65.4098 95.9395C64.4098 97.7595 62.6398 99.0194 61.3198 100.519C59.8498 102.179 58.4798 103.889 56.9198 105.519C53.4998 109.029 49.6798 112.039 46.1298 115.379C45.1298 116.319 43.4298 117.919 44.0198 119.379C45.0198 121.809 47.0198 119.949 48.3198 119.049C50.7498 117.309 53.7298 116.299 56.3198 114.849C59.7198 112.969 62.7398 110.409 66.3198 108.979C67.2298 108.619 69.7498 108.189 70.4198 107.499C71.2998 106.589 70.3098 105.369 69.7498 104.359C68.4898 101.939 66.0898 99.4595 65.4098 95.9395Z" fill="#D0FFB7"/>
</g>
<path d="M196.841 -34.9114L204.294 -15.6844L206.843 62.8306L221.636 96.2986L216.992 119.115L204.668 130.139" stroke="white" stroke-width="3" stroke-linecap="round" stroke-linejoin="round"/>
<path d="M-4.12524 -396.971C-4.12524 -396.971 21.9858 -365.24 76.5748 -372.223C131.164 -379.206 183.861 -395.071 228.939 -311.279C274.017 -227.487 234.022 -147.479 169.897 -83.3673C105.772 -19.2553 34.5218 46.1487 -4.12524 96.2337" stroke="white" stroke-width="5" stroke-linecap="round" stroke-linejoin="round"/>
<path d="M132.666 -46.6683C132.666 -46.6683 124.206 -21.8233 140.366 8.39767C156.526 38.6187 221.636 162.277 221.636 162.277" stroke="white" stroke-width="5" stroke-linecap="round" stroke-linejoin="round"/>
<path d="M66.9008 -67.5674L-4.12524 10.5416" stroke="white" stroke-width="5" stroke-linecap="round" stroke-linejoin="round"/>
<path d="M87.9297 -2.77429L126.463 37.0917L190.88 162.342" stroke="white" stroke-linecap="round" stroke-linejoin="round"/>
<path d="M70.2788 14.7627L107.205 52.0307L164.315 162.341" stroke="white" stroke-linecap="round" stroke-linejoin="round"/>
<path d="M30.3169 56.1237L67.6979 92.5477L102.139 162.342" stroke="white" stroke-linecap="round" stroke-linejoin="round"/>
<path d="M4.96875 84.9307L41.4688 116.775L66.2197 162.341" stroke="white" stroke-linecap="round" stroke-linejoin="round"/>
<path d="M-4.12524 150.65L15.2468 142.677L144.875 16.9557" stroke="white" stroke-linecap="round" stroke-linejoin="round"/>
<path d="M132.667 -6.07129L21.4668 99.3187" stroke="white" stroke-linecap="round" stroke-linejoin="round"/>
<path d="M18.3328 69.3577L35.5938 85.9217" stroke="white" stroke-linecap="round" stroke-linejoin="round"/>
<path d="M51.3289 34.0056L87.9299 72.1826" stroke="white" stroke-linecap="round" stroke-linejoin="round"/>
<path d="M155.45 36.8806L133.869 51.4796" stroke="white" stroke-linecap="round" stroke-linejoin="round"/>
<path d="M164.007 53.1027L72.2927 101.868" stroke="white" stroke-linecap="round" stroke-linejoin="round"/>
<path d="M176.039 75.8696L10.5867 162.342" stroke="white" stroke-linecap="round" stroke-linejoin="round"/>
<path d="M187.682 97.9387L62.7117 162.342" stroke="white" stroke-linecap="round" stroke-linejoin="round"/>
<path d="M198.838 119.082L117.289 162.342" stroke="white" stroke-linecap="round" stroke-linejoin="round"/>
<path d="M158.064 162.341L210.238 140.711L286.201 97.9377L301.92 88.5517L338.472 77.4767L305.882 72.1827C305.882 72.1827 296.35 69.1627 309.048 56.1227C321.746 43.0827 349.855 14.7627 349.855 14.7627" stroke="white" stroke-linecap="round" stroke-linejoin="round"/>
<path d="M135.768 162.342L97.3157 88.5527" stroke="white" stroke-linecap="round" stroke-linejoin="round"/>
<path d="M23.5448 162.341L15.2448 142.676L-4.12524 112.472" stroke="white" stroke-linecap="round" stroke-linejoin="round"/>
<path d="M204.31 10.7037C204.31 10.7037 231.249 7.8617 249.517 26.0977C267.785 44.3337 267.785 84.7847 305.88 72.1837" stroke="white" stroke-linecap="round" stroke-linejoin="round"/>
</g>
</g>
<defs>
<clipPath id="clip0_5179_88555">
<rect width="208" height="158" fill="white"/>
</clipPath>
<clipPath id="clip1_5179_88555">
<rect width="812" height="812" fill="white" transform="translate(0 -654)"/>
</clipPath>
</defs>
</svg>
