<svg width="16" height="16" viewBox="0 0 16 16" fill="none" xmlns="http://www.w3.org/2000/svg">
<path d="M8.67412 2.48053C8.54777 2.22455 8.28706 2.0625 8.00159 2.0625C7.71613 2.0625 7.45541 2.22455 7.32906 2.48053L5.90117 5.37328L2.70794 5.84002C2.42551 5.8813 2.191 6.0793 2.10297 6.35081C2.01494 6.62231 2.08864 6.92025 2.29311 7.1194L4.60311 9.36934L4.05794 12.5479C4.00968 12.8293 4.12536 13.1137 4.35635 13.2815C4.58733 13.4493 4.89355 13.4714 5.14624 13.3385L8.00159 11.8369L10.8569 13.3385C11.1096 13.4714 11.4159 13.4493 11.6468 13.2815C11.8778 13.1137 11.9935 12.8293 11.9452 12.5479L11.4001 9.36934L13.7101 7.1194C13.9145 6.92025 13.9882 6.62231 13.9002 6.35081C13.8122 6.0793 13.5777 5.8813 13.2952 5.84002L10.102 5.37328L8.67412 2.48053Z" stroke="white" stroke-width="1.5" stroke-linecap="round" stroke-linejoin="round"/>
</svg>
