<svg width="64" height="63" viewBox="0 0 64 63" fill="none" xmlns="http://www.w3.org/2000/svg">
<path d="M41.8843 33.67L33.8843 25.67C33.383 25.1704 32.7041 24.8899 31.9963 24.8899C31.2886 24.8899 30.6096 25.1704 30.1083 25.67L22.1083 33.67C21.6226 34.1729 21.3538 34.8465 21.3599 35.5457C21.3659 36.2449 21.6464 36.9138 22.1408 37.4082C22.6352 37.9026 23.3041 38.1831 24.0032 38.1891C24.7024 38.1952 25.376 37.9264 25.879 37.4407L29.327 33.9927V59.5553C29.327 60.2626 29.6079 60.9409 30.108 61.441C30.6081 61.9411 31.2864 62.222 31.9936 62.222C32.7009 62.222 33.3792 61.9411 33.8793 61.441C34.3794 60.9409 34.6603 60.2626 34.6603 59.5553V33.9927L38.1083 37.4407C38.6112 37.9264 39.2849 38.1952 39.9841 38.1891C40.6832 38.1831 41.3521 37.9026 41.8465 37.4082C42.3409 36.9138 42.6214 36.2449 42.6274 35.5457C42.6335 34.8465 42.3701 34.1729 41.8843 33.67Z" fill="#000028" fill-opacity="0.1"/>
<path d="M55.8475 20.1527C54.6288 10.9793 46.2288 0.888672 36.1275 0.888672C33.3429 0.951137 30.6029 1.60105 28.0869 2.79586C25.5709 3.99067 23.3357 5.70344 21.5275 7.82201C19.9459 7.24559 18.2512 7.04815 16.5795 7.24556C14.9078 7.44297 13.3057 8.02972 11.9019 8.95867C10.4981 9.88762 9.33173 11.1329 8.49653 12.5944C7.66132 14.0559 7.18056 15.693 7.09284 17.374C4.95598 18.7785 3.19338 20.6823 1.95746 22.9209C0.721552 25.1595 0.0495307 27.6654 -0.000488281 30.222C0.0725575 33.6366 1.06868 36.9678 2.88218 39.862C4.12252 41.8173 5.83833 43.4263 7.86927 44.5386C9.90021 45.6508 12.18 46.23 14.4955 46.222H23.9995V43.5553C22.4166 43.5559 20.8691 43.0868 19.5529 42.2075C18.2366 41.3282 17.2108 40.0782 16.6053 38.6157C15.9997 37.1532 15.8417 35.5439 16.1511 33.9916C16.4605 32.4392 17.2235 31.0135 18.3435 29.8949L26.3435 21.8949C27.0873 21.151 27.9705 20.5611 28.9425 20.1589C29.9146 19.7568 30.9564 19.5503 32.0084 19.5513C33.0603 19.5523 34.1018 19.7607 35.0731 20.1647C36.0444 20.5687 36.9265 21.1602 37.6688 21.9056L45.6555 29.8949C46.7755 31.0135 47.5385 32.4392 47.8479 33.9916C48.1573 35.5439 47.9993 37.1532 47.3937 38.6157C46.7882 40.0782 45.7624 41.3282 44.4462 42.2075C43.1299 43.0868 41.5824 43.5559 39.9995 43.5553V46.222H50.3062C57.2262 46.222 63.2022 41.0664 63.9115 34.4887C63.9707 33.9574 64.0004 33.4232 64.0004 32.8887C63.9995 26.766 60.8635 21.974 55.8475 20.1527Z" fill="#000028" fill-opacity="0.1"/>
</svg>
