<svg width="25" height="25" viewBox="0 0 25 25" fill="none" xmlns="http://www.w3.org/2000/svg">
<g opacity="0.25">
<path fill-rule="evenodd" clip-rule="evenodd" d="M13.4141 8.5C13.4141 7.94772 12.9663 7.5 12.4141 7.5C11.8618 7.5 11.4141 7.94772 11.4141 8.5V12.5C11.4141 13.0523 11.8618 13.5 12.4141 13.5C12.9663 13.5 13.4141 13.0523 13.4141 12.5V8.5ZM12.4141 15.5C11.8618 15.5 11.4141 15.9477 11.4141 16.5C11.4141 17.0523 11.8618 17.5 12.4141 17.5C12.9663 17.5 13.4141 17.0523 13.4141 16.5C13.4141 15.9477 12.9663 15.5 12.4141 15.5Z" fill="#000028"/>
<path fill-rule="evenodd" clip-rule="evenodd" d="M10.7713 3.5H14.0569C15.1407 3.49999 16.0148 3.49998 16.7227 3.55782C17.4515 3.61737 18.0917 3.74318 18.684 4.04497C19.6248 4.52433 20.3897 5.28924 20.8691 6.23005C21.1709 6.82234 21.2967 7.46253 21.3562 8.19138C21.4141 8.89925 21.4141 9.77339 21.4141 10.8572V14.1428C21.4141 15.2266 21.4141 16.1008 21.3562 16.8086C21.2967 17.5375 21.1709 18.1777 20.8691 18.77C20.3897 19.7108 19.6248 20.4757 18.684 20.955C18.0917 21.2568 17.4515 21.3826 16.7227 21.4422C16.0148 21.5 15.1407 21.5 14.0569 21.5H10.7712C9.68746 21.5 8.81331 21.5 8.10544 21.4422C7.37659 21.3826 6.7364 21.2568 6.14411 20.955C5.2033 20.4757 4.4384 19.7108 3.95903 18.77C3.65724 18.1777 3.53143 17.5375 3.47188 16.8086C3.41404 16.1007 3.41405 15.2266 3.41406 14.1428V10.8572C3.41405 9.77341 3.41404 8.89926 3.47188 8.19138C3.53143 7.46253 3.65724 6.82234 3.95903 6.23005C4.4384 5.28924 5.2033 4.52433 6.14411 4.04497C6.7364 3.74318 7.37659 3.61737 8.10544 3.55782C8.81332 3.49998 9.68747 3.49999 10.7713 3.5ZM8.2683 5.55118C7.66314 5.60062 7.31545 5.69279 7.05209 5.82698C6.48761 6.1146 6.02866 6.57354 5.74104 7.13803C5.60686 7.40138 5.51468 7.74907 5.46524 8.35424C5.41484 8.97108 5.41406 9.76339 5.41406 10.9V14.1C5.41406 15.2366 5.41484 16.0289 5.46524 16.6458C5.51468 17.2509 5.60686 17.5986 5.74104 17.862C6.02866 18.4265 6.48761 18.8854 7.05209 19.173C7.31545 19.3072 7.66314 19.3994 8.2683 19.4488C8.88514 19.4992 9.67746 19.5 10.8141 19.5H14.0141C15.1507 19.5 15.943 19.4992 16.5598 19.4488C17.165 19.3994 17.5127 19.3072 17.776 19.173C18.3405 18.8854 18.7995 18.4265 19.0871 17.862C19.2213 17.5986 19.3134 17.2509 19.3629 16.6458C19.4133 16.0289 19.4141 15.2366 19.4141 14.1V10.9C19.4141 9.76339 19.4133 8.97108 19.3629 8.35424C19.3134 7.74907 19.2213 7.40138 19.0871 7.13803C18.7995 6.57354 18.3405 6.1146 17.776 5.82698C17.5127 5.69279 17.165 5.60062 16.5598 5.55118C15.943 5.50078 15.1507 5.5 14.0141 5.5H10.8141C9.67746 5.5 8.88514 5.50078 8.2683 5.55118Z" fill="#000028"/>
</g>
</svg>
