<svg width="64" height="64" viewBox="0 0 64 64" fill="none" xmlns="http://www.w3.org/2000/svg">
<path opacity="0.35" fill-rule="evenodd" clip-rule="evenodd" d="M27.2322 23.494C28.2085 22.5176 29.7915 22.5176 30.7678 23.494L38.2678 30.994C39.2441 31.9703 39.2441 33.5532 38.2678 34.5295L30.7678 42.0295C29.7915 43.0058 28.2085 43.0058 27.2322 42.0295C26.2559 41.0532 26.2559 39.4703 27.2322 38.494L32.9645 32.7617L27.2322 27.0295C26.2559 26.0532 26.2559 24.4703 27.2322 23.494Z" fill="#FF4D52"/>
<path opacity="0.15" fill-rule="evenodd" clip-rule="evenodd" d="M10.7322 23.494C11.7085 22.5176 13.2915 22.5176 14.2678 23.494L21.7678 30.994C22.7441 31.9703 22.7441 33.5532 21.7678 34.5295L14.2678 42.0295C13.2915 43.0058 11.7085 43.0058 10.7322 42.0295C9.75592 41.0532 9.75592 39.4703 10.7322 38.494L16.4645 32.7617L10.7322 27.0295C9.75592 26.0532 9.75592 24.4703 10.7322 23.494Z" fill="#FF4D52"/>
<path fill-rule="evenodd" clip-rule="evenodd" d="M43.7322 23.494C44.7085 22.5176 46.2915 22.5176 47.2678 23.494L54.7678 30.994C55.7441 31.9703 55.7441 33.5532 54.7678 34.5295L47.2678 42.0295C46.2915 43.0058 44.7085 43.0058 43.7322 42.0295C42.7559 41.0532 42.7559 39.4703 43.7322 38.494L49.4645 32.7617L43.7322 27.0295C42.7559 26.0532 42.7559 24.4703 43.7322 23.494Z" fill="#FF4D52"/>
</svg>
