<svg width="25" height="24" viewBox="0 0 25 24" fill="none" xmlns="http://www.w3.org/2000/svg">
<path fill-rule="evenodd" clip-rule="evenodd" d="M17.0234 3C19.2326 3 21.0234 4.79086 21.0234 7V17C21.0234 19.2091 19.2326 21 17.0234 21H7.02344C4.8143 21 3.02344 19.2091 3.02344 17V7C3.02344 4.79086 4.8143 3 7.02344 3H17.0234ZM15.0234 5H17.0234C18.128 5 19.0234 5.89543 19.0234 7V17C19.0234 18.1046 18.128 19 17.0234 19H7.02344C5.91887 19 5.02344 18.1046 5.02344 17V7C5.02344 5.89543 5.91887 5 7.02344 5H9.02344V9C9.02344 10.6569 10.3666 12 12.0234 12C13.6803 12 15.0234 10.6569 15.0234 9V5ZM13.0234 5H11.0234V9C11.0234 9.55228 11.4712 10 12.0234 10C12.5757 10 13.0234 9.55228 13.0234 9V5Z" fill="#FF884D"/>
</svg>
