<svg width="25" height="24" viewBox="0 0 25 24" fill="none" xmlns="http://www.w3.org/2000/svg">
<path fill-rule="evenodd" clip-rule="evenodd" d="M12.082 4C8.21604 4 5.08203 7.13401 5.08203 11C5.08203 13.2061 6.4181 15.268 8.28695 16.8876L11.7284 19.8702C11.9313 20.0461 12.2327 20.0461 12.4357 19.8702L15.8771 16.8876C17.746 15.268 19.082 13.2061 19.082 11C19.082 7.13401 15.948 4 12.082 4ZM3.08203 11C3.08203 6.02944 7.11147 2 12.082 2C17.0526 2 21.082 6.02944 21.082 11C21.082 14.0264 19.2723 16.5918 17.187 18.399L13.7456 21.3816C12.7909 22.209 11.3732 22.209 10.4185 21.3816L6.97709 18.399C4.8918 16.5918 3.08203 14.0264 3.08203 11Z" fill="#FF884D"/>
<path d="M11.6195 7.30994C11.7903 6.89929 12.372 6.89929 12.5428 7.30994L13.3322 9.20786C13.4037 9.37991 13.565 9.49789 13.7507 9.51398L15.6252 9.67649C16.0544 9.7137 16.2388 10.2402 15.9265 10.537L14.5025 11.8905C14.3733 12.0133 14.3192 12.1956 14.3606 12.369L14.841 14.3833C14.9442 14.8159 14.4736 15.1578 14.0941 14.926L12.3418 13.8557C12.1817 13.7579 11.9805 13.7579 11.8205 13.8557L10.0682 14.926C9.68864 15.1578 9.21801 14.8159 9.32121 14.3833L9.80184 12.3683C9.84311 12.1953 9.78935 12.0134 9.66066 11.8906L8.24147 10.5364C7.93012 10.2393 8.1146 9.71377 8.54333 9.6765L10.4117 9.51405C10.5973 9.49791 10.7585 9.37994 10.83 9.20794L11.6195 7.30994Z" fill="#FF884D"/>
</svg>
