<svg width="16" height="16" viewBox="0 0 16 16" fill="none" xmlns="http://www.w3.org/2000/svg">
<g clip-path="url(#clip0_8785_14039)">
<path d="M15.9519 4.70166C15.913 3.8501 15.7777 3.26855 15.58 2.75977C15.3792 2.22595 15.0642 1.74243 14.6572 1.34277C14.2577 0.935791 13.774 0.620728 13.2402 0.4198C12.7313 0.222168 12.1499 0.0870361 11.2983 0.0483398C10.4452 0.00927734 10.1726 0 8 0C5.82739 0 5.55481 0.00927734 4.70166 0.0480957C3.8501 0.0870361 3.26868 0.22229 2.75977 0.420044C2.22595 0.62085 1.74243 0.935791 1.34277 1.34277C0.935791 1.74231 0.620728 2.22583 0.4198 2.75964C0.222168 3.26855 0.0870361 3.8501 0.0483398 4.70154C0.00927734 5.55481 0 5.82727 0 7.99988C0 10.1726 0.00927734 10.4452 0.0483398 11.2983C0.0871582 12.1498 0.222412 12.7313 0.420166 13.2402C0.620972 13.7739 0.935913 14.2576 1.3429 14.6571C1.74243 15.0641 2.22607 15.379 2.75989 15.5798C3.26868 15.7777 3.85022 15.9128 4.70178 15.9518C5.55505 15.9907 5.82751 15.9999 8.00012 15.9999C10.1727 15.9999 10.4453 15.9907 11.2985 15.9518C12.15 15.9128 12.7314 15.7777 13.2404 15.5798C14.3149 15.1643 15.1644 14.3148 15.58 13.2402C15.7778 12.7313 15.913 12.1498 15.9519 11.2983C15.9907 10.4451 16 10.1726 16 8C16 5.82727 15.9907 5.55481 15.9519 4.70166ZM14.5118 11.2328C14.4763 12.0128 14.3459 12.4364 14.2365 12.7183C13.9673 13.416 13.4159 13.9674 12.7181 14.2366C12.4363 14.3461 12.0127 14.4764 11.2327 14.512C10.3893 14.5505 10.1362 14.5586 8 14.5586C5.86365 14.5586 5.61072 14.5505 4.76721 14.512C3.9873 14.4764 3.56372 14.3461 3.28174 14.2366C2.93433 14.1083 2.62 13.9038 2.36194 13.6381C2.09619 13.38 1.89172 13.0658 1.76343 12.7183C1.65393 12.4364 1.52356 12.0128 1.48804 11.2328C1.44958 10.3893 1.44141 10.1362 1.44141 8.00012C1.44141 5.86389 1.44958 5.61096 1.48804 4.76733C1.52368 3.9873 1.65393 3.56372 1.76343 3.28186C1.89172 2.93433 2.09631 2.62 2.36194 2.36194C2.62 2.09619 2.93433 1.89172 3.28186 1.76355C3.56372 1.65393 3.9873 1.52368 4.76733 1.48804C5.61084 1.44958 5.86389 1.44141 8 1.44141H7.99988C10.136 1.44141 10.389 1.44958 11.2327 1.48816C12.0127 1.52368 12.4362 1.65405 12.7181 1.76355C13.0656 1.89185 13.3799 2.09631 13.6379 2.36194C13.9037 2.62 14.1082 2.93433 14.2363 3.28186C14.3459 3.56372 14.4763 3.9873 14.5118 4.76733C14.5503 5.61084 14.5585 5.86389 14.5585 8C14.5585 10.1362 14.5504 10.3892 14.5118 11.2328Z" fill="#6F6F7E"/>
<path d="M7.99866 3.89258C5.72986 3.89258 3.89062 5.73193 3.89062 8.00073C3.89062 10.2695 5.72986 12.1088 7.99866 12.1088C10.2676 12.1088 12.1068 10.2695 12.1068 8.00073C12.1068 5.73193 10.2676 3.89258 7.99866 3.89258ZM7.99866 10.6674C6.526 10.6672 5.33203 9.47339 5.33215 8.00061C5.33215 6.52795 6.526 5.33398 7.99878 5.33398C9.47156 5.33411 10.6654 6.52795 10.6654 8.00061C10.6654 9.47339 9.47144 10.6674 7.99866 10.6674Z" fill="#6F6F7E"/>
<path d="M13.2286 3.72961C13.2286 4.25977 12.7988 4.68958 12.2687 4.68958C11.7384 4.68958 11.3086 4.25977 11.3086 3.72961C11.3086 3.19934 11.7384 2.76953 12.2687 2.76953C12.7988 2.76953 13.2286 3.19934 13.2286 3.72961Z" fill="#6F6F7E"/>
</g>
<defs>
<clipPath id="clip0_8785_14039">
<rect width="16" height="16" fill="white"/>
</clipPath>
</defs>
</svg>
