<svg width="16" height="16" viewBox="0 0 16 16" fill="none" xmlns="http://www.w3.org/2000/svg">
<path d="M5.71512 8.52159H7.46897V15.7419C7.46897 15.8845 7.58447 16 7.72703 16H10.7007C10.8433 16 10.9588 15.8845 10.9588 15.7419V8.55562H12.975C13.1061 8.55562 13.2164 8.45725 13.2314 8.32703L13.5376 5.66888C13.546 5.59575 13.5229 5.5225 13.4739 5.46763C13.425 5.41272 13.3549 5.38128 13.2813 5.38128H10.9589V3.715C10.9589 3.21272 11.2294 2.958 11.7629 2.958C11.8389 2.958 13.2813 2.958 13.2813 2.958C13.4239 2.958 13.5394 2.84244 13.5394 2.69994V0.259969C13.5394 0.117406 13.4239 0.00190625 13.2813 0.00190625H11.1887C11.1739 0.0011875 11.1411 0 11.0928 0C10.7297 0 9.46762 0.0712812 8.47066 0.988437C7.36603 2.00481 7.51959 3.22172 7.55628 3.43272V5.38122H5.71509C5.57253 5.38122 5.45703 5.49672 5.45703 5.63928V8.2635C5.45706 8.40603 5.57256 8.52159 5.71512 8.52159Z" fill="#6F6F7E"/>
</svg>
