<svg width="25" height="24" viewBox="0 0 25 24" fill="none" xmlns="http://www.w3.org/2000/svg">
<path fill-rule="evenodd" clip-rule="evenodd" d="M12.0234 8C8.70973 8 6.02344 10.6863 6.02344 14C6.02344 17.3137 8.70973 20 12.0234 20C15.3371 20 18.0234 17.3137 18.0234 14C18.0234 10.6863 15.3371 8 12.0234 8ZM4.02344 14C4.02344 9.58172 7.60516 6 12.0234 6C16.4417 6 20.0234 9.58172 20.0234 14C20.0234 18.4183 16.4417 22 12.0234 22C7.60516 22 4.02344 18.4183 4.02344 14Z" fill="#FF884D"/>
<path d="M11.0234 11C11.0234 10.4477 11.4712 10 12.0234 10V10C12.5757 10 13.0234 10.4477 13.0234 11V14C13.0234 14.5523 12.5757 15 12.0234 15V15C11.4712 15 11.0234 14.5523 11.0234 14V11Z" fill="#FF884D"/>
<path fill-rule="evenodd" clip-rule="evenodd" d="M11.0234 2C10.4712 2 10.0234 2.44772 10.0234 3C10.0234 3.55228 10.4712 4 11.0234 4H13.0234C13.5757 4 14.0234 3.55228 14.0234 3C14.0234 2.44772 13.5757 2 13.0234 2H11.0234ZM18.6234 3.95C18.1816 3.61863 17.5548 3.70817 17.2234 4.15C16.8921 4.59183 16.9816 5.21863 17.4234 5.55L18.4234 6.3C18.8653 6.63137 19.4921 6.54183 19.8234 6.1C20.1548 5.65817 20.0653 5.03137 19.6234 4.7L18.6234 3.95Z" fill="#FF884D"/>
</svg>
