<svg width="25" height="24" viewBox="0 0 25 24" fill="none" xmlns="http://www.w3.org/2000/svg">
<path fill-rule="evenodd" clip-rule="evenodd" d="M3.90625 20C3.90625 19.4477 4.35397 19 4.90625 19H20.9062C21.4585 19 21.9062 19.4477 21.9062 20C21.9062 20.5523 21.4585 21 20.9062 21H4.90625C4.35397 21 3.90625 20.5523 3.90625 20Z" fill="#FF884D"/>
<path fill-rule="evenodd" clip-rule="evenodd" d="M6.90625 3C7.45853 3 7.90625 3.44772 7.90625 4V16C7.90625 16.5523 7.45853 17 6.90625 17C6.35397 17 5.90625 16.5523 5.90625 16V4C5.90625 3.44772 6.35397 3 6.90625 3ZM18.9062 5C19.4585 5 19.9062 5.44772 19.9062 6V16C19.9062 16.5523 19.4585 17 18.9062 17C18.354 17 17.9062 16.5523 17.9062 16V6C17.9062 5.44772 18.354 5 18.9062 5ZM14.9062 11C15.4585 11 15.9062 11.4477 15.9062 12V16C15.9062 16.5523 15.4585 17 14.9062 17C14.354 17 13.9062 16.5523 13.9062 16V12C13.9062 11.4477 14.354 11 14.9062 11ZM11.9062 8C11.9062 7.44772 11.4585 7 10.9062 7C10.354 7 9.90625 7.44772 9.90625 8V16C9.90625 16.5523 10.354 17 10.9062 17C11.4585 17 11.9062 16.5523 11.9062 16V8Z" fill="#FF884D"/>
</svg>
