<svg width="24" height="24" viewBox="0 0 24 24" fill="none" xmlns="http://www.w3.org/2000/svg">
<rect x="9" y="9" width="6" height="6" rx="2.5" stroke="#3BB300" stroke-width="2" stroke-linejoin="round"/>
<path d="M2 9.98183C2 7.92507 4.34517 6.74821 5.99416 7.97747L7.99416 9.46838C8.62711 9.94021 9 10.6833 9 11.4727V12.5273C9 13.3167 8.62711 14.0598 7.99416 14.5316L5.99416 16.0225C4.34517 17.2518 2 16.0749 2 14.0182V9.98183Z" stroke="#3BB300" stroke-width="2" stroke-linejoin="round"/>
<path d="M22 9.98183C22 7.92507 19.6548 6.74821 18.0058 7.97747L16.0058 9.46838C15.3729 9.94021 15 10.6833 15 11.4727V12.5273C15 13.3167 15.3729 14.0598 16.0058 14.5316L18.0058 16.0225C19.6548 17.2518 22 16.0749 22 14.0182V9.98183Z" stroke="#3BB300" stroke-width="2" stroke-linejoin="round"/>
</svg>
