<svg width="24" height="24" viewBox="0 0 24 24" fill="none" xmlns="http://www.w3.org/2000/svg">
<path fill-rule="evenodd" clip-rule="evenodd" d="M14.5009 5C16.9862 5 19.0009 7.01472 19.0009 9.5C19.0009 11.8468 17.2036 13.775 14.9111 13.9816L15.0906 15.9735C18.4046 15.6749 21.0009 12.8912 21.0009 9.5C21.0009 5.91015 18.0907 3 14.5009 3C11.1097 3 8.32598 5.59626 8.02734 8.91025L10.0193 9.08975C10.2259 6.79724 12.1541 5 14.5009 5Z" fill="#FF884D"/>
<path fill-rule="evenodd" clip-rule="evenodd" d="M9.5 10C11.9853 10 14 12.0147 14 14.5C14 16.9853 11.9853 19 9.5 19C7.01472 19 5 16.9853 5 14.5C5 12.0147 7.01472 10 9.5 10ZM16 14.5C16 10.9101 13.0899 8 9.5 8C5.91015 8 3 10.9101 3 14.5C3 18.0899 5.91015 21 9.5 21C13.0899 21 16 18.0899 16 14.5Z" fill="#FF884D"/>
</svg>
