<svg width="25" height="24" viewBox="0 0 25 24" fill="none" xmlns="http://www.w3.org/2000/svg">
<path fill-rule="evenodd" clip-rule="evenodd" d="M3.04937 11.4505C2.78051 9.07808 4.63637 7 7.02393 7H17.0255C19.4131 7 21.2689 9.07808 21.0001 11.4505L20.3201 17.4504C20.0909 19.4723 18.3804 21 16.3455 21H7.70393C5.66908 21 3.95852 19.4724 3.72937 17.4504L3.04937 11.4505ZM7.02393 9C5.83015 9 4.90222 10.039 5.03665 11.2252L5.71665 17.2252C5.83122 18.2362 6.68651 19 7.70393 19H16.3455C17.3629 19 18.2182 18.2362 18.3328 17.2252L19.0128 11.2252C19.1472 10.039 18.2193 9 17.0255 9H7.02393Z" fill="#FF884D"/>
<path fill-rule="evenodd" clip-rule="evenodd" d="M8.02344 7C8.02344 4.79086 9.8143 3 12.0234 3C14.2326 3 16.0234 4.79086 16.0234 7V10C16.0234 10.5523 15.5757 11 15.0234 11C14.4712 11 14.0234 10.5523 14.0234 10V7C14.0234 5.89543 13.128 5 12.0234 5C10.9189 5 10.0234 5.89543 10.0234 7V10C10.0234 10.5523 9.57572 11 9.02344 11C8.47115 11 8.02344 10.5523 8.02344 10V7Z" fill="#FF884D"/>
</svg>
