<svg width="24" height="24" viewBox="0 0 24 24" fill="none" xmlns="http://www.w3.org/2000/svg">
<path d="M12.8217 16.4444H19.2783M12.8217 16.4444L11.1 20M12.8217 16.4444L15.4005 11.1191C15.6083 10.69 15.7122 10.4755 15.8543 10.4077C15.9779 10.3487 16.1221 10.3487 16.2457 10.4077C16.3878 10.4755 16.4917 10.69 16.6995 11.1191L19.2783 16.4444M19.2783 16.4444L21 20M3 5.77778H8.4M8.4 5.77778H11.55M8.4 5.77778V4M11.55 5.77778H13.8M11.55 5.77778C11.1035 8.40648 10.0673 10.7877 8.54899 12.7862M10.2 13.7778C9.64873 13.5332 9.08638 13.193 8.54899 12.7862M8.54899 12.7862C7.33172 11.8647 6.24249 10.6015 5.7 9.33333M8.54899 12.7862C7.10477 14.6871 5.22429 16.2416 3 17.3333" stroke="#3BB300" stroke-width="2" stroke-linecap="round" stroke-linejoin="round"/>
</svg>
