<svg width="25" height="24" viewBox="0 0 25 24" fill="none" xmlns="http://www.w3.org/2000/svg">
<path fill-rule="evenodd" clip-rule="evenodd" d="M10.4978 4.17157C11.248 3.42143 12.2654 3 13.3262 3H18.0836C19.7405 3 21.0836 4.34315 21.0836 6V10.7574C21.0836 11.8182 20.6622 12.8356 19.912 13.5858L13.3749 20.1229C12.2033 21.2945 10.3038 21.2945 9.13228 20.1229L3.96071 14.9513C2.78914 13.7797 2.78914 11.8803 3.96071 10.7087L10.4978 4.17157ZM13.3262 5C12.7958 5 12.2871 5.21071 11.912 5.58579L5.37492 12.1229C4.9844 12.5134 4.9844 13.1466 5.37493 13.5371L10.5465 18.7087C10.937 19.0992 11.5702 19.0992 11.9607 18.7087L18.4978 12.1716C18.8729 11.7965 19.0836 11.2878 19.0836 10.7574V6C19.0836 5.44772 18.6359 5 18.0836 5H13.3262Z" fill="#FF884D"/>
<path d="M4.66797 10.0002L6.08218 8.58594L15.4964 18.0001L14.0822 19.4144L4.66797 10.0002Z" fill="#FF884D"/>
<path d="M17.082 8C17.082 8.55228 16.6343 9 16.082 9C15.5297 9 15.082 8.55228 15.082 8C15.082 7.44772 15.5297 7 16.082 7C16.6343 7 17.082 7.44772 17.082 8Z" fill="#FF884D"/>
</svg>
