<svg width="129" height="128" viewBox="0 0 129 128" fill="none" xmlns="http://www.w3.org/2000/svg">
<path d="M64.5013 10.6667C35.0461 10.6667 11.168 34.5448 11.168 64C11.168 93.4552 35.0461 117.333 64.5013 117.333C93.9565 117.333 117.835 93.4552 117.835 64C117.835 34.5448 93.9565 10.6667 64.5013 10.6667Z" fill="#FFF2E6"/>
<path fill-rule="evenodd" clip-rule="evenodd" d="M84.2725 49.5621C86.3553 51.6449 86.3553 55.0218 84.2725 57.1046L62.9392 78.4379C60.8564 80.5207 57.4795 80.5207 55.3967 78.4379L44.7301 67.7712C42.6473 65.6884 42.6473 62.3116 44.7301 60.2288C46.8129 58.146 50.1897 58.146 52.2725 60.2288L59.168 67.1242L76.7301 49.5621C78.8129 47.4793 82.1897 47.4793 84.2725 49.5621Z" fill="#FF4D52"/>
</svg>
