<svg width="24" height="24" viewBox="0 0 24 24" fill="none" xmlns="http://www.w3.org/2000/svg">
<path d="M4 21C4 20.4477 4.44772 20 5 20H19C19.5523 20 20 20.4477 20 21C20 21.5523 19.5523 22 19 22H5C4.44772 22 4 21.5523 4 21Z" fill="#3BB300"/>
<path fill-rule="evenodd" clip-rule="evenodd" d="M12.4108 3.17352C13.9729 1.61143 16.5056 1.61143 18.0677 3.17352L18.825 3.93088C20.3871 5.49298 20.3871 8.02564 18.825 9.58774L11.919 16.4938C11.6415 16.7712 11.2886 16.9609 10.9042 17.0393L6.40059 17.9572C4.99604 18.2435 3.7552 17.0027 4.04144 15.5981L4.95925 11.0944C5.0376 10.7099 5.22731 10.357 5.50476 10.0796L12.4108 3.17352ZM16.6535 4.58774C15.8724 3.80669 14.6061 3.80669 13.8251 4.58773L13.4134 4.99938L16.9992 8.58516L17.4108 8.17353C18.1919 7.39248 18.1919 6.12614 17.4108 5.34509L16.6535 4.58774ZM8.41339 9.99936L11.9992 6.41359L15.585 9.99937L11.9992 13.5852L8.41339 9.99936ZM6.99918 11.4136L6.91897 11.4938L6.00116 15.9975L10.5047 15.0796L10.585 14.9994L6.99918 11.4136Z" fill="#3BB300"/>
</svg>
