<svg width="64" height="64" viewBox="0 0 64 64" fill="none" xmlns="http://www.w3.org/2000/svg">
<path opacity="0.35" fill-rule="evenodd" clip-rule="evenodd" d="M23.494 36.7678C22.5176 35.7915 22.5176 34.2085 23.494 33.2322L30.994 25.7322C31.9703 24.7559 33.5532 24.7559 34.5295 25.7322L42.0295 33.2322C43.0058 34.2085 43.0058 35.7915 42.0295 36.7678C41.0532 37.7441 39.4703 37.7441 38.494 36.7678L32.7617 31.0355L27.0295 36.7678C26.0532 37.7441 24.4703 37.7441 23.494 36.7678Z" fill="#000028"/>
<path opacity="0.15" fill-rule="evenodd" clip-rule="evenodd" d="M23.494 53.2678C22.5176 52.2915 22.5176 50.7085 23.494 49.7322L30.994 42.2322C31.9703 41.2559 33.5532 41.2559 34.5295 42.2322L42.0295 49.7322C43.0058 50.7085 43.0058 52.2915 42.0295 53.2678C41.0532 54.2441 39.4703 54.2441 38.494 53.2678L32.7617 47.5355L27.0295 53.2678C26.0532 54.2441 24.4703 54.2441 23.494 53.2678Z" fill="#000028"/>
<path fill-rule="evenodd" clip-rule="evenodd" d="M23.494 20.2678C22.5176 19.2915 22.5176 17.7085 23.494 16.7322L30.994 9.23223C31.9703 8.25592 33.5532 8.25592 34.5295 9.23223L42.0295 16.7322C43.0058 17.7085 43.0058 19.2915 42.0295 20.2678C41.0532 21.2441 39.4703 21.2441 38.494 20.2678L32.7617 14.5355L27.0295 20.2678C26.0532 21.2441 24.4703 21.2441 23.494 20.2678Z" fill="#000028"/>
</svg>
