<svg width="16" height="16" viewBox="0 0 16 16" fill="none" xmlns="http://www.w3.org/2000/svg">
<path d="M14.4 0H1.6C1.17565 0 0.768687 0.168571 0.468629 0.468629C0.168571 0.768687 0 1.17565 0 1.6L0 14.4C0 14.8243 0.168571 15.2313 0.468629 15.5314C0.768687 15.8314 1.17565 16 1.6 16H14.4C14.8243 16 15.2313 15.8314 15.5314 15.5314C15.8314 15.2313 16 14.8243 16 14.4V1.6C16 1.17565 15.8314 0.768687 15.5314 0.468629C15.2313 0.168571 14.8243 0 14.4 0V0ZM4.8 13.6H2.4V6.4H4.8V13.6ZM3.6 5.04C3.31519 5.04 3.03679 4.95555 2.79998 4.79732C2.56317 4.63909 2.3786 4.41419 2.26961 4.15106C2.16062 3.88794 2.13211 3.5984 2.18767 3.31907C2.24323 3.03974 2.38038 2.78315 2.58177 2.58177C2.78315 2.38038 3.03974 2.24323 3.31907 2.18767C3.5984 2.13211 3.88794 2.16062 4.15106 2.26961C4.41419 2.3786 4.63909 2.56317 4.79732 2.79998C4.95555 3.03679 5.04 3.31519 5.04 3.6C5.04079 3.78933 5.00409 3.97693 4.932 4.152C4.85992 4.32707 4.75388 4.48613 4.62 4.62C4.48613 4.75388 4.32707 4.85992 4.152 4.932C3.97693 5.00409 3.78933 5.04079 3.6 5.04ZM13.6 13.6H11.2V9.36C11.2 9.04174 11.0736 8.73652 10.8485 8.51147C10.6235 8.28643 10.3183 8.16 10 8.16C9.68174 8.16 9.37652 8.28643 9.15147 8.51147C8.92643 8.73652 8.8 9.04174 8.8 9.36V13.6H6.4V6.4H8.8V7.36C9.02474 7.03203 9.32212 6.76035 9.66901 6.56609C10.0159 6.37184 10.4029 6.26024 10.8 6.24C11.5398 6.24908 12.2467 6.54699 12.7699 7.07014C13.293 7.59329 13.5909 8.30021 13.6 9.04V13.6Z" fill="#6F6F7E"/>
</svg>
