<svg width="25" height="24" viewBox="0 0 25 24" fill="none" xmlns="http://www.w3.org/2000/svg">
<path fill-rule="evenodd" clip-rule="evenodd" d="M11.2752 3H14.9535C15.8552 2.99999 16.5827 2.99999 17.1747 3.04038C17.7834 3.08191 18.3217 3.16948 18.8314 3.3806C20.0565 3.88807 21.0299 4.86144 21.5374 6.08658C21.7485 6.59628 21.8361 7.13456 21.8776 7.74331C21.918 8.33531 21.918 9.06272 21.918 9.96448V10.0355C21.918 10.9373 21.918 11.6647 21.8776 12.2567C21.8361 12.8654 21.7485 13.4037 21.5374 13.9134C21.0299 15.1386 20.0565 16.1119 18.8314 16.6194C18.3217 16.8305 17.7834 16.9181 17.1747 16.9596C16.5827 17 15.8552 17 14.9535 17H12.3465C11.887 17 11.7953 17.0046 11.7206 17.0197C11.5464 17.0548 11.3847 17.1356 11.2522 17.2539C11.1953 17.3047 11.1366 17.3752 10.8608 17.7429L10.8393 17.7716C10.2336 18.5792 9.75086 19.2228 9.35588 19.6881C8.98461 20.1255 8.56493 20.5654 8.06405 20.7725C6.68584 21.3422 5.09837 20.813 4.33763 19.5303C4.06116 19.0641 3.98935 18.4604 3.95476 17.8878C3.91796 17.2785 3.91796 16.474 3.91797 15.4645V10.3572C3.91796 9.27341 3.91795 8.39926 3.97579 7.69138C4.03534 6.96253 4.16115 6.32234 4.46294 5.73005C4.9423 4.78924 5.70721 4.02433 6.64802 3.54497C7.24031 3.24318 7.8805 3.11737 8.60934 3.05782C9.31722 2.99998 10.1914 2.99999 11.2752 3ZM8.77221 5.05118C8.16704 5.10062 7.81935 5.19279 7.556 5.32698C6.99151 5.6146 6.53257 6.07354 6.24495 6.63803C6.11076 6.90138 6.01859 7.24907 5.96914 7.85424C5.91875 8.47108 5.91797 9.26339 5.91797 10.4V15.4286C5.91797 16.4821 5.91841 17.2257 5.95112 17.7672C5.9673 18.035 5.98992 18.2233 6.01651 18.356C6.03904 18.4685 6.05869 18.5106 6.05977 18.5133C6.31345 18.9375 6.83909 19.1127 7.29653 18.9256C7.29901 18.9241 7.34001 18.9021 7.42554 18.8257C7.52641 18.7355 7.65748 18.5984 7.83115 18.3938C8.18219 17.9803 8.62871 17.3857 9.26083 16.5429C9.27532 16.5235 9.28967 16.5044 9.30391 16.4853C9.51224 16.2071 9.6953 15.9626 9.92052 15.7617C10.3182 15.4068 10.8032 15.1642 11.3258 15.059C11.6217 14.9994 11.9271 14.9997 12.2747 15C12.2984 15 12.3224 15 12.3465 15H14.918C15.8635 15 16.5226 14.9995 17.0385 14.9643C17.5454 14.9297 17.8406 14.865 18.066 14.7716C18.8011 14.4672 19.3851 13.8831 19.6896 13.1481C19.783 12.9227 19.8476 12.6275 19.8822 12.1206C19.9174 11.6047 19.918 10.9456 19.918 10C19.918 9.05444 19.9174 8.39534 19.8822 7.87945C19.8476 7.37254 19.783 7.07734 19.6896 6.85195C19.3851 6.11687 18.8011 5.53284 18.066 5.22836C17.8406 5.135 17.5454 5.07033 17.0385 5.03574C16.5226 5.00054 15.8635 5 14.918 5H11.318C10.1814 5 9.38905 5.00078 8.77221 5.05118Z" fill="#FF884D"/>
<path d="M8.91797 7C8.36568 7 7.91797 7.44772 7.91797 8C7.91797 8.55228 8.36568 9 8.91797 9H16.918C17.4703 9 17.918 8.55228 17.918 8C17.918 7.44772 17.4703 7 16.918 7H8.91797Z" fill="#FF884D"/>
<path d="M8.91797 11C8.36568 11 7.91797 11.4477 7.91797 12C7.91797 12.5523 8.36568 13 8.91797 13H11.918C12.4703 13 12.918 12.5523 12.918 12C12.918 11.4477 12.4703 11 11.918 11H8.91797Z" fill="#FF884D"/>
</svg>
