<svg width="25" height="25" viewBox="0 0 25 25" fill="none" xmlns="http://www.w3.org/2000/svg">
<g opacity="0.25">
<path fill-rule="evenodd" clip-rule="evenodd" d="M13.0871 2.75446C12.7076 2.41518 12.1337 2.41518 11.7542 2.75446C9.6832 4.60579 9.22103 6.91837 9.47893 9.22439C9.55989 9.9483 9.71292 10.6827 9.91063 11.4148C8.12778 10.2115 5.83003 9.50763 3.4173 9.5C3.15153 9.49916 2.89637 9.60415 2.70815 9.79178C2.52111 9.97822 2.41547 10.231 2.41415 10.495C2.39239 14.832 6.54541 18.0536 11.416 18.4573V21.5C11.416 22.0523 11.8637 22.5 12.416 22.5C12.9683 22.5 13.416 22.0523 13.416 21.5V18.457C18.2849 18.0518 22.4357 14.8308 22.414 10.495C22.4112 9.94343 21.9624 9.49826 21.4108 9.50001C18.9975 9.50764 16.6992 10.2119 14.9161 11.4157C15.113 10.6833 15.2658 9.94836 15.3472 9.22415C15.6063 6.91909 15.1536 4.60172 13.0871 2.75446ZM11.4665 9.0021C11.295 7.46799 11.5175 6.11396 12.4198 4.95516C13.3135 6.10863 13.5326 7.46272 13.3597 9.00077C13.2268 10.184 12.8667 11.4257 12.4157 12.6991C11.9602 11.4247 11.5987 10.1838 11.4665 9.0021ZM11.2882 16.4392C7.71455 16.0604 5.12652 13.9645 4.53996 11.5608C8.11358 11.9396 10.7016 14.0355 11.2882 16.4392ZM13.54 16.4392C17.1136 16.0604 19.7016 13.9645 20.2882 11.5608C16.7145 11.9396 14.1265 14.0355 13.54 16.4392Z" fill="#000028"/>
</g>
</svg>
