<svg width="25" height="24" viewBox="0 0 25 24" fill="none" xmlns="http://www.w3.org/2000/svg">
<path fill-rule="evenodd" clip-rule="evenodd" d="M13.918 8C13.918 7.44772 13.4703 7 12.918 7C12.3657 7 11.918 7.44772 11.918 8V12C11.918 12.5523 12.3657 13 12.918 13C13.4703 13 13.918 12.5523 13.918 12V8ZM12.918 15C12.3657 15 11.918 15.4477 11.918 16C11.918 16.5523 12.3657 17 12.918 17C13.4703 17 13.918 16.5523 13.918 16C13.918 15.4477 13.4703 15 12.918 15Z" fill="#FF884D"/>
<path fill-rule="evenodd" clip-rule="evenodd" d="M11.2752 3H14.5608C15.6446 2.99999 16.5187 2.99998 17.2266 3.05782C17.9554 3.11737 18.5956 3.24318 19.1879 3.54497C20.1287 4.02433 20.8936 4.78924 21.373 5.73005C21.6748 6.32234 21.8006 6.96253 21.8602 7.69138C21.918 8.39925 21.918 9.27339 21.918 10.3572V13.6428C21.918 14.7266 21.918 15.6008 21.8602 16.3086C21.8006 17.0375 21.6748 17.6777 21.373 18.27C20.8936 19.2108 20.1287 19.9757 19.1879 20.455C18.5956 20.7568 17.9554 20.8826 17.2266 20.9422C16.5187 21 15.6446 21 14.5608 21H11.2751C10.1914 21 9.31722 21 8.60934 20.9422C7.8805 20.8826 7.24031 20.7568 6.64802 20.455C5.70721 19.9757 4.9423 19.2108 4.46294 18.27C4.16115 17.6777 4.03534 17.0375 3.97579 16.3086C3.91795 15.6007 3.91796 14.7266 3.91797 13.6428V10.3572C3.91796 9.27341 3.91795 8.39926 3.97579 7.69138C4.03534 6.96253 4.16115 6.32234 4.46294 5.73005C4.9423 4.78924 5.70721 4.02433 6.64802 3.54497C7.24031 3.24318 7.8805 3.11737 8.60935 3.05782C9.31722 2.99998 10.1914 2.99999 11.2752 3ZM8.77221 5.05118C8.16704 5.10062 7.81935 5.19279 7.556 5.32698C6.99151 5.6146 6.53257 6.07354 6.24495 6.63803C6.11076 6.90138 6.01859 7.24907 5.96914 7.85424C5.91875 8.47108 5.91797 9.26339 5.91797 10.4V13.6C5.91797 14.7366 5.91875 15.5289 5.96914 16.1458C6.01859 16.7509 6.11076 17.0986 6.24495 17.362C6.53257 17.9265 6.99151 18.3854 7.556 18.673C7.81935 18.8072 8.16704 18.8994 8.77221 18.9488C9.38905 18.9992 10.1814 19 11.318 19H14.518C15.6546 19 16.4469 18.9992 17.0637 18.9488C17.6689 18.8994 18.0166 18.8072 18.2799 18.673C18.8444 18.3854 19.3034 17.9265 19.591 17.362C19.7252 17.0986 19.8174 16.7509 19.8668 16.1458C19.9172 15.5289 19.918 14.7366 19.918 13.6V10.4C19.918 9.26339 19.9172 8.47108 19.8668 7.85424C19.8174 7.24907 19.7252 6.90138 19.591 6.63803C19.3034 6.07354 18.8444 5.6146 18.2799 5.32698C18.0166 5.19279 17.6689 5.10062 17.0637 5.05118C16.4469 5.00078 15.6546 5 14.518 5H11.318C10.1814 5 9.38905 5.00078 8.77221 5.05118Z" fill="#FF884D"/>
</svg>
