<svg width="25" height="25" viewBox="0 0 25 25" fill="none" xmlns="http://www.w3.org/2000/svg">
<path fill-rule="evenodd" clip-rule="evenodd" d="M12.4141 20.5C16.8323 20.5 20.4141 16.9183 20.4141 12.5C20.4141 8.08172 16.8323 4.5 12.4141 4.5C7.99578 4.5 4.41406 8.08172 4.41406 12.5C4.41406 16.9183 7.99578 20.5 12.4141 20.5ZM22.4141 12.5C22.4141 18.0228 17.9369 22.5 12.4141 22.5C6.89121 22.5 2.41406 18.0228 2.41406 12.5C2.41406 6.97715 6.89121 2.5 12.4141 2.5C17.9369 2.5 22.4141 6.97715 22.4141 12.5Z" fill="#FF4D52"/>
<path fill-rule="evenodd" clip-rule="evenodd" d="M12.4141 6.5C12.9663 6.5 13.4141 6.94772 13.4141 7.5V12.382L15.8613 13.6056C16.3553 13.8526 16.5555 14.4532 16.3085 14.9472C16.0615 15.4412 15.4608 15.6414 14.9668 15.3944L11.9668 13.8944C11.6281 13.725 11.4141 13.3788 11.4141 13V7.5C11.4141 6.94772 11.8618 6.5 12.4141 6.5Z" fill="#FF4D52"/>
</svg>
