<svg width="24" height="24" viewBox="0 0 24 24" fill="none" xmlns="http://www.w3.org/2000/svg">
<path fill-rule="evenodd" clip-rule="evenodd" d="M8.0001 3.0001L7.86252 3.00005C7.06713 2.99962 6.47647 2.9993 5.96482 3.13639C4.58445 3.50626 3.50626 4.58445 3.13639 5.96482C2.9993 6.47647 2.99962 7.06713 3.00005 7.86252L3.0001 8.0001C3.0001 8.55238 3.44781 9.0001 4.0001 9.0001C4.55238 9.0001 5.0001 8.55238 5.0001 8.0001C5.0001 7.00574 5.00869 6.70474 5.06824 6.48246C5.25318 5.79227 5.79227 5.25318 6.48246 5.06824C6.70474 5.00869 7.00574 5.0001 8.0001 5.0001C8.55238 5.0001 9.0001 4.55238 9.0001 4.0001C9.0001 3.44781 8.55238 3.0001 8.0001 3.0001ZM16.0001 21.0001L16.1377 21.0001H16.1377C16.9331 21.0006 17.5237 21.0009 18.0354 20.8638C19.4157 20.4939 20.4939 19.4157 20.8638 18.0354C21.0009 17.5237 21.0006 16.9331 21.0001 16.1377L21.0001 16.0001C21.0001 15.4478 20.5524 15.0001 20.0001 15.0001C19.4478 15.0001 19.0001 15.4478 19.0001 16.0001C19.0001 16.9944 18.9915 17.2955 18.9319 17.5177C18.747 18.2079 18.2079 18.747 17.5177 18.9319C17.2955 18.9915 16.9945 19.0001 16.0001 19.0001C15.4478 19.0001 15.0001 19.4478 15.0001 20.0001C15.0001 20.5524 15.4478 21.0001 16.0001 21.0001ZM3.00005 16.1377L3.0001 16.0001C3.0001 15.4478 3.44781 15.0001 4.0001 15.0001C4.55238 15.0001 5.0001 15.4478 5.0001 16.0001C5.0001 16.9944 5.00869 17.2955 5.06824 17.5177C5.25318 18.2079 5.79227 18.747 6.48246 18.9319C6.70474 18.9915 7.00574 19.0001 8.0001 19.0001C8.55238 19.0001 9.0001 19.4478 9.0001 20.0001C9.0001 20.5524 8.55238 21.0001 8.0001 21.0001L7.86252 21.0001H7.86249C7.06712 21.0006 6.47647 21.0009 5.96482 20.8638C4.58445 20.4939 3.50626 19.4157 3.13639 18.0354C2.9993 17.5237 2.99962 16.9331 3.00005 16.1377ZM21.0001 8.0001L21.0001 7.86251V7.86248C21.0006 7.06712 21.0009 6.47647 20.8638 5.96482C20.4939 4.58445 19.4157 3.50626 18.0354 3.13639C17.5237 2.9993 16.9331 2.99962 16.1377 3.00005L16.0001 3.0001L16.0001 3.0001C15.4478 3.0001 15.0001 3.44781 15.0001 4.0001C15.0001 4.55238 15.4478 5.0001 16.0001 5.0001C16.9945 5.0001 17.2955 5.00869 17.5177 5.06825C18.2079 5.25318 18.747 5.79227 18.9319 6.48246C18.9915 6.70474 19.0001 7.00574 19.0001 8.0001C19.0001 8.55238 19.4478 9.0001 20.0001 9.0001C20.5524 9.0001 21.0001 8.55238 21.0001 8.0001Z" fill="#3BB300"/>
<path d="M7 8C7 7.44772 7.44772 7 8 7H10C10.5523 7 11 7.44772 11 8V10C11 10.5523 10.5523 11 10 11H8C7.44772 11 7 10.5523 7 10V8Z" fill="#3BB300"/>
<path d="M13 8C13 7.44772 13.4477 7 14 7H16C16.5523 7 17 7.44772 17 8V10C17 10.5523 16.5523 11 16 11H14C13.4477 11 13 10.5523 13 10V8Z" fill="#3BB300"/>
<path d="M7 14C7 13.4477 7.44772 13 8 13H10C10.5523 13 11 13.4477 11 14V16C11 16.5523 10.5523 17 10 17H8C7.44772 17 7 16.5523 7 16V14Z" fill="#3BB300"/>
<path d="M13 14C13 13.4477 13.4477 13 14 13H16C16.5523 13 17 13.4477 17 14V16C17 16.5523 16.5523 17 16 17H14C13.4477 17 13 16.5523 13 16V14Z" fill="#3BB300"/>
</svg>
