<svg width="25" height="24" viewBox="0 0 25 24" fill="none" xmlns="http://www.w3.org/2000/svg">
<path fill-rule="evenodd" clip-rule="evenodd" d="M12.4531 20C16.8714 20 20.4531 16.4183 20.4531 12C20.4531 7.58172 16.8714 4 12.4531 4C8.03485 4 4.45312 7.58172 4.45312 12C4.45312 16.4183 8.03485 20 12.4531 20ZM22.4531 12C22.4531 17.5228 17.976 22 12.4531 22C6.93028 22 2.45312 17.5228 2.45312 12C2.45312 6.47715 6.93028 2 12.4531 2C17.976 2 22.4531 6.47715 22.4531 12Z" fill="#FF884D"/>
<path fill-rule="evenodd" clip-rule="evenodd" d="M12.4531 6C13.0054 6 13.4531 6.44772 13.4531 7V11.882L15.9003 13.1056C16.3943 13.3526 16.5945 13.9532 16.3476 14.4472C16.1006 14.9412 15.4999 15.1414 15.0059 14.8944L12.0059 13.3944C11.6671 13.225 11.4531 12.8788 11.4531 12.5V7C11.4531 6.44772 11.9008 6 12.4531 6Z" fill="#FF884D"/>
</svg>
