<svg width="25" height="24" viewBox="0 0 25 24" fill="none" xmlns="http://www.w3.org/2000/svg">
<path d="M14.9062 6C14.354 6 13.9062 6.44772 13.9062 7C13.9062 7.55228 14.354 8 14.9062 8H20.9062C21.4585 8 21.9062 7.55228 21.9062 7C21.9062 6.44772 21.4585 6 20.9062 6H14.9062Z" fill="#FF884D"/>
<path d="M14.9062 16C14.354 16 13.9062 16.4477 13.9062 17C13.9062 17.5523 14.354 18 14.9062 18H20.9062C21.4585 18 21.9062 17.5523 21.9062 17C21.9062 16.4477 21.4585 16 20.9062 16H14.9062Z" fill="#FF884D"/>
<path fill-rule="evenodd" clip-rule="evenodd" d="M7.93824 3H7.87427C7.43564 2.99999 7.05712 2.99998 6.74387 3.02135C6.41404 3.04386 6.08413 3.09336 5.7582 3.22836C5.02312 3.53285 4.4391 4.11687 4.13461 4.85195C3.99961 5.17788 3.95011 5.50779 3.9276 5.83762C3.90623 6.15087 3.90624 6.52934 3.90625 6.96797V7.03198C3.90624 7.47061 3.90623 7.84914 3.9276 8.16238C3.95011 8.49221 3.99961 8.82212 4.13461 9.14805C4.4391 9.88314 5.02312 10.4672 5.7582 10.7716C6.08413 10.9066 6.41404 10.9561 6.74387 10.9787C7.05713 11 7.43561 11 7.87426 11H7.93824C8.37689 11 8.75538 11 9.06863 10.9787C9.39846 10.9561 9.72837 10.9066 10.0543 10.7716C10.7894 10.4672 11.3734 9.88314 11.6779 9.14805C11.8129 8.82212 11.8624 8.49221 11.8849 8.16238C11.9063 7.84913 11.9063 7.47065 11.9063 7.03201V6.96804C11.9063 6.5294 11.9063 6.15087 11.8849 5.83762C11.8624 5.50779 11.8129 5.17788 11.6779 4.85195C11.3734 4.11687 10.7894 3.53285 10.0543 3.22836C9.72837 3.09336 9.39846 3.04386 9.06863 3.02135C8.75539 2.99998 8.37686 2.99999 7.93824 3ZM6.52357 5.07612C6.56518 5.05889 6.65201 5.03227 6.88001 5.01671C7.11699 5.00054 7.42663 5 7.90625 5C8.38588 5 8.69551 5.00054 8.93249 5.01671C9.16049 5.03227 9.24732 5.05889 9.28894 5.07612C9.53396 5.17762 9.72864 5.37229 9.83013 5.61732C9.84737 5.65893 9.87399 5.74576 9.88954 5.97376C9.90571 6.21074 9.90625 6.52038 9.90625 7C9.90625 7.47963 9.90571 7.78926 9.88954 8.02624C9.87399 8.25424 9.84737 8.34107 9.83013 8.38268C9.72864 8.62771 9.53396 8.82239 9.28894 8.92388C9.24732 8.94112 9.16049 8.96773 8.93249 8.98329C8.69551 8.99946 8.38588 9 7.90625 9C7.42663 9 7.11699 8.99946 6.88001 8.98329C6.65201 8.96773 6.56518 8.94112 6.52357 8.92388C6.27854 8.82239 6.08387 8.62771 5.98237 8.38268C5.96514 8.34107 5.93852 8.25424 5.92296 8.02624C5.90679 7.78926 5.90625 7.47963 5.90625 7C5.90625 6.52038 5.90679 6.21074 5.92296 5.97376C5.93852 5.74576 5.96514 5.65893 5.98237 5.61732C6.08387 5.37229 6.27854 5.17762 6.52357 5.07612Z" fill="#FF884D"/>
<path fill-rule="evenodd" clip-rule="evenodd" d="M7.93824 13H7.87427C7.43564 13 7.05712 13 6.74387 13.0214C6.41404 13.0439 6.08413 13.0934 5.7582 13.2284C5.02312 13.5328 4.4391 14.1169 4.13461 14.852C3.99961 15.1779 3.95011 15.5078 3.9276 15.8376C3.90623 16.1509 3.90624 16.5293 3.90625 16.968V17.032C3.90624 17.4706 3.90623 17.8491 3.9276 18.1624C3.95011 18.4922 3.99961 18.8221 4.13461 19.1481C4.4391 19.8831 5.02312 20.4672 5.7582 20.7716C6.08413 20.9066 6.41404 20.9561 6.74387 20.9787C7.05713 21 7.43561 21 7.87426 21H7.93824C8.37689 21 8.75538 21 9.06863 20.9787C9.39846 20.9561 9.72837 20.9066 10.0543 20.7716C10.7894 20.4672 11.3734 19.8831 11.6779 19.1481C11.8129 18.8221 11.8624 18.4922 11.8849 18.1624C11.9063 17.8491 11.9063 17.4707 11.9063 17.032V16.968C11.9063 16.5294 11.9063 16.1509 11.8849 15.8376C11.8624 15.5078 11.8129 15.1779 11.6779 14.852C11.3734 14.1169 10.7894 13.5328 10.0543 13.2284C9.72837 13.0934 9.39846 13.0439 9.06863 13.0214C8.75539 13 8.37687 13 7.93824 13ZM6.52357 15.0761C6.56518 15.0589 6.65201 15.0323 6.88001 15.0167C7.11699 15.0005 7.42663 15 7.90625 15C8.38588 15 8.69551 15.0005 8.93249 15.0167C9.16049 15.0323 9.24732 15.0589 9.28894 15.0761C9.53396 15.1776 9.72864 15.3723 9.83013 15.6173C9.84737 15.6589 9.87399 15.7458 9.88954 15.9738C9.90571 16.2107 9.90625 16.5204 9.90625 17C9.90625 17.4796 9.90571 17.7893 9.88954 18.0262C9.87399 18.2542 9.84737 18.3411 9.83013 18.3827C9.72864 18.6277 9.53396 18.8224 9.28894 18.9239C9.24732 18.9411 9.16049 18.9677 8.93249 18.9833C8.69551 18.9995 8.38588 19 7.90625 19C7.42663 19 7.11699 18.9995 6.88001 18.9833C6.65201 18.9677 6.56518 18.9411 6.52357 18.9239C6.27854 18.8224 6.08387 18.6277 5.98237 18.3827C5.96514 18.3411 5.93852 18.2542 5.92296 18.0262C5.90679 17.7893 5.90625 17.4796 5.90625 17C5.90625 16.5204 5.90679 16.2107 5.92296 15.9738C5.93852 15.7458 5.96514 15.6589 5.98237 15.6173C6.08387 15.3723 6.27854 15.1776 6.52357 15.0761Z" fill="#FF884D"/>
</svg>
