<svg width="25" height="24" viewBox="0 0 25 24" fill="none" xmlns="http://www.w3.org/2000/svg">
<path fill-rule="evenodd" clip-rule="evenodd" d="M9.45312 11V15H7.45312V11H9.45312ZM5.45312 9H7.45312H9.45312H11.4531V11V15V17H9.45312H7.45312H5.45312V15V11V9ZM17.4531 11V15H15.4531V11H17.4531ZM13.4531 9H15.4531H17.4531H19.4531V11V15V17H17.4531H15.4531H13.4531V15V11V9Z" fill="#FF884D"/>
<path fill-rule="evenodd" clip-rule="evenodd" d="M18.4531 17H6.45312C5.90084 17 5.45312 17.4477 5.45312 18C5.45312 18.5523 5.90084 19 6.45313 19H18.4531C19.0054 19 19.4531 18.5523 19.4531 18C19.4531 17.4477 19.0054 17 18.4531 17ZM6.45312 15C4.79627 15 3.45312 16.3431 3.45312 18C3.45312 19.6569 4.79627 21 6.45313 21H18.4531C20.11 21 21.4531 19.6569 21.4531 18C21.4531 16.3431 20.11 15 18.4531 15H6.45312Z" fill="#FF884D"/>
<path fill-rule="evenodd" clip-rule="evenodd" d="M6.38178 9.00002H18.5245C19.0374 9.00002 19.4531 8.58425 19.4531 8.07136C19.4531 7.67774 19.205 7.32688 18.8338 7.19575L12.7863 5.05907C12.5707 4.98291 12.3356 4.98291 12.12 5.05907L6.07242 7.19575C5.70128 7.32688 5.45312 7.67774 5.45312 8.07136C5.45312 8.58425 5.8689 9.00002 6.38178 9.00002ZM5.40616 5.30999C4.23571 5.72352 3.45312 6.83002 3.45312 8.07136C3.45312 9.68882 4.76433 11 6.38178 11H18.5245C20.1419 11 21.4531 9.68882 21.4531 8.07136C21.4531 6.83002 20.6705 5.72352 19.5001 5.30999L13.4525 3.17331C12.8058 2.94483 12.1004 2.94483 11.4537 3.17331L5.40616 5.30999Z" fill="#FF884D"/>
</svg>
