<svg width="24" height="24" viewBox="0 0 24 24" fill="none" xmlns="http://www.w3.org/2000/svg">
<path d="M10 20H14C14 21.1046 13.1046 22 12 22C10.8954 22 10 21.1046 10 20Z" fill="#FF884D"/>
<path fill-rule="evenodd" clip-rule="evenodd" d="M5.99951 9C5.99951 7.999 6.24464 7.05525 6.67814 6.22551C7.53265 4.5899 9.11902 3.39736 11.0028 3.08241C11.3269 3.02821 11.6599 3 11.9995 3C12.3391 3 12.672 3.02811 12.9962 3.08231C15.8355 3.55699 17.9996 6.02574 17.9996 8.99992V11.9573C17.9996 12.388 18.1555 12.8041 18.4385 13.1288L19.0829 13.8681C21.1697 16.2622 19.4694 19.9999 16.2935 19.9999H7.7056C4.5297 19.9999 2.82937 16.2622 4.91619 13.8681L5.56063 13.1288C5.84364 12.8041 5.99956 12.388 5.99956 11.9573L5.99951 9ZM7.99951 11.9754V9C7.99951 6.79086 9.79037 5 11.9995 5C14.2087 5 15.9995 6.79086 15.9995 9L15.9996 11.9573C15.9996 12.8711 16.3304 13.7541 16.9308 14.443L17.5753 15.1823C18.5342 16.2824 17.7529 17.9999 16.2935 17.9999H7.7056C6.24623 17.9999 5.46491 16.2824 6.42383 15.1823L7.06827 14.443C7.66478 13.7586 7.99517 12.8828 7.99951 11.9754Z" fill="#FF884D"/>
</svg>
