<svg width="25" height="24" viewBox="0 0 25 24" fill="none" xmlns="http://www.w3.org/2000/svg">
<path fill-rule="evenodd" clip-rule="evenodd" d="M13.082 4.00006H9.88203C9.02545 4.00006 8.44316 4.00084 7.99307 4.03761C7.55466 4.07343 7.33045 4.13836 7.17405 4.21805C6.79773 4.4098 6.49177 4.71576 6.30002 5.09208C6.22033 5.24848 6.1554 5.47269 6.11958 5.9111C6.08281 6.36119 6.08203 6.94348 6.08203 7.80006V16.2001C6.08203 17.0566 6.08281 17.6389 6.11958 18.089C6.1554 18.5274 6.22033 18.7516 6.30002 18.908C6.49177 19.2844 6.79773 19.5903 7.17405 19.7821C7.33045 19.8618 7.55466 19.9267 7.99307 19.9625C8.44316 19.9993 9.02545 20.0001 9.88203 20.0001H13.082C13.6343 20.0001 14.082 20.4478 14.082 21.0001C14.082 21.5523 13.6343 22.0001 13.082 22.0001H9.84071C9.03575 22.0001 8.3714 22.0001 7.83021 21.9559C7.26811 21.9099 6.75141 21.8114 6.26607 21.5641C5.51342 21.1806 4.9015 20.5687 4.51801 19.816C4.27072 19.3307 4.17215 18.814 4.12623 18.2519C4.08201 17.7107 4.08202 17.0463 4.08203 16.2414V7.75876C4.08202 6.9538 4.08201 6.28943 4.12623 5.74824C4.17215 5.18614 4.27072 4.66944 4.51801 4.1841C4.9015 3.43145 5.51342 2.81953 6.26607 2.43604C6.75141 2.18875 7.26811 2.09018 7.83021 2.04426C8.3714 2.00004 9.03576 2.00005 9.84073 2.00006L13.1957 2.00003C13.8307 1.99973 14.3105 1.9995 14.7732 2.11058C15.1813 2.20857 15.5715 2.37019 15.9294 2.5895C16.3351 2.83813 16.6742 3.17756 17.123 3.62678L18.4553 4.95909C18.9045 5.40788 19.244 5.74699 19.4926 6.15271C19.7119 6.5106 19.8735 6.90078 19.9715 7.30892C20.0826 7.77161 20.0824 8.2514 20.0821 8.88638L20.082 12.0001C20.082 12.5523 19.6343 13.0001 19.082 13.0001C18.5297 13.0001 18.082 12.5523 18.082 12.0001V9.00006H16.082C14.4252 9.00006 13.082 7.65692 13.082 6.00006V4.00006ZM17.642 7.00006C17.5218 6.85796 17.3299 6.66216 16.969 6.30128L15.7808 5.11306C15.4199 4.75218 15.2241 4.56026 15.082 4.44009V6.00006C15.082 6.55235 15.5297 7.00006 16.082 7.00006H17.642Z" fill="#FF884D"/>
<path d="M18.6195 15.3099C18.7903 14.8993 19.372 14.8993 19.5428 15.3099L20.3322 17.2079C20.4037 17.3799 20.565 17.4979 20.7507 17.514L22.6252 17.6765C23.0544 17.7137 23.2388 18.2402 22.9265 18.537L21.5025 19.8905C21.3733 20.0133 21.3192 20.1956 21.3606 20.369L21.841 22.3833C21.9442 22.8159 21.4736 23.1578 21.0941 22.926L19.3418 21.8557C19.1817 21.7579 18.9805 21.7579 18.8205 21.8557L17.0682 22.926C16.6886 23.1578 16.218 22.8159 16.3212 22.3833L16.8018 20.3683C16.8431 20.1953 16.7894 20.0134 16.6607 19.8906L15.2415 18.5364C14.9301 18.2393 15.1146 17.7138 15.5433 17.6765L17.4117 17.514C17.5973 17.4979 17.7585 17.3799 17.83 17.2079L18.6195 15.3099Z" fill="#FF884D"/>
</svg>
