<svg width="200" height="32" viewBox="0 0 200 32" fill="none" xmlns="http://www.w3.org/2000/svg">
<path d="M8.528 26.364C12.506 26.364 15.496 23.296 15.496 19.578C15.496 15.574 12.74 12.766 8.736 12.766C7.436 12.766 6.214 13.234 5.252 13.962V7.202H1.56V19.578C1.56 23.478 4.524 26.364 8.528 26.364ZM8.528 22.88C6.63 22.88 5.252 21.398 5.252 19.578C5.252 17.758 6.63 16.25 8.528 16.25C10.426 16.25 11.804 17.758 11.804 19.578C11.804 21.398 10.426 22.88 8.528 22.88ZM19.5483 11.206C20.7963 11.206 21.8103 10.192 21.8103 8.918C21.8103 7.67 20.7963 6.63 19.5483 6.63C18.3003 6.63 17.2603 7.67 17.2603 8.918C17.2603 10.192 18.3003 11.206 19.5483 11.206ZM17.7023 13.13V26H21.3943V13.13H17.7023ZM24.6919 7.202V26H28.3839V7.202H24.6919ZM31.7322 7.202V26H35.4242V7.202H31.7322ZM46.5465 26.286C49.4585 26.286 52.0325 24.83 53.4105 22.438L52.0585 21.632C50.8885 23.556 48.8085 24.7 46.4945 24.7C42.6725 24.7 39.5785 21.45 39.5785 17.29C39.5785 13.182 42.6985 9.932 46.4945 9.932C48.8085 9.932 50.8885 11.102 52.0585 13.026L53.4105 12.22C52.0325 9.828 49.4585 8.346 46.5465 8.346C41.7885 8.346 37.8625 12.324 37.8625 17.29C37.8625 22.308 41.7885 26.286 46.5465 26.286ZM56.032 7.592V26H57.644V7.592H56.032ZM67.2567 26.26C70.9747 26.26 73.8607 23.296 73.8607 19.656C73.8607 16.068 71.0267 13.104 67.2567 13.104C63.5647 13.104 60.6267 16.042 60.6267 19.656C60.6267 23.296 63.5127 26.26 67.2567 26.26ZM67.2567 24.726C64.4487 24.726 62.2387 22.438 62.2387 19.682C62.2387 16.926 64.4487 14.638 67.2567 14.638C70.0387 14.638 72.2487 16.926 72.2487 19.682C72.2487 22.438 70.0387 24.726 67.2567 24.726ZM82.1972 24.726C79.4672 24.726 77.9332 22.36 77.9332 19.682V13.39H76.3212V19.812C76.3212 23.452 78.5312 26.26 82.1972 26.26C85.9152 26.26 88.1512 23.478 88.1512 19.838V13.39H86.5392V19.656C86.5392 22.36 84.9532 24.726 82.1972 24.726ZM97.2313 26.286C100.949 26.286 103.861 23.4 103.861 19.708V7.592H102.249L102.223 15.808C101.157 14.196 99.2853 13.104 97.1533 13.104C93.4353 13.104 90.6273 15.99 90.6273 19.708C90.6273 23.322 93.4613 26.286 97.2313 26.286ZM97.2313 24.752C94.4493 24.752 92.2393 22.464 92.2393 19.708C92.2393 16.952 94.4493 14.638 97.2313 14.638C100.039 14.638 102.249 16.952 102.249 19.708C102.249 22.464 100.039 24.752 97.2313 24.752Z" fill="#000028"/>
<rect x="114" width="74" height="32" rx="16" fill="#FF4060"/>
<path d="M136.791 14.3636H132.986C132.959 14.0488 132.887 13.7631 132.77 13.5067C132.657 13.2504 132.5 13.0299 132.298 12.8455C132.1 12.6566 131.859 12.5127 131.576 12.4137C131.292 12.3103 130.971 12.2585 130.611 12.2585C129.981 12.2585 129.448 12.4115 129.012 12.7173C128.58 13.0232 128.252 13.4618 128.027 14.033C127.806 14.6043 127.696 15.2902 127.696 16.0909C127.696 16.9366 127.808 17.645 128.033 18.2163C128.263 18.783 128.593 19.2103 129.025 19.4982C129.457 19.7816 129.977 19.9233 130.584 19.9233C130.93 19.9233 131.241 19.8806 131.515 19.7951C131.789 19.7051 132.028 19.5769 132.23 19.4105C132.433 19.2441 132.597 19.0439 132.723 18.81C132.853 18.5716 132.941 18.304 132.986 18.0071L136.791 18.0341C136.746 18.6188 136.582 19.2148 136.299 19.8221C136.015 20.4248 135.613 20.9826 135.091 21.4954C134.574 22.0037 133.933 22.413 133.168 22.7234C132.403 23.0337 131.515 23.1889 130.503 23.1889C129.234 23.1889 128.096 22.9168 127.089 22.3725C126.086 21.8282 125.292 21.0276 124.707 19.9705C124.127 18.9135 123.837 17.6203 123.837 16.0909C123.837 14.5526 124.134 13.2571 124.727 12.2045C125.321 11.1475 126.122 10.3491 127.129 9.8093C128.137 9.26503 129.261 8.9929 130.503 8.9929C131.375 8.9929 132.178 9.1121 132.912 9.3505C133.645 9.5889 134.288 9.9375 134.841 10.3963C135.395 10.8506 135.84 11.4106 136.177 12.0763C136.515 12.7421 136.719 13.5045 136.791 14.3636ZM141.656 23H137.608L142.169 9.18182H147.297L151.858 23H147.809L144.787 12.9872H144.679L141.656 23ZM140.9 17.5483H148.511V20.3551H140.9V17.5483ZM153.188 23V9.18182H159.153C160.179 9.18182 161.076 9.36849 161.845 9.74183C162.614 10.1152 163.213 10.6527 163.64 11.3544C164.067 12.0561 164.281 12.8973 164.281 13.8778C164.281 14.8674 164.06 15.7018 163.62 16.381C163.183 17.0603 162.569 17.573 161.778 17.9194C160.99 18.2657 160.071 18.4389 159.018 18.4389H155.456V15.5241H158.262C158.703 15.5241 159.079 15.4702 159.389 15.3622C159.704 15.2498 159.945 15.0721 160.111 14.8292C160.282 14.5863 160.367 14.2692 160.367 13.8778C160.367 13.482 160.282 13.1604 160.111 12.913C159.945 12.6611 159.704 12.4767 159.389 12.3597C159.079 12.2383 158.703 12.1776 158.262 12.1776H156.94V23H153.188ZM161.285 16.6577L164.74 23H160.664L157.291 16.6577H161.285ZM165.502 12.2045V9.18182H177.512V12.2045H173.356V23H169.658V12.2045H165.502Z" fill="white"/>
<path d="M195.905 7.22727L193.817 2H194.974L196.274 5.4517L197.567 2H198.724L196.643 7.22727H195.905ZM193.412 7.22727V2H194.726V7.22727H193.412ZM197.815 7.22727V2H199.136V7.22727H197.815ZM189.591 7.22727V2.45455H190.912V7.22727H189.591ZM188 3.08665V2H192.503V3.08665H188Z" fill="#000028"/>
</svg>
