<svg width="212" height="36" viewBox="0 0 212 36" fill="none" xmlns="http://www.w3.org/2000/svg">
<path d="M8.52659 26.3639C12.5046 26.3639 15.4946 23.2959 15.4946 19.5779C15.4946 15.5739 12.7386 12.7659 8.73459 12.7659C7.43459 12.7659 6.21259 13.2339 5.25059 13.9619V7.20188H1.55859V19.5779C1.55859 23.4779 4.52259 26.3639 8.52659 26.3639ZM8.52659 22.8799C6.62859 22.8799 5.25059 21.3979 5.25059 19.5779C5.25059 17.7579 6.62859 16.2499 8.52659 16.2499C10.4246 16.2499 11.8026 17.7579 11.8026 19.5779C11.8026 21.3979 10.4246 22.8799 8.52659 22.8799Z" fill="#000028"/>
<path d="M19.5469 11.2059C20.7949 11.2059 21.8089 10.1919 21.8089 8.91788C21.8089 7.66988 20.7949 6.62988 19.5469 6.62988C18.2989 6.62988 17.2589 7.66988 17.2589 8.91788C17.2589 10.1919 18.2989 11.2059 19.5469 11.2059ZM17.7009 13.1299V25.9999H21.3929V13.1299H17.7009Z" fill="#000028"/>
<path d="M24.6905 7.20188V25.9999H28.3825V7.20188H24.6905Z" fill="#000028"/>
<path d="M31.7308 7.20188V25.9999H35.4228V7.20188H31.7308Z" fill="#000028"/>
<path d="M46.5451 26.2859C49.4571 26.2859 52.0311 24.8299 53.4091 22.4379L52.0571 21.6319C50.8871 23.5559 48.8071 24.6999 46.4931 24.6999C42.6711 24.6999 39.5771 21.4499 39.5771 17.2899C39.5771 13.1819 42.6971 9.93188 46.4931 9.93188C48.8071 9.93188 50.8871 11.1019 52.0571 13.0259L53.4091 12.2199C52.0311 9.82788 49.4571 8.34588 46.5451 8.34588C41.7871 8.34588 37.8611 12.3239 37.8611 17.2899C37.8611 22.3079 41.7871 26.2859 46.5451 26.2859Z" fill="#000028"/>
<path d="M56.0306 7.59188V25.9999H57.6426V7.59188H56.0306Z" fill="#000028"/>
<path d="M67.2553 26.2599C70.9733 26.2599 73.8593 23.2959 73.8593 19.6559C73.8593 16.0679 71.0253 13.1039 67.2553 13.1039C63.5633 13.1039 60.6253 16.0419 60.6253 19.6559C60.6253 23.2959 63.5113 26.2599 67.2553 26.2599ZM67.2553 24.7259C64.4473 24.7259 62.2373 22.4379 62.2373 19.6819C62.2373 16.9259 64.4473 14.6379 67.2553 14.6379C70.0373 14.6379 72.2473 16.9259 72.2473 19.6819C72.2473 22.4379 70.0373 24.7259 67.2553 24.7259Z" fill="#000028"/>
<path d="M82.1958 24.7259C79.4658 24.7259 77.9318 22.3599 77.9318 19.6819V13.3899H76.3198V19.8119C76.3198 23.4519 78.5298 26.2599 82.1958 26.2599C85.9138 26.2599 88.1498 23.4779 88.1498 19.8379V13.3899H86.5378V19.6559C86.5378 22.3599 84.9518 24.7259 82.1958 24.7259Z" fill="#000028"/>
<path d="M97.2299 26.2859C100.948 26.2859 103.86 23.3999 103.86 19.7079V7.59188H102.248L102.222 15.8079C101.156 14.1959 99.2839 13.1039 97.1519 13.1039C93.4339 13.1039 90.6259 15.9899 90.6259 19.7079C90.6259 23.3219 93.4599 26.2859 97.2299 26.2859ZM97.2299 24.7519C94.4479 24.7519 92.2379 22.4639 92.2379 19.7079C92.2379 16.9519 94.4479 14.6379 97.2299 14.6379C100.038 14.6379 102.248 16.9519 102.248 19.7079C102.248 22.4639 100.038 24.7519 97.2299 24.7519Z" fill="#000028"/>
<path d="M113.919 7.20188V25.9999H117.611V7.20188H113.919Z" fill="#FF4060"/>
<path d="M126.758 26.3379C130.71 26.3379 133.752 23.2699 133.752 19.5259C133.752 15.8339 130.736 12.7399 126.758 12.7399C122.832 12.7399 119.79 15.8079 119.79 19.5259C119.79 23.2699 122.806 26.3379 126.758 26.3379ZM126.758 22.8799C124.86 22.8799 123.482 21.3719 123.482 19.5519C123.482 17.7319 124.86 16.2239 126.758 16.2239C128.656 16.2239 130.06 17.7319 130.06 19.5519C130.06 21.3719 128.656 22.8799 126.758 22.8799Z" fill="#FF4060"/>
<path d="M141.641 32.2919C145.879 32.2919 148.765 29.3539 148.765 24.8559V13.1299H145.021V19.4479C145.021 21.2939 143.773 22.6719 142.109 22.6719C140.289 22.6719 139.275 21.3979 139.275 19.5259V13.1299H135.635V19.6559C135.635 23.4779 137.455 26.1559 141.641 26.1559C143.227 26.1559 144.371 25.5839 145.073 24.5439V24.9079C145.073 27.2999 143.799 28.9119 141.589 28.9119C139.925 28.9119 138.781 28.0539 138.209 26.9359L135.167 28.5999C136.337 30.9919 138.573 32.2919 141.641 32.2919Z" fill="#FF4060"/>
<path d="M157.176 26.3379C158.944 26.3379 160.348 25.6359 161.258 24.4919V25.9999H164.768V19.5259C164.768 15.6519 161.804 12.7399 157.774 12.7399C153.822 12.7399 150.806 15.8339 150.806 19.5259C150.806 23.2699 153.432 26.3379 157.176 26.3379ZM157.774 22.8799C155.876 22.8799 154.498 21.3719 154.498 19.5519C154.498 17.7319 155.876 16.2239 157.774 16.2239C159.672 16.2239 161.076 17.7319 161.076 19.5519C161.076 21.3719 159.672 22.8799 157.774 22.8799Z" fill="#FF4060"/>
<path d="M167.598 7.20188V25.9999H171.29V7.20188H167.598Z" fill="#FF4060"/>
<path d="M179.162 26.3639C182.1 26.3639 184.622 24.6999 184.622 22.0999C184.622 17.2639 177.55 18.9279 177.55 16.8479C177.55 16.1719 178.226 15.7299 179.136 15.7299C180.176 15.7299 181.112 16.1719 181.528 17.1079L184.258 15.5739C183.478 14.0919 181.814 12.7919 179.058 12.7919C175.886 12.7919 173.858 14.6119 173.858 16.9259C173.858 21.8919 180.93 20.0979 180.93 22.1779C180.93 22.9319 180.176 23.3999 178.98 23.3999C177.68 23.3999 176.822 22.9579 176.276 21.9179L173.546 23.4519C174.612 25.3759 176.484 26.3639 179.162 26.3639Z" fill="#FF4060"/>
<path d="M198.611 2.93808C199.116 1.68633 200.888 1.68633 201.393 2.93808L203.33 7.7402C203.401 7.91563 203.565 8.0361 203.753 8.05148L208.619 8.44854C209.939 8.5562 210.482 10.1956 209.488 11.0699L205.795 14.3176C205.659 14.4378 205.598 14.6227 205.637 14.8005L206.818 20.1675C207.113 21.5082 205.601 22.5079 204.483 21.7117L200.292 18.7274C200.118 18.6038 199.885 18.6038 199.712 18.7274L195.52 21.7117C194.402 22.5079 192.89 21.5082 193.185 20.1675L194.366 14.8005C194.405 14.6227 194.345 14.4378 194.208 14.3176L190.515 11.0699C189.521 10.1957 190.065 8.5562 191.384 8.44854L196.25 8.05148C196.439 8.0361 196.603 7.91563 196.673 7.7402L198.611 2.93808Z" fill="#FF4060"/>
</svg>
