<svg width="152" height="40" viewBox="0 0 152 40" fill="none" xmlns="http://www.w3.org/2000/svg">
<path d="M51.6974 8.83658C51.7246 9.26761 51.6648 9.69972 51.5214 10.1074C51.378 10.515 51.1539 10.8899 50.8624 11.21C50.3451 11.7284 49.6844 12.0818 48.9644 12.2254C48.2445 12.3689 47.4978 12.296 46.8197 12.016C46.1415 11.736 45.5625 11.2615 45.1563 10.653C44.7502 10.0445 44.5354 9.32953 44.5392 8.59915C44.5349 8.11486 44.6277 7.63457 44.8121 7.18632C44.9964 6.73807 45.2687 6.33083 45.613 5.98838C45.9572 5.64592 46.3666 5.37509 46.8173 5.19171C47.2679 5.00833 47.7508 4.91606 48.2376 4.92029C48.7362 4.92548 49.2265 5.04734 49.6689 5.27601C50.0946 5.45311 50.4652 5.73979 50.7426 6.10658L50.1463 6.69972C49.9205 6.41685 49.6284 6.19327 49.2957 6.04849C48.963 5.90371 48.5998 5.84214 48.2376 5.86915C47.8769 5.85412 47.5175 5.92112 47.1868 6.06505C46.8561 6.20897 46.5627 6.42603 46.329 6.69972C46.0422 6.94874 45.8175 7.26062 45.6726 7.61077C45.5277 7.96092 45.4665 8.33976 45.494 8.71743C45.4665 9.09511 45.5277 9.47395 45.6726 9.8241C45.8175 10.1743 46.0422 10.4861 46.329 10.7351C46.8485 11.2247 47.5236 11.5185 48.2376 11.5657C48.616 11.5816 48.9934 11.5155 49.3436 11.3721C49.6938 11.2287 50.0086 11.0114 50.2661 10.7351C50.4568 10.5501 50.608 10.3286 50.7105 10.0839C50.813 9.83923 50.8646 9.57648 50.8624 9.31143H48.2376V8.36172H51.6974V8.83658ZM57.1847 5.87001H53.9636V8.12429H56.9477V8.95486H53.9636V11.2091H57.1847V12.1589H53.0089V5.03858H57.1838L57.1847 5.87001ZM61.1218 12.1589H60.167V5.87001H58.1386V5.03858H63.152V5.86915H61.1209L61.1218 12.1589ZM66.6091 12.1589V5.03858H67.5639V12.158L66.6091 12.1589ZM71.6199 12.1589H70.6651V5.87001H68.6367V5.03858H73.5277V5.86915H71.5001V12.158L71.6199 12.1589ZM82.953 11.2091C82.4357 11.7272 81.775 12.0804 81.0552 12.2238C80.3354 12.3672 79.589 12.2942 78.911 12.0142C78.233 11.7342 77.6541 11.2599 77.2481 10.6516C76.842 10.0433 76.6271 9.3285 76.6307 8.59829C76.6232 8.11051 76.7133 7.62612 76.8958 7.1733C77.0783 6.72049 77.3495 6.3083 77.6936 5.96072C78.0378 5.61315 78.448 5.33712 78.9003 5.14871C79.3527 4.96031 79.8383 4.86328 80.3287 4.86328C80.8191 4.86328 81.3047 4.96031 81.7571 5.14871C82.2094 5.33712 82.6196 5.61315 82.9638 5.96072C83.3079 6.3083 83.5791 6.72049 83.7616 7.1733C83.9441 7.62612 84.0342 8.11051 84.0267 8.59829C84.0402 9.08391 83.9516 9.56697 83.7665 10.0166C83.5815 10.4661 83.305 10.8723 82.953 11.2091ZM78.4196 10.616C78.9256 11.1255 79.6087 11.4227 80.3283 11.4466C80.689 11.4616 81.0484 11.3946 81.3791 11.2507C81.7098 11.1068 82.0032 10.8897 82.2369 10.616C82.7721 10.0794 83.0723 9.35413 83.0719 8.59829C83.0994 8.22062 83.0382 7.84177 82.8933 7.49162C82.7484 7.14147 82.5237 6.8296 82.2369 6.58058C81.7309 6.07112 81.0479 5.77389 80.3283 5.75001C79.9676 5.73498 79.6082 5.80198 79.2775 5.9459C78.9467 6.08983 78.6533 6.30689 78.4196 6.58058C77.8844 7.11713 77.5843 7.84245 77.5846 8.59829C77.5571 8.97589 77.6181 9.3547 77.7628 9.70484C77.9076 10.055 78.133 10.3669 78.4196 10.616ZM85.3391 12.1589V5.03858H86.4128L89.8725 10.616V5.03858H90.8273V12.158H89.8716L86.1732 6.34401V12.1589H85.3391Z" fill="#CFCFD5" stroke="#CFCFD5" stroke-width="0.2" stroke-miterlimit="10"/>
<path d="M75.6549 22.6013C74.9771 22.5862 74.3032 22.7079 73.674 22.9589C73.0448 23.21 72.4732 23.5853 71.9938 24.0622C71.5144 24.539 71.1371 25.1076 70.8847 25.7335C70.6323 26.3594 70.51 27.0297 70.5252 27.7039C70.5201 28.3754 70.6494 29.0411 70.9054 29.6625C71.1614 30.2838 71.539 30.8483 72.0164 31.3231C72.4937 31.798 73.0612 32.1736 73.6859 32.4283C74.3105 32.6829 74.9798 32.8115 75.6549 32.8065C76.3327 32.8216 77.0065 32.6999 77.6358 32.4488C78.265 32.1977 78.8366 31.8224 79.316 31.3456C79.7954 30.8687 80.1726 30.3002 80.4251 29.6743C80.6775 29.0484 80.7998 28.3781 80.7846 27.7039C80.8098 27.0271 80.6944 26.3523 80.4456 25.7219C80.1967 25.0915 79.8198 24.5189 79.3383 24.04C78.8568 23.561 78.2812 23.1861 77.6474 22.9385C77.0136 22.691 76.3353 22.5762 75.6549 22.6013ZM75.6549 30.6705C75.2621 30.6581 74.8758 30.568 74.5184 30.4056C74.161 30.2432 73.8397 30.0116 73.5732 29.7244C73.3067 29.4372 73.1003 29.1001 72.9661 28.7327C72.8319 28.3654 72.7725 27.9751 72.7914 27.5847C72.7725 27.1943 72.8319 26.8041 72.9661 26.4367C73.1003 26.0694 73.3067 25.7323 73.5732 25.4451C73.8397 25.1579 74.161 24.9263 74.5184 24.7639C74.8758 24.6015 75.2621 24.5114 75.6549 24.499C76.0507 24.5016 76.4417 24.585 76.8038 24.7441C77.1659 24.9032 77.4912 25.1346 77.7597 25.4239C78.0281 25.7132 78.234 26.0543 78.3645 26.426C78.495 26.7977 78.5474 27.1921 78.5183 27.5847C78.5373 27.9751 78.4779 28.3654 78.3437 28.7327C78.2095 29.1001 78.0031 29.4372 77.7366 29.7244C77.4701 30.0116 77.1488 30.2432 76.7914 30.4056C76.4339 30.568 76.0476 30.6581 75.6549 30.6705ZM64.557 22.6013C63.8792 22.5862 63.2054 22.7079 62.5761 22.9589C61.9469 23.21 61.3753 23.5853 60.8959 24.0622C60.4165 24.539 60.0393 25.1076 59.7868 25.7335C59.5344 26.3594 59.4121 27.0297 59.4273 27.7039C59.4223 28.3754 59.5515 29.0411 59.8075 29.6625C60.0635 30.2838 60.4412 30.8483 60.9185 31.3231C61.3959 31.798 61.9634 32.1736 62.588 32.4283C63.2127 32.6829 63.882 32.8115 64.557 32.8065C65.2348 32.8216 65.9087 32.6999 66.5379 32.4488C67.1671 32.1977 67.7387 31.8224 68.2181 31.3456C68.6975 30.8687 69.0748 30.3002 69.3272 29.6743C69.5796 29.0484 69.7019 28.3781 69.6867 27.7039C69.712 27.0271 69.5966 26.3523 69.3477 25.7219C69.0988 25.0915 68.7219 24.5189 68.2404 24.04C67.759 23.561 67.1833 23.1861 66.5495 22.9385C65.9158 22.691 65.2374 22.5762 64.557 22.6013ZM64.557 30.6705C64.1643 30.6581 63.778 30.568 63.4205 30.4056C63.0631 30.2432 62.7418 30.0116 62.4753 29.7244C62.2088 29.4372 62.0024 29.1001 61.8682 28.7327C61.734 28.3654 61.6746 27.9751 61.6936 27.5847C61.6746 27.1943 61.734 26.8041 61.8682 26.4367C62.0024 26.0694 62.2088 25.7323 62.4753 25.4451C62.7418 25.1579 63.0631 24.9263 63.4205 24.7639C63.778 24.6015 64.1643 24.5114 64.557 24.499C64.9528 24.5016 65.3439 24.585 65.7059 24.7441C66.068 24.9032 66.3933 25.1346 66.6618 25.4239C66.9303 25.7132 67.1361 26.0543 67.2666 26.426C67.3971 26.7977 67.4495 27.1921 67.4205 27.5847C67.4394 27.9751 67.38 28.3654 67.2458 28.7327C67.1116 29.1001 66.9052 29.4372 66.6387 29.7244C66.3722 30.0116 66.0509 30.2432 65.6935 30.4056C65.3361 30.568 64.9498 30.6581 64.557 30.6705ZM51.3187 24.1433V26.281H56.4484C56.3745 27.2992 55.9539 28.2619 55.2558 29.0102C54.742 29.5235 54.127 29.9255 53.4494 30.191C52.7719 30.4566 52.0464 30.5798 51.3187 30.553C50.5702 30.5604 49.8279 30.4173 49.1364 30.1321C48.4449 29.847 47.8185 29.4258 47.2948 28.8938C46.7711 28.3618 46.3609 27.73 46.0888 27.0364C45.8168 26.3427 45.6884 25.6015 45.7116 24.8573C45.6986 24.1157 45.8338 23.3789 46.1095 22.6898C46.3852 22.0006 46.7958 21.3729 47.3175 20.8429C47.8392 20.313 48.4616 19.8915 49.1485 19.6028C49.8353 19.3142 50.573 19.1642 51.3187 19.1616C52.7774 19.1753 54.1796 19.7248 55.2558 20.7045L56.8069 19.1616C55.3676 17.7779 53.4401 17.011 51.4385 17.0256C49.3437 17.0392 47.3368 17.8647 45.8442 19.3268C44.3516 20.7889 43.491 22.7723 43.4453 24.8556C43.4906 26.9392 44.351 28.923 45.8436 30.3855C47.3362 31.848 49.3434 32.6737 51.4385 32.6873C52.4644 32.744 53.4901 32.5709 54.4398 32.1807C55.3895 31.7905 56.239 31.1933 56.9258 30.433C58.1851 29.079 58.869 27.293 58.8345 25.4487C58.8598 25.0101 58.8197 24.5702 58.7155 24.1433H51.3187ZM105.478 25.8045C105.185 24.8931 104.614 24.0951 103.845 23.521C103.075 22.9469 102.145 22.6252 101.184 22.6005C98.5589 22.6005 96.4116 24.6182 96.4116 27.703C96.3932 28.3681 96.5094 29.0301 96.7532 29.6496C96.997 30.2692 97.3635 30.8337 97.8309 31.3096C98.2982 31.7856 98.857 32.1632 99.474 32.4202C100.091 32.6772 100.754 32.8083 101.422 32.8056C102.253 32.8134 103.073 32.6106 103.803 32.2162C104.534 31.8218 105.151 31.2488 105.597 30.5513L103.928 29.3667C103.671 29.8004 103.305 30.1598 102.866 30.4095C102.426 30.6592 101.929 30.7905 101.423 30.7905C100.897 30.8176 100.376 30.6845 99.9281 30.4087C99.4805 30.133 99.1282 29.7279 98.9183 29.2476L105.718 26.3993L105.478 25.8045ZM98.5589 27.4656C98.5342 26.7316 98.792 26.0158 99.2798 25.4645C99.7676 24.9132 100.449 24.5678 101.184 24.499C101.57 24.4863 101.952 24.5792 102.288 24.7675C102.625 24.9558 102.903 25.2323 103.092 25.567L98.5589 27.4656ZM92.9518 32.3307H95.2181V17.4987H92.9518V32.3307ZM89.374 23.6693C88.6526 22.9293 87.6665 22.5029 86.6304 22.483C85.3114 22.5433 84.0667 23.1075 83.1555 24.058C82.2444 25.0086 81.7371 26.2722 81.7394 27.5856C81.7299 28.2327 81.8491 28.8754 82.0901 29.4766C82.331 30.0777 82.689 30.6257 83.1435 31.0888C83.598 31.552 84.14 31.9212 84.7384 32.1754C85.3368 32.4296 85.9798 32.5636 86.6304 32.5699C87.1283 32.5738 87.621 32.4697 88.0743 32.2648C88.5276 32.0599 88.9306 31.7592 89.2551 31.3836H89.374V32.0959C89.374 33.9944 88.3004 35.0625 86.6304 35.0625C86.0785 35.062 85.5405 34.8903 85.0914 34.5711C84.6424 34.252 84.3047 33.8014 84.1254 33.2822L82.2167 34.1127C82.5965 34.995 83.2287 35.7467 84.0345 36.2745C84.8404 36.8022 85.7845 37.0827 86.7493 37.081C89.374 37.081 91.5214 35.5382 91.5214 31.8602V22.8387H89.374V23.6693ZM86.7493 30.6705C86.3566 30.6581 85.9702 30.568 85.6128 30.4056C85.2554 30.2432 84.9341 30.0116 84.6676 29.7244C84.4011 29.4372 84.1947 29.1001 84.0605 28.7327C83.9263 28.3654 83.8669 27.9751 83.8859 27.5847C83.8669 27.1943 83.9263 26.8041 84.0605 26.4367C84.1947 26.0694 84.4011 25.7323 84.6676 25.4451C84.9341 25.1579 85.2554 24.9263 85.6128 24.7639C85.9702 24.6015 86.3566 24.5114 86.7493 24.499C87.1358 24.5147 87.5151 24.608 87.8644 24.7731C88.2138 24.9383 88.526 25.172 88.7822 25.4603C89.0385 25.7485 89.2336 26.0852 89.3557 26.4503C89.4778 26.8154 89.5245 27.2013 89.493 27.5847C89.5245 27.9682 89.4778 28.3541 89.3557 28.7192C89.2336 29.0843 89.0385 29.421 88.7822 29.7092C88.526 29.9974 88.2138 30.2312 87.8644 30.3963C87.5151 30.5615 87.1358 30.6548 86.7493 30.6705ZM115.858 17.4987H110.486V32.3316H112.752V26.7542H115.854C116.484 26.7837 117.113 26.6859 117.703 26.4666C118.293 26.2473 118.833 25.9111 119.289 25.4784C119.745 25.0457 120.108 24.5254 120.356 23.9491C120.604 23.3728 120.732 22.7525 120.732 22.1256C120.732 21.4987 120.604 20.8783 120.356 20.302C120.108 19.7257 119.745 19.2055 119.289 18.7728C118.833 18.3401 118.293 18.0039 117.703 17.7846C117.113 17.5653 116.484 17.4675 115.854 17.497L115.858 17.4987ZM115.977 24.6182H112.755V19.5156H115.977C116.653 19.5138 117.303 19.7721 117.793 20.2365C118.282 20.7009 118.571 21.3354 118.601 22.0073C118.575 22.6915 118.29 23.3406 117.804 23.8248C117.317 24.3089 116.664 24.5923 115.977 24.6182ZM129.696 22.4822C128.887 22.4177 128.078 22.5987 127.375 23.0012C126.672 23.4036 126.109 24.0087 125.759 24.7365L127.787 25.567C127.985 25.2132 128.282 24.924 128.642 24.7344C129.002 24.5449 129.409 24.4631 129.815 24.499C130.38 24.4564 130.941 24.6286 131.383 24.9809C131.826 25.3333 132.118 25.8395 132.201 26.3976V26.5159C131.507 26.1323 130.728 25.9283 129.934 25.9227C127.787 25.9227 125.64 27.109 125.64 29.245C125.659 29.706 125.771 30.1584 125.969 30.5759C126.166 30.9935 126.445 31.3678 126.789 31.677C127.133 31.9862 127.536 32.2242 127.974 32.377C128.411 32.5299 128.875 32.5946 129.338 32.5673C129.897 32.5856 130.451 32.465 130.951 32.2164C131.451 31.9678 131.881 31.5991 132.201 31.1436H132.32V32.3299H134.468V26.6359C134.381 25.4586 133.831 24.3627 132.938 23.5853C132.045 22.8079 130.88 22.4116 129.696 22.4822ZM129.457 30.6696C128.741 30.6696 127.667 30.3139 127.667 29.3642C127.667 28.1779 128.98 27.8213 130.053 27.8213C130.757 27.8236 131.451 27.9861 132.082 28.2962C131.991 28.9342 131.679 29.5208 131.2 29.9543C130.721 30.3879 130.104 30.6412 129.457 30.6705V30.6696ZM141.983 22.8379L139.478 29.2459H139.359L136.734 22.8379H134.348L138.285 31.8567L136.019 36.841H138.285L144.369 22.8387L141.983 22.8379ZM121.942 32.3316H124.208V17.4987H121.942V32.3316Z" fill="#CFCFD5"/>
<path d="M6.59107 4.4873C6.17749 4.97354 5.96744 5.59842 6.0041 6.23348V33.7505C5.96744 34.3856 6.17749 35.0105 6.59107 35.4967L22.2315 20.1654V19.8017L6.59107 4.4873Z" fill="#E8E8EB"/>
<path d="M27.4065 25.3123L22.2344 20.1656V19.802L27.4245 14.6553L27.5341 14.7284L33.6779 18.1841C35.4388 19.1646 35.4388 20.7851 33.6779 21.7852L27.5341 25.241L27.4065 25.3123Z" fill="#E3E3E6"/>
<path d="M27.5336 25.2414L22.2302 19.9824L6.58984 35.492C6.94647 35.8059 7.40316 35.9853 7.87981 35.9986C8.35646 36.012 8.82263 35.8585 9.19657 35.5651L27.5336 25.2414Z" fill="#CFCFD5"/>
<path d="M27.5336 14.7453L9.19657 4.41534C8.11792 3.81546 7.16063 3.88766 6.58984 4.48844L22.2302 19.998L27.5336 14.7453Z" fill="#D7D7DB"/>
</svg>
