<svg width="98" height="34" viewBox="0 0 98 34" fill="none" xmlns="http://www.w3.org/2000/svg">
<path d="M5.98125 24.3591C5.20792 24.3591 4.50125 24.2191 3.86125 23.9391C3.23458 23.6591 2.68792 23.2725 2.22125 22.7791C1.75458 22.2725 1.39458 21.6791 1.14125 20.9991C0.90125 20.3191 0.78125 19.5858 0.78125 18.7991V18.3391C0.78125 17.5525 0.894583 16.8191 1.12125 16.1391C1.36125 15.4591 1.70125 14.8658 2.14125 14.3591C2.59458 13.8391 3.13458 13.4391 3.76125 13.1591C4.38792 12.8658 5.08792 12.7191 5.86125 12.7191C6.74125 12.7191 7.50125 12.9125 8.14125 13.2991C8.78125 13.6725 9.28125 14.2325 9.64125 14.9791C10.0013 15.7125 10.2012 16.6191 10.2413 17.6991L9.40125 16.9191V9.39914H12.6213V23.9991H10.0813V19.4591H10.5213C10.4813 20.4991 10.2613 21.3858 9.86125 22.1191C9.47458 22.8525 8.94792 23.4125 8.28125 23.7991C7.61458 24.1725 6.84792 24.3591 5.98125 24.3591ZM6.78125 21.6791C7.27458 21.6791 7.72125 21.5725 8.12125 21.3591C8.53458 21.1325 8.86125 20.8058 9.10125 20.3791C9.35458 19.9525 9.48125 19.4391 9.48125 18.8391V18.0991C9.48125 17.5125 9.35458 17.0191 9.10125 16.6191C8.84792 16.2191 8.51458 15.9125 8.10125 15.6991C7.68792 15.4858 7.24125 15.3791 6.76125 15.3791C6.22792 15.3791 5.74792 15.5191 5.32125 15.7991C4.90792 16.0658 4.58125 16.4391 4.34125 16.9191C4.10125 17.3858 3.98125 17.9325 3.98125 18.5591C3.98125 19.1991 4.10125 19.7525 4.34125 20.2191C4.58125 20.6858 4.91458 21.0458 5.34125 21.2991C5.76792 21.5525 6.24792 21.6791 6.78125 21.6791Z" fill="white"/>
<path d="M15.0437 23.9991V13.0391H18.2437V23.9991H15.0437ZM13.5837 15.3991V13.0391H18.2437V15.3991H13.5837ZM16.2838 11.9591C15.6838 11.9591 15.2371 11.8058 14.9438 11.4991C14.6638 11.1791 14.5238 10.7791 14.5238 10.2991C14.5238 9.80581 14.6638 9.40581 14.9438 9.09914C15.2371 8.77914 15.6838 8.61914 16.2838 8.61914C16.8838 8.61914 17.3238 8.77914 17.6038 9.09914C17.8971 9.40581 18.0438 9.80581 18.0438 10.2991C18.0438 10.7791 17.8971 11.1791 17.6038 11.4991C17.3238 11.8058 16.8838 11.9591 16.2838 11.9591Z" fill="white"/>
<path d="M20.2034 23.9991V13.0391H22.7434V17.7391H22.5634C22.5634 16.6191 22.7034 15.6858 22.9834 14.9391C23.2768 14.1925 23.7168 13.6325 24.3034 13.2591C24.8901 12.8858 25.6034 12.6991 26.4434 12.6991H26.5834C27.8634 12.6991 28.8368 13.1191 29.5034 13.9591C30.1834 14.7858 30.5234 16.0458 30.5234 17.7391V23.9991H27.3234V17.5591C27.3234 16.9725 27.1501 16.4925 26.8034 16.1191C26.4568 15.7458 25.9901 15.5591 25.4034 15.5591C24.8034 15.5591 24.3168 15.7525 23.9434 16.1391C23.5834 16.5125 23.4034 17.0058 23.4034 17.6191V23.9991H20.2034Z" fill="white"/>
<path d="M37.2703 24.3791C36.337 24.3791 35.5103 24.2191 34.7903 23.8991C34.0836 23.5791 33.4903 23.1525 33.0103 22.6191C32.5436 22.0725 32.1836 21.4658 31.9303 20.7991C31.6903 20.1191 31.5703 19.4258 31.5703 18.7191V18.3191C31.5703 17.5858 31.6903 16.8858 31.9303 16.2191C32.1836 15.5391 32.5436 14.9325 33.0103 14.3991C33.477 13.8658 34.057 13.4458 34.7503 13.1391C35.457 12.8191 36.257 12.6591 37.1503 12.6591C38.3236 12.6591 39.3103 12.9258 40.1103 13.4591C40.9236 13.9791 41.5436 14.6658 41.9703 15.5191C42.397 16.3591 42.6103 17.2791 42.6103 18.2791V19.3591H32.9103V17.5391H40.6703L39.6303 18.3791C39.6303 17.7258 39.537 17.1658 39.3503 16.6991C39.1636 16.2325 38.8836 15.8791 38.5103 15.6391C38.1503 15.3858 37.697 15.2591 37.1503 15.2591C36.5903 15.2591 36.117 15.3858 35.7303 15.6391C35.3436 15.8925 35.0503 16.2658 34.8503 16.7591C34.6503 17.2391 34.5503 17.8325 34.5503 18.5391C34.5503 19.1925 34.6436 19.7658 34.8303 20.2591C35.017 20.7391 35.3103 21.1125 35.7103 21.3791C36.1103 21.6458 36.6303 21.7791 37.2703 21.7791C37.857 21.7791 38.337 21.6658 38.7103 21.4391C39.0836 21.2125 39.337 20.9325 39.4703 20.5991H42.4103C42.2503 21.3325 41.937 21.9858 41.4703 22.5591C41.0036 23.1325 40.417 23.5791 39.7103 23.8991C39.0036 24.2191 38.1903 24.3791 37.2703 24.3791Z" fill="white"/>
<path d="M50.7708 24.3391C49.4641 24.3391 48.3441 24.1125 47.4108 23.6591C46.4908 23.1925 45.7374 22.5858 45.1508 21.8391C44.5774 21.0925 44.1574 20.2858 43.8908 19.4191C43.6241 18.5391 43.4908 17.6858 43.4908 16.8591V16.4791C43.4908 15.5858 43.6241 14.6991 43.8908 13.8191C44.1708 12.9258 44.5974 12.1191 45.1708 11.3991C45.7574 10.6791 46.5041 10.1058 47.4108 9.67914C48.3174 9.23914 49.3908 9.01914 50.6308 9.01914C51.8841 9.01914 52.9641 9.23914 53.8708 9.67914C54.7908 10.1191 55.5241 10.7391 56.0708 11.5391C56.6174 12.3258 56.9508 13.2591 57.0708 14.3391H55.5308C55.4241 13.4725 55.1441 12.7525 54.6908 12.1791C54.2374 11.5925 53.6574 11.1525 52.9508 10.8591C52.2574 10.5658 51.4841 10.4191 50.6308 10.4191C49.7108 10.4191 48.8974 10.5858 48.1908 10.9191C47.4974 11.2391 46.9174 11.6925 46.4508 12.2791C45.9841 12.8525 45.6308 13.5191 45.3908 14.2791C45.1508 15.0258 45.0308 15.8258 45.0308 16.6791C45.0308 17.4925 45.1441 18.2725 45.3708 19.0191C45.6108 19.7658 45.9708 20.4391 46.4508 21.0391C46.9308 21.6258 47.5308 22.0925 48.2508 22.4391C48.9708 22.7725 49.8108 22.9391 50.7708 22.9391C52.1041 22.9391 53.2241 22.6058 54.1308 21.9391C55.0374 21.2591 55.5974 20.2858 55.8108 19.0191H57.3508C57.2041 20.0191 56.8575 20.9258 56.3108 21.7391C55.7641 22.5391 55.0241 23.1725 54.0908 23.6391C53.1708 24.1058 52.0641 24.3391 50.7708 24.3391Z" fill="white"/>
<path d="M59.1897 23.9991V9.39914H60.6897V23.9991H59.1897ZM57.6497 10.6191V9.39914H60.6897V10.6191H57.6497Z" fill="white"/>
<path d="M68.318 24.3391C67.4113 24.3391 66.6113 24.1858 65.918 23.8791C65.238 23.5591 64.658 23.1391 64.178 22.6191C63.7113 22.0858 63.3513 21.4925 63.098 20.8391C62.858 20.1858 62.738 19.5191 62.738 18.8391V18.5591C62.738 17.8791 62.8646 17.2125 63.118 16.5591C63.3713 15.8925 63.738 15.2991 64.218 14.7791C64.698 14.2591 65.278 13.8458 65.958 13.5391C66.6513 13.2191 67.438 13.0591 68.318 13.0591C69.2113 13.0591 69.998 13.2191 70.678 13.5391C71.3713 13.8458 71.958 14.2591 72.438 14.7791C72.918 15.2991 73.278 15.8925 73.518 16.5591C73.7713 17.2125 73.898 17.8791 73.898 18.5591V18.8391C73.898 19.5191 73.778 20.1858 73.538 20.8391C73.298 21.4925 72.938 22.0858 72.458 22.6191C71.9913 23.1391 71.4113 23.5591 70.718 23.8791C70.0246 24.1858 69.2246 24.3391 68.318 24.3391ZM68.318 22.9991C69.198 22.9991 69.938 22.8058 70.538 22.4191C71.1513 22.0191 71.618 21.4991 71.938 20.8591C72.258 20.2058 72.418 19.4858 72.418 18.6991C72.418 17.8991 72.2513 17.1791 71.918 16.5391C71.598 15.8858 71.1313 15.3725 70.518 14.9991C69.9046 14.6125 69.1713 14.4191 68.318 14.4191C67.478 14.4191 66.7513 14.6125 66.138 14.9991C65.5246 15.3725 65.0513 15.8858 64.718 16.5391C64.398 17.1791 64.238 17.8991 64.238 18.6991C64.238 19.4858 64.398 20.2058 64.718 20.8591C65.038 21.4991 65.498 22.0191 66.098 22.4191C66.7113 22.8058 67.4513 22.9991 68.318 22.9991Z" fill="white"/>
<path d="M79.6169 24.2991C78.3502 24.2991 77.3835 23.8925 76.7169 23.0791C76.0502 22.2525 75.7169 21.1058 75.7169 19.6391V13.3991H77.1969V19.9391C77.1969 20.8591 77.4369 21.5925 77.9169 22.1391C78.4102 22.6725 79.0902 22.9391 79.9569 22.9391C80.8635 22.9391 81.5835 22.6525 82.1169 22.0791C82.6635 21.5058 82.9369 20.7391 82.9369 19.7791V13.3991H84.4369V23.9991H83.2369V19.5791H83.4769C83.4769 20.5658 83.3369 21.4125 83.0569 22.1191C82.7769 22.8125 82.3569 23.3525 81.7969 23.7391C81.2369 24.1125 80.5302 24.2991 79.6769 24.2991H79.6169Z" fill="white"/>
<path d="M91.6992 24.3391C90.9259 24.3391 90.2192 24.1991 89.5792 23.9191C88.9525 23.6258 88.4059 23.2258 87.9392 22.7191C87.4859 22.1991 87.1326 21.6125 86.8792 20.9591C86.6392 20.2925 86.5192 19.5858 86.5192 18.8391V18.5591C86.5192 17.8391 86.6392 17.1525 86.8792 16.4991C87.1192 15.8325 87.4592 15.2458 87.8992 14.7391C88.3525 14.2191 88.8926 13.8125 89.5192 13.5191C90.1592 13.2125 90.8726 13.0591 91.6592 13.0591C92.5526 13.0591 93.3392 13.2525 94.0192 13.6391C94.6992 14.0258 95.2459 14.5858 95.6592 15.3191C96.0726 16.0391 96.2926 16.9258 96.3192 17.9791L95.6592 16.7391V9.39914H97.1592V23.9991H95.9592V19.2991H96.4392C96.4126 20.4058 96.1792 21.3391 95.7392 22.0991C95.3126 22.8458 94.7459 23.4058 94.0392 23.7791C93.3459 24.1525 92.5659 24.3391 91.6992 24.3391ZM91.8992 23.0191C92.6192 23.0191 93.2659 22.8591 93.8392 22.5391C94.4259 22.2191 94.8859 21.7658 95.2192 21.1791C95.5525 20.5791 95.7192 19.8925 95.7192 19.1191V18.1591C95.7192 17.4125 95.5525 16.7591 95.2192 16.1991C94.8859 15.6258 94.4259 15.1791 93.8392 14.8591C93.2659 14.5391 92.6126 14.3791 91.8792 14.3791C91.0926 14.3791 90.4059 14.5725 89.8192 14.9591C89.2459 15.3325 88.7992 15.8458 88.4792 16.4991C88.1726 17.1525 88.0192 17.8858 88.0192 18.6991C88.0192 19.5391 88.1792 20.2858 88.4992 20.9391C88.8192 21.5925 89.2726 22.1058 89.8592 22.4791C90.4459 22.8391 91.1259 23.0191 91.8992 23.0191Z" fill="white"/>
</svg>
