<svg width="116" height="22" viewBox="0 0 116 22" fill="none" xmlns="http://www.w3.org/2000/svg">
<path d="M5.863 18.2503C3.11025 18.2503 1.0725 16.2661 1.0725 13.5849V5.07637H3.61075V9.72387C4.27213 9.22337 5.11225 8.90162 6.006 8.90162C8.75875 8.90162 10.6535 10.8321 10.6535 13.5849C10.6535 16.141 8.59788 18.2503 5.863 18.2503ZM5.863 15.855C7.16788 15.855 8.11525 14.8361 8.11525 13.5849C8.11525 12.3336 7.16788 11.2969 5.863 11.2969C4.55813 11.2969 3.61075 12.3336 3.61075 13.5849C3.61075 14.8361 4.55813 15.855 5.863 15.855ZM13.4395 7.82912C12.5815 7.82912 11.8665 7.132 11.8665 6.25612C11.8665 5.39812 12.5815 4.68312 13.4395 4.68312C14.2975 4.68312 14.9946 5.39812 14.9946 6.25612C14.9946 7.132 14.2975 7.82912 13.4395 7.82912ZM12.1704 9.15187H14.7086V18H12.1704V9.15187ZM16.9757 5.07637H19.5139V18H16.9757V5.07637ZM21.8159 5.07637H24.3541V18H21.8159V5.07637ZM32.0007 18.1966C28.7296 18.1966 26.0305 15.4617 26.0305 12.0119C26.0305 8.59775 28.7296 5.86287 32.0007 5.86287C34.0027 5.86287 35.7723 6.88175 36.7197 8.52625L35.7902 9.08037C34.9858 7.75762 33.5558 6.95325 31.965 6.95325C29.3552 6.95325 27.2102 9.18762 27.2102 12.0119C27.2102 14.8719 29.3373 17.1062 31.965 17.1062C33.5558 17.1062 34.9858 16.3197 35.7902 14.997L36.7197 15.5511C35.7723 17.1956 34.0027 18.1966 32.0007 18.1966ZM38.522 5.3445H39.6303V18H38.522V5.3445ZM46.239 18.1788C43.665 18.1788 41.6809 16.141 41.6809 13.6385C41.6809 11.1539 43.7007 9.134 46.239 9.134C48.8309 9.134 50.7792 11.1717 50.7792 13.6385C50.7792 16.141 48.7951 18.1788 46.239 18.1788ZM46.239 17.1241C48.1516 17.1241 49.671 15.5511 49.671 13.6564C49.671 11.7616 48.1516 10.1886 46.239 10.1886C44.3085 10.1886 42.7891 11.7616 42.7891 13.6564C42.7891 15.5511 44.3085 17.1241 46.239 17.1241ZM56.5106 17.1241C58.4053 17.1241 59.4957 15.4975 59.4957 13.6385V9.33062H60.6039V13.7636C60.6039 16.2661 59.0667 18.1788 56.5106 18.1788C53.9902 18.1788 52.4708 16.2482 52.4708 13.7457V9.33062H53.5791V13.6564C53.5791 15.4975 54.6337 17.1241 56.5106 17.1241ZM66.8465 18.1966C64.2546 18.1966 62.3062 16.1589 62.3062 13.6742C62.3062 11.1181 64.2367 9.134 66.7929 9.134C68.2586 9.134 69.5456 9.88475 70.2785 10.993L70.2964 5.3445H71.4046V13.6742C71.4046 16.2125 69.4026 18.1966 66.8465 18.1966ZM66.8465 17.142C68.777 17.142 70.2964 15.569 70.2964 13.6742C70.2964 11.7795 68.777 10.1886 66.8465 10.1886C64.9339 10.1886 63.4145 11.7795 63.4145 13.6742C63.4145 15.569 64.9339 17.142 66.8465 17.142Z" fill="#000028"/>
<rect x="78.5" width="36.75" height="22" rx="11" fill="#000028" fill-opacity="0.15"/>
<path d="M87.7676 15.8438H84.9844L88.1201 6.34375H91.6455L94.7813 15.8438H91.998L89.9199 8.95996H89.8457L87.7676 15.8438ZM87.248 12.0957H92.4805V14.0254H87.248V12.0957ZM95.6962 15.8438V6.34375H99.7968C100.502 6.34375 101.119 6.48291 101.648 6.76123C102.176 7.03955 102.588 7.43075 102.882 7.93481C103.175 8.43888 103.322 9.02799 103.322 9.70215C103.322 10.3825 103.171 10.9716 102.868 11.4695C102.568 11.9674 102.146 12.3508 101.601 12.6199C101.06 12.8889 100.428 13.0234 99.704 13.0234H97.2548V11.0195H99.1845C99.4876 11.0195 99.7458 10.967 99.9592 10.8618C100.176 10.7536 100.341 10.6005 100.456 10.4026C100.573 10.2047 100.632 9.97119 100.632 9.70215C100.632 9.43001 100.573 9.19808 100.456 9.00635C100.341 8.81152 100.176 8.66309 99.9592 8.56103C99.7458 8.45589 99.4876 8.40332 99.1845 8.40332H98.2753V15.8438H95.6962ZM106.848 6.34375V15.8438H104.268V6.34375H106.848Z" fill="#000028"/>
</svg>
