<svg width="144" height="48" viewBox="0 0 144 48" fill="none" xmlns="http://www.w3.org/2000/svg">
<rect x="0.428571" y="0.428571" width="143.143" height="47.1429" rx="9.85714" fill="#191928"/>
<path d="M51.1669 14.4313C51.1903 14.8008 51.139 15.1712 51.0161 15.5206C50.8932 15.87 50.7011 16.1914 50.4512 16.4657C50.0078 16.91 49.4415 17.213 48.8244 17.336C48.2073 17.4591 47.5673 17.3966 46.9861 17.1566C46.4048 16.9166 45.9085 16.5099 45.5604 15.9883C45.2122 15.4667 45.0281 14.8539 45.0314 14.2278C45.0277 13.8127 45.1072 13.4011 45.2653 13.0168C45.4233 12.6326 45.6566 12.2836 45.9517 11.99C46.2468 11.6965 46.5978 11.4644 46.984 11.3072C47.3703 11.15 47.7841 11.0709 48.2014 11.0745C48.6288 11.079 49.0491 11.1834 49.4283 11.3794C49.7931 11.5312 50.1108 11.777 50.3486 12.0913L49.8375 12.5998C49.6439 12.3573 49.3936 12.1657 49.1084 12.0416C48.8232 11.9175 48.5118 11.8647 48.2014 11.8878C47.8923 11.875 47.5842 11.9324 47.3007 12.0557C47.0172 12.1791 46.7658 12.3652 46.5654 12.5998C46.3196 12.8132 46.127 13.0805 46.0028 13.3807C45.8786 13.6808 45.8262 14.0055 45.8497 14.3292C45.8262 14.6529 45.8786 14.9777 46.0028 15.2778C46.127 15.5779 46.3196 15.8452 46.5654 16.0587C47.0108 16.4783 47.5894 16.7301 48.2014 16.7706C48.5258 16.7842 48.8492 16.7276 49.1494 16.6047C49.4496 16.4818 49.7194 16.2955 49.9401 16.0587C50.1036 15.9001 50.2332 15.7102 50.321 15.5005C50.4089 15.2908 50.4532 15.0655 50.4512 14.8384H48.2014V14.0243H51.1669V14.4313ZM55.8704 11.8886H53.1095V13.8208H55.6672V14.5327H53.1095V16.465H55.8704V17.279H52.2911V11.1759H55.8696L55.8704 11.8886ZM59.245 17.279H58.4267V11.8886H56.688V11.1759H60.9852V11.8878H59.2443L59.245 17.279ZM63.9484 17.279V11.1759H64.7668V17.2783L63.9484 17.279ZM68.2434 17.279H67.425V11.8886H65.6864V11.1759H69.8787V11.8878H68.1407V17.2783L68.2434 17.279ZM77.9575 16.465C77.5141 16.909 76.9478 17.2118 76.3308 17.3347C75.7138 17.4576 75.0741 17.395 74.4929 17.155C73.9118 16.9151 73.4156 16.5085 73.0675 15.9871C72.7195 15.4656 72.5353 14.853 72.5384 14.2271C72.532 13.809 72.6092 13.3938 72.7656 13.0057C72.922 12.6176 73.1545 12.2643 73.4495 11.9663C73.7444 11.6684 74.096 11.4318 74.4838 11.2703C74.8715 11.1088 75.2877 11.0257 75.7081 11.0257C76.1285 11.0257 76.5446 11.1088 76.9324 11.2703C77.3201 11.4318 77.6717 11.6684 77.9667 11.9663C78.2617 12.2643 78.4941 12.6176 78.6506 13.0057C78.807 13.3938 78.8842 13.809 78.8778 14.2271C78.8893 14.6433 78.8134 15.0574 78.6548 15.4428C78.4962 15.8281 78.2592 16.1763 77.9575 16.465ZM74.0717 15.9566C74.5055 16.3932 75.0909 16.648 75.7077 16.6685C76.0169 16.6814 76.3249 16.6239 76.6084 16.5006C76.8919 16.3772 77.1434 16.1912 77.3437 15.9566C77.8025 15.4967 78.0597 14.875 78.0594 14.2271C78.0829 13.9034 78.0305 13.5787 77.9063 13.2785C77.7821 12.9784 77.5895 12.7111 77.3437 12.4976C76.91 12.061 76.3245 11.8062 75.7077 11.7857C75.3986 11.7728 75.0905 11.8303 74.807 11.9536C74.5235 12.077 74.272 12.263 74.0717 12.4976C73.613 12.9575 73.3557 13.5792 73.356 14.2271C73.3324 14.5508 73.3847 14.8754 73.5088 15.1756C73.6328 15.4757 73.826 15.7431 74.0717 15.9566ZM80.0027 17.279V11.1759H80.923L83.8885 15.9566V11.1759H84.7068V17.2783H83.8877L80.7177 12.2949V17.279H80.0027Z" fill="white" stroke="white" stroke-width="0.171429" stroke-miterlimit="10"/>
<path d="M71.7019 26.2297C71.121 26.2167 70.5434 26.321 70.0041 26.5362C69.4647 26.7514 68.9748 27.0731 68.5639 27.4819C68.153 27.8906 67.8296 28.3779 67.6132 28.9144C67.3969 29.4509 67.292 30.0254 67.3051 30.6033C67.3007 31.1789 67.4115 31.7495 67.6309 32.2821C67.8504 32.8147 68.1741 33.2986 68.5832 33.7055C68.9924 34.1125 69.4788 34.4345 70.0142 34.6528C70.5496 34.8711 71.1233 34.9813 71.7019 34.977C72.2829 34.9899 72.8605 34.8856 73.3998 34.6704C73.9392 34.4552 74.4291 34.1335 74.84 33.7248C75.2509 33.316 75.5743 32.8287 75.7907 32.2922C76.007 31.7558 76.1119 31.1812 76.0988 30.6033C76.1205 30.0232 76.0216 29.4449 75.8082 28.9045C75.5949 28.3641 75.2718 27.8733 74.8592 27.4628C74.4465 27.0523 73.9531 26.7309 73.4098 26.5188C72.8666 26.3066 72.2852 26.2082 71.7019 26.2297ZM71.7019 33.1461C71.3653 33.1355 71.0342 33.0583 70.7278 32.9191C70.4215 32.7799 70.1461 32.5814 69.9176 32.3352C69.6892 32.089 69.5123 31.8001 69.3972 31.4852C69.2822 31.1703 69.2313 30.8358 69.2476 30.5012C69.2313 30.1666 69.2822 29.8321 69.3972 29.5172C69.5123 29.2023 69.6892 28.9134 69.9176 28.6672C70.1461 28.421 70.4215 28.2225 70.7278 28.0833C71.0342 27.9441 71.3653 27.8669 71.7019 27.8563C72.0412 27.8585 72.3764 27.93 72.6867 28.0664C72.9971 28.2027 73.2759 28.4011 73.5061 28.649C73.7362 28.897 73.9126 29.1894 74.0245 29.508C74.1363 29.8266 74.1812 30.1646 74.1563 30.5012C74.1726 30.8358 74.1217 31.1703 74.0067 31.4852C73.8916 31.8001 73.7147 32.089 73.4863 32.3352C73.2578 32.5814 72.9824 32.7799 72.6761 32.9191C72.3697 33.0583 72.0386 33.1355 71.7019 33.1461V33.1461ZM62.1895 26.2297C61.6085 26.2167 61.0309 26.321 60.4916 26.5362C59.9523 26.7514 59.4623 27.0731 59.0514 27.4819C58.6405 27.8906 58.3171 28.3779 58.1008 28.9144C57.8844 29.4509 57.7796 30.0254 57.7926 30.6033C57.7883 31.1789 57.8991 31.7495 58.1185 32.2821C58.3379 32.8147 58.6616 33.2986 59.0708 33.7055C59.4799 34.1125 59.9664 34.4345 60.5018 34.6528C61.0372 34.8711 61.6109 34.9813 62.1895 34.977C62.7705 34.9899 63.3481 34.8856 63.8874 34.6704C64.4267 34.4552 64.9166 34.1335 65.3276 33.7248C65.7385 33.316 66.0619 32.8287 66.2782 32.2922C66.4946 31.7558 66.5994 31.1812 66.5864 30.6033C66.608 30.0232 66.5091 29.4449 66.2958 28.9045C66.0825 28.3641 65.7594 27.8733 65.3467 27.4628C64.934 27.0523 64.4406 26.7309 63.8974 26.5188C63.3541 26.3066 62.7727 26.2082 62.1895 26.2297ZM62.1895 33.1461C61.8529 33.1355 61.5217 33.0583 61.2154 32.9191C60.909 32.7799 60.6336 32.5814 60.4052 32.3352C60.1767 32.089 59.9998 31.8001 59.8848 31.4852C59.7698 31.1703 59.7189 30.8358 59.7351 30.5012C59.7189 30.1666 59.7698 29.8321 59.8848 29.5172C59.9998 29.2023 60.1767 28.9134 60.4052 28.6672C60.6336 28.421 60.909 28.2225 61.2154 28.0833C61.5217 27.9441 61.8529 27.8669 62.1895 27.8563C62.5288 27.8585 62.8639 27.93 63.1743 28.0664C63.4846 28.2027 63.7635 28.4011 63.9936 28.649C64.2237 28.897 64.4002 29.1894 64.512 29.508C64.6239 29.8266 64.6688 30.1646 64.6439 30.5012C64.6601 30.8358 64.6092 31.1703 64.4942 31.4852C64.3792 31.8001 64.2023 32.089 63.9738 32.3352C63.7454 32.5814 63.47 32.7799 63.1636 32.9191C62.8573 33.0583 62.5261 33.1355 62.1895 33.1461V33.1461ZM50.8424 27.5514V29.3837H55.2393C55.1759 30.2564 54.8154 31.0816 54.217 31.723C53.7766 32.163 53.2494 32.5076 52.6687 32.7352C52.0879 32.9628 51.4661 33.0684 50.8424 33.0454C50.2008 33.0518 49.5645 32.9291 48.9718 32.6847C48.3792 32.4403 47.8422 32.0793 47.3933 31.6233C46.9444 31.1673 46.5928 30.6257 46.3596 30.0312C46.1264 29.4366 46.0164 28.8013 46.0363 28.1634C46.0251 27.5278 46.1411 26.8962 46.3774 26.3055C46.6137 25.7148 46.9656 25.1767 47.4128 24.7225C47.86 24.2683 48.3934 23.907 48.9822 23.6596C49.5709 23.4122 50.2032 23.2836 50.8424 23.2814C52.0927 23.2931 53.2946 23.7641 54.217 24.6038L55.5465 23.2814C54.3128 22.0953 52.6607 21.438 50.945 21.4505C49.1495 21.4621 47.4293 22.1697 46.1499 23.423C44.8706 24.6762 44.1329 26.3763 44.0938 28.1619C44.1326 29.9478 44.87 31.6483 46.1494 32.9018C47.4288 34.1554 49.1492 34.8632 50.945 34.8748C51.8244 34.9234 52.7035 34.775 53.5176 34.4406C54.3316 34.1062 55.0598 33.5943 55.6484 32.9426C56.7278 31.782 57.3141 30.2511 57.2844 28.6703C57.3062 28.2944 57.2718 27.9173 57.1825 27.5514H50.8424ZM97.265 28.9752C97.0137 28.1941 96.5244 27.5101 95.8648 27.018C95.2052 26.5259 94.408 26.2502 93.5838 26.229C91.334 26.229 89.4934 27.9584 89.4934 30.6026C89.4777 31.1727 89.5772 31.7401 89.7862 32.2711C89.9952 32.8021 90.3093 33.286 90.7099 33.694C91.1105 34.1019 91.5895 34.4256 92.1183 34.6459C92.6471 34.8662 93.2151 34.9785 93.7884 34.9762C94.5007 34.9829 95.203 34.8091 95.8291 34.471C96.4552 34.1329 96.9844 33.6418 97.3669 33.044L95.9362 32.0286C95.716 32.4003 95.4021 32.7084 95.0256 32.9224C94.649 33.1364 94.2228 33.249 93.7891 33.249C93.3384 33.2723 92.8913 33.1581 92.5076 32.9218C92.1239 32.6854 91.8219 32.3382 91.642 31.9265L97.4703 29.4851L97.265 28.9752ZM91.334 30.3991C91.3128 29.7699 91.5338 29.1564 91.9519 28.6839C92.37 28.2113 92.9537 27.9153 93.5838 27.8563C93.9146 27.8454 94.242 27.925 94.5305 28.0864C94.819 28.2478 95.0574 28.4849 95.2198 28.7717L91.334 30.3991ZM86.5279 34.5692H88.4704V21.8561H86.5279V34.5692ZM83.4612 27.1451C82.8429 26.5109 81.9976 26.1454 81.1095 26.1283C79.979 26.18 78.912 26.6636 78.1311 27.4783C77.3501 28.2931 76.9153 29.3762 76.9172 30.5019C76.9091 31.0566 77.0113 31.6075 77.2178 32.1228C77.4244 32.6381 77.7312 33.1077 78.1208 33.5047C78.5104 33.9017 78.9749 34.2182 79.4878 34.4361C80.0007 34.6539 80.5518 34.7688 81.1095 34.7742C81.5363 34.7775 81.9586 34.6883 82.3472 34.5127C82.7357 34.3371 83.0811 34.0793 83.3593 33.7574H83.4612V34.3679C83.4612 35.9952 82.5409 36.9107 81.1095 36.9107C80.6365 36.9103 80.1753 36.7631 79.7904 36.4896C79.4055 36.216 79.116 35.8298 78.9624 35.3847L77.3264 36.0966C77.6519 36.8529 78.1938 37.4972 78.8845 37.9496C79.5753 38.4019 80.3844 38.6423 81.2114 38.6409C83.4612 38.6409 85.3018 37.3184 85.3018 34.1659V26.4332H83.4612V27.1451ZM81.2114 33.1461C80.8748 33.1355 80.5437 33.0583 80.2373 32.9191C79.931 32.7799 79.6556 32.5814 79.4271 32.3352C79.1987 32.089 79.0218 31.8001 78.9067 31.4852C78.7917 31.1703 78.7408 30.8358 78.7571 30.5012C78.7408 30.1666 78.7917 29.8321 78.9067 29.5172C79.0218 29.2023 79.1987 28.9134 79.4271 28.6672C79.6556 28.421 79.931 28.2225 80.2373 28.0833C80.5437 27.9441 80.8748 27.8669 81.2114 27.8563C81.5427 27.8698 81.8678 27.9497 82.1673 28.0913C82.4667 28.2328 82.7343 28.4332 82.954 28.6802C83.1736 28.9273 83.3408 29.2159 83.4455 29.5288C83.5502 29.8418 83.5902 30.1725 83.5632 30.5012C83.5902 30.8299 83.5502 31.1606 83.4455 31.4736C83.3408 31.7865 83.1736 32.0752 82.954 32.3222C82.7343 32.5692 82.4667 32.7696 82.1673 32.9111C81.8678 33.0527 81.5427 33.1326 81.2114 33.1461V33.1461ZM106.161 21.8561H101.557V34.5699H103.499V29.7893H106.158C106.698 29.8146 107.237 29.7307 107.743 29.5428C108.249 29.3548 108.712 29.0667 109.103 28.6958C109.493 28.3249 109.805 27.879 110.017 27.385C110.23 26.891 110.339 26.3593 110.339 25.8219C110.339 25.2846 110.23 24.7529 110.017 24.2589C109.805 23.7649 109.493 23.319 109.103 22.9481C108.712 22.5772 108.249 22.2891 107.743 22.1011C107.237 21.9131 106.698 21.8293 106.158 21.8546L106.161 21.8561ZM106.263 27.9584H103.502V23.5848H106.263C106.843 23.5833 107.401 23.8047 107.82 24.2027C108.239 24.6008 108.488 25.1446 108.513 25.7205C108.491 26.307 108.247 26.8634 107.829 27.2784C107.412 27.6934 106.853 27.9362 106.263 27.9584V27.9584ZM118.023 26.1276C117.33 26.0723 116.636 26.2274 116.034 26.5724C115.431 26.9174 114.948 27.436 114.648 28.0598L116.387 28.7717C116.556 28.4684 116.811 28.2205 117.119 28.0581C117.428 27.8956 117.777 27.8255 118.125 27.8563C118.609 27.8198 119.09 27.9674 119.469 28.2694C119.849 28.5714 120.099 29.0053 120.17 29.4837V29.585C119.575 29.2562 118.907 29.0814 118.227 29.0766C116.387 29.0766 114.546 30.0934 114.546 31.9243C114.563 32.3194 114.659 32.7072 114.828 33.0651C114.997 33.423 115.236 33.7438 115.531 34.0088C115.826 34.2739 116.171 34.4779 116.547 34.6089C116.922 34.7399 117.319 34.7953 117.716 34.772C118.195 34.7877 118.67 34.6843 119.099 34.4712C119.527 34.2581 119.896 33.9421 120.17 33.5517H120.272V34.5685H122.113V29.6879C122.039 28.6788 121.568 27.7394 120.802 27.0731C120.037 26.4068 119.038 26.0671 118.023 26.1276V26.1276ZM117.818 33.1454C117.204 33.1454 116.284 32.8405 116.284 32.0264C116.284 31.0096 117.409 30.704 118.329 30.704C118.932 30.706 119.527 30.8452 120.068 31.111C119.99 31.6579 119.723 32.1607 119.312 32.5323C118.901 32.9039 118.373 33.121 117.818 33.1461V33.1454ZM128.554 26.4325L126.407 31.925H126.305L124.056 26.4325H122.01L125.385 34.1629L123.442 38.4352H125.385L130.6 26.4332L128.554 26.4325ZM111.377 34.5699H113.319V21.8561H111.377V34.5699Z" fill="white"/>
<path d="M12.5066 10.7036C12.1521 11.1203 11.9721 11.6559 12.0035 12.2003V35.7863C11.9721 36.3307 12.1521 36.8663 12.5066 37.283L25.9127 24.1419V23.8302L12.5066 10.7036Z" fill="url(#paint0_linear_6474_98819)"/>
<path d="M30.3473 28.5534L25.9141 24.1419V23.8302L30.3627 19.4188L30.4567 19.4814L35.7228 22.4435C37.2322 23.2839 37.2322 24.6729 35.7228 25.5301L30.4567 28.4923L30.3473 28.5534Z" fill="url(#paint1_linear_6474_98819)"/>
<path d="M30.4557 28.4929L25.91 23.9852L12.5039 37.2791C12.8096 37.5482 13.201 37.7019 13.6096 37.7134C14.0181 37.7248 14.4177 37.5933 14.7382 37.3418L30.4557 28.4929Z" fill="url(#paint2_linear_6474_98819)"/>
<path d="M30.4557 19.4959L14.7382 10.6417C13.8137 10.1275 12.9932 10.1894 12.5039 10.7044L25.91 23.9983L30.4557 19.4959Z" fill="url(#paint3_linear_6474_98819)"/>
<rect x="0.428571" y="0.428571" width="143.143" height="47.1429" rx="9.85714" stroke="white" stroke-width="0.857143"/>
<defs>
<linearGradient id="paint0_linear_6474_98819" x1="24.7162" y1="12.0325" x2="3.41099" y2="17.7803" gradientUnits="userSpaceOnUse">
<stop stop-color="#00A0FF"/>
<stop offset="0.007" stop-color="#00A1FF"/>
<stop offset="0.26" stop-color="#00BEFF"/>
<stop offset="0.512" stop-color="#00D2FF"/>
<stop offset="0.76" stop-color="#00DFFF"/>
<stop offset="1" stop-color="#00E3FF"/>
</linearGradient>
<linearGradient id="paint1_linear_6474_98819" x1="37.6644" y1="23.9952" x2="11.6473" y2="23.9952" gradientUnits="userSpaceOnUse">
<stop stop-color="#FFE000"/>
<stop offset="0.409" stop-color="#FFBD00"/>
<stop offset="0.775" stop-color="#FFA500"/>
<stop offset="1" stop-color="#FF9C00"/>
</linearGradient>
<linearGradient id="paint2_linear_6474_98819" x1="27.9783" y1="26.4427" x2="11.0499" y2="55.1718" gradientUnits="userSpaceOnUse">
<stop stop-color="#FF3A44"/>
<stop offset="1" stop-color="#C31162"/>
</linearGradient>
<linearGradient id="paint3_linear_6474_98819" x1="9.12897" y1="2.83976" x2="16.6781" y2="15.6763" gradientUnits="userSpaceOnUse">
<stop stop-color="#32A071"/>
<stop offset="0.069" stop-color="#2DA771"/>
<stop offset="0.476" stop-color="#15CF74"/>
<stop offset="0.801" stop-color="#06E775"/>
<stop offset="1" stop-color="#00F076"/>
</linearGradient>
</defs>
</svg>
