<svg width="98" height="34" viewBox="0 0 98 34" fill="none" xmlns="http://www.w3.org/2000/svg">
<path d="M7.87145 25.3361C4.17545 25.3361 1.43945 22.6721 1.43945 19.0721V7.64812H4.84745V13.8881C5.73545 13.2161 6.86345 12.7841 8.06345 12.7841C11.7595 12.7841 14.3035 15.3761 14.3035 19.0721C14.3035 22.5041 11.5435 25.3361 7.87145 25.3361ZM7.87145 22.1201C9.62345 22.1201 10.8955 20.7521 10.8955 19.0721C10.8955 17.3921 9.62345 16.0001 7.87145 16.0001C6.11945 16.0001 4.84745 17.3921 4.84745 19.0721C4.84745 20.7521 6.11945 22.1201 7.87145 22.1201Z" fill="white"/>
<path d="M18.0441 11.3441C16.8921 11.3441 15.9321 10.4081 15.9321 9.23212C15.9321 8.08012 16.8921 7.12012 18.0441 7.12012C19.1961 7.12012 20.1321 8.08012 20.1321 9.23212C20.1321 10.4081 19.1961 11.3441 18.0441 11.3441ZM16.3401 13.1201H19.7481V25.0001H16.3401V13.1201Z" fill="white"/>
<path d="M22.792 7.64812H26.2V25.0001H22.792V7.64812Z" fill="white"/>
<path d="M29.2907 7.64812H32.6987V25.0001H29.2907V7.64812Z" fill="white"/>
<path d="M42.9655 25.2641C38.5735 25.2641 34.9495 21.5921 34.9495 16.9601C34.9495 12.3761 38.5735 8.70412 42.9655 8.70412C45.6535 8.70412 48.0295 10.0721 49.3015 12.2801L48.0535 13.0241C46.9735 11.2481 45.0535 10.1681 42.9175 10.1681C39.4135 10.1681 36.5335 13.1681 36.5335 16.9601C36.5335 20.8001 39.3895 23.8001 42.9175 23.8001C45.0535 23.8001 46.9735 22.7441 48.0535 20.9681L49.3015 21.7121C48.0295 23.9201 45.6535 25.2641 42.9655 25.2641Z" fill="white"/>
<path d="M51.7213 8.00812H53.2093V25.0001H51.7213V8.00812Z" fill="white"/>
<path d="M62.0826 25.2401C58.6266 25.2401 55.9626 22.5041 55.9626 19.1441C55.9626 15.8081 58.6746 13.0961 62.0826 13.0961C65.5626 13.0961 68.1786 15.8321 68.1786 19.1441C68.1786 22.5041 65.5146 25.2401 62.0826 25.2401ZM62.0826 23.8241C64.6506 23.8241 66.6906 21.7121 66.6906 19.1681C66.6906 16.6241 64.6506 14.5121 62.0826 14.5121C59.4906 14.5121 57.4506 16.6241 57.4506 19.1681C57.4506 21.7121 59.4906 23.8241 62.0826 23.8241Z" fill="white"/>
<path d="M75.8738 23.8241C78.4178 23.8241 79.8818 21.6401 79.8818 19.1441V13.3601H81.3698V19.3121C81.3698 22.6721 79.3058 25.2401 75.8738 25.2401C72.4898 25.2401 70.4498 22.6481 70.4498 19.2881V13.3601H71.9378V19.1681C71.9378 21.6401 73.3538 23.8241 75.8738 23.8241Z" fill="white"/>
<path d="M89.7514 25.2641C86.2714 25.2641 83.6554 22.5281 83.6554 19.1921C83.6554 15.7601 86.2474 13.0961 89.6794 13.0961C91.6474 13.0961 93.3754 14.1041 94.3594 15.5921L94.3834 8.00812H95.8714V19.1921C95.8714 22.6001 93.1834 25.2641 89.7514 25.2641ZM89.7514 23.8481C92.3434 23.8481 94.3834 21.7361 94.3834 19.1921C94.3834 16.6481 92.3434 14.5121 89.7514 14.5121C87.1834 14.5121 85.1434 16.6481 85.1434 19.1921C85.1434 21.7361 87.1834 23.8481 89.7514 23.8481Z" fill="white"/>
</svg>
