<svg width="144" height="48" viewBox="0 0 144 48" fill="none" xmlns="http://www.w3.org/2000/svg">
<rect x="0.428571" y="0.428571" width="143.143" height="47.1429" rx="9.85714" fill="#191928"/>
<path d="M25.2417 9.39256C25.7811 8.66352 26.474 8.0592 27.2726 7.62142C28.0712 7.18364 28.9564 6.92286 29.8668 6.85714C29.9445 7.69502 29.8496 8.53978 29.588 9.34034C29.3265 10.1409 28.9035 10.8806 28.3449 11.5148C26.2934 13.9554 23.9594 13.5558 23.9594 13.5558C23.8703 12.8118 23.9383 12.0576 24.159 11.3409C24.3798 10.6243 24.7484 9.96082 25.2417 9.39256V9.39256ZM24.2055 15.2174C25.2003 15.2174 27.0479 13.8637 29.451 13.8637C30.5846 13.8155 31.7115 14.0586 32.7219 14.5694C33.7324 15.0802 34.592 15.8413 35.2171 16.7786C34.2415 17.339 33.4331 18.1449 32.874 19.1146C32.3149 20.0843 32.0249 21.1831 32.0336 22.2996C32.0397 23.5629 32.4183 24.797 33.1229 25.8505C33.8275 26.9039 34.8274 27.7308 36 28.2297C36 28.2297 33.2274 35.9574 29.4819 35.9574C27.7618 35.9574 26.425 34.8103 24.6091 34.8103C22.7623 34.8103 20.9293 36 19.7363 36C16.3197 35.9968 12 28.6695 12 22.7803C12 16.986 15.6546 13.9457 19.0866 13.9457C21.3159 13.9457 23.0466 15.2182 24.203 15.2182L24.2055 15.2174Z" fill="white"/>
<path d="M54.1521 34.8207H56.2793L51.6261 21.9922H49.4723L44.8125 34.8207H46.868L48.0572 31.4162H52.9726L54.1521 34.8207ZM50.4436 24.3212H50.595L52.4629 29.744H48.5668L50.4436 24.3212ZM62.892 24.9824C62.2687 24.9676 61.6534 25.1245 61.114 25.4356C60.5747 25.7468 60.1323 26.2002 59.8357 26.7457H59.6924V25.1455H57.8459V38.0394H59.7662V33.3543H59.9184C60.2102 33.8807 60.6469 34.3134 61.1773 34.6015C61.7077 34.8896 62.3097 35.0212 62.9127 34.9809C65.3707 34.9809 66.9344 33.0516 66.9344 29.9754C66.9344 26.8993 65.3671 24.9795 62.892 24.9795V24.9824ZM62.3462 33.2654C60.7375 33.2654 59.7271 32.0032 59.7271 29.985C59.7271 27.9668 60.7375 26.698 62.355 26.698C63.9726 26.698 64.9557 27.9337 64.9557 29.9784C64.9557 32.023 63.9822 33.2654 62.3462 33.2654ZM73.8292 24.9795C73.2059 24.9647 72.5906 25.1215 72.0512 25.4327C71.5119 25.7439 71.0695 26.1972 70.7729 26.7428H70.6296V25.1426H68.7831V38.0394H70.7034V33.3543H70.8556C71.1471 33.8801 71.5833 34.3124 72.1129 34.6005C72.6426 34.8885 73.2438 35.0205 73.8462 34.9809C76.3043 34.9809 77.8679 33.0516 77.8679 29.9754C77.8679 26.8993 76.305 24.9795 73.8292 24.9795ZM73.2841 33.2654C71.6755 33.2654 70.665 32.0032 70.665 29.985C70.665 27.9668 71.6754 26.698 73.293 26.698C74.9105 26.698 75.8936 27.9337 75.8936 29.9784C75.8936 32.023 74.9201 33.2654 73.2841 33.2654ZM83.8808 31.3713C84.0241 33.6651 85.9489 35.1322 88.8051 35.1322C91.8614 35.1322 93.7744 33.5945 93.7744 31.1406C93.7744 29.2113 92.6842 28.1446 90.0386 27.5311L88.6182 27.1843C86.9379 26.7935 86.2584 26.2689 86.2584 25.3527C86.2584 24.1971 87.3131 23.4425 88.8952 23.4425C90.3968 23.4425 91.4338 24.1772 91.6214 25.363H93.5669C93.4509 23.203 91.5379 21.6822 88.9196 21.6822C86.104 21.6822 84.2272 23.2023 84.2272 25.4872C84.2272 27.3717 85.2908 28.4921 87.6248 29.0343L89.2874 29.4347C90.9943 29.8351 91.7455 30.4214 91.7455 31.3993C91.7455 32.5373 90.5637 33.3638 88.9573 33.3638C87.2326 33.3638 86.0346 32.5902 85.8647 31.3721L83.8808 31.3713ZM96.4001 22.7306V25.1845H94.8543V26.7935H96.4001V32.2611C96.4001 34.1279 97.2495 34.8751 99.3856 34.8751C99.7363 34.8727 100.086 34.8408 100.431 34.7796V33.1853C100.188 33.2143 99.9436 33.2293 99.6987 33.2301C98.7423 33.2301 98.322 32.7856 98.322 31.7717V26.7935H100.431V25.1845H98.322V22.7306H96.4001ZM106.239 35.0073C109.081 35.0073 110.824 33.114 110.824 29.9754C110.824 26.8552 109.072 24.9523 106.239 24.9523C103.406 24.9523 101.645 26.8552 101.645 29.9754C101.645 33.114 103.39 35.0073 106.239 35.0073ZM106.239 33.3095C104.568 33.3095 103.63 32.0913 103.63 29.9754C103.63 27.8771 104.568 26.6502 106.239 26.6502C107.91 26.6502 108.849 27.8771 108.849 29.9754C108.849 32.0737 107.902 33.3102 106.239 33.3102V33.3095ZM112.672 34.8207H114.593V29.1041C114.59 28.7875 114.654 28.474 114.781 28.1836C114.907 27.8932 115.094 27.6323 115.328 27.4178C115.562 27.2033 115.838 27.0399 116.14 26.938C116.441 26.8362 116.76 26.7982 117.077 26.8265C117.438 26.8285 117.797 26.8671 118.15 26.9419V25.0596C117.867 25.0027 117.58 24.9758 117.292 24.9795C116.735 24.9426 116.181 25.082 115.71 25.3775C115.238 25.673 114.872 26.1095 114.665 26.6245H114.522V25.1397H112.675L112.672 34.8207ZM123.288 26.5797C123.616 26.5722 123.941 26.633 124.243 26.758C124.545 26.883 124.818 27.0695 125.044 27.3056C125.269 27.5417 125.443 27.822 125.553 28.1287C125.663 28.4354 125.708 28.7616 125.683 29.0864H120.768C120.764 28.7561 120.826 28.4282 120.951 28.1221C121.076 27.8161 121.262 27.5381 121.497 27.3044C121.732 27.0708 122.011 26.8863 122.319 26.7618C122.626 26.6374 122.956 26.5754 123.288 26.5797V26.5797ZM125.675 32.2074C125.45 32.6097 125.109 32.9363 124.697 33.1457C124.285 33.3552 123.819 33.438 123.36 33.3837C121.823 33.3837 120.831 32.3081 120.768 30.6102V30.5037H127.641V29.8366C127.641 26.7964 126.006 24.956 123.297 24.956C120.553 24.956 118.81 26.9206 118.81 30.0144C118.81 33.1082 120.517 35.0103 123.306 35.0103C125.531 35.0103 127.087 33.9435 127.525 32.2096L125.675 32.2074Z" fill="white"/>
<path d="M50.6814 17.0841H51.5626L49.0831 10.3933H48.2529L45.7734 17.0841H46.6539L47.3297 15.1688H50.0049L50.6814 17.0841ZM48.6303 11.4733H48.7042L49.7589 14.4598H47.5771L48.6303 11.4733ZM56.4706 12.0853H55.6131L54.2378 16.2032H54.164L52.7887 12.0889H51.9304L53.7902 17.0848H54.6108L56.4706 12.0853ZM59.2862 16.4721C58.7034 16.4721 58.2698 16.1782 58.2698 15.664C58.2698 15.1497 58.6052 14.8991 59.3696 14.8477L60.7213 14.7595V15.2187C60.7136 15.3961 60.6698 15.57 60.5928 15.7301C60.5157 15.8902 60.4068 16.0331 60.2727 16.1502C60.1386 16.2673 59.9821 16.3562 59.8125 16.4115C59.643 16.4668 59.4639 16.4875 59.2862 16.4721V16.4721ZM59.1384 17.1723C59.4474 17.1847 59.7541 17.1147 60.0268 16.9697C60.2995 16.8246 60.5283 16.6097 60.6895 16.3472H60.7634V17.0819H61.5278V13.6619C61.5278 12.6231 60.8424 11.9971 59.6163 11.9971C58.5439 11.9971 57.7521 12.5253 57.6442 13.3276H58.4567C58.5682 12.9338 58.9878 12.7061 59.5897 12.7061C60.3401 12.7061 60.7272 13.0448 60.7272 13.6612V14.1152L59.2773 14.2034C58.1073 14.2732 57.4456 14.7911 57.4456 15.6823C57.4486 15.8938 57.4959 16.1024 57.5846 16.2946C57.6732 16.4869 57.8012 16.6587 57.9604 16.7989C58.1196 16.9391 58.3065 17.0448 58.5091 17.1091C58.7117 17.1734 58.9255 17.1949 59.137 17.1723H59.1384ZM63.4083 17.0841H64.2082V12.0882H63.4061L63.4083 17.0841ZM63.8094 11.0699C63.9575 11.0693 64.0993 11.0105 64.2041 10.9064C64.3088 10.8022 64.3679 10.6611 64.3685 10.5137C64.3679 10.3664 64.3088 10.2253 64.2041 10.1211C64.0993 10.0169 63.9575 9.95816 63.8094 9.95758C63.6612 9.95816 63.5194 10.0169 63.4146 10.1211C63.3099 10.2253 63.2508 10.3664 63.2502 10.5137C63.2508 10.6607 63.3096 10.8015 63.4139 10.9056C63.5181 11.0097 63.6594 11.0688 63.8071 11.0699H63.8094ZM66.1655 17.0841H66.9676V10.1045H66.1655V17.0841ZM70.4538 16.4721C69.8711 16.4721 69.4375 16.1782 69.4375 15.664C69.4375 15.1497 69.7728 14.8999 70.538 14.847L71.8897 14.7588V15.218C71.8821 15.3955 71.8384 15.5695 71.7613 15.7298C71.6842 15.89 71.5753 16.033 71.4411 16.1502C71.3069 16.2674 71.1503 16.3563 70.9806 16.4117C70.8109 16.467 70.6317 16.4876 70.4538 16.4721V16.4721ZM70.3061 17.1723C70.6151 17.1847 70.9218 17.1147 71.1945 16.9697C71.4672 16.8246 71.696 16.6097 71.8572 16.3472H71.931V17.0819H72.6955V13.6619C72.6955 12.6231 72.0101 11.9971 70.784 11.9971C69.7115 11.9971 68.9197 12.5253 68.8119 13.3276H69.6244C69.7359 12.9338 70.1554 12.7061 70.7574 12.7061C71.5078 12.7061 71.8948 13.0448 71.8948 13.6612V14.1152L70.445 14.2034C69.275 14.2732 68.6132 14.7911 68.6132 15.6823C68.6162 15.8938 68.6636 16.1024 68.7522 16.2946C68.8409 16.4869 68.9689 16.6587 69.1281 16.7989C69.2873 16.9391 69.4742 17.0448 69.6767 17.1091C69.8793 17.1734 70.0932 17.1949 70.3046 17.1723H70.3061ZM77.0554 17.1723C78.3281 17.1723 79.1627 16.1474 79.1627 14.5847C79.1627 13.022 78.3332 11.9971 77.0554 11.9971C76.7373 11.9853 76.422 12.0609 76.1441 12.2155C75.8662 12.3701 75.6365 12.5978 75.48 12.8736H75.4061V10.1008H74.6003V17.0804H75.3648V16.2862H75.4386C75.6027 16.5649 75.8394 16.7944 76.1238 16.9503C76.4081 17.1063 76.7295 17.183 77.054 17.1723H77.0554ZM76.8671 12.7164C77.7852 12.7164 78.331 13.4165 78.331 14.5847C78.331 15.7528 77.7852 16.4537 76.8671 16.4537C75.949 16.4537 75.3847 15.7396 75.3847 14.5854C75.3847 13.4312 75.9534 12.7164 76.8671 12.7164ZM80.8474 17.0841H81.6495V10.1045H80.8474V17.0841ZM85.5922 12.7024C85.7804 12.7023 85.9665 12.7413 86.1387 12.8168C86.3108 12.8924 86.4652 13.0028 86.592 13.1411C86.7188 13.2794 86.8152 13.4425 86.875 13.62C86.9349 13.7975 86.9568 13.9854 86.9394 14.1718H84.1711C84.165 13.9818 84.1972 13.7925 84.2658 13.6151C84.3344 13.4377 84.438 13.2758 84.5705 13.1388C84.703 13.0019 84.8617 12.8927 85.0373 12.8178C85.2129 12.7428 85.4019 12.7036 85.5929 12.7024H85.5922ZM86.9158 15.7881C86.7929 16.0171 86.6037 16.204 86.3727 16.3247C86.1417 16.4454 85.8795 16.4942 85.6203 16.4648C84.7672 16.4648 84.2125 15.8388 84.1704 14.8484V14.8117H87.7829V14.5053C87.7829 12.9522 86.9579 11.992 85.6011 11.992C84.2214 11.992 83.3358 13.0117 83.3358 14.584C83.3358 16.1562 84.2073 17.1664 85.6011 17.1664C86.0591 17.2131 86.5194 17.102 86.9049 16.8515C87.2904 16.601 87.5777 16.2263 87.7186 15.7903L86.9158 15.7881ZM94.5655 17.1723C95.9969 17.1723 96.8825 16.1893 96.8825 14.5847C96.8825 12.9801 95.9961 11.9971 94.5655 11.9971C93.1348 11.9971 92.2485 12.9757 92.2485 14.5847C92.2485 16.1937 93.1341 17.1723 94.5655 17.1723ZM94.5655 16.4537C93.6149 16.4537 93.0787 15.7675 93.0787 14.5854C93.0787 13.4033 93.6142 12.7164 94.5655 12.7164C95.5168 12.7164 96.0523 13.3982 96.0523 14.5847C96.0523 15.7712 95.5161 16.4537 94.5655 16.4537ZM98.5229 17.0841H99.325V14.1255C99.3043 13.9438 99.3233 13.7598 99.3809 13.5861C99.4384 13.4124 99.5331 13.2531 99.6583 13.1192C99.7836 12.9854 99.9365 12.88 100.107 12.8105C100.277 12.7409 100.46 12.7088 100.643 12.7164C101.446 12.7164 101.825 13.1432 101.825 14.0388V17.0804H102.627V13.8478C102.661 13.6057 102.64 13.3592 102.566 13.1264C102.491 12.8935 102.364 12.6804 102.196 12.5028C102.027 12.3251 101.82 12.1875 101.591 12.1001C101.361 12.0127 101.115 11.9777 100.87 11.9978C100.558 11.9701 100.245 12.0395 99.9745 12.1965C99.7039 12.3536 99.489 12.5904 99.3597 12.8743H99.2859V12.0853H98.5222L98.5229 17.0841ZM107.886 10.7922V12.086H107.074V12.7538H107.886V15.7859C107.886 16.741 108.301 17.1216 109.336 17.1216C109.494 17.1199 109.651 17.1045 109.807 17.0753V16.4023C109.684 16.4151 109.561 16.4213 109.437 16.4207C108.915 16.4207 108.691 16.1702 108.691 15.5817V12.7531H109.81V12.0853H108.688V10.7922H107.886ZM111.447 17.0841H112.249V14.1255C112.231 13.9379 112.254 13.7487 112.318 13.5712C112.381 13.3936 112.483 13.232 112.616 13.0976C112.748 12.9633 112.909 12.8596 113.087 12.7937C113.264 12.7279 113.454 12.7014 113.643 12.7164C114.403 12.7164 114.803 13.1572 114.803 14.0388V17.0804H115.605V13.8478C115.635 13.6084 115.612 13.3655 115.537 13.1361C115.462 12.9067 115.338 12.6964 115.172 12.52C115.007 12.3436 114.805 12.2054 114.58 12.1152C114.355 12.025 114.113 11.9849 113.871 11.9978C113.554 11.9693 113.235 12.038 112.958 12.1946C112.68 12.3513 112.458 12.5884 112.32 12.8743H112.246V10.1008H111.448L111.447 17.0841ZM119.456 12.7024C119.644 12.7023 119.83 12.7413 120.002 12.8168C120.174 12.8924 120.329 13.0028 120.455 13.1411C120.582 13.2794 120.679 13.4425 120.738 13.62C120.798 13.7975 120.82 13.9854 120.803 14.1718H118.03C118.024 13.9815 118.056 13.7919 118.125 13.6143C118.194 13.4366 118.298 13.2745 118.431 13.1375C118.564 13.0005 118.723 12.8914 118.899 12.8167C119.075 12.742 119.264 12.7031 119.456 12.7024V12.7024ZM120.779 15.7881C120.656 16.0171 120.467 16.204 120.236 16.3247C120.005 16.4454 119.743 16.4942 119.484 16.4648C118.631 16.4648 118.076 15.8388 118.034 14.8484V14.8117H121.649V14.5053C121.649 12.9522 120.824 11.992 119.467 11.992C118.088 11.992 117.202 13.0117 117.202 14.584C117.202 16.1562 118.074 17.1664 119.467 17.1664C119.926 17.2125 120.387 17.1003 120.772 16.8486C121.157 16.597 121.444 16.2213 121.584 15.7844L120.779 15.7881Z" fill="white"/>
<rect x="0.428571" y="0.428571" width="143.143" height="47.1429" rx="9.85714" stroke="white" stroke-width="0.857143"/>
</svg>
