<svg width="168" height="48" viewBox="0 0 168 48" fill="none" xmlns="http://www.w3.org/2000/svg">
<path d="M10.1642 37.6115C8.84955 37.6115 7.64822 37.3735 6.56022 36.8975C5.49489 36.4215 4.56555 35.7642 3.77222 34.9255C2.97889 34.0642 2.36689 33.0555 1.93622 31.8995C1.52822 30.7435 1.32422 29.4969 1.32422 28.1595V27.3775C1.32422 26.0402 1.51689 24.7935 1.90222 23.6375C2.31022 22.4815 2.88822 21.4729 3.63622 20.6115C4.40689 19.7275 5.32489 19.0475 6.39022 18.5715C7.45555 18.0728 8.64555 17.8235 9.96022 17.8235C11.4562 17.8235 12.7482 18.1522 13.8362 18.8095C14.9242 19.4442 15.7742 20.3962 16.3862 21.6655C16.9982 22.9122 17.3382 24.4535 17.4062 26.2895L15.9782 24.9635V12.1795H21.4522V36.9995H17.1342V29.2815H17.8822C17.8142 31.0495 17.4402 32.5568 16.7602 33.8035C16.1029 35.0502 15.2076 36.0022 14.0742 36.6595C12.9409 37.2942 11.6376 37.6115 10.1642 37.6115ZM11.5242 33.0555C12.3629 33.0555 13.1222 32.8742 13.8022 32.5115C14.5049 32.1262 15.0602 31.5708 15.4682 30.8455C15.8989 30.1202 16.1142 29.2475 16.1142 28.2275V26.9695C16.1142 25.9722 15.8989 25.1335 15.4682 24.4535C15.0376 23.7735 14.4709 23.2522 13.7682 22.8895C13.0656 22.5269 12.3062 22.3455 11.4902 22.3455C10.5836 22.3455 9.76755 22.5835 9.04222 23.0595C8.33955 23.5129 7.78422 24.1475 7.37622 24.9635C6.96822 25.7569 6.76422 26.6862 6.76422 27.7515C6.76422 28.8395 6.96822 29.7802 7.37622 30.5735C7.78422 31.3669 8.35089 31.9789 9.07622 32.4095C9.80155 32.8402 10.6176 33.0555 11.5242 33.0555Z" fill="white"/>
<path d="M25.5705 36.9995V18.3675H31.0105V36.9995H25.5705ZM23.0885 22.3795V18.3675H31.0105V22.3795H23.0885ZM27.6785 16.5315C26.6585 16.5315 25.8991 16.2708 25.4005 15.7495C24.9245 15.2055 24.6865 14.5255 24.6865 13.7095C24.6865 12.8708 24.9245 12.1908 25.4005 11.6695C25.8991 11.1255 26.6585 10.8535 27.6785 10.8535C28.6985 10.8535 29.4465 11.1255 29.9225 11.6695C30.4211 12.1908 30.6705 12.8708 30.6705 13.7095C30.6705 14.5255 30.4211 15.2055 29.9225 15.7495C29.4465 16.2708 28.6985 16.5315 27.6785 16.5315Z" fill="white"/>
<path d="M34.3419 36.9995V18.3675H38.6599V26.3575H38.3539C38.3539 24.4535 38.5919 22.8669 39.0679 21.5975C39.5666 20.3282 40.3146 19.3762 41.3119 18.7415C42.3093 18.1069 43.5219 17.7895 44.9499 17.7895H45.1879C47.3639 17.7895 49.0186 18.5035 50.1519 19.9315C51.3079 21.3369 51.8859 23.4788 51.8859 26.3575V36.9995H46.4459V26.0515C46.4459 25.0542 46.1513 24.2382 45.5619 23.6035C44.9726 22.9688 44.1793 22.6515 43.1819 22.6515C42.1619 22.6515 41.3346 22.9802 40.6999 23.6375C40.0879 24.2722 39.7819 25.1108 39.7819 26.1535V36.9995H34.3419Z" fill="white"/>
<path d="M63.3556 37.6455C61.769 37.6455 60.3636 37.3735 59.1396 36.8295C57.9383 36.2855 56.9296 35.5602 56.1136 34.6535C55.3203 33.7242 54.7083 32.6929 54.2776 31.5595C53.8696 30.4035 53.6656 29.2249 53.6656 28.0235V27.3435C53.6656 26.0969 53.8696 24.9069 54.2776 23.7735C54.7083 22.6175 55.3203 21.5862 56.1136 20.6795C56.907 19.7728 57.893 19.0588 59.0716 18.5375C60.273 17.9935 61.633 17.7215 63.1516 17.7215C65.1463 17.7215 66.8236 18.1749 68.1836 19.0815C69.5663 19.9655 70.6203 21.1329 71.3456 22.5835C72.071 24.0115 72.4336 25.5755 72.4336 27.2755V29.1115H55.9436V26.0175H69.1356L67.3676 27.4455C67.3676 26.3349 67.209 25.3829 66.8916 24.5895C66.5743 23.7962 66.0983 23.1955 65.4636 22.7875C64.8516 22.3569 64.081 22.1415 63.1516 22.1415C62.1996 22.1415 61.395 22.3569 60.7376 22.7875C60.0803 23.2182 59.5816 23.8529 59.2416 24.6915C58.9016 25.5075 58.7316 26.5162 58.7316 27.7175C58.7316 28.8282 58.8903 29.8029 59.2076 30.6415C59.525 31.4575 60.0236 32.0922 60.7036 32.5455C61.3836 32.9989 62.2676 33.2255 63.3556 33.2255C64.353 33.2255 65.169 33.0329 65.8036 32.6475C66.4383 32.2622 66.869 31.7862 67.0956 31.2195H72.0936C71.8216 32.4662 71.289 33.5769 70.4956 34.5515C69.7023 35.5262 68.705 36.2855 67.5036 36.8295C66.3023 37.3735 64.9196 37.6455 63.3556 37.6455Z" fill="white"/>
<path d="M86.3064 37.5775C84.0851 37.5775 82.1811 37.1922 80.5944 36.4215C79.0304 35.6282 77.7498 34.5968 76.7524 33.3275C75.7778 32.0582 75.0638 30.6868 74.6104 29.2135C74.1571 27.7175 73.9304 26.2669 73.9304 24.8615V24.2155C73.9304 22.6969 74.1571 21.1895 74.6104 19.6935C75.0864 18.1749 75.8118 16.8035 76.7864 15.5795C77.7838 14.3555 79.0531 13.3809 80.5944 12.6555C82.1358 11.9075 83.9604 11.5335 86.0684 11.5335C88.1991 11.5335 90.0351 11.9075 91.5764 12.6555C93.1404 13.4035 94.3871 14.4575 95.3164 15.8175C96.2458 17.1549 96.8124 18.7415 97.0164 20.5775H94.3984C94.2171 19.1042 93.7411 17.8802 92.9704 16.9055C92.1998 15.9082 91.2138 15.1602 90.0124 14.6615C88.8338 14.1629 87.5191 13.9135 86.0684 13.9135C84.5044 13.9135 83.1218 14.1968 81.9204 14.7635C80.7418 15.3075 79.7558 16.0782 78.9624 17.0755C78.1691 18.0502 77.5684 19.1835 77.1604 20.4755C76.7524 21.7449 76.5484 23.1049 76.5484 24.5555C76.5484 25.9382 76.7411 27.2642 77.1264 28.5335C77.5344 29.8029 78.1464 30.9475 78.9624 31.9675C79.7784 32.9649 80.7984 33.7582 82.0224 34.3475C83.2464 34.9142 84.6744 35.1975 86.3064 35.1975C88.5731 35.1975 90.4771 34.6309 92.0184 33.4975C93.5597 32.3415 94.5118 30.6869 94.8744 28.5335H97.4924C97.2431 30.2335 96.6538 31.7748 95.7244 33.1575C94.7951 34.5175 93.5371 35.5942 91.9504 36.3875C90.3864 37.1809 88.5051 37.5775 86.3064 37.5775Z" fill="white"/>
<path d="M100.619 36.9995V12.1795H103.169V36.9995H100.619ZM98.0006 14.2535V12.1795H103.169V14.2535H98.0006Z" fill="white"/>
<path d="M116.137 37.5775C114.595 37.5775 113.235 37.3169 112.057 36.7955C110.901 36.2515 109.915 35.5375 109.099 34.6535C108.305 33.7469 107.693 32.7382 107.263 31.6275C106.855 30.5169 106.651 29.3835 106.651 28.2275V27.7515C106.651 26.5955 106.866 25.4622 107.297 24.3515C107.727 23.2182 108.351 22.2095 109.167 21.3255C109.983 20.4415 110.969 19.7389 112.125 19.2175C113.303 18.6735 114.641 18.4015 116.137 18.4015C117.655 18.4015 118.993 18.6735 120.149 19.2175C121.327 19.7389 122.325 20.4415 123.141 21.3255C123.957 22.2095 124.569 23.2182 124.977 24.3515C125.407 25.4622 125.623 26.5955 125.623 27.7515V28.2275C125.623 29.3835 125.419 30.5169 125.011 31.6275C124.603 32.7382 123.991 33.7469 123.175 34.6535C122.381 35.5375 121.395 36.2515 120.217 36.7955C119.038 37.3169 117.678 37.5775 116.137 37.5775ZM116.137 35.2995C117.633 35.2995 118.891 34.9708 119.911 34.3135C120.953 33.6335 121.747 32.7495 122.291 31.6615C122.835 30.5509 123.107 29.3269 123.107 27.9895C123.107 26.6295 122.823 25.4055 122.257 24.3175C121.713 23.2068 120.919 22.3342 119.877 21.6995C118.834 21.0422 117.587 20.7135 116.137 20.7135C114.709 20.7135 113.473 21.0422 112.431 21.6995C111.388 22.3342 110.583 23.2068 110.017 24.3175C109.473 25.4055 109.201 26.6295 109.201 27.9895C109.201 29.3269 109.473 30.5509 110.017 31.6615C110.561 32.7495 111.343 33.6335 112.363 34.3135C113.405 34.9708 114.663 35.2995 116.137 35.2995Z" fill="white"/>
<path d="M135.345 37.5095C133.191 37.5095 131.548 36.8182 130.415 35.4355C129.281 34.0302 128.715 32.0809 128.715 29.5875V18.9795H131.231V30.0975C131.231 31.6615 131.639 32.9082 132.455 33.8375C133.293 34.7442 134.449 35.1975 135.923 35.1975C137.464 35.1975 138.688 34.7102 139.595 33.7355C140.524 32.7609 140.989 31.4575 140.989 29.8255V18.9795H143.539V36.9995H141.499V29.4855H141.907C141.907 31.1629 141.669 32.6022 141.193 33.8035C140.717 34.9822 140.003 35.9002 139.051 36.5575C138.099 37.1922 136.897 37.5095 135.447 37.5095H135.345Z" fill="white"/>
<path d="M155.885 37.5775C154.57 37.5775 153.369 37.3395 152.281 36.8635C151.215 36.3649 150.286 35.6849 149.493 34.8235C148.722 33.9395 148.121 32.9422 147.691 31.8315C147.283 30.6982 147.079 29.4968 147.079 28.2275V27.7515C147.079 26.5275 147.283 25.3602 147.691 24.2495C148.099 23.1162 148.677 22.1189 149.425 21.2575C150.195 20.3735 151.113 19.6822 152.179 19.1835C153.267 18.6622 154.479 18.4015 155.817 18.4015C157.335 18.4015 158.673 18.7302 159.829 19.3875C160.985 20.0448 161.914 20.9969 162.617 22.2435C163.319 23.4675 163.693 24.9748 163.739 26.7655L162.617 24.6575V12.1795H165.167V36.9995H163.127V29.0095H163.943C163.897 30.8909 163.501 32.4775 162.753 33.7695C162.027 35.0389 161.064 35.9909 159.863 36.6255C158.684 37.2602 157.358 37.5775 155.885 37.5775ZM156.225 35.3335C157.449 35.3335 158.548 35.0615 159.523 34.5175C160.52 33.9735 161.302 33.2029 161.869 32.2055C162.435 31.1855 162.719 30.0182 162.719 28.7035V27.0715C162.719 25.8022 162.435 24.6915 161.869 23.7395C161.302 22.7649 160.52 22.0055 159.523 21.4615C158.548 20.9175 157.437 20.6455 156.191 20.6455C154.853 20.6455 153.686 20.9742 152.689 21.6315C151.714 22.2662 150.955 23.1388 150.411 24.2495C149.889 25.3602 149.629 26.6069 149.629 27.9895C149.629 29.4175 149.901 30.6869 150.445 31.7975C150.989 32.9082 151.759 33.7809 152.757 34.4155C153.754 35.0275 154.91 35.3335 156.225 35.3335Z" fill="white"/>
</svg>
