<svg width="152" height="40" viewBox="0 0 152 40" fill="none" xmlns="http://www.w3.org/2000/svg">
<path d="M21.4487 2.95799C22.0779 2.10744 22.8864 1.4024 23.818 0.891657C24.7497 0.380916 25.7824 0.0766771 26.8446 0C26.9352 0.977522 26.8246 1.96308 26.5194 2.89707C26.2142 3.83106 25.7208 4.69407 25.069 5.43392C22.6757 8.28125 19.9526 7.81513 19.9526 7.81513C19.8487 6.94712 19.928 6.06719 20.1855 5.2311C20.443 4.395 20.8732 3.62096 21.4487 2.95799ZM20.2397 9.75368C21.4004 9.75368 23.5559 8.17433 26.3595 8.17433C27.682 8.11804 28.9967 8.40167 30.1756 8.99761C31.3545 9.59355 32.3574 10.4815 33.0866 11.575C31.9485 12.2288 31.0053 13.1691 30.353 14.3004C29.7007 15.4316 29.3624 16.7136 29.3725 18.0162C29.3797 19.4901 29.8213 20.9299 30.6434 22.1589C31.4654 23.3879 32.632 24.3526 34 24.9347C34 24.9347 30.7653 33.9503 26.3955 33.9503C24.3887 33.9503 22.8292 32.612 20.7106 32.612C18.556 32.612 16.4176 34 15.0257 34C11.0397 33.9963 6 25.4477 6 18.577C6 11.817 10.2637 8.26999 14.2677 8.26999C16.8686 8.26999 18.8877 9.75461 20.2369 9.75461L20.2397 9.75368Z" fill="#CFCFD5"/>
<path d="M55.1775 32.6242H57.6592L52.2305 17.6576H49.7177L44.2812 32.6242H46.6794L48.0667 28.6522H53.8013L55.1775 32.6242ZM50.8509 20.3748H51.0275L53.2068 26.7013H48.6613L50.8509 20.3748ZM65.374 21.1462C64.6468 21.1289 63.9289 21.3119 63.2997 21.6749C62.6704 22.0379 62.1543 22.5669 61.8083 23.2033H61.6411V21.3365H59.4868V36.3793H61.7273V30.9133H61.9048C62.2452 31.5275 62.7547 32.0322 63.3735 32.3684C63.9923 32.7045 64.6947 32.8581 65.3981 32.811C68.2659 32.811 70.0901 30.5602 70.0901 26.9713C70.0901 23.3825 68.2616 21.1428 65.374 21.1428V21.1462ZM64.7372 30.8096C62.8604 30.8096 61.6816 29.337 61.6816 26.9825C61.6816 24.6279 62.8604 23.1476 64.7475 23.1476C66.6347 23.1476 67.7816 24.5893 67.7816 26.9748C67.7816 29.3602 66.6459 30.8096 64.7372 30.8096ZM78.1341 21.1428C77.4069 21.1255 76.689 21.3084 76.0598 21.6715C75.4305 22.0345 74.9144 22.5634 74.5684 23.1999H74.4012V21.333H72.2469V36.3793H74.4874V30.9133H74.6649C75.005 31.5268 75.5138 32.0311 76.1318 32.3672C76.7497 32.7033 77.4511 32.8573 78.1539 32.811C81.0216 32.811 82.8459 30.5602 82.8459 26.9713C82.8459 23.3825 81.0225 21.1428 78.1341 21.1428ZM77.4981 30.8096C75.6214 30.8096 74.4425 29.337 74.4425 26.9825C74.4425 24.6279 75.6214 23.1476 77.5085 23.1476C79.3956 23.1476 80.5425 24.5893 80.5425 26.9748C80.5425 29.3602 79.4068 30.8096 77.4981 30.8096ZM89.861 28.5999C90.0282 31.2759 92.2738 32.9876 95.606 32.9876C99.1717 32.9876 101.403 31.1936 101.403 28.3308C101.403 26.0799 100.132 24.8353 97.045 24.1196L95.3879 23.715C93.4276 23.259 92.6348 22.647 92.6348 21.5782C92.6348 20.2299 93.8653 19.3496 95.7111 19.3496C97.4629 19.3496 98.6728 20.2068 98.8916 21.5902H101.161C101.026 19.0702 98.7943 17.2959 95.7395 17.2959C92.4547 17.2959 90.2651 19.0693 90.2651 21.735C90.2651 23.9336 91.506 25.2408 94.229 25.8733L96.1686 26.3405C98.16 26.8076 99.0364 27.4916 99.0364 28.6325C99.0364 29.9602 97.6577 30.9245 95.7835 30.9245C93.7714 30.9245 92.3737 30.0219 92.1755 28.6008L89.861 28.5999ZM104.467 18.519V21.3819H102.663V23.259H104.467V29.6379C104.467 31.8159 105.458 32.6876 107.95 32.6876C108.359 32.6848 108.767 32.6476 109.17 32.5762V30.7162C108.886 30.75 108.601 30.7675 108.315 30.7685C107.199 30.7685 106.709 30.2499 106.709 29.067V23.259H109.17V21.3819H106.709V18.519H104.467ZM115.946 32.8419C119.261 32.8419 121.295 30.633 121.295 26.9713C121.295 23.331 119.251 21.111 115.946 21.111C112.64 21.111 110.586 23.331 110.586 26.9713C110.586 30.633 112.622 32.8419 115.946 32.8419ZM115.946 30.861C113.996 30.861 112.901 29.4399 112.901 26.9713C112.901 24.5233 113.996 23.0919 115.946 23.0919C117.895 23.0919 118.99 24.5233 118.99 26.9713C118.99 29.4193 117.885 30.8619 115.946 30.8619V30.861ZM123.451 32.6242H125.691V25.9548C125.688 25.5855 125.763 25.2197 125.911 24.8808C126.059 24.542 126.276 24.2377 126.549 23.9874C126.822 23.7372 127.145 23.5465 127.496 23.4277C127.848 23.3089 128.22 23.2646 128.59 23.2976C129.011 23.2999 129.43 23.345 129.841 23.4322V21.2362C129.512 21.1698 129.176 21.1385 128.84 21.1428C128.191 21.0998 127.545 21.2623 126.994 21.607C126.444 21.9518 126.017 22.4611 125.776 23.0619H125.609V21.3296H123.454L123.451 32.6242ZM135.836 23.0096C136.218 23.0009 136.598 23.0718 136.95 23.2176C137.303 23.3635 137.621 23.5811 137.884 23.8565C138.148 24.1319 138.35 24.459 138.478 24.8169C138.607 25.1747 138.659 25.5553 138.631 25.9342H132.896C132.891 25.5488 132.964 25.1662 133.11 24.8092C133.256 24.4521 133.472 24.1277 133.746 23.8552C134.02 23.5826 134.346 23.3674 134.705 23.2221C135.064 23.0769 135.449 23.0047 135.836 23.0096ZM138.62 29.5753C138.358 30.0446 137.961 30.4257 137.48 30.67C136.999 30.9144 136.456 31.011 135.92 30.9476C134.127 30.9476 132.969 29.6928 132.896 27.7119V27.5876H140.914V26.8093C140.914 23.2625 139.006 21.1153 135.847 21.1153C132.645 21.1153 130.612 23.4073 130.612 27.0168C130.612 30.6262 132.603 32.8453 135.857 32.8453C138.453 32.8453 140.268 31.6008 140.779 29.5779L138.62 29.5753Z" fill="#CFCFD5"/>
<path d="M51.1284 11.9315H52.1564L49.2636 4.12547H48.2951L45.4023 11.9315H46.4295L47.218 9.6969H50.339L51.1284 11.9315ZM48.7354 5.38547H48.8216L50.0521 8.86976H47.5066L48.7354 5.38547ZM57.8824 6.09947H56.8819L55.2775 10.9038H55.1913L53.5868 6.10376H52.5855L54.7553 11.9323H55.7126L57.8824 6.09947ZM61.1672 11.2175C60.4873 11.2175 59.9815 10.8746 59.9815 10.2746C59.9815 9.67462 60.3727 9.38233 61.2646 9.32233L62.8415 9.21947V9.75519C62.8325 9.96207 62.7815 10.165 62.6915 10.3518C62.6016 10.5385 62.4746 10.7052 62.3182 10.8419C62.1617 10.9785 61.9791 11.0822 61.7813 11.1468C61.5835 11.2113 61.3746 11.2354 61.1672 11.2175ZM60.9948 12.0343C61.3553 12.0488 61.7131 11.9672 62.0313 11.7979C62.3494 11.6287 62.6163 11.378 62.8044 11.0718H62.8906V11.9289H63.7824V7.9389C63.7824 6.7269 62.9828 5.99662 61.5524 5.99662C60.3012 5.99662 59.3774 6.6129 59.2516 7.5489H60.1995C60.3296 7.08947 60.8191 6.82376 61.5213 6.82376C62.3968 6.82376 62.8484 7.2189 62.8484 7.93805V8.46776L61.1568 8.57062C59.7919 8.65204 59.0198 9.25633 59.0198 10.296C59.0233 10.5428 59.0785 10.7861 59.182 11.0104C59.2854 11.2347 59.4348 11.4351 59.6205 11.5987C59.8062 11.7623 60.0242 11.8856 60.2606 11.9606C60.497 12.0356 60.7464 12.0607 60.9931 12.0343H60.9948ZM65.9763 11.9315H66.9096V6.1029H65.9738L65.9763 11.9315ZM66.4442 4.9149C66.617 4.91422 66.7826 4.84565 66.9047 4.72411C67.0269 4.60257 67.0959 4.43792 67.0966 4.26604C67.0959 4.09417 67.0269 3.92952 66.9047 3.80798C66.7826 3.68644 66.617 3.61786 66.4442 3.61719C66.2715 3.61786 66.1059 3.68644 65.9837 3.80798C65.8616 3.92952 65.7926 4.09417 65.7919 4.26604C65.7926 4.43748 65.8612 4.60174 65.9828 4.72321C66.1045 4.84467 66.2693 4.91355 66.4417 4.9149H66.4442ZM69.1931 11.9315H70.1289V3.78862H69.1931V11.9315ZM74.1961 11.2175C73.5162 11.2175 73.0104 10.8746 73.0104 10.2746C73.0104 9.67462 73.4016 9.38319 74.2944 9.32147L75.8713 9.21862V9.75433C75.8624 9.96137 75.8115 10.1645 75.7215 10.3514C75.6316 10.5383 75.5045 10.7052 75.348 10.8419C75.1914 10.9786 75.0086 11.0824 74.8107 11.147C74.6127 11.2115 74.4037 11.2355 74.1961 11.2175ZM74.0238 12.0343C74.3843 12.0488 74.7421 11.9672 75.0602 11.7979C75.3784 11.6287 75.6453 11.378 75.8334 11.0718H75.9195V11.9289H76.8114V7.9389C76.8114 6.7269 76.0117 5.99662 74.5813 5.99662C73.3301 5.99662 72.4064 6.6129 72.2806 7.5489H73.2284C73.3585 7.08947 73.848 6.82376 74.5503 6.82376C75.4258 6.82376 75.8773 7.2189 75.8773 7.93805V8.46776L74.1858 8.57062C72.8208 8.65204 72.0488 9.25633 72.0488 10.296C72.0523 10.5428 72.1075 10.7861 72.2109 11.0104C72.3143 11.2347 72.4637 11.4351 72.6494 11.5987C72.8352 11.7623 73.0532 11.8856 73.2895 11.9606C73.5259 12.0356 73.7754 12.0607 74.0221 12.0343H74.0238ZM81.898 12.0343C83.3827 12.0343 84.3565 10.8386 84.3565 9.01547C84.3565 7.19233 83.3888 5.99662 81.898 5.99662C81.5268 5.9829 81.159 6.07104 80.8348 6.25141C80.5106 6.43177 80.2425 6.69739 80.06 7.01919H79.9738V3.78433H79.0337V11.9272H79.9256V11.0006H80.0117C80.2032 11.3257 80.4793 11.5934 80.8111 11.7754C81.1428 11.9573 81.5177 12.0468 81.8963 12.0343H81.898ZM81.6783 6.83576C82.7494 6.83576 83.3862 7.65262 83.3862 9.01547C83.3862 10.3783 82.7494 11.196 81.6783 11.196C80.6072 11.196 79.9488 10.3629 79.9488 9.01633C79.9488 7.66976 80.6124 6.83576 81.6783 6.83576ZM86.322 11.9315H87.2578V3.78862H86.322V11.9315ZM91.8576 6.81947C92.0771 6.81938 92.2942 6.86485 92.4951 6.95299C92.696 7.04113 92.8761 7.17 93.024 7.33134C93.172 7.49269 93.2844 7.68297 93.3542 7.89002C93.424 8.09707 93.4496 8.31632 93.4293 8.53376H90.1997C90.1925 8.31212 90.2301 8.0913 90.3101 7.88433C90.3901 7.67735 90.511 7.4884 90.6656 7.32863C90.8202 7.16886 91.0054 7.0415 91.2102 6.95405C91.4151 6.86661 91.6355 6.82085 91.8584 6.81947H91.8576ZM93.4017 10.4195C93.2584 10.6866 93.0376 10.9047 92.7681 11.0455C92.4986 11.1863 92.1928 11.2432 91.8903 11.2089C90.895 11.2089 90.2479 10.4786 90.1988 9.32319V9.28033H94.4134V8.9229C94.4134 7.1109 93.4509 5.99062 91.8679 5.99062C90.2582 5.99062 89.2251 7.18033 89.2251 9.01462C89.2251 10.8489 90.2419 12.0275 91.8679 12.0275C92.4023 12.082 92.9393 11.9523 93.389 11.66C93.8388 11.3678 94.1739 10.9307 94.3384 10.422L93.4017 10.4195ZM102.326 12.0343C103.996 12.0343 105.03 10.8875 105.03 9.01547C105.03 7.14347 103.996 5.99662 102.326 5.99662C100.657 5.99662 99.6232 7.13833 99.6232 9.01547C99.6232 10.8926 100.656 12.0343 102.326 12.0343ZM102.326 11.196C101.217 11.196 100.592 10.3955 100.592 9.01633C100.592 7.63719 101.217 6.83576 102.326 6.83576C103.436 6.83576 104.061 7.63119 104.061 9.01547C104.061 10.3998 103.435 11.196 102.326 11.196ZM106.943 11.9315H107.879V8.47976C107.855 8.26776 107.877 8.05306 107.944 7.85041C108.011 7.64776 108.122 7.46196 108.268 7.30577C108.414 7.14958 108.593 7.0267 108.791 6.94557C108.989 6.86444 109.203 6.82698 109.417 6.83576C110.353 6.83576 110.796 7.33376 110.796 8.37862V11.9272H111.732V8.15576C111.772 7.87338 111.747 7.58572 111.66 7.31409C111.573 7.04246 111.425 6.79381 111.228 6.58655C111.031 6.37929 110.79 6.21873 110.523 6.11676C110.255 6.01479 109.968 5.97402 109.682 5.99747C109.318 5.96507 108.953 6.04609 108.637 6.2293C108.321 6.41252 108.071 6.68885 107.92 7.02004H107.834V6.09947H106.943L106.943 11.9315ZM117.867 4.5909V6.10033H116.919V6.87947H117.867V10.4169C117.867 11.5312 118.351 11.9752 119.559 11.9752C119.743 11.9733 119.927 11.9552 120.108 11.9212V11.136C119.964 11.151 119.821 11.1581 119.677 11.1575C119.068 11.1575 118.806 10.8652 118.806 10.1786V6.87862H120.112V6.09947H118.803V4.5909H117.867ZM122.021 11.9315H122.957V8.47976C122.936 8.26094 122.964 8.04019 123.037 7.83302C123.111 7.62585 123.23 7.43728 123.385 7.28059C123.54 7.12389 123.727 7.00286 123.935 6.92601C124.142 6.84917 124.363 6.81836 124.583 6.83576C125.47 6.83576 125.937 7.35004 125.937 8.37862V11.9272H126.873V8.15576C126.908 7.87653 126.88 7.59311 126.793 7.32546C126.706 7.05781 126.561 6.81245 126.368 6.60667C126.175 6.40089 125.939 6.23969 125.677 6.13443C125.414 6.02918 125.132 5.98243 124.85 5.99747C124.479 5.96419 124.107 6.04429 123.784 6.22705C123.46 6.4098 123.201 6.68649 123.04 7.02004H122.954V3.78433H122.022L122.021 11.9315ZM131.365 6.81947C131.584 6.81938 131.802 6.86485 132.002 6.95299C132.203 7.04113 132.383 7.17 132.531 7.33134C132.679 7.49269 132.792 7.68297 132.862 7.89002C132.931 8.09707 132.957 8.31632 132.937 8.53376H129.702C129.695 8.31176 129.732 8.09059 129.813 7.88333C129.893 7.67607 130.014 7.48693 130.169 7.3271C130.324 7.16727 130.51 7.04 130.715 6.95281C130.921 6.86562 131.142 6.82028 131.365 6.81947ZM132.909 10.4195C132.766 10.6866 132.545 10.9047 132.275 11.0455C132.006 11.1863 131.7 11.2432 131.398 11.2089C130.402 11.2089 129.755 10.4786 129.706 9.32319V9.28033H133.924V8.9229C133.924 7.1109 132.962 5.99062 131.379 5.99062C129.769 5.99062 128.736 7.18033 128.736 9.01462C128.736 10.8489 129.753 12.0275 131.379 12.0275C131.914 12.0812 132.451 11.9503 132.9 11.6568C133.35 11.3632 133.684 10.9248 133.847 10.4152L132.909 10.4195Z" fill="#CFCFD5"/>
</svg>
