<svg width="72" height="48" viewBox="0 0 72 48" fill="none" xmlns="http://www.w3.org/2000/svg">
<rect x="0.738281" width="70.7368" height="48" rx="10" fill="white"/>
<rect x="1.23828" y="0.5" width="69.7368" height="47" rx="9.5" stroke="#000028" stroke-opacity="0.1"/>
<path fill-rule="evenodd" clip-rule="evenodd" d="M17.6052 17.8679C18.5552 17.9472 19.5051 17.3921 20.0989 16.6883C20.6827 15.9646 21.0686 14.9932 20.9697 14.002C20.1286 14.0416 19.0895 14.5571 18.4958 15.2807C17.9515 15.9052 17.4864 16.9163 17.6052 17.8679ZM28.9001 30.6343V15.1805H34.689C37.6775 15.1805 39.7655 17.2423 39.7655 20.2558C39.7655 23.2692 37.6379 25.3508 34.6099 25.3508H31.2948V30.6343H28.9001ZM20.9572 18.0551C20.1203 18.0068 19.3567 18.3072 18.7399 18.5498C18.3429 18.706 18.0068 18.8382 17.7511 18.8382C17.4641 18.8382 17.1141 18.6989 16.7211 18.5425L16.7211 18.5425C16.2062 18.3376 15.6174 18.1033 15.0001 18.1146C13.585 18.1344 12.2689 18.9373 11.5465 20.216C10.0622 22.7735 11.1606 26.5601 12.5955 28.6417C13.298 29.6727 14.1392 30.8027 15.2475 30.763C15.7351 30.7446 16.0858 30.5955 16.4488 30.4412C16.8667 30.2636 17.3008 30.0791 17.9787 30.0791C18.633 30.0791 19.0481 30.2588 19.4467 30.4313C19.8256 30.5954 20.1895 30.7529 20.7296 30.7432C21.8775 30.7234 22.5999 29.7123 23.3025 28.6814C24.0607 27.575 24.3939 26.4951 24.4445 26.3312L24.4504 26.3123C24.4492 26.3111 24.4398 26.3068 24.4233 26.2992C24.1698 26.183 22.2326 25.2946 22.214 22.9123C22.1953 20.9127 23.7506 19.8996 23.9954 19.7401C24.0103 19.7304 24.0203 19.7238 24.0249 19.7204C23.0353 18.2533 21.4916 18.0947 20.9572 18.0551ZM44.1378 30.7525C45.642 30.7525 47.0372 29.9892 47.6706 28.7799H47.72V30.6336H49.9366V22.9414C49.9366 20.711 48.1554 19.2737 45.4144 19.2737C42.8712 19.2737 40.991 20.7309 40.9218 22.7332H43.079C43.2571 21.7816 44.1378 21.1571 45.3451 21.1571C46.8096 21.1571 47.631 21.8411 47.631 23.1V23.9525L44.6425 24.1309C41.8618 24.2994 40.3577 25.4394 40.3577 27.4219C40.3577 29.4242 41.9113 30.7525 44.1378 30.7525ZM44.7894 28.9205C43.5129 28.9205 42.7015 28.3059 42.7015 27.3642C42.7015 26.3928 43.4832 25.8278 44.9774 25.7385L47.6394 25.57V26.4423C47.6394 27.8896 46.4123 28.9205 44.7894 28.9205ZM57.2933 31.2385C56.3335 33.9447 55.2351 34.8368 52.8997 34.8368C52.7216 34.8368 52.1278 34.817 51.9893 34.7773V32.9237C52.1377 32.9435 52.5039 32.9633 52.6919 32.9633C53.7507 32.9633 54.3444 32.5173 54.7106 31.3575L54.9283 30.6735L50.8711 19.4227H53.3747L56.1949 28.5522H56.2444L59.0647 19.4227H61.499L57.2933 31.2385ZM31.2974 17.2062H34.0583C36.1364 17.2062 37.3239 18.3164 37.3239 20.2692C37.3239 22.222 36.1364 23.3421 34.0484 23.3421H31.2974V17.2062Z" fill="black"/>
</svg>
