<svg width="71" height="48" viewBox="0 0 71 48" fill="none" xmlns="http://www.w3.org/2000/svg">
<rect x="0.210938" width="70.7368" height="48" rx="10" fill="white"/>
<rect x="0.710938" y="0.5" width="69.7368" height="47" rx="9.5" stroke="#000028" stroke-opacity="0.1"/>
<path fill-rule="evenodd" clip-rule="evenodd" d="M21.6803 32.5163H17.395L14.1815 20.3846C14.029 19.8265 13.7052 19.3331 13.2288 19.1006C12.0399 18.5163 10.7299 18.0512 9.30078 17.8167V17.3496H16.204C17.1568 17.3496 17.8713 18.0512 17.9904 18.8661L19.6577 27.6171L23.9409 17.3496H28.1071L21.6803 32.5163ZM30.4885 32.5163H26.4414L29.7739 17.3496H33.821L30.4885 32.5163ZM39.0601 21.5514C39.1792 20.7346 39.8937 20.2675 40.7274 20.2675C42.0374 20.1502 43.4645 20.3848 44.6554 20.9671L45.37 17.7016C44.179 17.2345 42.869 17 41.6801 17C37.7521 17 34.8939 19.1008 34.8939 22.0165C34.8939 24.2346 36.9185 25.3992 38.3476 26.1008C39.8937 26.8004 40.4892 27.2675 40.3701 27.9671C40.3701 29.0165 39.1792 29.4836 37.9903 29.4836C36.5612 29.4836 35.1321 29.1338 33.8241 28.5494L33.1096 31.8169C34.5387 32.3992 36.0848 32.6338 37.514 32.6338C41.9183 32.749 44.6554 30.6502 44.6554 27.5C44.6554 23.5329 39.0601 23.3004 39.0601 21.5514V21.5514ZM58.818 32.5163L55.6046 17.3496H52.153C51.4384 17.3496 50.7238 17.8167 50.4857 18.5163L44.5352 32.5163H48.7013L49.5329 30.3002H54.6518L55.1282 32.5163H58.818ZM52.7492 21.4336L53.938 27.1497H50.6055L52.7492 21.4336Z" fill="#172B85"/>
</svg>
