<svg width="72" height="48" viewBox="0 0 72 48" fill="none" xmlns="http://www.w3.org/2000/svg">
<rect x="0.472656" width="70.7368" height="48" rx="10" fill="white"/>
<rect x="0.972656" y="0.5" width="69.7368" height="47" rx="9.5" stroke="#000028" stroke-opacity="0.1"/>
<path fill-rule="evenodd" clip-rule="evenodd" d="M33.8878 31.5189V25.477H37.0389C38.3302 25.477 39.4201 25.0488 40.3086 24.2043L40.5218 23.9903C42.1448 22.2419 42.0382 19.5183 40.3086 17.9008C39.4438 17.0444 38.2591 16.5806 37.0389 16.6044H31.9805V31.5189H33.8878ZM33.8889 23.646V18.4367H37.088C37.7752 18.4367 38.4269 18.6983 38.9127 19.1741C39.9435 20.1731 39.9672 21.8382 38.9719 22.8729C38.4861 23.3844 37.7989 23.6698 37.088 23.646H33.8889ZM49.4146 22.1087C48.5972 21.3594 47.4836 20.9788 46.0738 20.9788C44.2613 20.9788 42.899 21.6448 41.9986 22.965L43.6809 24.0235C44.2969 23.1196 45.138 22.6677 46.2042 22.6677C46.8794 22.6677 47.531 22.9174 48.0404 23.3694C48.5379 23.7976 48.8222 24.416 48.8222 25.0702V25.5102C48.0878 25.1058 47.1637 24.8918 46.0265 24.8918C44.6997 24.8918 43.6335 25.201 42.8397 25.8314C42.046 26.4617 41.6433 27.2943 41.6433 28.3528C41.6196 29.3162 42.0342 30.232 42.7687 30.8504C43.515 31.5165 44.4627 31.8495 45.5763 31.8495C46.8913 31.8495 47.9338 31.2667 48.7275 30.1011H48.8104V31.5165H50.6348V25.2248C50.6348 23.9046 50.232 22.858 49.4146 22.1087ZM44.239 29.6378C43.848 29.3524 43.611 28.8885 43.611 28.389C43.611 27.83 43.8717 27.3662 44.3812 26.9975C44.9025 26.6288 45.5542 26.4385 46.3243 26.4385C47.3907 26.4266 48.2201 26.6645 48.8125 27.1402C48.8125 27.949 48.4926 28.6507 47.8646 29.2454C47.2959 29.8162 46.5257 30.1374 45.7201 30.1374C45.1869 30.1493 44.6655 29.9709 44.239 29.6378ZM54.7326 36.0007L61.106 21.3122H59.0329L56.0831 28.6386H56.0476L53.0267 21.3122H50.9536L55.1354 30.8627L52.7661 36.0007H54.7326Z" fill="#3C4043"/>
<path d="M27.2992 24.1681C27.2992 23.5853 27.2518 23.0025 27.1571 22.4316H19.1133V25.7261H23.7216C23.532 26.7847 22.916 27.7362 22.0157 28.3308V30.4717H24.7641C26.3752 28.985 27.2992 26.7847 27.2992 24.1681Z" fill="#4285F4"/>
<path d="M19.1173 32.5412C21.4155 32.5412 23.3584 31.78 24.7681 30.4717L22.0197 28.3309C21.2497 28.8542 20.2664 29.1515 19.1173 29.1515C16.8902 29.1515 15.0066 27.641 14.3313 25.6191H11.5V27.8313C12.9453 30.7215 15.8951 32.5412 19.1173 32.5412Z" fill="#34A853"/>
<path d="M14.3291 25.6177C13.9736 24.5592 13.9736 23.4055 14.3291 22.3351V20.1348H11.4973C10.2769 22.5492 10.2769 25.4036 11.4973 27.818L14.3291 25.6177Z" fill="#FBBC04"/>
<path d="M19.1173 18.8023C20.3375 18.7785 21.5103 19.2423 22.3869 20.0868L24.8273 17.6367C23.2754 16.1857 21.2378 15.3888 19.1173 15.4126C15.8951 15.4126 12.9453 17.2442 11.5 20.1344L14.3313 22.3466C15.0066 20.3128 16.8902 18.8023 19.1173 18.8023Z" fill="#EA4335"/>
</svg>
