<svg width="57" height="38" viewBox="0 0 57 38" fill="none" xmlns="http://www.w3.org/2000/svg">
<rect x="0.0234375" width="56" height="38" rx="6" fill="#A6C307"/>
<g clip-path="url(#clip0_6474_103025)">
<path d="M46.9357 12.3991L44.4341 12.3982C44.1613 12.3982 43.9401 12.6198 43.94 12.8933L43.9398 13.2429H44.1134C45.2429 13.2429 45.663 13.4296 45.663 14.4607V15.9263L46.9344 15.9268C47.2072 15.9269 47.4284 15.7054 47.4285 15.432L47.4294 12.8943C47.4294 12.6208 47.2084 12.3992 46.9357 12.3991M33.2831 16.339C33.1677 16.1938 32.9494 16.1737 32.7306 16.1737H32.5665C32.0212 16.1737 31.8073 16.3422 31.6866 16.8665L30.1714 23.1777C29.9823 23.9534 29.7166 24.0951 29.2619 24.0951C28.7051 24.0951 28.4822 23.962 28.2603 23.1747L26.5441 16.8635C26.4021 16.335 26.1926 16.1737 25.6471 16.1737H25.501C25.2809 16.1737 25.0616 16.1941 24.9491 16.3412C24.8364 16.4885 24.8744 16.7084 24.9325 16.9245L26.6668 23.2904C26.9921 24.5087 27.3788 25.5171 28.8238 25.5171C29.0934 25.5171 29.3429 25.4796 29.5504 25.4094C29.1122 26.7906 28.6663 27.3997 27.3517 27.5351C27.0849 27.5573 26.9115 27.5956 26.815 27.7254C26.7146 27.86 26.7374 28.0528 26.7733 28.225L26.8094 28.3882C26.8879 28.7657 27.0216 28.9997 27.4445 28.9997C27.4889 28.9997 27.5367 28.9974 27.588 28.993C29.551 28.8642 30.6028 27.8051 31.2183 25.3376L33.3184 16.9199C33.3682 16.704 33.3983 16.4841 33.2831 16.339M22.7197 21.1879V22.4619C22.7197 23.5005 22.3354 24.1018 20.3712 24.1018C19.0735 24.1018 18.4427 23.6312 18.4427 22.6632C18.4427 21.6016 19.0756 21.1879 20.6998 21.1879H22.7197ZM20.3712 15.9058C19.3003 15.9058 18.6293 16.0404 18.3747 16.0915C17.9241 16.1896 17.7356 16.3136 17.7356 16.8271V16.9735C17.7356 17.1748 17.7654 17.3142 17.8291 17.4122C17.9034 17.5265 18.023 17.5844 18.1848 17.5844C18.2636 17.5844 18.3551 17.5711 18.4642 17.5438C18.7217 17.4793 19.5443 17.346 20.4442 17.346C22.0605 17.346 22.7197 17.7947 22.7197 18.8944V19.8757H20.6815C18.0615 19.8757 16.8411 20.7614 16.8411 22.6632C16.8411 24.5078 18.1013 25.5237 20.3895 25.5237C23.1087 25.5237 24.3213 24.5964 24.3213 22.5168V18.8944C24.3213 16.8834 23.0293 15.9058 20.3712 15.9058M15.2348 17.1259C15.2348 18.6403 14.849 19.461 12.8133 19.461H9.6798V15.5525C9.6798 15.0106 9.88092 14.809 10.4217 14.809H12.8133C14.347 14.809 15.2348 15.1883 15.2348 17.1259V17.1259ZM12.8133 13.2408H10.1112C8.66733 13.2408 8.02344 13.886 8.02344 15.333V24.6267C8.02344 25.1856 8.20249 25.3651 8.76042 25.3651H8.94296C9.50074 25.3651 9.6798 25.1856 9.6798 24.6267V21.0109H12.8133C15.5954 21.0109 16.8912 19.7764 16.8912 17.1259C16.8912 14.4752 15.5954 13.2408 12.8133 13.2408M47.1792 9.78001L45.9174 9.77957C45.7797 9.77942 45.6682 9.66766 45.6682 9.52971L45.6686 8.24957C45.6688 8.11162 45.7805 8 45.918 8L47.1798 8.00044C47.3174 8.00044 47.429 8.11235 47.429 8.25015L47.4285 9.53029C47.4284 9.66825 47.3169 9.78001 47.1792 9.78001M49.6549 12.4007L47.7969 12.3999C47.5944 12.3999 47.4301 12.2352 47.4303 12.0322L47.4309 10.1474C47.431 9.9443 47.5954 9.77971 47.798 9.77971L49.6557 9.78044C49.8585 9.78044 50.0227 9.94517 50.0227 10.1482L50.022 12.0331C50.022 12.2361 49.8576 12.4007 49.6549 12.4007M44.4328 15.926C44.16 15.926 43.9389 15.7044 43.9391 15.431L43.9398 13.2429H43.7577C42.6282 13.2429 42.2081 13.4298 42.2081 14.4608V16.8734C42.2079 16.8785 42.2074 16.8836 42.2074 16.8887V17.4175C42.2071 17.4358 42.2059 17.4528 42.2059 17.4718V20.8427C42.2059 21.2544 42.1268 21.5823 41.9634 21.8369C41.6554 22.3125 41.0456 22.5286 40.07 22.5299C39.0949 22.5286 38.4853 22.3126 38.1773 21.8375C38.0135 21.5827 37.9342 21.2547 37.9342 20.8427V17.4718C37.9342 17.4528 37.9332 17.4358 37.9329 17.4175V16.8887C37.9329 16.8836 37.9323 16.8785 37.9321 16.8734V14.4608C37.9321 13.4298 37.512 13.2429 36.3825 13.2429H36.0269C34.8972 13.2429 34.4773 13.4298 34.4773 14.4608V20.8427C34.4773 21.8694 34.7083 22.7386 35.1547 23.4392C36.0168 24.7969 37.687 25.52 40.0613 25.52C40.0642 25.52 40.0671 25.5199 40.07 25.5199C40.0731 25.5199 40.0759 25.52 40.0789 25.52C42.4532 25.52 44.1234 24.7969 44.9855 23.4392C45.4319 22.7386 45.663 21.8694 45.663 20.8427V15.9265L44.4328 15.926" fill="white"/>
</g>
<rect x="0.523438" y="0.5" width="55" height="37" rx="5.5" stroke="#000028" stroke-opacity="0.08"/>
<defs>
<clipPath id="clip0_6474_103025">
<rect width="42" height="21" fill="white" transform="translate(8.02344 8)"/>
</clipPath>
</defs>
</svg>
