<svg width="57" height="38" viewBox="0 0 57 38" fill="none" xmlns="http://www.w3.org/2000/svg">
<rect x="0.0234375" width="56" height="38" rx="6" fill="white"/>
<path fill-rule="evenodd" clip-rule="evenodd" d="M24.9977 27.8106L25.3188 25.7243L24.6034 25.7072H21.1875L23.5615 10.3114C23.5689 10.2648 23.5928 10.2215 23.6277 10.1907C23.6628 10.16 23.7075 10.1431 23.7543 10.1431H29.5141C31.4264 10.1431 32.746 10.55 33.4348 11.3533C33.7579 11.7301 33.9636 12.124 34.0632 12.5573C34.1676 13.0121 34.1693 13.5553 34.0675 14.218L34.0601 14.2662V14.6909L34.3831 14.8781C34.655 15.0257 34.8712 15.1946 35.037 15.3879C35.3133 15.7102 35.492 16.1198 35.5675 16.6052C35.6456 17.1044 35.6198 17.6987 35.492 18.3715C35.3446 19.1452 35.1063 19.8192 34.7845 20.3705C34.4887 20.8786 34.1117 21.3001 33.6639 21.6266C33.2365 21.9369 32.7288 22.1725 32.1546 22.3233C31.5982 22.4714 30.9639 22.5462 30.2681 22.5462H29.8199C29.4995 22.5462 29.1881 22.6642 28.9437 22.8759C28.6986 23.0919 28.5366 23.3871 28.4869 23.7099L28.453 23.8978L27.8856 27.5752L27.8599 27.7101C27.8531 27.7529 27.8414 27.7742 27.8242 27.7886C27.8089 27.8018 27.7868 27.8106 27.7653 27.8106H24.9977" fill="#28356A"/>
<path fill-rule="evenodd" clip-rule="evenodd" d="M34.6848 14.3149C34.6677 14.4274 34.648 14.5422 34.6259 14.6603C33.8664 18.6492 31.2676 20.0272 27.9487 20.0272H26.2588C25.8528 20.0272 25.5107 20.3286 25.4476 20.7382L24.3373 27.9414C24.2962 28.2104 24.4989 28.4527 24.7641 28.4527H27.7614C28.1162 28.4527 28.4177 28.189 28.4736 27.8309L28.503 27.6753L29.0674 24.0123L29.1037 23.8114C29.1589 23.4522 29.4611 23.1883 29.8159 23.1883H30.2642C33.1681 23.1883 35.4414 21.9825 36.1058 18.4928C36.3833 17.0351 36.2397 15.8179 35.5052 14.9618C35.283 14.7037 35.0073 14.4895 34.6848 14.3149" fill="#298FC2"/>
<path fill-rule="evenodd" clip-rule="evenodd" d="M33.8958 13.9912C33.7797 13.9566 33.66 13.9253 33.5372 13.8969C33.4137 13.8693 33.2873 13.8449 33.1571 13.8234C32.7014 13.7481 32.2021 13.7124 31.6674 13.7124H27.1528C27.0416 13.7124 26.9359 13.7381 26.8415 13.7845C26.6332 13.8869 26.4786 14.0885 26.4411 14.3354L25.4806 20.5571L25.4531 20.7385C25.5162 20.329 25.8584 20.0276 26.2643 20.0276H27.9542C31.2731 20.0276 33.8719 18.6489 34.6314 14.6606C34.6542 14.5426 34.6732 14.4277 34.6903 14.3153C34.4981 14.211 34.29 14.1218 34.0659 14.0458C34.0105 14.027 33.9534 14.0088 33.8958 13.9912" fill="#22284F"/>
<path fill-rule="evenodd" clip-rule="evenodd" d="M26.4387 14.3355C26.4762 14.0887 26.6308 13.8871 26.8391 13.7854C26.9342 13.7388 27.0392 13.7131 27.1504 13.7131H31.665C32.1997 13.7131 32.699 13.749 33.1547 13.8243C33.2849 13.8455 33.4113 13.8702 33.5348 13.8978C33.6576 13.9259 33.7773 13.9574 33.8934 13.9919C33.951 14.0095 34.0081 14.0278 34.064 14.0459C34.2881 14.1219 34.4964 14.2118 34.6886 14.3154C34.9146 12.8414 34.6867 11.8377 33.9075 10.9289C33.0484 9.9282 31.4979 9.5 29.5139 9.5H23.7539C23.3487 9.5 23.003 9.80136 22.9404 10.2116L20.5413 25.7657C20.494 26.0734 20.726 26.351 21.0294 26.351H24.5854L26.4387 14.3355" fill="#28356A"/>
<rect x="0.523438" y="0.5" width="55" height="37" rx="5.5" stroke="#000028" stroke-opacity="0.08"/>
</svg>
