<svg width="72" height="48" viewBox="0 0 72 48" fill="none" xmlns="http://www.w3.org/2000/svg">
<rect x="0.949219" width="70.7368" height="48" rx="10" fill="white"/>
<rect x="1.44922" y="0.5" width="69.7368" height="47" rx="9.5" stroke="#000028" stroke-opacity="0.1"/>
<path fill-rule="evenodd" clip-rule="evenodd" d="M36.818 33.3801C34.6242 35.2531 31.7788 36.3837 28.6696 36.3837C21.7306 36.3837 16.1055 30.7525 16.1055 23.8061C16.1055 16.8597 21.7306 11.2285 28.6696 11.2285C31.7788 11.2285 34.6242 12.3591 36.818 14.2321C39.0118 12.3591 41.8572 11.2285 44.9665 11.2285C51.9054 11.2285 57.5306 16.8597 57.5306 23.8061C57.5306 30.7525 51.9054 36.3837 44.9665 36.3837C41.8572 36.3837 39.0118 35.2531 36.818 33.3801Z" fill="#ED0006"/>
<path fill-rule="evenodd" clip-rule="evenodd" d="M44.9669 36.3837C51.9059 36.3837 57.531 30.7525 57.531 23.8061C57.531 16.8597 51.9059 11.2285 44.9669 11.2285C41.8567 11.2285 39.0105 12.3598 36.8164 14.2338C39.5175 16.5408 41.2303 19.9733 41.2303 23.8063C41.2303 27.6392 39.5176 31.0716 36.8166 33.3786C39.0107 35.2524 41.8568 36.3837 44.9669 36.3837Z" fill="#F9A000"/>
<path fill-rule="evenodd" clip-rule="evenodd" d="M36.8219 33.3785C39.5241 31.0716 41.2376 27.6384 41.2376 23.8045C41.2376 19.9707 39.5241 16.5374 36.8219 14.2305C34.1198 16.5374 32.4062 19.9707 32.4062 23.8045C32.4062 27.6384 34.1198 31.0716 36.8219 33.3785Z" fill="#FF5E00"/>
</svg>
