<svg width="71" height="48" viewBox="0 0 71 48" fill="none" xmlns="http://www.w3.org/2000/svg">
<rect width="70.7368" height="48" rx="10" fill="url(#paint0_linear_8727_28800)"/>
<rect x="0.5" y="0.5" width="69.7368" height="47" rx="9.5" stroke="#000028" stroke-opacity="0.1"/>
<path d="M34.478 14.8281H30.9297V34.4997H34.478V14.8281Z" fill="white"/>
<path d="M41.0639 21.4688H37.5156V34.4986H41.0639V21.4688Z" fill="white"/>
<path d="M56.9606 34.4997L51.6292 27.6039L56.5333 21.4699H52.3439L47.641 27.4211V14.8281H44.0938V34.4997H47.641V27.8098L52.3439 34.4997H56.9606Z" fill="white"/>
<path d="M21.8919 21.3216C20.7805 21.3201 19.6861 21.5921 18.7074 22.1132V14.8281H15.1602V27.9848C15.1603 29.3025 15.5552 30.5906 16.2951 31.6862C17.035 32.7818 18.0865 33.6357 19.3168 34.1399C20.5471 34.6441 21.9008 34.776 23.2068 34.5189C24.5128 34.2617 25.7124 33.6271 26.654 32.6953C27.5955 31.7635 28.2367 30.5763 28.4965 29.2839C28.7562 27.9915 28.6228 26.6519 28.1132 25.4344C27.6036 24.217 26.7407 23.1765 25.6335 22.4444C24.5263 21.7123 23.2246 21.3216 21.893 21.3216H21.8919ZM21.8919 31.1362C21.2621 31.1361 20.6464 30.9511 20.1228 30.6048C19.5992 30.2585 19.1911 29.7663 18.9501 29.1904C18.7092 28.6146 18.6462 27.9809 18.7691 27.3697C18.8921 26.7584 19.1954 26.1969 19.6408 25.7562C20.0862 25.3156 20.6536 25.0155 21.2714 24.8939C21.8891 24.7724 22.5294 24.8348 23.1112 25.0733C23.6931 25.3119 24.1904 25.7158 24.5403 26.234C24.8902 26.7523 25.077 27.3615 25.077 27.9848C25.077 28.3987 24.9946 28.8085 24.8345 29.1909C24.6745 29.5733 24.4398 29.9207 24.1441 30.2133C23.8483 30.506 23.4972 30.7381 23.1108 30.8964C22.7243 31.0548 22.3102 31.1362 21.8919 31.1362V31.1362Z" fill="white"/>
<path d="M25.3548 20.1144C27.1019 20.1144 28.5181 18.7128 28.5181 16.9839C28.5181 15.2551 27.1019 13.8535 25.3548 13.8535C23.6077 13.8535 22.1914 15.2551 22.1914 16.9839C22.1914 18.7128 23.6077 20.1144 25.3548 20.1144Z" fill="url(#paint1_radial_8727_28800)"/>
<defs>
<linearGradient id="paint0_linear_8727_28800" x1="35.3684" y1="48" x2="35.3684" y2="0" gradientUnits="userSpaceOnUse">
<stop stop-color="#262626"/>
<stop offset="1" stop-color="#010202"/>
</linearGradient>
<radialGradient id="paint1_radial_8727_28800" cx="0" cy="0" r="1" gradientUnits="userSpaceOnUse" gradientTransform="translate(22.7798 13.6845) scale(10.3695 10.2615)">
<stop stop-color="#E52620"/>
<stop offset="0.495" stop-color="#E83E4A"/>
<stop offset="1" stop-color="#A6539B"/>
</radialGradient>
</defs>
</svg>
