<svg width="57" height="38" viewBox="0 0 57 38" fill="none" xmlns="http://www.w3.org/2000/svg">
<rect x="0.0234375" width="56" height="38" rx="6" fill="white"/>
<path d="M14.2717 19.8846L18.0753 19.877L17.9373 20.7388L14.7548 23.7515H17.4235L17.2701 24.6744H13.3438L13.5048 23.721L16.5493 20.8151H14.1183L14.2717 19.8846Z" fill="#D13239"/>
<path d="M10.1238 18.4129C10.0394 18.329 9.92437 18.2604 9.794 18.207C9.65596 18.1536 9.50259 18.1155 9.34921 18.0849C9.1575 18.0544 8.97345 18.0392 8.84308 18.0316C8.72038 18.0239 8.64369 18.0239 8.64369 18.0239H6.97958H5.74492L4.64062 24.6748H5.6759L6.08234 22.2112L8.09154 22.2188C8.09154 22.2188 8.87375 22.2493 9.4259 21.9595C9.97805 21.6697 10.1314 21.0061 10.1314 21.0061C10.1314 21.0061 10.1928 20.7621 10.2465 20.457C10.3001 20.129 10.3615 19.7324 10.3845 19.5188C10.3998 19.4273 10.4075 19.3663 10.4075 19.3663C10.4075 19.3663 10.4228 19.2977 10.4228 19.1909C10.4228 19.046 10.3998 18.8248 10.2848 18.6112C10.2311 18.5426 10.1851 18.4739 10.1238 18.4129ZM9.32621 19.5875C9.32621 19.6027 9.23418 20.1366 9.11148 20.7697C9.06547 21.0138 8.88142 21.1434 8.6667 21.1892C8.31394 21.2655 7.9305 21.2502 7.9305 21.2502L6.25105 21.2426L6.61915 19.0307L8.13756 19.0383C8.13756 19.0383 8.23725 19.0383 8.38296 19.0383C8.544 19.0383 8.75872 19.046 8.94277 19.0688C9.09615 19.0917 9.21885 19.1222 9.25719 19.168C9.31087 19.229 9.32621 19.3129 9.33388 19.3892C9.34155 19.4883 9.32621 19.5799 9.32621 19.5875Z" fill="#D13239"/>
<path d="M23.2252 18.0239H24.2222L23.1102 24.6748H22.1133L23.2252 18.0239Z" fill="#D13239"/>
<path d="M28.5352 19.8851L29.4937 19.8774L29.8312 23.2563L31.2959 19.8774H32.4769L32.822 23.2715L34.2867 19.8774H35.2836L33.1747 24.6749H32.0014L31.664 21.319L30.1763 24.6749H29.026L28.5352 19.8851Z" fill="#D13239"/>
<path d="M21.3886 19.9232C21.1125 19.8317 20.6294 19.8164 20.2153 19.8164C19.8165 19.824 19.6401 19.8393 19.4867 19.8698C19.4867 19.8698 18.7812 19.9689 18.3824 20.4647C17.9837 20.9605 17.861 22.0359 17.861 22.0359C17.861 22.0359 17.6232 23.2257 17.6923 23.6223C17.7613 24.0189 17.884 24.385 18.3364 24.5605C18.7889 24.7359 19.1723 24.7283 19.1723 24.7283C19.1723 24.7283 19.9775 24.7893 20.5834 24.652C21.1892 24.5147 21.5113 24.0876 21.5113 24.0876C21.5113 24.0876 21.657 23.9045 21.7567 23.6834C21.8564 23.4622 21.887 23.3173 21.8947 23.2944L21.9561 23.035H20.9208C20.9208 23.035 20.8671 23.7139 20.3073 23.7749C19.7475 23.8359 19.4561 23.813 19.341 23.8054C19.2337 23.7978 18.6355 23.8283 18.6815 23.3325C18.6815 23.3249 18.6815 23.3173 18.6815 23.302C18.7045 22.7376 18.7735 22.5927 18.7735 22.5927L22.0174 22.585L22.1554 21.7842C22.3318 20.8766 22.2168 20.1901 21.3886 19.9232ZM21.1662 21.6698H18.9423L19.0266 21.3189C19.0266 21.3189 19.1033 21.0444 19.2567 20.93C19.41 20.8156 19.6094 20.7927 19.7935 20.7774C19.9775 20.7622 20.4683 20.724 20.8748 20.8079C21.0051 20.8308 21.1355 20.9071 21.1662 21.0215C21.2505 21.2732 21.1662 21.6698 21.1662 21.6698Z" fill="#D13239"/>
<path d="M18.7028 23.3101C18.7028 23.3178 18.7028 23.3255 18.7028 23.3332C18.6948 23.3717 18.7028 23.3101 18.7028 23.3101Z" fill="#D13239"/>
<path d="M27.4979 19.9232C27.2219 19.8317 26.7387 19.8164 26.3246 19.8164C25.9259 19.824 25.7495 19.8393 25.5961 19.8698C25.5961 19.8698 24.8906 19.9689 24.4918 20.4647C24.093 20.9605 23.9703 22.0359 23.9703 22.0359C23.9703 22.0359 23.7326 23.2257 23.8016 23.6223C23.8706 24.0189 23.9933 24.385 24.4458 24.5605C24.8983 24.7359 25.2817 24.7283 25.2817 24.7283C25.2817 24.7283 26.0869 24.7893 26.6927 24.652C27.2986 24.5071 27.6206 24.0876 27.6206 24.0876C27.6206 24.0876 27.7664 23.9045 27.866 23.6834C27.9657 23.4622 27.9964 23.3173 28.0041 23.2944L28.0654 23.035H27.0302C27.0302 23.035 26.9765 23.7139 26.4167 23.7749C25.8568 23.8359 25.5654 23.813 25.4504 23.813C25.343 23.8054 24.7449 23.8359 24.7909 23.3401C24.7909 23.3325 24.7909 23.3249 24.7909 23.3096C24.8139 22.7452 24.8829 22.6003 24.8829 22.6003L28.1268 22.5927L28.2648 21.7918C28.4412 20.8842 28.3338 20.1901 27.4979 19.9232ZM27.2756 21.6698H25.0516L25.136 21.3189C25.136 21.3189 25.2127 21.0444 25.366 20.93C25.5194 20.8156 25.7188 20.7927 25.9029 20.7774C26.0869 20.7622 26.5777 20.724 26.9841 20.8079C27.1145 20.8308 27.2449 20.9071 27.2756 21.0215C27.3599 21.2732 27.2756 21.6698 27.2756 21.6698Z" fill="#D13239"/>
<path d="M36.4304 19.8849L37.0669 23.3934L38.8691 19.8849L39.8814 19.8925L37.2817 24.9035C37.2817 24.9035 36.8139 25.8112 36.5225 26.04C36.231 26.2688 36.0547 26.3756 35.8169 26.3984C35.5792 26.4213 35.4795 26.4366 35.2571 26.3984L35.0117 26.3527L35.1651 25.4603C35.1651 25.4603 35.5715 25.5366 35.8093 25.4374C36.047 25.3459 36.2387 24.934 36.2387 24.934L36.3614 24.7281L35.4182 19.8696L36.4304 19.8849Z" fill="#D13239"/>
<path d="M40.2559 20.3576H41.2988L41.3602 19.9533C41.3602 19.9533 41.4752 19.2211 41.7206 19.0838C41.7973 19.0381 41.9276 18.9999 42.081 18.9694C42.3571 18.9237 42.7022 18.916 42.9859 18.9237C43.423 18.9389 43.5841 18.9466 44.0289 18.9923C44.4737 19.0457 44.3586 19.4652 44.3586 19.4652L44.2743 20.0982C44.2743 20.0982 44.2359 20.3805 44.1362 20.5559C44.0442 20.716 43.7988 20.8228 43.6531 20.8686C43.308 20.983 42.127 21.2805 42.127 21.2805L41.1991 21.5474C41.1991 21.5474 40.6316 21.7152 40.3096 22.0584C39.9875 22.4093 39.8648 22.8059 39.8188 23.0194C39.7727 23.2254 39.5273 24.6669 39.5273 24.6669H44.535L44.7037 23.6754L40.7467 23.683L40.8157 23.2788C40.8157 23.2788 40.8617 22.8593 41.0304 22.722C41.0841 22.6762 41.1071 22.6228 41.4292 22.5084C41.6209 22.4398 42.2651 22.272 42.2651 22.272L43.7605 21.8677C43.7605 21.8677 44.5734 21.6618 44.8954 21.2118C45.2175 20.7694 45.3402 19.9228 45.3402 19.9228C45.3402 19.9228 45.4246 19.0991 45.3632 18.8398C45.2942 18.5805 45.0488 18.2754 44.7574 18.1381C44.4583 18.0084 44.1516 17.9245 43.2467 17.9398C42.3494 17.955 41.897 17.9932 41.4445 18.161C40.9844 18.3288 40.7237 18.6338 40.555 19.061C40.3632 19.4805 40.2559 20.3576 40.2559 20.3576Z" fill="#B3B2B1"/>
<path d="M49.6796 22.2114L50.3852 18.0317H49.1428L45.2701 22.1656L45.0938 23.2106H48.4757L48.2303 24.6826H49.2732L49.5186 23.2106H50.4772L50.6459 22.2114H49.6796ZM48.652 22.2114H46.4664L49.1275 19.3894L48.652 22.2114Z" fill="#B3B2B1"/>
<path d="M12.3164 18.5731H15.5066C15.5066 18.5731 16.2198 18.0011 16.7259 17.6273C17.2321 17.2612 18.16 16.6739 18.16 16.6739L16.3578 15.835C16.3578 15.835 14.8317 16.7731 14.1876 17.2155C13.5587 17.6273 12.3164 18.5731 12.3164 18.5731Z" fill="#B3B2B1"/>
<path d="M19.1637 16.0864L17.6836 15.0949C17.6836 15.0949 19.0179 14.3398 20.8048 13.6305C22.5839 12.9288 23.5348 12.6313 23.5348 12.6313L23.8339 14.0347C23.8339 14.0347 22.1238 14.6068 21.1422 15.0644C20.1299 15.4991 19.1637 16.0864 19.1637 16.0864Z" fill="#B3B2B1"/>
<path d="M24.9326 13.7297L24.6719 12.2958C24.6719 12.2958 26.497 11.8153 28.1688 11.5025C29.8406 11.1898 32.0568 11.0449 32.0568 11.0449L31.3206 13.2644C31.3206 13.2644 29.3728 12.9975 27.54 13.2492C26.1213 13.417 24.9326 13.7297 24.9326 13.7297Z" fill="#B3B2B1"/>
<path d="M32.4883 13.4551L33.7229 10.9916C33.7229 10.9916 36.4223 10.9382 38.7536 11.2967C41.0849 11.6551 43.2168 12.2043 43.1708 12.2272L37.2582 15.3009C37.2582 15.3009 35.8779 14.4314 34.1601 13.8975C33.1938 13.6153 32.4883 13.4551 32.4883 13.4551Z" fill="#B3B2B1"/>
<path d="M38.3203 15.9722L39.6163 16.9561H50.2912C50.2912 16.9561 50.2682 16.6129 49.9844 16.1248C49.808 15.8197 49.486 15.4994 49.1485 15.1638C49.0258 15.0417 48.535 14.6604 48.1669 14.4239C47.2237 13.8138 46.6945 13.5773 45.7206 13.1426L38.3203 15.9722Z" fill="#B3B2B1"/>
<path d="M13.007 19.8774C12.6082 19.8774 12.2248 20.0376 11.9027 20.213L11.9564 19.8774H10.8981L10.0469 24.652H11.1128L11.5806 22.0054C11.6803 21.4715 12.0791 20.808 12.869 20.808H13.4211L13.5898 19.8774H13.007V19.8774Z" fill="#D13239"/>
<rect x="0.523438" y="0.5" width="55" height="37" rx="5.5" stroke="#000028" stroke-opacity="0.08"/>
</svg>
