<svg width="108" height="56" viewBox="0 0 108 56" fill="none" xmlns="http://www.w3.org/2000/svg">
<rect x="0.496094" width="106.87" height="56" rx="10" fill="white"/>
<rect x="0.996094" y="0.5" width="105.87" height="55" rx="9.5" stroke="#000028" stroke-opacity="0.1"/>
<g clip-path="url(#clip0_9400_45985)">
<path d="M20.5107 25.8679C20.5107 26.2575 20.9043 26.5688 21.6835 26.7917L23.5613 27.352C24.5594 27.6452 25.3346 28.0991 25.8668 28.6976C26.405 29.3021 26.6781 30.0552 26.6781 30.9348C26.6781 32.0655 26.2403 32.9953 25.3768 33.6942C24.5212 34.3871 23.3825 34.7385 21.9908 34.7385C20.6754 34.7385 19.5146 34.4232 18.5425 33.8006C17.5645 33.1761 16.8877 32.3205 16.5343 31.2581L16.4961 31.1417L19.1029 29.9086L19.1611 30.0331C19.4503 30.6416 19.8499 31.1236 20.344 31.467C20.836 31.8084 21.3883 31.9811 21.9908 31.9811C22.5431 31.9811 23.2761 31.8867 23.2761 31.0633C23.2761 30.6556 22.9287 30.3604 22.2137 30.1616L20.2074 29.6013C19.2213 29.3221 18.4522 28.8602 17.918 28.2316C17.3818 27.597 17.1086 26.8379 17.1086 25.9743C17.1086 25.2152 17.3054 24.5444 17.693 23.9781C18.0786 23.4137 18.6269 22.9659 19.3238 22.6466C20.0146 22.3313 20.8179 22.1706 21.7096 22.1706C22.8805 22.1706 23.9248 22.4498 24.8124 23C25.7041 23.5523 26.3448 24.3416 26.7123 25.3437L26.7565 25.4622L24.1095 26.7013L24.0593 26.5587C23.8987 26.1008 23.6014 25.7293 23.1757 25.4522C22.7479 25.173 22.2539 25.0324 21.7096 25.0324C21.324 25.0324 21.0208 25.1107 20.8099 25.2654C20.6091 25.412 20.5107 25.6088 20.5107 25.8659V25.8679ZM37.4667 22.751C36.7799 22.3674 35.9705 22.1726 35.0588 22.1726C34.382 22.1726 33.7614 22.2891 33.2151 22.518C32.7874 22.6968 32.4178 22.9538 32.1126 23.2832V18.4131L28.6021 18.9975V34.4794H32.1126V27.4625C32.1126 26.8278 32.3034 26.3117 32.6769 25.9301C33.0565 25.5445 33.5304 25.3578 34.1309 25.3578C34.7314 25.3578 35.2054 25.5445 35.5849 25.9301C35.9585 26.3117 36.1493 26.8258 36.1493 27.4625V34.4794H39.6598V26.7736C39.6598 25.8618 39.465 25.0525 39.0814 24.3657C38.6958 23.6788 38.1535 23.1346 37.4647 22.749L37.4667 22.751ZM53.3182 25.2132C53.8966 26.151 54.1898 27.2415 54.1898 28.4566C54.1898 29.6716 53.8966 30.742 53.3182 31.6879C52.7398 32.6318 51.9565 33.3849 50.9926 33.9251C50.0266 34.4654 48.9381 34.7405 47.7552 34.7405C46.5723 34.7405 45.4798 34.4654 44.5078 33.9251C43.5358 33.3849 42.7485 32.6318 42.1721 31.6879C41.5937 30.744 41.3005 29.6555 41.3005 28.4566C41.3005 27.2576 41.5937 26.151 42.1721 25.2132C42.7505 24.2773 43.5358 23.5282 44.5078 22.988C45.4798 22.4477 46.5723 22.1726 47.7552 22.1726C48.9381 22.1726 50.0266 22.4477 50.9926 22.988C51.9565 23.5282 52.7398 24.2773 53.3182 25.2132ZM50.5728 28.4566C50.5728 27.5609 50.3097 26.8118 49.7876 26.2314C49.2715 25.653 48.5866 25.3618 47.7552 25.3618C46.9238 25.3618 46.2349 25.655 45.7128 26.2334C45.1866 26.8158 44.9175 27.5649 44.9175 28.4586C44.9175 29.3523 45.1846 30.1194 45.7107 30.6938C46.2349 31.2642 46.9218 31.5554 47.7552 31.5554C48.5886 31.5554 49.2715 31.2662 49.7876 30.6958C50.3077 30.1214 50.5708 29.3683 50.5708 28.4586L50.5728 28.4566ZM68.0952 25.2714C68.6374 26.2153 68.9106 27.2877 68.9106 28.4566C68.9106 29.6254 68.6394 30.6777 68.1052 31.6297C67.571 32.5816 66.832 33.3448 65.9102 33.901C64.9864 34.4573 63.926 34.7405 62.7551 34.7405C62.0824 34.7405 61.4397 34.6401 60.8473 34.4433C60.3532 34.2786 59.9114 34.0416 59.5298 33.7404V37.9116L56.0193 38.5V22.4297H59.3149V23.4419C60.1584 22.5984 61.3212 22.1706 62.7772 22.1706C63.9179 22.1706 64.9663 22.4538 65.8881 23.0101C66.8099 23.5664 67.5509 24.3275 68.0932 25.2694L68.0952 25.2714ZM60.3251 26.2213C59.7989 26.7957 59.5318 27.5488 59.5318 28.4566C59.5318 29.3643 59.7989 30.1355 60.3251 30.7018C60.8493 31.2662 61.5361 31.5534 62.3695 31.5534C63.203 31.5534 63.924 31.2622 64.4682 30.6898C65.0145 30.1154 65.2936 29.3643 65.2936 28.4566C65.2936 27.5488 65.0165 26.8158 64.4682 26.2334C63.922 25.655 63.217 25.3598 62.3695 25.3598C61.522 25.3598 60.8493 25.649 60.3251 26.2213ZM81.4765 25.1047C81.9384 25.9904 82.1713 27.0026 82.1713 28.1111C82.1713 28.3441 82.1593 28.5771 82.1392 28.804C82.1171 29.037 82.0749 29.2398 82.0127 29.4085L81.9805 29.4989H73.8048C73.9092 30.1234 74.1823 30.6376 74.6222 31.0252C75.0961 31.4449 75.7187 31.6598 76.4718 31.6598C77.0201 31.6598 77.494 31.5493 77.8816 31.3324C78.2672 31.1155 78.5725 30.8143 78.7894 30.4347L78.8536 30.3243L81.6753 31.6638L81.6251 31.7843C81.2555 32.672 80.5968 33.395 79.669 33.9312C78.7472 34.4654 77.6567 34.7365 76.4296 34.7365C75.2025 34.7365 74.0397 34.4513 73.1019 33.887C72.164 33.3227 71.429 32.5555 70.9168 31.6016C70.4047 30.6516 70.1457 29.5852 70.1457 28.4305C70.1457 27.2757 70.4168 26.151 70.951 25.2132C71.4852 24.2773 72.2162 23.5262 73.124 22.986C74.0337 22.4437 75.072 22.1686 76.2127 22.1686C77.484 22.1686 78.5725 22.4357 79.4541 22.9639C80.3357 23.4921 81.0166 24.211 81.4785 25.0987L81.4765 25.1047ZM74.6924 25.5445C74.3169 25.8518 74.0478 26.2916 73.8871 26.8519H78.4439C78.3536 26.3398 78.1226 25.9141 77.7571 25.5827C77.3534 25.2192 76.8333 25.0364 76.2107 25.0364C75.5881 25.0364 75.1021 25.2071 74.6924 25.5445ZM90.3511 22.3032C89.6141 22.3032 88.9533 22.4417 88.383 22.7149C87.9472 22.9237 87.5837 23.2711 87.2985 23.7511V22.4317H84.0029V34.4814L87.5134 33.9251V28.0047C87.5134 27.1713 87.7463 26.5186 88.2062 26.0647C88.6661 25.6108 89.2787 25.3819 90.0278 25.3819H91.1785V22.3032H90.3511Z" fill="#002FFF"/>
</g>
<defs>
<clipPath id="clip0_9400_45985">
<rect width="74.8696" height="21" fill="white" transform="translate(16.4961 17.5)"/>
</clipPath>
</defs>
</svg>
