<svg width="150" height="56" viewBox="0 0 150 56" fill="none" xmlns="http://www.w3.org/2000/svg">
<rect x="0.367188" width="149" height="56" rx="10" fill="white"/>
<rect x="0.867188" y="0.5" width="148" height="55" rx="9.5" stroke="#000028" stroke-opacity="0.1"/>
<g clip-path="url(#clip0_9400_45989)">
<path fill-rule="evenodd" clip-rule="evenodd" d="M52.3759 17.5938H20.0527C18.0071 17.5938 16.3512 19.2659 16.3673 21.2953V33.6336C16.3673 35.6791 18.0234 37.3351 20.0689 37.3351H35.3782L42.3754 41.2314L40.7844 37.3351H52.3759C54.4216 37.3351 56.0774 35.6791 56.0774 33.6336V21.2953C56.0774 19.2497 54.4216 17.5938 52.3759 17.5938ZM19.3709 20.451C18.9163 20.4835 18.5754 20.6459 18.3481 20.9543C18.1208 21.2465 18.0397 21.6199 18.0884 22.042C19.0462 28.1301 19.9391 32.2374 20.7671 34.3642C21.0918 35.1434 21.4652 35.5169 21.9035 35.4844C22.5854 35.4356 23.3971 34.4941 24.355 32.6596C24.8582 31.6205 25.6375 30.062 26.6928 27.9839C27.5694 31.0523 28.7707 33.3577 30.2806 34.8999C30.7028 35.3382 31.1411 35.5331 31.5631 35.5006C31.9366 35.4681 32.2287 35.2733 32.4236 34.9161C32.5859 34.6077 32.6509 34.2505 32.6184 33.8446C32.521 32.3673 32.6672 30.3055 33.073 27.6592C33.495 24.9318 34.0146 22.9674 34.6477 21.7985C34.7776 21.555 34.8263 21.3115 34.8101 21.0193C34.7776 20.6459 34.6153 20.3374 34.3068 20.0939C33.9984 19.8504 33.6574 19.7367 33.284 19.7692C32.8132 19.8017 32.456 20.0289 32.2125 20.4835C31.206 22.318 30.4916 25.289 30.0696 29.4126C29.4526 27.8541 28.9331 26.0195 28.5272 23.8603C28.3487 22.9025 27.9104 22.4479 27.196 22.4966C26.709 22.5291 26.3031 22.8538 25.9784 23.4707L22.423 30.2406C21.8386 27.8865 21.2866 25.013 20.7833 21.6199C20.6697 20.7757 20.1989 20.3861 19.3709 20.451ZM50.6551 21.62C51.8078 21.8635 52.6683 22.4804 53.2527 23.5032C53.7722 24.3799 54.0319 25.4352 54.0319 26.7014C54.0319 28.3736 53.6099 29.8997 52.7656 31.2958C51.7915 32.9193 50.5252 33.731 48.9505 33.731C48.6745 33.731 48.3823 33.6986 48.0738 33.6336C46.9212 33.3901 46.0607 32.7733 45.4762 31.7505C44.9568 30.8575 44.697 29.7861 44.697 28.5359C44.697 26.8638 45.1191 25.3377 45.9633 23.9578C46.9536 22.3343 48.2199 21.5226 49.7785 21.5226C50.0544 21.5226 50.3467 21.5551 50.6551 21.62ZM49.9733 30.4029C50.574 29.8672 50.9798 29.0717 51.2071 28.0002C51.2721 27.6268 51.3207 27.221 51.3207 26.7989C51.3207 26.3281 51.2233 25.8248 51.0285 25.3215C50.785 24.6883 50.4603 24.3474 50.0706 24.2662C49.4862 24.1526 48.918 24.4773 48.3823 25.2728C47.944 25.8897 47.6679 26.5391 47.5218 27.2047C47.4406 27.5781 47.4081 27.984 47.4081 28.3899C47.4081 28.8607 47.5056 29.3639 47.7004 29.8672C47.944 30.5003 48.2686 30.8412 48.6583 30.9225C49.0641 31.0036 49.5024 30.8251 49.9733 30.4029ZM43.0735 23.5032C42.489 22.4804 41.6124 21.8635 40.476 21.62C40.1674 21.5551 39.8753 21.5226 39.5992 21.5226C38.0408 21.5226 36.7745 22.3343 35.7841 23.9578C34.9399 25.3377 34.5178 26.8638 34.5178 28.5359C34.5178 29.7861 34.7776 30.8575 35.2971 31.7505C35.8816 32.7733 36.742 33.3901 37.8946 33.6336C38.203 33.6986 38.4953 33.731 38.7713 33.731C40.3461 33.731 41.6124 32.9193 42.5864 31.2958C43.4307 29.8997 43.8527 28.3736 43.8527 26.7014C43.8527 25.4352 43.593 24.3799 43.0735 23.5032ZM41.0279 28.0002C40.8007 29.0717 40.3947 29.8672 39.7941 30.4029C39.3233 30.8251 38.8849 31.0036 38.4791 30.9225C38.0894 30.8412 37.7647 30.5003 37.5212 29.8672C37.3264 29.3639 37.229 28.8607 37.229 28.3899C37.229 27.984 37.2615 27.5781 37.3427 27.2047C37.4888 26.5391 37.7647 25.8897 38.203 25.2728C38.7389 24.4773 39.3071 24.1526 39.8915 24.2662C40.2811 24.3474 40.6059 24.6883 40.8493 25.3215C41.0442 25.8248 41.1416 26.3281 41.1416 26.7989C41.1416 27.221 41.1091 27.6268 41.0279 28.0002Z" fill="#7F54B3"/>
<path fill-rule="evenodd" clip-rule="evenodd" d="M60.186 23.3572C59.0982 24.4287 58.5625 25.7924 58.5625 27.4484C58.5625 29.218 59.0982 30.6628 60.1698 31.7506C61.2413 32.8383 62.6375 33.3902 64.3746 33.3902C64.8778 33.3902 65.446 33.3091 66.063 33.1305V30.5005C65.4948 30.6628 65.0077 30.744 64.5856 30.744C63.7251 30.744 63.0433 30.4518 62.5238 29.8836C62.0043 29.2991 61.7445 28.5199 61.7445 27.5295C61.7445 26.6042 62.0043 25.8411 62.5076 25.2567C63.027 24.656 63.6602 24.3638 64.4395 24.3638C64.9428 24.3638 65.4785 24.445 66.063 24.6073V21.9773C65.5273 21.8312 64.9266 21.7662 64.2933 21.7662C62.6375 21.75 61.2737 22.2858 60.186 23.3572ZM71.4529 21.75C69.9593 21.75 68.7904 22.2533 67.9461 23.2436C67.102 24.2339 66.6961 25.6301 66.6961 27.4159C66.6961 29.3479 67.1182 30.8252 67.9461 31.848C68.7741 32.8708 69.9918 33.3902 71.5828 33.3902C73.125 33.3902 74.3101 32.8708 75.1381 31.848C75.9661 30.8252 76.3882 29.3803 76.3882 27.5295C76.3882 25.6788 75.9661 24.2501 75.1219 23.2436C74.2615 22.2533 73.0438 21.75 71.4529 21.75ZM72.7354 30.192C72.4431 30.6466 72.0048 30.8739 71.4529 30.8739C70.9334 30.8739 70.5437 30.6466 70.2677 30.192C69.9918 29.7374 69.8619 28.8283 69.8619 27.4484C69.8619 25.3216 70.3976 24.2664 71.4854 24.2664C72.6218 24.2664 73.2062 25.3379 73.2062 27.4971C73.19 28.8283 73.0276 29.7374 72.7354 30.192ZM84.4081 22.0585L83.8237 24.5424C83.6776 25.1755 83.5315 25.8249 83.4016 26.4905L83.0769 28.2114C82.7685 26.4905 82.3463 24.445 81.8106 22.0585H78.0442L76.6317 33.1143H79.4565L80.2196 25.5002L82.1515 33.1143H84.1647L86.0154 25.5164L86.8109 33.1143H89.7656L88.272 22.0585H84.4081ZM97.9316 22.0585L97.3472 24.5424C97.201 25.1755 97.055 25.8249 96.9251 26.4905L96.6004 28.2114C96.2919 26.4905 95.8698 24.445 95.3341 22.0585H91.5676L90.1553 33.1143H92.98L93.743 25.5002L95.675 33.1143H97.6881L99.5226 25.5164L100.318 33.1143H103.273L101.779 22.0585H97.9316ZM107.12 28.7472H109.767V26.4581H107.12V24.4287H110.173V22.0747H104.133V33.1305H110.189V30.7765H107.12V28.7472ZM118.598 26.9938C118.907 26.4905 119.069 25.971 119.069 25.4353C119.069 24.3963 118.663 23.5683 117.852 22.9676C117.04 22.3669 115.92 22.0585 114.523 22.0585H111.049V33.1143H114.036V28.0816H114.085L116.504 33.1143H119.654L117.267 28.1302C117.835 27.8705 118.29 27.4971 118.598 26.9938ZM114.02 26.8152V24.1852C114.734 24.2014 115.238 24.3151 115.546 24.5424C115.855 24.7697 116.001 25.1268 116.001 25.6463C116.001 26.4094 115.335 26.799 114.02 26.8152ZM120.822 23.3572C119.735 24.4287 119.199 25.7924 119.199 27.4484C119.199 29.218 119.735 30.6628 120.807 31.7506C121.878 32.8383 123.274 33.3902 125.011 33.3902C125.514 33.3902 126.083 33.3091 126.699 33.1305V30.5005C126.132 30.6628 125.644 30.744 125.222 30.744C124.362 30.744 123.68 30.4518 123.16 29.8836C122.641 29.2991 122.381 28.5199 122.381 27.5295C122.381 26.6042 122.641 25.8411 123.144 25.2567C123.664 24.656 124.296 24.3638 125.076 24.3638C125.579 24.3638 126.115 24.445 126.699 24.6073V21.9773C126.164 21.8312 125.563 21.7662 124.93 21.7662C123.29 21.75 121.91 22.2858 120.822 23.3572ZM130.515 30.744V28.7309H133.16V26.4418H130.515V24.4125H133.583V22.0585H127.544V33.1143H133.599V30.7602H130.515V30.744Z" fill="black"/>
</g>
<defs>
<clipPath id="clip0_9400_45989">
<rect width="117" height="26" fill="white" transform="translate(16.3672 15)"/>
</clipPath>
</defs>
</svg>
