<svg width="116" height="56" viewBox="0 0 116 56" fill="none" xmlns="http://www.w3.org/2000/svg">
<rect width="116" height="56" rx="10" fill="white"/>
<rect x="0.5" y="0.5" width="115" height="55" rx="9.5" stroke="#000028" stroke-opacity="0.1"/>
<g clip-path="url(#clip0_9400_45960)">
<mask id="mask0_9400_45960" style="mask-type:luminance" maskUnits="userSpaceOnUse" x="16" y="14" width="85" height="24">
<path d="M16 14H100.375V38H16V14Z" fill="white"/>
</mask>
<g mask="url(#mask0_9400_45960)">
<path d="M45.1912 27.3463C44.4727 26.951 44.0943 26.6308 44.0943 26.1793C44.0943 25.5958 44.6051 25.238 45.4181 25.238C46.3631 25.238 47.1952 25.6333 47.1952 25.6333L47.8567 23.6191C47.8567 23.6191 47.2518 23.1485 45.4556 23.1485C42.9603 23.1485 41.2207 24.5791 41.2207 26.5745C41.2207 27.7036 42.0337 28.5695 43.1114 29.1909C43.9814 29.6803 44.2837 30.038 44.2837 30.5461C44.2837 31.0921 43.8487 31.5249 43.0357 31.5249C41.8259 31.5249 40.6916 30.9039 40.6916 30.9039L39.9922 32.9176C39.9922 32.9176 41.0508 33.6144 42.8088 33.6144C45.3802 33.6144 47.2139 32.3533 47.2139 30.0943C47.2514 28.8519 46.3064 27.986 45.1912 27.3463ZM55.4381 23.111C54.1713 23.111 53.1881 23.7133 52.4129 24.6166L52.3754 24.5979L53.4719 18.8754H50.5983L47.8192 33.4261H50.6737L51.6191 28.4566C51.9971 26.5741 52.9616 25.4263 53.8687 25.4263C54.5114 25.4263 54.7574 25.859 54.7574 26.48C54.7574 26.8756 54.7196 27.3463 54.6251 27.7415L53.5473 33.4453H56.4022L57.5174 27.572C57.6498 26.951 57.7256 26.2168 57.7256 25.7083C57.7634 24.071 56.9313 23.111 55.4381 23.111ZM64.2288 23.1106C60.7878 23.1106 58.5003 26.198 58.5003 29.6424C58.5003 31.8448 59.8616 33.6331 62.4326 33.6331C65.8166 33.6331 68.0853 30.6215 68.0853 27.1014C68.1044 25.0498 66.9134 23.1106 64.2288 23.1106ZM62.8297 31.4308C61.8464 31.4308 61.4497 30.6024 61.4497 29.567C61.4497 27.9298 62.3002 25.2755 63.8504 25.2755C64.8716 25.2755 65.1929 26.1414 65.1929 26.9885C65.1929 28.7577 64.3421 31.4308 62.8297 31.4308ZM75.4207 23.1106C73.4924 23.1106 72.3959 24.8049 72.3959 24.8049H72.3581L72.5283 23.2801H69.9948C69.8624 24.3155 69.6356 25.8777 69.4087 27.0639L67.4238 37.4544H70.2787L71.0726 33.2379H71.1292C71.1292 33.2379 71.7153 33.6144 72.8118 33.6144C76.1771 33.6144 78.3701 30.1884 78.3701 26.7249C78.3701 24.8236 77.5192 23.1106 75.4207 23.1106ZM72.6986 31.4874C71.9609 31.4874 71.5263 31.073 71.5263 31.073L71.9988 28.4191C72.3393 26.6495 73.2656 25.4638 74.2488 25.4638C75.1184 25.4638 75.3828 26.273 75.3828 27.026C75.3828 28.8523 74.2863 31.4874 72.6986 31.4874ZM82.4534 19.0261C81.5459 19.0261 80.8087 19.7413 80.8087 20.6825C80.8087 21.5296 81.3382 22.1131 82.1512 22.1131H82.1891C83.0774 22.1131 83.8526 21.5109 83.8713 20.4567C83.8904 19.6092 83.3231 19.0261 82.4534 19.0261ZM78.4458 33.4261H81.3194L83.2664 23.3368H80.3741L78.4458 33.4261ZM90.5264 23.318H88.5412L88.6357 22.8474C88.8059 21.8686 89.3729 21.0024 90.3374 21.0024C90.8478 21.0024 91.2446 21.1531 91.2446 21.1531L91.8119 18.932C91.8119 18.932 91.3203 18.6875 90.2617 18.6875C89.2409 18.6875 88.2389 18.9695 87.4638 19.6288C86.4806 20.4568 86.0268 21.6425 85.7999 22.8474L85.7242 23.318H84.4008L83.9849 25.4638H85.3083L83.7959 33.4261H86.6508L88.1632 25.4638H90.1293L90.5264 23.318ZM97.4077 23.3368C97.4077 23.3368 95.6118 27.8169 94.8179 30.2638H94.7801C94.7234 29.4733 94.0807 23.3368 94.0807 23.3368H91.0747L92.7948 32.5978C92.8327 32.8051 92.8139 32.9368 92.7382 33.0684C92.3981 33.7085 91.8498 34.3299 91.1879 34.7814C90.6588 35.1766 90.0536 35.4215 89.5811 35.591L90.3749 38.0004C90.9611 37.8684 92.1521 37.3978 93.1732 36.4569C94.4774 35.2333 95.6876 33.3695 96.9164 30.8094L100.414 23.3368H97.4077Z" fill="black"/>
<path d="M34.1237 18.5543C34.117 18.5046 34.0931 18.4589 34.056 18.4251C34.019 18.3913 33.9713 18.3716 33.9212 18.3694C33.8369 18.3694 32.1662 18.3357 32.1662 18.3357C32.1662 18.3357 30.7656 16.9913 30.6306 16.8402C30.4956 16.7056 30.2256 16.7389 30.1244 16.7727C30.1244 16.7727 29.8544 16.8571 29.4156 16.9913C29.3481 16.7562 29.23 16.4701 29.0781 16.1678C28.5887 15.2266 27.8462 14.7226 26.9687 14.7226C26.9012 14.7226 26.8506 14.7226 26.7831 14.7394C26.7494 14.7057 26.7325 14.6719 26.6987 14.6551C26.3106 14.2519 25.8212 14.0502 25.2306 14.0674C24.1 14.1012 22.9694 14.9247 22.0412 16.3699C21.4 17.3952 20.9106 18.6724 20.7587 19.6639C19.4594 20.0674 18.5481 20.3532 18.5144 20.3532C17.8562 20.5549 17.8394 20.5714 17.755 21.1932C17.7212 21.6642 16 34.9246 16 34.9246L30.445 37.4119L36.7056 35.8658C36.6887 35.8658 34.1406 18.6721 34.1237 18.5543ZM28.69 17.2272C28.3525 17.3279 27.9812 17.4454 27.5762 17.5797C27.5762 17.0086 27.4919 16.2019 27.2387 15.5296C28.0994 15.6642 28.5212 16.6388 28.69 17.2272ZM26.8169 17.7983C26.0575 18.0338 25.2306 18.2858 24.4037 18.5378C24.64 17.6472 25.0787 16.7734 25.6187 16.1851C25.8212 15.9664 26.1081 15.7313 26.4287 15.5967C26.7662 16.2522 26.8337 17.1766 26.8169 17.7983ZM25.2644 14.8238C25.5344 14.8238 25.7537 14.8741 25.9394 15.0087C25.6356 15.1598 25.3319 15.3949 25.0619 15.6976C24.3362 16.4708 23.7794 17.6641 23.56 18.8236C22.8681 19.0422 22.1931 19.2436 21.5856 19.4288C21.9906 17.5969 23.5262 14.8741 25.2644 14.8238Z" fill="#95BF47"/>
<path d="M33.9219 18.3695C33.8376 18.3695 32.1669 18.3357 32.1669 18.3357C32.1669 18.3357 30.7659 16.9914 30.6309 16.8399C30.5824 16.7887 30.5158 16.7585 30.4453 16.7559V37.4112L36.7063 35.8651C36.7063 35.8651 34.1578 18.6717 34.1413 18.5544C34.1076 18.4366 34.0067 18.3695 33.9219 18.3695Z" fill="#5E8E3E"/>
<path d="M26.9689 21.5797L26.2433 24.2857C26.2433 24.2857 25.4333 23.9159 24.4714 23.983C23.0539 24.067 23.0539 24.958 23.0539 25.1763C23.1383 26.3864 26.3277 26.6553 26.5133 29.4955C26.6483 31.7305 25.332 33.2605 23.4083 33.3779C21.1133 33.4957 19.8477 32.1509 19.8477 32.1509L20.337 30.0839C20.337 30.0839 21.6195 31.0416 22.632 30.9745C23.2902 30.9408 23.5433 30.3862 23.5095 30.0168C23.4083 28.4369 20.8095 28.5374 20.6408 25.9327C20.5058 23.7475 21.9402 21.5459 25.1127 21.3442C26.3445 21.2602 26.9689 21.5797 26.9689 21.5797Z" fill="white"/>
</g>
</g>
<defs>
<clipPath id="clip0_9400_45960">
<rect width="84" height="28" fill="white" transform="translate(16 14)"/>
</clipPath>
</defs>
</svg>
