<svg width="165" height="56" viewBox="0 0 165 56" fill="none" xmlns="http://www.w3.org/2000/svg">
<rect x="0.367188" width="164" height="56" rx="10" fill="white"/>
<rect x="0.867188" y="0.5" width="163" height="55" rx="9.5" stroke="#000028" stroke-opacity="0.1"/>
<path d="M54.2212 23.0441C54.9987 23.0202 55.7705 23.1843 56.471 23.5226C57.1715 23.8609 57.7799 24.3633 58.2446 24.9872V9.61182C58.2439 9.54407 58.2245 9.47782 58.1887 9.4203C58.1529 9.36279 58.102 9.31623 58.0415 9.28571C57.981 9.25519 57.9133 9.24189 57.8457 9.24726C57.7782 9.25262 57.7134 9.27645 57.6585 9.31614L38.632 23.2157H39.1389C41.1136 23.2157 42.1274 24.4724 42.1274 25.8557C42.1449 26.3137 42.0296 26.767 41.7954 27.1609C41.5612 27.5548 41.2181 27.8726 40.8074 28.076C40.7791 28.0883 40.7551 28.1086 40.7382 28.1344C40.7213 28.1602 40.7123 28.1903 40.7123 28.2212C40.7123 28.252 40.7213 28.2822 40.7382 28.308C40.7551 28.3338 40.7791 28.3541 40.8074 28.3664C41.2682 28.5718 41.6582 28.9085 41.9286 29.3344C42.1991 29.7603 42.338 30.2565 42.328 30.7609C42.328 32.329 41.3011 33.5725 39.3105 33.5725H33.88C33.8259 33.5725 33.7739 33.5511 33.7353 33.5131C33.6968 33.475 33.6748 33.4233 33.6741 33.3692V26.8325L19.4894 37.1734C19.4338 37.2135 19.3924 37.2702 19.3712 37.3354C19.35 37.4005 19.3502 37.4708 19.3717 37.5358C19.3932 37.6009 19.4349 37.6574 19.4907 37.6972C19.5465 37.7369 19.6136 37.7578 19.6821 37.7569H57.9199C58.0055 37.7569 58.0877 37.723 58.1485 37.6627C58.2094 37.6024 58.2439 37.5204 58.2446 37.4348V32.2023C57.1571 33.225 55.7139 33.7837 54.2212 33.7599C51.172 33.7599 48.6772 31.6637 48.6772 28.4007C48.6772 25.1377 51.172 23.0441 54.2212 23.0441ZM46.6391 33.385C46.6391 33.4347 46.6194 33.4824 46.5842 33.5176C46.5491 33.5527 46.5014 33.5725 46.4517 33.5725H44.6037C44.554 33.5725 44.5063 33.5527 44.4712 33.5176C44.436 33.4824 44.4163 33.4347 44.4163 33.385V23.4032C44.4163 23.3535 44.436 23.3058 44.4712 23.2706C44.5063 23.2355 44.554 23.2157 44.6037 23.2157H46.4517C46.5014 23.2157 46.5491 23.2355 46.5842 23.2706C46.6194 23.3058 46.6391 23.3535 46.6391 23.4032V33.385ZM35.8732 27.1256V25.2617C35.8729 25.248 35.8753 25.2343 35.8803 25.2215C35.8853 25.2087 35.8928 25.1971 35.9024 25.1872C35.912 25.1774 35.9235 25.1696 35.9362 25.1642C35.9488 25.1589 35.9624 25.1561 35.9762 25.1561H38.632C39.3791 25.1561 39.8464 25.6049 39.8464 26.2438C39.8464 26.8827 39.3897 27.3289 38.632 27.3289H36.0765C36.0497 27.3292 36.0231 27.3242 35.9983 27.3141C35.9735 27.304 35.9509 27.2891 35.932 27.2701C35.913 27.2512 35.8981 27.2286 35.888 27.2038C35.8779 27.179 35.8729 27.1524 35.8732 27.1256ZM35.8732 31.4261V29.4752C35.8729 29.4484 35.8779 29.4218 35.888 29.397C35.8981 29.3721 35.913 29.3496 35.932 29.3307C35.9509 29.3117 35.9735 29.2967 35.9983 29.2867C36.0231 29.2766 36.0497 29.2715 36.0765 29.2719H38.735C39.593 29.2719 40.055 29.7999 40.055 30.452C40.055 31.1965 39.5587 31.6321 38.735 31.6321H36.0765C36.0496 31.6321 36.0229 31.6267 35.9981 31.6163C35.9732 31.606 35.9507 31.5907 35.9318 31.5716C35.9129 31.5524 35.898 31.5297 35.8879 31.5047C35.8779 31.4798 35.8729 31.4531 35.8732 31.4261ZM56.848 26.257L58.2419 25.4993V27.841H53.8965C53.8384 27.841 53.7826 27.8641 53.7416 27.9052C53.7005 27.9463 53.6774 28.002 53.6774 28.0601V29.5491C53.6774 29.6072 53.7005 29.6629 53.7416 29.704C53.7826 29.7451 53.8384 29.7682 53.8965 29.7682H56.2514C56.2948 29.7682 56.3364 29.7855 56.3671 29.8162C56.3978 29.8469 56.4151 29.8885 56.4151 29.9319V30.9298C56.4159 30.9548 56.4111 30.9796 56.4011 31.0024C56.391 31.0253 56.3759 31.0456 56.357 31.0618C55.7464 31.5376 54.9953 31.7975 54.2212 31.801C52.3231 31.801 50.9529 30.3569 50.9529 28.4007C50.9529 26.4445 52.3231 25.0004 54.2212 25.0004C54.6778 25.0055 55.1271 25.1158 55.5341 25.3227C55.9412 25.5297 56.295 25.8277 56.5682 26.1937C56.6004 26.2348 56.6458 26.2636 56.6968 26.2751C56.7478 26.2867 56.8012 26.2803 56.848 26.257ZM59.8603 28.3849C59.8603 25.1852 62.1571 23.0283 65.1165 23.0283C65.9004 23.0099 66.6752 23.1996 67.362 23.578C68.0488 23.9564 68.6231 24.5101 69.0263 25.1825C69.0393 25.2029 69.048 25.2257 69.0517 25.2496C69.0554 25.2734 69.0541 25.2978 69.0479 25.3211C69.0417 25.3445 69.0307 25.3663 69.0156 25.3851C69.0006 25.404 68.9817 25.4195 68.9603 25.4307L67.7776 26.0722C67.7398 26.092 67.6959 26.0967 67.6548 26.0854C67.6137 26.0741 67.5783 26.0477 67.5559 26.0115C67.295 25.5985 66.9354 25.257 66.5095 25.0178C66.0837 24.7786 65.6049 24.6492 65.1165 24.6413C63.1339 24.6413 61.6634 26.1963 61.6634 28.3849C61.6634 30.5734 63.1339 32.1284 65.1165 32.1284C65.6049 32.1174 66.0831 31.9865 66.509 31.7471C66.9349 31.5077 67.2953 31.1672 67.5585 30.7556C67.5805 30.7196 67.6152 30.6931 67.6557 30.6813C67.6963 30.6696 67.7398 30.6735 67.7776 30.6922L68.9683 31.31C68.9926 31.3202 69.0142 31.3359 69.0315 31.3558C69.0488 31.3758 69.0612 31.3995 69.0679 31.425C69.0745 31.4505 69.0752 31.4773 69.0698 31.5031C69.0644 31.529 69.0532 31.5532 69.0369 31.574C68.2634 32.7488 67.0384 33.7573 65.1165 33.7573C62.1571 33.752 59.8603 31.5766 59.8603 28.3849ZM70.048 28.3849C70.048 25.8082 71.5211 23.8045 73.744 23.2078C77.5166 22.202 80.9776 25.729 80.1566 29.6653C79.9462 30.8286 79.3275 31.8786 78.4118 32.6264C77.4961 33.3741 76.3436 33.7705 75.1617 33.7441C72.16 33.752 70.048 31.4842 70.048 28.3849ZM78.496 28.3849C78.496 26.2412 77.176 24.6413 75.1749 24.6413C73.1738 24.6413 71.8511 26.2491 71.8511 28.3849C71.8511 30.5206 73.1447 32.1284 75.1723 32.1284C77.1998 32.1284 78.496 30.5206 78.496 28.3849ZM91.0677 33.4352V25.568L87.9155 33.5091C87.9091 33.5255 87.8979 33.5397 87.8832 33.5496C87.8686 33.5595 87.8513 33.5647 87.8337 33.5645H87.1737C87.1564 33.5645 87.1395 33.5592 87.1254 33.5493C87.1112 33.5394 87.1004 33.5253 87.0945 33.5091L83.9265 25.568V33.4431C83.9258 33.4751 83.9128 33.5056 83.8902 33.5282C83.8675 33.5509 83.837 33.5639 83.8051 33.5645H82.2211C82.1886 33.5645 82.1574 33.5518 82.1342 33.5291C82.111 33.5064 82.0977 33.4756 82.097 33.4431V23.3293C82.097 23.2964 82.11 23.2648 82.1333 23.2415C82.1566 23.2183 82.1881 23.2052 82.2211 23.2052H84.4994C84.5483 23.2073 84.5958 23.2229 84.6363 23.2504C84.6769 23.278 84.709 23.3162 84.729 23.3609L87.501 30.4705L90.2572 23.3689C90.2756 23.323 90.3073 23.2836 90.3482 23.2559C90.3892 23.2281 90.4375 23.2132 90.4869 23.2131H92.7652C92.7977 23.2138 92.8285 23.2272 92.8512 23.2504C92.8739 23.2736 92.8867 23.3047 92.8867 23.3372V33.451C92.886 33.483 92.873 33.5135 92.8503 33.5361C92.8277 33.5588 92.7972 33.5718 92.7652 33.5725H91.1812C91.1488 33.5704 91.1184 33.5557 91.0967 33.5315C91.075 33.5073 91.0636 33.4756 91.065 33.4431L91.0677 33.4352ZM109.001 33.3692V23.3926C109.001 23.3429 109.021 23.2952 109.056 23.2601C109.091 23.2249 109.139 23.2052 109.189 23.2052H115.926C115.976 23.2052 116.023 23.2249 116.058 23.2601C116.094 23.2952 116.113 23.3429 116.113 23.3926V24.6176C116.113 24.6673 116.094 24.715 116.058 24.7501C116.023 24.7853 115.976 24.805 115.926 24.805H111.008C110.958 24.805 110.91 24.8248 110.875 24.8599C110.84 24.8951 110.82 24.9427 110.82 24.9925V27.2893C110.82 27.339 110.84 27.3866 110.875 27.4218C110.91 27.457 110.958 27.4767 111.008 27.4767H115.815C115.865 27.4767 115.912 27.4964 115.948 27.5316C115.983 27.5668 116.002 27.6144 116.002 27.6641V28.8891C116.002 28.9388 115.983 28.9865 115.948 29.0216C115.912 29.0568 115.865 29.0765 115.815 29.0765H111.008C110.958 29.0765 110.91 29.0963 110.875 29.1314C110.84 29.1666 110.82 29.2143 110.82 29.264V31.7773C110.82 31.827 110.84 31.8746 110.875 31.9098C110.91 31.945 110.958 31.9647 111.008 31.9647H115.923C115.973 31.9647 116.021 31.9844 116.056 32.0196C116.091 32.0548 116.111 32.1024 116.111 32.1521V33.3771C116.111 33.4268 116.091 33.4745 116.056 33.5096C116.021 33.5448 115.973 33.5645 115.923 33.5645H109.186C109.136 33.5645 109.089 33.5448 109.053 33.5096C109.018 33.4745 108.999 33.4268 108.999 33.3771L109.001 33.3692ZM124.577 33.4642L122.399 29.7682C122.383 29.7402 122.359 29.7169 122.331 29.7007C122.303 29.6845 122.271 29.6759 122.238 29.6758H120.71C120.66 29.6758 120.613 29.6952 120.578 29.7298C120.543 29.7644 120.523 29.8114 120.522 29.8606V33.3797C120.522 33.4288 120.503 33.4758 120.468 33.5104C120.433 33.5451 120.386 33.5645 120.337 33.5645H118.888C118.839 33.5645 118.791 33.5452 118.756 33.5106C118.721 33.476 118.701 33.429 118.701 33.3797V23.3926C118.701 23.3429 118.72 23.2952 118.755 23.2601C118.791 23.2249 118.838 23.2052 118.888 23.2052H123.262C125.316 23.2052 126.671 24.5252 126.671 26.4524C126.671 28.1578 125.615 29.1505 124.458 29.4409C124.429 29.4471 124.402 29.4602 124.379 29.4791C124.356 29.498 124.338 29.5222 124.326 29.5495C124.314 29.5769 124.309 29.6067 124.311 29.6365C124.313 29.6663 124.322 29.6951 124.337 29.7207L126.57 33.2821C126.588 33.3102 126.598 33.3424 126.598 33.3755C126.599 33.4086 126.591 33.4413 126.575 33.4701C126.559 33.499 126.535 33.523 126.506 33.5396C126.478 33.5562 126.445 33.5648 126.412 33.5645H124.738C124.705 33.5649 124.673 33.5566 124.644 33.5403C124.615 33.5241 124.591 33.5006 124.575 33.4721L124.577 33.4642ZM124.804 26.4286C124.804 25.4333 124.057 24.7971 123.03 24.7971H120.71C120.66 24.7971 120.612 24.8168 120.577 24.852C120.542 24.8872 120.522 24.9348 120.522 24.9845V27.9123C120.522 27.9368 120.527 27.961 120.536 27.9836C120.546 28.0062 120.56 28.0267 120.577 28.0439C120.595 28.0611 120.615 28.0747 120.638 28.0838C120.661 28.0929 120.685 28.0975 120.71 28.0971H123.03C124.054 28.0971 124.802 27.445 124.802 26.4365L124.804 26.4286ZM138.97 33.3745V23.39C138.97 23.3658 138.975 23.3419 138.984 23.3195C138.993 23.2971 139.006 23.2767 139.023 23.2595C139.04 23.2423 139.06 23.2286 139.082 23.2193C139.105 23.21 139.129 23.2052 139.153 23.2052H145.9C145.925 23.2052 145.949 23.21 145.971 23.2193C145.993 23.2286 146.013 23.2423 146.03 23.2595C146.047 23.2767 146.061 23.2971 146.07 23.3195C146.079 23.3419 146.083 23.3658 146.083 23.39V24.6229C146.083 24.6712 146.063 24.7175 146.029 24.7517C145.995 24.7858 145.949 24.805 145.9 24.805H140.972C140.923 24.805 140.876 24.8241 140.842 24.8582C140.807 24.8923 140.788 24.9386 140.787 24.9872V27.2945C140.788 27.3431 140.807 27.3894 140.842 27.4235C140.876 27.4576 140.923 27.4767 140.972 27.4767H145.787C145.811 27.4764 145.835 27.4808 145.857 27.4898C145.88 27.4988 145.9 27.5122 145.917 27.5291C145.935 27.5461 145.948 27.5663 145.958 27.5885C145.967 27.6108 145.972 27.6347 145.972 27.6589V28.8944C145.972 28.9185 145.967 28.9424 145.958 28.9647C145.948 28.987 145.935 29.0072 145.917 29.0241C145.9 29.0411 145.88 29.0544 145.857 29.0634C145.835 29.0724 145.811 29.0769 145.787 29.0765H140.972C140.923 29.0765 140.876 29.0956 140.842 29.1297C140.807 29.1638 140.788 29.2101 140.787 29.2587V31.7825C140.788 31.8311 140.807 31.8774 140.842 31.9115C140.876 31.9456 140.923 31.9647 140.972 31.9647H145.898C145.946 31.9647 145.992 31.9839 146.027 32.0181C146.061 32.0522 146.08 32.0985 146.08 32.1469V33.3824C146.08 33.4307 146.061 33.477 146.027 33.5112C145.992 33.5453 145.946 33.5645 145.898 33.5645H139.15C139.102 33.5645 139.055 33.5453 139.021 33.5112C138.987 33.477 138.968 33.4307 138.968 33.3824L138.97 33.3745ZM128.001 28.3505C128.001 25.1509 130.298 22.9913 133.258 22.9913C134.042 22.9733 134.817 23.1633 135.503 23.5422C136.19 23.9211 136.764 24.4752 137.167 25.1482C137.18 25.1684 137.189 25.191 137.193 25.2146C137.196 25.2383 137.195 25.2625 137.189 25.2856C137.183 25.3087 137.172 25.3303 137.157 25.3489C137.141 25.3675 137.123 25.3828 137.101 25.3937L135.919 26.0379C135.881 26.0574 135.836 26.0617 135.795 26.0499C135.754 26.0382 135.719 26.0112 135.697 25.9745C135.436 25.5622 135.076 25.2213 134.65 24.9826C134.224 24.7439 133.746 24.6148 133.258 24.607C131.275 24.607 129.804 26.1593 129.804 28.3505C129.804 30.5417 131.275 32.0809 133.258 32.0809C133.745 32.0707 134.223 31.9403 134.649 31.7013C135.074 31.4623 135.434 31.1221 135.697 30.7107C135.72 30.6749 135.755 30.6487 135.796 30.6371C135.837 30.6254 135.88 30.6291 135.919 30.6473L137.104 31.273C137.128 31.284 137.149 31.3001 137.165 31.3201C137.182 31.3402 137.194 31.3636 137.201 31.3889C137.207 31.4141 137.208 31.4404 137.203 31.4661C137.198 31.4917 137.188 31.5159 137.173 31.537C136.399 32.7092 135.174 33.7177 133.252 33.7177C130.298 33.7071 128.001 31.5344 128.001 28.3505ZM104.505 33.4431V25.568L101.358 33.5091C101.352 33.5255 101.341 33.5397 101.326 33.5496C101.312 33.5595 101.294 33.5647 101.277 33.5645H100.617C100.599 33.5645 100.582 33.5592 100.568 33.5493C100.554 33.5394 100.543 33.5253 100.537 33.5091L97.3694 25.568V33.4431C97.3694 33.4753 97.3566 33.5062 97.3338 33.529C97.311 33.5517 97.2801 33.5645 97.2479 33.5645H95.6639C95.6315 33.5645 95.6003 33.5518 95.5771 33.5291C95.5539 33.5064 95.5405 33.4756 95.5399 33.4431V23.3293C95.5399 23.2964 95.5529 23.2648 95.5762 23.2415C95.5995 23.2183 95.631 23.2052 95.6639 23.2052H97.9423C97.9912 23.2073 98.0386 23.2229 98.0792 23.2504C98.1198 23.278 98.1519 23.3162 98.1719 23.3609L100.936 30.4705L103.703 23.3689C103.723 23.3241 103.755 23.2859 103.795 23.2584C103.836 23.2309 103.883 23.2152 103.932 23.2131H106.216C106.232 23.2131 106.248 23.2163 106.263 23.2226C106.278 23.2289 106.292 23.238 106.303 23.2496C106.314 23.2612 106.323 23.2749 106.329 23.2899C106.335 23.3049 106.338 23.321 106.337 23.3372V33.451C106.337 33.4832 106.325 33.5141 106.302 33.5369C106.279 33.5597 106.248 33.5725 106.216 33.5725H104.632C104.615 33.5721 104.599 33.5685 104.584 33.5618C104.569 33.5551 104.555 33.5454 104.544 33.5333C104.533 33.5213 104.524 33.5071 104.518 33.4916C104.512 33.4761 104.51 33.4596 104.511 33.4431H104.505Z" fill="#121118"/>
</svg>
