<svg width="151" height="56" viewBox="0 0 151 56" fill="none" xmlns="http://www.w3.org/2000/svg">
<rect width="150.368" height="56" rx="10" fill="white"/>
<rect x="0.5" y="0.5" width="149.368" height="55" rx="9.5" stroke="#000028" stroke-opacity="0.1"/>
<g clip-path="url(#clip0_9400_45970)">
<path d="M19.3526 30.4631H21.3368C22.2947 30.4631 23.1158 30.2578 23.8684 29.9157C24.6211 29.5736 25.1684 29.0263 25.5789 28.342C25.9895 27.6578 26.1947 26.9052 26.1947 26.0157C26.1947 25.1263 25.9895 24.3736 25.5789 23.6894C25.1684 23.0052 24.6211 22.5263 23.8684 22.1157C23.1158 21.7736 22.2947 21.5684 21.3368 21.5684H16V34.3631H19.3526V30.4631ZM19.3526 24.3736H21.0632C21.6105 24.3736 22.0211 24.5105 22.3632 24.8526C22.7053 25.1263 22.8421 25.5368 22.8421 26.0841C22.8421 26.6315 22.6368 26.9736 22.3632 27.2473C22.0895 27.521 21.6105 27.7263 21.0632 27.7263H19.3526V24.3736Z" fill="black"/>
<path d="M37.4854 28.1367C37.8275 27.5209 38.0328 26.8367 38.0328 26.0841C38.0328 25.1946 37.8275 24.442 37.417 23.7578C37.0065 23.0736 36.3907 22.5946 35.7065 22.1841C34.9539 21.842 34.1328 21.6367 33.1065 21.6367H27.6328V34.4315H31.0539V30.463H32.8328L34.7486 34.4315H38.4433L36.117 29.642C36.6644 29.2315 37.1433 28.7525 37.4854 28.1367ZM34.0644 27.2472C33.7223 27.5209 33.3118 27.7262 32.7644 27.7262H31.0539V24.3736H32.8328C33.3802 24.3736 33.7907 24.5104 34.1328 24.8525C34.4749 25.1262 34.6118 25.5367 34.6118 26.0841C34.6118 26.6315 34.4065 26.9736 34.0644 27.2472Z" fill="black"/>
<path d="M43.3683 29.2999H47.7472V26.6315H43.3683V24.442H48.8419V21.6367H40.0156V34.363H49.0472V31.5578H43.3683V29.2999Z" fill="black"/>
<path d="M60.2004 32.4474C60.6794 31.8316 60.8846 31.0789 60.8846 30.3263C60.8846 29.5053 60.6794 28.8895 60.3373 28.3421C59.9951 27.8632 59.5162 27.4526 58.9688 27.2474C58.4215 26.9737 57.7373 26.7684 56.8478 26.6316C55.9583 26.4263 55.3425 26.2895 55.0004 26.2211C54.5899 26.0842 54.3162 26.0158 54.1794 25.8789C53.9741 25.7421 53.9057 25.5368 53.9057 25.2632C53.9057 24.8526 54.0425 24.5789 54.3846 24.3737C54.6583 24.1684 55.0688 24.1 55.5478 24.1C56.0951 24.1 56.5057 24.2368 56.8478 24.5105C57.1899 24.7842 57.3267 25.1263 57.3951 25.6053H60.6794C60.6794 24.8526 60.4741 24.1684 59.9951 23.4842C59.5846 22.8684 58.9688 22.3895 58.1478 22.0474C57.3267 21.7053 56.4373 21.5 55.4794 21.5C54.5215 21.5 53.7004 21.7053 52.9478 22.0474C52.1951 22.3895 51.5794 22.8684 51.1688 23.4842C50.7583 24.1 50.553 24.7842 50.553 25.5368C50.553 26.3579 50.7583 27.0421 51.1004 27.5895C51.4425 28.0684 51.9215 28.4789 52.4688 28.7526C53.0162 29.0263 53.7688 29.2316 54.5899 29.3684C55.4794 29.5737 56.0951 29.7105 56.5057 29.7789C56.9162 29.9158 57.1899 29.9842 57.3267 30.1211C57.532 30.2579 57.6004 30.4632 57.6004 30.7368C57.6004 31.1474 57.4636 31.4211 57.1215 31.6263C56.7794 31.8316 56.3688 31.9684 55.8215 31.9684C55.1373 31.9684 54.5899 31.8316 54.2478 31.4895C53.8373 31.1474 53.632 30.8053 53.632 30.2579L50.2109 30.1895C50.2109 31.0105 50.4162 31.7632 50.8951 32.3789C51.3741 33.0632 51.9899 33.5421 52.8794 33.9526C53.7004 34.3632 54.6583 34.5 55.6846 34.5C56.6425 34.5 57.532 34.2947 58.353 33.9526C59.1741 33.6105 59.7899 33.0632 60.2004 32.4474Z" fill="black"/>
<path d="M71.9019 21.6367H61.5703V24.442H65.0598V34.363H68.4124V24.442H71.9019V21.6367Z" fill="black"/>
<path d="M75.3225 21.6367L70.7383 34.4315H74.2278L74.9804 32.0367H79.4278L80.2488 34.4315H83.8751L79.4278 21.6367H75.3225ZM75.9383 29.2999L77.3067 25.1262L78.6751 29.2999H75.9383Z" fill="black"/>
<path d="M94.2745 32.4474C94.7535 31.8316 94.9587 31.0789 94.9587 30.3263C94.9587 29.5053 94.7535 28.8895 94.4113 28.3421C94.0692 27.8632 93.5903 27.4526 93.0429 27.2474C92.4956 27.0421 91.7429 26.7684 90.8535 26.6316C90.0324 26.4947 89.4166 26.3579 89.0061 26.2211C88.5956 26.0842 88.3219 26.0158 88.185 25.8789C87.9798 25.7421 87.9113 25.5368 87.9113 25.2632C87.9113 24.8526 88.0482 24.5789 88.3903 24.3737C88.664 24.1684 89.0745 24.1 89.5535 24.1C90.1008 24.1 90.5114 24.2368 90.8535 24.5105C91.1956 24.7842 91.3324 25.1263 91.4008 25.6053H94.685C94.685 24.8526 94.4798 24.1684 94.0008 23.4842C93.5903 22.8684 92.9745 22.3895 92.1535 22.0474C91.4008 21.7053 90.5113 21.5 89.5535 21.5C88.5956 21.5 87.7745 21.7053 87.0219 22.0474C86.2692 22.3895 85.6535 22.8684 85.2429 23.4842C84.8324 24.1 84.6271 24.7842 84.6271 25.5368C84.6271 26.3579 84.8324 27.0421 85.1745 27.5895C85.5166 28.0684 85.9956 28.4789 86.5429 28.7526C87.0903 29.0263 87.8429 29.2316 88.664 29.3684C89.5535 29.5737 90.1692 29.7105 90.5798 29.7789C90.9903 29.9158 91.264 29.9842 91.4008 30.1211C91.6061 30.2579 91.6745 30.4632 91.6745 30.7368C91.6745 31.1474 91.5377 31.4211 91.1956 31.6263C90.8535 31.8316 90.4429 31.9684 89.8956 31.9684C89.2113 31.9684 88.664 31.8316 88.3219 31.4895C87.9113 31.1474 87.7061 30.8053 87.7061 30.2579L84.4219 30.1895C84.4219 31.0105 84.6271 31.7632 85.1061 32.3789C85.585 33.0632 86.2008 33.5421 87.0903 33.9526C87.9798 34.3632 88.8692 34.5 89.8956 34.5C90.9219 34.5 91.7429 34.2947 92.564 33.9526C93.1798 33.6105 93.7956 33.0632 94.2745 32.4474Z" fill="black"/>
<path d="M104.333 26.4946H100.091V21.6367H96.7383V34.363H100.091V29.3683H104.333V34.363H107.686V21.6367H104.333V26.4946Z" fill="black"/>
<path d="M121.575 31.3526C122.123 30.3947 122.396 29.2316 122.396 28C122.396 26.7684 122.123 25.6737 121.575 24.6474C121.028 23.6895 120.275 22.8684 119.317 22.3211C118.291 21.7737 117.196 21.5 115.896 21.5C114.596 21.5 113.502 21.7737 112.544 22.3211C111.586 22.8684 110.833 23.6895 110.286 24.6474C109.739 25.6053 109.465 26.7684 109.465 28C109.465 29.2316 109.739 30.3263 110.286 31.3526C110.833 32.3105 111.586 33.1316 112.544 33.6789C113.502 34.2263 114.665 34.5 115.896 34.5C117.196 34.5 118.291 34.2263 119.249 33.6789C120.275 33.0632 121.028 32.3105 121.575 31.3526ZM118.154 30.6684C117.607 31.3526 116.854 31.6947 115.965 31.6947C115.075 31.6947 114.323 31.3526 113.775 30.6684C113.228 29.9842 112.954 29.0947 112.954 28C112.954 26.9053 113.228 26.0158 113.775 25.3316C114.323 24.6474 115.075 24.3053 115.965 24.3053C116.854 24.3053 117.607 24.6474 118.154 25.3316C118.702 26.0158 118.975 26.9053 118.975 28C118.975 29.0947 118.702 29.9842 118.154 30.6684Z" fill="black"/>
<path d="M132.042 22.1841C131.29 21.842 130.469 21.6367 129.511 21.6367H124.105V34.4315H127.458V30.463H129.442C130.4 30.463 131.221 30.2578 131.974 29.9157C132.727 29.5736 133.274 29.0262 133.684 28.342C134.095 27.6578 134.3 26.9051 134.3 26.0157C134.3 25.1262 134.095 24.3736 133.684 23.6894C133.274 23.0051 132.795 22.5262 132.042 22.1841ZM130.469 27.2472C130.127 27.5209 129.716 27.7262 129.169 27.7262H127.527V24.3736H129.237C129.784 24.3736 130.195 24.5104 130.537 24.8525C130.879 25.1262 131.016 25.5367 131.016 26.0841C131.016 26.6315 130.811 26.9736 130.469 27.2472Z" fill="black"/>
</g>
<defs>
<clipPath id="clip0_9400_45970">
<rect width="118.368" height="13" fill="white" transform="translate(16 21.5)"/>
</clipPath>
</defs>
</svg>
