<svg width="119" height="56" viewBox="0 0 119 56" fill="none" xmlns="http://www.w3.org/2000/svg">
<rect x="0.144531" width="118.1" height="56" rx="10" fill="white"/>
<rect x="0.644531" y="0.5" width="117.1" height="55" rx="9.5" stroke="#000028" stroke-opacity="0.1"/>
<g clip-path="url(#clip0_8727_28968)">
<path d="M16.1484 33.0977H26.5884L25.9884 33.9377H16.1484V33.0977Z" fill="#D40511"/>
<path d="M102.245 33.9377H89.4648L90.1248 33.0977H102.305V33.9377H102.245Z" fill="#D40511"/>
<path d="M16.1484 31.5371H27.7884L27.1284 32.3771H16.1484V31.5371Z" fill="#D40511"/>
<path d="M16.1484 29.9785H28.9884L28.3284 30.8185H16.1484V29.9785Z" fill="#D40511"/>
<path d="M102.244 32.3771H90.6641L91.3241 31.5371H102.304V32.3771H102.244Z" fill="#D40511"/>
<path d="M92.4686 29.9785H102.249V30.8185H91.8086L92.4686 29.9785Z" fill="#D40511"/>
<path d="M27.4297 33.9386L32.9497 26.5586C32.9497 26.5586 39.0697 26.5586 39.7897 26.5586C40.5697 26.5586 40.5697 26.8586 40.1497 27.3386C39.7897 27.8186 39.1297 28.7186 38.7697 29.1986C38.5897 29.4986 38.2297 29.9186 39.3697 29.9186C40.6297 29.9186 48.5497 29.9186 48.5497 29.9186C47.8297 30.9986 45.3097 33.9986 40.8697 33.9986C37.2697 33.9386 27.4297 33.9386 27.4297 33.9386Z" fill="#D40511"/>
<path d="M59.0475 29.9785L56.0475 33.9985H48.1875L51.1875 29.9785H59.0475Z" fill="#D40511"/>
<path d="M70.5098 29.9785L67.5098 33.9985H59.5898L62.5898 29.9785H70.5098Z" fill="#D40511"/>
<path d="M73.0865 29.9785C73.0865 29.9785 72.4865 30.7585 72.2465 31.1185C71.2265 32.4385 72.1265 33.9985 75.3665 33.9985C79.0865 33.9985 88.0865 33.9985 88.0865 33.9985L91.0865 29.9785H73.0865Z" fill="#D40511"/>
<path d="M31.3264 21.9975L28.5664 25.6575C28.5664 25.6575 42.7864 25.6575 43.5664 25.6575C44.3464 25.6575 44.3464 25.9575 43.9264 26.4375C43.5664 26.9175 42.9064 27.8175 42.5464 28.2975C42.3664 28.5375 42.0064 29.0175 43.1464 29.0175C44.4064 29.0175 49.2664 29.0175 49.2664 29.0175C49.2664 29.0175 50.2864 27.6975 51.0664 26.5575C52.2064 25.0575 51.1864 21.9375 47.1664 21.9375C43.5664 21.9975 31.3264 21.9975 31.3264 21.9975Z" fill="#D40511"/>
<path d="M71.1677 29.0161H51.8477L57.1277 21.9961H65.0477L62.0477 26.0161H65.5877L68.5877 21.9961H76.5077L71.1677 29.0161Z" fill="#D40511"/>
<path d="M87.43 21.9961L82.15 29.0161H73.75L79.03 21.9961H87.43Z" fill="#D40511"/>
</g>
<defs>
<clipPath id="clip0_8727_28968">
<rect width="86.1" height="12" fill="white" transform="translate(16.1445 22)"/>
</clipPath>
</defs>
</svg>
