<svg width="79" height="56" viewBox="0 0 79 56" fill="none" xmlns="http://www.w3.org/2000/svg">
<rect width="78.3443" height="56" rx="10" fill="white"/>
<rect x="0.5" y="0.5" width="77.3443" height="55" rx="9.5" stroke="#000028" stroke-opacity="0.1"/>
<g clip-path="url(#clip0_8727_28984)">
<path fill-rule="evenodd" clip-rule="evenodd" d="M25.0273 20.8837L25.1561 35.502L28.4404 39.5591L38.2937 44.7754L50.4006 38.8507L52.9122 32.8617L52.6546 13.4775L43.51 13.2199L33.9791 14.7655L25.2853 19.7885L25.0273 20.8837Z" fill="#301506"/>
<path d="M39.1345 10.3167C33.3952 10.3167 28.3889 11.4278 24.2539 13.6191V31.1373C24.2539 34.8234 25.6389 37.9058 28.2585 40.0532C30.6908 42.0484 38.213 45.3364 39.1348 45.7357C40.009 45.3552 47.6203 42.0164 50.014 40.0532C52.6321 37.907 54.0175 34.8236 54.0175 31.1373V13.6191C49.8819 11.4276 44.8756 10.3164 39.134 10.3164L39.1345 10.3167ZM47.6328 13.7087C49.3443 13.7311 51.0249 13.8368 52.6493 13.9878V31.1371C52.6493 34.4327 51.4535 37.0948 49.1462 38.9953C47.0849 40.6929 40.8692 43.4777 39.1348 44.2422C37.3772 43.4674 31.1459 40.6474 29.1217 38.996C26.828 37.1281 25.6206 34.4027 25.6206 31.1378V21.1171C32.212 15.0723 40.216 13.6121 47.6322 13.7091L47.6328 13.7087ZM39.5225 21.6941C38.1104 21.6941 36.971 22.0098 36.0329 22.6153V39.4881H38.6229V34.0371C38.8814 34.1133 39.2565 34.1845 39.788 34.1845C42.661 34.1845 44.3122 31.5947 44.3122 27.8133C44.3122 24.0393 42.6119 21.6941 39.5225 21.6941ZM48.3722 21.6941C46.6689 21.7435 44.8876 22.9774 44.8985 25.0691C44.9028 26.4464 45.2846 27.4764 47.4192 28.7289C48.5584 29.3975 49.0173 29.8382 49.037 30.6506C49.0588 31.5538 48.4347 32.0984 47.485 32.0948C46.6588 32.0882 45.6711 31.6297 45.0097 31.0408V33.4243C45.8206 33.9079 46.8326 34.2275 47.8548 34.2275C50.4135 34.2275 51.556 32.4202 51.6053 30.764C51.654 29.2545 51.2369 28.1124 49.0732 26.8411C48.1076 26.2747 47.345 25.9025 47.3704 24.9601C47.3958 24.0402 48.1596 23.717 48.8929 23.7236C49.7975 23.7316 50.6726 24.2326 51.2128 24.7866V22.5358C50.7576 22.1851 49.7938 21.6505 48.3722 21.6941ZM26.9432 21.9562V30.0949C26.9432 32.8387 28.2411 34.2277 30.8026 34.2277C32.3876 34.2277 33.7151 33.8609 34.704 33.1885V21.9562H32.1197V31.715C31.838 31.9081 31.4202 32.0315 30.8945 32.0315C29.7081 32.0315 29.5309 30.9435 29.5309 30.2095V21.9564L26.9432 21.9562ZM39.5399 23.7793C41.0421 23.7793 41.6648 24.9786 41.6648 27.8792C41.6648 30.7093 40.9526 32.0767 39.4628 32.0767C39.1121 32.0767 38.8073 31.9898 38.6221 31.9201V23.9667C38.832 23.8621 39.1885 23.7793 39.5399 23.7793Z" fill="#FAB80A"/>
</g>
<defs>
<clipPath id="clip0_8727_28984">
<rect width="30.3443" height="36" fill="white" transform="translate(24 10)"/>
</clipPath>
</defs>
</svg>
