<svg width="112" height="56" viewBox="0 0 112 56" fill="none" xmlns="http://www.w3.org/2000/svg">
<rect width="111.714" height="56" rx="10" fill="white"/>
<rect x="0.5" y="0.5" width="110.714" height="55" rx="9.5" stroke="#000028" stroke-opacity="0.1"/>
<g clip-path="url(#clip0_8727_28855)">
<path fill-rule="evenodd" clip-rule="evenodd" d="M65.8378 29.1767C66.6985 28.3229 67.1301 27.1745 67.1301 25.7616C67.1301 24.279 66.7009 23.1097 65.8587 22.2652C64.9979 21.423 63.7683 20.9961 62.1651 20.9961H57.2117V34.847H59.5225V30.4667H62.3252C63.7961 30.4667 64.977 30.0398 65.8378 29.1767ZM62.3646 23.2419C63.9748 23.2419 64.7868 24.0841 64.7868 25.7616C64.7868 26.5434 64.5664 27.1536 64.1372 27.5898C63.708 28.0283 63.0955 28.2394 62.3252 28.2394H59.5132V23.2396H62.3669L62.3646 23.2419ZM43.8991 21.0263H41.5859V34.8772H43.8991V21.0263ZM92.0594 35.1022C92.4585 35.1022 92.8506 35.0512 93.2194 34.9607H93.231V33.0489C93.0385 33.0768 92.8436 33.0907 92.651 33.0907C92.071 33.0907 91.6905 32.9585 91.5095 32.7148C91.3587 32.5223 91.2799 32.1255 91.2799 31.5154V25.9054H93.2705V24.047H91.2799V21.0495H89.0363V31.6569C89.0363 32.9283 89.1964 33.7798 89.5259 34.2391C89.9365 34.8192 90.7764 35.1045 92.0571 35.1045L92.0594 35.1022ZM52.6783 34.8981H54.9496V27.8659C54.9496 26.6873 54.6202 25.7708 53.9798 25.1212C53.3395 24.46 52.4787 24.0748 51.3976 24.0748C48.9058 24.0748 46.1426 24.6943 46.1426 24.6943V34.8957H48.414V26.33C49.2051 26.156 50.2955 25.9936 50.9753 26.0446C52.0774 26.1374 52.6759 26.8891 52.6759 28.2812V34.8957L52.6783 34.8981ZM77.8373 29.3902C77.8373 31.056 77.3779 32.3993 76.4568 33.4155C75.5358 34.4317 74.3432 34.9398 72.8839 34.9398C71.4246 34.9398 70.2204 34.4317 69.311 33.4155C68.3899 32.3993 67.9305 31.0583 67.9305 29.3925C67.9305 27.7267 68.3899 26.3857 69.311 25.3787C70.232 24.3741 71.4222 23.8637 72.8839 23.8637C74.3456 23.8637 75.5566 24.3718 76.4777 25.3787C77.3779 26.3949 77.8373 27.7267 77.8373 29.3925V29.3902ZM75.4963 29.3994C75.4963 28.3531 75.2573 27.5295 74.7864 26.9193C74.3061 26.3091 73.675 26.0052 72.8839 26.0052C72.0927 26.0052 71.4617 26.3114 70.9837 26.9286C70.5035 27.548 70.2738 28.3716 70.2738 29.3994C70.2738 30.4272 70.5128 31.2694 70.9837 31.8796C71.464 32.4898 72.0951 32.7937 72.8839 32.7937C73.6727 32.7937 74.3061 32.4875 74.7864 31.8796C75.2573 31.2694 75.4963 30.4458 75.4963 29.3994ZM86.4958 33.8935C87.2963 33.2229 87.6976 32.3599 87.6976 31.3135C87.6976 29.6871 86.707 28.6918 84.714 28.316C83.8741 28.1628 83.0227 28.0097 82.1619 27.8775C81.5517 27.7151 81.2524 27.4111 81.2524 26.9726C81.2524 26.2116 81.9137 25.8358 83.2431 25.8358C84.2825 25.8358 85.2151 26.2024 86.0249 26.9332L87.3752 25.4901C86.2545 24.4321 84.9043 23.9055 83.3127 23.9055C82.0018 23.9055 80.9508 24.221 80.1597 24.8614C79.3685 25.4994 78.9788 26.3045 78.9788 27.2487C78.9788 28.193 79.2989 28.8844 79.9486 29.353C80.51 29.7382 81.4288 30.0235 82.7327 30.2161C83.8138 30.3878 84.475 30.52 84.7233 30.6129C85.1525 30.7753 85.3636 31.0792 85.3636 31.5177C85.3636 31.8935 85.1734 32.2183 84.8022 32.4736C84.431 32.7288 83.9321 32.8587 83.2918 32.8587C82.1503 32.8587 81.148 32.4318 80.2873 31.578L78.5658 33.042C79.6864 34.2832 81.2687 34.9004 83.3196 34.9004C84.6305 34.9004 85.6908 34.5663 86.4912 33.8958L86.4958 33.8935Z" fill="#1D1D1D"/>
<path fill-rule="evenodd" clip-rule="evenodd" d="M26.5517 28.0682C26.5517 28.0682 24.7374 28.7712 22.4985 28.7712C20.2596 28.7712 18.4453 28.0682 18.4453 28.0682C18.4453 28.0682 20.2596 27.3652 22.4985 27.3652C24.7374 27.3652 26.5517 28.0682 26.5517 28.0682Z" fill="#FFCC05"/>
<path fill-rule="evenodd" clip-rule="evenodd" d="M32.1545 17.7354C32.1545 17.7354 30.5467 16.6496 29.2939 14.8283C28.0433 13.0048 27.6211 11.1348 27.6211 11.1348C27.6211 11.1348 29.2289 12.2182 30.4818 14.0418C31.7346 15.8654 32.1545 17.7354 32.1545 17.7354Z" fill="#FFCC05"/>
<path fill-rule="evenodd" clip-rule="evenodd" d="M28.0481 22.1927C28.0481 22.1927 26.1108 21.977 24.1341 20.9445C22.1574 19.9121 20.8906 18.4551 20.8906 18.4551C20.8906 18.4551 22.8279 18.6708 24.8046 19.7033C26.7813 20.7357 28.0481 22.1927 28.0481 22.1927Z" fill="#FFCC05"/>
<path fill-rule="evenodd" clip-rule="evenodd" d="M32.1545 38.3613C32.1545 38.3613 30.5467 39.4471 29.2939 41.2684C28.0433 43.0897 27.6211 44.962 27.6211 44.962C27.6211 44.962 29.2289 43.8785 30.4818 42.0549C31.7346 40.2336 32.1545 38.3613 32.1545 38.3613Z" fill="#FFCC05"/>
<path fill-rule="evenodd" clip-rule="evenodd" d="M28.0481 33.9043C28.0481 33.9043 26.1108 34.1201 24.1341 35.1525C22.1574 36.1849 20.8906 37.642 20.8906 37.642C20.8906 37.642 22.8279 37.4262 24.8046 36.3937C26.7813 35.3613 28.0481 33.9043 28.0481 33.9043Z" fill="#FFCC05"/>
<path fill-rule="evenodd" clip-rule="evenodd" d="M32.7527 31.4515C34.212 35.1892 36.5576 37.8689 40.7477 38.5046C40.2698 38.5695 39.7849 38.609 39.2884 38.6113C33.3513 38.6368 28.5139 33.9317 28.4884 28.1013C28.4629 22.2709 33.2538 17.5217 39.1909 17.4962C39.7199 17.4939 40.2396 17.531 40.75 17.6006C35.9498 18.1992 32.7481 21.9252 32.1147 26.6675C31.9128 29.5583 35.2793 30.5351 35.2793 30.5351C35.2793 30.5351 33.9011 31.4353 32.7527 31.4538V31.4515Z" fill="#FFCC05"/>
</g>
<defs>
<clipPath id="clip0_8727_28855">
<rect width="79.7143" height="36" fill="white" transform="translate(16 10)"/>
</clipPath>
</defs>
</svg>
