<svg width="86" height="56" viewBox="0 0 86 56" fill="none" xmlns="http://www.w3.org/2000/svg">
<rect x="0.667969" width="84.73" height="56" rx="10" fill="white"/>
<rect x="1.16797" y="0.5" width="83.73" height="55" rx="9.5" stroke="#000028" stroke-opacity="0.1"/>
<g clip-path="url(#clip0_8727_28999)">
<path d="M59.0811 21.5L61.1878 23.8218L63.2161 21.5H67.547L63.3144 26.2597L67.605 31.0583H63.0993L61.0124 28.718L58.9445 31.0583H54.5938L58.8469 26.2795L54.5938 21.5H59.0811Z" fill="#FF5900"/>
<path d="M54.5914 21.4982V24.7277H49.7744V27.6912H54.5914V31.0565H46.2344V16H54.5914V19.3561H49.7744V21.4982H54.5914Z" fill="#FF5900"/>
<path d="M42.7096 16V22.1618H42.6707C41.8897 21.2648 40.9149 20.9528 39.7837 20.9528C37.4661 20.9528 35.7201 22.529 35.1075 24.6117C34.4078 22.3168 32.6052 20.9097 29.9325 20.9097C27.7621 20.9097 26.048 21.8838 25.1537 23.4713V21.4982H20.6671V19.3561H25.5634V16H16.668V31.0565H20.6671V24.7277H24.6536C24.5347 25.1925 24.4711 25.6906 24.4711 26.2162C24.4711 29.3565 26.8707 31.5609 29.9325 31.5609C32.5076 31.5609 34.2048 30.3519 35.1018 28.1482H31.6742C31.2109 28.8111 30.8593 29.007 29.9325 29.007C28.8579 29.007 27.9312 28.0697 27.9312 26.9583H34.9101C35.2129 29.4527 37.1562 31.6041 39.8226 31.6041C40.9729 31.6041 42.0263 31.0381 42.67 30.0831H42.7089V31.0579H46.2341V16H42.7096ZM28.0429 24.7723C28.2651 23.8158 29.0072 23.1912 29.9332 23.1912C30.9527 23.1912 31.6566 23.7967 31.8419 24.7723C31.9197 24.7723 28.0429 24.7723 28.0429 24.7723ZM40.5696 28.7644C39.2701 28.7644 38.4622 27.5533 38.4622 26.289C38.4622 24.9378 39.1647 23.6383 40.5696 23.6383C42.0263 23.6383 42.6064 24.9378 42.6064 26.289C42.6064 27.5702 41.9916 28.7644 40.5696 28.7644Z" fill="#2A007C"/>
<path d="M46.2344 38.5832V33.1875H49.2155V33.59H46.7261V35.5794H49.1101V35.9819H46.7261V38.1792H49.3266V38.5825L46.2344 38.5832Z" fill="#2A007C"/>
<path d="M49.6836 38.5851L51.1374 36.6474L49.7586 34.8145H50.3175L51.443 36.3121L52.5459 34.8145H53.1048L51.7041 36.6474L53.1642 38.5851H52.5983L51.3907 36.9821L50.2432 38.5851H49.6836Z" fill="#2A007C"/>
<path d="M54.1103 40.0013H53.6555V35.9412C53.6555 35.5684 53.6555 35.1892 53.6328 34.8157H54.0806L54.0955 35.3824C54.3777 34.9346 54.7506 34.7266 55.3102 34.7266C56.4725 34.7266 56.9712 35.6873 56.9712 36.7003C56.9712 37.7148 56.4725 38.6755 55.3102 38.6755C54.7881 38.6755 54.3785 38.4746 54.1103 38.0416V40.0013ZM56.4873 36.7003C56.4873 35.896 56.1513 35.1058 55.2578 35.1058C54.416 35.1058 54.1103 35.799 54.1103 36.7003C54.1103 37.6023 54.416 38.2949 55.2578 38.2949C56.152 38.2949 56.4873 37.5054 56.4873 36.7003Z" fill="#2A007C"/>
<path d="M59.3077 35.1652C58.555 35.1652 58.2932 35.799 58.2932 36.4541V38.5864H57.8383V35.925C57.8383 35.5599 57.8313 35.1885 57.8164 34.8157H58.2649L58.2939 35.3597C58.5175 34.9282 58.891 34.7266 59.3898 34.7266C59.457 34.7266 59.5312 34.7336 59.5985 34.7414V35.1963C59.4938 35.18 59.4117 35.1652 59.3077 35.1652Z" fill="#2A007C"/>
<path d="M60.154 36.7824C60.154 37.6313 60.5558 38.3317 61.3828 38.3317C62.023 38.3317 62.3216 37.9072 62.4334 37.4828H62.8656C62.664 38.2723 62.1794 38.6755 61.3227 38.6755C60.1752 38.6755 59.668 37.8259 59.668 36.7682C59.668 35.688 60.1971 34.7266 61.3821 34.7266C62.5819 34.7266 62.9024 35.7764 62.9024 36.7824H60.154ZM60.1681 36.44H62.4185C62.4185 35.7021 62.069 35.069 61.3531 35.069C60.7051 35.0683 60.2573 35.5599 60.1681 36.44Z" fill="#2A007C"/>
<path d="M64.6797 38.6755C63.905 38.6755 63.3242 38.3098 63.3242 37.4828H63.7791C63.7791 38.0487 64.1512 38.3317 64.703 38.3317C65.2173 38.3317 65.6192 38.0855 65.6192 37.5804C65.6192 37.1255 65.1501 37.0059 64.6585 36.8645C64.0628 36.6933 63.4141 36.5065 63.4141 35.7764C63.4141 34.965 64.0918 34.7266 64.7257 34.7266C65.455 34.7266 65.9998 35.0088 66.0217 35.7913H65.5668C65.5449 35.3449 65.2244 35.0916 64.7398 35.0916C64.3599 35.0916 63.898 35.2402 63.898 35.7318C63.898 36.1797 64.3599 36.3063 64.8516 36.44C65.4487 36.6034 66.1038 36.7824 66.1038 37.5132C66.1031 38.3621 65.448 38.6755 64.6797 38.6755Z" fill="#2A007C"/>
<path d="M67.8327 38.6755C67.0574 38.6755 66.4766 38.3098 66.4766 37.4828H66.9314C66.9314 38.0487 67.3036 38.3317 67.8561 38.3317C68.3704 38.3317 68.7722 38.0855 68.7722 37.5804C68.7722 37.1255 68.3025 37.0059 67.8108 36.8645C67.2151 36.6933 66.5671 36.5065 66.5671 35.7764C66.5671 34.965 67.2448 34.7266 67.8787 34.7266C68.6081 34.7266 69.1528 35.0088 69.1748 35.7913H68.7199C68.6979 35.3449 68.3775 35.0916 67.8929 35.0916C67.513 35.0916 67.051 35.2402 67.051 35.7318C67.051 36.1797 67.513 36.3063 68.0053 36.44C68.6017 36.6034 69.2575 36.7824 69.2575 37.5132C69.2561 38.3621 68.6003 38.6755 67.8327 38.6755Z" fill="#2A007C"/>
</g>
<defs>
<clipPath id="clip0_8727_28999">
<rect width="52.73" height="24" fill="white" transform="translate(16.668 16)"/>
</clipPath>
</defs>
</svg>
