<svg width="105" height="56" viewBox="0 0 105 56" fill="none" xmlns="http://www.w3.org/2000/svg">
<rect x="0.714844" width="103.429" height="56" rx="10" fill="white"/>
<rect x="1.21484" y="0.5" width="102.429" height="55" rx="9.5" stroke="#000028" stroke-opacity="0.1"/>
<g clip-path="url(#clip0_8727_28866)">
<path fill-rule="evenodd" clip-rule="evenodd" d="M62.6768 36.6754C61.3765 37.0383 59.6832 37.1894 58.2318 37.1894C54.4521 37.1894 51.9727 35.224 51.9727 31.6257C51.9727 28.2088 54.3009 26.0014 57.6875 26.0014C58.4434 26.0014 59.2599 26.0921 59.7437 26.334V21.375H62.6768V36.6754ZM59.7437 28.874C59.2901 28.6623 58.6551 28.5414 57.9294 28.5414C56.1455 28.5414 54.9662 29.63 54.9662 31.535C54.9662 33.5609 56.2362 34.7099 58.3225 34.7099C58.6854 34.7099 59.2599 34.7099 59.7437 34.589V28.874ZM86.7765 36.6754C85.4763 37.0383 83.783 37.1894 82.3013 37.1894C78.5518 37.1894 76.042 35.224 76.042 31.6257C76.042 28.2088 78.3704 26.0014 81.757 26.0014C82.5432 26.0014 83.3294 26.0921 83.8132 26.334V21.375H86.7765V36.6754ZM83.8132 28.874C83.3596 28.6623 82.7549 28.5414 82.0292 28.5414C80.2149 28.5414 79.0356 29.63 79.0356 31.535C79.0356 33.5609 80.3358 34.7099 82.4223 34.7099C82.7851 34.7099 83.3294 34.7099 83.8132 34.589V28.874ZM67.3032 28.874C67.787 28.6623 68.4825 28.6019 69.057 28.6019C70.8713 28.6019 72.1111 29.63 72.1111 31.4745C72.1111 33.6516 70.7201 34.6494 68.8756 34.6797V37.1894H69.0268C72.8368 37.1894 75.1046 35.103 75.1046 31.3838C75.1046 27.9971 72.6856 26.0014 69.1175 26.0014C67.3032 26.0014 65.5192 26.4248 64.3399 26.9085V41.2715H67.3032V28.874Z" fill="#3F3F42"/>
<path fill-rule="evenodd" clip-rule="evenodd" d="M41.1484 19.0176L41.6322 19.5619L41.9043 19.4107L41.1484 19.0176Z" fill="#DC0032"/>
<path fill-rule="evenodd" clip-rule="evenodd" d="M40.4219 18.623L41.3592 19.7116L41.6918 19.5302L41.329 19.1069L40.4219 18.623Z" fill="#DC0032"/>
<path fill-rule="evenodd" clip-rule="evenodd" d="M39.6641 18.2305L41.0853 19.8633L41.4178 19.6819L40.6014 18.7143L39.6641 18.2305Z" fill="#DC0032"/>
<path fill-rule="evenodd" clip-rule="evenodd" d="M38.9375 17.8379L40.8123 20.015L41.1449 19.8336L39.8446 18.3217L38.9375 17.8379ZM42.5358 21.6781L42.3241 21.799L42.5358 22.0409V21.6781Z" fill="#DC0032"/>
<path fill-rule="evenodd" clip-rule="evenodd" d="M38.2109 17.4453L40.5393 20.1667L40.8719 19.9853L39.1181 17.9291L38.2109 17.4453ZM42.414 21.7391L42.0814 21.9507L42.5349 22.495V21.9205L42.414 21.7391Z" fill="#DC0032"/>
<path fill-rule="evenodd" clip-rule="evenodd" d="M37.457 17.0508L40.2692 20.3165L40.632 20.1351L38.3944 17.5346L37.457 17.0508ZM42.1439 21.8888L41.8113 22.1005L42.537 22.9472V22.3726L42.1439 21.8888Z" fill="#DC0032"/>
<path fill-rule="evenodd" clip-rule="evenodd" d="M36.7344 16.6602L40.0303 20.4701L40.3629 20.2887L37.6415 17.144L36.7344 16.6602ZM41.8748 22.0727L41.5422 22.2542L42.54 23.4334V22.8589L41.8748 22.0727Z" fill="#DC0032"/>
<path fill-rule="evenodd" clip-rule="evenodd" d="M36.0078 16.2656L39.7573 20.6199L40.09 20.4385L36.915 16.7494L36.0078 16.2656ZM41.6018 22.2225L41.2692 22.4039L42.5392 23.8856V23.311L41.6018 22.2225Z" fill="#DC0032"/>
<path fill-rule="evenodd" clip-rule="evenodd" d="M35.25 15.873L39.4833 20.7716L39.8159 20.5902L36.1873 16.3569L35.25 15.873ZM41.3278 22.3742L40.9952 22.5556L42.5373 24.3397V23.7651L41.3278 22.3742Z" fill="#DC0032"/>
<path fill-rule="evenodd" clip-rule="evenodd" d="M34.5234 15.4805L39.2103 20.9535L39.5429 20.7419L35.4306 15.9643L34.5234 15.4805ZM41.0548 22.5259L40.7222 22.7073L42.5365 24.824V24.2495L41.0548 22.5259Z" fill="#DC0032"/>
<path fill-rule="evenodd" clip-rule="evenodd" d="M33.7656 15.0859L38.9363 21.1033L39.2689 20.8916L34.703 15.5697L33.7656 15.0859ZM40.8111 22.6756L40.4482 22.8571L42.5346 25.2761V24.7016L40.8111 22.6756Z" fill="#DC0032"/>
<path fill-rule="evenodd" clip-rule="evenodd" d="M33.0391 14.6934L38.6633 21.255L39.0262 21.0433L33.9764 15.1772L33.0391 14.6934ZM40.5381 22.8273L40.2055 23.0088L42.5337 25.7604V25.1557L40.5381 22.8273Z" fill="#DC0032"/>
<path fill-rule="evenodd" clip-rule="evenodd" d="M32.3164 14.3008L38.4245 21.4067L38.7571 21.195L33.2235 14.7846L32.3164 14.3008ZM40.269 22.979L39.9364 23.1605L42.5368 26.2145V25.64L40.269 22.979Z" fill="#DC0032"/>
<path fill-rule="evenodd" clip-rule="evenodd" d="M31.5625 13.877L38.1544 21.5574L38.487 21.3457L32.4999 14.391L31.5625 13.877ZM39.9989 23.1297L39.6663 23.3112L42.5388 26.6676V26.0931L39.9989 23.1297Z" fill="#DC0032"/>
<path fill-rule="evenodd" clip-rule="evenodd" d="M30.8359 13.4844L37.8814 21.7091L38.214 21.5276L31.7733 13.9984L30.8359 13.4844ZM39.7259 23.2814L39.3933 23.4629L42.538 27.1519V26.5472L39.7259 23.2814Z" fill="#DC0032"/>
<path fill-rule="evenodd" clip-rule="evenodd" d="M30.1094 13.1211L37.6083 21.8598L37.941 21.6784L31.0165 13.6049L30.1094 13.1211ZM39.4529 23.4322L39.1202 23.6136L42.5371 27.605V27.0305L39.4529 23.4322Z" fill="#DC0032"/>
<path fill-rule="evenodd" clip-rule="evenodd" d="M29.625 13L37.3356 22.0109L37.6683 21.8294L30.2902 13.2117L30.1088 13.121C29.9576 13.0302 29.8064 13 29.625 13ZM39.1802 23.5833L38.8475 23.7647L42.5365 28.0585V27.4839L39.1802 23.5833Z" fill="#DC0032"/>
<path fill-rule="evenodd" clip-rule="evenodd" d="M29.6246 13C29.5036 13 29.3827 13.0302 29.2617 13.0605L37.0631 22.1621L37.4259 21.9806L29.7153 13C29.6851 13 29.6548 13 29.6246 13ZM38.9378 23.7344L38.6052 23.9159L42.5361 28.5423V27.9375L38.9378 23.7344Z" fill="#DC0032"/>
<path fill-rule="evenodd" clip-rule="evenodd" d="M29.3511 13.0312C29.2907 13.0615 29.1999 13.0917 29.1697 13.122L28.9883 13.2127L36.8199 22.3143L37.1525 22.1328L29.3511 13.0312ZM38.6644 23.8866L38.3318 24.0983L42.5348 28.9968V28.4223L38.6644 23.8866Z" fill="#DC0032"/>
<path fill-rule="evenodd" clip-rule="evenodd" d="M29.0514 13.1504L28.7188 13.3318L36.5503 22.4636L36.883 22.2822L29.0514 13.1504ZM38.3949 24.036L38.0622 24.2477L42.5374 29.4486V28.8741L38.3949 24.036Z" fill="#DC0032"/>
<path fill-rule="evenodd" clip-rule="evenodd" d="M28.7779 13.3008L28.4453 13.4822L36.2769 22.614L36.6095 22.4326L28.7779 13.3008ZM38.1214 24.1864L37.7888 24.3981L42.5361 29.9316V29.3571L38.1214 24.1864Z" fill="#DC0032"/>
<path fill-rule="evenodd" clip-rule="evenodd" d="M28.5084 13.4531L28.1758 13.6346L36.0074 22.7664L36.34 22.585L28.5084 13.4531ZM37.8519 24.3388L37.5193 24.5504L42.5388 30.3863V29.8118L37.8519 24.3388Z" fill="#DC0032"/>
<path fill-rule="evenodd" clip-rule="evenodd" d="M28.235 13.6055L27.9023 13.7869L35.734 22.9187L36.0665 22.7373L28.235 13.6055ZM37.5785 24.4911L37.2458 24.7028L42.5375 30.8411V30.2665L37.5785 24.4911Z" fill="#DC0032"/>
<path fill-rule="evenodd" clip-rule="evenodd" d="M27.9615 13.7559L27.6289 13.9373L35.4605 23.0691L35.7931 22.8877L27.9615 13.7559ZM37.3353 24.6415L37.0026 24.8532L42.5362 31.3241V30.7496L37.3353 24.6415Z" fill="#DC0032"/>
<path fill-rule="evenodd" clip-rule="evenodd" d="M27.692 13.877L27.3594 14.0886L35.2212 23.2205L35.5539 23.039L27.692 13.877ZM37.0657 24.8231L36.7331 25.0045L42.5388 31.7778V31.2033L37.0657 24.8231Z" fill="#DC0032"/>
<path fill-rule="evenodd" clip-rule="evenodd" d="M27.4186 14.0273L27.0859 14.2088L34.9478 23.3708L35.2804 23.1894L27.4186 14.0273ZM36.7923 24.9735L36.4597 25.1549L42.5375 32.2608V31.656L36.7923 24.9735Z" fill="#DC0032"/>
<path fill-rule="evenodd" clip-rule="evenodd" d="M27.1451 14.1797L26.8125 14.3611L34.6744 23.5534L35.007 23.3418L27.1451 14.1797ZM36.5188 25.1258L36.1862 25.3072L42.5362 32.7155V32.141L36.5188 25.1258Z" fill="#DC0032"/>
<path fill-rule="evenodd" clip-rule="evenodd" d="M26.8717 14.3301L26.5391 14.5115L34.4009 23.7038L34.7335 23.4921L26.8717 14.3301ZM36.2454 25.2762L35.9128 25.4576L42.5349 33.1683V32.5937L36.2454 25.2762Z" fill="#DC0032"/>
<path fill-rule="evenodd" clip-rule="evenodd" d="M26.5982 14.4805L26.2656 14.6619L34.1275 23.8542L34.4601 23.6425L26.5982 14.4805ZM35.972 25.4266L35.6394 25.608L42.5336 33.6513V33.0465L35.972 25.4266Z" fill="#DC0032"/>
<path fill-rule="evenodd" clip-rule="evenodd" d="M26.3326 14.6328L26 14.8142L33.8619 24.0066L34.1945 23.7949L26.3326 14.6328ZM35.7366 25.5789L35.404 25.7604L42.5401 34.106V33.5315L35.7366 25.5789Z" fill="#DC0032"/>
<path fill-rule="evenodd" clip-rule="evenodd" d="M26.0582 14.7539L25.6953 14.9353L33.6177 24.1579L33.9503 23.9462L26.0582 14.7539ZM35.4622 25.7303L35.1296 25.9117L42.5378 34.5597V33.9852L35.4622 25.7303Z" fill="#DC0032"/>
<path fill-rule="evenodd" clip-rule="evenodd" d="M25.7847 14.9043L25.4219 15.0857L33.3745 24.3385C33.4047 24.278 33.4349 24.2478 33.4954 24.2176L33.6768 24.0966L25.7847 14.9043ZM35.1887 25.8807L34.8561 26.0621L42.476 34.952C42.5063 34.8613 42.5365 34.7706 42.5365 34.6799V34.438L35.1887 25.8807Z" fill="#DC0032"/>
<path fill-rule="evenodd" clip-rule="evenodd" d="M25.5152 15.0566L25.1523 15.2381L33.2864 24.7025V24.5816C33.2864 24.4909 33.3468 24.3699 33.4073 24.2792L25.5152 15.0566ZM34.9192 26.033L34.6773 26.1842C34.6471 26.1842 34.6168 26.2144 34.5866 26.2144L42.3275 35.2555C42.4182 35.1346 42.4787 35.0136 42.5089 34.8927L34.9192 26.033Z" fill="#DC0032"/>
<path fill-rule="evenodd" clip-rule="evenodd" d="M25.2417 15.207L24.8789 15.3885L33.285 25.1855V24.5808L25.2417 15.207ZM34.0712 26.0624L42.1145 35.4664C42.2052 35.4059 42.2959 35.285 42.3866 35.1943L34.6457 26.1834C34.5248 26.2439 34.3433 26.2439 34.2224 26.1834L34.0712 26.0624Z" fill="#DC0032"/>
<path fill-rule="evenodd" clip-rule="evenodd" d="M24.9683 15.3594L24.6055 15.5408L41.841 35.6188L42.0829 35.4978C42.1132 35.4676 42.1434 35.4373 42.1736 35.4071L34.2513 26.1845H34.2211L33.5256 25.7612C33.4652 25.731 33.4349 25.6705 33.3744 25.61C33.314 25.5193 33.314 25.4588 33.2837 25.3984V25.0657L24.9683 15.3594Z" fill="#DC0032"/>
<path fill-rule="evenodd" clip-rule="evenodd" d="M24.6988 15.5098L24.3359 15.6912L41.5715 35.7691L41.9041 35.5877L24.6988 15.5098Z" fill="#DC0032"/>
<path fill-rule="evenodd" clip-rule="evenodd" d="M24.4254 15.6309L24.0625 15.8123L41.3283 35.9205L41.6609 35.7391L24.4254 15.6309Z" fill="#DC0032"/>
<path fill-rule="evenodd" clip-rule="evenodd" d="M24.1519 15.7812L23.7891 15.9627L41.0549 36.0709L41.3875 35.8894L24.1519 15.7812Z" fill="#DC0032"/>
<path fill-rule="evenodd" clip-rule="evenodd" d="M23.8785 15.9336L23.5156 16.115L40.7815 36.2232L41.1141 36.0418L23.8785 15.9336Z" fill="#DC0032"/>
<path fill-rule="evenodd" clip-rule="evenodd" d="M23.5748 16.0859L23.2422 16.2674L40.508 36.4058L40.8406 36.1941L23.5748 16.0859Z" fill="#DC0032"/>
<path fill-rule="evenodd" clip-rule="evenodd" d="M23.3053 16.2363L22.9727 16.4178L40.2385 36.5562L40.5711 36.3445L23.3053 16.2363Z" fill="#DC0032"/>
<path fill-rule="evenodd" clip-rule="evenodd" d="M23.0357 16.3867L22.7031 16.5681L39.9992 36.7066L40.3318 36.4949L23.0357 16.3867Z" fill="#DC0032"/>
<path fill-rule="evenodd" clip-rule="evenodd" d="M22.7623 16.5078L22.4297 16.6892L39.7258 36.8579L40.0584 36.6462L22.7623 16.5078Z" fill="#DC0032"/>
<path fill-rule="evenodd" clip-rule="evenodd" d="M22.4889 16.6602L22.1562 16.8416L39.4523 37.0103L39.7849 36.8288L22.4889 16.6602Z" fill="#DC0032"/>
<path fill-rule="evenodd" clip-rule="evenodd" d="M22.2154 16.8105L21.8828 16.992L30.289 26.789L30.5611 26.9705C30.682 27.0309 30.803 27.1821 30.803 27.3333V27.3636L39.1789 37.1607L39.5115 36.9792L22.2154 16.8105Z" fill="#DC0032"/>
<path fill-rule="evenodd" clip-rule="evenodd" d="M21.9459 16.9609L21.6133 17.1424L29.5054 26.3649L30.5032 26.9092L21.9459 16.9609ZM30.7753 27.2418C30.7753 27.272 30.8056 27.3023 30.8056 27.3325V27.8466L38.9094 37.311L39.242 37.1296L30.7753 27.2418Z" fill="#DC0032"/>
<path fill-rule="evenodd" clip-rule="evenodd" d="M21.6725 17.1113L21.3398 17.2928L28.7179 25.9106L29.7158 26.4549L21.6725 17.1113ZM30.8043 27.7248V28.2993L38.6662 37.4614L38.9988 37.28L30.8043 27.7248Z" fill="#DC0032"/>
<path fill-rule="evenodd" clip-rule="evenodd" d="M21.399 17.2637L21.0664 17.4451L27.9607 25.4582L28.9283 26.0024L21.399 17.2637ZM30.803 28.1795V28.7843L38.3927 37.6137L38.7253 37.4324L30.803 28.1795Z" fill="#DC0032"/>
<path fill-rule="evenodd" clip-rule="evenodd" d="M21.1295 17.3848L20.7969 17.5662L27.1771 25.0047L28.1447 25.5792L21.1295 17.3848ZM30.8056 28.6635V29.238L38.1232 37.7651L38.4558 37.5837L30.8056 28.6635Z" fill="#DC0032"/>
<path fill-rule="evenodd" clip-rule="evenodd" d="M20.856 17.5352L20.5234 17.7166L26.3896 24.5504L27.3572 25.1249L20.856 17.5352ZM30.8043 29.1163V29.6908L37.8497 37.9155L38.1824 37.734L30.8043 29.1163Z" fill="#DC0032"/>
<path fill-rule="evenodd" clip-rule="evenodd" d="M20.5865 17.6875L20.2539 17.8689L25.606 24.1282L26.5736 24.6725L20.5865 17.6875ZM30.8069 29.571V30.1758L37.5802 38.0981L37.9128 37.8864L30.8069 29.571Z" fill="#DC0032"/>
<path fill-rule="evenodd" clip-rule="evenodd" d="M20.3131 17.8379L19.9805 18.0193L24.8185 23.6738L25.7861 24.2181L20.3131 17.8379ZM30.8056 30.054V30.6285L37.337 38.2484L37.6696 38.0368L30.8056 30.054Z" fill="#DC0032"/>
<path fill-rule="evenodd" clip-rule="evenodd" d="M20.0396 17.9883L19.707 18.1697L24.0311 23.2194L25.0289 23.7637L20.0396 17.9883ZM30.8043 30.5068V31.0813L37.0636 38.3988L37.3962 38.1872L30.8043 30.5068Z" fill="#DC0032"/>
<path fill-rule="evenodd" clip-rule="evenodd" d="M19.7701 18.1406L19.4375 18.3221L23.2475 22.767L24.2453 23.3415L19.7701 18.1406ZM27.6924 27.9377L28.4786 28.8448V28.5122C28.4786 28.4517 28.4182 28.361 28.3577 28.3308L27.6924 27.9377ZM30.8069 30.9615V31.5663L36.794 38.5512L37.1266 38.3395L30.8069 30.9615Z" fill="#DB0032"/>
<path fill-rule="evenodd" clip-rule="evenodd" d="M19.4967 18.2617L19.1641 18.4431L22.46 22.3136L23.4578 22.8881L19.4967 18.2617ZM26.9049 27.4843L28.4773 29.2985V28.724L27.9028 28.0588L26.9049 27.4843ZM30.8056 31.4454V32.02L36.5206 38.7025L36.8532 38.5211L30.8056 31.4454Z" fill="#DC0032"/>
<path fill-rule="evenodd" clip-rule="evenodd" d="M19.2232 18.4121L18.8906 18.5935L21.7027 21.8895L22.6704 22.4337L19.2232 18.4121ZM26.1175 27.0601L28.476 29.7816V29.207L27.1153 27.6044L26.1175 27.0601ZM30.8043 31.8982V32.4727L36.2471 38.8529L36.5798 38.6715L30.8043 31.8982Z" fill="#DC0032"/>
<path fill-rule="evenodd" clip-rule="evenodd" d="M18.9498 18.5625L18.6172 18.7439L20.9153 21.4351L21.8829 21.9794L18.9498 18.5625ZM25.3602 26.6058L28.4747 30.2343V29.6598L26.3278 27.15L25.3602 26.6058ZM30.803 32.3812V32.9557L36.0039 39.0033L36.3366 38.8219L30.803 32.3812Z" fill="#DC0032"/>
<path fill-rule="evenodd" clip-rule="evenodd" d="M18.6764 18.7148L18.3438 18.8963L20.1278 20.9827L21.0954 21.5269L18.6764 18.7148ZM24.5728 26.1534L28.4734 30.689V30.1145L25.5403 26.7279L24.5728 26.1534ZM30.8017 32.8359V33.4104L35.7305 39.1556L36.0631 38.9742L30.8017 32.8359Z" fill="#DC0032"/>
<path fill-rule="evenodd" clip-rule="evenodd" d="M18.4068 18.8672L18.0742 19.0486L19.3442 20.5303L20.3118 21.1048L18.4068 18.8672ZM23.7892 25.701L28.4761 31.174V30.5995L24.7568 26.2755L23.7892 25.701ZM30.8043 33.2906V33.8652L35.461 39.308L35.7936 39.1266L30.8043 33.2906Z" fill="#DC0032"/>
<path fill-rule="evenodd" clip-rule="evenodd" d="M18.1373 19.0176L17.8047 19.199L18.5606 20.0759L19.5585 20.6504L18.1373 19.0176ZM23.0056 25.2768L28.4787 31.6268V31.0523L23.9732 25.8211L23.0056 25.2768ZM30.807 33.7736V34.3482L35.1915 39.4584L35.5241 39.2769L30.807 33.7736Z" fill="#DC0032"/>
<path fill-rule="evenodd" clip-rule="evenodd" d="M17.8629 19.1367L17.5 19.3181L17.7721 19.6508L18.77 20.1951L17.8629 19.1367ZM22.2171 24.8214L28.4764 32.1087V31.504L23.215 25.3657L22.2171 24.8214ZM30.8046 34.2254V34.7999L34.917 39.638L35.2496 39.4263L30.8046 34.2254Z" fill="#DC0032"/>
<path fill-rule="evenodd" clip-rule="evenodd" d="M17.5906 19.2891L17.3789 19.41L17.9837 19.7426L17.5906 19.2891ZM21.4308 24.369L28.4762 32.5635V31.989L22.4286 24.9435L21.4308 24.369ZM30.8045 34.6801V35.2849L34.675 39.7903L35.0076 39.5787L30.8045 34.6801Z" fill="#DC0032"/>
<path fill-rule="evenodd" clip-rule="evenodd" d="M20.6758 23.916L28.4772 33.0176V32.4431L21.6434 24.4905L20.6758 23.916ZM30.8055 35.1645V35.739L34.4038 39.9421L34.7364 39.7304L30.8055 35.1645Z" fill="#DC0032"/>
<path fill-rule="evenodd" clip-rule="evenodd" d="M19.8906 23.4922L28.4782 33.5009V32.8962L20.8582 24.0365L19.8906 23.4922ZM30.8065 35.6176V36.1921L34.1327 40.0928L34.4653 39.8811L30.8065 35.6176Z" fill="#DC0032"/>
<path fill-rule="evenodd" clip-rule="evenodd" d="M19.1016 23.0391L28.4753 33.9549V33.3804L20.0692 23.5833L19.1016 23.0391ZM30.8036 36.0716V36.6764L33.8577 40.2444L34.1903 40.063L30.8036 36.0716Z" fill="#DC0032"/>
<path fill-rule="evenodd" clip-rule="evenodd" d="M18.3164 22.5859L28.4763 34.409V33.8344L19.284 23.1605L18.3164 22.5859ZM30.8046 36.5559V37.1304L33.5865 40.3961L33.9192 40.2146L30.8046 36.5559Z" fill="#DB0032"/>
<path fill-rule="evenodd" clip-rule="evenodd" d="M17.5312 22.1328L28.4774 34.8932V34.3187L18.4989 22.7073L17.5312 22.1328ZM30.8057 37.0099V37.5844L33.3457 40.5477L33.6783 40.3663L30.8057 37.0099Z" fill="#DA0032"/>
<path fill-rule="evenodd" clip-rule="evenodd" d="M16.7422 21.709L28.4745 35.3463V34.7718L17.74 22.2533L16.7422 21.709ZM30.8028 37.463V38.0677L33.0706 40.6984L33.4033 40.517L30.8028 37.463Z" fill="#D90032"/>
<path fill-rule="evenodd" clip-rule="evenodd" d="M16.7148 21.6777V22.1011L28.4774 35.7988V35.2243L16.9567 21.7987L16.7148 21.6777ZM30.8057 37.9457V38.3086C30.8057 38.369 30.7754 38.4295 30.7452 38.4598L32.8014 40.8486L33.134 40.6671L30.8057 37.9457Z" fill="#D80032"/>
<path fill-rule="evenodd" clip-rule="evenodd" d="M16.7148 21.9805V22.5852L28.4774 36.283V35.7085L16.7148 21.9805ZM30.7754 38.3996C30.7452 38.5206 30.6545 38.6415 30.5638 38.6718L30.5335 38.702L32.5292 41.0001L32.8619 40.8187L30.7754 38.3996Z" fill="#D70032"/>
<path fill-rule="evenodd" clip-rule="evenodd" d="M16.7148 22.4648V23.0394L28.4774 36.7371V36.1626L16.7148 22.4648ZM30.594 38.6421C30.594 38.6723 30.594 38.6723 30.5638 38.6723L30.2614 38.8538L32.2571 41.1519L32.5897 40.9704L30.594 38.6421Z" fill="#D60032"/>
<path fill-rule="evenodd" clip-rule="evenodd" d="M16.7148 22.918V23.4925L28.4774 37.1903V36.6157L16.7148 22.918ZM30.3521 38.7928L29.9893 39.0045L32.0152 41.3329L32.3478 41.1212L30.3521 38.7928Z" fill="#D50032"/>
<path fill-rule="evenodd" clip-rule="evenodd" d="M16.7148 23.4023V23.9769L28.4774 37.6746V37.1001L16.7148 23.4023ZM30.08 38.9446L29.8683 39.0656C29.8079 39.0958 29.7474 39.0958 29.6869 39.0958L31.7431 41.4846L32.0757 41.2729L30.08 38.9446Z" fill="#D40032"/>
<path fill-rule="evenodd" clip-rule="evenodd" d="M16.7148 23.8555V24.43L28.4774 38.1277V37.5532L16.7148 23.8555ZM29.1426 38.9442L31.4709 41.6353L31.8035 41.4237L29.7776 39.0953C29.7474 39.0953 29.6869 39.1256 29.6567 39.1256H29.6264C29.5357 39.1256 29.4752 39.0953 29.4148 39.0651L29.1426 38.9442Z" fill="#D30032"/>
<path fill-rule="evenodd" clip-rule="evenodd" d="M16.7148 24.3086V24.9134L31.1988 41.7861L31.5314 41.5744L29.3543 39.0344L28.689 38.6716C28.5681 38.6111 28.4774 38.4599 28.4774 38.3087V38.0063L16.7148 24.3086Z" fill="#D20032"/>
<path fill-rule="evenodd" clip-rule="evenodd" d="M16.7148 24.793V25.3675L30.9266 41.9378L31.2592 41.7564L16.7148 24.793Z" fill="#D10032"/>
<path fill-rule="evenodd" clip-rule="evenodd" d="M16.7148 25.2461V25.8206L30.6545 42.0886L30.9871 41.9072L16.7148 25.2461Z" fill="#D00032"/>
<path fill-rule="evenodd" clip-rule="evenodd" d="M16.7148 25.6992V26.304L30.4126 42.2393L30.7452 42.0579L16.7148 25.6992Z" fill="#CF0032"/>
<path fill-rule="evenodd" clip-rule="evenodd" d="M16.7148 26.1836V26.7581L30.1405 42.3911L30.4731 42.2097L16.7148 26.1836Z" fill="#CE0032"/>
<path fill-rule="evenodd" clip-rule="evenodd" d="M16.7148 26.6367V27.2112L29.8381 42.5116C29.9288 42.4814 30.0195 42.4512 30.1102 42.4209L30.201 42.3605L16.7148 26.6367Z" fill="#CD0032"/>
<path fill-rule="evenodd" clip-rule="evenodd" d="M16.7148 27.0898V27.6946L29.445 42.5112C29.5055 42.5112 29.566 42.5112 29.6264 42.5112C29.7171 42.5112 29.8079 42.5112 29.8986 42.481L16.7148 27.0898Z" fill="#CC0032"/>
<path fill-rule="evenodd" clip-rule="evenodd" d="M16.7148 27.5742V28.1487L28.7495 42.1791L29.1729 42.421C29.2636 42.4815 29.4148 42.5118 29.5357 42.5118L16.7148 27.5742Z" fill="#CB0032"/>
<path fill-rule="evenodd" clip-rule="evenodd" d="M16.7148 28.0273V28.6019L27.9633 41.7251L28.9612 42.2996L16.7148 28.0273Z" fill="#CA0032"/>
<path fill-rule="evenodd" clip-rule="evenodd" d="M16.7148 28.5117V29.0862L27.1771 41.2721L28.175 41.8466L16.7148 28.5117Z" fill="#C90032"/>
<path fill-rule="evenodd" clip-rule="evenodd" d="M16.7148 28.9648V29.5394L26.391 40.8181L27.3586 41.3926L16.7148 28.9648Z" fill="#C80033"/>
<path fill-rule="evenodd" clip-rule="evenodd" d="M16.7148 29.4199V29.9944L25.6048 40.366L26.5724 40.9406L16.7148 29.4199Z" fill="#C70033"/>
<path fill-rule="evenodd" clip-rule="evenodd" d="M16.7148 29.9023V30.4769L24.7884 39.8808L25.7862 40.4554L16.7148 29.9023Z" fill="#C60033"/>
<path fill-rule="evenodd" clip-rule="evenodd" d="M16.7148 30.3574V30.9319L24.0022 39.4288L25 40.0033L16.7148 30.3574Z" fill="#C50033"/>
<path fill-rule="evenodd" clip-rule="evenodd" d="M16.7148 30.8086V31.3831L23.216 38.9728L24.2139 39.5473L16.7148 30.8086Z" fill="#C40033"/>
<path fill-rule="evenodd" clip-rule="evenodd" d="M16.7148 31.2949V31.8694L22.4298 38.5217L23.4277 39.0963L16.7148 31.2949Z" fill="#C30033"/>
<path fill-rule="evenodd" clip-rule="evenodd" d="M16.7148 31.7461V32.3206L21.6436 38.0658L22.6415 38.6403L16.7148 31.7461Z" fill="#C20033"/>
<path fill-rule="evenodd" clip-rule="evenodd" d="M16.7148 32.2012V32.8059L20.8574 37.6138L21.825 38.1883L16.7148 32.2012Z" fill="#C10033"/>
<path fill-rule="evenodd" clip-rule="evenodd" d="M16.7148 32.6836V33.2581L20.041 37.1588L21.0389 37.7333L16.7148 32.6836Z" fill="#C00033"/>
<path fill-rule="evenodd" clip-rule="evenodd" d="M16.7148 33.1387V33.7132L19.2548 36.7068L20.2527 37.2511L16.7148 33.1387Z" fill="#BF0033"/>
<path fill-rule="evenodd" clip-rule="evenodd" d="M16.7148 33.5918V34.1966L18.4686 36.2225L19.4665 36.797L16.7148 33.5918Z" fill="#BE0033"/>
<path fill-rule="evenodd" clip-rule="evenodd" d="M16.7148 34.0762V34.6507L17.6825 35.7695L18.6803 36.344L16.7148 34.0762Z" fill="#BD0033"/>
<path fill-rule="evenodd" clip-rule="evenodd" d="M16.7148 34.5293V34.6805C16.7148 34.9829 16.9265 35.3457 17.1684 35.4969L17.8941 35.89L16.7148 34.5293Z" fill="#BC0033"/>
<path fill-rule="evenodd" clip-rule="evenodd" d="M16.8945 35.2246C16.955 35.2851 16.9852 35.3456 17.0457 35.3758L16.8945 35.2246Z" fill="#BB0033"/>
</g>
<defs>
<clipPath id="clip0_8727_28866">
<rect width="71.4286" height="30" fill="white" transform="translate(16.7148 13)"/>
</clipPath>
</defs>
</svg>
