<svg width="103" height="56" viewBox="0 0 103 56" fill="none" xmlns="http://www.w3.org/2000/svg">
<rect x="0.394531" width="102.247" height="56" rx="10" fill="white"/>
<rect x="0.894531" y="0.5" width="101.247" height="55" rx="9.5" stroke="#000028" stroke-opacity="0.1"/>
<path d="M65.378 29.3672L63.9531 26.8148L69.4172 21.1152L84.1927 21.1586C84.1927 21.1586 78.6976 21.4436 76.4611 22.7693C74.2247 24.0951 75.5071 23.3517 74.9 23.5871C74.2928 23.8225 72.4776 25.4766 72.4776 25.4766L69.3491 29.1132L67.1003 30.092L65.9418 29.7761L65.378 29.3672Z" fill="white"/>
<path d="M64.8975 28.5761L63.9062 26.8167L69.3704 21.1172L84.2449 21.1606C84.2449 21.1606 79.1835 21.365 76.4081 22.7713" stroke="#E41F13" stroke-width="0.9" stroke-miterlimit="10"/>
<path d="M70.4121 23.1312L65.0781 28.9175L65.8463 30.2804H68.3058C68.3801 30.2804 69.0616 30.2308 69.9971 29.2954C71.0007 28.2236 72.853 25.6031 73.4106 25.0517C73.9682 24.4941 75.5293 23.4905 78.1747 23.125C74.2965 23.125 70.4121 23.1312 70.4121 23.1312Z" fill="#E41F13"/>
<path d="M18.9219 30.2673L20.7371 21.1914H24.8011C26.6534 21.1914 27.4092 22.0463 27.0685 23.75C26.703 25.5962 25.2099 26.7175 22.6018 27.1078L22.6575 25.6085C24.2373 25.336 25.117 24.7288 25.3029 23.7996C25.4516 23.0438 25.148 22.672 24.3984 22.672H22.1248L20.607 30.2673H18.9219Z" fill="#E41F13"/>
<path d="M27.0679 26.9399C27.5201 24.6786 28.8273 23.5449 30.9832 23.5449C33.1391 23.5449 33.994 24.6786 33.5418 26.9399C33.0895 29.2011 31.7824 30.3286 29.6265 30.3286C27.4767 30.3286 26.6218 29.1949 27.0679 26.9399ZM29.8928 29.0028C30.9274 29.0028 31.5903 28.309 31.8691 26.9151C32.1417 25.5583 31.7576 24.8769 30.723 24.8769C29.6884 24.8769 29.0317 25.5583 28.7591 26.9151C28.4742 28.3028 28.8521 29.0028 29.8928 29.0028Z" fill="#E41F13"/>
<path d="M39.0979 29.4436C38.435 29.995 37.704 30.2675 36.9048 30.2675C34.7923 30.2675 33.9559 29.1338 34.4082 26.8726C34.8418 24.6919 36.2048 23.6016 38.4908 23.6016C39.1227 23.6016 39.705 23.6635 40.2316 23.7936L39.9652 25.1256C39.4386 25.0017 38.9058 24.9335 38.3545 24.9335C37.1093 24.9335 36.3534 25.5778 36.0933 26.8664C35.8207 28.2417 36.2172 28.9294 37.3013 28.9294C38.0199 28.9294 38.7076 28.6568 39.3705 28.1054L39.0979 29.4436Z" fill="#E41F13"/>
<path d="M41.2801 23.6074H46.23L45.9636 24.9394L41.9368 29.0034H45.0281L44.7741 30.2734H39.8242L40.0782 29.0034L44.0927 24.9394H41.0137L41.2801 23.6074Z" fill="#E41F13"/>
<path d="M47.7476 22.5293H48.9928L49.03 23.6073H50.5787L50.3123 24.9392H48.9494L48.3361 28.0058C48.2122 28.6253 48.4228 28.9413 48.9556 28.9413H49.5132L49.2468 30.2732H47.8777C46.7625 30.2732 46.3227 29.6723 46.5643 28.4766L47.7476 22.5293Z" fill="#E41F13"/>
<path d="M57.0694 25.602C56.803 26.9277 55.7746 27.5968 53.9842 27.5968H52.3177C52.1381 28.4951 52.6337 28.9412 53.8046 28.9412C54.6905 28.9412 55.5206 28.6686 56.3074 28.1172L56.041 29.4492C55.341 30.0005 54.4675 30.2731 53.4143 30.2731C51.2088 30.2731 50.3353 29.1394 50.7875 26.8658C51.2212 24.6975 52.5036 23.6133 54.6347 23.6133C56.5181 23.6071 57.3358 24.27 57.0694 25.602ZM52.5656 26.3578H54.2444C54.9445 26.3578 55.341 26.1162 55.4401 25.6391C55.533 25.1621 55.1737 24.9205 54.3621 24.9205C53.4267 24.9267 52.8319 25.4037 52.5656 26.3578Z" fill="#E41F13"/>
<path d="M59.7377 26.9404L57.9101 23.6074H59.7191L60.8528 25.7509L62.829 23.6074H64.7619L61.6086 26.9404L63.43 30.2734H61.621L60.4873 28.1299L58.511 30.2672H56.5781L59.7377 26.9404Z" fill="#E41F13"/>
<path d="M35.0899 32.168L34.6748 34.231H34.2969L34.712 32.168H35.0899ZM36.4838 32.168L35.3377 33.1716L36.174 34.2371H35.6722L34.9783 33.2707L35.0279 33.0229L35.9943 32.168H36.4838Z" fill="#E41F13"/>
<path d="M38.0834 32.7129L37.7798 34.2307H37.4391L37.501 33.7165C37.3152 34.0572 37.0798 34.2307 36.7948 34.2307C36.5036 34.2307 36.3921 34.0696 36.4541 33.7351L36.6585 32.7129H37.0426L36.8382 33.7413C36.8134 33.859 36.8691 33.9209 37.0116 33.9209C37.1913 33.9209 37.3771 33.7599 37.5568 33.4377L37.7055 32.7129H38.0834Z" fill="#E41F13"/>
<path d="M38.1406 34.2307L38.4442 32.7129H38.7849L38.7292 33.1961C38.9026 32.874 39.0823 32.7129 39.2805 32.7129L39.2186 33.035C39.0265 33.035 38.8469 33.1899 38.6734 33.4997L38.5247 34.2245H38.1406V34.2307Z" fill="#E41F13"/>
<path d="M39.8752 32.7131L39.5716 34.231H39.1875L39.4911 32.7131H39.8752ZM39.9867 32.168L39.9247 32.4715H39.5406L39.6026 32.168H39.9867Z" fill="#E41F13"/>
<path d="M41.4262 33.1655C41.3642 33.469 41.1288 33.6177 40.7261 33.6177H40.3482C40.3049 33.8222 40.4226 33.9213 40.689 33.9213C40.8934 33.9213 41.0793 33.8593 41.2589 33.7354L41.197 34.039C41.0359 34.1629 40.8377 34.2248 40.6022 34.2248C40.1004 34.2248 39.9022 33.9646 40.0013 33.4504C40.1004 32.9548 40.3916 32.707 40.8748 32.707C41.3023 32.7132 41.4882 32.8681 41.4262 33.1655ZM40.3978 33.3389H40.7819C40.943 33.3389 41.0297 33.2832 41.0545 33.1779C41.0731 33.0664 40.9925 33.0168 40.8067 33.0168C40.596 33.0168 40.4598 33.1221 40.3978 33.3389Z" fill="#E41F13"/>
<path d="M41.5 34.2307L41.8036 32.7129H42.1443L42.0885 33.1961C42.262 32.874 42.4417 32.7129 42.6399 32.7129L42.578 33.035C42.3859 33.035 42.2062 33.1899 42.0328 33.4997L41.8841 34.2245H41.5V34.2307Z" fill="#E41F13"/>
<path d="M43.2383 34.231L43.6534 32.168H44.5764C44.9977 32.168 45.1712 32.36 45.0906 32.7503C45.0039 33.1716 44.6694 33.4256 44.0746 33.5123L44.087 33.1716C44.4463 33.1096 44.6446 32.9733 44.6879 32.7627C44.7189 32.5892 44.6508 32.5087 44.4835 32.5087H43.9693L43.6224 34.2371H43.2383V34.231Z" fill="#E41F13"/>
<path d="M45.0917 33.4756C45.197 32.9614 45.4944 32.7012 45.9838 32.7012C46.4732 32.7012 46.6714 32.9614 46.5661 33.4756C46.4608 33.9898 46.1634 34.2438 45.674 34.2438C45.1846 34.2438 44.9926 33.9898 45.0917 33.4756ZM45.736 33.9402C45.9714 33.9402 46.1201 33.7791 46.1882 33.4632C46.2502 33.1534 46.1634 32.9985 45.928 32.9985C45.6926 32.9985 45.5439 33.1534 45.482 33.4632C45.4138 33.7853 45.5006 33.9402 45.736 33.9402Z" fill="#E41F13"/>
<path d="M47.8241 34.0448C47.6754 34.1688 47.5082 34.2307 47.3223 34.2307C46.8391 34.2307 46.6532 33.9705 46.7524 33.4563C46.8515 32.9607 47.1612 32.7129 47.6816 32.7129C47.8241 32.7129 47.9604 32.7253 48.0781 32.7563L48.0162 33.0598C47.8985 33.0288 47.7746 33.0165 47.6507 33.0165C47.3657 33.0165 47.1922 33.1651 47.1365 33.4563C47.0745 33.7723 47.1674 33.9271 47.409 33.9271C47.5701 33.9271 47.7312 33.8652 47.8799 33.7413L47.8241 34.0448Z" fill="#E41F13"/>
<path d="M48.3205 32.7129H49.448L49.3861 33.0165L48.4692 33.9395H49.1755L49.1197 34.2307H47.9922L48.0479 33.9395L48.9648 33.0165H48.2648L48.3205 32.7129Z" fill="#E41F13"/>
<path d="M49.7971 32.4727H50.082L50.0882 32.7205H50.4414L50.3794 33.024H50.0697L49.9272 33.7241C49.8962 33.8666 49.9458 33.9347 50.0697 33.9347H50.1998L50.1378 34.2383H49.828C49.574 34.2383 49.4749 34.102 49.5307 33.8294L49.7971 32.4727Z" fill="#E41F13"/>
<path d="M51.565 33.7165C51.3792 34.0572 51.1437 34.2307 50.8588 34.2307C50.5676 34.2307 50.4561 34.0696 50.518 33.7351L50.7225 32.7129H51.1066L50.9021 33.7413C50.8774 33.859 50.9331 33.9209 51.0694 33.9209C51.2491 33.9209 51.4349 33.7599 51.6146 33.4377L51.7633 32.7129H52.1474L51.8438 34.2307C51.7695 34.5962 51.4659 34.7821 50.9207 34.7821C50.7349 34.7821 50.5738 34.7573 50.4375 34.7077L50.4995 34.4042C50.6357 34.4537 50.7968 34.4785 50.9827 34.4785C51.2677 34.4785 51.4287 34.398 51.4597 34.2307L51.565 33.7165Z" fill="#E41F13"/>
<path d="M52.8945 34.231L53.3096 32.168H54.2327C54.654 32.168 54.8274 32.36 54.7469 32.7503C54.6601 33.1716 54.3256 33.4256 53.7309 33.5123L53.7433 33.1716C54.1026 33.1096 54.3008 32.9733 54.3442 32.7627C54.3752 32.5892 54.307 32.5087 54.1398 32.5087H53.6256L53.2786 34.2371H52.8945V34.231Z" fill="#E41F13"/>
<path d="M54.7479 33.4756C54.8533 32.9614 55.1506 32.7012 55.64 32.7012C56.1295 32.7012 56.3277 32.9614 56.2224 33.4756C56.1171 33.9898 55.8197 34.2438 55.3303 34.2438C54.8409 34.2438 54.6488 33.9898 54.7479 33.4756ZM55.3922 33.9402C55.6276 33.9402 55.7763 33.7791 55.8445 33.4632C55.9064 33.1534 55.8197 32.9985 55.5843 32.9985C55.3489 32.9985 55.2002 33.1534 55.1382 33.4632C55.0701 33.7853 55.1568 33.9402 55.3922 33.9402Z" fill="#E41F13"/>
<path d="M57.1586 32.168L56.7435 34.231H56.3594L56.7745 32.168H57.1586Z" fill="#E41F13"/>
<path d="M57.1172 34.1574L57.1791 33.8414C57.334 33.9096 57.5199 33.9405 57.7429 33.9405C57.9102 33.9405 58.0031 33.8848 58.0217 33.7795C58.0403 33.6803 57.9969 33.637 57.8854 33.637H57.6128C57.303 33.637 57.1791 33.4821 57.2411 33.1723C57.303 32.8564 57.5632 32.6953 58.0093 32.6953C58.2013 32.6953 58.3748 32.7263 58.5297 32.782L58.4677 33.098C58.3129 33.0299 58.1394 32.9989 57.9411 32.9989C57.7367 32.9989 57.619 33.0546 57.6004 33.1599C57.5818 33.2591 57.6314 33.3024 57.7491 33.3024H57.9969C58.3314 33.3024 58.4739 33.4573 58.412 33.7671C58.35 34.083 58.1022 34.2441 57.6748 34.2441C57.4579 34.2441 57.2721 34.2193 57.1172 34.1574Z" fill="#E41F13"/>
<path d="M58.5859 34.231L59.001 32.168H59.3851L59.1931 33.122C59.4037 32.8494 59.6329 32.7131 59.8869 32.7131C60.1967 32.7131 60.3268 32.8494 60.271 33.122C60.2338 33.3141 60.0604 33.4813 59.7568 33.6176L60.1037 34.231H59.6639L59.3727 33.661L59.3975 33.5433C59.6949 33.469 59.8621 33.3389 59.8993 33.1716C59.9179 33.0725 59.8621 33.0229 59.7258 33.0229C59.5524 33.0229 59.3541 33.1654 59.1373 33.4504L58.9824 34.2371H58.5859V34.231Z" fill="#E41F13"/>
<path d="M61.0158 32.7131L60.7122 34.231H60.3281L60.6317 32.7131H61.0158ZM61.1273 32.168L61.0653 32.4715H60.6874L60.7494 32.168H61.1273Z" fill="#E41F13"/>
<path d="M62.573 33.1655C62.5111 33.469 62.2757 33.6177 61.873 33.6177H61.4951C61.4517 33.8222 61.5694 33.9213 61.8358 33.9213C62.034 33.9213 62.2261 33.8593 62.4058 33.7354L62.3438 34.039C62.1827 34.1629 61.9845 34.2248 61.7429 34.2248C61.2411 34.2248 61.0428 33.9646 61.1419 33.4504C61.2411 32.9548 61.5322 32.707 62.0155 32.707C62.4429 32.7132 62.6288 32.8681 62.573 33.1655ZM61.5446 33.3389H61.9287C62.0898 33.3389 62.1765 33.2832 62.2013 33.1779C62.2199 33.0664 62.1394 33.0168 61.9535 33.0168C61.7429 33.0168 61.6066 33.1221 61.5446 33.3389Z" fill="#E41F13"/>
<path d="M63.3251 32.7131L63.0464 34.1132C62.9844 34.4168 62.8481 34.6708 62.6313 34.8629L62.3711 34.6522C62.5198 34.5221 62.6127 34.3425 62.6623 34.1132L62.941 32.7131H63.3251ZM63.4305 32.168L63.3685 32.4715H62.9844L63.0464 32.168H63.4305Z" fill="#E41F13"/>
</svg>
