<svg width="84" height="56" viewBox="0 0 84 56" fill="none" xmlns="http://www.w3.org/2000/svg">
<rect x="0.34375" width="83.3219" height="56" rx="10" fill="white"/>
<rect x="0.84375" y="0.5" width="82.3219" height="55" rx="9.5" stroke="#000028" stroke-opacity="0.1"/>
<g clip-path="url(#clip0_8727_28990)">
<path d="M67.2188 33.7569C67.2188 33.6962 67.2188 33.6355 67.2188 33.5808C67.2248 33.5748 67.2248 33.5808 67.2309 33.5808C67.2309 33.6416 67.2309 33.6962 67.2309 33.7569C67.2309 33.763 67.2248 33.763 67.2188 33.7569Z" fill="#FDDB3F"/>
<path d="M67.2309 33.5807C67.2248 33.5807 67.2248 33.5807 67.2188 33.5807C67.2188 33.5381 67.2188 33.4956 67.2188 33.4531C67.2248 33.4531 67.2248 33.4531 67.2309 33.4531C67.2309 33.4956 67.2309 33.5381 67.2309 33.5807Z" fill="#FDEB94"/>
<path d="M67.2119 33.7559C67.2179 33.7559 67.2179 33.7559 67.224 33.7559C67.224 33.7923 67.224 33.8227 67.224 33.8591C67.1997 33.8287 67.2179 33.7923 67.2119 33.7559Z" fill="#FEE679"/>
<path d="M27.2266 19.4423C28.0768 19.4848 28.9088 19.6002 29.7468 19.758C30.1962 19.8431 30.6456 19.9402 31.0829 20.086C31.1497 20.1103 31.2165 20.1406 31.2833 20.1589C31.344 20.1771 31.3622 20.2074 31.3622 20.2742C31.3622 21.6346 31.3622 23.001 31.3622 24.3613C31.3622 24.4402 31.3622 24.5192 31.3622 24.6042C31.1072 24.5313 30.8582 24.4585 30.6092 24.3856C29.8136 24.1609 28.9999 23.9787 28.18 23.8694C27.427 23.7661 26.6679 23.7358 25.9088 23.839C25.2529 23.924 24.6274 24.1002 24.0626 24.4524C23.3521 24.8957 22.8966 25.5334 22.6294 26.3168C22.4594 26.8269 22.3804 27.3552 22.3622 27.8957C22.344 28.3755 22.3622 28.8552 22.4351 29.335C22.5262 29.8998 22.6902 30.4402 23.012 30.92C23.4371 31.5455 24.0383 31.9038 24.761 32.0678C25.1557 32.1589 25.5566 32.2074 25.9574 32.1649C26.7104 32.0921 27.3723 31.8127 27.8703 31.2115C27.8946 31.1872 27.9128 31.1568 27.931 31.1265C27.9371 31.1204 27.9371 31.1143 27.9371 31.1083C27.9128 31.0961 27.8825 31.1022 27.8582 31.1022C26.8987 31.1022 25.9331 31.1022 24.9736 31.1022C24.9068 31.1022 24.8825 31.09 24.8825 31.0172C24.8825 29.839 24.8825 28.667 24.8825 27.4888C24.8825 27.422 24.9007 27.4038 24.9675 27.4038C27.6578 27.4038 30.342 27.4038 33.0323 27.4038C33.0991 27.4038 33.1173 27.422 33.1173 27.4888C33.1173 30.3917 33.1173 33.3006 33.1173 36.2034C33.1173 36.2641 33.1051 36.2823 33.0383 36.2823C31.9513 36.2823 30.8642 36.2823 29.7711 36.2823C29.6983 36.2823 29.6861 36.2581 29.6861 36.1912C29.6922 35.4261 29.6983 34.6609 29.7043 33.8957C29.7043 33.8714 29.7043 33.841 29.6922 33.8107C29.6679 33.8532 29.6497 33.8957 29.6254 33.9382C29.2853 34.5698 28.7873 35.0556 28.2043 35.4504C27.4149 35.9787 26.5464 36.3006 25.6112 36.4585C25.3379 36.501 25.0707 36.5313 24.7914 36.5435C24.761 36.5556 24.7306 36.5435 24.7003 36.5495C24.6396 36.5495 24.5788 36.5495 24.5181 36.5495C24.4817 36.5495 24.4452 36.5495 24.4149 36.5495C24.342 36.5495 24.263 36.5495 24.1902 36.5495C24.1537 36.5495 24.1173 36.5495 24.0748 36.5495C23.3339 36.5495 22.6112 36.4281 21.9007 36.2216C21.4999 36.1062 21.1112 35.9544 20.7347 35.7661C20.2246 35.5111 19.7509 35.1892 19.3197 34.8066C18.8521 34.3876 18.427 33.92 18.0808 33.3917C17.68 32.7844 17.3825 32.1285 17.1699 31.4301C17.0424 30.9989 16.9391 30.5556 16.8784 30.1062C16.8298 29.7783 16.7873 29.4504 16.7873 29.1164C16.7873 29.0192 16.7812 28.922 16.7812 28.8249C16.7812 28.7884 16.7812 28.752 16.7812 28.7095C16.7812 28.6366 16.7812 28.5698 16.7812 28.4969C16.7812 28.418 16.7812 28.3329 16.7812 28.254C16.7812 28.1872 16.7812 28.1204 16.7812 28.0536C16.7812 28.0172 16.7812 27.9807 16.7812 27.9382C16.7812 27.088 16.9209 26.256 17.1638 25.4423C17.3035 24.9807 17.4796 24.5313 17.6983 24.1002C17.9837 23.5354 18.342 23.007 18.761 22.5273C19.2529 21.9564 19.8177 21.4645 20.4432 21.0455C21.0444 20.6386 21.6942 20.3228 22.3744 20.0738C23.1335 19.7945 23.9169 19.6184 24.7185 19.5151C25.1193 19.4605 25.5262 19.424 25.927 19.424C25.9574 19.424 25.9817 19.424 26.012 19.424C26.0485 19.424 26.0849 19.424 26.1213 19.424C26.1638 19.418 26.2124 19.4301 26.2549 19.418C26.4736 19.418 26.6922 19.418 26.9108 19.418C26.9533 19.4362 27.0019 19.424 27.0444 19.424C27.0748 19.424 27.1051 19.424 27.1294 19.424C27.1659 19.4423 27.1962 19.4301 27.2266 19.4423Z" fill="#061AB1"/>
<path d="M52.4827 36.5569C52.0212 36.5448 51.5596 36.5205 51.1042 36.4841C50.4847 36.4355 49.8714 36.3626 49.258 36.2594C48.7236 36.1683 48.1953 36.059 47.6791 35.9011C47.6183 35.8828 47.6001 35.8586 47.6001 35.7917C47.6001 34.3403 47.6001 32.8889 47.6001 31.4375C47.6001 31.3464 47.6001 31.3464 47.6851 31.3707C48.3835 31.5893 49.1001 31.7533 49.8228 31.893C50.3754 32.0023 50.9341 32.0934 51.4928 32.1662C51.9362 32.2209 52.3856 32.2573 52.8349 32.2695C53.2358 32.2816 53.6366 32.2634 54.0313 32.1905C54.256 32.148 54.4746 32.0812 54.6689 31.9537C54.9362 31.7837 55.0515 31.5286 54.9969 31.2371C54.9726 31.0974 54.8876 31.0003 54.7722 30.9274C54.5839 30.8059 54.3775 30.7391 54.1649 30.6905C53.503 30.5387 52.841 30.3869 52.1791 30.2411C51.4503 30.0832 50.7398 29.8768 50.0596 29.5549C49.3309 29.2088 48.6872 28.7472 48.2074 28.0913C47.8127 27.5509 47.5758 26.9436 47.4544 26.2877C47.3876 25.9294 47.3633 25.5711 47.3633 25.2067C47.3633 24.2229 47.5394 23.2816 48.0192 22.4132C48.5232 21.4901 49.258 20.8039 50.1872 20.312C50.8673 19.9537 51.59 19.729 52.343 19.5954C52.7803 19.5164 53.2236 19.4739 53.6669 19.4496C53.6973 19.4375 53.7277 19.4496 53.7519 19.4436C53.7823 19.4436 53.8187 19.4436 53.8491 19.4436C53.8916 19.4375 53.9281 19.4496 53.9706 19.4375C54.177 19.4375 54.3775 19.4375 54.5839 19.4375C54.6264 19.4557 54.675 19.4436 54.7175 19.4436C54.7479 19.4436 54.7843 19.4436 54.8147 19.4436C54.8451 19.4436 54.8694 19.4436 54.8997 19.4436C55.2884 19.4436 55.677 19.4739 56.0596 19.5164C56.7277 19.5832 57.3957 19.6683 58.0576 19.7837C58.4766 19.8565 58.8957 19.9355 59.3147 20.0387C59.4362 20.0691 59.4362 20.0752 59.4362 20.1966C59.4362 21.563 59.4362 22.9294 59.4362 24.2958C59.4362 24.3019 59.4362 24.3079 59.4362 24.3201C59.4362 24.4233 59.424 24.4294 59.3208 24.4051C58.8349 24.2837 58.3491 24.1743 57.8572 24.0832C57.3046 23.98 56.7519 23.8828 56.1993 23.81C55.8167 23.7614 55.4341 23.7189 55.0455 23.6885C54.7115 23.6642 54.3714 23.6642 54.0313 23.6764C53.6791 23.6885 53.3329 23.7432 53.0171 23.9132C52.8167 24.0225 52.6588 24.1743 52.6102 24.4051C52.5556 24.6541 52.6528 24.8606 52.8775 25.0063C53.0414 25.1156 53.2236 25.1824 53.4119 25.231C53.9584 25.3707 54.505 25.4922 55.0576 25.6258C55.5617 25.7472 56.0718 25.8565 56.5637 26.0205C57.2681 26.2573 57.9422 26.561 58.5374 27.0225C59.175 27.5144 59.6548 28.1339 59.9341 28.893C60.0981 29.3424 60.1953 29.81 60.2378 30.2897C60.2681 30.6541 60.2742 31.0185 60.2499 31.3828C60.177 32.3606 59.8916 33.2654 59.3086 34.061C58.9564 34.5468 58.5252 34.9476 58.0394 35.2938C57.3653 35.7614 56.6183 36.0711 55.8289 36.2776C55.3795 36.393 54.924 36.4719 54.4685 36.5205C54.1528 36.5569 53.837 36.5691 53.5272 36.5691C53.4847 36.5691 53.4422 36.5691 53.3997 36.5691C53.3147 36.5691 53.2297 36.5691 53.1447 36.5691C53.09 36.5691 53.0353 36.5691 52.9807 36.5691C52.8714 36.5691 52.7621 36.5691 52.6528 36.5691C52.592 36.5569 52.5374 36.5691 52.4827 36.5569Z" fill="#061AB1"/>
<path d="M67.2316 33.9015C67.1951 33.9987 67.1951 34.108 67.1769 34.2113C67.0676 34.7457 66.8368 35.2072 66.4603 35.602C66.0109 36.0817 65.4583 36.3732 64.8085 36.4582C63.9097 36.5797 63.1202 36.3246 62.4583 35.6991C62.0089 35.274 61.7295 34.7457 61.6324 34.1323C61.4988 33.27 61.7113 32.4926 62.2761 31.8307C62.7134 31.3206 63.266 30.9926 63.934 30.8955C65.015 30.7315 65.9198 31.0716 66.6182 31.9157C66.9826 32.359 67.1769 32.8752 67.2255 33.4461C67.2376 33.4886 67.2255 33.5311 67.2316 33.5797C67.2316 33.6343 67.2316 33.689 67.2316 33.7497C67.2376 33.7862 67.2255 33.8226 67.2376 33.859C67.2316 33.8712 67.2316 33.8894 67.2316 33.9015Z" fill="#FFD101"/>
<path d="M34.8029 27.9946C34.8029 25.2618 34.8029 22.5229 34.8029 19.7901C34.8029 19.7172 34.8212 19.7051 34.888 19.7051C36.6005 19.7051 38.3191 19.7051 40.0317 19.7051C40.0985 19.7051 40.1106 19.7233 40.1106 19.7901C40.1106 23.8164 40.1106 27.8427 40.1106 31.869C40.1106 31.9662 40.1106 31.9662 40.2078 31.9662C42.0783 31.9662 43.9548 31.9662 45.8252 31.9662C45.8981 31.9662 45.9102 31.9844 45.9102 32.0512C45.9102 33.4358 45.9102 34.8205 45.9102 36.2051C45.9102 36.278 45.8859 36.2901 45.8191 36.2901C42.1754 36.2901 38.5317 36.2901 34.888 36.2901C34.809 36.2901 34.7969 36.2719 34.7969 36.1929C34.8029 33.4601 34.8029 30.7273 34.8029 27.9946Z" fill="#061AB1"/>
</g>
<defs>
<clipPath id="clip0_8727_28990">
<rect width="51.3219" height="18" fill="white" transform="translate(16.3438 19)"/>
</clipPath>
</defs>
</svg>
