<svg width="128" height="64" viewBox="0 0 128 64" fill="none" xmlns="http://www.w3.org/2000/svg">
<rect width="128" height="64" fill="#000028" fill-opacity="0.02"/>
<path d="M0 7H50.0005V56.9951H0V7Z" fill="#000028" fill-opacity="0.04"/>
<path d="M36.3229 28.324C37.2067 28.7539 38.1694 28.9979 39.1514 29.0409C40.1333 29.0839 41.1136 28.925 42.0317 28.5739C40.1331 28.9046 38.1853 28.8193 36.3229 28.324V28.324ZM40.2154 35.7557C40.2154 35.7557 41.9804 36.0257 42.1067 35.7282C42.1067 35.7282 41.9304 35.5345 40.2154 35.7557ZM41.3542 35.152C41.3542 35.152 42.4267 35.3733 42.5029 35.1283C42.5017 35.1245 42.3942 34.9721 41.3529 35.152H41.3542ZM35.3241 35.5533C35.3241 35.5533 33.3441 35.2058 31.1316 34.5759C32.4487 35.1815 33.8749 35.514 35.3241 35.5533V35.5533ZM27.2365 42.3263C31.2242 43.7055 35.4592 44.2227 39.6617 43.8437C35.4915 43.6035 31.344 43.0629 27.2515 42.2263C26.9928 42.1126 26.8853 42.0051 26.734 41.9551C26.4669 41.8712 26.189 41.8261 25.909 41.8214C25.909 41.8214 26.344 42.0576 26.659 42.1963C26.8446 42.2637 27.0385 42.3057 27.2353 42.3213L27.2365 42.3263ZM36.3616 37.6305C32.9942 37.2383 29.6816 36.4681 26.4865 35.3345C29.6112 36.6931 32.9579 37.4691 36.3616 37.6243V37.6305ZM35.7066 36.5494C33.0966 36.2447 30.5292 35.6473 28.0528 34.7683C30.4659 35.8483 33.0646 36.453 35.7066 36.5494ZM40.0742 42.7838C40.0742 42.7838 31.5178 42.5926 26.2515 40.8352C26.2515 40.8352 31.0528 43.34 40.0729 42.7838H40.0742ZM39.1642 39.9191C34.8403 39.994 30.5285 39.44 26.364 38.2742C30.4425 39.8176 34.8267 40.381 39.1629 39.9191H39.1642ZM26.3765 39.1841C30.5957 40.7294 35.1163 41.2733 39.5817 40.7727C35.1286 40.8374 30.6871 40.3031 26.3765 39.1841V39.1841ZM34.0966 38.9992C31.4254 38.5968 28.7838 38.0181 26.189 37.2668C28.5182 38.2236 30.9833 38.8082 33.4941 38.9992C35.7098 39.4423 37.9836 39.5145 40.2229 39.2129C40.2229 39.2129 37.1904 39.2616 34.0979 39.0004L34.0966 38.9992ZM26.3778 39.9728C26.3778 39.9728 31.0228 42.4026 39.1142 41.6677C39.1142 41.6677 30.0003 41.4927 26.379 39.9728H26.3778ZM27.4278 43.5325C31.303 44.8578 35.4142 45.3509 39.4929 44.9798C35.4393 44.7356 31.4075 44.2106 27.4265 43.4087C27.2565 43.2789 27.066 43.1783 26.8628 43.1113C26.5585 43.0414 26.2484 42.9995 25.9365 42.9863C25.9365 42.9863 26.3703 43.2137 26.7728 43.38C26.9804 43.4683 27.2014 43.5211 27.4265 43.5362L27.4278 43.5325ZM36.7516 37.6818C36.7516 37.6818 41.5529 38.2342 42.3267 37.6818C42.3242 37.6805 40.9179 37.7818 36.7516 37.6818ZM39.4217 36.4019C39.4217 36.4019 41.8929 36.6456 41.9929 36.3719C41.9917 36.3744 41.9667 36.1407 39.4192 36.4007L39.4217 36.4019ZM13.7964 31.3874C14.2964 31.1099 14.5964 32.6985 14.5964 32.6985C14.5964 32.6985 14.5964 29.0651 12.9314 29.8163C12.0026 30.2325 12.9626 33.5322 14.5952 33.4985C14.5952 33.4985 12.8664 31.8986 13.7951 31.3862L13.7964 31.3874ZM42.0467 37.0619C42.0467 37.0619 42.1417 36.8119 38.2254 37.1006C38.2254 37.1006 41.9904 37.3393 42.0467 37.0606V37.0619ZM35.1854 38.3505C32.1433 37.9349 29.141 37.2681 26.209 36.3569C26.209 36.3569 28.8766 37.8343 35.7516 38.4517C37.5328 38.7687 39.3587 38.7343 41.1267 38.3505C39.1468 38.4834 37.1602 38.4834 35.1804 38.3505H35.1854ZM38.2367 53.2478C35.7754 53.1615 33.8429 52.8728 32.4041 52.7091C30.1703 52.4591 28.8041 52.4116 28.8041 52.4116C28.8041 52.4116 31.1791 53.014 32.3753 53.2003C34.2779 53.4318 36.1925 53.5503 38.1092 53.5552C39.0654 53.584 40.0229 53.5927 40.9679 53.5877C43.9797 53.7632 47.0006 53.6972 50.0018 53.3902V53.0153L43.5417 53.3115C41.5617 53.3327 39.7917 53.3115 38.2392 53.254L38.2367 53.2478ZM36.8216 54.0264C34.9991 53.9477 33.5341 53.7027 32.4028 53.5915C30.3778 53.3852 28.9891 53.284 28.9891 53.284C28.9891 53.284 31.2678 53.8927 32.3266 54.0602C33.7921 54.2519 35.2666 54.3666 36.7441 54.4039C38.6967 54.4989 40.7142 54.4989 42.6192 54.4514C45.084 54.6004 47.5575 54.4991 50.0018 54.1489V53.8177C47.9643 53.849 44.898 53.9277 42.7842 54.1327C40.4854 54.1452 38.5017 54.1027 36.8229 54.0289L36.8216 54.0264ZM34.5716 56.4887C33.7391 56.4287 33.0341 56.2387 32.4466 56.1737C31.0028 56.025 29.9466 55.985 29.9466 55.985C29.9466 55.985 31.6503 56.5224 32.4028 56.6612C33.0741 56.7862 33.7841 56.7599 34.5204 56.8412C35.0854 56.9036 35.6704 56.9524 36.2604 56.9936H49.3355C49.553 56.9761 49.7755 56.9549 50.0005 56.9311V56.5474C48.3755 56.5587 46.3317 56.6062 44.7105 56.7474C40.2717 56.7974 36.9191 56.6587 34.5741 56.4887H34.5716ZM19.6265 38.3992C19.8515 39.0404 20.9665 39.0717 21.0015 38.2742C21.034 37.6006 20.2977 37.7293 20.2977 37.7293C20.2977 37.7293 19.8802 37.6343 20.1065 37.1856C20.1065 37.1856 19.4015 37.7618 19.624 38.403L19.6265 38.3992ZM35.8129 54.8414C34.4004 54.7664 33.2516 54.5476 32.3516 54.4664C30.6403 54.3002 29.3178 54.2164 29.3178 54.2164C29.3178 54.2164 31.4228 54.7814 32.3266 54.9188C33.3829 55.0801 34.5266 55.0688 35.7104 55.1476C38.1929 55.3163 40.8567 55.3263 43.293 55.2726C45.529 55.3909 47.7705 55.3563 50.0018 55.1688V54.7726C47.8143 54.7726 45.0305 54.8226 43.078 55.0051C40.1492 55.0138 37.7354 54.9413 35.8141 54.8401L35.8129 54.8414ZM30.5603 56.9974H31.7753C30.8328 56.9086 30.1766 56.8724 30.1766 56.8724L30.5603 56.9974ZM40.8604 9.86579C40.8604 9.86579 37.5016 9.41833 36.6004 7.17605C36.6004 7.17605 36.9516 9.89828 40.8592 9.86579H40.8604ZM35.2516 55.64C34.0541 55.5675 33.0716 55.3538 32.2966 55.2763C30.7828 55.1226 29.6403 55.0763 29.6403 55.0763C29.6403 55.0763 31.4841 55.6138 32.2941 55.75C33.2004 55.9037 34.1791 55.8887 35.1991 55.9737C37.7861 56.1658 40.3813 56.2234 42.9742 56.1462C45.3139 56.2899 47.6612 56.2481 49.9943 56.0212V55.6613C48.063 55.6613 45.5105 55.6913 43.5717 55.8438C40.1092 55.8613 37.3466 55.765 35.2504 55.6363L35.2516 55.64ZM38.6267 51.4904C37.7304 51.6074 36.8207 51.5711 35.9366 51.3829C35.0566 51.1289 34.1463 50.9952 33.2304 50.9855C29.5178 50.638 28.224 50.5305 28.224 50.5305C29.641 50.995 31.0957 51.3355 32.5716 51.5479C33.9355 51.7635 35.3163 51.853 36.6966 51.8154C37.6635 51.7118 38.6386 51.7118 39.6054 51.8154C42.9805 51.8704 46.2067 51.7679 48.5093 51.6592C48.998 51.7376 49.4918 51.7794 49.9868 51.7842V51.3729C49.5105 51.4242 49.063 51.4829 48.668 51.5492C44.5242 51.6354 41.4317 51.5979 38.6217 51.4879L38.6267 51.4904ZM46.1355 23.272C45.7846 23.1736 45.4452 23.0383 45.123 22.8683C44.8115 22.7209 44.4611 22.6771 44.123 22.7433C44.4227 22.8391 44.7131 22.9621 44.9905 23.1107C45.3432 23.2887 45.7442 23.3471 46.133 23.277L46.1355 23.272ZM47.5743 37.2993C48.0788 37.3973 48.5883 37.4674 49.1005 37.5093C48.7967 37.7668 48.4072 37.9007 48.0093 37.8843C46.4692 37.9605 46.193 37.3531 45.2817 37.0256C44.418 36.7131 43.5655 36.6219 43.3367 36.9244C43.3095 36.9518 43.2942 36.9888 43.2942 37.0275C43.2942 37.0661 43.3095 37.1032 43.3367 37.1306C42.9334 37.1317 42.5325 37.0684 42.1492 36.9431C42.3558 37.1297 42.5979 37.2726 42.861 37.3635C43.1241 37.4543 43.4028 37.4912 43.6805 37.4718C43.6823 37.4961 43.6792 37.5205 43.6712 37.5435C43.6633 37.5665 43.6507 37.5876 43.6342 37.6056C43.4067 37.883 42.3204 37.5806 42.3204 37.5806C42.642 37.939 43.0807 38.1711 43.558 38.2355C44.2405 38.2617 44.5692 37.9593 45.1505 38.2355C45.6012 38.4821 45.956 38.873 46.158 39.3454C46.533 39.9591 47.1693 39.5741 47.4718 39.9291L47.6105 40.0878C47.3408 40.2234 47.0379 40.2791 46.7376 40.2483C46.4373 40.2175 46.1521 40.1015 45.9155 39.9141C46.2542 41.039 47.6318 40.539 47.923 40.424C48.058 40.5653 48.1543 40.6615 48.1543 40.6615C47.8201 40.7692 47.5105 40.9417 47.243 41.169C45.8455 41.6089 45.793 40.6028 44.368 40.564C43.1555 40.5328 42.5642 41.2439 41.9104 41.4702C41.2251 41.7103 40.4813 41.7278 39.7854 41.5202L38.9779 42.2788C42.2979 42.9313 42.2667 42.2026 43.728 42.2026C45.1892 42.2026 45.3442 42.7825 46.2542 42.8275C47.1642 42.8725 48.0193 42.3976 48.6768 42.4726C48.9558 42.5152 49.2289 42.5903 49.4905 42.6963H49.4618C49.518 42.7375 49.5605 42.8663 49.3368 42.8825C48.6886 43.0488 48.0307 43.1741 47.3667 43.2575C48.0974 43.286 48.8292 43.2639 49.5568 43.1913C49.8255 43.285 49.6193 43.6325 49.4318 43.6787C48.378 43.8201 47.3146 43.8778 46.2517 43.8512C47.2526 44.0745 48.2827 44.1362 49.303 44.0337C49.6668 44.0337 49.273 44.4086 49.0843 44.4424C47.195 44.6486 45.2856 44.5745 43.418 44.2224C45.0115 44.7355 46.6873 44.9441 48.358 44.8373C49.243 44.7673 47.9293 45.2635 46.1705 45.2435C45.5042 45.2036 44.703 45.1273 43.7955 45.0073C43.1705 44.9236 41.7954 44.6924 41.7954 44.6924C42.7543 45.0928 43.7395 45.4269 44.7442 45.6923C43.6398 45.9134 42.5085 45.9681 41.3879 45.8547C42.4664 46.1309 43.5699 46.2984 44.6817 46.3547C44.6817 46.3547 45.1817 46.3647 46.2117 46.3822C47.7518 46.4947 49.0043 46.6322 49.9943 46.6959V41.2564C49.7968 41.1294 49.5875 41.0218 49.3693 40.9352C49.2612 40.9001 49.1634 40.8388 49.0847 40.7569C49.0059 40.6749 48.9487 40.5747 48.918 40.4653C49.292 40.502 49.6578 40.5977 50.0018 40.749V40.274C49.6497 40.1544 49.2798 40.0961 48.908 40.1016C48.9395 39.8988 49.0036 39.7025 49.098 39.5204C49.4037 39.5447 49.7063 39.5983 50.0018 39.6803V39.2741C49.7645 39.2298 49.5242 39.2035 49.283 39.1954C49.3792 39.0527 49.4849 38.9165 49.5993 38.7879C49.6805 38.7879 49.8218 38.7954 50.0018 38.8129V38.4992C49.9643 38.4992 49.9255 38.4992 49.8868 38.4992C49.9255 38.4642 49.963 38.4342 50.0018 38.403V36.7781C49.8271 36.7943 49.6629 36.8687 49.5355 36.9894C48.8938 37.158 48.2367 37.2618 47.5743 37.2993V37.2993ZM46.2705 37.843C46.637 38.0365 47.0386 38.1543 47.4516 38.1896C47.8645 38.2248 48.2803 38.1766 48.6743 38.048C48.5133 38.2132 48.3177 38.3407 48.1015 38.4212C47.8854 38.5018 47.6541 38.5335 47.4242 38.514C47.1944 38.4945 46.9717 38.4244 46.7722 38.3086C46.5727 38.1928 46.4014 38.0342 46.2705 37.8443V37.843ZM31.3828 48.352C31.9904 48.3688 32.5938 48.4578 33.1803 48.617C34.9623 48.882 36.769 48.939 38.5642 48.7869C38.5642 48.7869 36.0929 48.652 33.0541 48.262C32.3579 48.2818 31.6631 48.1889 30.9966 47.987C30.4985 47.7829 29.9802 47.6321 29.4503 47.5371C28.6404 47.3448 27.8203 47.198 26.994 47.0971C27.7628 47.4894 28.5679 47.8063 29.3978 48.0433C30.0394 48.2488 30.7092 48.3526 31.3828 48.3507V48.352ZM30.0553 47.1371C30.6273 47.1599 31.1939 47.2579 31.7403 47.4283C33.9644 47.8471 36.2337 47.9731 38.4904 47.8033C38.4904 47.8033 35.1766 47.6321 31.8441 47.1546C31.1672 47.1469 30.4944 47.0476 29.8441 46.8596C29.4688 46.641 29.0599 46.486 28.6341 46.4009C28.0483 46.2576 27.4501 46.1709 26.8478 46.1422C27.4086 46.4575 27.9973 46.7203 28.6066 46.9271C29.0781 47.0709 29.5686 47.1426 30.0616 47.1396L30.0553 47.1371ZM28.9766 45.956C29.6066 46.0324 30.2276 46.171 30.8303 46.3697C33.3422 46.9243 35.924 47.0929 38.4867 46.8696C38.4867 46.8696 34.2679 46.6597 30.6791 46.0685C30.0423 46.0292 29.4126 45.9125 28.8041 45.721C28.5705 45.5522 28.3108 45.423 28.0353 45.3385C27.5289 45.2194 27.0091 45.1664 26.489 45.1811C26.489 45.1811 27.2615 45.5498 27.929 45.7947C28.2681 45.9029 28.6219 45.9577 28.9778 45.9572L28.9766 45.956ZM33.0353 49.5631C33.6534 49.5824 34.2681 49.6628 34.8704 49.8031C36.2622 49.9284 37.662 49.9384 39.0554 49.8331C39.0554 49.8331 37.6416 49.7806 34.8204 49.4506C34.0252 49.5124 33.2255 49.4242 32.4628 49.1907C31.801 48.9173 31.1091 48.7235 30.4016 48.6132C29.1391 48.3632 28.0265 48.312 27.4228 48.2108C28.3625 48.6654 29.3487 49.017 30.3641 49.2594C31.2348 49.4937 32.1355 49.5969 33.0366 49.5656L33.0353 49.5631ZM34.6329 50.6668C35.1718 50.6442 35.7114 50.6862 36.2404 50.7918C37.7404 50.8492 39.4817 50.853 41.5067 50.7755C41.5067 50.7755 39.2404 50.7205 36.0579 50.4905C35.4098 50.5376 34.7583 50.4955 34.1216 50.3655C33.3028 50.1353 32.4667 49.9715 31.6216 49.8756C30.0316 49.6481 28.4741 49.4794 27.8565 49.4294C28.9382 49.8545 30.0584 50.1739 31.2016 50.383C32.3321 50.611 33.4851 50.7087 34.6379 50.6743L34.6329 50.6668ZM50.0018 50.0656V49.6656C46.6767 49.7581 44.8142 49.9343 44.8142 49.9343C46.763 50.0331 48.4893 50.0668 50.0018 50.0593V50.0656ZM28.189 44.7398C28.7458 44.828 29.2932 44.9677 29.8241 45.1573C33.1143 45.9683 36.5139 46.2426 39.8917 45.9697C36.5791 45.8086 33.2777 45.4693 30.0016 44.9536C29.3596 44.8905 28.7253 44.765 28.1078 44.5786C27.8869 44.4203 27.6372 44.3065 27.3728 44.2436C27.0007 44.1554 26.6201 44.1076 26.2378 44.1012C26.2378 44.1012 26.8628 44.4249 27.354 44.6124C27.6261 44.6897 27.9064 44.7346 28.189 44.7461V44.7398ZM50.0018 11.8043V11.5856C49.4193 11.5931 48.7755 11.6206 48.053 11.6831C48.053 11.6831 48.828 11.7006 50.0018 11.8081V11.8043ZM47.0142 52.4978C44.9242 52.5916 43.048 52.6366 41.3004 52.6228C37.8167 52.2704 38.8429 52.3641 36.1279 52.1979C32.0803 51.9479 28.5091 51.4217 28.5091 51.4217C30.22 51.9375 31.9675 52.3231 33.7366 52.5753C38.5317 53.0009 43.354 53.0243 48.153 52.6453C48.7684 52.6784 49.3851 52.6784 50.0005 52.6453V52.1341C48.9942 52.1941 47.9923 52.3147 47.0005 52.4953H47.0167L47.0142 52.4978ZM34.5954 25.0168C33.6047 24.8905 32.6012 24.9036 31.6141 25.0555L33.9754 25.3593C33.3699 25.6664 32.6928 25.805 32.0153 25.7605C32.6153 26.1601 33.3183 26.3771 34.0391 26.3854C35.3154 24.9808 37.0549 24.0828 38.9392 23.8557C39.6099 23.7741 40.29 23.8878 40.8977 24.1831C41.5055 24.4784 42.0151 24.9428 42.3654 25.5205C41.3181 24.9189 40.1084 24.661 38.9067 24.7831C37.4557 25.0525 36.0729 25.6083 34.8391 26.4179C35.3404 26.3764 35.8426 26.4879 36.2791 26.7379C37.2942 27.361 38.4951 27.6099 39.6742 27.4416C40.7992 27.1728 42.3367 26.6129 42.5579 27.1916C41.67 27.7225 40.6848 28.0705 39.6604 28.2152C40.3393 28.2832 41.0245 28.2517 41.6942 28.1215C42.3479 28.039 44.0442 27.8615 44.248 27.8803C43.7516 27.7968 43.2507 27.743 42.748 27.719C42.4979 27.7103 42.958 27.4291 43.1405 27.4116C43.1405 27.4116 43.1405 27.4116 43.1505 27.4041C43.6505 27.3541 44.8205 27.2391 45.128 27.2178C44.6678 27.079 44.1885 27.0141 43.708 27.0253C43.3967 27.0366 43.743 26.5854 44.1142 26.5604C44.6667 26.5516 45.5767 26.5354 45.8817 26.5129C45.46 26.3286 45.0096 26.2187 44.5505 26.1879C44.2192 26.1667 43.9417 25.7355 44.1755 25.7367C45.1242 25.7217 46.5505 25.658 46.5505 25.658C45.8042 25.487 45.047 25.3679 44.2842 25.3018C44.0905 25.2918 44.053 24.7743 44.5267 24.7881C44.968 24.8018 45.858 24.8468 45.858 24.8468C45.4917 24.7118 45.0167 24.5406 44.6992 24.4031C44.2542 24.1944 44.6292 24.0869 44.9355 24.0606C45.0896 24.0591 45.242 24.0277 45.3842 23.9681C44.5205 23.7007 43.0092 22.4508 40.8979 22.4508C40.4829 22.4508 39.6392 22.6058 39.0229 22.6158C37.7279 22.6007 36.4348 22.7192 35.1641 22.9695C35.1641 22.9695 39.8292 22.907 40.9754 23.1232C41.1454 23.3645 41.2529 23.6232 40.8879 23.5919L40.6692 23.5682C40.2291 23.5059 39.7859 23.4675 39.3417 23.4532C37.3454 23.2998 35.3383 23.3706 33.3579 23.6644C33.3579 23.6644 35.0516 23.7032 36.8579 23.7532C36.4849 23.8671 36.125 24.02 35.7841 24.2094C34.5939 24.1053 33.3954 24.1473 32.2153 24.3344L35.1766 24.5956C35.0279 24.6993 34.8929 24.7981 34.7716 24.8818C34.7041 24.9306 34.6379 24.9718 34.5716 25.0143L34.5954 25.0168ZM36.7366 26.5004C36.9859 26.322 37.2648 26.1891 37.5604 26.1079C37.7406 26.0464 37.935 26.0395 38.1192 26.0879C38.1192 26.0879 38.1392 26.5054 37.5441 26.4629C38.1692 27.1553 39.8417 26.9154 39.8417 26.9154C39.3291 27.1037 38.7782 27.1639 38.237 27.0907C37.6958 27.0175 37.1808 26.8132 36.7366 26.4954V26.5004ZM40.2279 26.7679C40.0492 26.7679 40.0829 26.6429 40.0829 26.4791C40.0829 26.3154 40.0492 26.1917 40.2279 26.1917C40.4067 26.1917 40.7642 26.3167 40.7642 26.4791C40.7642 26.6416 40.4042 26.7679 40.2279 26.7679ZM45.9042 17.36C47.276 17.4107 48.6439 17.5372 50.0018 17.7388V17.3763C48.6401 17.2297 47.2669 17.2246 45.9042 17.3613V17.36ZM48.5143 26.8954C49.0177 26.976 49.5147 27.0921 50.0018 27.2428V26.8516C49.5064 26.8074 49.0075 26.8221 48.5155 26.8954H48.5143ZM26.5765 34.8108C26.7904 34.3721 26.8434 33.8722 26.7262 33.3984C26.609 32.9246 26.3291 32.507 25.9353 32.2186C25.3058 31.7128 24.7643 31.1063 24.3328 30.4238C24.567 31.1923 25.0107 31.8804 25.614 32.4111C26.3828 33.1797 26.239 33.4297 25.9665 33.6609C25.774 33.8222 25.614 32.8298 24.8415 32.3486C24.3293 31.9565 23.9137 31.4525 23.6265 30.875C23.7298 31.5548 24.0306 32.1894 24.4915 32.6998C24.9259 33.0602 25.2481 33.5372 25.4203 34.0746C24.8731 33.9922 24.3493 33.7959 23.8828 33.4985C24.2009 33.9083 24.6088 34.2398 25.0752 34.4673C25.5415 34.6948 26.0539 34.8123 26.5728 34.8108H26.5765ZM50.0018 50.8992V50.5243C46.1742 50.618 42.0629 50.7743 42.0629 50.7743C44.7055 50.949 47.3551 50.9907 50.0018 50.8992V50.8992ZM50.0018 18.8761V18.6262C49.3218 18.5662 48.5493 18.5287 47.6493 18.5349C47.6455 18.5299 48.6055 18.6262 50.0018 18.8761ZM50.0018 23.4444V23.1257C49.3336 23.1271 48.6659 23.1646 48.0018 23.2382C48.0018 23.2382 48.808 23.2832 50.0018 23.4482V23.4444ZM48.3168 28.6252C48.8884 28.7142 49.4519 28.8492 50.0018 29.0289V28.6027C49.4433 28.5284 48.877 28.5351 48.3205 28.6227L48.3168 28.6252ZM48.3805 30.35C48.9302 30.4356 49.4723 30.5643 50.0018 30.735V30.3288C49.4644 30.2592 48.9198 30.2659 48.3843 30.3488L48.3805 30.35ZM48.3805 27.764C48.9301 27.8488 49.4722 27.9767 50.0018 28.1465V27.7428C49.4645 27.6774 48.921 27.6841 48.3855 27.7628L48.3805 27.764ZM16.9689 14.1904C17.103 14.4212 17.1729 14.6837 17.1716 14.9507C17.1703 15.2176 17.0977 15.4794 16.9614 15.709C17.5052 15.0928 17.8639 15.2478 17.8639 15.2478C17.4074 15.8107 17.0797 16.4669 16.9039 17.1701C16.5222 18.06 15.9673 18.8651 15.2714 19.5386C16.5237 18.6922 17.4407 17.4348 17.8639 15.9839C18.149 15.5548 18.5834 15.247 19.0827 15.1203C19.112 15.5412 19.268 15.9433 19.5302 16.2739C19.1452 15.3452 20.2027 13.8404 20.2027 13.8404C20.0357 14.1047 19.8112 14.328 19.5459 14.4935C19.2807 14.659 18.9814 14.7625 18.6706 14.7962C18.3597 14.83 18.0453 14.7931 17.7506 14.6885C17.456 14.5838 17.1888 14.4139 16.9689 14.1916V14.1904ZM20.844 10.252C20.109 11.7519 18.9227 13.198 17.5127 12.2043C17.5127 12.2043 18.7939 13.6779 20.2627 11.8856C21.7315 10.0933 21.3877 9.73955 22.344 9.54832C22.1009 10.0175 21.9715 10.5373 21.966 11.0657C21.9606 11.5941 22.0794 12.1164 22.3127 12.5905C22.1972 11.9528 22.2235 11.2975 22.3896 10.6711C22.5557 10.0447 22.8577 9.46254 23.274 8.96588C22.7866 8.9114 22.2941 9.00496 21.8607 9.23436C21.4272 9.46376 21.073 9.81837 20.844 10.252V10.252ZM28.3065 7.68975C27.9185 8.98442 27.2641 10.1837 26.3853 11.2107C25.3278 12.0443 23.5977 12.9405 24.4003 14.3503C24.4003 14.3503 24.304 13.4854 24.8803 13.198C24.8235 13.4728 24.8477 13.7582 24.95 14.0196C25.0523 14.2809 25.2283 14.507 25.4565 14.6703C25.3652 13.9004 25.5342 13.1221 25.9365 12.4593C27.2521 11.1885 28.0907 9.5041 28.3115 7.6885L28.3065 7.68975ZM49.9218 7.92098C49.451 8.66849 48.7748 9.26454 47.9741 9.63782C47.1733 10.0111 46.282 10.1458 45.4067 10.0258C44.274 9.89397 43.1937 9.47539 42.2679 8.80964C42.7602 9.40429 43.418 9.83932 44.158 10.0595C45.3755 10.412 45.3742 10.9244 44.2205 10.9557C43.0667 10.9869 42.5554 10.4107 41.6267 10.4757C40.6979 10.5407 40.1542 11.1182 39.0967 11.0207C38.446 10.9785 37.8298 10.7135 37.3517 10.2703C36.8736 9.82707 36.5628 9.23267 36.4716 8.58716C36.4716 8.58716 33.8029 8.80714 32.7516 7.00232H32.4941C32.5255 7.77914 32.7543 8.53516 33.1589 9.19906C33.5635 9.86297 34.1306 10.4129 34.8066 10.7969C34.8066 10.7969 34.1654 9.99577 34.9666 9.64456C35.7102 10.3859 36.6232 10.935 37.6266 11.2444C36.9657 11.6182 36.2001 11.7643 35.4479 11.6602C34.6957 11.5561 33.9986 11.2075 33.4641 10.6682C33.9199 11.4424 34.6526 12.0146 35.5141 12.2693C35.5141 12.2693 32.4391 13.2942 31.5741 10.3482C31.5741 10.3482 31.2866 13.4229 29.6203 13.7754C29.6401 13.3376 29.785 12.9147 30.0378 12.5568C30.9586 10.8407 31.4979 8.94602 31.6191 7.00232L31.5278 7.00232C31.2166 8.44218 30.4378 11.7056 29.6191 12.3993C28.5616 13.2942 28.0815 14.1929 28.4941 15.2165C28.3213 15.033 28.187 14.8169 28.099 14.5808C28.011 14.3447 27.9711 14.0934 27.9815 13.8416C27.7408 14.5962 27.6645 15.3936 27.7578 16.1802C27.4527 15.8041 27.2389 15.3625 27.1333 14.89C27.0277 14.4174 27.0331 13.9268 27.149 13.4567C27.3728 12.2718 28.9103 12.368 29.3903 10.287C28.9923 11.0367 28.3789 11.6501 27.629 12.0481C28.637 10.952 29.2265 9.53593 29.2941 8.04847C28.954 9.52191 28.161 10.8519 27.0265 11.8518C25.169 13.4217 25.969 14.6391 25.969 14.6391C25.9732 14.3369 26.0443 14.0393 26.1772 13.7679C26.3101 13.4964 26.5016 13.2578 26.7378 13.0692C26.6055 13.5875 26.5799 14.1273 26.6624 14.6558C26.7449 15.1843 26.9338 15.6906 27.2178 16.1439C26.7811 15.9489 26.4043 15.6408 26.1265 15.2515C26.1265 15.2515 26.0628 18.5174 31.0266 17.4288C30.0782 17.8954 29.0186 18.0886 27.9665 17.9868C26.9145 17.8851 25.9116 17.4923 25.0703 16.8526C23.0852 15.2153 22.7977 14.1266 22.9577 12.9417C22.7331 13.4147 22.3915 13.8225 21.9652 14.1266C21.2915 14.5753 19.5627 15.8239 21.6777 17.425C21.6777 17.425 20.9727 16.5289 21.229 15.8239C21.5003 16.5798 22.0045 17.2301 22.669 17.6813C22.669 17.6813 21.7402 16.3064 21.9965 15.6002C22.4664 16.6859 23.2322 17.6175 24.2065 18.2887C23.7292 18.2747 23.2646 18.1322 22.8615 17.8762C23.1883 18.3346 23.5887 18.7358 24.0465 19.0636C24.0465 19.0636 21.5465 20.0235 19.6915 16.7239C19.3201 16.909 19.0009 17.184 18.7627 17.5238C18.7627 17.5238 19.404 16.9801 19.7565 17.5238C19.838 17.6211 19.8974 17.7349 19.9305 17.8574C19.9636 17.9799 19.9697 18.1082 19.9483 18.2333C19.9269 18.3584 19.8785 18.4773 19.8065 18.5818C19.7345 18.6864 19.6407 18.774 19.5315 18.8387C18.3841 19.3438 17.3493 20.073 16.4877 20.9834C16.0201 21.5034 15.674 22.1207 15.4745 22.7909C15.2749 23.461 15.2269 24.1671 15.3339 24.8581C15.4829 26.533 16.261 28.0894 17.5114 29.2139C16.6009 28.9864 15.7614 28.5359 15.0683 27.9032C14.3753 27.2704 13.8505 26.4752 13.5414 25.5892C13.0639 24.461 12.946 23.2129 13.2037 22.0152C13.4614 20.8175 14.0822 19.7283 14.9814 18.8961C14.9814 18.8961 13.0914 17.935 16.7439 13.7717C16.7439 13.7717 16.2952 11.6906 18.9215 11.1144C18.8815 10.3305 19.0293 9.54844 19.3526 8.83321C19.6759 8.11797 20.1654 7.49027 20.7802 7.00232H18.3564C18.5362 7.20568 18.6543 7.45609 18.6968 7.72418C18.7393 7.99227 18.7045 8.26692 18.5964 8.51592L18.5252 8.60966C17.8912 8.02109 17.2115 7.48364 16.4927 7.00232L13.1864 7.00232C13.4717 7.40688 13.6798 7.86072 13.8001 8.34094C13.5501 8.21595 13.2889 8.09096 13.0314 7.96597C12.9247 7.61456 12.7506 7.28726 12.5189 7.00232L11.8764 7.00232C12.0093 7.18271 12.1127 7.38312 12.1826 7.59601C11.8493 7.45602 11.5122 7.32187 11.1714 7.19355C11.1489 7.15105 11.1139 7.07981 11.0689 7.00232H8.00133C7.27086 7.6705 6.41224 8.18332 5.47756 8.50967C5.0713 8.41468 4.6513 8.32344 4.22754 8.2347C5.00941 7.93675 5.74118 7.52117 6.39757 7.00232L5.51506 7.00232C4.96536 7.45613 4.35748 7.83444 3.70754 8.12721L3.55504 8.09596C3.0842 8.00597 2.62836 7.9164 2.18752 7.82724C2.83307 7.62744 3.45214 7.35047 4.03129 7.00232L3.16378 7.00232C2.70474 7.28452 2.22358 7.52904 1.72502 7.7335C1.15001 7.61684 0.601256 7.50102 0.0787508 7.38603C0.528368 7.30223 0.968478 7.17369 1.39251 7.00232L0.00125001 7.00232V8.52717C0.305003 8.54717 0.807509 8.58466 1.45877 8.65216C1.03062 9.05798 0.538092 9.38996 0.00125001 9.63456V10.2383C0.916932 9.87726 1.77349 9.38141 2.54253 8.76715C2.89878 8.80964 3.27753 8.85964 3.67379 8.91588C2.76314 9.8279 1.64173 10.5015 0.408754 10.8769C0.271253 10.8457 0.136251 10.8107 0.00125001 10.7807V12.8217C0.150002 12.6568 0.300003 12.4868 0.447505 12.3068L1.51752 12.1818L2.00877 12.1268L1.98752 12.1606L1.92002 12.2631C1.37194 12.9525 0.725431 13.5577 0.00125001 14.0591V14.6041C0.962761 13.8894 1.83856 13.0661 2.61128 12.1506L2.62628 12.1268L4.15879 12.0018L4.09004 12.0993L4.06254 12.1381C2.95828 13.453 1.56953 14.4996 0.00125001 15.199V18.0175C0.411675 17.5615 0.745961 17.0424 0.99126 16.4801L1.51377 16.3701C1.1509 17.1735 0.637473 17.8998 0.00125001 18.5099V19.3436C1.30677 19.2459 2.61446 19.5024 3.78629 20.086C3.34129 20.1244 2.89128 20.1744 2.43628 20.236C1.68572 19.8059 0.85871 19.5257 0.00125001 19.4111V19.8835C0.42779 20.032 0.841293 20.2155 1.23751 20.4322C0.827509 20.5085 0.413754 20.6022 0.00125001 20.7022V21.1397C0.301253 21.0884 0.601256 21.0384 0.895009 20.9947L0.876259 21.0747C0.72183 21.7664 0.423715 22.4179 0.00125001 22.987V23.6257L0.146252 23.5007C0.897643 22.7947 1.45688 21.9091 1.77127 20.9272L1.79127 20.8685C2.10252 20.8285 2.41628 20.7935 2.71378 20.7622L2.69003 20.8447C2.41263 21.9182 1.80853 22.8791 0.96126 23.5944L0.00125001 23.7269V23.8757C0.186252 23.8582 0.353754 23.8419 0.486255 23.8319C2.08606 23.6666 3.69604 23.6219 5.30256 23.6982C3.64254 23.8982 2.10627 24.1369 0.700007 24.3981L0.0350004 24.5231C0.0240964 24.527 0.0127628 24.5295 0.00125001 24.5306V25.648C0.258753 25.273 0.448755 24.9543 0.556256 24.7606C0.97501 24.6793 1.37751 24.6081 1.76127 24.5418C1.30969 25.4568 0.715615 26.2943 0.00125001 27.0228V27.5078C1.04784 26.6399 1.9287 25.5897 2.60128 24.4081C3.00128 24.3481 3.37754 24.2981 3.72629 24.2544C3.08792 25.5234 2.22382 26.6657 1.17626 27.6253C0.775008 27.664 0.382504 27.7078 0 27.7503V28.7152C0.169116 28.5308 0.306406 28.3196 0.406254 28.0902C0.447505 28.0902 0.713758 28.0615 0.815009 28.054C0.670957 28.4729 0.393426 28.8329 0.0250003 29.0789L0.00125001 29.0876V30.05L0.647507 29.9451C0.473374 30.2994 0.256326 30.6311 0.00125001 30.9325V31.2674C0.468186 30.8552 0.875809 30.3803 1.21251 29.8563C1.53002 29.8038 1.84502 29.7563 2.15752 29.7088C1.75653 30.5315 1.14985 31.2367 0.396254 31.7561C0.280003 31.7561 0.146252 31.7561 0 31.7486V33.4422C0.173752 33.301 0.352504 33.151 0.540006 32.9835L0.705007 32.9585L1.64627 32.8098C1.23375 33.3966 0.710107 33.8968 0.105001 34.2821L0.00125001 34.2496V34.6246L0.0787508 34.6421C1.04195 34.8163 2.01376 34.9389 2.99003 35.0096C3.25003 35.0471 3.64129 35.0933 4.15254 35.1345L3.48254 35.357L2.89753 35.552L2.38378 35.722C2.82983 35.6921 3.27722 35.6875 3.72379 35.7082C4.23754 35.7295 4.67005 35.7757 4.9138 35.807C4.76505 35.852 4.62005 35.8957 4.48005 35.9395C4.08629 36.0645 3.73004 36.1769 3.40754 36.2869C3.23253 36.3457 3.06878 36.4019 2.90753 36.4569C2.21363 36.6881 1.53373 36.9594 0.871259 37.2693C1.24626 37.1731 2.40878 36.8519 3.78129 36.4732C3.30083 37.0335 2.72796 37.5073 2.08752 37.8743C1.84488 37.8562 1.60331 37.8257 1.36376 37.783C0.213752 37.5718 0.807509 36.6706 1.40626 35.9932C1.40626 35.9932 0.267503 36.6794 0.406254 37.5206C0.572506 38.528 2.93503 38.4105 2.93503 38.4105C2.93503 38.4105 0.93501 39.4254 4.20879 39.7728C5.1913 39.4054 5.72381 38.338 5.89881 38.3505C6.03631 38.3605 5.96506 38.7417 5.27381 39.9041C5.81881 39.9241 6.33257 39.9253 6.81382 39.9128C7.62792 39.4738 8.29513 38.8054 8.73259 37.9905L8.95759 37.9818C8.75677 38.6934 8.37273 39.3398 7.84383 39.8566C8.09384 39.8466 8.33509 39.8291 8.56384 39.8078C8.20884 40.0216 7.90758 40.219 7.64883 40.4015C7.50133 40.504 7.36883 40.6003 7.24883 40.6902C6.9572 40.9067 6.68303 41.1458 6.42882 41.4052C6.33882 41.5014 6.30382 41.5539 6.30382 41.5539C6.36007 41.5027 6.42882 41.4452 6.50507 41.3877C6.65132 41.2764 6.83132 41.154 7.04007 41.0215C7.60146 40.843 8.19638 40.7959 8.77884 40.884C8.46259 41.0252 8.15384 41.164 7.86758 41.3002C7.63883 41.4077 7.42258 41.5102 7.21758 41.6114C6.68072 41.858 6.16628 42.1507 5.68006 42.4863C5.6897 42.3649 5.7162 42.2454 5.75881 42.1314C5.33506 42.5526 4.8838 43.4187 5.94381 43.8812C6.16175 43.7729 6.37075 43.6476 6.56882 43.5062V43.5062C7.33335 43.0172 7.95821 42.3386 8.38259 41.5364L9.2576 41.1852C8.75244 42.1155 8.0735 42.9404 7.25758 43.615V43.615L7.22508 43.6425L7.15758 43.6987C6.98257 43.8387 6.75132 44.0124 6.65757 44.0737C8.03267 44.2743 9.43484 44.1767 10.7689 43.7874L10.9951 43.7262C11.0501 43.7124 11.1051 43.6962 11.1601 43.6812C10.8814 43.8924 10.5176 44.1812 10.1239 44.5311C9.96386 44.6736 9.79885 44.8223 9.63385 44.9823C9.26885 45.3307 8.9253 45.701 8.60509 46.091C8.51384 46.2047 8.42384 46.3197 8.33759 46.4372C8.23509 46.5759 8.13759 46.7159 8.04758 46.8584C8.04758 46.8584 8.24759 46.6559 8.60009 46.3297C9.28164 46.0388 10.0166 45.894 10.7576 45.9047C10.6401 45.996 10.5289 46.0847 10.4189 46.1722C10.2005 46.3455 9.99761 46.5084 9.8101 46.6609C9.03301 47.2534 8.31243 47.9166 7.65758 48.642C7.58095 48.3921 7.56679 48.1274 7.61633 47.8708C7.62758 47.792 7.63883 47.7121 7.65758 47.6208C6.75382 49.1444 7.68758 49.7681 9.13135 49.6956C9.23595 49.6038 9.33488 49.5057 9.4276 49.4019C9.5101 49.3081 9.60385 49.1982 9.7026 49.0669L9.72635 49.0369C10.2902 48.2791 10.6439 47.3856 10.7514 46.4472C11.0339 46.2472 11.3139 46.0485 11.5889 45.856C11.5488 46.8809 11.2284 47.8752 10.6626 48.7307L10.6326 48.7832C10.6283 48.7886 10.6245 48.7945 10.6214 48.8007C10.5414 48.9182 10.4576 49.0282 10.3714 49.1294C10.2393 49.2977 10.0987 49.4592 9.95011 49.6131C10.0751 49.5881 10.2089 49.5581 10.3401 49.5244C10.7175 49.4152 11.0854 49.2756 11.4401 49.1069C11.258 49.3339 11.0938 49.5746 10.9489 49.8268C10.9351 49.8518 10.9189 49.8768 10.9064 49.9031C10.73 50.2219 10.5844 50.5567 10.4714 50.903C10.4714 50.903 10.7989 50.418 11.3026 49.8243C11.7919 49.5347 12.3634 49.4156 12.9276 49.4856L12.2439 50.1381L11.8126 50.5518L11.8014 50.5655C11.6939 50.6768 10.6451 51.7767 10.3201 52.1604C10.216 51.8619 10.2223 51.536 10.3376 51.2417C10.3376 51.2255 10.3376 51.2117 10.3489 51.193C10.3376 51.2142 10.3276 51.2355 10.3139 51.2555C9.5426 52.5266 10.5101 53.2278 11.7076 53.0653C12.4897 52.9814 13.2522 52.7677 13.9639 52.4328C13.3699 53.3314 13.1357 54.4205 13.3076 55.4838C13.3462 54.8379 13.5164 54.2067 13.8076 53.629C13.8626 53.514 13.9189 53.4027 13.9764 53.2953C14.5273 52.9654 15.1593 52.7957 15.8014 52.8053C15.7089 52.9165 15.6164 53.0265 15.5252 53.139C15.3102 53.4015 15.0977 53.6652 14.8914 53.9289C14.7539 54.1052 14.6214 54.2814 14.4877 54.4551C14.0851 54.9876 13.7076 55.515 13.3739 56.0237L14.6702 54.7189C14.722 55.2655 14.6405 55.8167 14.4327 56.325C14.1755 56.3565 13.9154 56.3539 13.6589 56.3175C14.3761 56.5793 15.1597 56.5964 15.8877 56.3662C15.8877 56.3662 15.6177 56.6274 15.3114 56.9911H17.3864L17.3964 56.9811C17.3971 56.9844 17.3971 56.9878 17.3964 56.9911H17.9389C17.9277 56.7512 17.9152 56.5562 17.9064 56.4262C18.1352 56.1762 18.3652 55.9262 18.5989 55.685C18.6402 56.1262 18.6577 56.5724 18.6614 56.9899H19.0177C19.0527 56.24 19.0415 55.585 19.0277 55.2263C19.2569 54.9813 19.4869 54.7376 19.7177 54.4951C19.8466 55.3218 19.8848 56.16 19.8315 56.9949H20.1365C20.2484 55.9936 20.2739 54.9846 20.2127 53.9789L20.8377 53.324C20.9871 54.5191 20.982 55.7285 20.8227 56.9224L20.744 56.9974H22.2252C22.1755 56.9048 22.1187 56.8162 22.0552 56.7324L22.7102 56.14C22.8325 56.4179 22.9353 56.704 23.0177 56.9961H23.7878C23.7169 56.4798 23.5886 55.9729 23.4052 55.485L24.0553 54.8751C24.2888 55.562 24.4325 56.2762 24.4828 56.9999H24.9828C25.0015 56.0901 24.861 55.1841 24.5678 54.3227L25.3315 53.5265C25.7442 54.6339 25.8819 55.825 25.7328 56.9974H27.8353V56.9474C27.8353 56.9474 27.5015 53.9127 27.2815 52.8728C27.2815 52.8728 26.9178 51.2117 26.4578 49.6444C26.2601 49.1176 25.9466 48.642 25.5406 48.2526C25.1345 47.8633 24.6461 47.57 24.1115 47.3946C23.1115 47.2059 22.1115 46.7596 22.0152 45.461C22.1327 45.9235 22.5402 46.4459 23.7177 46.6434C24.2138 46.6993 24.6904 46.8684 25.1109 47.1375C25.5313 47.4066 25.8843 47.7687 26.1428 48.1958C25.9745 47.7289 25.7031 47.3061 25.3488 46.9585C24.9945 46.611 24.5665 46.3478 24.0965 46.1885C22.6077 45.7785 21.9277 45.5135 22.0502 44.6761C22.2252 43.7349 22.7715 43.7649 22.7715 43.7649C22.7715 43.7649 22.1952 44.8098 23.9203 45.2186C25.6128 45.6223 25.8103 46.5934 25.8103 46.5934C25.4064 42.8289 25.246 39.0422 25.3303 35.257C24.1544 34.8144 23.1888 33.9445 22.6265 32.821C22.6265 32.821 23.1852 35.0845 24.3065 35.5995C24.914 35.8782 22.7715 35.7245 21.9727 35.1958C22.8483 36.0939 23.3664 37.2804 23.4302 38.533C22.9577 37.1043 22.0952 36.8581 22.0952 36.8581C22.0952 36.8581 23.8815 39.5654 21.779 40.7977C21.779 40.7977 22.9965 39.3891 21.9715 38.298C21.9715 38.298 22.164 40.1228 20.5627 40.219C18.9614 40.3153 17.4877 37.7543 20.3715 35.4483C19.756 35.6505 19.1888 35.9772 18.7052 36.4082C18.2264 36.9481 16.9889 37.2081 16.7527 36.5544C16.7527 36.5407 16.7527 36.5244 16.7427 36.5107C16.7327 36.4969 16.7427 36.4932 16.7352 36.4832C16.7249 36.3005 16.7388 36.1173 16.7764 35.9382C17.068 34.6453 17.5273 33.3961 18.1427 32.2223C18.4031 31.8249 18.5039 31.3437 18.4248 30.8752C18.3458 30.4066 18.0928 29.9852 17.7164 29.6951C18.2533 29.7852 18.7999 29.8024 19.3415 29.7463C19.4249 30.5467 19.3398 31.3557 19.0915 32.1211C18.5188 33.1274 18.1099 34.2185 17.8802 35.3533C18.235 34.4722 18.7293 33.6539 19.344 32.9298C20.1027 32.2248 19.949 31.7186 19.949 31.7186C20.0314 32.0534 20.0424 32.4018 19.9815 32.7411C19.9206 33.0805 19.7889 33.4032 19.5952 33.6884C19.1938 34.2113 18.9645 34.8458 18.939 35.5045C19.1501 35.0223 19.4403 34.5787 19.7977 34.1921C19.9992 34.046 20.1637 33.8547 20.2779 33.6335C20.3921 33.4123 20.4528 33.1674 20.4552 32.9185C20.6805 33.6612 21.075 34.3415 21.6077 34.9058C21.347 34.3315 21.2054 33.7103 21.1915 33.0797C21.0742 32.3496 20.8918 31.6314 20.6465 30.9337C21.2877 30.9987 22.2802 32.2148 22.2802 32.2148C21.639 29.2364 23.4652 30.58 23.4652 30.58C23.1345 29.8954 23.0249 29.1249 23.1515 28.3752C23.2765 27.864 23.984 26.8754 23.7928 27.864C23.7261 28.6244 23.8701 29.3885 24.209 30.0725C24.0946 29.6108 24.0839 29.1295 24.1777 28.6631C24.2716 28.1967 24.4675 27.7569 24.7515 27.3753C24.6812 27.9636 24.7496 28.5602 24.9513 29.1173C25.1529 29.6745 25.4822 30.1767 25.9128 30.5837C26.3174 30.8765 26.6432 31.2648 26.8613 31.7141C27.0794 32.1633 27.183 32.6595 27.1628 33.1585C27.3678 32.7544 27.4389 32.2957 27.3659 31.8485C27.2929 31.4014 27.0794 30.9891 26.7565 30.6712L27.7715 30.645C27.2503 30.53 26.8165 30.4175 26.4403 30.3188C26.289 30.1575 26.1365 29.9926 25.9903 29.8188L27.3853 29.7776C26.6515 29.5988 26.0915 29.4314 25.6228 29.3001C25.534 29.1516 25.4574 28.9961 25.394 28.8352C26.3328 28.7989 27.029 28.7764 27.029 28.7764C26.279 28.5814 25.7103 28.394 25.2353 28.2502C25.215 28.1304 25.2033 28.0093 25.2003 27.8878C26.3528 27.8265 27.0265 27.749 27.0265 27.749C26.3215 27.5978 25.7478 27.4116 25.2528 27.2966C25.2779 27.1694 25.3118 27.0441 25.354 26.9216C26.5353 26.7966 27.4965 26.7116 27.4965 26.7116C26.7353 26.5866 26.1503 26.4442 25.6665 26.3442C25.8365 26.1742 25.9778 26.0204 26.0903 25.8842C27.4103 25.823 28.5366 25.7755 28.5366 25.7755C27.6778 25.6267 26.9903 25.4792 26.4115 25.3905C26.4892 25.2279 26.5515 25.0585 26.5978 24.8843C27.8278 24.8331 28.8391 24.7831 28.8391 24.7831C27.9428 24.6343 27.2578 24.5331 26.714 24.4493C26.724 24.4119 26.7303 24.3806 26.7403 24.3431C26.8015 24.1044 26.8578 23.9394 26.904 23.8094C28.154 23.7207 29.0441 23.6844 29.0441 23.6844C28.2328 23.5769 27.5665 23.4819 26.9978 23.4045C26.9855 23.2518 26.943 23.1031 26.8728 22.967C26.8508 22.9171 26.8405 22.8628 26.8428 22.8083C28.4203 22.6595 29.6641 22.5983 29.6641 22.5983C28.6728 22.4658 27.9315 22.3558 27.3278 22.2833C27.5853 22.1383 27.899 22.0083 28.1565 21.8796C29.4066 21.7309 30.3403 21.6446 30.3403 21.6446C29.7153 21.5609 29.1841 21.4859 28.7041 21.4246C28.7898 21.2433 28.8189 21.0404 28.7878 20.8422C29.9816 20.7097 30.8716 20.6385 30.8716 20.6385C30.3828 20.5297 29.9278 20.4497 29.5041 20.3885C29.9566 20.1769 30.3691 19.9644 30.7416 19.7511C30.8528 19.6861 30.9628 19.6261 31.0691 19.5586C32.2655 18.9226 33.1994 17.8852 33.7066 16.6289C33.9432 15.9612 34.328 15.3557 34.8319 14.8579C35.3359 14.36 35.9461 13.9827 36.6166 13.7542C35.6693 13.7478 34.7535 14.0945 34.0479 14.7266C33.8084 15.0653 33.4778 15.3293 33.0945 15.488C32.7112 15.6467 32.2908 15.6936 31.8819 15.6232C31.473 15.5528 31.0924 15.3681 30.7842 15.0904C30.476 14.8127 30.2528 14.4534 30.1403 14.0541C30.4022 14.4138 30.7607 14.6919 31.1742 14.8563C31.5876 15.0206 32.0392 15.0645 32.4766 14.9828C32.4766 14.9828 30.9766 14.7253 30.6203 13.6692C31.1392 14.0535 31.7636 14.269 32.4091 14.2866C32.4091 14.2866 31.0341 13.7867 31.1653 12.8692C31.3827 13.1439 31.6603 13.3648 31.9768 13.5148C32.2933 13.6648 32.6401 13.7398 32.9903 13.7342C34.1016 13.6092 34.7404 13.203 35.6904 13.1755C36.6404 13.148 37.2716 13.4254 38.1279 13.4542C40.4389 13.2003 42.6882 12.5469 44.7755 11.5231C45.7687 11.5632 46.7576 11.3723 47.6645 10.9655C48.5714 10.5586 49.3715 9.94685 50.0018 9.17835V7.79474C49.9718 7.83724 49.9518 7.87848 49.923 7.91973L49.9218 7.92098ZM6.38632 43.4487C6.33007 43.4275 6.26132 43.4137 6.21382 43.39C6.05693 43.3305 5.92149 43.2253 5.825 43.0881C5.72852 42.9508 5.67541 42.7878 5.67256 42.6201L7.83758 41.7564C7.45333 42.3991 6.96209 42.9714 6.38507 43.4487H6.38632ZM7.66633 48.6745C8.19759 48.2832 8.73134 47.8958 9.26135 47.5133C9.12388 48.1415 8.83316 48.7258 8.41509 49.2144C8.25213 49.2034 8.09552 49.1469 7.96298 49.0515C7.83043 48.9561 7.72724 48.8255 7.66508 48.6745H7.66633ZM9.45385 49.1494C9.17666 49.2116 8.89283 49.2393 8.60884 49.2319C9.15955 48.6985 9.52081 47.9998 9.6376 47.2421C9.87885 47.0696 10.1164 46.8984 10.3551 46.7309C10.2328 47.5927 9.92441 48.4175 9.45135 49.1482L9.45385 49.1494ZM23.7203 54.1802L23.0952 54.7776C23.3679 53.4177 23.4791 52.0303 23.4265 50.6443L23.8728 50.1843C24.137 51.5107 24.0865 52.8806 23.7253 54.1839L23.7203 54.1802ZM22.529 47.6658C22.789 47.7908 23.0702 47.9158 23.3327 48.0583C23.4189 48.689 23.4378 49.3271 23.389 49.9618C23.0777 50.2506 22.764 50.5468 22.464 50.8467C22.6457 49.7953 22.6676 48.7225 22.529 47.6646V47.6658ZM22.404 51.7004L22.9252 51.1617C23.0675 52.4423 23.0423 53.736 22.8502 55.0101L22.0777 55.7413C22.3424 54.4123 22.4519 53.0571 22.404 51.7029V51.7004ZM15.0289 15.3102C14.3983 16.0386 13.5752 16.5744 12.6539 16.8563C12.4175 16.9176 12.1743 16.9491 11.9301 16.9501L11.7301 16.9288L11.4389 16.8976C11.4389 16.8976 11.5876 16.8501 11.8051 16.7726C11.9051 16.7351 12.0201 16.6889 12.1464 16.6351C12.8379 16.3833 13.4599 15.9712 13.9614 15.4327C14.193 15.4416 14.4245 15.4142 14.6477 15.3515C14.8217 15.3167 14.987 15.2474 15.1339 15.1478L15.0239 15.3152L15.0289 15.3102ZM9.43135 26.8754L8.71384 27.0603C9.83932 26.5113 10.7984 25.6727 11.4926 24.6306L12.3039 24.2294C11.6406 25.3864 10.6366 26.3108 9.42885 26.8766L9.43135 26.8754ZM12.1814 28.4565L12.1614 28.4652V28.4577H12.1751L12.1814 28.4565ZM13.3001 37.1106C13.2887 37.3074 13.2368 37.4997 13.1476 37.6755C13.1239 37.723 13.0976 37.7705 13.0676 37.8193C13.0476 37.853 13.0264 37.8843 13.0026 37.918C12.9789 37.9518 12.9389 38.0005 12.9026 38.043L12.8814 38.0668C12.8626 38.088 12.8439 38.108 12.8226 38.1292C12.7772 38.1765 12.7292 38.2211 12.6789 38.263L12.6376 38.298L12.5489 38.3617L12.5114 38.388C12.4564 38.4267 12.3976 38.463 12.3351 38.4992C12.3064 38.513 12.2839 38.5292 12.2551 38.5442C12.2264 38.5592 12.1639 38.5867 12.1176 38.6067C12.1008 38.6161 12.0833 38.624 12.0651 38.6305C11.9614 38.6754 11.8514 38.7179 11.7276 38.7554L11.7776 38.6904C11.7796 38.6871 11.7822 38.6842 11.7851 38.6817L11.8051 38.6517C11.8189 38.633 11.8351 38.608 11.8526 38.583L11.8626 38.568V38.5605C11.8739 38.543 11.8864 38.5255 11.9001 38.503C11.9985 38.3478 12.0846 38.1853 12.1576 38.0168C12.2529 37.8036 12.3193 37.5788 12.3551 37.3481L13.2914 37.0981V37.1243L13.3001 37.1106ZM13.4664 38.9329H13.4551C13.3951 38.9129 13.3301 38.8929 13.2564 38.8742C13.3281 38.8914 13.3987 38.9131 13.4676 38.9392L13.4664 38.9329ZM11.5476 38.283C11.4626 38.4824 11.3601 38.674 11.2414 38.8554L11.2301 38.8729C11.225 38.8792 11.2204 38.8859 11.2164 38.8929C11.2026 38.9129 11.1914 38.9329 11.1764 38.9517C11.1576 38.9803 11.1371 39.0079 11.1151 39.0342C11.1122 39.0386 11.1088 39.0428 11.1051 39.0467V39.0467C11.0914 39.0642 11.0739 39.0804 11.0601 39.0979C11.0464 39.1154 10.9989 39.1679 10.9664 39.2029C10.9339 39.2379 10.9314 39.2466 10.9101 39.2654L10.7514 39.2954L10.6126 39.3204L10.2789 39.3816L10.2351 39.3904C10.2351 39.3904 10.2451 39.3791 10.2626 39.3554L10.3051 39.2966L10.3251 39.2691L10.3551 39.2241C10.3964 39.1629 10.4464 39.0854 10.5026 38.9929C10.5589 38.9004 10.6126 38.8029 10.6726 38.6867C10.8464 38.3474 10.9794 37.9886 11.0689 37.6181L11.8189 37.4618C11.753 37.7425 11.6626 38.0168 11.5489 38.2817L11.5476 38.283ZM12.1414 36.7931C11.7039 36.8831 11.2476 36.9694 10.7951 37.0431C11.485 36.4189 12.0596 35.678 12.4926 34.8546C12.7282 34.9454 12.9768 34.9977 13.2289 35.0096C12.9409 35.6449 12.5756 36.2422 12.1414 36.7881V36.7931ZM10.4714 37.1019C9.97136 37.1856 9.4801 37.2593 9.0326 37.3193C9.89028 36.6642 10.6121 35.8482 11.1576 34.9171C11.4176 34.8858 11.6876 34.8521 11.9614 34.8171C11.5945 35.6552 11.0919 36.4272 10.4739 37.1019H10.4714ZM9.44385 34.6346C10.0623 34.2895 10.6007 33.8176 11.0239 33.2497C11.1168 33.5041 11.2402 33.7463 11.3914 33.9709C11.4696 34.0815 11.5556 34.1864 11.6489 34.2846C11.2389 34.3609 10.4614 34.4996 9.44385 34.6333V34.6346ZM10.1939 31.4562C9.50888 32.8246 8.49212 33.9998 7.23633 34.8746C6.78132 34.9121 6.30382 34.9408 5.81631 34.9608C7.19214 34.1384 8.34707 32.9935 9.18135 31.6249C9.55635 31.5686 9.88886 31.5137 10.1939 31.4649V31.4562ZM9.71135 31.1574C10.1461 30.8329 10.5465 30.4647 10.9064 30.0588C10.8122 30.3946 10.754 30.7394 10.7326 31.0874C10.5014 31.1112 10.1476 31.1362 9.71135 31.1637V31.1574ZM10.7214 31.6086C10.7294 31.9614 10.7712 32.3125 10.8464 32.6573C10.4637 33.4965 9.84022 34.203 9.0551 34.6871C8.59759 34.7433 8.09884 34.7971 7.57258 34.8446C8.86204 34.0282 9.94151 32.9202 10.7239 31.6099L10.7214 31.6086ZM9.37635 31.1862L8.12634 31.2699C9.08125 30.5722 9.86656 29.6682 10.4239 28.6252C10.7614 28.5952 11.0839 28.5652 11.3901 28.5364C10.9225 29.5574 10.2348 30.4622 9.37635 31.1862V31.1862ZM5.95381 27.2916C5.95381 27.2916 5.70381 27.3016 5.28381 27.3253C6.54326 26.5895 7.60634 25.5604 8.38259 24.3256C8.64426 24.443 8.8856 24.6012 9.0976 24.7943C8.77326 25.4042 8.3269 25.9409 7.78628 26.3709C7.24566 26.801 6.62233 27.1152 5.95506 27.2941L5.95381 27.2916ZM9.85135 25.0005L10.7726 24.7206C9.95555 25.8379 8.82018 26.6826 7.51508 27.1441L7.19258 27.1778C8.28117 26.7419 9.20937 25.9818 9.85135 25.0005V25.0005ZM6.22632 27.609L6.57757 27.569C6.48555 27.9814 6.24252 28.3443 5.89631 28.5864C5.89631 28.5864 5.51131 28.7114 5.43756 28.7177C5.8358 28.4662 6.11878 28.0678 6.22507 27.609H6.22632ZM5.01005 28.7577C5.01005 28.7577 4.67505 28.8264 4.64505 28.8364C5.04815 28.5557 5.33171 28.1344 5.44006 27.6553C5.48006 27.6553 5.72756 27.6353 5.80881 27.6253C5.76315 27.86 5.66838 28.0825 5.53073 28.2781C5.39308 28.4737 5.21564 28.638 5.01005 28.7602V28.7577ZM8.22884 23.5369L7.33133 23.4694C8.55903 22.9248 9.54545 21.9505 10.1051 20.7297C10.4964 20.7672 10.8551 20.806 11.1864 20.846L11.1626 20.8822C11.1001 20.9734 9.6251 23.1245 8.22884 23.5369ZM7.44758 15.4352C7.35008 15.4727 7.25633 15.5065 7.16508 15.534L6.96632 15.4752L6.60132 15.3665L6.81882 15.284C7.65974 14.9568 8.41602 14.4441 9.03135 13.7842L9.06885 13.7554C9.28338 13.783 9.50057 13.783 9.7151 13.7554C9.93254 13.7416 10.1473 13.6996 10.3539 13.6304C9.46952 14.3593 8.49168 14.9667 7.44633 15.4365L7.44758 15.4352ZM10.6876 14.3641C10.8803 14.3681 11.0718 14.3342 11.2514 14.2641C10.4343 15.0279 9.45475 15.5966 8.38634 15.9277C8.33884 15.9414 8.29009 15.9602 8.24384 15.9714L8.15259 15.9327L7.72383 15.7515L7.93258 15.689C8.73773 15.422 9.47224 14.9769 10.0814 14.3866L10.1114 14.3566C10.3013 14.3967 10.4976 14.3967 10.6876 14.3566V14.3641ZM5.81256 15.264L5.1263 15.1465C6.09591 14.7246 6.9746 14.119 7.71383 13.3629L7.75758 13.3279C7.94331 13.367 8.13423 13.375 8.32259 13.3517C8.55586 13.3417 8.78558 13.2909 9.00134 13.2017C8.08682 14.0925 7.00468 14.793 5.81756 15.2628L5.81256 15.264ZM5.87256 15.8464C6.0295 15.8567 6.18516 15.8814 6.33757 15.9202C5.95301 16.7542 5.39969 17.4994 4.71255 18.1087C4.56255 18.1087 4.4088 18.1087 4.25379 18.1175C4.97507 17.5066 5.53271 16.7257 5.87631 15.8452L5.87256 15.8464ZM7.13758 16.3214C7.24674 16.3756 7.36674 16.4331 7.49758 16.4939C7.13779 17.1237 6.67418 17.6883 6.12631 18.1637C5.99131 18.1525 5.85881 18.14 5.72006 18.1337C6.30133 17.6214 6.7835 17.0067 7.14258 16.3202L7.13758 16.3214ZM8.29009 16.8363L8.63759 16.9713C8.34549 17.4916 7.96477 17.9569 7.51258 18.3462C7.37633 18.3225 7.23508 18.2987 7.09132 18.2762C7.56961 17.8665 7.97568 17.3793 8.29259 16.8351L8.29009 16.8363ZM9.40385 17.2288C9.53718 17.2688 9.6726 17.3067 9.8101 17.3425C9.49671 17.8178 9.11799 18.2465 8.68509 18.6162C8.56009 18.5812 8.43509 18.5462 8.29634 18.5137C8.72146 18.1385 9.09288 17.7066 9.4001 17.2301L9.40385 17.2288ZM9.0776 19.3761C9.16373 19.4119 9.24727 19.4537 9.3276 19.5011C9.3476 19.5136 9.3626 19.5286 9.38135 19.5411C9.61734 19.7039 9.81105 19.9207 9.94636 20.1735C9.74385 20.151 9.5351 20.131 9.32135 20.1123C9.2099 19.8419 9.03291 19.6035 8.80634 19.4186C8.72263 19.3454 8.63455 19.2774 8.54259 19.2149C8.72846 19.2416 8.9095 19.2951 9.0801 19.3736L9.0776 19.3761ZM9.95261 19.0524C9.8451 19.0086 9.7351 18.9624 9.61385 18.9174C10.0727 18.5146 10.4799 18.0565 10.8264 17.5538C10.9851 17.5763 11.1451 17.5925 11.3039 17.605C10.9133 18.1382 10.4605 18.6228 9.95511 19.0486L9.95261 19.0524ZM11.0376 16.7139C10.9564 16.7389 10.8789 16.7689 10.7964 16.7889L10.1389 16.6401C10.1479 16.6346 10.1576 16.63 10.1676 16.6264C11.0363 16.2919 11.8371 15.8028 12.5314 15.1828L12.5564 15.159H12.5914C12.9407 15.1358 13.2771 15.0173 13.5639 14.8165L13.8251 14.6566L13.6726 14.924C12.9951 15.7712 12.0776 16.3942 11.0401 16.7114L11.0376 16.7139ZM9.3876 16.5014L8.78259 16.3239L9.0326 16.2477C9.83973 15.9683 10.5707 15.5049 11.1676 14.894L11.1939 14.8678C11.3872 14.896 11.5838 14.8935 11.7764 14.8603C12.0523 14.8032 12.3187 14.7072 12.5676 14.5753C11.6822 15.469 10.5899 16.1306 9.3876 16.5014V16.5014ZM11.5126 13.7517C12.2946 13.5247 13.0287 13.157 13.6789 12.6668C13.9014 12.5043 14.0726 12.3643 14.1927 12.2656L14.4652 12.3905C14.4139 12.4418 14.3627 12.4968 14.3102 12.5455C13.6133 13.1869 12.772 13.6508 11.8576 13.8979C11.7403 13.8559 11.6255 13.807 11.5139 13.7517H11.5126ZM13.5126 12.0618C12.8165 12.7008 11.9991 13.1934 11.1089 13.5104C10.9926 13.4279 10.8889 13.3479 10.7914 13.2605C11.5233 13.0249 12.2113 12.6702 12.8276 12.2106C13.0351 12.0606 13.2026 11.9306 13.3114 11.8356L13.6039 11.9768L13.5126 12.0618ZM12.5814 11.6869C11.9616 12.2343 11.252 12.6706 10.4839 12.9767C10.3947 12.8842 10.3114 12.793 10.2339 12.703C10.8081 12.4588 11.3531 12.1511 11.8589 11.7856C12.0864 11.6244 12.2551 11.4906 12.3589 11.4106C12.4764 11.4606 12.5951 11.5144 12.7139 11.5694C12.6739 11.6056 12.6326 11.6456 12.5889 11.6806L12.5814 11.6869ZM11.5939 11.2744C11.0821 11.7096 10.5182 12.0795 9.91511 12.3755C9.82635 12.2818 9.7326 12.1893 9.6326 12.1018C10.0072 11.9102 10.3641 11.6856 10.6989 11.4306C10.8914 11.2844 11.0089 11.1807 11.0264 11.1644L11.2576 10.9557C11.4176 11.0194 11.5739 11.0807 11.7364 11.1494L11.5926 11.2744H11.5939ZM10.4401 10.8682C10.3901 10.9157 10.3401 10.9582 10.2901 11.0044C9.95657 11.3075 9.5906 11.5728 9.19885 11.7956C9.03595 11.7057 8.8642 11.6328 8.68634 11.5781C8.96148 11.4226 9.22697 11.2507 9.48135 11.0632C9.71635 10.8882 9.85635 10.7594 9.88135 10.742L10.1126 10.5045C10.2851 10.5695 10.4514 10.6295 10.6276 10.6982L10.4401 10.8669V10.8682ZM9.2951 10.4457C9.1701 10.562 9.05385 10.667 8.93259 10.7657C8.62783 11.0176 8.30063 11.241 7.95508 11.4331C7.83883 11.4206 7.71758 11.4069 7.58008 11.4006H7.40633H7.37633C7.94307 11.0277 8.4558 10.5785 8.90009 10.0658C9.0901 10.1295 9.2751 10.1908 9.4726 10.2595L9.3026 10.442L9.2951 10.4457ZM6.47007 11.4044C6.26132 11.4044 6.03631 11.4169 5.78881 11.4281H5.68131C6.46971 10.9817 7.16825 10.3925 7.74133 9.6908C7.91758 9.74455 8.09259 9.79704 8.27384 9.85579C7.78271 10.4834 7.17223 11.0075 6.47757 11.3981L6.47007 11.4044ZM6.74882 12.2356C6.77382 12.2081 6.79882 12.1831 6.82257 12.1531L6.85132 12.1268L7.53883 12.0793L8.17384 12.0356L8.07634 12.1706C8.07634 12.1706 8.02383 12.2368 7.93758 12.3355C7.87258 12.4093 7.78508 12.5055 7.67258 12.6193C6.36739 13.9363 4.75725 14.9109 2.98503 15.4565L2.47753 15.4865C4.11397 14.7111 5.56983 13.6015 6.75132 12.2293L6.74882 12.2356ZM4.4313 15.8602C4.5988 15.8489 4.7488 15.8414 4.8913 15.8364C4.51123 16.7208 3.94999 17.5158 3.24378 18.17C3.04753 18.1862 2.84753 18.2075 2.64253 18.23C3.41797 17.5997 4.02022 16.7825 4.39255 15.8552H4.44255L4.4313 15.8602ZM4.23629 18.7512C4.4338 18.7424 4.62005 18.7412 4.79505 18.7512C5.06555 18.7593 5.33506 18.7877 5.60131 18.8362C5.67631 18.8499 5.74506 18.8674 5.81506 18.8836C6.157 18.929 6.48361 19.0536 6.7688 19.2476C7.05399 19.4417 7.28986 19.6997 7.45758 20.001C7.30508 20.001 7.15133 19.991 6.99507 19.9885L6.55757 19.9585C6.15756 19.1586 4.99005 18.9086 4.2763 18.8337H4.23254C3.91379 18.8012 3.69504 18.8012 3.69504 18.8012C3.88629 18.7837 4.07004 18.7712 4.23754 18.7637L4.23629 18.7512ZM7.10383 19.0549L6.98882 18.9936C6.78507 18.8924 6.63382 18.8349 6.63382 18.8349C6.75882 18.8424 6.86757 18.8574 6.97632 18.8749C7.17164 18.9065 7.3634 18.9571 7.54883 19.0261C7.66207 19.0687 7.77232 19.1188 7.87883 19.1761C7.98243 19.2339 8.08147 19.2995 8.17509 19.3723C8.42107 19.557 8.62301 19.7939 8.76634 20.066C8.53884 20.051 8.30759 20.036 8.07009 20.0235C7.98133 19.6011 7.48758 19.2624 7.10383 19.0549V19.0549ZM8.32259 20.6122C8.66509 20.6272 8.9951 20.6472 9.3076 20.6685C9.11925 21.2913 8.79379 21.864 8.35512 22.3446C7.91645 22.8252 7.3757 23.2014 6.77257 23.4457L5.98006 23.3857L6.32757 23.2107C7.29449 22.6237 8.00765 21.6971 8.32759 20.6122H8.32259ZM6.67632 24.0281C7.05882 24.0181 7.35258 24.0281 7.55133 24.0281L7.70008 24.0681C7.04417 25.3812 6.0689 26.5085 4.8638 27.3466C4.4288 27.3716 3.89504 27.4041 3.30378 27.4453C4.65594 26.5559 5.80585 25.3921 6.67882 24.0294L6.67632 24.0281ZM3.56379 27.7853L4.03879 27.7465C3.95354 28.0208 3.81385 28.2751 3.62806 28.4941C3.44228 28.7132 3.21422 28.8925 2.95753 29.0214L2.56003 29.0701C3.02532 28.7637 3.37675 28.3126 3.56004 27.7865L3.56379 27.7853ZM4.5963 27.7228L4.9713 27.684C4.90842 27.9441 4.79024 28.1876 4.62479 28.3979C4.45934 28.6081 4.25052 28.7803 4.01254 28.9027C4.01254 28.9027 3.70254 28.9689 3.63754 28.9727C4.08546 28.672 4.42264 28.233 4.59755 27.7228H4.5963ZM4.20004 29.4026L5.12255 29.2676C4.73071 30.1475 4.15785 30.9349 3.44129 31.5786L2.22627 31.6599C3.02946 31.048 3.7008 30.2802 4.20004 29.4026V29.4026ZM5.69006 29.1864L6.65382 29.0514C6.23529 29.9903 5.61066 30.8229 4.8263 31.4874C4.42505 31.5162 4.03504 31.5399 3.66254 31.5649C4.50958 30.9368 5.20322 30.1248 5.69131 29.1901L5.69006 29.1864ZM7.26133 28.9664L8.19759 28.8414H8.21759C7.74892 29.84 7.05538 30.7166 6.19132 31.4024L5.0963 31.4749C5.97845 30.7954 6.71475 29.9452 7.26133 28.9752V28.9664ZM8.83759 28.7702L9.1076 28.7402L9.82135 28.6789C9.36554 29.6956 8.67598 30.5902 7.80883 31.2899C7.37008 31.3199 6.91132 31.3512 6.44382 31.3799C7.4021 30.6723 8.21451 29.7861 8.83634 28.7702H8.83759ZM9.25135 23.6457L8.78134 23.5894C10.0282 23.0384 11.0708 22.1104 11.7626 20.9359C12.1501 20.9922 12.4764 21.0472 12.7214 21.0922L12.6739 21.1547C11.8095 22.3094 10.6166 23.1763 9.25135 23.6419V23.6457ZM13.1489 14.2066C12.9289 14.1779 12.7114 14.1404 12.4989 14.0941C13.2831 13.9063 14.0187 13.5549 14.6577 13.063C14.8377 12.928 14.9827 12.813 15.0864 12.7155L15.5577 12.9655C14.8575 13.5564 14.0341 13.9834 13.1476 14.2154L13.1489 14.2066ZM15.8702 8.05222C16.8227 8.69215 17.2514 10.0458 16.9602 10.312C16.7252 10.1333 16.4877 9.95703 16.2439 9.78954C16.1456 9.13019 15.9265 8.49462 15.5977 7.91473C15.6914 7.96222 15.7827 8.00597 15.8714 8.05222H15.8702ZM16.2452 10.8019C15.9926 10.9508 15.7159 11.0545 15.4277 11.1082C14.6624 11.2291 13.881 11.2011 13.1264 11.0257C12.8697 10.9124 12.598 10.7965 12.3114 10.6782C13.4191 10.7633 14.5327 10.63 15.5889 10.2857C15.8864 10.4995 16.0989 10.6732 16.2427 10.7982L16.2452 10.8019ZM14.7114 7.50227C15.0792 8.01201 15.3114 8.6068 15.3864 9.23085C15.1364 9.07836 14.8864 8.92838 14.6364 8.78464C14.5234 8.21217 14.295 7.66869 13.9651 7.1873C14.2277 7.29354 14.4739 7.39853 14.7152 7.50352L14.7114 7.50227ZM14.1552 9.37709C14.4577 9.54374 14.7281 9.7058 14.9664 9.86329C13.968 10.2794 12.8955 10.4882 11.8139 10.477C11.4805 10.3445 11.1285 10.2108 10.7576 10.0758C11.926 10.0723 13.0818 9.83433 14.1564 9.37584L14.1552 9.37709ZM12.4776 8.51967C12.846 8.68632 13.1864 8.85297 13.4989 9.01962C12.5072 9.51824 11.4297 9.82364 10.3239 9.91953C10.0239 9.81329 9.7101 9.7083 9.39135 9.60331C10.4913 9.49088 11.5489 9.11952 12.4776 8.51967V8.51967ZM11.7926 8.21845C10.9255 8.83354 9.93377 9.25043 8.88759 9.43958C8.47592 9.30876 8.04842 9.18127 7.60508 9.05712C8.73004 8.87067 9.80053 8.44022 10.7414 7.79599C11.1101 7.93723 11.4614 8.07846 11.7914 8.21845H11.7926ZM8.82634 7.13606C9.2401 7.26104 9.6351 7.39603 10.0101 7.52852C9.16556 8.19983 8.18423 8.67807 7.13508 8.92963C6.75924 8.82797 6.37298 8.72715 5.97631 8.62716C7.02073 8.33632 7.99193 7.8282 8.82634 7.13606V7.13606ZM1.42752 11.0519C2.63567 10.6445 3.73338 9.9635 4.63505 9.06212C4.92755 9.10961 5.22631 9.16211 5.52881 9.2171C4.77955 10.146 3.78286 10.844 2.65378 11.2307C2.25627 11.1807 1.84252 11.1219 1.42377 11.0544L1.42752 11.0519ZM3.67754 11.3456C4.7256 10.9093 5.65988 10.2389 6.40882 9.38583C6.63257 9.43333 6.85757 9.48083 7.08382 9.53332C6.46629 10.3592 5.64906 11.0146 4.7088 11.4381C4.3888 11.4144 4.04004 11.3831 3.67379 11.3456H3.67754ZM0.751258 15.6677L0.200002 15.7177C1.92028 14.8216 3.44459 13.5915 4.6838 12.0993L4.69505 12.0856L4.7163 12.0606L5.44506 12.0018L6.24132 11.9368L6.14756 12.0731C4.72195 13.7541 2.85185 14.9998 0.751258 15.6677V15.6677ZM2.62628 16.2164L2.65003 16.1377C2.87753 16.0939 3.09503 16.0527 3.29753 16.0127C2.8715 16.9263 2.25224 17.7365 1.48252 18.3874C1.32626 18.4149 1.17251 18.4399 1.01251 18.4712C1.72317 17.8596 2.27659 17.0863 2.62628 16.2164V16.2164ZM1.42627 19.0911C4.99505 18.5912 5.78756 19.9548 5.80131 19.9835C5.50714 19.9894 5.20922 19.9994 4.90755 20.0135H4.8188C3.92504 19.1049 1.42627 19.0911 1.42627 19.0911V19.0911ZM2.47753 23.4657L1.72752 23.5269L1.96877 23.312C2.70228 22.5862 3.23949 21.6861 3.53004 20.696C3.86004 20.6697 4.18254 20.6497 4.50255 20.6335C4.3613 21.0184 3.59254 22.972 2.48003 23.4644L2.47753 23.4657ZM3.26503 23.4282L3.55879 23.2007C4.32809 22.5012 4.88842 21.6022 5.17755 20.6035C5.51089 20.5901 5.83506 20.5822 6.15007 20.5797C5.7991 21.7275 5.04999 22.7123 4.03754 23.357L3.26503 23.4282ZM4.58255 23.3607L4.9188 23.1745C5.82794 22.562 6.48016 21.6368 6.75132 20.5747C7.09008 20.5747 7.42008 20.5747 7.73758 20.5897C7.57603 21.204 7.27882 21.7743 6.8678 22.2586C6.45679 22.7429 5.94243 23.1289 5.36256 23.3882L4.57255 23.357L4.58255 23.3607ZM4.60005 24.1631C5.0563 24.1194 5.46756 24.0881 5.83006 24.0669C5.1237 25.4099 4.12345 26.5762 2.90378 27.479C2.46878 27.5128 2.01252 27.5478 1.55502 27.5903C2.77208 26.6451 3.80399 25.4832 4.5988 24.1631H4.60005ZM0.868759 29.1626L0.361254 29.2126C0.843596 28.928 1.21909 28.4928 1.43002 27.974L1.93002 27.9303C1.84777 28.198 1.71073 28.4457 1.5276 28.6577C1.34447 28.8696 1.11925 29.0411 0.866259 29.1614L0.868759 29.1626ZM1.98502 29.0801L1.44877 29.1501C1.9492 28.8724 2.32773 28.4177 2.51003 27.8753L2.99503 27.8215C2.81739 28.3459 2.45774 28.7893 1.98127 29.0714L1.98502 29.0801ZM0.758758 31.7499C0.718758 31.7499 0.665007 31.7499 0.612506 31.7499C1.46219 31.2181 2.171 30.4892 2.67878 29.6251L3.63754 29.4814C3.26282 30.3248 2.70368 31.0736 2.00127 31.6724C1.37626 31.7136 0.92376 31.7411 0.757508 31.7511L0.758758 31.7499ZM0.308753 34.3334C1.04126 33.9054 1.69768 33.3589 2.25127 32.716C2.61253 32.661 2.98503 32.6035 3.36504 32.5435C2.78203 33.3414 2.04764 34.0167 1.20376 34.5309C0.896259 34.4721 0.597506 34.4059 0.308753 34.3346V34.3334ZM1.42377 34.5708C2.41447 34.0269 3.29564 33.3039 4.02254 32.4386C4.31255 32.3923 4.6038 32.3461 4.89755 32.3011C4.90254 32.3017 4.90757 32.3017 4.91255 32.3011L4.99505 32.2898C4.27866 33.2632 3.38461 34.0923 2.36002 34.7333C2.05002 34.6858 1.73502 34.6333 1.42627 34.5746L1.42377 34.5708ZM2.56503 34.7596C3.78067 34.1271 4.84934 33.2455 5.70131 32.1723L6.82632 31.9961C6.07609 33.1743 5.07894 34.1756 3.90379 34.9308C3.49504 34.8846 3.04128 34.8271 2.56878 34.7608L2.56503 34.7596ZM4.49255 34.9946L4.11754 34.9558C5.48927 34.2074 6.6702 33.1532 7.56883 31.8749L8.48509 31.7299C7.77491 33.0373 6.75249 34.149 5.50881 34.9658C5.1738 34.9758 4.8388 34.9883 4.4938 34.9908L4.49255 34.9946ZM2.11752 37.8743L2.30252 37.8293C3.15563 37.4516 3.92932 36.9155 4.58255 36.2494C4.95755 36.1432 5.34631 36.0345 5.72881 35.9307C5.25773 36.6882 4.64535 37.348 3.92504 37.8743L4.09379 37.883C3.4358 37.928 2.77551 37.928 2.11752 37.883V37.8743ZM5.56006 37.7493C5.0813 37.8005 4.5913 37.843 4.10629 37.8743C5.01888 37.3177 5.81244 36.5863 6.44132 35.722C6.73882 35.642 7.02757 35.5608 7.30508 35.4833C6.84775 36.3284 6.25678 37.094 5.55506 37.7505L5.56006 37.7493ZM5.88381 37.7143C6.76884 37.0558 7.51093 36.2245 8.06509 35.2708L8.52384 35.1458L8.95509 35.1195C8.51713 36.0408 7.907 36.8698 7.15758 37.5618C6.75632 37.6168 6.32882 37.6693 5.88381 37.7205V37.7143ZM8.75134 37.3618L8.36634 37.4093C8.08759 37.4418 7.77008 37.4831 7.43133 37.5268C8.31346 36.8634 9.05277 36.0289 9.6051 35.0733C9.89385 35.0496 10.1901 35.0233 10.4964 34.9933C10.0655 35.8835 9.47393 36.6865 8.75134 37.3618V37.3618ZM9.22635 39.5979L9.1251 39.6154L8.80134 39.6741L8.69134 39.6941L8.70884 39.6741C9.14419 39.1555 9.46572 38.5513 9.6526 37.9005L10.4951 37.7368C10.3633 38.218 10.1521 38.6738 9.8701 39.0854C9.77664 39.2162 9.67163 39.3383 9.55635 39.4504C9.5376 39.4691 9.5201 39.4904 9.5001 39.5079C9.4801 39.5254 9.4676 39.5429 9.4501 39.5591L9.3151 39.5829L9.22635 39.5979ZM7.50133 43.6662C8.46788 43.0108 9.22517 42.0909 9.6826 41.0165L10.7351 40.5965C10.1579 41.7781 9.34543 42.8295 8.34759 43.6862C8.06537 43.695 7.78288 43.6887 7.50133 43.6675V43.6662ZM9.72885 43.5587C9.3601 43.6137 8.97884 43.6562 8.60384 43.6762C9.72211 42.8161 10.6126 41.6952 11.1976 40.4115L12.2176 40.0028C11.6434 41.3471 10.7973 42.5582 9.7326 43.56L9.72885 43.5587ZM11.1264 43.255L11.0639 43.275C10.7067 43.3782 10.344 43.4617 9.97761 43.525C11.1666 42.5475 12.0796 41.2765 12.6264 39.8378L13.6414 39.4316C13.0744 40.8633 12.2182 42.1627 11.1264 43.2487V43.255ZM16.3514 46.9609L17.1289 46.2834C17.1427 47.8421 16.8257 49.3859 16.1989 50.813C15.9048 50.9896 15.6131 51.1588 15.3239 51.3204C16.0298 49.978 16.3838 48.4785 16.3527 46.9621L16.3514 46.9609ZM15.0777 51.4604C14.8377 51.5896 14.6035 51.7117 14.3752 51.8266C14.8039 50.9027 15.076 49.9139 15.1802 48.9007C15.2145 48.5823 15.2316 48.2623 15.2314 47.942L15.9814 47.2858C15.9963 48.7273 15.6879 50.1538 15.0789 51.4604H15.0777ZM17.5289 45.931L18.1852 45.3573C18.2249 47.0024 17.9098 48.6368 17.2614 50.1493C17.0006 50.316 16.7373 50.4826 16.4714 50.6493C17.1806 49.1786 17.5428 47.5649 17.5302 45.9322L17.5289 45.931ZM18.5852 45.0098C18.7439 44.8736 18.8965 44.7398 19.0377 44.6174C19.2408 46.2249 19.0384 47.8576 18.4489 49.3669C18.1606 49.5652 17.8635 49.7639 17.5577 49.9631C18.3337 48.4333 18.6883 46.7245 18.5852 45.0123V45.0098ZM18.4339 44.3274C18.1202 44.5599 17.7852 44.7973 17.4339 45.0386C17.7871 44.2071 17.9813 43.3168 18.0064 42.4138C18.2378 42.4581 18.4723 42.4836 18.7077 42.4901C18.7009 43.112 18.6075 43.73 18.4302 44.3261L18.4339 44.3274ZM16.9764 45.3585C16.6264 45.5948 16.2577 45.8347 15.8764 46.0722C16.591 44.8997 16.9565 43.5479 16.9302 42.1751L17.0789 42.0764C17.2111 42.1529 17.3495 42.2182 17.4927 42.2713C17.5133 43.3231 17.3382 44.3695 16.9764 45.3573V45.3585ZM15.5052 46.3034C15.2227 46.4784 14.9327 46.6497 14.6302 46.8234C15.331 45.6682 15.7063 44.3449 15.7164 42.9938L16.4664 42.4938C16.504 43.8301 16.1713 45.1507 15.5052 46.3097V46.3034ZM15.5339 40.0291C15.1992 40.7618 14.7797 41.4527 14.2839 42.0876C13.9201 42.2276 13.5476 42.3713 13.1864 42.5076C14.2309 41.4745 14.9997 40.196 15.4227 38.7892C15.4018 39.205 15.4379 39.6218 15.5302 40.0278L15.5339 40.0291ZM13.2089 42.9038C13.2939 42.8688 13.3789 42.8338 13.4676 42.8038C13.7 42.7242 13.9377 42.6612 14.1789 42.6151C14.4363 42.565 14.6963 42.5291 14.9577 42.5076C15.1877 42.4888 15.3677 42.4838 15.4577 42.4826H15.5302L14.9052 42.8838L14.7377 42.99L14.6864 43.0225C14.2701 42.9295 13.8392 42.9227 13.4201 43.0025C13.0901 43.0438 12.8326 43.095 12.8326 43.095C12.9533 43.0232 13.0786 42.9593 13.2076 42.9038H13.2089ZM14.5664 43.7787C14.8277 43.5975 15.0739 43.43 15.3039 43.2787C15.3061 44.5971 14.9547 45.8919 14.2864 47.0284C13.9526 47.2171 13.6101 47.4033 13.2589 47.5908C14.0605 46.4799 14.515 45.1564 14.5652 43.7874L14.5664 43.7787ZM12.8551 47.7908C12.6001 47.9199 12.3551 48.0404 12.1201 48.152C12.7883 47.12 13.1709 45.9292 13.2289 44.7011L14.1139 44.0887C14.0603 45.4183 13.6231 46.704 12.8551 47.7908V47.7908ZM14.7077 41.9164C15.1014 41.4844 15.4298 40.9972 15.6827 40.4703C15.7435 40.6175 15.8211 40.7571 15.9139 40.8865C16.0252 41.0415 16.1352 41.1827 16.2452 41.3152L14.7077 41.9164ZM15.3014 36.7006L14.7139 36.7631L14.5502 36.7806L14.2664 36.8106C14.3822 36.6879 14.4907 36.5586 14.5914 36.4232C14.7817 36.1706 14.9389 35.8946 15.0589 35.602C15.1161 35.4672 15.1609 35.3275 15.1927 35.1845C15.307 35.1711 15.4202 35.1494 15.5314 35.1195C15.9249 35.0396 16.2759 34.8193 16.5189 34.4996C16.5189 34.4996 16.5002 34.6408 16.4502 34.8483C16.3226 35.5963 15.9105 36.2659 15.3002 36.7169L15.3014 36.7006ZM15.0702 38.8529C14.5497 40.2542 13.7694 41.5446 12.7701 42.6563C12.2539 42.8525 11.7939 43.0213 11.4526 43.1388C12.6435 42.0803 13.5546 40.7442 14.1051 39.2491L15.0689 38.8642L15.0702 38.8529ZM11.2939 44.1237C11.4676 43.9987 11.6439 43.8737 11.8264 43.7487C12.5062 43.539 13.2231 43.4768 13.9289 43.5662C13.7376 43.7037 13.5539 43.8362 13.3689 43.9674C13.0328 43.9368 12.6944 43.9398 12.3589 43.9762C11.9237 44.021 11.4963 44.1226 11.0876 44.2786L11.2939 44.1274V44.1237ZM9.37635 45.6435L9.3876 45.6323C9.62885 45.4235 9.89635 45.2011 10.1864 44.9673C10.8943 44.6924 11.6566 44.5867 12.4126 44.6586C12.1789 44.8323 11.9601 44.9948 11.7476 45.1586L11.7201 45.1798C10.9102 45.1238 10.1001 45.2856 9.37385 45.6485L9.37635 45.6435ZM10.8989 48.6895C11.5471 47.7841 11.9137 46.7076 11.9526 45.5948L12.7714 45.0236C12.7098 46.2026 12.3475 47.3463 11.7189 48.3457C11.4289 48.4707 11.1589 48.5882 10.8989 48.6907V48.6895ZM11.8301 49.2294C11.8776 49.1794 11.9264 49.1307 11.9751 49.0807C12.1114 48.9432 12.2539 48.8094 12.4014 48.6795C12.9138 48.398 13.5044 48.2921 14.0827 48.3782L13.5989 48.8407L13.5651 48.8732C12.9654 48.8354 12.3664 48.9583 11.8301 49.2294V49.2294ZM10.3426 52.1916C10.7276 51.8654 11.2301 51.4329 11.8101 50.9292C11.8559 51.5434 11.7166 52.1573 11.4101 52.6916C11.2033 52.7134 10.9945 52.6783 10.8062 52.5902C10.6179 52.5021 10.4571 52.3643 10.3414 52.1916H10.3426ZM11.5926 52.6916C11.995 52.0934 12.1831 51.3767 12.1264 50.658L12.7514 50.1106C12.8152 50.9696 12.6564 51.8306 12.2901 52.6103C12.0618 52.6555 11.8302 52.6822 11.5976 52.6903L11.5926 52.6916ZM12.4676 52.5666C12.9609 51.7445 13.1716 50.7836 13.0676 49.8306C13.3014 49.6256 13.5414 49.4144 13.7851 49.2057C13.8635 50.2719 13.6923 51.3418 13.2851 52.3303C13.0202 52.4285 12.7492 52.5094 12.4739 52.5728L12.4676 52.5666ZM13.5301 52.2191C13.9917 51.1761 14.1975 50.038 14.1302 48.8994C14.3802 48.6845 14.6272 48.4682 14.8714 48.2508C14.8623 48.724 14.8268 49.1963 14.7652 49.6656C14.6736 50.4504 14.4628 51.2167 14.1402 51.9379C13.9289 52.0416 13.7226 52.1354 13.5251 52.2204L13.5301 52.2191ZM14.0977 53.0703C14.0977 53.0603 14.1076 53.0528 14.1126 53.0453L14.1451 53.029L14.0977 53.0703ZM14.2977 52.7441C14.4039 52.5816 14.5064 52.4303 14.6039 52.2979L14.6977 52.1729C15.2834 51.7997 15.9852 51.653 16.6714 51.7604C16.6747 51.7594 16.6782 51.7594 16.6814 51.7604L16.3539 52.1354C15.6172 52.0735 14.8839 52.2887 14.2977 52.7391V52.7441ZM15.3939 56.1275C15.1572 56.1958 14.9168 56.2505 14.6739 56.2912C14.9727 55.6988 15.091 55.0317 15.0139 54.3726L15.5139 53.8727C15.6381 54.6248 15.5981 55.3948 15.3964 56.13L15.3939 56.1275ZM15.5939 56.0625C15.9111 55.2454 16.0123 54.3603 15.8877 53.4927C16.0764 53.3065 16.2627 53.1178 16.4652 52.9165C16.585 53.8904 16.5141 54.8782 16.2564 55.825C16.0427 55.9112 15.8202 55.9925 15.5927 56.0637L15.5939 56.0625ZM17.3589 54.6226C17.3277 54.8651 17.2839 55.1226 17.2339 55.3888C17.0164 55.4988 16.7689 55.6163 16.5014 55.7325C16.8668 54.7205 16.9792 53.6345 16.8289 52.5691L17.3164 52.0829C17.4689 52.9218 17.485 53.7798 17.3639 54.6239L17.3589 54.6226ZM17.6352 55.1513L17.5339 55.2288L17.4502 55.2738C17.4739 55.1851 17.5239 54.9788 17.5752 54.7039L17.5839 54.6564C17.5989 54.5789 17.6139 54.4976 17.6264 54.4064C17.6439 54.2952 17.6614 54.1789 17.6777 54.0539C17.7822 53.2802 17.7792 52.4958 17.6689 51.7229C17.8627 51.5304 18.0564 51.3367 18.2514 51.1455C18.4507 52.3712 18.4027 53.6244 18.1102 54.8314L17.6339 55.1488L17.6352 55.1513ZM19.0577 54.2077L18.2714 54.7314L18.3477 54.6551C18.729 53.4129 18.8117 52.0982 18.5889 50.818L19.1552 50.2618C19.374 51.5709 19.3409 52.9097 19.0577 54.2064V54.2077ZM20.4327 52.9578C20.6829 51.6703 20.6629 50.345 20.374 49.0657C20.5802 48.8657 20.7752 48.6782 20.959 48.5032C21.2432 49.759 21.2636 51.06 21.019 52.3241C20.8202 52.5353 20.6252 52.7478 20.4315 52.9565L20.4327 52.9578ZM21.9027 52.2079C22.0349 53.4603 22.008 54.7243 21.8227 55.97L21.104 56.6487C21.3188 55.3719 21.4026 54.0766 21.354 52.7828C21.5427 52.5866 21.729 52.3941 21.909 52.2066L21.9027 52.2079ZM20.8902 43.9899C21.2762 44.791 21.3962 45.6944 21.2327 46.5684C21.2115 46.6722 21.1852 46.7771 21.1602 46.8821L20.2852 47.8158C20.7882 46.6067 20.9973 45.2955 20.8952 43.9899H20.8902ZM20.044 53.3815L19.3152 54.0227C19.707 52.6829 19.7747 51.2692 19.5127 49.8981L19.9765 49.4456C20.3117 50.7322 20.3352 52.0802 20.0452 53.3777L20.044 53.3815ZM19.7027 43.3462C19.4527 43.5487 19.1752 43.7624 18.8877 43.9812C19.0643 43.498 19.1765 42.9937 19.2215 42.4813C19.4047 42.4665 19.587 42.4423 19.7677 42.4088C19.7121 42.6465 19.6836 42.8897 19.6827 43.1338C19.682 43.2059 19.6887 43.2779 19.7027 43.3487V43.3462ZM17.6402 39.2216C17.5926 38.8057 17.6516 38.3846 17.8117 37.9978C17.9718 37.611 18.2276 37.2713 18.5552 37.0106C17.5552 39.5104 19.5302 40.3415 19.5302 40.3415C19.1827 40.4382 18.813 40.4186 18.4777 40.2857C18.1423 40.1527 17.8596 39.9138 17.6727 39.6054C17.6327 39.9035 17.6742 40.2069 17.7928 40.4833C17.9115 40.7597 18.1028 40.9988 18.3464 41.1752C14.4364 40.6203 16.3864 37.1393 16.5427 36.8706H16.5527C16.4589 37.3273 16.5139 37.8019 16.7096 38.225C16.9053 38.6481 17.2314 38.9974 17.6402 39.2216V39.2216ZM16.9939 32.7223C16.9264 33.2027 16.7205 33.653 16.4014 34.0184C16.249 34.1867 16.0715 34.3305 15.8752 34.4446C15.7698 34.5071 15.6579 34.5579 15.5414 34.5958C15.7617 34.3708 15.9467 34.1138 16.0902 33.8334C16.3046 33.3521 16.3985 32.8258 16.3637 32.3001C16.3288 31.7743 16.1663 31.265 15.8902 30.8162C15.6571 30.7523 15.4368 30.6487 15.2389 30.51C17.0164 33.6959 14.8852 34.6746 14.3539 34.8621C14.3239 34.8643 14.2939 34.8643 14.2639 34.8621V34.8896H14.2439H14.2639C14.1594 35.4688 13.9002 36.0091 13.5139 36.4532C13.1826 36.5419 12.8164 36.6294 12.4314 36.7131C12.9561 36.2107 13.4035 35.6332 13.7589 34.9996C13.8482 34.988 13.9364 34.9692 14.0226 34.9433C13.5816 34.9226 13.1509 34.8024 12.7628 34.5918C12.3746 34.3812 12.0392 34.0857 11.7814 33.7272C11.4487 33.2014 11.2408 32.6065 11.1734 31.988C11.106 31.3695 11.181 30.7438 11.3926 30.1588C11.3534 30.6271 11.4072 31.0986 11.5509 31.5461C11.6946 31.9935 11.9255 32.4081 12.2301 32.766C12.1051 32.4786 11.3951 29.7801 12.2164 29.1026C13.5689 27.9852 14.8227 29.9651 14.8227 29.9651C14.4676 29.2943 14.2794 28.5479 14.2739 27.789C15.0723 28.7518 16.1797 29.4082 17.4077 29.6463L16.8027 30.5675C17.0272 31.2683 17.0938 32.0102 16.9977 32.7398L16.9939 32.7223ZM27.2153 20.0373C27.0342 20.0785 26.8576 20.1371 26.6878 20.2123C25.8053 20.5872 25.1815 21.4196 24.3328 22.9195C24.2703 23.0295 24.2078 23.1282 24.1415 23.2257C23.9456 23.525 23.7035 23.7912 23.424 24.0144C23.1436 24.2444 22.8082 24.3974 22.4507 24.4583C22.0932 24.5193 21.726 24.486 21.3852 24.3619C23.7603 24.2369 24.1078 21.7671 25.229 20.7372C25.6605 20.3737 26.188 20.1428 26.7478 20.0723C26.9021 20.0481 27.0579 20.0344 27.214 20.031L27.2153 20.0373ZM18.5902 19.8673C20.5952 19.1036 20.2515 18.1575 20.2515 18.1575C20.854 18.6737 20.814 19.5823 19.1265 20.1685C17.8382 20.6927 16.7457 21.606 16.0014 22.7808C16.1973 22.1388 16.5298 21.5469 16.976 21.0455C17.4222 20.5441 17.9716 20.1452 18.5864 19.876L18.5902 19.8673ZM16.4652 24.3944C16.2779 25.4598 16.3326 26.5538 16.6252 27.5953C16.4001 27.3982 16.217 27.158 16.0867 26.8887C15.9563 26.6195 15.8815 26.3268 15.8666 26.0281C15.8516 25.7294 15.8969 25.4307 15.9998 25.1498C16.1026 24.8689 16.2609 24.6116 16.4652 24.3931V24.3944ZM17.2389 24.3294C16.972 25.63 17.1058 26.981 17.6227 28.204C15.6677 25.9117 17.2377 24.3419 17.2377 24.3419L17.2389 24.3294ZM18.2389 23.8832C17.801 25.7051 18.1002 27.6263 19.0715 29.2289C18.2636 28.6243 17.7245 27.7275 17.5696 26.7305C17.4148 25.7335 17.6563 24.7155 18.2427 23.8944L18.2389 23.8832ZM18.899 24.7693C18.8378 26.005 19.0447 27.2394 19.5052 28.3877C19.0297 27.9292 18.714 27.3301 18.6046 26.6787C18.4953 26.0273 18.598 25.358 18.8977 24.7693H18.899ZM19.8765 22.0008C20.134 20.8485 21.1265 21.4246 21.574 20.6885C21.5848 20.892 21.532 21.0939 21.4229 21.2661C21.3138 21.4383 21.1539 21.5724 20.9652 21.6496C21.2747 21.6106 21.571 21.5007 21.8311 21.3286C22.0913 21.1565 22.3083 20.9268 22.4652 20.6572C22.4652 20.6572 22.4015 21.7459 21.7927 22.0658C22.447 21.9407 23.0365 21.5894 23.4577 21.0734C24.1615 20.2085 24.4503 19.7611 25.669 19.8561C24.3553 20.241 24.2278 22.3558 22.7552 23.3482C21.4065 24.2544 19.4527 23.8894 19.8715 22.0008H19.8765ZM26.2765 23.8507C26.265 24.0263 26.2433 24.2012 26.2115 24.3744C26.1809 24.5575 26.125 24.7354 26.0453 24.9031C26.0378 24.9156 26.034 24.9331 26.0253 24.9468C25.9451 25.0797 25.8494 25.2026 25.7403 25.313C25.5515 25.5142 25.3215 25.7192 25.094 25.9267C24.8016 26.1629 24.5532 26.449 24.3603 26.7716C24.5224 26.1403 24.8168 25.5507 25.224 25.0418C25.2565 25.0068 25.2853 24.9655 25.3165 24.9306C25.4755 24.7332 25.6197 24.5243 25.7478 24.3056C25.8378 24.1531 25.9215 24.0044 25.9978 23.8669C26.129 23.6082 26.2228 23.3945 26.2628 23.2995L26.2878 23.2507C26.2878 23.2507 26.2878 23.2745 26.2878 23.3107C26.2878 23.4045 26.2878 23.6082 26.2778 23.8519L26.2765 23.8507ZM28.3128 20.8884C28.2884 21.0567 28.2189 21.2153 28.1115 21.3472C27.813 21.6757 27.42 21.9036 26.9865 21.9996L26.889 22.0308C26.724 22.0833 26.574 22.1371 26.439 22.1958C26.0358 22.3485 25.6815 22.6076 25.414 22.9457C25.3515 23.0291 25.2919 23.1149 25.2353 23.2032C25.0857 23.4523 24.9488 23.7089 24.8253 23.9719C24.7928 24.0381 24.7603 24.1056 24.7253 24.1756L24.649 24.3331C24.5419 24.5496 24.4199 24.7584 24.284 24.958C23.169 26.6229 21.6652 26.6491 21.3502 25.3268C21.5002 25.512 21.7026 25.6478 21.931 25.7162C22.1593 25.7847 22.403 25.7827 22.6302 25.7105C23.154 25.5517 23.6703 24.8268 24.1415 24.0444C24.3128 23.7607 24.4778 23.4694 24.6415 23.1957C24.8644 22.7738 25.1264 22.3738 25.424 22.0008C25.529 21.8884 25.6353 21.7834 25.7428 21.6871C25.8996 21.5469 26.0667 21.4186 26.2428 21.3034C26.3378 21.2409 26.4353 21.1784 26.534 21.1259C27.0841 20.8288 27.6848 20.6372 28.3053 20.561C28.3263 20.6693 28.3305 20.7801 28.3178 20.8897L28.3128 20.8884ZM32.5928 16.0577C30.5816 18.2387 27.654 16.5164 27.654 16.5164C28.4665 16.7774 29.3234 16.8716 30.1732 16.7932C31.0229 16.7148 31.8481 16.4655 32.5991 16.0602L32.5928 16.0577ZM19.5315 10.3145C19.6716 9.82487 19.9158 9.37127 20.2474 8.98471C20.5789 8.59815 20.9901 8.28775 21.4527 8.07471C22.3129 7.81405 23.2183 7.73697 24.1103 7.84849C23.9119 8.06713 23.7499 8.31608 23.6302 8.58591C24.116 8.20749 24.6563 7.90491 25.2328 7.6885C25.669 7.50626 26.0836 7.27612 26.469 7.00232H24.899C23.424 7.37728 22.2015 7.28479 21.2302 7.68975C20.752 7.95254 20.3464 8.3299 20.0499 8.788C19.7534 9.24609 19.5753 9.7706 19.5315 10.3145V10.3145ZM15.4314 27.6065C14.8885 26.6796 14.5657 25.6404 14.4879 24.5691C14.4101 23.4977 14.5793 22.4228 14.9827 21.4271C14.9827 21.4271 12.3901 24.1806 15.4314 27.6065V27.6065ZM41.8854 8.58591C41.1758 8.19552 40.5598 7.6551 40.0804 7.00232L39.7054 7.00232C39.886 7.46887 40.2093 7.86648 40.6292 8.13846C39.5995 7.99798 38.6198 7.60794 37.7754 7.00232L37.4366 7.00232C37.9848 7.61996 38.6801 8.0891 39.4581 8.36617C40.2361 8.64324 41.0715 8.71926 41.8867 8.58716L41.8854 8.58591ZM45.3442 9.19335C46.2239 9.3281 47.1238 9.19037 47.9229 8.79869C48.7219 8.40701 49.382 7.78013 49.8143 7.00232H49.093C48.4588 7.49113 47.6806 7.75623 46.8799 7.75623C46.0791 7.75623 45.3009 7.49113 44.6667 7.00232L44.308 7.00232C44.7933 7.53154 45.4017 7.93294 46.0792 8.17095C45.1046 8.10361 44.1865 7.68896 43.4917 7.00232L43.1992 7.00232C43.5539 7.58509 44.0214 8.09118 44.5742 8.49092C43.6848 8.20286 42.8848 7.69012 42.2517 7.00232L42.0017 7.00232C42.3597 7.59597 42.8469 8.10134 43.4271 8.48087C44.0073 8.86041 44.6656 9.10436 45.353 9.1946L45.3442 9.19335ZM24.9765 8.97088C24.5826 9.06349 24.223 9.26608 23.9398 9.55506C23.6565 9.84405 23.4612 10.2075 23.3765 10.6032C23.7095 10.0401 24.2467 9.62693 24.8765 9.44958C25.3024 9.34504 25.7045 9.16054 26.0615 8.90588C25.8191 9.54767 25.353 10.0803 24.749 10.4057C24.3816 10.5707 24.0574 10.8185 23.8017 11.1297C23.546 11.4408 23.3658 11.8069 23.2752 12.1993C23.6717 11.6104 24.2269 11.1458 24.8765 10.8594C25.4356 10.5499 25.9004 10.0949 26.2217 9.54252C26.5431 8.99019 26.7089 8.36118 26.7015 7.72225C26.2994 8.33857 25.683 8.78391 24.9715 8.97213L24.9765 8.97088ZM48.213 26.0317C48.8142 26.0869 49.4116 26.1783 50.0018 26.3054V25.9305C49.4051 25.9104 48.8077 25.943 48.2168 26.0279L48.213 26.0317ZM50.0018 49.2919V48.7482C48.8624 48.8045 47.7279 48.9348 46.6055 49.1382C47.734 49.2562 48.8685 49.3063 50.003 49.2882L50.0018 49.2919ZM50.0018 47.4833V46.9746C49.194 47.0071 48.3895 47.0965 47.5943 47.2421C48.3852 47.4123 49.1928 47.4932 50.0018 47.4833V47.4833ZM50.0018 48.3582V47.8583C49.1935 47.882 48.3884 47.9706 47.5943 48.1233C48.3854 48.2923 49.1929 48.3728 50.0018 48.3632V48.3582ZM47.363 24.0806C47.363 24.0806 48.448 24.1356 49.9993 24.3494V23.9881C49.1195 23.9654 48.2391 23.9963 47.363 24.0806V24.0806ZM50.0018 12.983V12.723C49.313 12.7155 48.5318 12.7405 47.6268 12.8167C47.6268 12.818 48.588 12.8405 50.0018 12.983ZM46.3567 15.0828C46.3567 15.0828 47.9118 15.119 50.0018 15.3765V15.0328C48.7872 14.9575 47.5688 14.9742 46.3567 15.0828ZM47.1917 13.9579C47.1917 13.9579 48.3555 13.9841 49.9993 14.1679V13.8679C49.0626 13.8403 48.125 13.8691 47.1917 13.9541V13.9579ZM48.868 35.522C49.2496 35.5801 49.6274 35.6611 49.9993 35.7645V35.492C49.6241 35.4718 49.2479 35.4818 48.8743 35.522H48.868ZM50.0018 22.477V22.3446C49.6968 22.3546 49.3768 22.3683 49.038 22.3946C49.038 22.3946 49.4055 22.4145 50.0018 22.477ZM50.0018 36.6007V36.3407C49.6328 36.3303 49.2636 36.3453 48.8968 36.3857C49.2686 36.436 49.6374 36.5061 50.0018 36.5957V36.6007ZM48.3205 29.4901C48.8908 29.5781 49.453 29.7118 50.0018 29.8901V29.4739C49.443 29.396 48.8758 29.3994 48.318 29.4839L48.3205 29.4901ZM48.3843 31.2149C48.9326 31.299 49.4734 31.426 50.0018 31.5949V31.2062C49.4624 31.1345 48.9159 31.1353 48.3768 31.2087L48.3843 31.2149ZM45.333 16.2164C45.333 16.2164 47.3768 16.2514 50.0018 16.5901V16.2264C48.4479 16.0807 46.8841 16.0748 45.3292 16.2089L45.333 16.2164ZM47.958 25.028C47.958 25.028 48.7918 25.0843 50.008 25.278V24.9743C49.4168 24.9605 48.7455 24.9743 47.958 25.0318V25.028ZM48.583 33.8022C49.0628 33.8768 49.5369 33.9846 50.0018 34.1246V33.7622C49.5258 33.7207 49.0466 33.7316 48.573 33.7947L48.583 33.8022ZM48.458 32.0798C48.9807 32.1602 49.4967 32.2792 50.0018 32.4361V32.0536C49.4843 31.9952 48.9616 32.0011 48.4455 32.0711L48.458 32.0798ZM48.6468 34.6646C49.1047 34.7341 49.5575 34.8348 50.0018 34.9658V34.6246C49.5469 34.5889 49.0896 34.5989 48.6368 34.6546L48.6468 34.6646ZM48.5218 32.9398C49.0225 33.0179 49.5171 33.1315 50.0018 33.2797V32.9048C49.5056 32.8526 49.0049 32.8601 48.5105 32.9273L48.5218 32.9398Z" fill="#000028" fill-opacity="0.55"/>
<path d="M50 7H100.001V56.9951H50V7Z" fill="url(#paint0_linear_6474_99866)"/>
<path d="M56.6328 43.665C57.3316 43.6537 57.3566 43.6537 57.9216 43.6412C58.3978 43.6275 58.7753 43.6275 58.9741 43.6275C59.759 43.5158 60.5572 43.7032 61.2104 44.1524C61.4084 44.3295 61.5665 44.5467 61.6743 44.7896C61.782 45.0324 61.8369 45.2954 61.8354 45.561C61.8491 45.9621 61.7246 46.3556 61.4827 46.6758C61.2408 46.996 60.8962 47.2233 60.5066 47.3196C60.9233 47.3611 61.3243 47.5008 61.6766 47.7271C61.9527 47.9235 62.1767 48.1842 62.3292 48.4867C62.4817 48.7893 62.558 49.1244 62.5516 49.4632C62.5518 49.9239 62.4191 50.3749 62.1695 50.7622C61.9199 51.1495 61.5639 51.4566 61.1441 51.6467C60.2701 51.9684 59.3348 52.0889 58.4078 51.9992H56.6328V43.6625V43.665ZM58.7653 47.2021C59.5916 47.2021 59.9203 47.1221 60.2378 46.8472C60.3954 46.7066 60.5197 46.5328 60.6017 46.3382C60.6836 46.1436 60.7212 45.9332 60.7116 45.7223C60.7271 45.4905 60.683 45.2586 60.5837 45.0486C60.4844 44.8386 60.3331 44.6575 60.1441 44.5224C59.7558 44.3215 59.3184 44.2349 58.8828 44.2724C58.5253 44.2724 58.3691 44.2724 57.6591 44.3249V47.1996H58.7666L58.7653 47.2021ZM58.8028 51.3267C59.5204 51.3984 60.2409 51.222 60.8441 50.8268C61.0313 50.6742 61.1817 50.4813 61.2841 50.2625C61.3865 50.0437 61.4382 49.8047 61.4354 49.5631C61.4461 49.2622 61.3682 48.9647 61.2113 48.7076C61.0544 48.4505 60.8254 48.2451 60.5528 48.117C59.9775 47.9042 59.3638 47.8148 58.7516 47.8546H57.6578V51.3155L58.8016 51.3267H58.8028ZM68.0529 43.66L71.2817 51.9992H70.1567L69.1729 49.3044H65.5479L64.4279 51.9992H63.3741L67.2492 43.6625L68.0529 43.66ZM67.4579 44.7411L65.8179 48.657H68.9204L67.4642 44.7499L67.4579 44.7411ZM73.408 43.66L79.0918 50.2843L78.9055 43.66H79.8281L79.8131 51.9592L79.3668 52.1154L73.3555 45.1711L73.5555 51.9992H72.6367V43.6625H73.413L73.408 43.66ZM83.6681 43.66V51.9992H82.6406V43.6625H83.6668L83.6681 43.66ZM89.2182 43.66L84.9431 47.3659L89.4169 51.9904H87.9719L83.7343 47.5321L87.8919 43.6575H89.2219L89.2182 43.66Z" fill="#000028" fill-opacity="0.55"/>
<path fill-rule="evenodd" clip-rule="evenodd" d="M57.0244 31.6499H59.8482L59.8444 31.6561L63.4245 40.364H61.4094L60.6594 38.3042H57.0919L56.2494 40.364H54.6406L58.3119 32.6348C58.3119 32.6348 56.7244 32.941 56.6981 32.6048C56.7144 32.4336 56.9319 31.7299 56.9319 31.7299L57.0244 31.6499ZM58.9307 33.7209L57.4732 37.3518H60.2707L58.9307 33.7209Z" fill="#000028" fill-opacity="0.55"/>
<path d="M66.8133 39.2493V32.0001H64.9808V40.3542H70.6884V39.2493H66.8133Z" fill="#000028" fill-opacity="0.55"/>
<path d="M73.9321 40.3605V31.9988H72.1009V40.3605H73.9321Z" fill="#000028" fill-opacity="0.55"/>
<path fill-rule="evenodd" clip-rule="evenodd" d="M80.576 40.528C83.5585 40.528 85.576 38.7494 85.576 36.1246V36.1284C85.5892 35.5318 85.4756 34.9392 85.2427 34.3897C85.0099 33.8402 84.663 33.3464 84.2252 32.9409C83.7874 32.5353 83.2684 32.2273 82.7027 32.0371C82.137 31.8469 81.5374 31.7789 80.9435 31.8376C79.7149 31.7994 78.5117 32.192 77.5422 32.9475C77.0297 33.3277 76.6161 33.8254 76.3359 34.3988C76.0557 34.9721 75.9173 35.6042 75.9322 36.2421C75.9231 36.8517 76.0459 37.4561 76.2923 38.0138C76.5387 38.5715 76.9028 39.0693 77.3597 39.4731C78.2714 40.1975 79.4123 40.5717 80.576 40.528ZM78.0059 37.33C77.8727 36.9244 77.8238 36.496 77.8622 36.0709L77.8559 36.0672C77.8095 35.6739 77.8453 35.2753 77.9612 34.8967C78.0771 34.518 78.2705 34.1677 78.5292 33.8678C78.7878 33.5679 79.106 33.3251 79.4635 33.1549C79.8211 32.9846 80.2101 32.8905 80.606 32.8787C81.0409 32.8885 81.469 32.9887 81.863 33.173C82.2571 33.3572 82.6085 33.6214 82.8949 33.9488C83.1813 34.2762 83.3965 34.6596 83.5266 35.0747C83.6568 35.4897 83.6991 35.9273 83.651 36.3596C83.6809 36.8271 83.6038 37.2952 83.4256 37.7284C83.2473 38.1616 82.9725 38.5484 82.6222 38.8594C82.1311 39.2603 81.5175 39.4809 80.8835 39.4843C80.4568 39.4707 80.0374 39.3701 79.6511 39.1887C79.2647 39.0072 78.9195 38.7488 78.6366 38.4291C78.3537 38.1095 78.1391 37.7355 78.0059 37.33Z" fill="#000028" fill-opacity="0.55"/>
<path fill-rule="evenodd" clip-rule="evenodd" d="M90.6923 31.9351C90.6923 31.9351 89.6498 31.9588 87.5535 31.9963L87.5485 32.0001V40.3617H89.3823V36.8408C89.5673 36.8558 89.6698 36.8558 89.8173 36.8558C90.0111 36.8558 90.1552 36.847 90.3125 36.8373C90.3682 36.8339 90.4255 36.8303 90.4873 36.8271C90.854 37.6393 91.2858 38.4205 91.7786 39.1631C92.0302 39.5813 92.3866 39.9265 92.8126 40.1648C93.2385 40.4031 93.7193 40.5261 94.2074 40.5217C94.8386 40.5217 95.1936 40.4292 95.2324 40.2567L95.3674 39.7305L95.3274 39.6655C94.2849 39.743 93.3261 38.9719 92.1661 36.5684C92.7283 36.477 93.2434 36.1993 93.6288 35.78C94.0142 35.3606 94.2475 34.8239 94.2911 34.2561C94.306 33.8782 94.2168 33.5034 94.0332 33.1728C93.8495 32.8422 93.5786 32.5684 93.2498 32.3813C92.4588 31.9871 91.5701 31.832 90.6923 31.9351ZM90.3473 35.9122C90.2436 35.9122 90.0848 35.9122 89.3885 35.8847V32.9475C89.9135 32.9337 89.9823 32.9337 90.3373 32.9337C90.7508 32.9021 91.1664 32.9514 91.5611 33.0787C91.818 33.1729 92.0364 33.3496 92.1821 33.5812C92.3278 33.8128 92.3925 34.0862 92.3661 34.3586C92.3661 35.4247 91.7348 35.9122 90.3473 35.9122Z" fill="#000028" fill-opacity="0.55"/>
<defs>
<linearGradient id="paint0_linear_6474_99866" x1="99.9995" y1="31.9996" x2="50" y2="32.0055" gradientUnits="userSpaceOnUse">
<stop stop-color="#000028" stop-opacity="0"/>
<stop offset="1" stop-color="#000028" stop-opacity="0.04"/>
</linearGradient>
</defs>
</svg>
