<svg width="156" height="64" viewBox="0 0 156 64" fill="none" xmlns="http://www.w3.org/2000/svg">
<rect width="156" height="64" fill="#000028" fill-opacity="0.02"/>
<path d="M37.5723 39.3386C37.645 39.2806 37.7299 39.216 37.8232 39.1449C38.4607 38.6595 39.4945 37.8724 39.7778 36.8251C39.8894 35.7583 37.0596 35.8263 36.5195 36.4178C36.5004 36.3271 36.4836 36.2317 36.4665 36.1346C36.3388 35.4081 36.1935 34.5813 34.9288 34.8884C34.9205 34.7968 34.9131 34.7091 34.906 34.6249C34.827 33.6868 34.7847 33.1845 33.9005 32.5506C36.3772 32.337 36.4709 31.3187 34.4813 29.0228C35.6469 28.7795 35.6251 28.6015 35.306 27.0175C36.5937 27.797 37.3776 27.5531 38.1548 26.2944C39.6757 28.693 41.0956 28.3995 40.5204 25.9016C41.4003 26.3541 41.9554 25.8771 42.2377 25.1964C42.7934 25.5412 43.319 25.1964 43.7988 24.5514C43.7988 25.1663 44.3355 26.2442 45.3426 26.2057C44.8271 26.9595 45.5061 27.4293 45.9876 27.4706C43.9734 29.9316 45.3108 30.8969 47.5359 28.8805C47.3261 30.2977 47.6664 30.6124 49.3413 30.5767C48.698 31.5642 48.2065 32.3571 48.9725 33.3457L48.8294 33.3954C47.4993 33.856 44.7192 34.8188 47.8834 36.0875C46.9121 36.3704 46.4295 37.234 46.5684 37.7317C45.3259 37.1024 44.6842 37.7847 44.85 38.9972C43.8685 39.1193 41.624 37.7646 40.9701 37.0203C40.7804 36.7966 40.5003 36.6967 40.3586 36.9188C40.0125 37.6689 39.7407 38.0865 39.4525 38.5293C39.2571 38.8296 39.0541 39.1414 38.8154 39.5763C38.5587 39.4597 38.2234 39.3754 37.5723 39.3386Z" fill="#000028" fill-opacity="0.55"/>
<path fill-rule="evenodd" clip-rule="evenodd" d="M41.6138 20C34.9616 20 29.5592 25.3685 29.5592 32.0036C29.5592 38.6331 34.9616 44 41.6138 44C48.2554 44 53.6406 38.6331 53.6406 32.0036C53.6406 25.3685 48.2554 20 41.6138 20ZM51.2409 32.0036C51.2409 37.3046 46.9214 41.6002 41.6138 41.6002C36.2912 41.6002 31.9717 37.3046 31.9717 32.0036C31.9717 26.697 36.2912 22.3947 41.6138 22.3947C46.9214 22.3947 51.2409 26.697 51.2409 32.0036Z" fill="#000028" fill-opacity="0.55"/>
<path d="M58.7348 22.2716L57.9185 24.0799H59.7614L61.2828 22.2716H58.7348Z" fill="#000028" fill-opacity="0.55"/>
<path d="M63.0026 24.8929C61.7411 24.658 60.478 24.4973 59.5088 24.4973C57.9254 24.4973 56.6656 24.7216 55.6914 25.2857C54.6916 25.8771 53.9942 27.1726 53.9942 27.8667C53.9942 28.5619 54.2593 29.2058 54.666 29.8474C55.0571 30.4355 55.4265 30.8433 55.8477 31.235C56.0931 31.4956 57.2106 32.3439 58.0966 33.0165C58.645 33.4327 59.1048 33.7818 59.2143 33.8825C59.9267 34.5408 60.3201 35.0927 60.3201 35.7684C60.3201 36.1645 60.0305 36.5567 59.5088 36.8491C59.0563 37.1085 58.3757 37.2636 57.5058 37.2636C56.087 37.2636 54.9533 36.9774 53.8224 36.1645L54.2721 38.9972C55.6914 39.3871 57.0841 39.6779 58.504 39.6779C59.5088 39.6779 60.7145 39.4954 61.4644 39.1801C62.2394 38.8532 62.872 38.4682 63.266 37.9231C63.7134 37.3646 64.0013 36.7168 64.0013 36.059C64.0013 35.2466 63.7134 34.432 63.0026 33.4925C62.9115 33.4008 62.8158 33.2922 62.7165 33.1796C62.5289 32.9667 62.3286 32.7394 62.1228 32.5847C61.9777 32.4795 61.6688 32.2461 61.3053 31.9715C60.5836 31.4263 59.6467 30.7185 59.3498 30.5281C58.928 30.2653 58.5832 29.9534 58.2139 29.6131C57.7943 29.0613 57.6392 28.6428 57.6392 28.2467C57.6392 27.8528 57.8228 27.4483 58.3467 27.1107C58.6223 26.9366 59.5088 26.7804 60.3201 26.7804C61.1871 26.7804 62.4447 26.9338 63.3932 27.354L63.0026 24.8929Z" fill="#000028" fill-opacity="0.55"/>
<path fill-rule="evenodd" clip-rule="evenodd" d="M23.8505 24.6163H18.1758V39.5095H24.3404C25.1103 39.5095 25.8267 39.471 26.4131 39.2345C27.0263 39.0168 27.5217 38.6715 27.8838 38.3512C28.2916 37.9908 28.5399 37.6521 28.7335 37.155C28.9427 36.6523 28.9796 35.8092 28.9545 35.2792C28.9154 34.6515 28.7732 34.16 28.4746 33.559C28.0952 32.803 26.6709 31.7602 25.6013 31.8116C26.5693 31.4679 27.284 30.5796 27.5033 30.0763C27.7393 29.5156 27.8866 28.8444 27.852 28.2028C27.8118 27.4635 27.7265 27.1259 27.385 26.4765C27.0485 25.8393 26.8209 25.6234 26.1715 25.2273C25.5159 24.8317 24.5758 24.6163 23.8505 24.6163ZM25.5773 36.7957C25.199 37.2247 24.3287 37.444 23.7791 37.444H20.9247V33.1155H23.7791C24.3644 33.1289 25.2258 33.3537 25.5773 33.7387C25.9176 34.1042 26.1129 34.6515 26.1017 35.2239C26.0873 35.8187 25.9293 36.3789 25.5773 36.7957ZM24.8157 30.1254C24.4793 30.5199 23.7691 30.814 23.3171 30.814H20.9108V26.7622H23.3171C23.8377 26.7622 24.4821 26.9759 24.8247 27.3067C25.1477 27.6231 25.3798 28.0499 25.382 28.5945C25.3954 29.2065 25.1405 29.7405 24.8157 30.1254Z" fill="#000028" fill-opacity="0.55"/>
<path fill-rule="evenodd" clip-rule="evenodd" d="M77.4933 33.2444H78.7744C80.6589 33.2444 81.1704 33.4149 81.1704 34.4424C81.1704 35.4699 80.8294 35.5574 79.4609 35.5574H77.4933V33.2444ZM77.4933 28.872H79.1155C80.4009 28.872 80.6589 29.2131 80.6589 29.8995C80.6589 30.586 80.2216 31.0101 79.2903 31.0101H77.4933V28.872ZM73.1211 25.96V38.5437H79.627C83.0505 38.5437 85.1054 37.6036 85.1885 34.8622C85.2022 34.197 84.9894 33.5469 84.585 33.0185C84.1807 32.4902 83.6087 32.115 82.963 31.9545C83.4762 31.6589 83.9039 31.2351 84.2043 30.7247C84.5047 30.2143 84.6675 29.6347 84.677 29.0426C84.677 26.9045 82.7925 25.877 79.4565 25.877L73.1211 25.96Z" fill="#000028" fill-opacity="0.55"/>
<path fill-rule="evenodd" clip-rule="evenodd" d="M94.6967 34.1887L95.9821 29.7377L97.3507 34.1887H94.6967ZM93.7567 25.8812L89.0478 38.4605H93.2407L93.7567 36.7509H98.0327L98.5487 38.4605H102.825L98.2032 25.8812H93.7567Z" fill="#000028" fill-opacity="0.55"/>
<path fill-rule="evenodd" clip-rule="evenodd" d="M106.334 25.8855V38.4648H110.444V34.5297L110.269 31.6177L114.978 38.4648H119V25.8855H114.89V29.9955L115.065 32.8157L110.356 25.8855H106.334Z" fill="#000028" fill-opacity="0.55"/>
<path fill-rule="evenodd" clip-rule="evenodd" d="M123.962 25.8855V38.4648H128.243V34.5297L129.27 33.5022L132.436 38.4648H137.569L132.265 30.6776L137.057 25.8855H132.095L128.243 29.9955V25.8855H123.962Z" fill="#000028" fill-opacity="0.55"/>
</svg>
