<svg width="172" height="64" viewBox="0 0 172 64" fill="none" xmlns="http://www.w3.org/2000/svg">
<rect width="172" height="64" fill="#000028" fill-opacity="0.02"/>
<g clip-path="url(#clip0_6474_99884)">
<path d="M65.227 39.9863V32.5001C65.227 29.7474 64.2481 28.5038 62.1969 28.5038C60.4212 28.5038 59.0291 29.6983 59.0291 32.5001V39.9863H57.1992V23.2394L59.0291 22.212V28.7496C59.762 27.6731 60.9573 26.921 62.5658 26.921C65.2762 26.921 67.052 28.5038 67.052 32.1855V39.9863H65.227Z" fill="#000028" fill-opacity="0.55"/>
<path d="M77.4024 39.9871V38.424C76.5022 39.4022 75.2331 40.2526 73.4032 40.2526C71.4012 40.2526 69.3008 39.2547 69.3008 36.158C69.3008 33.2825 71.6717 32.0634 74.205 32.0634C75.4987 32.0634 76.6448 32.378 77.4024 32.7958V31.2868C77.4024 29.3845 76.5022 28.4555 74.6231 28.4555C73.2802 28.4555 72.1833 28.8192 71.1306 29.4337L70.4518 27.9443C71.5734 27.3348 73.0835 26.9219 74.7412 26.9219C77.5007 26.9219 79.2322 28.0917 79.2322 31.0656V39.9871H77.4024ZM77.4024 34.2557C76.571 33.7937 75.6709 33.5282 74.1115 33.5282C72.2325 33.5282 71.106 34.4278 71.106 36.04C71.106 37.9374 72.1587 38.7681 73.718 38.7681C75.3757 38.7681 76.6202 37.9128 77.4024 36.8413V34.2557Z" fill="#000028" fill-opacity="0.55"/>
<path d="M90.3783 39.9871V32.5009C90.3783 29.7483 89.4044 28.5046 87.3532 28.5046C85.5725 28.5046 84.1853 29.6991 84.1853 32.5009V39.9871H82.3555V27.1873H84.1853V28.7504C84.9183 27.6739 86.1087 26.9219 87.7221 26.9219C90.4275 26.9219 92.2082 28.5046 92.2082 32.1863V39.9871H90.3783Z" fill="#000028" fill-opacity="0.55"/>
<path d="M102.957 39.9861V38.4229C102.056 39.4011 100.837 40.2515 99.105 40.2515C96.5422 40.2515 94.5156 38.305 94.5156 33.7926C94.5156 29.2605 96.6603 26.9208 99.3461 26.9208C100.955 26.9208 102.056 27.604 102.957 28.6265V23.2391L104.786 22.2118V39.9861H102.957ZM102.957 30.4304C102.248 29.3539 101.004 28.5036 99.4936 28.5036C97.3686 28.5036 96.3209 30.3321 96.3209 33.768C96.3209 36.9876 97.5408 38.6687 99.5674 38.6687C100.935 38.6687 102.056 37.9363 102.957 36.8156V30.4304Z" fill="#000028" fill-opacity="0.55"/>
<path d="M108.359 39.9861V23.2391L110.189 22.2118V39.9861H108.359Z" fill="#000028" fill-opacity="0.55"/>
<path d="M118.456 40.2535C115.337 40.2535 112.941 37.9383 112.941 33.6029C112.941 29.2625 115.43 26.9178 118.554 26.9178C121.678 26.9178 124.068 29.1642 124.068 33.5046C124.068 37.8449 121.579 40.2535 118.456 40.2535V40.2535ZM118.505 28.5055C116.286 28.5055 114.796 30.1866 114.796 33.5537C114.796 36.9159 116.286 38.6707 118.505 38.6707C120.728 38.6707 122.238 36.9159 122.238 33.5537C122.238 30.1866 120.728 28.5055 118.505 28.5055" fill="#000028" fill-opacity="0.55"/>
<path d="M137.207 39.9885H135.525L133.208 31.4061C133.085 30.9686 132.888 30.0691 132.815 29.6021C132.741 30.0691 132.549 30.9686 132.426 31.4061L130.109 39.9885H128.471L125.082 27.1886H126.961L128.963 35.6481C129.061 36.0856 129.229 36.99 129.327 37.4521C129.425 36.99 129.622 36.0856 129.74 35.6481L132.033 27.1886H133.695L135.987 35.6481C136.11 36.0856 136.302 36.99 136.401 37.4521C136.499 36.99 136.671 36.0856 136.77 35.6481L138.767 27.1886H140.597L137.207 39.9885Z" fill="#000028" fill-opacity="0.55"/>
<path d="M146.63 44.5008H144.795L146.556 39.841L141.996 27.1886H143.919L147.043 36.4788L147.486 37.7962L147.923 36.5034L151.072 27.1886H153L146.63 44.5008Z" fill="#000028" fill-opacity="0.55"/>
<path d="M50.7755 25.0938C48.5866 21.8103 44.5382 19.5 40.2144 19.5C35.9595 19.5 31.9161 21.7464 29.6484 25.0938H32.6736C34.7347 22.9752 37.4057 21.8201 40.2144 21.8201C42.974 21.8201 45.6942 22.9752 47.7552 25.0938H50.7755Z" fill="#000028" fill-opacity="0.55"/>
<path d="M28.3983 36.2157L28.3392 36.2698C27.4144 37.2185 26.3372 37.7199 25.2304 37.7199C22.9185 37.7199 21.2411 35.9847 21.2411 33.5958C21.2411 31.2069 22.9185 29.4668 25.2304 29.4668C26.3372 29.4668 27.4144 29.9731 28.3392 30.9169L28.3983 30.9759L29.8887 29.1818L29.8494 29.1326C28.6148 27.6678 27.1292 26.96 25.3043 26.96C23.4695 26.96 21.797 27.5744 20.587 28.6804C19.2785 29.8945 18.5898 31.5854 18.5898 33.5958C18.5898 35.6013 19.2785 37.3021 20.587 38.5064C21.797 39.6172 23.4695 40.2317 25.3043 40.2317C27.1292 40.2317 28.6148 39.5189 29.8494 38.0591L29.8887 38.0099L28.3983 36.2157Z" fill="#000028" fill-opacity="0.55"/>
<path d="M31.3945 39.9874H34.0213V27.1826H31.3945V39.9874Z" fill="#000028" fill-opacity="0.55"/>
<path d="M44.3174 37.1996C43.614 37.6223 42.9598 37.8435 42.3744 37.8435C41.5234 37.8435 41.1447 37.3962 41.1447 36.3935V29.5954H43.8157V27.1819H41.1447V23.1906L38.5622 24.5669V27.1819H36.3438V29.5954H38.5622V36.8309C38.5622 38.802 39.7379 40.1489 41.4792 40.1833C42.6647 40.2029 43.3779 39.8539 43.8108 39.5934L43.8353 39.5738L44.4699 37.1062L44.3174 37.1996Z" fill="#000028" fill-opacity="0.55"/>
<path d="M46.4961 39.9874H49.1228V27.1826H46.4961V39.9874Z" fill="#000028" fill-opacity="0.55"/>
</g>
<defs>
<clipPath id="clip0_6474_99884">
<rect width="134.406" height="25" fill="white" transform="translate(18.5898 19.5)"/>
</clipPath>
</defs>
</svg>
