<svg width="198" height="64" viewBox="0 0 198 64" fill="none" xmlns="http://www.w3.org/2000/svg">
<rect width="198" height="64" fill="#000028" fill-opacity="0.02"/>
<path fill-rule="evenodd" clip-rule="evenodd" d="M62.5403 35.8093V39.6297C61.4515 40.4712 58.8208 41.437 55.9221 41.437C51.479 41.437 47.2144 38.4633 47.2144 33.2848C47.2144 28.2345 51.5437 25.0083 55.8587 25.0083C58.5619 25.0083 59.9782 25.9055 60.9388 25.9055C61.4515 25.9055 61.7738 25.3268 61.836 25.1352H62.2192C62.2192 26.9386 62.4121 29.076 62.605 30.1764L62.1571 30.2411C61.2599 27.393 58.3042 26.0336 56.0516 26.0971C52.3813 26.1618 50.385 29.3996 50.385 33.0259C50.385 36.9732 52.5742 40.2783 56.181 40.2783C57.4679 40.2783 59.2066 39.9521 59.7866 39.2413V35.808C59.7866 33.8687 58.7548 33.4142 57.9819 33.4142V32.9624H64.3981V33.4142C63.6303 33.4155 62.5403 33.87 62.5403 35.8093ZM42.4411 30.113V41.5004H41.8055L30.84 28.2345C30.9034 28.4274 30.9681 28.7523 30.9681 29.2715V37.2981C30.9681 40.0841 31.6142 40.8583 33.0305 40.8583V41.3088H27.5451V40.8583C29.034 40.8583 29.6813 40.0841 29.6813 37.2981V27.6519C29.6813 26.2926 28.5161 25.5844 27.1568 25.5844V25.1352H31.8705L41.2307 36.2624C41.1685 35.8067 41.1685 35.6785 41.1685 35.2914V30.1117C41.1685 28.1698 41.1685 25.5844 39.1657 25.5844V25.1352H44.3546V25.5844C42.379 25.5857 42.4411 28.1698 42.4411 30.113ZM22.3809 27.9121V38.1409C22.3809 39.0484 22.188 40.8596 24.1817 40.8596V41.3101H17.8095V40.8596C19.8058 40.8596 19.6142 39.0497 19.6142 38.1409V27.9121C19.6142 25.9702 18.519 25.5857 17.7461 25.5857V25.1365H24.3099V25.5857C23.4748 25.5857 22.3809 25.9702 22.3809 27.9121ZM135.687 34.9121H130.92L133.239 28.7148C133.302 29.0384 133.494 29.4942 133.623 29.8191L135.687 34.9121ZM161.221 25.6051V25.1559H155.992V25.6051C157.995 25.6051 157.995 28.1944 157.995 30.1428V35.3018C157.995 35.6941 157.995 35.8261 158.058 36.2805L148.699 25.1546H143.996V25.6038C145.349 25.6038 146.506 26.3107 146.506 27.6739V37.3097C146.506 40.0763 145.861 40.835 144.382 40.835V41.2752H149.858V40.835C148.439 40.835 147.792 40.0763 147.792 37.3097V29.2987C147.792 28.7782 147.728 28.4546 147.662 28.2591L158.637 41.4694H159.284V30.1415C159.287 28.1943 159.221 25.6051 161.221 25.6051ZM180.163 41.2752V40.835C179.197 40.835 178.165 40.0763 177.393 39.1766L171.209 32.1546L174.493 28.7795C175.846 27.4163 177.586 25.7967 179.584 25.6051V25.1559H173.336V25.6051C174.302 25.6051 174.755 25.8628 174.755 26.4414C174.755 26.7664 174.368 27.2208 173.852 27.8047L168.765 33.2731V28.4546C168.765 26.8311 168.765 25.6686 170.696 25.6051V25.1559H164.061V25.6051C165.738 25.6686 165.995 26.9619 165.995 28.584V38.405C165.995 40.1398 165.738 40.835 164.061 40.835V41.2752H170.63V40.835C168.827 40.835 168.765 40.0763 168.765 38.0813V33.5955L173.852 39.0471C174.174 39.3682 174.368 39.7527 174.368 40.0763C174.368 40.7081 173.915 40.835 173.142 40.835V41.2752H180.163ZM142.578 41.2752V40.835C141.933 40.835 141.291 40.5851 140.581 38.9811L134.593 25.1546H133.433L128.153 38.4671C127.443 40.2045 126.606 40.8337 125.577 40.8337V41.2739H130.406V40.8337C129.246 40.8337 129.053 40.457 129.053 40.0751C129.053 39.8834 129.183 39.3009 129.245 39.1753L130.468 36.1511H136.137L137.49 39.5624C137.682 40.0129 137.427 40.8337 135.943 40.8337V41.2739H142.578V41.2752ZM123.644 36.7971C123.644 34.2842 121.729 33.2058 119.487 32.943V32.8097C121.411 32.5456 122.941 31.3105 122.941 29.2326C122.941 26.5062 120.901 25.0912 118.129 25.0912C117.227 25.0912 115.739 25.1546 114.707 25.1546H110.073V25.6038C111.81 25.6038 112.068 26.5062 112.068 27.7386V38.5966C112.068 40.3314 111.617 40.835 110.264 40.835V41.2752H118.515C121.284 41.2752 123.644 39.5637 123.644 36.7971ZM120.068 29.2339C120.068 31.3118 118.453 32.4808 116.129 32.4808C115.676 32.4808 115.287 32.4148 114.837 32.3501V26.3767C115.158 26.2472 115.548 26.1825 116.129 26.1825C118.323 26.1812 120.068 27.0266 120.068 29.2339ZM120.456 36.8605C120.456 39.1132 118.84 40.2718 116.903 40.2718C116.001 40.2718 115.353 40.1398 114.837 39.8187V33.5334C115.224 33.4712 115.739 33.4712 116.129 33.4712C118.129 33.4712 120.456 34.2234 120.456 36.8605Z" fill="#000028" fill-opacity="0.55"/>
<path d="M90.3348 38.8772C90.1975 38.8772 90.1289 39.2197 90.1289 39.3567C90.1289 39.9504 90.4034 40.4299 90.5864 40.8181H91.1812C91.1126 40.2929 90.9753 39.8134 90.9753 39.2197C90.9753 38.8772 91.1812 38.489 91.2498 38.2834L90.5864 38.352C90.8609 38.489 90.8609 38.8315 90.8609 38.8772C90.8609 39.0827 90.7237 39.2882 90.5864 39.4024C90.472 39.2882 90.472 39.0827 90.3348 38.8772V38.8772Z" fill="#000028" fill-opacity="0.55"/>
<path d="M78.6903 39.222C78.4844 39.8842 79.102 40.2952 79.1706 40.8204H79.9713C79.6281 40.2267 79.5595 39.2905 79.5595 39.085C79.5595 38.7425 79.5595 38.2858 79.7654 37.9661L79.0334 38.1031C78.8275 38.3543 78.7589 38.4913 78.7589 38.6283L79.102 38.4913C79.1706 38.4913 79.2393 38.6283 79.3079 38.7653C79.2164 39.085 78.8275 39.085 78.6903 39.222Z" fill="#000028" fill-opacity="0.55"/>
<path d="M103.122 38.7412C104.723 37.2112 105.661 34.6766 105.661 32.2332C105.661 29.3332 104.448 26.3875 102.298 24.2639C101.36 23.3276 100.354 22.8709 99.5531 21.9575C99.1413 21.5693 98.844 21.1583 98.5694 20.6331C98.2263 20.2906 98.0204 20.1079 97.6316 19.9024C97.7002 20.1079 97.7688 20.3134 97.8374 20.4961H97.7688C97.4257 20.4961 97.1054 20.2906 96.8309 20.0851L97.1054 19.8111C97.0368 19.6969 96.8309 19.6969 96.6937 19.6969C95.6185 19.5142 94.6349 20.0851 93.6055 20.2906V20.4276C94.2689 20.6331 94.4061 21.4323 94.7721 21.8205H95.161C95.2983 21.8205 95.5041 21.9575 95.6414 21.9575C95.6414 21.8205 95.5041 21.5693 95.5041 21.5693C95.6414 21.4323 95.7786 21.4323 95.9159 21.5693C96.259 21.7749 96.7165 21.4323 97.0597 21.9575C96.6479 21.9575 96.259 21.9575 95.9159 22.163C95.9159 22.2316 96.1218 22.3457 96.0531 22.4827C95.71 22.3457 95.3211 22.4827 95.1839 22.2316L95.1153 22.2772C95.527 22.7568 96.1218 23.1221 96.7165 23.3276C97.5858 23.4646 98.3178 23.0536 99.1642 23.2591C102.184 24.7434 104.334 28.1686 104.334 31.6167C104.334 36.5262 101.52 38.4671 99.759 38.4671C99.4158 38.4671 98.9126 38.2616 98.7067 38.079C98.9126 37.3939 99.027 36.5947 99.027 35.3844C99.027 32.5529 97.9061 29.4702 96.3505 27.8946C95.6185 27.1639 94.8179 26.5473 93.9943 26.5473C93.5826 26.5473 93.1937 26.5473 92.9192 26.8899C92.5761 27.1639 92.3702 27.6891 92.4388 28.0316C91.9127 28.4426 91.0434 28.6253 90.3571 28.6253C89.6251 28.6253 88.6872 28.3513 87.8637 27.6891V26.6844C87.6807 26.6158 86.9944 26.2048 87.3376 25.908C87.5435 25.9765 87.6807 26.0906 87.7493 26.1592C87.6807 25.7253 87.6807 25.1773 87.3376 24.7891C87.2003 24.7891 86.9944 24.7891 86.8114 24.6521C86.6056 24.4465 86.3997 24.1954 86.3997 23.8528C86.6056 24.1954 86.9258 24.0583 87.1317 24.2639C86.7886 23.4646 86.9258 23.1221 86.3311 21.9575C86.1938 21.3638 85.599 21.0213 85.1873 20.6331C84.9814 20.4961 84.9128 20.2906 84.684 20.2906C84.4095 20.2221 84.4095 19.8796 84.4095 19.6969C84.4781 19.6969 84.684 19.8111 84.7984 19.8796C84.4095 18.9662 84.135 17.9843 83.2657 17.4362L83.0599 17.5732H81.9847C82.122 17.4362 82.3965 17.3677 82.5795 17.2307C82.3736 17.0252 82.2363 16.9567 81.8475 16.9567C81.6645 17.0252 81.4128 17.2307 81.1612 17.2307H81.0926C81.0926 17.0252 81.0239 16.7512 81.4128 16.637C81.0239 16.5685 80.6808 16.5685 80.2233 16.637C80.1547 16.9795 79.9488 17.1622 79.9488 17.4362C79.7429 17.5732 79.6743 17.7788 79.4684 17.9614C79.4684 17.5504 79.6743 17.1622 79.7429 16.7512C79.4684 16.8197 79.1481 17.0252 79.0109 17.0252C78.4848 16.7512 77.7985 16.5 77.5469 16.5C77.9586 16.774 77.7527 17.2307 77.8214 17.5732L77.5469 17.4362C77.4782 17.1622 77.1351 16.9567 77.0894 16.637C76.6776 16.637 76.426 16.774 76.0828 16.9795V17.048C76.2887 17.048 76.5632 17.2536 76.6776 17.4591C76.2201 17.4591 75.877 17.2536 75.3966 17.2536C75.3966 17.2536 75.3966 17.185 75.3279 17.185C75.1449 17.2536 74.9619 17.4591 74.8476 17.5961C74.3672 18.0071 74.0469 18.3268 73.841 18.9205C73.9783 18.9205 74.1842 18.9205 74.2528 18.989C73.9783 19.0575 73.841 19.4 73.5894 19.4685V20.4504C73.3835 20.6559 73.1319 20.8615 72.9946 21.2497C72.6515 22.3001 72.5829 23.4875 72.5829 24.8347C72.5143 25.1087 72.377 25.1773 72.2398 25.2458V26.2733C72.2398 26.2733 72.6515 25.908 72.8345 25.771V26.6158C72.56 26.6158 72.377 26.9584 72.377 27.1411C72.377 27.4151 72.4456 27.6663 72.4456 27.9403C72.4456 28.0773 72.4456 28.0773 72.5143 28.2143C72.5143 28.0773 72.6515 27.9403 72.8574 27.8718C72.8574 27.8718 72.9946 27.7348 73.2692 27.7348C73.0633 27.9403 72.9946 28.2143 72.8574 28.4655L72.6515 28.671C72.6515 28.671 72.5829 28.808 72.5829 28.8765C72.8574 30.2466 73.2463 31.4568 73.7953 32.7584C73.2691 33.6262 72.6515 35.2931 72.2626 36.8915C71.9195 36.549 71.462 36.5033 71.0502 36.5033C70.6842 36.5719 70.2725 36.7089 69.998 37.0971C69.5862 36.8915 69.0601 36.96 68.8084 37.2341C68.2594 37.7136 68.2594 37.9648 68.2594 38.3758C68.1222 38.5128 67.8477 38.8553 67.8477 39.312C67.8477 39.9057 67.9163 40.3168 68.2594 40.842H78.3018C78.2331 40.6365 78.0959 40.3853 77.9586 40.2483C77.7527 39.8372 77.89 39.312 77.89 38.901C78.0959 38.5128 78.3018 38.1246 78.5534 37.7821C78.622 37.5766 78.5534 37.5766 78.622 37.5081L79.1024 37.4396C79.3769 37.4396 79.5599 37.2341 79.903 37.2341C80.1089 37.5081 80.1089 37.0286 80.4521 36.8915C81.1841 36.7545 81.8703 36.8915 82.2592 37.4167C82.2592 37.4852 82.3278 37.4852 82.3278 37.5538H81.9847C81.6187 37.4167 81.1612 37.2112 80.7037 37.4167C80.7037 37.5538 80.6351 37.5538 80.6351 37.7593V38.1018C80.9096 38.1018 81.1154 38.353 81.3671 38.49C81.4815 38.2845 81.8475 38.1018 82.122 38.1018C82.4651 38.1018 82.9226 38.2845 82.9226 38.8325V39.5632C83.1971 39.8372 83.5174 39.9057 83.8605 40.0199C83.7233 40.2939 83.5174 40.2939 83.3344 40.2939H82.8082C82.7396 40.2254 82.6024 40.2254 82.6024 40.0199C82.3965 40.2939 82.2592 40.568 82.122 40.8191H89.8768C89.7395 40.5451 89.6023 40.3624 89.5336 40.2254C89.3964 39.8144 89.3964 39.2892 89.3964 38.8782L90.1284 37.8963C90.5173 37.8963 90.8604 37.7593 91.5924 37.6908C91.7297 37.4853 91.5924 37.4167 92.1872 37.4167C92.6447 37.4167 92.9878 37.4852 93.1251 37.5538C93.1937 37.6908 93.1937 37.6908 93.1251 37.8278C92.9878 37.9648 92.7362 37.6908 92.5303 37.7593C92.3931 37.8963 92.5989 37.9648 92.5989 38.1018C92.7362 38.216 92.0042 37.9648 92.0042 37.9648C92.0042 37.9648 91.8669 38.353 91.7983 38.49C91.7983 38.49 92.0728 38.764 92.2101 38.8782C92.3473 39.0837 92.0042 39.2892 92.0042 39.4719C91.8669 39.4034 91.5924 39.1979 91.5924 39.2664C91.4552 39.8144 91.5924 40.2711 91.5238 40.7963H92.2558L92.3244 39.6546C92.3931 38.9924 93.1937 37.8049 93.6741 37.8049C93.9486 37.8049 94.1316 37.9419 94.3375 38.079C94.4519 38.3301 94.7721 38.4672 94.7721 38.6042C94.7721 38.7412 94.5891 38.8097 94.2689 38.8097C94.1316 38.8097 94.1316 38.6042 93.9486 38.4671L93.5368 38.8553C93.5368 38.8553 93.9943 39.2664 93.9943 39.5176C93.9943 39.8601 93.9257 39.9743 93.7198 40.1798L93.3081 39.3805C93.1022 39.3805 92.7819 39.7916 92.7819 39.9743C92.7819 40.2483 92.6447 40.3853 92.6447 40.7735H96.7394C97.1969 40.7735 97.6087 40.6365 98.0662 40.3624H98.8668C100.651 40.4081 101.932 39.9514 103.122 38.7412V38.7412ZM95.8473 20.8386C95.71 20.6331 95.5041 20.8386 95.3669 20.8386C95.2296 20.8386 95.161 20.8386 94.9094 20.6331C95.2982 20.6331 95.5041 20.4276 95.8473 20.2906C96.1218 20.4961 96.3734 20.5646 96.5793 20.8158H95.8473V20.8386ZM97.9976 21.8434C97.7917 21.5693 97.5401 21.2497 97.2655 21.2497C97.4714 21.2497 97.7459 21.0441 98.0662 21.0441C98.2034 21.3867 98.4779 21.5693 98.5466 21.8434L98.6152 22.2544C98.4551 21.9575 98.1806 21.8434 97.9976 21.8434V21.8434ZM87.0402 30.5663L86.6971 30.7033C85.965 30.7033 85.6219 30.4978 85.3017 30.2238C85.5762 30.2238 85.8964 29.8812 85.8964 29.8812C86.2396 30.2238 86.7199 30.4978 87.0402 30.5663ZM83.586 29.8127C83.2429 29.8812 82.9912 29.5387 82.6481 29.4017C82.5109 29.0363 82.5108 28.6253 82.3736 28.4426C82.6481 28.6482 83.2429 28.6482 83.1056 29.2419C83.1056 29.4245 83.3801 29.5615 83.586 29.8127ZM83.586 32.0277C83.7919 32.0962 84.1121 32.3017 84.318 32.4387H84.1121C83.3801 32.6899 82.7625 32.2332 82.1677 31.845C82.5109 31.708 82.9684 31.6395 83.3801 31.6395L83.586 32.0277ZM83.7232 30.9545C83.9978 30.749 84.318 30.749 84.4553 30.6805C84.7298 30.9545 84.9585 31.4112 85.4389 31.6852C85.1644 31.6852 84.7298 31.6852 84.4553 31.4797C84.0435 31.297 83.9291 31.16 83.7232 30.9545ZM82.9912 35.0648C82.9912 34.8592 83.1285 34.6766 83.403 34.5396C83.8148 34.6766 84.135 33.8088 84.5468 34.2655C84.7526 34.334 84.9357 34.334 85.05 34.334C85.5075 34.5396 85.6448 34.9277 85.8507 35.2703C85.5075 35.2703 85.2559 35.2703 85.05 34.9277C84.9814 34.9277 84.867 34.7222 84.7984 34.8592C84.4553 35.1333 84.135 34.6537 83.7232 34.7222C83.5174 34.9277 83.3344 35.0648 82.9912 35.1333V35.0648ZM86.3082 28.0544C86.2396 28.3285 85.965 28.0544 85.9193 28.0544H85.3245C85.2559 27.9174 85.1873 27.8489 85.1873 27.7119C85.4618 27.6434 85.6448 27.5064 85.8507 27.6434C85.9651 27.8489 86.1023 28.0544 86.3082 28.0544V28.0544ZM85.0272 25.2001C85.1644 25.4741 85.1644 25.6111 85.3017 25.7253C85.5762 25.5883 85.5762 25.9308 85.6448 25.9993C85.7134 26.182 85.8507 26.3647 85.8507 26.5702C85.4389 26.5702 85.2559 26.3647 85.05 25.9993C85.0272 25.8166 84.9814 25.5426 85.0272 25.2001V25.2001ZM84.5239 28.4426L85.1644 29.0363C84.7755 29.0363 84.318 29.2419 84.1121 28.8308C84.2494 28.7852 84.3866 28.5796 84.5239 28.4426ZM84.4553 23.3961C84.4553 23.4646 84.318 24.0583 84.318 24.0583L83.7919 24.1954L84.135 22.7568C84.2494 23.0079 84.4553 23.2591 84.4553 23.3961V23.3961ZM75.0534 18.6008C75.1678 18.6008 75.3508 18.5323 75.4194 18.3953C75.7397 18.3268 75.9456 17.9843 76.3573 18.1898C76.6318 18.1898 76.8835 18.3268 77.0894 18.3953C77.0894 18.5323 77.0894 18.6008 77.2266 18.7378C77.6384 18.7378 77.6384 19.126 77.8214 19.4685C78.0273 19.537 78.2103 19.537 78.3475 19.537C78.7593 19.6512 79.0795 19.6512 79.2168 19.8339C79.7429 19.537 80.2919 19.4685 80.8867 19.537C80.9553 19.3315 81.0926 19.0575 81.1612 18.7378C81.2298 18.9433 81.2298 18.7378 81.3671 18.7378C81.6187 18.5323 81.9161 18.2126 82.3736 18.3268C82.6481 18.5323 83.1056 18.3953 83.3801 18.7378C83.586 18.989 83.7233 19.4 83.9063 19.7197C83.7004 20.1079 83.9063 20.6559 83.4945 20.8386L83.0827 21.2497C82.9455 21.2497 82.9455 21.3867 82.7396 21.3867C82.9455 21.8434 82.8082 22.5056 82.6024 22.9623C82.7396 22.9166 82.9455 22.9166 82.9455 22.7111C83.0141 22.7796 82.9455 22.8938 82.9455 22.9623V23.1449C82.9455 23.4875 82.7396 23.8072 82.4651 24.0812C82.3278 24.4922 82.0076 25.0174 81.573 25.0859V25.2229C82.5337 25.2229 83.3572 25.4969 84.2951 25.9536V26.3875C83.4945 25.9536 82.6252 25.6111 81.6416 25.5426C81.6416 25.7481 81.6416 25.9308 81.573 25.9993C82.3507 26.3647 83.0827 26.7072 83.7461 27.3009V27.9174C83.0827 27.2552 82.3278 26.5702 81.5043 26.3875C81.4357 26.5245 81.1841 26.6615 81.1154 26.9127C80.6351 26.5702 80.1089 26.2505 79.5599 26.182C79.354 26.182 79.2168 25.4741 79.2168 25.4741C79.5599 25.3371 79.7658 25.1316 79.8802 24.8119H80.1547C80.3606 24.8119 80.3606 24.6749 80.3606 24.4694C80.3606 24.0583 79.4913 24.0583 79.0795 24.0583C78.5991 24.0583 78.2789 24.0583 78.0044 24.2639C77.8671 24.2639 77.9358 24.4694 77.9358 24.6064C77.9358 24.6749 78.1416 24.8119 78.1416 24.8119C78.2789 24.8119 78.4161 24.6749 78.5534 24.6749C78.4848 25.0859 78.622 25.2686 79.0109 25.4741L78.9423 26.1135C78.1416 26.1135 77.5926 26.4332 76.9979 26.7072C76.792 26.5702 76.6547 26.3647 76.5175 26.182C75.7168 26.456 74.3672 27.5064 74.3672 27.5064V27.0497C74.9619 26.5245 75.7168 26.2505 76.3116 25.9308V25.4741C76.0371 25.3371 75.7855 25.4741 75.5109 25.4741C74.9391 25.5426 74.3672 25.7938 73.9554 26.1135C73.9554 25.9308 73.8868 25.6568 73.8868 25.6568C74.6188 25.2458 75.5109 24.9261 76.3802 25.0631V24.7891C76.3116 24.6521 76.3116 24.4465 76.1743 24.4465C75.7626 24.0355 75.3737 23.4418 75.3737 23.0308L75.6482 22.8938C75.5109 22.5056 75.3737 21.5237 75.6482 21.1811C75.2593 20.9756 74.8933 20.6559 74.7561 20.3819C74.6188 20.0394 74.4816 19.8567 74.4129 19.4685C74.7332 19.126 74.8476 18.989 75.0534 18.6008V18.6008ZM81.2298 30.9545C80.8867 30.749 80.2919 30.6805 80.4292 30.2923C80.5664 29.9497 80.7723 29.8812 80.8867 29.7671C80.9553 30.2238 81.0239 30.5663 81.2298 30.9545V30.9545ZM77.0894 29.0592L76.8835 29.8812C76.6776 29.493 76.4717 29.1049 76.426 28.6482L77.0894 29.0592ZM76.1972 30.0868C75.7855 29.9497 75.3279 29.5615 75.1449 29.2419C75.0306 28.9678 74.9619 28.6482 74.9619 28.4426C75.2136 28.4426 75.3966 28.6482 75.4423 28.7852V28.8537C75.8083 29.2647 76.1286 29.5615 76.1972 30.0868V30.0868ZM75.4652 30.886C75.4652 31.16 75.3508 31.4797 75.0306 31.8222C74.9619 31.8907 74.7789 32.0277 74.7789 32.0277C74.7789 31.6167 74.9619 31.297 74.9619 30.9545C75.1678 30.886 75.3508 30.749 75.4652 30.886ZM76.1286 31.6852C76.1972 31.6167 76.2658 31.6852 76.4031 31.6852L76.1286 32.6671C75.7855 32.9183 75.3279 32.8041 74.9619 32.8041C75.4652 32.6671 75.877 32.0962 76.1286 31.6852V31.6852ZM73.841 21.2268C73.9783 21.0213 74.0469 20.8158 74.2528 20.6331V21.4323L73.7953 21.5693L73.841 21.2268ZM73.841 22.5741L74.3672 22.3686L74.024 22.7796C74.0927 23.419 73.8182 23.8985 73.8182 24.4922L73.475 23.419C73.5894 23.1449 73.658 22.8938 73.841 22.5741V22.5741ZM73.7953 30.2238C73.8639 29.9497 74.0698 29.8127 74.1155 29.7671C74.3214 29.8356 74.4587 29.8356 74.7103 29.9041C74.3672 30.2466 74.0469 30.3836 73.9097 30.7718C73.9097 30.5663 73.841 30.3608 73.7953 30.2238ZM69.5176 39.0837C69.4489 39.0837 69.2431 38.8782 69.0372 38.8782C68.8542 39.2892 69.0372 39.5404 69.0372 40.0199C69.0372 40.2254 68.9686 40.4309 68.9686 40.4309C68.8542 40.4309 68.6025 40.1569 68.5339 39.9057V38.8325L69.0829 38.1018C69.5176 38.353 69.6548 38.7412 69.5176 39.0837V39.0837ZM71.0502 39.0837C70.9816 38.8097 70.7986 38.49 70.4783 38.49C70.2038 39.0152 70.1352 39.2207 70.4097 40.0199C70.2038 40.2254 70.0666 40.2939 69.815 40.4309C69.6777 40.1569 69.6777 39.7002 69.6777 39.4262C69.6777 38.9467 69.7463 38.49 69.8836 38.1018C70.0895 37.8963 70.2267 37.5538 70.4097 37.4167H71.1188C70.7986 37.4167 70.7986 37.6908 70.7986 37.8963C70.9816 37.9648 71.2561 38.0333 71.2561 38.353C71.2332 38.6042 71.1646 38.8782 71.0502 39.0837ZM72.7201 40.0199C72.7201 39.6774 72.926 39.2892 72.926 38.8782C72.926 38.8782 72.6515 38.6042 72.377 38.6042C72.1711 38.7412 72.1711 38.8782 72.1025 39.0837C71.8966 39.4947 71.5077 39.8829 71.4391 40.2939C71.3705 40.2939 71.3705 40.2254 71.3705 40.2254C71.3705 39.5632 71.4391 38.4215 71.828 37.9648C72.1711 37.5538 72.4228 37.5538 72.8345 37.5081L73.1776 37.5766L72.9031 37.9876C73.1776 38.1246 73.5665 38.3758 73.5665 38.7868C73.5894 39.2892 72.7201 40.0199 72.7201 40.0199V40.0199ZM75.2364 38.7412L74.8018 37.5538C74.2528 37.0742 73.658 37.0057 73.3149 36.7317C73.0404 36.6632 73.0404 36.8687 72.9031 36.7317C72.9031 36.5947 72.9031 36.3892 73.109 36.2065H73.4979L73.9097 36.412C74.1155 36.6175 74.5731 36.6175 74.5731 37.0057C74.5731 37.0742 74.5044 37.1427 74.7103 37.4167L75.3279 37.5538L75.3966 38.1018L75.2364 38.7412ZM75.9456 37.5538C75.8083 37.4167 75.9456 37.0742 75.7397 36.8687C75.7397 36.7317 75.877 36.6632 75.8083 36.5947C75.7397 36.4577 74.9848 36.1837 74.9848 36.1837C74.7332 35.9781 74.39 35.7726 74.1155 35.5215C73.841 35.4529 73.658 35.59 73.3149 35.6585V35.5215C73.4522 35.2474 73.4522 34.9277 73.841 34.9277C74.0469 34.9277 74.2985 34.9277 74.4358 35.1333C74.7103 35.1333 74.8476 35.4073 75.0306 35.4758C75.3279 35.7955 75.6025 35.9553 75.7855 36.0695C75.7855 36.275 75.8541 36.412 75.9913 36.4805C76.4031 36.4805 76.2658 36.8687 76.4031 37.1427L75.9456 37.5538V37.5538ZM76.6776 36.0695C76.5403 35.6128 76.2201 35.1333 75.8083 35.1333C75.6024 34.9277 75.4194 34.7222 75.3508 34.5396C75.1678 34.334 74.9848 34.5396 74.7332 34.334C74.4587 34.334 74.1384 34.334 73.8639 34.5396V34.334L74.3214 33.8088C74.8018 33.8773 75.3508 33.8088 75.4652 34.1514C75.8083 34.3569 76.1286 34.5624 76.1972 34.6994V34.9049C76.3345 34.9734 76.609 35.0419 76.7233 35.1104C76.7462 35.2703 76.6776 36.0695 76.6776 36.0695V36.0695ZM77.4096 32.8041C77.2037 32.8041 76.8606 32.9411 76.4717 32.8041C76.6776 32.6671 76.8835 32.6214 77.1351 32.4387L77.6612 31.9135H78.1874C78.0044 32.3017 77.8214 32.6671 77.4096 32.8041V32.8041ZM77.6155 29.8127C77.8214 29.8127 78.0272 29.8127 78.2103 29.9497C78.2103 30.2923 78.3475 30.5663 78.3475 30.9545C77.9586 30.5663 77.6155 30.2238 77.6155 29.8127V29.8127ZM77.8214 33.8088C77.89 33.6033 78.073 33.5348 78.2103 33.3521C78.3475 33.1466 78.622 32.8269 78.6906 32.6214C79.0338 32.4387 79.171 32.4387 79.4227 32.4387C79.354 32.8041 79.1482 32.9411 78.8279 33.3978C78.622 33.5348 78.2103 33.6033 77.8214 33.8088ZM78.7593 35.0648L78.3475 34.5396H79.354L79.5599 34.9277C79.2854 35.1333 79.0795 35.1333 78.7593 35.0648V35.0648ZM79.2168 31.16L79.0795 30.4978C79.2854 30.3608 79.4913 30.2238 79.7429 29.8812C79.7658 30.3608 79.6972 30.9545 79.2168 31.16V31.16ZM80.0174 27.7119C79.9488 27.7119 80.0174 27.9174 79.9488 27.9174C79.9488 28.0544 79.8115 28.3285 79.8115 28.5796C79.6743 28.6482 79.3998 28.7852 79.1482 28.6482V28.4426C79.0795 28.3056 79.0795 28.0316 79.0795 27.9174L79.0109 27.8489C78.805 27.9174 78.805 28.0544 78.805 28.1915C78.7364 28.3285 78.5991 28.4655 78.5991 28.6482C78.3246 28.6482 78.1874 28.5796 78.0044 28.4426V27.8489C78.0044 27.7119 78.0044 27.7119 77.9358 27.7119L77.5926 28.0544C77.3181 27.8489 77.2495 27.3237 77.2495 26.9812C78.3246 26.3875 79.6514 26.5702 80.4749 26.9127C80.6122 26.9812 80.7494 26.9812 80.8638 27.0497C80.7952 27.4607 80.6579 28.0544 80.269 28.3285C80.2919 28.0544 80.1547 27.9174 80.0174 27.7119V27.7119ZM81.2298 34.8821C81.1612 34.8821 80.7037 34.6766 80.5664 34.5396C80.4978 34.334 80.4978 34.1285 80.4978 34.1285H81.0239L81.3671 34.8592H81.2298V34.8821ZM81.2298 33.0553C80.8181 32.7356 80.5664 32.3474 80.1547 31.8222L81.2298 32.0277C81.4357 32.1647 81.8017 32.5986 81.9847 32.8041C81.8475 32.9411 81.4815 33.0553 81.2298 33.0553ZM81.9161 30.5663C81.5501 29.9497 81.7331 29.4245 81.9161 28.9907C82.0533 29.3789 82.122 29.7671 82.1677 30.0868C82.2363 30.3608 82.6481 30.4978 82.7625 30.6805C82.5109 30.749 82.0533 30.886 81.9161 30.5663V30.5663ZM82.1677 36.4805L82.5109 35.6813C82.7854 35.6813 82.9912 35.5443 83.1056 35.5443C83.3801 35.4758 83.586 35.4758 83.769 35.4758V35.5443C84.501 35.5443 85.3474 35.4758 85.8964 36.0695L85.9651 36.6175C85.6905 36.412 85.3017 36.412 85.1644 36.0695C84.9128 36.001 84.7298 36.001 84.3866 36.001C84.1121 36.0695 83.7919 36.0695 83.5174 36.0695C83.4487 36.0695 83.5174 36.001 83.3801 35.9325C82.9912 36.0695 82.5795 36.0695 82.1677 36.4805V36.4805ZM84.318 38.8782L84.1121 39.0837C83.9063 38.8782 84.0435 38.353 83.7004 38.2845C83.3572 38.2845 83.1056 37.9648 82.9684 37.8963L83.2429 37.7593C83.2429 37.7593 83.3801 37.6908 83.5174 37.7593C83.6546 37.8963 83.7919 37.9648 83.7919 38.1018C83.9291 38.2845 84.135 38.1018 84.2723 38.2845C84.318 38.49 84.3866 38.7412 84.318 38.8782ZM86.3768 38.7412C86.2396 38.3301 86.1023 37.7593 85.6448 37.7593C85.5762 37.4852 85.5075 37.4167 85.233 37.2112L84.7298 37.1427C84.7984 37.4167 85.1644 37.4167 84.9128 37.7593C85.1644 37.9648 85.3703 37.9648 85.5075 38.2845C85.6448 38.49 85.5075 38.764 85.5762 38.8782L85.1644 39.0837C85.1644 38.7412 85.233 38.1018 84.7755 37.9648C84.3866 38.1018 84.318 37.5538 84.0435 37.4167C83.9063 37.4167 83.9063 37.0742 83.7004 37.2112C83.3572 37.4167 82.9684 37.2112 82.6252 37.4167L82.9684 36.8915C83.2429 36.686 83.4945 36.7545 83.769 36.686L84.2951 36.6175C84.8213 36.6175 85.2788 36.8915 85.8049 37.0742C86.0794 37.2112 86.1938 37.4167 86.1938 37.6908C86.3311 37.7593 86.6056 37.7593 86.6056 37.9648C86.5827 38.1018 86.4454 38.49 86.3768 38.7412V38.7412ZM87.3147 37.7593C87.1775 37.5538 87.1088 37.4167 86.9716 37.4167C87.1775 36.686 86.7657 36.0695 86.6284 35.4758V35.2703C86.8343 35.6128 87.3605 35.9325 87.2918 36.275C87.3605 36.8687 87.3605 37.4167 87.3605 37.7593H87.3147ZM86.6513 29.493L87.1775 29.2647C87.3833 29.4245 87.6578 29.493 87.7722 29.5615C87.5892 29.7671 87.0402 29.8127 86.6513 29.493V29.493ZM91.1349 30.5663C91.2722 30.7033 91.4094 30.7718 91.5238 30.9545V31.4797C90.929 31.1372 90.5859 30.5434 90.0598 29.9497C90.6088 29.9497 90.746 30.4978 91.1349 30.5663ZM88.1611 30.7033C88.3441 30.9088 88.5957 31.1828 88.5957 31.3655C88.5957 31.571 88.4585 31.6395 88.3441 31.7765C88.3441 31.7765 88.0925 31.434 88.0925 31.297C88.0925 31.023 88.0925 30.886 88.1611 30.7033V30.7033ZM88.733 35.6813C88.733 35.2703 88.6644 34.9506 88.3898 34.6766C88.3898 34.5396 88.5729 34.5396 88.4585 34.334C88.4585 34.334 88.0925 34.1285 88.0925 33.8545C88.0925 33.5805 88.3441 33.375 88.4585 33.1923C88.4585 33.1238 88.733 33.3293 88.733 33.7175C88.733 33.786 88.733 33.9915 88.6644 34.1285C88.5957 34.334 89.0761 34.334 89.0761 34.5396C89.0761 34.9277 88.8016 35.2703 88.733 35.6813V35.6813ZM89.465 32.8041C89.465 32.9411 89.2591 33.0553 89.1905 33.0553C89.1905 33.0553 88.8474 32.7356 88.8016 32.4159C88.733 32.1419 89.0075 31.6852 89.0075 31.6852C89.0761 31.6852 89.1447 31.8222 89.2134 31.8222C89.282 31.8907 89.2134 32.0962 89.282 32.2789C89.465 32.4387 89.6023 32.6671 89.465 32.8041V32.8041ZM90.0598 36.275C90.197 35.9325 90.197 35.2703 90.0598 35.2703C89.9225 35.2018 89.648 35.2703 89.648 35.1333C89.648 34.9277 89.7166 34.6766 89.7166 34.5396C89.7166 34.2655 89.5108 34.1285 89.5108 34.0143C89.5108 33.6033 89.9911 33.5577 90.1055 33.2836C90.1741 33.5577 90.1741 33.8088 90.1741 34.1514C90.1741 34.2884 90.38 34.6994 90.1741 35.0191C90.1741 35.2246 90.563 35.0876 90.563 35.2931C90.6088 35.6128 90.197 36.001 90.0598 36.275V36.275ZM91.1349 34.6766C90.929 34.6766 90.929 34.5396 90.929 34.2655C90.8604 33.8545 90.7232 33.5348 90.5859 33.1238C90.4486 32.5986 90.1284 32.1647 89.8539 31.5482C89.7853 31.2742 89.4421 31.1372 89.1905 30.9545C89.5336 30.9545 89.8539 30.9545 90.1284 31.2285C90.1284 31.3655 90.197 31.434 90.4029 31.6395C90.8604 31.6395 90.746 32.2332 91.1349 32.5072C90.929 32.6899 90.8604 32.8041 90.7232 32.9411C90.929 33.0781 91.1349 33.1466 91.2035 33.3521C91.2035 33.7403 91.1349 34.197 91.1349 34.6766V34.6766ZM92.0728 34.0143C91.9356 33.6033 91.661 33.2151 91.5238 32.8269C91.5238 32.7584 91.4552 32.7584 91.5924 32.6899C91.661 32.6899 91.9356 32.6899 91.9356 32.7584C92.0042 32.8954 92.1414 33.0781 92.1414 33.2836C92.1414 33.5348 92.0042 33.7403 92.0728 34.0143ZM95.6414 32.0277C95.5041 31.8907 95.6414 31.6167 95.2983 31.6167C95.161 31.6167 94.9551 31.8222 94.9551 31.8222C94.8407 31.8907 94.4519 31.6167 94.4519 31.8222C94.4519 32.1647 94.2002 32.2789 93.8571 32.2789C93.7198 32.2789 93.5826 32.2789 93.4453 32.2104V31.571C94.3146 31.571 94.246 31.297 94.612 31.297C94.8636 31.297 95.0466 31.434 95.2525 31.434C95.5956 31.434 95.3898 31.297 95.7329 31.297C96.076 31.297 96.1904 31.571 96.3963 31.6395C96.3963 31.845 96.6022 32.1191 96.6022 32.3702C96.1675 32.3702 95.71 32.2332 95.6414 32.0277V32.0277ZM96.0531 33.8088C95.8473 33.7403 95.3898 33.6718 95.3898 33.4663C95.3898 33.1923 95.2525 33.1238 94.9322 33.1238C94.6806 33.1238 94.4976 33.1923 94.1087 33.3293C94.1087 33.3293 93.9028 33.0553 93.8342 32.8041C93.9715 32.7356 94.4976 32.6214 94.7264 32.6214C95.1839 32.6214 95.6414 32.6214 95.6414 32.8041C95.6414 33.0553 96.0531 33.1238 96.0531 33.8088V33.8088ZM95.2983 30.0868C95.5041 30.0868 95.6414 29.9497 95.7786 29.9497C96.1218 29.9497 96.3734 30.4978 96.442 30.886C95.9159 30.5434 95.0924 30.3379 94.6577 30.3379C94.4061 30.3379 93.6283 30.6805 93.3538 30.9316L93.2166 30.3379C93.6283 30.2694 93.6283 29.9269 93.88 29.9269C94.0858 29.9269 94.3375 29.8584 94.5205 29.8584C94.7035 29.8584 94.8407 29.7214 94.8865 29.7214C95.2296 29.7671 95.1152 30.0868 95.2983 30.0868V30.0868ZM93.2852 29.2647C93.4911 29.0592 93.8113 28.7852 94.0859 28.7852C94.5434 28.7852 94.9094 29.1277 94.9094 29.4245C94.5434 29.4245 94.4747 29.3789 94.2231 29.3789C93.88 29.3789 93.4911 29.493 93.2852 29.8356C93.148 29.5615 93.2166 29.4245 93.2852 29.2647V29.2647ZM93.4911 27.5064C93.7656 27.3694 93.9028 27.4379 94.0172 27.5064C94.0172 27.9174 94.4747 27.7119 94.7264 27.8489C94.8407 28.0544 94.9094 28.1915 94.978 28.4426C94.5434 28.3056 94.2917 28.1001 93.9028 28.1001C93.7656 28.1001 93.1708 28.3056 93.1022 28.4426C92.8963 28.1915 93.2166 27.6434 93.4911 27.5064V27.5064ZM94.7264 37.5538C94.4061 37.4167 94.2231 37.3482 93.8342 37.3482C93.8342 37.0742 93.6283 36.7545 93.4911 36.7545C93.0793 36.7545 93.148 37.0286 92.8277 37.0286L93.4225 36.4348C93.4911 36.2978 93.4911 36.2978 93.6283 36.2978C93.8342 36.4348 93.9028 36.5033 94.0859 36.5033C94.0859 36.6404 94.0858 36.7089 94.0172 36.8915C94.2231 37.0286 94.3375 36.823 94.4747 37.0286C94.6577 37.0971 94.8407 37.1656 94.8407 37.4396L94.7264 37.5538V37.5538ZM95.3669 36.686C94.9094 36.6175 94.9094 36.0923 94.8407 36.0238C94.5205 35.6128 94.0859 35.9553 93.7427 35.9553C93.6055 35.5443 93.8113 35.5443 93.8113 35.2931C94.0172 35.2931 94.2231 35.1561 94.4061 35.2931C94.7264 35.1561 94.9094 35.4986 95.2296 35.4986C95.2983 35.6356 95.4355 35.9781 95.5041 36.0238C95.5041 36.275 95.4355 36.3435 95.3669 36.686ZM95.71 35.2703C95.2296 35.2703 95.5041 34.334 94.5434 34.334C94.3604 34.334 94.2231 34.6766 93.9715 34.7451C93.9715 34.6766 94.0401 34.2655 94.0401 34.2655C94.0401 34.1285 94.1087 33.8545 94.3604 33.7403C94.8636 33.7403 94.7264 33.9458 95.1153 34.0829C95.3211 34.1514 95.4584 34.2884 95.71 34.2884V35.2703V35.2703ZM96.6479 38.2845C96.6479 37.9648 96.2361 37.7593 95.9845 37.2112L96.259 36.7317C96.4649 36.8687 96.7394 37.0742 96.7394 37.3939C96.7394 37.3939 96.6708 37.5309 96.7394 37.6679C96.7394 37.7364 96.8767 37.7364 96.8767 37.8734C96.7165 38.1018 96.7165 38.1018 96.6479 38.2845V38.2845ZM97.1054 37.0057L96.6937 36.412C96.8309 36.2065 96.8309 35.9553 97.0368 35.6128C97.1054 35.6128 97.3113 36.0695 97.3113 36.138C97.3113 36.549 97.3113 36.686 97.1054 37.0057Z" fill="#000028" fill-opacity="0.55"/>
<path d="M80.4994 38.4889C80.3621 38.4889 80.1562 38.8771 80.1562 39.0141C80.1562 39.5393 80.2935 40.2928 80.4994 40.818H81.0255C81.0255 40.2243 81.0941 39.5393 81.0941 39.0141C81.0255 39.0141 81.1628 39.1511 80.4994 38.4889Z" fill="#000028" fill-opacity="0.55"/>
<path d="M82.0529 38.7412C81.9157 38.7412 81.6183 38.9467 81.6183 39.0837C81.6183 39.3578 81.5039 40.8192 81.5039 40.8192H81.9385C82.1444 40.2255 82.5333 39.4263 82.5333 39.0837C82.5104 38.8097 82.3046 38.7412 82.0529 38.7412Z" fill="#000028" fill-opacity="0.55"/>
<path d="M82.5751 20.8387H82.781C82.9869 20.6332 83.1242 20.8387 83.2614 20.6332C83.3987 20.2907 83.3987 19.697 83.1242 19.4001C82.9869 19.1261 82.6666 18.9891 82.3235 18.7379L81.866 18.9891C81.6144 19.1261 81.5 19.4001 81.5 19.697C81.9118 19.9025 82.3693 20.4277 82.5751 20.8387V20.8387Z" fill="#000028" fill-opacity="0.55"/>
<path d="M78.7559 20.428C78.6187 20.2908 78.2298 20.4966 78.0239 20.5652C77.7494 20.6337 77.5664 20.8395 77.5664 21.0224H78.2984C78.3442 20.8395 78.6187 20.5652 78.7559 20.428Z" fill="#000028" fill-opacity="0.55"/>
<path d="M76.8828 25.3339C76.8828 25.471 76.8828 25.6082 77.0887 25.7454C77.2946 25.5396 77.6148 25.471 77.6835 25.471C77.5462 25.1967 77.2031 25.471 76.8828 25.3339V25.3339Z" fill="#000028" fill-opacity="0.55"/>
<path d="M79.9503 20.4976C80.2934 20.4976 80.1562 20.9549 80.4307 21.0235H81.0255C81.0255 20.8177 80.9568 20.8177 80.8882 20.8177C80.5451 20.8177 80.5451 20.2919 80.2934 20.4062C80.1562 20.4062 80.0189 20.269 79.8359 20.4062C79.8359 20.4976 79.8359 20.4976 79.9503 20.4976Z" fill="#000028" fill-opacity="0.55"/>
<path d="M80.5647 25.4722L80.4961 25.5408L81.2281 25.8151V25.4722H80.5647Z" fill="#000028" fill-opacity="0.55"/>
<path d="M76.2695 21.5684C76.2695 21.8424 76.4754 21.9566 76.6813 21.9566C76.6813 22.2306 76.8872 22.2762 76.9558 22.3448C77.1617 22.4818 77.2303 22.4818 77.4133 22.3448C77.6192 22.4818 77.6878 22.2306 77.7564 22.3448C77.7564 22.7558 77.7564 22.9385 77.6878 23.2581C77.6192 23.7377 77.2303 23.6692 76.8872 23.8519C76.8872 24.0574 76.6813 24.3771 76.8872 24.5826C77.0931 24.4456 77.2303 24.3771 77.5506 24.24C77.5506 24.0345 77.7564 23.829 78.0081 23.7148C78.0081 23.1211 78.2139 22.5503 78.2139 21.9337C78.2139 21.7967 78.0767 21.6597 77.8708 21.5455H76.4068C76.4068 21.5684 76.2695 21.5684 76.2695 21.5684V21.5684Z" fill="#000028" fill-opacity="0.55"/>
<path d="M76.0144 20.4946C76.2889 20.2891 76.9523 19.8324 77.2954 19.6954C77.2268 19.056 76.4947 18.9875 76.1516 18.7135H75.8771C75.351 18.919 75.2366 19.4442 75.168 19.8781C75.351 20.4946 75.7399 20.0836 76.0144 20.4946Z" fill="#000028" fill-opacity="0.55"/>
<path d="M80.1529 21.9562H80.0156C80.1529 22.4814 80.1529 23.0523 80.1529 23.6688C80.4274 23.7373 80.679 23.8743 80.679 24.2625C80.9535 24.3995 81.2051 24.468 81.4797 24.6735C81.594 24.605 81.6627 24.3995 81.7313 24.2168C81.4797 23.8743 80.8849 24.0798 80.8849 23.4861L80.496 23.3491C80.496 22.9609 80.496 22.5727 80.4274 22.2987L80.496 22.253C80.496 22.2987 80.5646 22.3672 80.7019 22.5042C80.9764 22.5042 81.228 22.5727 81.5025 22.3672C81.6169 22.2987 81.6169 21.979 81.7542 21.979C81.8685 21.979 82.0058 21.979 82.0744 21.842C82.0744 21.842 82.2117 21.842 82.0744 21.7735L80.6561 21.568C80.496 21.7735 80.1529 21.7735 80.1529 21.9562Z" fill="#000028" fill-opacity="0.55"/>
</svg>
