<svg width="172" height="64" viewBox="0 0 172 64" fill="none" xmlns="http://www.w3.org/2000/svg">
<rect width="172" height="64" fill="#000028" fill-opacity="0.02"/>
<g clip-path="url(#clip0_6474_99831)">
<path d="M24.8248 18.1518L30.2683 30.9076L35.0628 18.6155C35.3185 18.0483 35.4647 17.4379 35.494 16.8164H39.4769C39.4769 16.8164 39.5558 17.9478 39.616 18.6155L41.5264 32.8086C41.7072 34.1718 41.9901 35.8503 41.9901 35.8503H38.7768C38.7768 35.8503 38.7072 34.5752 38.6098 33.5922L36.9592 19.631L30.4677 36.2213C29.2667 35.3555 28.3733 34.1291 27.9175 32.7205L22.423 19.6588L20.814 32.0946C20.5914 33.8658 20.4338 35.8271 20.4338 35.8271H17.9531C17.9531 35.8271 18.4122 33.2491 18.6486 31.6912L20.3735 18.9447C20.7305 16.0143 19.8356 13.8953 18.4122 12.9169C17.5458 12.4021 16.567 12.1061 15.5605 12.0545C16.6584 11.9538 17.7646 11.9928 18.8526 12.1704C20.7491 12.6248 23.1324 14.2291 24.8248 18.1518Z" fill="#000028" fill-opacity="0.55"/>
<path d="M59.0723 16.668V35.8873H61.7477V16.668H59.0723Z" fill="#000028" fill-opacity="0.55"/>
<path d="M52.4609 35.9166V16.6973H55.1503V35.9166H52.4609Z" fill="#000028" fill-opacity="0.55"/>
<path d="M48.1594 17.6403C48.4776 17.9785 48.6485 18.4291 48.6348 18.8932L48.6023 18.9071C48.6213 19.376 48.4548 19.8336 48.139 20.1807C47.8231 20.5278 47.3832 20.7366 46.9146 20.7618H46.8265C46.336 20.7331 45.8768 20.5109 45.55 20.1441C45.2231 19.7772 45.0552 19.2957 45.0831 18.8051C45.0914 18.5704 45.1461 18.3397 45.244 18.1262C45.3419 17.9128 45.481 17.7208 45.6534 17.5613C45.8258 17.4019 46.028 17.2781 46.2484 17.1971C46.4688 17.1161 46.7031 17.0796 46.9378 17.0895C47.4019 17.104 47.8412 17.3021 48.1594 17.6403Z" fill="#000028" fill-opacity="0.55"/>
<path d="M172.34 39.55H116.203V48.1466H116.152C116.499 48.3442 116.893 48.445 117.292 48.4387C117.913 48.4794 118.524 48.2723 118.991 47.8628C119.459 47.4533 119.745 46.875 119.787 46.2548C119.794 46.1359 119.794 46.0167 119.787 45.8978C119.823 45.6258 119.806 45.3494 119.735 45.0842C119.665 44.8191 119.543 44.5704 119.376 44.3525C119.209 44.1346 119.001 43.9517 118.764 43.8142C118.527 43.6768 118.264 43.5875 117.992 43.5516H117.825C117.408 43.5701 116.996 43.6627 116.611 43.8251L117.315 42.5593C117.562 42.5175 117.812 42.4943 118.062 42.4897C118.862 42.4584 119.641 42.7461 120.229 43.2896C120.817 43.833 121.165 44.5877 121.196 45.3877C121.208 45.5204 121.208 45.6538 121.196 45.7865C121.196 47.9935 119.657 49.4634 117.097 49.4634C116.361 49.4415 115.627 49.3593 114.904 49.2177V39.55H0V38.75H172.34V39.55Z" fill="#000028" fill-opacity="0.55"/>
<path d="M45.7559 22.4746V35.8702H48.3339V22.4746H45.7559Z" fill="#000028" fill-opacity="0.55"/>
<path fill-rule="evenodd" clip-rule="evenodd" d="M78.5646 28.5795C78.6648 26.9261 78.104 25.3006 77.0058 24.0606C75.9075 22.8207 74.3617 22.0677 72.7084 21.9675C72.4767 21.9536 72.2445 21.9536 72.0128 21.9675C67.6682 21.9675 64.7285 24.9072 64.7285 28.9597C64.7285 33.0122 68.1412 36.1281 73.0747 36.1281C74.4491 36.1468 75.8141 35.8996 77.0947 35.4001L78.546 32.6644H78.4579C77.0838 33.6989 75.4016 34.2411 73.6821 34.2039C72.9693 34.255 72.2534 34.1652 71.5754 33.9395C70.8973 33.7138 70.2704 33.3568 69.7304 32.8887C69.1904 32.4206 68.7479 31.8507 68.4283 31.2116C68.1087 30.5724 67.9182 29.8765 67.8676 29.1637C67.856 28.9707 67.856 28.7771 67.8676 28.5841L78.5646 28.5795ZM67.9928 26.8871C68.1435 26.0138 68.6088 25.226 69.3008 24.6724C69.9928 24.1188 70.8635 23.8378 71.7486 23.8824C73.849 23.8824 75.189 24.8654 75.5043 26.8871H67.9928Z" fill="#000028" fill-opacity="0.55"/>
<path d="M114.346 17.7075C114.665 18.0283 114.848 18.4598 114.857 18.9121V18.9492C114.871 19.4145 114.702 19.8668 114.387 20.2092C114.071 20.5515 113.634 20.7567 113.169 20.7807H113.067C112.581 20.7462 112.127 20.5215 111.806 20.1553C111.484 19.7891 111.319 19.3108 111.347 18.824C111.378 18.3727 111.583 17.9509 111.918 17.6466C112.252 17.3422 112.692 17.1787 113.144 17.19C113.596 17.2014 114.027 17.3867 114.346 17.7075Z" fill="#000028" fill-opacity="0.55"/>
<path d="M111.973 22.4922V35.8785H114.555V22.4922H111.973Z" fill="#000028" fill-opacity="0.55"/>
<path d="M81.0176 35.9107V22.4502H83.7625V24.3791C84.1944 23.6813 84.8 23.1077 85.5201 22.7143C86.2403 22.3209 87.0502 22.1213 87.8707 22.1349C88.7111 22.0954 89.5491 22.252 90.3185 22.5925C91.0879 22.9329 91.7675 23.4477 92.3034 24.0962C93.0438 25.1624 93.0353 26.742 93.0281 28.0671C93.0274 28.1943 93.0267 28.3191 93.0267 28.4409V35.8597H90.3328V28.7284C90.3328 25.6125 89.424 24.0128 86.7996 24.0128C84.1752 24.0128 83.7115 25.7887 83.7115 27.5135V35.9107H81.0176Z" fill="#000028" fill-opacity="0.55"/>
<path d="M127.347 22.4312V30.1792C127.347 32.4234 125.956 33.9952 124.037 33.9952C121.496 33.9952 120.74 32.3353 120.74 29.6506V22.4312H118.064V30.1606C118.064 34.2688 119.701 36.2209 123.132 36.2209C123.979 36.2935 124.829 36.1177 125.578 35.715C126.326 35.3124 126.941 34.7002 127.347 33.9535V35.8499H130.009V22.4312H127.347Z" fill="#000028" fill-opacity="0.55"/>
<path d="M96.1465 35.8607V22.4558L96.1557 22.4929H98.8311V24.3476C99.2661 23.6517 99.8731 23.0796 100.593 22.6865C101.314 22.2934 102.123 22.0926 102.944 22.1034C103.787 22.0718 104.626 22.2382 105.394 22.5893C106.161 22.9404 106.835 23.4663 107.363 24.125C108.117 25.1802 108.108 26.7893 108.101 28.0991L108.101 28.103C108.101 28.2249 108.1 28.3443 108.1 28.4604V35.8792H105.425V28.7386C105.425 25.6227 104.558 24.023 101.901 24.023C99.2438 24.023 98.8126 25.7989 98.8126 27.5145V35.8607H96.1465Z" fill="#000028" fill-opacity="0.55"/>
<path d="M133.724 22.4653V35.8702H136.38V28.1731C136.38 25.3911 137.461 24.0001 139.677 24.0001C141.481 24.0001 143.002 25.5395 143.002 28.5997V35.9026H145.649V28.3911C145.649 25.6554 146.382 24.0001 149.002 24.0001C151.32 24.0001 152.247 25.8919 152.247 28.9011V35.8933H154.937V28.15C154.937 24.4406 153.856 22.0804 149.72 22.0804C148.79 22.0635 147.871 22.2888 147.054 22.7342C146.237 23.1797 145.55 23.8301 145.06 24.6214C144.617 23.8134 143.956 23.1465 143.151 22.6971C142.347 22.2477 141.432 22.034 140.512 22.0804C139.678 22.0365 138.848 22.2313 138.12 22.6419C137.393 23.0525 136.797 23.6619 136.404 24.3988V22.4375H133.705L133.724 22.4653Z" fill="#000028" fill-opacity="0.55"/>
<path d="M129.449 46.6727C129.449 47.8504 129.477 48.3002 130.724 48.4393V48.4949L130.065 49.4733C129.087 49.413 128.104 49.1116 128.104 47.9153V45.5413C127.642 45.7497 127.159 45.9053 126.662 46.005L126.634 46.0111C125.927 46.1671 125.137 46.3415 125.137 47.2523C125.137 48.175 125.976 48.4764 126.773 48.4764C127.139 48.4574 127.501 48.3888 127.849 48.2724L126.968 49.3898C126.71 49.4415 126.448 49.4679 126.184 49.4686H126.05C125.745 49.483 125.44 49.4369 125.153 49.3332C124.866 49.2295 124.602 49.0701 124.377 48.8641C124.152 48.6582 123.969 48.4098 123.84 48.1332C123.711 47.8566 123.638 47.5573 123.625 47.2523C123.625 45.6788 125.058 45.4061 126.303 45.1692C127.259 44.9872 128.104 44.8263 128.104 44.1132C128.104 43.3713 127.223 43.1349 126.662 43.1349C125.947 43.1761 125.25 43.3807 124.626 43.733L125.605 42.2307L126.588 42.1426C128.201 42.1426 129.449 42.6063 129.449 44.4192V46.6727Z" fill="#000028" fill-opacity="0.55"/>
<path d="M133.168 42.3423V42.3887C133.765 42.7282 133.756 43.2338 133.746 43.813C133.744 43.8903 133.743 43.9689 133.743 44.0486V47.6838C133.743 47.7681 133.744 47.8503 133.746 47.9304C133.756 48.5251 133.765 49.0047 133.168 49.3438V49.3902H135.737V49.3438C135.131 48.9992 135.138 48.4837 135.146 47.9003C135.147 47.8323 135.148 47.7628 135.148 47.6931V45.0084C135.148 44.0811 135.384 43.1537 136.785 43.1537C138.185 43.1537 138.639 44.0069 138.639 45.6529V47.7348C138.639 47.8081 138.64 47.8801 138.641 47.9505C138.649 48.5485 138.656 49.0407 138.05 49.3809V49.4319H140.628V49.3809C140.022 49.0405 140.03 48.5253 140.038 47.942C140.039 47.874 140.04 47.8045 140.04 47.7348V45.5092C140.141 44.7159 140.009 43.9103 139.659 43.1908C139.377 42.8441 139.019 42.5678 138.611 42.3835C138.204 42.1992 137.76 42.1121 137.313 42.129C136.887 42.1306 136.468 42.2403 136.096 42.4479C135.724 42.6555 135.41 42.9542 135.185 43.316V42.129C134.861 42.2824 134.504 42.351 134.146 42.3284L133.168 42.3423Z" fill="#000028" fill-opacity="0.55"/>
<path d="M144.666 47.1361V46.2922H144.74C145.18 46.6724 145.76 47.2334 146.479 47.9382C147.452 48.9166 148.069 49.5055 148.333 49.7234C148.767 49.6153 149.19 49.471 149.599 49.2922V48.9954C149.481 48.9874 149.366 48.9608 149.256 48.9166C149.151 48.8736 149.055 48.8106 148.973 48.7311C148.797 48.5967 148.255 48.1144 147.374 47.2891C147.196 47.138 146.72 46.6464 145.947 45.8469L145.844 45.7404C146.61 45.1098 147.416 44.5276 148.255 43.997C148.432 43.8733 148.638 43.7981 148.853 43.7791H149.099V43.2598H147.759L146.776 44.1547C146.436 44.516 146.219 44.7237 146.044 44.8912C145.955 44.9773 145.876 45.0527 145.797 45.133C145.489 45.4247 145.16 45.6943 144.814 45.9398H144.735V39.8286C144.735 39.7405 144.698 39.6895 144.629 39.6895L143.961 39.9074C143.44 40.0587 142.903 40.1505 142.361 40.1809V40.5658H142.922C143.224 40.5658 143.442 40.6122 143.442 40.7188C143.544 41.5384 143.576 42.3651 143.539 43.1902V47.1732C143.572 47.8051 143.543 48.4388 143.451 49.065C143.381 49.1948 143.187 49.2643 142.844 49.2643H142.449V49.6446H145.844V49.2319H145.44C145.069 49.2319 144.842 49.1531 144.777 49.0186C144.661 48.3982 144.624 47.7658 144.666 47.1361Z" fill="#000028" fill-opacity="0.55"/>
</g>
<defs>
<clipPath id="clip0_6474_99831">
<rect width="172" height="40.0012" fill="white" transform="translate(0 12)"/>
</clipPath>
</defs>
</svg>
