<svg width="192" height="64" viewBox="0 0 192 64" fill="none" xmlns="http://www.w3.org/2000/svg">
<rect width="192" height="64" fill="#000028" fill-opacity="0.02"/>
<path d="M58.2969 20.5056V44.5006H59.1204L59.1386 20.5117L58.2969 20.5056Z" fill="#000028" fill-opacity="0.55"/>
<path d="M48.2871 36.9487C48.2871 36.9487 52.4504 38.5289 51.9338 44.4396H51.9915C52.1647 44.0658 54.5958 38.8723 50.7426 36.4716C51.1714 35.2331 51.2725 33.9047 51.0361 32.6155C50.7997 31.3263 50.2337 30.1203 49.3933 29.1145C47.9103 27.2912 45.23 25.5924 40.2341 26.3066C40.2341 26.3066 34.0987 16.0656 24.59 22.7845C24.7906 23.4609 24.8258 24.1756 24.6925 24.8684C24.5592 25.5612 24.2614 26.2118 23.8242 26.7655C25.2646 25.9328 32.1507 19.5299 39.5929 27.1635C39.5929 27.1635 51.3655 26.0756 48.2446 36.9305L48.2871 36.9487Z" fill="#000028" fill-opacity="0.55"/>
<path d="M33.4492 37.5969C33.4492 37.5969 36.4699 33.9502 39.9007 37.293C40.6216 36.4747 41.5903 35.9147 42.6592 35.6985C43.7281 35.4823 44.8383 35.6218 45.8205 36.0957C47.4858 36.828 49.8348 39.2166 47.2123 44.3006H47.1454C47.1454 44.3006 48.2181 39.9976 45.0881 38.0497C43.83 37.2596 41.5174 37.4237 39.2018 39.9642C39.2018 39.9642 38.1017 37.9311 36.2541 38.4994C36.3089 40.6022 35.7571 42.6763 34.6648 44.4739H34.607C34.607 44.4739 35.6828 39.8305 33.4492 37.5969Z" fill="#000028" fill-opacity="0.55"/>
<path d="M22.1695 38.5956C22.1695 38.5956 26.035 35.4655 29.247 36.9303C31.2952 37.8419 31.8362 40.3763 31.4381 44.3147H31.4958C31.7997 43.6249 35.5922 36.5717 29.8305 34.4323C28.7395 34.0251 27.208 33.9005 24.4517 34.9155L21.814 27.531C21.814 27.531 25.8769 22.0276 19.1914 20.7634V20.812C19.8387 21.1797 23.8196 23.702 19.3646 26.7166L22.1695 38.5956Z" fill="#000028" fill-opacity="0.55"/>
<path d="M71.0138 24.4154C71.9066 24.4008 72.7974 24.5029 73.6637 24.7193C74.3138 24.877 74.9269 25.1598 75.4688 25.552C75.9267 25.9007 76.2859 26.3625 76.5111 26.8921C76.7359 27.4586 76.8484 28.0634 76.8423 28.6729C76.8442 29.0495 76.7858 29.424 76.6691 29.7821C76.5482 30.1433 76.3652 30.4806 76.1282 30.7788C75.8717 31.1042 75.5638 31.3855 75.2166 31.6115C74.8154 31.8798 74.3786 32.0905 73.919 32.2375C76.2103 32.7197 77.3539 33.9352 77.3498 35.8842C77.3585 36.5343 77.2279 37.1788 76.9669 37.7743C76.7075 38.3464 76.3233 38.8531 75.8426 39.2573C75.3036 39.6966 74.6843 40.0269 74.0192 40.2298C73.2116 40.4789 72.3693 40.5969 71.5243 40.5792H65.6289V24.4154H71.0138ZM68.2606 26.4728V31.5264H70.8892C71.7705 31.5876 72.6476 31.3592 73.3871 30.8761C73.6645 30.6525 73.8846 30.3661 74.0294 30.0406C74.1742 29.7151 74.2394 29.3598 74.2198 29.0041C74.2535 28.6421 74.2002 28.2773 74.0643 27.9401C73.9285 27.6028 73.714 27.3029 73.4388 27.0653C72.7141 26.6083 71.8622 26.3953 71.0077 26.4576L68.2606 26.4728ZM71.5152 38.5128C72.0227 38.5253 72.5288 38.4545 73.0134 38.3031C73.3838 38.1898 73.725 37.9969 74.0132 37.7379C74.2655 37.5095 74.4593 37.224 74.5784 36.9052C74.6973 36.5686 74.757 36.2138 74.7546 35.8568C74.77 35.517 74.7073 35.1782 74.5714 34.8663C74.4355 34.5545 74.23 34.2779 73.9706 34.0578C73.2408 33.5525 72.3566 33.3201 71.4727 33.4014H68.2271V38.528L71.5152 38.5128Z" fill="#000028" fill-opacity="0.55"/>
<path d="M78.6011 30.7275C79.8499 29.5442 81.5121 28.8964 83.2323 28.9224C83.8336 28.9102 84.431 29.0198 84.9888 29.2445C85.483 29.4447 85.9241 29.7567 86.2773 30.1562C86.6472 30.5582 86.9306 31.032 87.1099 31.548C87.2999 32.1222 87.3934 32.724 87.3865 33.3288V40.6069H86.2773C86.0938 40.6132 85.9115 40.5757 85.7455 40.4975C85.6016 40.3889 85.4953 40.238 85.4416 40.066L85.2015 39.1331C84.9381 39.3824 84.6601 39.6158 84.3689 39.832C84.0917 40.0328 83.7967 40.2077 83.4876 40.3547C83.173 40.5006 82.8426 40.6097 82.503 40.6798C82.1242 40.7498 81.7395 40.7834 81.3543 40.7801C80.9143 40.7867 80.4761 40.722 80.0567 40.5887C79.6746 40.4748 79.3219 40.2788 79.0235 40.0143C78.7249 39.7508 78.4892 39.4237 78.3337 39.0571C78.1511 38.6313 78.063 38.171 78.0754 37.7078C78.0759 37.2538 78.1998 36.8084 78.434 36.4193C78.7214 35.9441 79.1292 35.5531 79.6161 35.2858C80.284 34.8992 81.0077 34.6183 81.7615 34.4532C82.8393 34.2136 83.9394 34.0883 85.0435 34.0794V33.3197C85.0923 32.661 84.906 32.0064 84.5178 31.472C84.3159 31.2627 84.0698 31.1011 83.7975 30.9991C83.5251 30.8971 83.2334 30.8572 82.9436 30.8825C82.5455 30.8715 82.1486 30.9302 81.7706 31.0557C81.4827 31.1559 81.2041 31.2809 80.938 31.4295C80.704 31.5632 80.4973 31.6878 80.3302 31.8063C80.16 31.9194 79.9602 31.9797 79.7559 31.9795C79.6037 31.9863 79.454 31.9389 79.3335 31.8458C79.2185 31.766 79.1221 31.6624 79.0508 31.5419L78.6011 30.7275ZM85.004 35.5897C84.2759 35.6111 83.55 35.6811 82.8312 35.7994C82.3358 35.8785 81.852 36.0183 81.3908 36.2157C81.0769 36.3424 80.8036 36.5526 80.6007 36.8235C80.4401 37.0463 80.3549 37.3147 80.3576 37.5893C80.3547 37.8264 80.398 38.0617 80.4852 38.2822C80.5659 38.4627 80.6877 38.6219 80.8407 38.7471C81.0004 38.8743 81.1845 38.9674 81.3817 39.0206C81.6045 39.0806 81.8346 39.1093 82.0654 39.1057C82.6418 39.1279 83.2145 39.0046 83.7307 38.7471C84.224 38.4826 84.669 38.1363 85.0465 37.723L85.004 35.5897Z" fill="#000028" fill-opacity="0.55"/>
<path d="M91.6429 30.6508C91.8845 30.4028 92.1434 30.1723 92.4178 29.961C92.6769 29.7565 92.9559 29.5783 93.2504 29.4292C93.885 29.1081 94.5875 28.9444 95.2986 28.9521C95.8678 28.9372 96.4338 29.0407 96.9609 29.256C97.4309 29.4523 97.8475 29.7575 98.1764 30.1464C98.5116 30.5495 98.7608 31.0169 98.9088 31.5199C99.0797 32.0927 99.1637 32.6878 99.158 33.2855V40.5788H96.7603V33.2855C96.8007 32.6419 96.6124 32.0047 96.2285 31.4865C96.0183 31.2602 95.7586 31.0854 95.4698 30.9758C95.181 30.8662 94.8707 30.8246 94.5632 30.8544C94.0409 30.8461 93.5251 30.9716 93.0651 31.2191C92.5804 31.4862 92.1414 31.8289 91.7644 32.2341V40.5606H89.3516V29.1375H90.8163C90.9576 29.1258 91.0983 29.1655 91.2128 29.2492C91.3272 29.3329 91.4076 29.4551 91.4393 29.5933L91.6429 30.6508Z" fill="#000028" fill-opacity="0.55"/>
<path d="M103.613 23.9665V33.6089H104.126C104.266 33.6127 104.405 33.59 104.536 33.542C104.664 33.4733 104.774 33.3767 104.858 33.2594L108.074 29.5885C108.171 29.4496 108.296 29.3326 108.441 29.2451C108.601 29.1662 108.777 29.1295 108.955 29.1387H111.146L107.293 33.4934C107.088 33.7676 106.837 34.0041 106.551 34.1924C106.697 34.2931 106.83 34.4103 106.949 34.5418C107.066 34.6852 107.175 34.8354 107.274 34.9916L111.438 40.5953H109.283C109.105 40.6005 108.927 40.5629 108.766 40.4859C108.611 40.4103 108.482 40.2882 108.399 40.1364L105.056 35.6419C104.974 35.5022 104.857 35.3869 104.716 35.3076C104.555 35.2567 104.386 35.2341 104.217 35.2408H103.609V40.5861H101.215V23.9331L103.613 23.9665Z" fill="#000028" fill-opacity="0.55"/>
<path d="M122.427 24.4173C123.353 24.4017 124.275 24.5288 125.162 24.7941C125.862 25.0049 126.511 25.3588 127.067 25.8334C127.571 26.2681 127.961 26.8202 128.201 27.441C128.699 28.784 128.699 30.2612 128.201 31.6042C127.946 32.2421 127.546 32.8121 127.034 33.2695C126.469 33.7525 125.813 34.1173 125.104 34.3423C124.24 34.6162 123.337 34.7486 122.43 34.7343H120.023V40.5628H117.395V24.4173H122.427ZM122.427 32.6618C122.949 32.6709 123.47 32.5949 123.968 32.4369C124.38 32.307 124.761 32.0905 125.083 31.8018C125.378 31.5265 125.607 31.1877 125.751 30.8111C125.906 30.393 125.981 29.9499 125.973 29.5044C125.98 29.0733 125.906 28.6448 125.758 28.2402C125.615 27.8752 125.39 27.5478 125.101 27.283C124.778 27.0048 124.4 26.7977 123.992 26.6752C123.483 26.5296 122.956 26.459 122.427 26.4655H120.023V32.6527L122.427 32.6618Z" fill="#000028" fill-opacity="0.55"/>
<path d="M131.06 35.06C131.082 35.6267 131.185 36.1874 131.364 36.7253C131.519 37.1589 131.753 37.5598 132.054 37.9075C132.339 38.2178 132.693 38.4572 133.087 38.6064C133.519 38.7672 133.976 38.8465 134.437 38.8404C134.848 38.8477 135.258 38.7914 135.652 38.6733C135.959 38.5799 136.257 38.4599 136.542 38.3147C136.801 38.1901 137.017 38.0655 137.199 37.9561C137.345 37.8587 137.516 37.8039 137.691 37.7981C137.779 37.7953 137.866 37.8143 137.944 37.8536C138.023 37.8929 138.091 37.9511 138.141 38.0229L138.825 38.9042C138.547 39.2292 138.221 39.51 137.858 39.7369C137.5 39.9683 137.117 40.1589 136.716 40.3051C136.31 40.4426 135.893 40.5443 135.47 40.609C135.056 40.6666 134.639 40.697 134.221 40.7002C133.467 40.7074 132.718 40.5723 132.015 40.3021C131.348 40.0412 130.746 39.6402 130.249 39.126C129.732 38.5719 129.335 37.9171 129.082 37.2024C128.788 36.3548 128.647 35.4617 128.666 34.5647C128.66 33.8071 128.787 33.0544 129.039 32.3402C129.277 31.6785 129.642 31.0703 130.115 30.5503C130.591 30.0276 131.173 29.6131 131.823 29.3348C133.17 28.7754 134.676 28.7364 136.05 29.2254C136.633 29.4465 137.162 29.7906 137.6 30.2343C138.048 30.6984 138.394 31.2512 138.615 31.8571C138.878 32.5602 139.004 33.3068 138.989 34.0572C139.01 34.3158 138.967 34.5758 138.864 34.8139C138.812 34.882 138.743 34.9354 138.665 34.9689C138.586 35.0025 138.5 35.015 138.414 35.0053L131.06 35.06ZM136.834 33.5771C136.837 33.1924 136.779 32.8097 136.661 32.4436C136.555 32.1087 136.382 31.7986 136.153 31.5319C135.923 31.2721 135.639 31.0649 135.321 30.9241C134.786 30.7166 134.206 30.6565 133.641 30.7501C133.075 30.8436 132.545 31.0874 132.106 31.4559C131.561 32.0399 131.224 32.7879 131.148 33.5831L136.834 33.5771Z" fill="#000028" fill-opacity="0.55"/>
<path d="M142.896 23.9678V33.6102H143.41C143.547 33.614 143.683 33.5913 143.811 33.5433C143.94 33.4764 144.052 33.3795 144.136 33.2607L147.348 29.5897C147.449 29.4503 147.577 29.3333 147.725 29.2463C147.885 29.167 148.063 29.1304 148.242 29.14H150.387L146.525 33.4947C146.318 33.7667 146.067 34.0028 145.783 34.1936C145.928 34.2937 146.059 34.411 146.175 34.5431C146.292 34.6872 146.4 34.8373 146.5 34.9929L150.664 40.5965H148.506C148.335 40.5998 148.165 40.5655 148.008 40.4963C147.853 40.4199 147.724 40.2979 147.64 40.1468L144.297 35.6492C144.218 35.5119 144.103 35.3977 143.966 35.318C143.802 35.2672 143.63 35.2446 143.459 35.2511H142.884V40.5965H140.453V23.9435L142.896 23.9678Z" fill="#000028" fill-opacity="0.55"/>
<path d="M151.111 30.7276C152.355 29.543 154.014 28.8947 155.731 28.9225C156.332 28.91 156.929 29.0196 157.487 29.2446C157.984 29.4463 158.429 29.758 158.788 30.1562C159.138 30.5652 159.406 31.0377 159.578 31.5481C159.768 32.122 159.861 32.7241 159.851 33.3288V40.6069H158.778C158.595 40.6136 158.413 40.5761 158.247 40.4976C158.102 40.3899 157.995 40.2386 157.943 40.066L157.709 39.1331C157.446 39.3831 157.168 39.6166 156.876 39.832C156.6 40.0345 156.305 40.2096 155.995 40.3547C155.683 40.5006 155.356 40.6097 155.019 40.6799C154.639 40.7497 154.252 40.7833 153.865 40.7802C153.427 40.7867 152.99 40.7221 152.573 40.5887C152.19 40.4788 151.836 40.2856 151.537 40.0229C151.237 39.7602 151 39.4346 150.841 39.0693C150.662 38.6425 150.574 38.1829 150.583 37.72C150.589 37.2668 150.713 36.823 150.941 36.4315C151.225 35.9584 151.627 35.5677 152.108 35.298C152.776 34.9114 153.5 34.6305 154.254 34.4654C155.331 34.2258 156.432 34.1005 157.536 34.0916V33.3319C157.584 32.6732 157.398 32.0186 157.01 31.4842C156.813 31.2751 156.572 31.1122 156.305 31.0071C156.037 30.902 155.75 30.8574 155.463 30.8765C155.067 30.8651 154.672 30.9237 154.296 31.0497C154.007 31.149 153.729 31.2751 153.464 31.4265C153.23 31.5602 153.032 31.6848 152.856 31.8003C152.685 31.9129 152.486 31.974 152.281 31.9765C152.131 31.9819 151.984 31.9346 151.865 31.8428C151.745 31.7622 151.642 31.659 151.561 31.5389L151.111 30.7276ZM157.493 35.5898C156.765 35.6108 156.039 35.6809 155.32 35.7994C154.825 35.8785 154.341 36.0184 153.88 36.2158C153.551 36.3361 153.262 36.5468 153.047 36.8235C152.891 37.0484 152.806 37.3154 152.804 37.5893C152.8 37.8262 152.842 38.0617 152.929 38.2822C153.011 38.4651 153.137 38.6249 153.296 38.7472C153.452 38.8747 153.634 38.968 153.828 39.0207C154.051 39.0807 154.281 39.1093 154.512 39.1057C155.074 39.1219 155.632 38.9987 156.135 38.7472C156.628 38.4826 157.073 38.1363 157.451 37.7231L157.493 35.5898Z" fill="#000028" fill-opacity="0.55"/>
<path d="M166.838 28.9539C167.623 28.9453 168.403 29.0866 169.135 29.3702C169.8 29.6337 170.399 30.0381 170.892 30.5553C171.397 31.0852 171.786 31.7144 172.034 32.403C172.554 33.9956 172.554 35.7121 172.034 37.3047C171.792 37.9927 171.413 38.6244 170.919 39.1614C170.426 39.6775 169.827 40.0807 169.163 40.3436C167.677 40.8996 166.041 40.8996 164.556 40.3436C163.892 40.0807 163.293 39.6775 162.799 39.1614C162.303 38.6249 161.92 37.9933 161.675 37.3047C161.155 35.7121 161.155 33.9956 161.675 32.403C161.92 31.7172 162.303 31.0886 162.799 30.5553C163.289 30.0417 163.883 29.6378 164.541 29.3702C165.273 29.0869 166.053 28.9456 166.838 28.9539ZM166.838 38.8727C167.278 38.9057 167.719 38.8285 168.122 38.6481C168.525 38.4677 168.876 38.1898 169.144 37.8395C169.647 36.9278 169.91 35.9038 169.91 34.863C169.91 33.8221 169.647 32.7981 169.144 31.8864C168.879 31.5323 168.528 31.2507 168.125 31.0675C167.722 30.8843 167.279 30.8053 166.838 30.8379C166.393 30.8054 165.947 30.8842 165.54 31.0672C165.133 31.2503 164.778 31.5318 164.507 31.8864C164.005 32.7981 163.741 33.8221 163.741 34.863C163.741 35.9038 164.005 36.9278 164.507 37.8395C164.781 38.1899 165.137 38.4674 165.543 38.6476C165.95 38.8278 166.394 38.9051 166.838 38.8727Z" fill="#000028" fill-opacity="0.55"/>
</svg>
