<svg width="186" height="64" viewBox="0 0 186 64" fill="none" xmlns="http://www.w3.org/2000/svg">
<rect width="186" height="64" fill="#000028" fill-opacity="0.02"/>
<path d="M69.7062 38.8887C67.1935 38.8887 66 38.2819 66 36.6837V27.1659C66 24.6069 68.4289 24.7586 69.5177 24.7586C73.1192 24.7586 74.4174 26.3264 74.4174 28.1167C74.3909 28.8468 74.1237 29.5496 73.6548 30.1227C73.1858 30.6958 72.5397 31.1093 71.8105 31.3028C72.7574 31.3863 73.6375 31.8097 74.2771 32.4894C74.9167 33.1691 75.2694 34.0558 75.2654 34.9744C75.2759 36.9771 73.9149 38.8887 69.7062 38.8887V38.8887ZM69.5701 25.7397C68.6592 25.7397 67.7903 25.8611 67.7903 27.3378V30.9488H69.0885C71.1824 30.9488 72.6481 29.9373 72.6481 28.2279C72.6376 26.8119 71.7268 25.7802 69.5701 25.7802V25.7397ZM69.1618 31.8085H67.7903V36.3196C67.7903 37.3311 68.3137 37.6851 69.7062 37.6851C72.2607 37.6851 73.3705 36.3803 73.3705 34.7923C73.3391 32.9312 72.0513 31.8995 69.1513 31.8995L69.1618 31.8085ZM85.5045 38.6966C85.2906 38.7362 85.0733 38.7565 84.8554 38.7572C84.7402 38.7651 84.6245 38.7486 84.5165 38.7089C84.4085 38.6692 84.3108 38.6072 84.2301 38.5273C84.1494 38.4474 84.0876 38.3515 84.0492 38.2462C84.0107 38.141 83.9965 38.0289 84.0074 37.9177L83.9446 37.4525H83.8085C83.5272 37.905 83.1342 38.2832 82.6647 38.5532C82.1952 38.8233 81.6637 38.9768 81.1179 39C78.8146 39 77.2337 37.3412 77.2337 34.1753C77.2337 30.797 79.537 28.4302 81.924 28.4302C83.0966 28.4302 85.4836 28.7235 85.4836 30.4531V38.7168L85.5045 38.6966ZM83.8294 30.6049C83.8294 29.7653 83.3269 29.3506 81.9449 29.3506C80.563 29.3506 78.9507 30.6655 78.9507 33.7505C78.9507 36.6028 80.1651 37.6345 81.5576 37.6345C82.0004 37.6119 82.4323 37.4939 82.8218 37.2891C83.2112 37.0844 83.5484 36.798 83.8085 36.4511V30.5644L83.8294 30.6049ZM94.5815 38.7572V31.4241C94.5815 30.352 93.9953 29.2596 92.0689 29.2596C90.1425 29.2596 89.975 29.998 89.975 30.6453V38.737H88.3104V30.0991C88.2801 29.8501 88.3354 29.5983 88.4678 29.3826C88.6003 29.1669 88.8024 28.9993 89.0432 28.9056C90.0338 28.4959 91.1078 28.3091 92.184 28.3594C93.9638 28.3594 96.2881 28.8449 96.2881 31.3938V38.7572H94.6129H94.5815ZM100.56 38.7572H98.8949V24H100.56V33.265L103.941 29.472C104.198 29.1786 104.519 28.9439 104.881 28.7847C105.243 28.6255 105.637 28.5459 106.035 28.5516C106.232 28.5507 106.429 28.571 106.621 28.6123L103.481 32.0715C103.064 32.6317 102.468 33.044 101.785 33.2448V33.5988C102.163 33.6654 102.523 33.8056 102.843 34.0107C103.163 34.2159 103.437 34.4818 103.648 34.7923L107.051 38.7572C106.825 38.8121 106.593 38.8393 106.36 38.8382C105.984 38.8629 105.607 38.8058 105.258 38.671C104.908 38.5362 104.594 38.3271 104.339 38.0593C103.554 37.1288 100.56 33.4976 100.56 33.4976V38.7572ZM118.044 33.5381C117.656 33.5381 117.07 33.4572 116.724 33.4167V38.7572H114.882V27.3581C114.882 26.7107 114.515 24.7586 118.441 24.7586C121.959 24.7586 123.561 26.65 123.561 29.0169C123.592 31.677 121.844 33.5381 118.044 33.5381V33.5381ZM118.515 25.7802C116.567 25.7802 116.735 26.913 116.735 27.3783V32.4356C117.13 32.4908 117.529 32.5246 117.928 32.5367C120.619 32.5367 121.687 31.1308 121.687 29.0573C121.676 27.267 120.755 25.7802 118.504 25.7802H118.515ZM128.984 38.9494C125.927 38.9494 124.43 36.4309 124.43 33.6089C124.43 30.7869 126.011 28.3493 128.984 28.3493C131.957 28.3493 133.559 30.797 133.559 33.6089C133.559 36.4208 132.031 38.9494 128.984 38.9494ZM128.921 29.29C126.943 29.29 126.168 31.3129 126.168 33.3965C126.168 35.4801 126.974 37.8874 128.995 37.8874C131.015 37.8874 131.811 35.8645 131.811 33.7202C131.811 31.5759 131.005 29.3001 128.921 29.3001V29.29ZM135.59 38.7572V24.0607H137.286V38.7572H135.59ZM147.012 35.9252C147.012 37.7458 145.411 38.8584 143.306 38.8989C141.526 38.8989 139.38 37.9582 139.38 35.7937V35.7229C139.523 35.7129 139.667 35.7129 139.809 35.7229C140.153 35.7112 140.492 35.8019 140.781 35.9829C141.069 36.1639 141.293 36.4262 141.422 36.7343C141.588 37.1031 141.859 37.4187 142.204 37.6443C142.549 37.8699 142.953 37.9963 143.369 38.0088C143.875 38.0337 144.371 37.8651 144.749 37.5395C145.127 37.2139 145.357 36.7575 145.39 36.269C145.39 33.7707 139.747 34.2461 139.747 31.2117C139.747 29.472 141.307 28.4403 143.285 28.4403C145.002 28.4403 146.74 29.2191 146.74 31.1612C146.554 31.2265 146.356 31.2538 146.159 31.2412C145.962 31.2285 145.769 31.1763 145.594 31.0878C145.418 30.9993 145.264 30.8764 145.141 30.7271C145.017 30.5778 144.927 30.4053 144.877 30.2205C144.741 29.9416 144.526 29.7055 144.258 29.5391C143.989 29.3727 143.678 29.2828 143.359 29.2798H143.223C142.984 29.2499 142.742 29.2689 142.512 29.3357C142.282 29.4025 142.069 29.5155 141.887 29.6673C141.705 29.8191 141.558 30.0064 141.456 30.2167C141.355 30.4271 141.3 30.6559 141.296 30.8881C141.307 33.2245 147.012 32.6885 147.012 35.9252ZM150.813 38.7572H149.159V24H150.813V33.265L154.194 29.472C154.451 29.1786 154.772 28.9439 155.134 28.7847C155.497 28.6255 155.891 28.5459 156.288 28.5516C156.486 28.5507 156.682 28.571 156.875 28.6123L153.734 32.0715C153.316 32.6312 152.721 33.0433 152.038 33.2448V33.5988C152.416 33.666 152.776 33.8063 153.096 34.0115C153.416 34.2166 153.69 34.4822 153.901 34.7923L157.346 38.7572C157.12 38.8121 156.888 38.8393 156.655 38.8382C156.279 38.8629 155.902 38.8058 155.553 38.671C155.203 38.5362 154.889 38.3271 154.634 38.0593C153.849 37.1288 150.813 33.4976 150.813 33.4976V38.7572V38.7572ZM159.785 26.7512C159.544 26.7511 159.308 26.6815 159.107 26.5511C158.907 26.4208 158.751 26.2358 158.66 26.0196C158.57 25.8034 158.547 25.566 158.597 25.3376C158.646 25.1092 158.765 24.9003 158.938 24.7374C159.111 24.5746 159.33 24.4653 159.568 24.4236C159.806 24.3818 160.051 24.4094 160.272 24.5028C160.493 24.5963 160.681 24.7514 160.81 24.9483C160.94 25.1452 161.006 25.375 161 25.6082C160.998 25.7605 160.966 25.911 160.904 26.0511C160.842 26.1912 160.752 26.318 160.639 26.4242C160.526 26.5305 160.392 26.6141 160.246 26.6702C160.099 26.7263 159.943 26.7539 159.785 26.7512ZM158.937 38.7572V28.6426H160.633V38.7572H158.937Z" fill="#000028" fill-opacity="0.55"/>
<path d="M37.0954 17.5292C39.7066 17.5292 41.8235 15.4146 41.8235 12.8061C41.8235 10.1976 39.7066 8.08301 37.0954 8.08301C34.4841 8.08301 32.3672 10.1976 32.3672 12.8061C32.3672 15.4146 34.4841 17.5292 37.0954 17.5292Z" fill="#000028" fill-opacity="0.55"/>
<path fill-rule="evenodd" clip-rule="evenodd" d="M37.1103 31.0726C43.3743 31.0726 48.7458 29.5223 51.0214 27.3616C51.3658 27.0779 51.6473 26.7257 51.8481 26.3274C52.0488 25.9292 52.1644 25.4935 52.1874 25.0482C52.1655 24.6015 52.0504 24.1643 51.8497 23.7646C51.6489 23.3649 51.3668 23.0114 51.0214 22.7268C50.0759 21.8957 48.9857 21.245 47.805 20.8071C44.3777 19.5595 40.7493 18.9549 37.1023 19.0238C31.4735 19.0238 26.6488 20.309 24.0033 22.1003C23.3588 22.4851 22.8322 23.0389 22.4806 23.7017C22.129 24.3644 21.966 25.1107 22.0091 25.8595V42.6233C21.9444 43.7307 22.2253 44.8309 22.8132 45.772C23.6156 47.1238 24.7469 48.2511 26.102 49.0493L26.2066 49.1055V29.2171L26.3272 29.2653C29.7697 30.5312 33.4185 31.1441 37.0862 31.0726H37.1103ZM30.7176 24.8474C30.6319 24.7493 30.5835 24.6242 30.5809 24.494C30.5896 24.3197 30.6479 24.1514 30.7491 24.0091C30.8502 23.8668 30.99 23.7563 31.1519 23.6907C31.3133 23.6291 31.4858 23.6018 31.6584 23.6104H42.7552C42.9388 23.611 43.12 23.6522 43.2859 23.7309C43.4478 23.7965 43.5875 23.907 43.6887 24.0493C43.7898 24.1916 43.8482 24.3598 43.8568 24.5341C43.8542 24.6643 43.8058 24.7894 43.7201 24.8876C43.6438 24.9743 43.5498 25.0435 43.4443 25.0907C43.3389 25.1378 43.2245 25.1617 43.109 25.1607H31.3288C31.2107 25.1577 31.0948 25.1289 30.9891 25.0761C30.8835 25.0234 30.7908 24.948 30.7176 24.8554V24.8474Z" fill="#000028" fill-opacity="0.55"/>
<path d="M39.2896 49.2094V44.3899C39.2687 43.7022 38.9811 43.0497 38.4874 42.57C37.9937 42.0904 37.3327 41.8212 36.6441 41.8195V41.3295C37.3716 41.2639 38.049 40.9311 38.5451 40.3955C39.0412 39.8598 39.3208 39.1594 39.3298 38.4298V35.0641C39.3174 34.3108 39.4094 33.5593 39.6032 32.8311V32.7347H39.5067C39.3069 32.7347 39.0643 32.7442 38.7945 32.7548C38.4562 32.768 38.075 32.7829 37.6814 32.7829C36.636 32.7829 35.5022 32.7829 34.8831 32.6865H34.8268V32.7428C34.5726 33.5203 34.4503 34.3347 34.4649 35.1525V38.976C34.4629 39.4279 34.2846 39.8611 33.9677 40.1837C33.6508 40.5062 33.2205 40.6925 32.7682 40.7029V32.4777H32.6959C31.1006 32.2939 29.5275 31.9522 27.9999 31.4576L27.9114 31.3772V50.1491H27.9516C29.4597 50.8213 31.0492 51.2939 32.6798 51.5548H32.7602V42.0122C33.2138 42.0186 33.6465 42.2036 33.9643 42.527C34.282 42.8504 34.459 43.2861 34.4569 43.7392V48.9362C34.4567 49.9177 34.6309 50.8913 34.9715 51.8119V51.852H35.0117C35.1621 51.852 35.3583 51.8631 35.5876 51.8761C35.9101 51.8943 36.2982 51.9163 36.7164 51.9163C37.6807 51.9249 38.6446 51.8766 39.6032 51.7717H39.6997V51.6914C39.4201 50.894 39.2813 50.0542 39.2896 49.2094Z" fill="#000028" fill-opacity="0.55"/>
<path fill-rule="evenodd" clip-rule="evenodd" d="M51.6578 30.1687C51.7276 30.2924 51.7633 30.4324 51.7613 30.5743V43.0648C51.7005 44.0816 51.417 45.0726 50.9306 45.9678C50.4443 46.863 49.7671 47.6407 48.9469 48.2458C47.0292 49.7101 44.8233 50.7531 42.4738 51.3061C42.391 51.3146 42.3074 51.3146 42.2246 51.3061C41.9025 51.3061 41.5937 51.1784 41.366 50.9509C41.1383 50.7234 41.0104 50.4149 41.0104 50.0932V33.9801C41.0028 33.6232 41.1262 33.2759 41.3572 33.0037C41.5883 32.7314 41.9111 32.553 42.2648 32.5021C45.1719 32.1635 47.9865 31.269 50.5551 29.8674C50.6782 29.7964 50.8179 29.7593 50.96 29.7598C51.1021 29.7603 51.2416 29.7984 51.3642 29.8702C51.4868 29.942 51.5881 30.045 51.6578 30.1687ZM47.5558 45.836V34.5905H47.5317C47.539 34.5372 47.539 34.4832 47.5317 34.4299C47.4749 34.2809 47.3714 34.1542 47.2366 34.0688C47.1018 33.9834 46.943 33.9438 46.7839 33.956C46.6931 33.9442 46.6012 33.9442 46.5105 33.956C46.3402 33.988 46.1847 34.074 46.0674 34.2014C45.95 34.3288 45.877 34.4906 45.8591 34.6628V46.3421C45.8544 46.4471 45.8825 46.5509 45.9396 46.6393C46.0902 46.7889 46.294 46.8728 46.5065 46.8728C46.7189 46.8728 46.9227 46.7889 47.0734 46.6393C47.2131 46.5546 47.33 46.4373 47.4141 46.2973C47.4982 46.1573 47.5468 45.999 47.5558 45.836Z" fill="#000028" fill-opacity="0.55"/>
</svg>
