<svg width="160" height="64" viewBox="0 0 160 64" fill="none" xmlns="http://www.w3.org/2000/svg">
<rect width="160" height="64" fill="#000028" fill-opacity="0.02"/>
<path d="M47.2959 27.0441V35.9287C47.2959 36.8267 46.775 37.5714 45.4583 37.6129C44.1416 37.6545 43.6174 36.8267 43.6174 35.9287V27.0441H39.4883V35.673C39.4883 38.7666 41.4474 40.1249 45.4583 40.1249C49.4692 40.1249 51.4283 38.7666 51.4283 35.673V27.0441H47.2959Z" fill="#000028" fill-opacity="0.55"/>
<path d="M23.1905 40.0481C22.4951 40.0618 21.8006 39.9899 21.1228 39.834V44.9986H17V27.7599C18.7213 27.0528 20.5732 26.7195 22.4331 26.7819C26.6773 26.7819 29.4641 29.0478 29.4641 33.3623C29.4641 37.4786 26.9074 40.0257 23.1905 40.0257M22.3979 28.9967C21.9638 28.9849 21.5311 29.0498 21.1196 29.1885V37.6768C21.4705 37.7951 21.8391 37.8524 22.2094 37.8461C24.4145 37.8461 25.3733 36.2897 25.3733 33.4134C25.3733 30.5371 24.5807 28.9871 22.3883 28.9871" fill="#000028" fill-opacity="0.55"/>
<path d="M36.3003 21.1877H32.168V39.8837H36.3003V21.1877Z" fill="#000028" fill-opacity="0.55"/>
<path d="M57.8834 40.0964C56.4345 40.1409 54.9975 39.8223 53.7031 39.1696L54.7642 36.8143C55.525 37.2877 56.4057 37.5328 57.3017 37.5206C58.3628 37.5206 59.0787 36.9261 59.0787 36.108C59.0787 35.2898 58.5769 34.7785 57.2538 34.2959C54.6299 33.3691 54.0579 32.0588 54.0579 30.7229C54.0579 28.5369 55.9754 26.7696 58.8198 26.7696C60.247 26.7029 61.6654 27.0255 62.9234 27.7028L61.9167 29.8248C61.2741 29.3954 60.5195 29.1643 59.7466 29.1601C58.6632 29.1601 58.1039 29.7545 58.1039 30.496C58.1039 31.3525 58.8134 31.8255 59.9384 32.2569C62.6741 33.3339 63.3197 34.5644 63.3197 36.0504C63.3197 38.2876 61.2807 40.0964 57.8866 40.0964" fill="#000028" fill-opacity="0.55"/>
<path d="M76.0019 24.082C75.7248 24.0969 75.4544 24.1725 75.2098 24.3033C74.9652 24.4342 74.7522 24.6172 74.5861 24.8394C74.4704 25.0175 74.378 25.2098 74.3112 25.4115C74.2473 25.6096 74.1962 25.8078 74.1482 25.9707C73.9405 26.6355 73.7807 27.2491 73.6465 27.8148C73.6187 27.6771 73.5508 27.5508 73.4512 27.4519C73.3517 27.3529 73.225 27.2856 73.0872 27.2587C72.9003 27.2246 72.7173 27.1721 72.5407 27.1021C72.4365 27.052 72.3298 27.0072 72.2211 26.9679C71.6623 26.8281 71.087 26.7657 70.5113 26.7825C69.5525 26.7825 68.5234 26.9615 68.1047 27.8595C67.8971 28.3016 67.788 28.7836 67.7852 29.2721C67.7852 29.7131 67.9641 29.9816 68.239 29.9816C68.4898 30.0034 68.7423 29.9916 68.99 29.9464C69.2137 29.8889 69.4279 29.825 69.6963 29.7771C70.702 29.6297 71.7264 29.672 72.7165 29.9017C72.815 29.9197 72.9163 29.9144 73.0123 29.8861C73.1084 29.8577 73.1964 29.8073 73.2694 29.7387C73.2118 30.0935 73.1703 30.4482 73.1351 30.739C73.0377 31.7522 72.9992 32.7702 73.0201 33.7879C73.0201 34.6284 73.1479 34.785 73.6593 34.833C73.7923 34.8595 73.9293 34.8595 74.0624 34.8331C74.1954 34.8066 74.322 34.7542 74.4348 34.6788C74.5476 34.6034 74.6444 34.5065 74.7197 34.3937C74.795 34.2809 74.8474 34.1543 74.8737 34.0212C74.8822 33.9737 74.8875 33.9256 74.8897 33.8774C75.338 31.1968 76.1543 28.591 77.3154 26.1337C77.7501 25.1334 77.8971 23.8263 76.037 24.0596M82.3618 29.5789C81.9207 29.3105 81.844 29.1954 81.6107 29.0484C81.082 28.7667 80.5303 28.5304 79.9616 28.3421C79.022 27.981 77.961 27.8116 77.2611 28.5402C76.9048 28.9047 76.6398 29.3482 76.4877 29.8346C76.3694 30.2788 76.4461 30.5984 76.721 30.7262C76.944 30.8358 77.1838 30.9071 77.4305 30.9372C77.6805 30.9314 77.9305 30.9453 78.1783 30.9787C79.235 31.1492 80.2418 31.5484 81.1282 32.1484C81.6683 32.468 82.2339 31.9343 82.544 31.1641C82.854 30.3939 82.8412 29.8857 82.3394 29.6013" fill="#000028" fill-opacity="0.55"/>
<path d="M78.0773 36.3703C78.4257 36.1147 78.7868 35.8462 79.0617 35.6193C79.2762 35.4649 79.4791 35.2951 79.6689 35.1112L79.8319 34.9386L80.0013 34.7852C80.1221 34.6812 80.2503 34.5862 80.3848 34.5008C80.4527 34.4524 80.5347 34.4276 80.6181 34.4304C80.6948 34.4304 81.1902 34.7276 80.6532 35.4851C78.0965 39.0581 76.3451 39.9593 74.0313 40.0904C72.4566 40.1426 70.9032 39.7156 69.5764 38.8659C68.2496 38.0162 67.212 36.7838 66.6008 35.3317C66.4936 34.8919 66.5363 34.4288 66.7221 34.0161C66.908 33.6033 67.2263 33.2643 67.6267 33.053C68.5247 32.6503 68.7708 32.7334 68.921 33.526C69.3812 36.0827 72.1169 37.7701 74.4244 37.5816C75.31 37.5665 76.1853 37.3889 77.0067 37.0575C77.3816 36.8657 77.7389 36.6411 78.0741 36.3863" fill="#000028" fill-opacity="0.55"/>
<path d="M91.2097 39.9981C89.4727 40.0692 87.7433 39.7321 86.1602 39.0138V20.9985H90.6856V27.0516C91.3621 26.7902 92.0825 26.6611 92.8077 26.6713C96.141 26.6713 98.1928 29.0043 98.1928 32.7435C98.1928 37.4127 95.668 40.0141 91.2321 40.0141M91.6572 29.2823C91.3293 29.272 91.0029 29.3297 90.6984 29.4517V37.2177C90.9623 37.2915 91.2363 37.3228 91.5101 37.3104C93.0122 37.3104 93.7249 35.8946 93.7249 33.2644C93.7249 30.6342 93.0857 29.3015 91.654 29.3015" fill="#000028" fill-opacity="0.55"/>
<path d="M106.228 39.9977C102.274 39.9977 100.223 38.5819 100.223 35.8238C100.223 32.6055 103.54 31.65 107.398 31.2952V30.8158C107.398 29.8379 106.733 29.4001 105.48 29.4001C104.26 29.435 103.059 29.7097 101.945 30.2086L100.986 27.5912C102.649 26.9326 104.418 26.5849 106.205 26.5653C109.516 26.5653 111.661 27.8948 111.661 31.5158V39.0133C109.951 39.7323 108.104 40.0682 106.25 39.9977M107.417 33.347C105.343 33.5611 104.467 34.2546 104.467 35.6321C104.467 36.9104 105.173 37.4921 106.439 37.4921C106.773 37.5115 107.108 37.4535 107.417 37.3227V33.347Z" fill="#000028" fill-opacity="0.55"/>
<path d="M121.93 39.7072V31.0783C121.93 29.9598 121.448 29.3877 120.281 29.3877C119.909 29.3785 119.537 29.4358 119.185 29.5571V39.7072H114.656V27.5628C116.453 26.8868 118.362 26.5613 120.281 26.6041C124.618 26.6041 126.459 28.3234 126.459 31.1103V39.6913L121.93 39.7072Z" fill="#000028" fill-opacity="0.55"/>
<path d="M137.194 39.7073L134.046 33.5808H133.995V39.7073H129.488V20.9985H133.995V32.6763H134.046L137.194 26.863H141.933L137.999 32.8457L142.294 39.7073H137.194Z" fill="#000028" fill-opacity="0.55"/>
</svg>
