<svg width="176" height="64" viewBox="0 0 176 64" fill="none" xmlns="http://www.w3.org/2000/svg">
<rect width="176" height="64" fill="#000028" fill-opacity="0.02"/>
<path d="M34.7797 27.9427C34.7571 27.0238 34.4828 26.1287 33.9867 25.3549L29.8341 18.1441C29.4981 17.6531 29.2826 17.0899 29.205 16.5L29.0491 16.8119C28.5113 17.6835 28.2264 18.6874 28.2264 19.7116C28.2264 20.7357 28.5113 21.7397 29.0491 22.6112L32.3399 28.4132C32.8415 29.2973 33.1052 30.2964 33.1052 31.3129C33.1052 32.3293 32.8415 33.3284 32.3399 34.2125L32.184 34.6037C32.0574 34.0018 31.8465 33.4207 31.5575 32.8777L28.5125 27.2422L26.5511 23.8721C26.2381 23.3657 26.0221 22.8055 25.9141 22.22L25.7582 22.5346C25.2565 23.4187 24.9929 24.4178 24.9929 25.4342C24.9929 26.4507 25.2565 27.4498 25.7582 28.3339L29.0491 34.1332C29.5869 35.0048 29.8717 36.0087 29.8717 37.0329C29.8717 38.057 29.5869 39.061 29.0491 39.9325L28.8931 40.2471C28.7656 39.6454 28.5547 39.0644 28.2666 38.521L24.1907 30.9983C23.6538 30.0419 23.3802 28.9601 23.3977 27.8634C18.9306 29.0397 15.875 31.4688 15.875 34.2892C15.875 38.2091 21.8303 41.5 29.0411 41.5C36.252 41.5 42.2072 38.2858 42.2072 34.2892C42.2865 31.5455 39.2283 29.1163 34.7611 27.9453M47.3246 40.2471C47.3222 39.4137 47.4821 38.5877 47.7951 37.8153C49.2284 38.4426 50.777 38.7632 52.3415 38.7563C54.6147 38.7563 55.947 38.0505 55.947 36.5624C55.947 35.0742 55.0059 34.4478 52.6534 33.4275L51.4005 32.8777C49.0506 31.86 47.4832 30.5278 47.4832 27.9427C47.4832 25.3576 49.4418 23.317 53.4385 23.317C54.9813 23.3153 56.5152 23.5534 57.9849 24.0227C57.9691 24.847 57.8365 25.6649 57.5911 26.4519C56.2842 25.9836 54.9061 25.7448 53.5178 25.7461C51.3212 25.7461 50.3829 26.6105 50.3829 27.9427C50.3829 29.2749 51.3212 29.9014 53.1239 30.6838L54.4456 31.2336C57.5805 32.5552 58.9127 33.9773 58.9127 36.4064C58.9127 39.2268 56.7981 41.1855 52.5689 41.1855C50.8214 41.2688 49.0783 40.9477 47.4753 40.2471M72.1713 28.3339V40.7229H69.7422L69.5862 39.2347C69.2057 39.8162 68.68 40.2884 68.0612 40.6046C67.4423 40.9207 66.7517 41.0699 66.0575 41.0374C62.7666 41.0374 60.5727 38.6876 60.5727 34.5324C60.4243 32.8731 60.9321 31.2218 61.9871 29.9326C63.0421 28.6434 64.5602 27.8189 66.216 27.6361C66.6531 27.558 67.1006 27.558 67.5377 27.6361C69.1057 27.6341 70.6647 27.8721 72.1607 28.3418M69.4171 37.9025V30.1498C68.7734 30.0151 68.1153 29.9618 67.4584 29.9912C64.638 29.9912 63.3058 31.7173 63.3058 34.5376C63.3058 37.358 64.3235 38.8488 66.742 38.8488C67.7098 38.8383 68.6468 38.5074 69.4065 37.9078M86.1013 32.3569V40.7229H83.2784V32.957C83.2784 30.9983 82.6519 30.0494 79.9082 30.0494C79.201 30.0633 78.4951 30.1154 77.7936 30.2053V40.7784H75.1291V28.3339C76.7496 27.9461 78.4026 27.7099 80.0668 27.6281C84.6106 27.6281 86.1013 29.3516 86.1013 32.4098M93.7034 38.6796C94.4248 38.6627 95.1388 38.5297 95.818 38.2858C95.7387 39.0788 95.6621 39.8532 95.5061 40.6383C94.7838 40.9251 94.0096 41.0584 93.2329 41.0295C92.2076 41.1348 91.1818 40.8339 90.3758 40.1915C89.5698 39.549 89.0478 38.6162 88.9218 37.5932V23.7875C89.8151 23.5368 90.7376 23.4053 91.6654 23.3963V28.0986H95.8947C95.8937 28.8878 95.8149 29.6749 95.6594 30.4485H91.5994V36.5624C91.5994 38.1298 92.3923 38.7563 93.714 38.677M108.289 28.3313V40.7229H105.86L105.704 39.2347C105.324 39.816 104.799 40.2881 104.18 40.6042C103.562 40.9204 102.872 41.0697 102.178 41.0374C98.8842 41.0374 96.6903 38.6876 96.6903 34.5324C96.6012 33.7139 96.6746 32.886 96.9063 32.096C97.1379 31.306 97.5233 30.5695 98.0403 29.9288C98.5572 29.2881 99.1956 28.7557 99.9187 28.3623C100.642 27.9689 101.436 27.7221 102.254 27.6361C102.691 27.558 103.139 27.558 103.576 27.6361C105.17 27.6282 106.757 27.8662 108.278 28.3418M105.614 37.9025V30.1498C104.965 30.0544 104.311 30.0014 103.655 29.9912C100.835 29.9912 99.5027 31.7173 99.5027 34.5376C99.5027 37.358 100.52 38.8488 102.939 38.8488C103.902 38.8122 104.831 38.484 105.603 37.9078M122.298 32.3569V40.7229H119.475V32.957C119.475 30.9983 118.849 30.0494 116.105 30.0494C115.398 30.0632 114.692 30.1153 113.99 30.2053V40.7784H111.247V28.3339C112.867 27.9463 114.52 27.71 116.184 27.6281C120.731 27.6281 122.219 29.3516 122.219 32.4098M136.012 23.3963V40.8735H133.503V39.1369C133.151 39.7555 132.637 40.2656 132.015 40.6115C131.393 40.9574 130.688 41.1258 129.977 41.0982C126.686 41.0982 124.492 38.7457 124.492 34.5931C124.414 33.7748 124.498 32.9491 124.739 32.1632C124.98 31.3774 125.374 30.6468 125.898 30.0133C126.422 29.3799 127.066 28.856 127.792 28.4717C128.519 28.0873 129.314 27.8501 130.133 27.7735H131.388C132.07 27.7869 132.751 27.8399 133.426 27.9321V23.7029C134.285 23.4187 135.187 23.2854 136.091 23.3091M133.426 37.8867V30.1498C132.699 30.0428 131.963 30.0162 131.23 30.0705C128.565 30.0705 127.233 31.7939 127.233 34.6169C127.233 37.1254 128.254 38.9255 130.67 38.9255C131.687 38.8488 132.707 38.5343 133.413 37.9078M149.87 35.4786H141.092C141.133 35.9521 141.267 36.4129 141.487 36.8345C141.706 37.2562 142.006 37.6305 142.37 37.9361C142.734 38.2417 143.155 38.4726 143.608 38.6156C144.061 38.7586 144.538 38.8109 145.012 38.7695H145.089C146.607 38.74 148.102 38.3934 149.479 37.7519C149.479 38.4576 149.244 39.396 149.085 40.181C147.821 40.7137 146.461 40.9835 145.089 40.974C140.545 40.974 138.272 38.4682 138.272 34.157C138.272 30.4723 139.995 27.5726 144.306 27.5726C145.671 27.4531 147.027 27.88 148.077 28.7597C149.128 29.6394 149.786 30.8999 149.907 32.2644V33.2054C149.893 33.9126 149.841 34.6185 149.751 35.32M141.129 33.1235H147.163C147.244 32.4 147.046 31.673 146.61 31.0905C146.173 30.508 145.531 30.1139 144.814 29.9886H144.187C142.226 29.9886 141.208 31.0882 140.973 33.2028M159.399 27.7841C159.398 28.5479 159.319 29.3095 159.164 30.0573H157.126C156.419 30.0712 155.713 30.1233 155.011 30.2133V40.7863H152.426V28.3339C153.948 27.8583 155.534 27.6203 157.129 27.6281H159.479" fill="#000028" fill-opacity="0.55"/>
</svg>
