<svg width="168" height="64" viewBox="0 0 168 64" fill="none" xmlns="http://www.w3.org/2000/svg">
<rect width="168" height="64" fill="#000028" fill-opacity="0.02"/>
<path fill-rule="evenodd" clip-rule="evenodd" d="M71.569 31.5596V29.4226C71.1197 29.9007 64.4523 31.4703 64.34 27.0235C64.2335 23.1354 70.4141 23.6077 71.6179 24.5639V22.5104C68.663 21.7242 61.9208 21.0128 61.771 27.0177C61.6529 32.8988 68.6831 32.3487 71.5402 31.5682L71.569 31.5596Z" fill="#007054"/>
<path fill-rule="evenodd" clip-rule="evenodd" d="M83.7153 25.1251C83.7168 24.3812 83.4613 23.6597 82.9922 23.0825C82.523 22.5052 81.869 22.1077 81.1405 21.957H73.6523V31.6916H76.1551V23.5584H79.6112C79.8179 23.5591 80.0225 23.6006 80.2132 23.6805C80.4039 23.7604 80.5769 23.8772 80.7225 24.024C80.868 24.1709 80.9831 24.345 81.0613 24.5364C81.1394 24.7278 81.1791 24.9328 81.178 25.1395C81.178 26.0035 80.5616 26.4182 79.689 26.4182H77.9609C77.215 26.3693 76.7513 28.2413 76.7513 28.2413C77.653 28.2932 78.5569 28.2932 79.4586 28.2413L81.1175 31.6801H83.9313L81.9412 27.5875C83.0442 27.0519 83.747 26.329 83.747 25.1107L83.7153 25.1251Z" fill="#007054"/>
<path fill-rule="evenodd" clip-rule="evenodd" d="M94.8816 21.9678H88.0789H87.762H85.5703V31.6937H87.6094H88.0789H94.8441L95.4489 30.1241H88.0789V23.5345H95.4921L94.8816 21.9678Z" fill="#007054"/>
<path fill-rule="evenodd" clip-rule="evenodd" d="M89.6677 26.0664C88.9217 26.0664 88.5156 27.636 88.5156 27.636H92.637C93.3829 27.636 93.789 26.0664 93.789 26.0664H89.6677Z" fill="#007054"/>
<path fill-rule="evenodd" clip-rule="evenodd" d="M92.8289 19.1455H90.2944L89.5859 20.7007H91.5329L92.8289 19.1455Z" fill="#007054"/>
<path fill-rule="evenodd" clip-rule="evenodd" d="M111.941 21.9678H109.43V31.6937H111.941V21.9678Z" fill="#007054"/>
<path fill-rule="evenodd" clip-rule="evenodd" d="M123.059 23.5581C123.805 23.5581 124.211 21.9885 124.211 21.9885H114.707C114.004 21.9683 113.555 23.5581 113.555 23.5581H117.65V31.7259H120.162V23.5581H123.059Z" fill="#007054"/>
<path fill-rule="evenodd" clip-rule="evenodd" d="M103.085 21.9678H97.1836V31.6937H104.384C106.331 31.2992 107.84 29.2255 107.84 26.8322C107.79 25.5753 107.274 24.3818 106.393 23.4839C105.512 22.5859 104.329 22.0476 103.073 21.9735L103.085 21.9678ZM102.509 30.1241H99.695V23.5576H102.509C104.07 23.5576 105.323 25.0264 105.323 26.8466C105.323 28.6668 104.055 30.1471 102.509 30.1471V30.1241Z" fill="#007054"/>
<path fill-rule="evenodd" clip-rule="evenodd" d="M142.031 38.8877C141.285 38.8877 140.879 40.4544 140.879 40.4544H145.098C145.844 40.4544 146.25 38.8877 146.25 38.8877H142.031Z" fill="#007054"/>
<path fill-rule="evenodd" clip-rule="evenodd" d="M140.597 44.5209H147.403L148.008 42.9512H140.597V36.3617H147.734L147.129 34.7949H140.597H140.013H138.086V44.5209H140.168H140.597Z" fill="#007054"/>
<path fill-rule="evenodd" clip-rule="evenodd" d="M131.496 44.5217H136.222L136.833 42.9521H131.496V34.7871H128.984V44.5217H130.165H131.496Z" fill="#007054"/>
<path fill-rule="evenodd" clip-rule="evenodd" d="M121.317 34.4795C117.962 34.4795 115.246 36.723 115.246 39.4937C115.246 42.2643 117.962 44.5136 121.317 44.5136C124.673 44.5136 127.365 42.27 127.365 39.4937C127.365 36.7173 124.644 34.4795 121.291 34.4795H121.317ZM121.317 42.9613C120.635 42.9911 119.96 42.8184 119.376 42.4648C118.792 42.1112 118.326 41.5926 118.036 40.9745C117.747 40.3563 117.647 39.6663 117.749 38.9914C117.851 38.3164 118.151 37.6869 118.61 37.1821C119.07 36.6773 119.668 36.3199 120.331 36.1549C120.993 35.9899 121.69 36.0248 122.332 36.2551C122.975 36.4854 123.535 36.9008 123.941 37.449C124.348 37.9972 124.584 38.6535 124.618 39.3353C124.618 39.3871 124.618 39.4418 124.618 39.4937C124.637 40.3883 124.301 41.2542 123.684 41.9019C123.066 42.5496 122.218 42.9263 121.323 42.9497L121.317 42.9613Z" fill="#007054"/>
<path fill-rule="evenodd" clip-rule="evenodd" d="M113.945 44.0489V41.8975C113.476 42.3612 106.828 43.9424 106.71 39.4984C106.612 35.6104 112.807 36.0798 113.997 37.0446V34.9969C111.042 34.2049 104.297 33.4935 104.15 39.4984C104.029 45.3795 111.062 44.8294 113.919 44.0489H113.945Z" fill="#007054"/>
<path fill-rule="evenodd" clip-rule="evenodd" d="M102.316 34.7949H99.8047V44.5209H102.316V34.7949Z" fill="#007054"/>
<path fill-rule="evenodd" clip-rule="evenodd" d="M90.3954 36.3631H93.8515C94.2686 36.3676 94.6671 36.5365 94.9605 36.8331C95.2538 37.1297 95.4183 37.53 95.4183 37.9471C95.4183 38.8111 94.7933 39.2316 93.9293 39.2316H92.2013C91.4553 39.2316 90.9628 41.0835 90.9628 41.0835C91.8644 41.1382 92.7685 41.1382 93.6701 41.0835L95.329 44.5396H98.1428L96.1527 40.447C97.2586 39.9113 97.9614 39.1884 97.9614 37.9702C97.9604 37.2292 97.7036 36.5113 97.2345 35.9378C96.7654 35.3642 96.1127 34.9702 95.3866 34.8223H87.8984V44.5137H90.4098L90.3954 36.3631Z" fill="#007054"/>
<path fill-rule="evenodd" clip-rule="evenodd" d="M65.6856 42.3188H68.5858C69.3288 42.3188 69.7378 40.7521 69.7378 40.7521H66.4545L68.2546 37.031L71.8691 44.5192H74.6829L69.9625 34.8076H66.5438L61.832 44.5192H64.6574L65.7259 42.3159L65.6856 42.3188Z" fill="#007054"/>
<path fill-rule="evenodd" clip-rule="evenodd" d="M85.6831 44.1861V38.8666H81.5474C80.8446 38.8666 80.3953 40.4363 80.3953 40.4363H83.5317V42.8843C81.3746 43.0888 77.4145 43.3336 77.3223 39.8314C77.2186 35.9491 82.7944 35.4365 85.3462 37.3776V35.3299C81.6482 34.535 74.9031 33.8323 74.7994 39.8314C74.6352 45.7096 82.6159 45.2805 85.6831 44.1861Z" fill="#007054"/>
<path fill-rule="evenodd" clip-rule="evenodd" d="M54.1608 44.9994V42.0732H19.0039V44.9994H54.1608Z" fill="#007054"/>
<path fill-rule="evenodd" clip-rule="evenodd" d="M39.0468 21.0469H44.7292L52.9575 39.8652C52.9575 39.8652 47.8022 40.4412 47.062 38.9291C46.3218 37.4171 41.6619 25.3295 41.6619 25.3295L38.2231 32.1581C38.2231 32.1581 36.8176 34.3671 31.8438 34.3671L39.0468 21.0469Z" fill="#007054"/>
<path fill-rule="evenodd" clip-rule="evenodd" d="M35.7239 24.3509C35.7239 24.3509 36.1674 19.4865 31.3549 20.7451C31.3549 20.7451 24.4859 21.9259 20.6525 27.5161C19.5786 28.8358 19.0363 30.509 19.1319 32.2077C19.1808 33.403 19.3076 40.4361 30.9113 39.8658C38.0654 39.5231 52.5118 31.1248 56.8838 28.3744V24.1061C56.8838 24.1061 43.9724 30.9779 41.6655 32.1098C39.3586 33.2417 31.5536 36.7726 26.741 36.3781C26.741 36.3781 22.6628 36.3291 21.9745 34.0222C21.2862 31.7152 26.1103 27.5881 27.965 26.6089C30.511 25.2668 32.3398 24.253 35.7009 24.3509H35.7239Z" fill="#008D9B"/>
<path fill-rule="evenodd" clip-rule="evenodd" d="M56.8338 18.999V22.3341L50.4976 25.8507C50.4976 25.8507 48.2425 27.3253 47.3555 23.4948C48.2988 23.2671 49.2195 22.9538 50.1059 22.5588L56.8338 19.0537V18.999Z" fill="#EC2030"/>
</svg>
