<svg width="128" height="64" viewBox="0 0 128 64" fill="none" xmlns="http://www.w3.org/2000/svg">
<rect width="128" height="64" fill="#6C113E"/>
<path d="M0 7H50.0005V56.9951H0V7Z" fill="url(#paint0_radial_6474_99710)"/>
<path d="M36.3229 28.3241C37.2067 28.754 38.1694 28.9981 39.1514 29.0411C40.1333 29.0841 41.1136 28.9251 42.0317 28.5741C40.1331 28.9047 38.1853 28.8194 36.3229 28.3241V28.3241ZM40.2154 35.7559C40.2154 35.7559 41.9804 36.0258 42.1067 35.7284C42.1067 35.7284 41.9304 35.5346 40.2154 35.7559ZM41.3542 35.1522C41.3542 35.1522 42.4267 35.3734 42.5029 35.1284C42.5017 35.1247 42.3942 34.9722 41.3529 35.1522H41.3542ZM35.3241 35.5534C35.3241 35.5534 33.3441 35.2059 31.1316 34.576C32.4487 35.1817 33.8749 35.5141 35.3241 35.5534V35.5534ZM27.2365 42.3265C31.2242 43.7056 35.4592 44.2228 39.6617 43.8438C35.4915 43.6036 31.344 43.0631 27.2515 42.2265C26.9928 42.1127 26.8853 42.0052 26.734 41.9552C26.4669 41.8713 26.189 41.8262 25.909 41.8215C25.909 41.8215 26.344 42.0577 26.659 42.1965C26.8446 42.2638 27.0385 42.3058 27.2353 42.3215L27.2365 42.3265ZM36.3616 37.6307C32.9942 37.2384 29.6816 36.4682 26.4865 35.3346C29.6112 36.6932 32.9579 37.4692 36.3616 37.6244V37.6307ZM35.7066 36.5495C33.0966 36.2448 30.5292 35.6474 28.0528 34.7685C30.4659 35.8484 33.0646 36.4531 35.7066 36.5495ZM40.0742 42.7839C40.0742 42.7839 31.5178 42.5927 26.2515 40.8354C26.2515 40.8354 31.0528 43.3401 40.0729 42.7839H40.0742ZM39.1642 39.9192C34.8403 39.9942 30.5285 39.4401 26.364 38.2744C30.4425 39.8177 34.8267 40.3812 39.1629 39.9192H39.1642ZM26.3765 39.1843C30.5957 40.7295 35.1163 41.2734 39.5817 40.7729C35.1286 40.8375 30.6871 40.3032 26.3765 39.1843V39.1843ZM34.0966 38.9993C31.4254 38.5969 28.7838 38.0182 26.189 37.267C28.5182 38.2237 30.9833 38.8083 33.4941 38.9993C35.7098 39.4424 37.9836 39.5147 40.2229 39.213C40.2229 39.213 37.1904 39.2618 34.0979 39.0005L34.0966 38.9993ZM26.3778 39.9729C26.3778 39.9729 31.0228 42.4027 39.1142 41.6678C39.1142 41.6678 30.0003 41.4928 26.379 39.9729H26.3778ZM27.4278 43.5326C31.303 44.8579 35.4142 45.3511 39.4929 44.9799C35.4393 44.7357 31.4075 44.2107 27.4265 43.4089C27.2565 43.279 27.066 43.1785 26.8628 43.1114C26.5585 43.0415 26.2484 42.9997 25.9365 42.9864C25.9365 42.9864 26.3703 43.2139 26.7728 43.3801C26.9804 43.4684 27.2014 43.5212 27.4265 43.5363L27.4278 43.5326ZM36.7516 37.6819C36.7516 37.6819 41.5529 38.2344 42.3267 37.6819C42.3242 37.6807 40.9179 37.7819 36.7516 37.6819ZM39.4217 36.402C39.4217 36.402 41.8929 36.6458 41.9929 36.372C41.9917 36.3745 41.9667 36.1408 39.4192 36.4008L39.4217 36.402ZM13.7964 31.3875C14.2964 31.1101 14.5964 32.6987 14.5964 32.6987C14.5964 32.6987 14.5964 29.0653 12.9314 29.8164C12.0026 30.2327 12.9626 33.5323 14.5952 33.4986C14.5952 33.4986 12.8664 31.8987 13.7951 31.3863L13.7964 31.3875ZM42.0467 37.062C42.0467 37.062 42.1417 36.812 38.2254 37.1007C38.2254 37.1007 41.9904 37.3394 42.0467 37.0607V37.062ZM35.1854 38.3506C32.1433 37.935 29.141 37.2682 26.209 36.357C26.209 36.357 28.8766 37.8344 35.7516 38.4518C37.5328 38.7688 39.3587 38.7344 41.1267 38.3506C39.1468 38.4835 37.1602 38.4835 35.1804 38.3506H35.1854ZM38.2367 53.2479C35.7754 53.1616 33.8429 52.8729 32.4041 52.7092C30.1703 52.4592 28.8041 52.4117 28.8041 52.4117C28.8041 52.4117 31.1791 53.0142 32.3753 53.2004C34.2779 53.4319 36.1925 53.5504 38.1092 53.5553C39.0654 53.5841 40.0229 53.5928 40.9679 53.5878C43.9797 53.7634 47.0006 53.6973 50.0018 53.3904V53.0154L43.5417 53.3116C41.5617 53.3329 39.7917 53.3116 38.2392 53.2541L38.2367 53.2479ZM36.8216 54.0266C34.9991 53.9478 33.5341 53.7028 32.4028 53.5916C30.3778 53.3854 28.9891 53.2841 28.9891 53.2841C28.9891 53.2841 31.2678 53.8928 32.3266 54.0603C33.7921 54.252 35.2666 54.3667 36.7441 54.404C38.6967 54.499 40.7142 54.499 42.6192 54.4515C45.084 54.6006 47.5575 54.4992 50.0018 54.149V53.8178C47.9643 53.8491 44.898 53.9278 42.7842 54.1328C40.4854 54.1453 38.5017 54.1028 36.8229 54.0291L36.8216 54.0266ZM34.5716 56.4888C33.7391 56.4288 33.0341 56.2388 32.4466 56.1738C31.0028 56.0251 29.9466 55.9851 29.9466 55.9851C29.9466 55.9851 31.6503 56.5226 32.4028 56.6613C33.0741 56.7863 33.7841 56.76 34.5204 56.8413C35.0854 56.9038 35.6704 56.9525 36.2604 56.9938H49.3355C49.553 56.9763 49.7755 56.955 50.0005 56.9313V56.5476C48.3755 56.5588 46.3317 56.6063 44.7105 56.7475C40.2717 56.7975 36.9191 56.6588 34.5741 56.4888H34.5716ZM19.6265 38.3993C19.8515 39.0405 20.9665 39.0718 21.0015 38.2744C21.034 37.6007 20.2977 37.7294 20.2977 37.7294C20.2977 37.7294 19.8802 37.6344 20.1065 37.1857C20.1065 37.1857 19.4015 37.7619 19.624 38.4031L19.6265 38.3993ZM35.8129 54.8415C34.4004 54.7665 33.2516 54.5478 32.3516 54.4665C30.6403 54.3003 29.3178 54.2165 29.3178 54.2165C29.3178 54.2165 31.4228 54.7815 32.3266 54.919C33.3829 55.0802 34.5266 55.069 35.7104 55.1477C38.1929 55.3164 40.8567 55.3264 43.293 55.2727C45.529 55.3911 47.7705 55.3564 50.0018 55.1689V54.7727C47.8143 54.7727 45.0305 54.8227 43.078 55.0052C40.1492 55.014 37.7354 54.9415 35.8141 54.8402L35.8129 54.8415ZM30.5603 56.9975H31.7753C30.8328 56.9088 30.1766 56.8725 30.1766 56.8725L30.5603 56.9975ZM40.8604 9.86591C40.8604 9.86591 37.5016 9.41845 36.6004 7.17617C36.6004 7.17617 36.9516 9.89841 40.8592 9.86591H40.8604ZM35.2516 55.6401C34.0541 55.5677 33.0716 55.3539 32.2966 55.2764C30.7828 55.1227 29.6403 55.0765 29.6403 55.0765C29.6403 55.0765 31.4841 55.6139 32.2941 55.7501C33.2004 55.9039 34.1791 55.8889 35.1991 55.9739C37.7861 56.166 40.3813 56.2235 42.9742 56.1463C45.3139 56.2901 47.6612 56.2483 49.9943 56.0214V55.6614C48.063 55.6614 45.5105 55.6914 43.5717 55.8439C40.1092 55.8614 37.3466 55.7651 35.2504 55.6364L35.2516 55.6401ZM38.6267 51.4906C37.7304 51.6075 36.8207 51.5712 35.9366 51.3831C35.0566 51.129 34.1463 50.9953 33.2304 50.9856C29.5178 50.6381 28.224 50.5306 28.224 50.5306C29.641 50.9952 31.0957 51.3356 32.5716 51.548C33.9355 51.7636 35.3163 51.8531 36.6966 51.8155C37.6635 51.712 38.6386 51.712 39.6054 51.8155C42.9805 51.8705 46.2067 51.768 48.5093 51.6593C48.998 51.7378 49.4918 51.7795 49.9868 51.7843V51.3731C49.5105 51.4243 49.063 51.4831 48.668 51.5493C44.5242 51.6355 41.4317 51.598 38.6217 51.4881L38.6267 51.4906ZM46.1355 23.2721C45.7846 23.1738 45.4452 23.0384 45.123 22.8684C44.8115 22.721 44.4611 22.6772 44.123 22.7434C44.4227 22.8392 44.7131 22.9622 44.9905 23.1109C45.3432 23.2889 45.7442 23.3472 46.133 23.2771L46.1355 23.2721ZM47.5743 37.2995C48.0788 37.3974 48.5883 37.4675 49.1005 37.5094C48.7967 37.767 48.4072 37.9008 48.0093 37.8844C46.4692 37.9606 46.193 37.3532 45.2817 37.0257C44.418 36.7133 43.5655 36.622 43.3367 36.9245C43.3095 36.9519 43.2942 36.989 43.2942 37.0276C43.2942 37.0662 43.3095 37.1033 43.3367 37.1307C42.9334 37.1318 42.5325 37.0685 42.1492 36.9432C42.3558 37.1298 42.5979 37.2727 42.861 37.3636C43.1241 37.4544 43.4028 37.4913 43.6805 37.4719C43.6823 37.4962 43.6792 37.5206 43.6712 37.5436C43.6633 37.5666 43.6507 37.5877 43.6342 37.6057C43.4067 37.8831 42.3204 37.5807 42.3204 37.5807C42.642 37.9391 43.0807 38.1713 43.558 38.2356C44.2405 38.2619 44.5692 37.9594 45.1505 38.2356C45.6012 38.4822 45.956 38.8731 46.158 39.3455C46.533 39.9592 47.1693 39.5742 47.4718 39.9292L47.6105 40.0879C47.3408 40.2235 47.0379 40.2792 46.7376 40.2484C46.4373 40.2176 46.1521 40.1017 45.9155 39.9142C46.2542 41.0391 47.6318 40.5391 47.923 40.4241C48.058 40.5654 48.1543 40.6616 48.1543 40.6616C47.8201 40.7693 47.5105 40.9418 47.243 41.1691C45.8455 41.609 45.793 40.6029 44.368 40.5641C43.1555 40.5329 42.5642 41.2441 41.9104 41.4703C41.2251 41.7104 40.4813 41.7279 39.7854 41.5203L38.9779 42.279C42.2979 42.9314 42.2667 42.2027 43.728 42.2027C45.1892 42.2027 45.3442 42.7827 46.2542 42.8277C47.1642 42.8727 48.0193 42.3977 48.6768 42.4727C48.9558 42.5153 49.2289 42.5904 49.4905 42.6964H49.4618C49.518 42.7377 49.5605 42.8664 49.3368 42.8827C48.6886 43.049 48.0307 43.1742 47.3667 43.2576C48.0974 43.2861 48.8292 43.264 49.5568 43.1914C49.8255 43.2851 49.6193 43.6326 49.4318 43.6788C48.378 43.8202 47.3146 43.8779 46.2517 43.8513C47.2526 44.0747 48.2827 44.1363 49.303 44.0338C49.6668 44.0338 49.273 44.4088 49.0843 44.4425C47.195 44.6487 45.2856 44.5746 43.418 44.2225C45.0115 44.7356 46.6873 44.9442 48.358 44.8375C49.243 44.7675 47.9293 45.2637 46.1705 45.2437C45.5042 45.2037 44.703 45.1274 43.7955 45.0074C43.1705 44.9237 41.7954 44.6925 41.7954 44.6925C42.7543 45.0929 43.7395 45.427 44.7442 45.6924C43.6398 45.9135 42.5085 45.9683 41.3879 45.8549C42.4664 46.131 43.5699 46.2985 44.6817 46.3548C44.6817 46.3548 45.1817 46.3648 46.2117 46.3823C47.7518 46.4948 49.0043 46.6323 49.9943 46.696V41.2566C49.7968 41.1295 49.5875 41.0219 49.3693 40.9353C49.2612 40.9002 49.1634 40.839 49.0847 40.757C49.0059 40.675 48.9487 40.5748 48.918 40.4654C49.292 40.5021 49.6578 40.5978 50.0018 40.7491V40.2742C49.6497 40.1545 49.2798 40.0962 48.908 40.1017C48.9395 39.8989 49.0036 39.7027 49.098 39.5205C49.4037 39.5448 49.7063 39.5984 50.0018 39.6805V39.2743C49.7645 39.23 49.5242 39.2036 49.283 39.1955C49.3792 39.0528 49.4849 38.9166 49.5993 38.7881C49.6805 38.7881 49.8218 38.7956 50.0018 38.8131V38.4993C49.9643 38.4993 49.9255 38.4993 49.8868 38.4993C49.9255 38.4643 49.963 38.4343 50.0018 38.4031V36.7783C49.8271 36.7944 49.6629 36.8688 49.5355 36.9895C48.8938 37.1581 48.2367 37.2619 47.5743 37.2995V37.2995ZM46.2705 37.8431C46.637 38.0366 47.0386 38.1545 47.4516 38.1897C47.8645 38.2249 48.2803 38.1768 48.6743 38.0481C48.5133 38.2133 48.3177 38.3408 48.1015 38.4214C47.8854 38.5019 47.6541 38.5336 47.4242 38.5142C47.1944 38.4947 46.9717 38.4245 46.7722 38.3087C46.5727 38.1929 46.4014 38.0343 46.2705 37.8444V37.8431ZM31.3828 48.3521C31.9904 48.369 32.5938 48.4579 33.1803 48.6171C34.9623 48.8821 36.769 48.9392 38.5642 48.7871C38.5642 48.7871 36.0929 48.6521 33.0541 48.2621C32.3579 48.2819 31.6631 48.189 30.9966 47.9871C30.4985 47.783 29.9802 47.6322 29.4503 47.5372C28.6404 47.345 27.8203 47.1981 26.994 47.0972C27.7628 47.4895 28.5679 47.8064 29.3978 48.0434C30.0394 48.249 30.7092 48.3527 31.3828 48.3509V48.3521ZM30.0553 47.1372C30.6273 47.1601 31.1939 47.258 31.7403 47.4285C33.9644 47.8472 36.2337 47.9732 38.4904 47.8034C38.4904 47.8034 35.1766 47.6322 31.8441 47.1547C31.1672 47.147 30.4944 47.0478 29.8441 46.8598C29.4688 46.6412 29.0599 46.4862 28.6341 46.4011C28.0483 46.2577 27.4501 46.1711 26.8478 46.1423C27.4086 46.4576 27.9973 46.7204 28.6066 46.9273C29.0781 47.0711 29.5686 47.1427 30.0616 47.1397L30.0553 47.1372ZM28.9766 45.9561C29.6066 46.0326 30.2276 46.1711 30.8303 46.3698C33.3422 46.9245 35.924 47.0931 38.4867 46.8698C38.4867 46.8698 34.2679 46.6598 30.6791 46.0686C30.0423 46.0293 29.4126 45.9126 28.8041 45.7211C28.5705 45.5523 28.3108 45.4231 28.0353 45.3387C27.5289 45.2195 27.0091 45.1665 26.489 45.1812C26.489 45.1812 27.2615 45.5499 27.929 45.7949C28.2681 45.903 28.6219 45.9578 28.9778 45.9573L28.9766 45.9561ZM33.0353 49.5632C33.6534 49.5825 34.2681 49.6629 34.8704 49.8032C36.2622 49.9285 37.662 49.9385 39.0554 49.8332C39.0554 49.8332 37.6416 49.7807 34.8204 49.4508C34.0252 49.5126 33.2255 49.4244 32.4628 49.1908C31.801 48.9174 31.1091 48.7236 30.4016 48.6133C29.1391 48.3634 28.0265 48.3121 27.4228 48.2109C28.3625 48.6655 29.3487 49.0171 30.3641 49.2595C31.2348 49.4938 32.1355 49.597 33.0366 49.5657L33.0353 49.5632ZM34.6329 50.6669C35.1718 50.6443 35.7114 50.6863 36.2404 50.7919C37.7404 50.8494 39.4817 50.8531 41.5067 50.7756C41.5067 50.7756 39.2404 50.7206 36.0579 50.4907C35.4098 50.5377 34.7583 50.4956 34.1216 50.3657C33.3028 50.1354 32.4667 49.9716 31.6216 49.8757C30.0316 49.6482 28.4741 49.4795 27.8565 49.4295C28.9382 49.8546 30.0584 50.174 31.2016 50.3832C32.3321 50.6112 33.4851 50.7089 34.6379 50.6744L34.6329 50.6669ZM50.0018 50.0657V49.6657C46.6767 49.7582 44.8142 49.9345 44.8142 49.9345C46.763 50.0332 48.4893 50.0669 50.0018 50.0594V50.0657ZM28.189 44.74C28.7458 44.8281 29.2932 44.9679 29.8241 45.1574C33.1143 45.9684 36.5139 46.2427 39.8917 45.9698C36.5791 45.8087 33.2777 45.4695 30.0016 44.9537C29.3596 44.8907 28.7253 44.7651 28.1078 44.5787C27.8869 44.4204 27.6372 44.3066 27.3728 44.2438C27.0007 44.1555 26.6201 44.1077 26.2378 44.1013C26.2378 44.1013 26.8628 44.425 27.354 44.6125C27.6261 44.6898 27.9064 44.7347 28.189 44.7462V44.74ZM50.0018 11.8045V11.5857C49.4193 11.5932 48.7755 11.6207 48.053 11.6832C48.053 11.6832 48.828 11.7007 50.0018 11.8082V11.8045ZM47.0142 52.498C44.9242 52.5917 43.048 52.6367 41.3004 52.6229C37.8167 52.2705 38.8429 52.3642 36.1279 52.198C32.0803 51.948 28.5091 51.4218 28.5091 51.4218C30.22 51.9376 31.9675 52.3232 33.7366 52.5754C38.5317 53.001 43.354 53.0244 48.153 52.6454C48.7684 52.6785 49.3851 52.6785 50.0005 52.6454V52.1342C48.9942 52.1942 47.9923 52.3148 47.0005 52.4955H47.0167L47.0142 52.498ZM34.5954 25.0169C33.6047 24.8907 32.6012 24.9037 31.6141 25.0557L33.9754 25.3594C33.3699 25.6665 32.6928 25.8051 32.0153 25.7606C32.6153 26.1602 33.3183 26.3773 34.0391 26.3855C35.3154 24.981 37.0549 24.0829 38.9392 23.8558C39.6099 23.7742 40.29 23.8879 40.8977 24.1832C41.5055 24.4785 42.0151 24.9429 42.3654 25.5206C41.3181 24.919 40.1084 24.6611 38.9067 24.7832C37.4557 25.0526 36.0729 25.6084 34.8391 26.418C35.3404 26.3765 35.8426 26.4881 36.2791 26.738C37.2942 27.3611 38.4951 27.61 39.6742 27.4417C40.7992 27.173 42.3367 26.613 42.5579 27.1917C41.67 27.7226 40.6848 28.0706 39.6604 28.2153C40.3393 28.2834 41.0245 28.2518 41.6942 28.1216C42.3479 28.0391 44.0442 27.8616 44.248 27.8804C43.7516 27.797 43.2507 27.7431 42.748 27.7191C42.4979 27.7104 42.958 27.4292 43.1405 27.4117C43.1405 27.4117 43.1405 27.4117 43.1505 27.4042C43.6505 27.3542 44.8205 27.2392 45.128 27.2179C44.6678 27.0792 44.1885 27.0142 43.708 27.0255C43.3967 27.0367 43.743 26.5855 44.1142 26.5605C44.6667 26.5518 45.5767 26.5355 45.8817 26.513C45.46 26.3287 45.0096 26.2188 44.5505 26.188C44.2192 26.1668 43.9417 25.7356 44.1755 25.7368C45.1242 25.7218 46.5505 25.6581 46.5505 25.6581C45.8042 25.4871 45.047 25.3681 44.2842 25.3019C44.0905 25.2919 44.053 24.7744 44.5267 24.7882C44.968 24.8019 45.858 24.8469 45.858 24.8469C45.4917 24.7119 45.0167 24.5407 44.6992 24.4032C44.2542 24.1945 44.6292 24.087 44.9355 24.0608C45.0896 24.0592 45.242 24.0278 45.3842 23.9683C44.5205 23.7008 43.0092 22.4509 40.8979 22.4509C40.4829 22.4509 39.6392 22.6059 39.0229 22.6159C37.7279 22.6008 36.4348 22.7193 35.1641 22.9696C35.1641 22.9696 39.8292 22.9071 40.9754 23.1234C41.1454 23.3646 41.2529 23.6233 40.8879 23.5921L40.6692 23.5683C40.2291 23.506 39.7859 23.4676 39.3417 23.4533C37.3454 23.2999 35.3383 23.3708 33.3579 23.6645C33.3579 23.6645 35.0516 23.7033 36.8579 23.7533C36.4849 23.8672 36.125 24.0201 35.7841 24.2095C34.5939 24.1054 33.3954 24.1474 32.2153 24.3345L35.1766 24.5957C35.0279 24.6994 34.8929 24.7982 34.7716 24.8819C34.7041 24.9307 34.6379 24.9719 34.5716 25.0144L34.5954 25.0169ZM36.7366 26.5005C36.9859 26.3221 37.2648 26.1892 37.5604 26.1081C37.7406 26.0466 37.935 26.0396 38.1192 26.0881C38.1192 26.0881 38.1392 26.5055 37.5441 26.463C38.1692 27.1555 39.8417 26.9155 39.8417 26.9155C39.3291 27.1038 38.7782 27.164 38.237 27.0908C37.6958 27.0176 37.1808 26.8133 36.7366 26.4955V26.5005ZM40.2279 26.768C40.0492 26.768 40.0829 26.643 40.0829 26.4793C40.0829 26.3155 40.0492 26.1918 40.2279 26.1918C40.4067 26.1918 40.7642 26.3168 40.7642 26.4793C40.7642 26.6418 40.4042 26.768 40.2279 26.768ZM45.9042 17.3602C47.276 17.4109 48.6439 17.5373 50.0018 17.7389V17.3764C48.6401 17.2298 47.2669 17.2247 45.9042 17.3614V17.3602ZM48.5143 26.8955C49.0177 26.9761 49.5147 27.0923 50.0018 27.2429V26.8517C49.5064 26.8075 49.0075 26.8222 48.5155 26.8955H48.5143ZM26.5765 34.8109C26.7904 34.3722 26.8434 33.8723 26.7262 33.3985C26.609 32.9247 26.3291 32.5071 25.9353 32.2187C25.3058 31.7129 24.7643 31.1064 24.3328 30.4239C24.567 31.1924 25.0107 31.8805 25.614 32.4112C26.3828 33.1799 26.239 33.4298 25.9665 33.6611C25.774 33.8223 25.614 32.8299 24.8415 32.3487C24.3293 31.9567 23.9137 31.4526 23.6265 30.8751C23.7298 31.555 24.0306 32.1895 24.4915 32.6999C24.9259 33.0603 25.2481 33.5373 25.4203 34.0748C24.8731 33.9924 24.3493 33.7961 23.8828 33.4986C24.2009 33.9085 24.6088 34.2399 25.0752 34.4674C25.5415 34.695 26.0539 34.8125 26.5728 34.8109H26.5765ZM50.0018 50.8994V50.5244C46.1742 50.6181 42.0629 50.7744 42.0629 50.7744C44.7055 50.9491 47.3551 50.9908 50.0018 50.8994V50.8994ZM50.0018 18.8763V18.6263C49.3218 18.5663 48.5493 18.5288 47.6493 18.5351C47.6455 18.5301 48.6055 18.6263 50.0018 18.8763ZM50.0018 23.4446V23.1259C49.3336 23.1272 48.6659 23.1648 48.0018 23.2383C48.0018 23.2383 48.808 23.2833 50.0018 23.4483V23.4446ZM48.3168 28.6253C48.8884 28.7143 49.4519 28.8493 50.0018 29.029V28.6028C49.4433 28.5285 48.877 28.5352 48.3205 28.6228L48.3168 28.6253ZM48.3805 30.3501C48.9302 30.4357 49.4723 30.5644 50.0018 30.7351V30.3289C49.4644 30.2593 48.9198 30.266 48.3843 30.3489L48.3805 30.3501ZM48.3805 27.7641C48.9301 27.8489 49.4722 27.9768 50.0018 28.1466V27.7429C49.4645 27.6775 48.921 27.6842 48.3855 27.7629L48.3805 27.7641ZM16.9689 14.1905C17.103 14.4214 17.1729 14.6838 17.1716 14.9508C17.1703 15.2178 17.0977 15.4795 16.9614 15.7091C17.5052 15.0929 17.8639 15.2479 17.8639 15.2479C17.4074 15.8109 17.0797 16.467 16.9039 17.1702C16.5222 18.0601 15.9673 18.8653 15.2714 19.5387C16.5237 18.6923 17.4407 17.435 17.8639 15.9841C18.149 15.5549 18.5834 15.2471 19.0827 15.1204C19.112 15.5413 19.268 15.9435 19.5302 16.274C19.1452 15.3454 20.2027 13.8405 20.2027 13.8405C20.0357 14.1049 19.8112 14.3281 19.5459 14.4936C19.2807 14.6591 18.9814 14.7626 18.6706 14.7963C18.3597 14.8301 18.0453 14.7933 17.7506 14.6886C17.456 14.5839 17.1888 14.4141 16.9689 14.1917V14.1905ZM20.844 10.2521C20.109 11.752 18.9227 13.1981 17.5127 12.2044C17.5127 12.2044 18.7939 13.678 20.2627 11.8857C21.7315 10.0934 21.3877 9.73967 22.344 9.54844C22.1009 10.0177 21.9715 10.5374 21.966 11.0658C21.9606 11.5942 22.0794 12.1165 22.3127 12.5906C22.1972 11.953 22.2235 11.2977 22.3896 10.6713C22.5557 10.0448 22.8577 9.46266 23.274 8.966C22.7866 8.91152 22.2941 9.00508 21.8607 9.23448C21.4272 9.46388 21.073 9.8185 20.844 10.2521V10.2521ZM28.3065 7.68987C27.9185 8.98454 27.2641 10.1838 26.3853 11.2108C25.3278 12.0444 23.5977 12.9406 24.4003 14.3505C24.4003 14.3505 24.304 13.4856 24.8803 13.1981C24.8235 13.4729 24.8477 13.7584 24.95 14.0197C25.0523 14.2811 25.2283 14.5071 25.4565 14.6704C25.3652 13.9005 25.5342 13.1222 25.9365 12.4594C27.2521 11.1887 28.0907 9.50422 28.3115 7.68862L28.3065 7.68987ZM49.9218 7.9211C49.451 8.66861 48.7748 9.26467 47.9741 9.63794C47.1733 10.0112 46.282 10.1459 45.4067 10.0259C44.274 9.89409 43.1937 9.47552 42.2679 8.80976C42.7602 9.40441 43.418 9.83944 44.158 10.0596C45.3755 10.4121 45.3742 10.9246 44.2205 10.9558C43.0667 10.987 42.5554 10.4109 41.6267 10.4758C40.6979 10.5408 40.1542 11.1183 39.0967 11.0208C38.446 10.9786 37.8298 10.7136 37.3517 10.2704C36.8736 9.82719 36.5628 9.23279 36.4716 8.58729C36.4716 8.58729 33.8029 8.80726 32.7516 7.00244H32.4941C32.5255 7.77926 32.7543 8.53528 33.1589 9.19919C33.5635 9.86309 34.1306 10.413 34.8066 10.7971C34.8066 10.7971 34.1654 9.9959 34.9666 9.64468C35.7102 10.386 36.6232 10.9352 37.6266 11.2445C36.9657 11.6183 36.2001 11.7644 35.4479 11.6603C34.6957 11.5562 33.9986 11.2076 33.4641 10.6683C33.9199 11.4425 34.6526 12.0147 35.5141 12.2694C35.5141 12.2694 32.4391 13.2943 31.5741 10.3484C31.5741 10.3484 31.2866 13.4231 29.6203 13.7755C29.6401 13.3377 29.785 12.9148 30.0378 12.5569C30.9586 10.8408 31.4979 8.94614 31.6191 7.00244L31.5278 7.00244C31.2166 8.4423 30.4378 11.7057 29.6191 12.3994C28.5616 13.2943 28.0815 14.193 28.4941 15.2166C28.3213 15.0332 28.187 14.817 28.099 14.5809C28.011 14.3448 27.9711 14.0935 27.9815 13.8418C27.7408 14.5964 27.6645 15.3937 27.7578 16.1803C27.4527 15.8043 27.2389 15.3626 27.1333 14.8901C27.0277 14.4175 27.0331 13.9269 27.149 13.4568C27.3728 12.2719 28.9103 12.3682 29.3903 10.2871C28.9923 11.0368 28.3789 11.6502 27.629 12.0482C28.637 10.9522 29.2265 9.53605 29.2941 8.04859C28.954 9.52203 28.161 10.852 27.0265 11.852C25.169 13.4218 25.969 14.6392 25.969 14.6392C25.9732 14.337 26.0443 14.0394 26.1772 13.768C26.3101 13.4965 26.5016 13.2579 26.7378 13.0693C26.6055 13.5877 26.5799 14.1274 26.6624 14.6559C26.7449 15.1844 26.9338 15.6907 27.2178 16.144C26.7811 15.949 26.4043 15.6409 26.1265 15.2516C26.1265 15.2516 26.0628 18.5176 31.0266 17.4289C30.0782 17.8955 29.0186 18.0887 27.9665 17.987C26.9145 17.8852 25.9116 17.4924 25.0703 16.8527C23.0852 15.2154 22.7977 14.1267 22.9577 12.9419C22.7331 13.4148 22.3915 13.8226 21.9652 14.1267C21.2915 14.5754 19.5627 15.8241 21.6777 17.4252C21.6777 17.4252 20.9727 16.529 21.229 15.8241C21.5003 16.5799 22.0045 17.2302 22.669 17.6814C22.669 17.6814 21.7402 16.3065 21.9965 15.6003C22.4664 16.686 23.2322 17.6176 24.2065 18.2888C23.7292 18.2748 23.2646 18.1323 22.8615 17.8764C23.1883 18.3348 23.5887 18.736 24.0465 19.0638C24.0465 19.0638 21.5465 20.0237 19.6915 16.724C19.3201 16.9092 19.0009 17.1841 18.7627 17.5239C18.7627 17.5239 19.404 16.9802 19.7565 17.5239C19.838 17.6212 19.8974 17.735 19.9305 17.8575C19.9636 17.9801 19.9697 18.1083 19.9483 18.2334C19.9269 18.3585 19.8785 18.4774 19.8065 18.582C19.7345 18.6865 19.6407 18.7741 19.5315 18.8388C18.3841 19.3439 17.3493 20.0731 16.4877 20.9836C16.0201 21.5035 15.674 22.1209 15.4745 22.791C15.2749 23.4611 15.2269 24.1672 15.3339 24.8582C15.4829 26.5332 16.261 28.0895 17.5114 29.214C16.6009 28.9865 15.7614 28.5361 15.0683 27.9033C14.3753 27.2706 13.8505 26.4754 13.5414 25.5894C13.0639 24.4611 12.946 23.213 13.2037 22.0153C13.4614 20.8176 14.0822 19.7284 14.9814 18.8963C14.9814 18.8963 13.0914 17.9351 16.7439 13.7718C16.7439 13.7718 16.2952 11.6907 18.9215 11.1145C18.8815 10.3307 19.0293 9.54857 19.3526 8.83333C19.6759 8.1181 20.1654 7.49039 20.7802 7.00244H18.3564C18.5362 7.20581 18.6543 7.45622 18.6968 7.7243C18.7393 7.99239 18.7045 8.26704 18.5964 8.51604L18.5252 8.60978C17.8912 8.02122 17.2115 7.48376 16.4927 7.00244L13.1864 7.00244C13.4717 7.40701 13.6798 7.86084 13.8001 8.34106C13.5501 8.21607 13.2889 8.09108 13.0314 7.9661C12.9247 7.61468 12.7506 7.28738 12.5189 7.00244L11.8764 7.00244C12.0093 7.18283 12.1127 7.38324 12.1826 7.59613C11.8493 7.45615 11.5122 7.32199 11.1714 7.19367C11.1489 7.15118 11.1139 7.07993 11.0689 7.00244H8.00133C7.27086 7.67062 6.41224 8.18344 5.47756 8.50979C5.0713 8.4148 4.6513 8.32356 4.22754 8.23482C5.00941 7.93687 5.74118 7.52129 6.39757 7.00244L5.51506 7.00244C4.96536 7.45625 4.35748 7.83456 3.70754 8.12733L3.55504 8.09608C3.0842 8.00609 2.62836 7.91652 2.18752 7.82736C2.83307 7.62757 3.45214 7.35059 4.03129 7.00244L3.16378 7.00244C2.70474 7.28464 2.22358 7.52917 1.72502 7.73362C1.15001 7.61696 0.601256 7.50114 0.0787508 7.38615C0.528368 7.30235 0.968478 7.17381 1.39251 7.00244L0.00125001 7.00244V8.52729C0.305003 8.54729 0.807509 8.58479 1.45877 8.65228C1.03062 9.05811 0.538092 9.39008 0.00125001 9.63468V10.2384C0.916932 9.87738 1.77349 9.38153 2.54253 8.76727C2.89878 8.80976 3.27753 8.85976 3.67379 8.916C2.76314 9.82802 1.64173 10.5016 0.408754 10.8771C0.271253 10.8458 0.136251 10.8108 0.00125001 10.7808V12.8219C0.150002 12.6569 0.300003 12.4869 0.447505 12.3069L1.51752 12.1819L2.00877 12.1269L1.98752 12.1607L1.92002 12.2632C1.37194 12.9527 0.725431 13.5578 0.00125001 14.0592V14.6042C0.962761 13.8895 1.83856 13.0662 2.61128 12.1507L2.62628 12.1269L4.15879 12.0019L4.09004 12.0994L4.06254 12.1382C2.95828 13.4531 1.56953 14.4998 0.00125001 15.1991V18.0176C0.411675 17.5616 0.745961 17.0425 0.99126 16.4803L1.51377 16.3703C1.1509 17.1736 0.637473 17.8999 0.00125001 18.5101V19.3437C1.30677 19.246 2.61446 19.5025 3.78629 20.0862C3.34129 20.1245 2.89128 20.1745 2.43628 20.2361C1.68572 19.806 0.85871 19.5259 0.00125001 19.4112V19.8837C0.42779 20.0321 0.841293 20.2156 1.23751 20.4324C0.827509 20.5086 0.413754 20.6024 0.00125001 20.7023V21.1398C0.301253 21.0886 0.601256 21.0386 0.895009 20.9948L0.876259 21.0748C0.72183 21.7665 0.423715 22.418 0.00125001 22.9871V23.6258L0.146252 23.5008C0.897643 22.7948 1.45688 21.9092 1.77127 20.9273L1.79127 20.8686C2.10252 20.8286 2.41628 20.7936 2.71378 20.7623L2.69003 20.8448C2.41263 21.9184 1.80853 22.8792 0.96126 23.5946L0.00125001 23.727V23.8758C0.186252 23.8583 0.353754 23.842 0.486255 23.832C2.08606 23.6667 3.69604 23.622 5.30256 23.6983C3.64254 23.8983 2.10627 24.137 0.700007 24.3982L0.0350004 24.5232C0.0240964 24.5271 0.0127628 24.5296 0.00125001 24.5307V25.6481C0.258753 25.2731 0.448755 24.9544 0.556256 24.7607C0.97501 24.6794 1.37751 24.6082 1.76127 24.542C1.30969 25.4569 0.715615 26.2944 0.00125001 27.023V27.5079C1.04784 26.64 1.9287 25.5898 2.60128 24.4082C3.00128 24.3482 3.37754 24.2982 3.72629 24.2545C3.08792 25.5236 2.22382 26.6658 1.17626 27.6254C0.775008 27.6642 0.382504 27.7079 0 27.7504V28.7153C0.169116 28.5309 0.306406 28.3197 0.406254 28.0904C0.447505 28.0904 0.713758 28.0616 0.815009 28.0541C0.670957 28.473 0.393426 28.833 0.0250003 29.079L0.00125001 29.0878V30.0502L0.647507 29.9452C0.473374 30.2996 0.256326 30.6312 0.00125001 30.9326V31.2675C0.468186 30.8553 0.875809 30.3804 1.21251 29.8564C1.53002 29.8039 1.84502 29.7564 2.15752 29.709C1.75653 30.5316 1.14985 31.2368 0.396254 31.7563C0.280003 31.7563 0.146252 31.7562 0 31.7488V33.4423C0.173752 33.3011 0.352504 33.1511 0.540006 32.9836L0.705007 32.9586L1.64627 32.8099C1.23375 33.3967 0.710107 33.897 0.105001 34.2823L0.00125001 34.2498V34.6247L0.0787508 34.6422C1.04195 34.8164 2.01376 34.9391 2.99003 35.0097C3.25003 35.0472 3.64129 35.0934 4.15254 35.1347L3.48254 35.3571L2.89753 35.5521L2.38378 35.7221C2.82983 35.6922 3.27722 35.6876 3.72379 35.7084C4.23754 35.7296 4.67005 35.7759 4.9138 35.8071C4.76505 35.8521 4.62005 35.8958 4.48005 35.9396C4.08629 36.0646 3.73004 36.1771 3.40754 36.2871C3.23253 36.3458 3.06878 36.402 2.90753 36.457C2.21363 36.6882 1.53373 36.9595 0.871259 37.2695C1.24626 37.1732 2.40878 36.852 3.78129 36.4733C3.30083 37.0336 2.72796 37.5075 2.08752 37.8744C1.84488 37.8563 1.60331 37.8259 1.36376 37.7832C0.213752 37.5719 0.807509 36.6708 1.40626 35.9933C1.40626 35.9933 0.267503 36.6795 0.406254 37.5207C0.572506 38.5281 2.93503 38.4106 2.93503 38.4106C2.93503 38.4106 0.93501 39.4255 4.20879 39.773C5.1913 39.4055 5.72381 38.3381 5.89881 38.3506C6.03631 38.3606 5.96506 38.7418 5.27381 39.9042C5.81881 39.9242 6.33257 39.9254 6.81382 39.9129C7.62792 39.4739 8.29513 38.8055 8.73259 37.9906L8.95759 37.9819C8.75677 38.6935 8.37273 39.34 7.84383 39.8567C8.09384 39.8467 8.33509 39.8292 8.56384 39.808C8.20884 40.0217 7.90758 40.2192 7.64883 40.4016C7.50133 40.5041 7.36883 40.6004 7.24883 40.6904C6.9572 40.9069 6.68303 41.1459 6.42882 41.4053C6.33882 41.5015 6.30382 41.554 6.30382 41.554C6.36007 41.5028 6.42882 41.4453 6.50507 41.3878C6.65132 41.2766 6.83132 41.1541 7.04007 41.0216C7.60146 40.8431 8.19638 40.7961 8.77884 40.8841C8.46259 41.0253 8.15384 41.1641 7.86758 41.3003C7.63883 41.4078 7.42258 41.5103 7.21758 41.6115C6.68072 41.8581 6.16628 42.1509 5.68006 42.4864C5.6897 42.365 5.7162 42.2456 5.75881 42.1315C5.33506 42.5527 4.8838 43.4189 5.94381 43.8813C6.16175 43.7731 6.37075 43.6477 6.56882 43.5063V43.5063C7.33335 43.0173 7.95821 42.3387 8.38259 41.5365L9.2576 41.1853C8.75244 42.1157 8.0735 42.9405 7.25758 43.6151V43.6151L7.22508 43.6426L7.15758 43.6988C6.98257 43.8388 6.75132 44.0125 6.65757 44.0738C8.03267 44.2744 9.43484 44.1768 10.7689 43.7876L10.9951 43.7263C11.0501 43.7126 11.1051 43.6963 11.1601 43.6813C10.8814 43.8926 10.5176 44.1813 10.1239 44.5312C9.96386 44.6737 9.79885 44.8225 9.63385 44.9824C9.26885 45.3309 8.9253 45.7011 8.60509 46.0911C8.51384 46.2048 8.42384 46.3198 8.33759 46.4373C8.23509 46.576 8.13759 46.716 8.04758 46.8585C8.04758 46.8585 8.24759 46.656 8.60009 46.3298C9.28164 46.0389 10.0166 45.8941 10.7576 45.9049C10.6401 45.9961 10.5289 46.0848 10.4189 46.1723C10.2005 46.3456 9.99761 46.5085 9.8101 46.661C9.03301 47.2536 8.31243 47.9167 7.65758 48.6421C7.58095 48.3923 7.56679 48.1275 7.61633 47.8709C7.62758 47.7922 7.63883 47.7122 7.65758 47.6209C6.75382 49.1445 7.68758 49.7682 9.13135 49.6957C9.23595 49.6039 9.33488 49.5058 9.4276 49.402C9.5101 49.3083 9.60385 49.1983 9.7026 49.067L9.72635 49.037C10.2902 48.2792 10.6439 47.3858 10.7514 46.4473C11.0339 46.2473 11.3139 46.0486 11.5889 45.8561C11.5488 46.881 11.2284 47.8753 10.6626 48.7308L10.6326 48.7833C10.6283 48.7888 10.6245 48.7946 10.6214 48.8008C10.5414 48.9183 10.4576 49.0283 10.3714 49.1295C10.2393 49.2978 10.0987 49.4593 9.95011 49.6132C10.0751 49.5882 10.2089 49.5582 10.3401 49.5245C10.7175 49.4153 11.0854 49.2757 11.4401 49.107C11.258 49.334 11.0938 49.5747 10.9489 49.827C10.9351 49.852 10.9189 49.877 10.9064 49.9032C10.73 50.222 10.5844 50.5568 10.4714 50.9031C10.4714 50.9031 10.7989 50.4182 11.3026 49.8245C11.7919 49.5349 12.3634 49.4157 12.9276 49.4858L12.2439 50.1382L11.8126 50.5519L11.8014 50.5656C11.6939 50.6769 10.6451 51.7768 10.3201 52.1605C10.216 51.862 10.2223 51.5361 10.3376 51.2418C10.3376 51.2256 10.3376 51.2118 10.3489 51.1931C10.3376 51.2143 10.3276 51.2356 10.3139 51.2556C9.5426 52.5267 10.5101 53.2279 11.7076 53.0654C12.4897 52.9816 13.2522 52.7678 13.9639 52.433C13.3699 53.3315 13.1357 54.4206 13.3076 55.4839C13.3462 54.838 13.5164 54.2069 13.8076 53.6291C13.8626 53.5141 13.9189 53.4029 13.9764 53.2954C14.5273 52.9655 15.1593 52.7959 15.8014 52.8054C15.7089 52.9167 15.6164 53.0267 15.5252 53.1391C15.3102 53.4016 15.0977 53.6653 14.8914 53.9291C14.7539 54.1053 14.6214 54.2815 14.4877 54.4553C14.0851 54.9877 13.7076 55.5152 13.3739 56.0239L14.6702 54.719C14.722 55.2657 14.6405 55.8168 14.4327 56.3251C14.1755 56.3566 13.9154 56.3541 13.6589 56.3176C14.3761 56.5794 15.1597 56.5966 15.8877 56.3663C15.8877 56.3663 15.6177 56.6275 15.3114 56.9913H17.3864L17.3964 56.9813C17.3971 56.9846 17.3971 56.988 17.3964 56.9913H17.9389C17.9277 56.7513 17.9152 56.5563 17.9064 56.4263C18.1352 56.1763 18.3652 55.9264 18.5989 55.6851C18.6402 56.1263 18.6577 56.5726 18.6614 56.99H19.0177C19.0527 56.2401 19.0415 55.5852 19.0277 55.2264C19.2569 54.9815 19.4869 54.7377 19.7177 54.4953C19.8466 55.3219 19.8848 56.1601 19.8315 56.995H20.1365C20.2484 55.9937 20.2739 54.9847 20.2127 53.9791L20.8377 53.3241C20.9871 54.5193 20.982 55.7287 20.8227 56.9225L20.744 56.9975H22.2252C22.1755 56.9049 22.1187 56.8163 22.0552 56.7325L22.7102 56.1401C22.8325 56.418 22.9353 56.7041 23.0177 56.9963H23.7878C23.7169 56.4799 23.5886 55.9731 23.4052 55.4852L24.0553 54.8752C24.2888 55.5621 24.4325 56.2763 24.4828 57H24.9828C25.0015 56.0902 24.861 55.1842 24.5678 54.3228L25.3315 53.5266C25.7442 54.6341 25.8819 55.8251 25.7328 56.9975H27.8353V56.9475C27.8353 56.9475 27.5015 53.9128 27.2815 52.8729C27.2815 52.8729 26.9178 51.2118 26.4578 49.6445C26.2601 49.1178 25.9466 48.6422 25.5406 48.2528C25.1345 47.8634 24.6461 47.5701 24.1115 47.3947C23.1115 47.206 22.1115 46.7598 22.0152 45.4611C22.1327 45.9236 22.5402 46.4461 23.7177 46.6435C24.2138 46.6994 24.6904 46.8685 25.1109 47.1376C25.5313 47.4067 25.8843 47.7688 26.1428 48.1959C25.9745 47.7291 25.7031 47.3062 25.3488 46.9587C24.9945 46.6111 24.5665 46.3479 24.0965 46.1886C22.6077 45.7786 21.9277 45.5136 22.0502 44.6762C22.2252 43.7351 22.7715 43.7651 22.7715 43.7651C22.7715 43.7651 22.1952 44.81 23.9203 45.2187C25.6128 45.6224 25.8103 46.5935 25.8103 46.5935C25.4064 42.829 25.246 39.0423 25.3303 35.2572C24.1544 34.8146 23.1888 33.9446 22.6265 32.8211C22.6265 32.8211 23.1852 35.0847 24.3065 35.5996C24.914 35.8783 22.7715 35.7246 21.9727 35.1959C22.8483 36.0941 23.3664 37.2805 23.4302 38.5331C22.9577 37.1045 22.0952 36.8582 22.0952 36.8582C22.0952 36.8582 23.8815 39.5655 21.779 40.7979C21.779 40.7979 22.9965 39.3892 21.9715 38.2981C21.9715 38.2981 22.164 40.1229 20.5627 40.2192C18.9614 40.3154 17.4877 37.7544 20.3715 35.4484C19.756 35.6506 19.1888 35.9774 18.7052 36.4083C18.2264 36.9482 16.9889 37.2082 16.7527 36.5545C16.7527 36.5408 16.7527 36.5245 16.7427 36.5108C16.7327 36.497 16.7427 36.4933 16.7352 36.4833C16.7249 36.3006 16.7388 36.1174 16.7764 35.9383C17.068 34.6455 17.5273 33.3963 18.1427 32.2225C18.4031 31.825 18.5039 31.3439 18.4248 30.8753C18.3458 30.4068 18.0928 29.9853 17.7164 29.6952C18.2533 29.7853 18.7999 29.8026 19.3415 29.7464C19.4249 30.5468 19.3398 31.3558 19.0915 32.1212C18.5188 33.1276 18.1099 34.2186 17.8802 35.3534C18.235 34.4723 18.7293 33.6541 19.344 32.9299C20.1027 32.225 19.949 31.7188 19.949 31.7188C20.0314 32.0535 20.0424 32.4019 19.9815 32.7413C19.9206 33.0806 19.7889 33.4034 19.5952 33.6886C19.1938 34.2115 18.9645 34.846 18.939 35.5046C19.1501 35.0224 19.4403 34.5788 19.7977 34.1923C19.9992 34.0461 20.1637 33.8548 20.2779 33.6336C20.3921 33.4124 20.4528 33.1675 20.4552 32.9186C20.6805 33.6613 21.075 34.3416 21.6077 34.9059C21.347 34.3316 21.2054 33.7104 21.1915 33.0799C21.0742 32.3497 20.8918 31.6315 20.6465 30.9338C21.2877 30.9988 22.2802 32.215 22.2802 32.215C21.639 29.2365 23.4652 30.5801 23.4652 30.5801C23.1345 29.8955 23.0249 29.125 23.1515 28.3753C23.2765 27.8641 23.984 26.8755 23.7928 27.8641C23.7261 28.6246 23.8701 29.3887 24.209 30.0727C24.0946 29.6109 24.0839 29.1296 24.1777 28.6632C24.2716 28.1969 24.4675 27.7571 24.7515 27.3754C24.6812 27.9637 24.7496 28.5603 24.9513 29.1175C25.1529 29.6746 25.4822 30.1768 25.9128 30.5839C26.3174 30.8766 26.6432 31.265 26.8613 31.7142C27.0794 32.1634 27.183 32.6596 27.1628 33.1586C27.3678 32.7546 27.4389 32.2958 27.3659 31.8486C27.2929 31.4015 27.0794 30.9892 26.7565 30.6714L27.7715 30.6451C27.2503 30.5301 26.8165 30.4176 26.4403 30.3189C26.289 30.1577 26.1365 29.9927 25.9903 29.8189L27.3853 29.7777C26.6515 29.599 26.0915 29.4315 25.6228 29.3002C25.534 29.1518 25.4574 28.9963 25.394 28.8353C26.3328 28.799 27.029 28.7765 27.029 28.7765C26.279 28.5816 25.7103 28.3941 25.2353 28.2503C25.215 28.1305 25.2033 28.0094 25.2003 27.8879C26.3528 27.8266 27.0265 27.7491 27.0265 27.7491C26.3215 27.5979 25.7478 27.4117 25.2528 27.2967C25.2779 27.1695 25.3118 27.0443 25.354 26.9217C26.5353 26.7967 27.4965 26.7117 27.4965 26.7117C26.7353 26.5868 26.1503 26.4443 25.6665 26.3443C25.8365 26.1743 25.9778 26.0206 26.0903 25.8843C27.4103 25.8231 28.5366 25.7756 28.5366 25.7756C27.6778 25.6269 26.9903 25.4794 26.4115 25.3906C26.4892 25.228 26.5515 25.0586 26.5978 24.8844C27.8278 24.8332 28.8391 24.7832 28.8391 24.7832C27.9428 24.6345 27.2578 24.5332 26.714 24.4495C26.724 24.412 26.7303 24.3807 26.7403 24.3432C26.8015 24.1045 26.8578 23.9395 26.904 23.8095C28.154 23.7208 29.0441 23.6845 29.0441 23.6845C28.2328 23.5771 27.5665 23.4821 26.9978 23.4046C26.9855 23.2519 26.943 23.1032 26.8728 22.9671C26.8508 22.9172 26.8405 22.8629 26.8428 22.8084C28.4203 22.6596 29.6641 22.5984 29.6641 22.5984C28.6728 22.4659 27.9315 22.3559 27.3278 22.2834C27.5853 22.1384 27.899 22.0085 28.1565 21.8797C29.4066 21.731 30.3403 21.6447 30.3403 21.6447C29.7153 21.561 29.1841 21.486 28.7041 21.4248C28.7898 21.2434 28.8189 21.0405 28.7878 20.8423C29.9816 20.7098 30.8716 20.6386 30.8716 20.6386C30.3828 20.5299 29.9278 20.4499 29.5041 20.3886C29.9566 20.177 30.3691 19.9645 30.7416 19.7512C30.8528 19.6862 30.9628 19.6262 31.0691 19.5587C32.2655 18.9227 33.1994 17.8854 33.7066 16.629C33.9432 15.9613 34.328 15.3558 34.8319 14.858C35.3359 14.3601 35.9461 13.9828 36.6166 13.7543C35.6693 13.7479 34.7535 14.0946 34.0479 14.7267C33.8084 15.0654 33.4778 15.3294 33.0945 15.4881C32.7112 15.6468 32.2908 15.6937 31.8819 15.6233C31.473 15.553 31.0924 15.3682 30.7842 15.0905C30.476 14.8129 30.2528 14.4536 30.1403 14.0542C30.4022 14.4139 30.7607 14.692 31.1742 14.8564C31.5876 15.0207 32.0392 15.0646 32.4766 14.9829C32.4766 14.9829 30.9766 14.7254 30.6203 13.6693C31.1392 14.0536 31.7636 14.2692 32.4091 14.2867C32.4091 14.2867 31.0341 13.7868 31.1653 12.8694C31.3827 13.144 31.6603 13.3649 31.9768 13.5149C32.2933 13.6649 32.6401 13.74 32.9903 13.7343C34.1016 13.6093 34.7404 13.2031 35.6904 13.1756C36.6404 13.1481 37.2716 13.4256 38.1279 13.4543C40.4389 13.2004 42.6882 12.547 44.7755 11.5232C45.7687 11.5634 46.7576 11.3725 47.6645 10.9656C48.5714 10.5587 49.3715 9.94697 50.0018 9.17848V7.79486C49.9718 7.83736 49.9518 7.87861 49.923 7.91985L49.9218 7.9211ZM6.38632 43.4488C6.33007 43.4276 6.26132 43.4139 6.21382 43.3901C6.05693 43.3306 5.92149 43.2255 5.825 43.0882C5.72852 42.951 5.67541 42.7879 5.67256 42.6202L7.83758 41.7565C7.45333 42.3992 6.96209 42.9716 6.38507 43.4488H6.38632ZM7.66633 48.6746C8.19759 48.2834 8.73134 47.8959 9.26135 47.5134C9.12388 48.1416 8.83316 48.726 8.41509 49.2145C8.25213 49.2035 8.09552 49.1471 7.96298 49.0516C7.83043 48.9562 7.72724 48.8256 7.66508 48.6746H7.66633ZM9.45385 49.1495C9.17666 49.2118 8.89283 49.2395 8.60884 49.232C9.15955 48.6986 9.52081 47.9999 9.6376 47.2422C9.87885 47.0697 10.1164 46.8985 10.3551 46.731C10.2328 47.5928 9.92441 48.4176 9.45135 49.1483L9.45385 49.1495ZM23.7203 54.1803L23.0952 54.7777C23.3679 53.4178 23.4791 52.0304 23.4265 50.6444L23.8728 50.1844C24.137 51.5108 24.0865 52.8807 23.7253 54.184L23.7203 54.1803ZM22.529 47.6659C22.789 47.7909 23.0702 47.9159 23.3327 48.0584C23.4189 48.6891 23.4378 49.3272 23.389 49.962C23.0777 50.2507 22.764 50.5469 22.464 50.8469C22.6457 49.7954 22.6676 48.7226 22.529 47.6647V47.6659ZM22.404 51.7005L22.9252 51.1618C23.0675 52.4424 23.0423 53.7361 22.8502 55.0102L22.0777 55.7414C22.3424 54.4124 22.4519 53.0572 22.404 51.703V51.7005ZM15.0289 15.3104C14.3983 16.0387 13.5752 16.5746 12.6539 16.8565C12.4175 16.9178 12.1743 16.9492 11.9301 16.9502L11.7301 16.929L11.4389 16.8977C11.4389 16.8977 11.5876 16.8502 11.8051 16.7727C11.9051 16.7352 12.0201 16.689 12.1464 16.6352C12.8379 16.3834 13.4599 15.9714 13.9614 15.4329C14.193 15.4418 14.4245 15.4143 14.6477 15.3516C14.8217 15.3168 14.987 15.2475 15.1339 15.1479L15.0239 15.3154L15.0289 15.3104ZM9.43135 26.8755L8.71384 27.0605C9.83932 26.5114 10.7984 25.6728 11.4926 24.6307L12.3039 24.2295C11.6406 25.3865 10.6366 26.3109 9.42885 26.8767L9.43135 26.8755ZM12.1814 28.4566L12.1614 28.4653V28.4578H12.1751L12.1814 28.4566ZM13.3001 37.1107C13.2887 37.3075 13.2368 37.4998 13.1476 37.6757C13.1239 37.7232 13.0976 37.7707 13.0676 37.8194C13.0476 37.8531 13.0264 37.8844 13.0026 37.9181C12.9789 37.9519 12.9389 38.0006 12.9026 38.0431L12.8814 38.0669C12.8626 38.0881 12.8439 38.1081 12.8226 38.1294C12.7772 38.1766 12.7292 38.2212 12.6789 38.2631L12.6376 38.2981L12.5489 38.3618L12.5114 38.3881C12.4564 38.4268 12.3976 38.4631 12.3351 38.4993C12.3064 38.5131 12.2839 38.5293 12.2551 38.5443C12.2264 38.5593 12.1639 38.5868 12.1176 38.6068C12.1008 38.6162 12.0833 38.6241 12.0651 38.6306C11.9614 38.6756 11.8514 38.7181 11.7276 38.7556L11.7776 38.6906C11.7796 38.6873 11.7822 38.6843 11.7851 38.6818L11.8051 38.6518C11.8189 38.6331 11.8351 38.6081 11.8526 38.5831L11.8626 38.5681V38.5606C11.8739 38.5431 11.8864 38.5256 11.9001 38.5031C11.9985 38.348 12.0846 38.1854 12.1576 38.0169C12.2529 37.8038 12.3193 37.5789 12.3551 37.3482L13.2914 37.0982V37.1245L13.3001 37.1107ZM13.4664 38.933H13.4551C13.3951 38.913 13.3301 38.893 13.2564 38.8743C13.3281 38.8915 13.3987 38.9132 13.4676 38.9393L13.4664 38.933ZM11.5476 38.2831C11.4626 38.4825 11.3601 38.6741 11.2414 38.8556L11.2301 38.873C11.225 38.8793 11.2204 38.886 11.2164 38.893C11.2026 38.913 11.1914 38.933 11.1764 38.9518C11.1576 38.9805 11.1371 39.008 11.1151 39.0343C11.1122 39.0388 11.1088 39.0429 11.1051 39.0468V39.0468C11.0914 39.0643 11.0739 39.0805 11.0601 39.098C11.0464 39.1155 10.9989 39.168 10.9664 39.203C10.9339 39.238 10.9314 39.2468 10.9101 39.2655L10.7514 39.2955L10.6126 39.3205L10.2789 39.3817L10.2351 39.3905C10.2351 39.3905 10.2451 39.3792 10.2626 39.3555L10.3051 39.2968L10.3251 39.2693L10.3551 39.2243C10.3964 39.163 10.4464 39.0855 10.5026 38.993C10.5589 38.9005 10.6126 38.8031 10.6726 38.6868C10.8464 38.3475 10.9794 37.9888 11.0689 37.6182L11.8189 37.4619C11.753 37.7426 11.6626 38.0169 11.5489 38.2819L11.5476 38.2831ZM12.1414 36.7933C11.7039 36.8832 11.2476 36.9695 10.7951 37.0432C11.485 36.419 12.0596 35.6782 12.4926 34.8547C12.7282 34.9455 12.9768 34.9978 13.2289 35.0097C12.9409 35.645 12.5756 36.2423 12.1414 36.7883V36.7933ZM10.4714 37.102C9.97136 37.1857 9.4801 37.2595 9.0326 37.3195C9.89028 36.6643 10.6121 35.8484 11.1576 34.9172C11.4176 34.8859 11.6876 34.8522 11.9614 34.8172C11.5945 35.6553 11.0919 36.4273 10.4739 37.102H10.4714ZM9.44385 34.6347C10.0623 34.2896 10.6007 33.8177 11.0239 33.2499C11.1168 33.5042 11.2402 33.7464 11.3914 33.971C11.4696 34.0817 11.5556 34.1865 11.6489 34.2847C11.2389 34.361 10.4614 34.4997 9.44385 34.6335V34.6347ZM10.1939 31.4563C9.50888 32.8248 8.49212 34 7.23633 34.8747C6.78132 34.9122 6.30382 34.9409 5.81631 34.9609C7.19214 34.1385 8.34707 32.9936 9.18135 31.625C9.55635 31.5688 9.88886 31.5138 10.1939 31.465V31.4563ZM9.71135 31.1576C10.1461 30.833 10.5465 30.4649 10.9064 30.0589C10.8122 30.3947 10.754 30.7395 10.7326 31.0876C10.5014 31.1113 10.1476 31.1363 9.71135 31.1638V31.1576ZM10.7214 31.6088C10.7294 31.9615 10.7712 32.3127 10.8464 32.6574C10.4637 33.4966 9.84022 34.2031 9.0551 34.6872C8.59759 34.7435 8.09884 34.7972 7.57258 34.8447C8.86204 34.0283 9.94151 32.9203 10.7239 31.61L10.7214 31.6088ZM9.37635 31.1863L8.12634 31.27C9.08125 30.5723 9.86656 29.6684 10.4239 28.6253C10.7614 28.5953 11.0839 28.5653 11.3901 28.5366C10.9225 29.5575 10.2348 30.4624 9.37635 31.1863V31.1863ZM5.95381 27.2917C5.95381 27.2917 5.70381 27.3017 5.28381 27.3254C6.54326 26.5897 7.60634 25.5606 8.38259 24.3257C8.64426 24.4431 8.8856 24.6013 9.0976 24.7944C8.77326 25.4043 8.3269 25.941 7.78628 26.371C7.24566 26.8011 6.62233 27.1153 5.95506 27.2942L5.95381 27.2917ZM9.85135 25.0007L10.7726 24.7207C9.95555 25.838 8.82018 26.6827 7.51508 27.1442L7.19258 27.178C8.28117 26.742 9.20937 25.9819 9.85135 25.0007V25.0007ZM6.22632 27.6092L6.57757 27.5692C6.48555 27.9815 6.24252 28.3444 5.89631 28.5866C5.89631 28.5866 5.51131 28.7116 5.43756 28.7178C5.8358 28.4663 6.11878 28.068 6.22507 27.6092H6.22632ZM5.01005 28.7578C5.01005 28.7578 4.67505 28.8265 4.64505 28.8365C5.04815 28.5558 5.33171 28.1345 5.44006 27.6554C5.48006 27.6554 5.72756 27.6354 5.80881 27.6254C5.76315 27.8602 5.66838 28.0826 5.53073 28.2782C5.39308 28.4738 5.21564 28.6381 5.01005 28.7603V28.7578ZM8.22884 23.5371L7.33133 23.4696C8.55903 22.925 9.54545 21.9506 10.1051 20.7298C10.4964 20.7673 10.8551 20.8061 11.1864 20.8461L11.1626 20.8823C11.1001 20.9736 9.6251 23.1246 8.22884 23.5371ZM7.44758 15.4354C7.35008 15.4729 7.25633 15.5066 7.16508 15.5341L6.96632 15.4754L6.60132 15.3666L6.81882 15.2841C7.65974 14.9569 8.41602 14.4442 9.03135 13.7843L9.06885 13.7555C9.28338 13.7831 9.50057 13.7831 9.7151 13.7555C9.93254 13.7418 10.1473 13.6997 10.3539 13.6305C9.46952 14.3595 8.49168 14.9669 7.44633 15.4366L7.44758 15.4354ZM10.6876 14.3642C10.8803 14.3683 11.0718 14.3343 11.2514 14.2642C10.4343 15.028 9.45475 15.5968 8.38634 15.9278C8.33884 15.9416 8.29009 15.9603 8.24384 15.9716L8.15259 15.9328L7.72383 15.7516L7.93258 15.6891C8.73773 15.4222 9.47224 14.977 10.0814 14.3867L10.1114 14.3567C10.3013 14.3969 10.4976 14.3969 10.6876 14.3567V14.3642ZM5.81256 15.2641L5.1263 15.1466C6.09591 14.7248 6.9746 14.1191 7.71383 13.3631L7.75758 13.3281C7.94331 13.3671 8.13423 13.3752 8.32259 13.3518C8.55586 13.3418 8.78558 13.2911 9.00134 13.2018C8.08682 14.0926 7.00468 14.7931 5.81756 15.2629L5.81256 15.2641ZM5.87256 15.8466C6.0295 15.8568 6.18516 15.8815 6.33757 15.9203C5.95301 16.7543 5.39969 17.4995 4.71255 18.1088C4.56255 18.1088 4.4088 18.1088 4.25379 18.1176C4.97507 17.5067 5.53271 16.7258 5.87631 15.8453L5.87256 15.8466ZM7.13758 16.3215C7.24674 16.3757 7.36674 16.4332 7.49758 16.494C7.13779 17.1239 6.67418 17.6884 6.12631 18.1638C5.99131 18.1526 5.85881 18.1401 5.72006 18.1338C6.30133 17.6215 6.7835 17.0068 7.14258 16.3203L7.13758 16.3215ZM8.29009 16.8365L8.63759 16.9715C8.34549 17.4917 7.96477 17.957 7.51258 18.3463C7.37633 18.3226 7.23508 18.2988 7.09132 18.2763C7.56961 17.8666 7.97568 17.3794 8.29259 16.8352L8.29009 16.8365ZM9.40385 17.2289C9.53718 17.2689 9.6726 17.3068 9.8101 17.3427C9.49671 17.8179 9.11799 18.2466 8.68509 18.6163C8.56009 18.5813 8.43509 18.5463 8.29634 18.5138C8.72146 18.1386 9.09288 17.7067 9.4001 17.2302L9.40385 17.2289ZM9.0776 19.3762C9.16373 19.412 9.24727 19.4538 9.3276 19.5012C9.3476 19.5137 9.3626 19.5287 9.38135 19.5412C9.61734 19.704 9.81105 19.9209 9.94636 20.1736C9.74385 20.1511 9.5351 20.1311 9.32135 20.1124C9.2099 19.842 9.03291 19.6036 8.80634 19.4187C8.72263 19.3455 8.63455 19.2775 8.54259 19.215C8.72846 19.2418 8.9095 19.2952 9.0801 19.3737L9.0776 19.3762ZM9.95261 19.0525C9.8451 19.0088 9.7351 18.9625 9.61385 18.9175C10.0727 18.5147 10.4799 18.0567 10.8264 17.5539C10.9851 17.5764 11.1451 17.5926 11.3039 17.6051C10.9133 18.1383 10.4605 18.6229 9.95511 19.0488L9.95261 19.0525ZM11.0376 16.714C10.9564 16.739 10.8789 16.769 10.7964 16.789L10.1389 16.6402C10.1479 16.6347 10.1576 16.6301 10.1676 16.6265C11.0363 16.292 11.8371 15.8029 12.5314 15.1829L12.5564 15.1591H12.5914C12.9407 15.1359 13.2771 15.0175 13.5639 14.8167L13.8251 14.6567L13.6726 14.9242C12.9951 15.7714 12.0776 16.3943 11.0401 16.7115L11.0376 16.714ZM9.3876 16.5015L8.78259 16.324L9.0326 16.2478C9.83973 15.9685 10.5707 15.505 11.1676 14.8942L11.1939 14.8679C11.3872 14.8961 11.5838 14.8936 11.7764 14.8604C12.0523 14.8033 12.3187 14.7074 12.5676 14.5754C11.6822 15.4692 10.5899 16.1307 9.3876 16.5015V16.5015ZM11.5126 13.7518C12.2946 13.5248 13.0287 13.1571 13.6789 12.6669C13.9014 12.5044 14.0726 12.3644 14.1927 12.2657L14.4652 12.3907C14.4139 12.4419 14.3627 12.4969 14.3102 12.5456C13.6133 13.187 12.772 13.6509 11.8576 13.898C11.7403 13.856 11.6255 13.8072 11.5139 13.7518H11.5126ZM13.5126 12.0619C12.8165 12.7009 11.9991 13.1935 11.1089 13.5105C10.9926 13.4281 10.8889 13.3481 10.7914 13.2606C11.5233 13.025 12.2113 12.6703 12.8276 12.2107C13.0351 12.0607 13.2026 11.9307 13.3114 11.8357L13.6039 11.977L13.5126 12.0619ZM12.5814 11.687C11.9616 12.2344 11.252 12.6708 10.4839 12.9769C10.3947 12.8844 10.3114 12.7931 10.2339 12.7031C10.8081 12.4589 11.3531 12.1512 11.8589 11.7857C12.0864 11.6245 12.2551 11.4907 12.3589 11.4108C12.4764 11.4608 12.5951 11.5145 12.7139 11.5695C12.6739 11.6057 12.6326 11.6457 12.5889 11.6807L12.5814 11.687ZM11.5939 11.2745C11.0821 11.7097 10.5182 12.0796 9.91511 12.3757C9.82635 12.2819 9.7326 12.1894 9.6326 12.1019C10.0072 11.9103 10.3641 11.6857 10.6989 11.4308C10.8914 11.2845 11.0089 11.1808 11.0264 11.1645L11.2576 10.9558C11.4176 11.0195 11.5739 11.0808 11.7364 11.1495L11.5926 11.2745H11.5939ZM10.4401 10.8683C10.3901 10.9158 10.3401 10.9583 10.2901 11.0045C9.95657 11.3076 9.5906 11.5729 9.19885 11.7957C9.03595 11.7058 8.8642 11.6329 8.68634 11.5782C8.96148 11.4228 9.22697 11.2508 9.48135 11.0633C9.71635 10.8883 9.85635 10.7596 9.88135 10.7421L10.1126 10.5046C10.2851 10.5696 10.4514 10.6296 10.6276 10.6983L10.4401 10.8671V10.8683ZM9.2951 10.4459C9.1701 10.5621 9.05385 10.6671 8.93259 10.7658C8.62783 11.0177 8.30063 11.2411 7.95508 11.4333C7.83883 11.4208 7.71758 11.407 7.58008 11.4008H7.40633H7.37633C7.94307 11.0278 8.4558 10.5786 8.90009 10.0659C9.0901 10.1296 9.2751 10.1909 9.4726 10.2596L9.3026 10.4421L9.2951 10.4459ZM6.47007 11.4045C6.26132 11.4045 6.03631 11.417 5.78881 11.4283H5.68131C6.46971 10.9818 7.16825 10.3927 7.74133 9.69093C7.91758 9.74467 8.09259 9.79717 8.27384 9.85591C7.78271 10.4835 7.17223 11.0077 6.47757 11.3983L6.47007 11.4045ZM6.74882 12.2357C6.77382 12.2082 6.79882 12.1832 6.82257 12.1532L6.85132 12.1269L7.53883 12.0794L8.17384 12.0357L8.07634 12.1707C8.07634 12.1707 8.02383 12.2369 7.93758 12.3357C7.87258 12.4094 7.78508 12.5056 7.67258 12.6194C6.36739 13.9364 4.75725 14.911 2.98503 15.4566L2.47753 15.4866C4.11397 14.7112 5.56983 13.6016 6.75132 12.2294L6.74882 12.2357ZM4.4313 15.8603C4.5988 15.8491 4.7488 15.8416 4.8913 15.8366C4.51123 16.721 3.94999 17.5159 3.24378 18.1701C3.04753 18.1863 2.84753 18.2076 2.64253 18.2301C3.41797 17.5998 4.02022 16.7826 4.39255 15.8553H4.44255L4.4313 15.8603ZM4.23629 18.7513C4.4338 18.7425 4.62005 18.7413 4.79505 18.7513C5.06555 18.7594 5.33506 18.7879 5.60131 18.8363C5.67631 18.85 5.74506 18.8675 5.81506 18.8838C6.157 18.9291 6.48361 19.0538 6.7688 19.2478C7.05399 19.4418 7.28986 19.6998 7.45758 20.0012C7.30508 20.0012 7.15133 19.9912 6.99507 19.9887L6.55757 19.9587C6.15756 19.1587 4.99005 18.9088 4.2763 18.8338H4.23254C3.91379 18.8013 3.69504 18.8013 3.69504 18.8013C3.88629 18.7838 4.07004 18.7713 4.23754 18.7638L4.23629 18.7513ZM7.10383 19.055L6.98882 18.9938C6.78507 18.8925 6.63382 18.835 6.63382 18.835C6.75882 18.8425 6.86757 18.8575 6.97632 18.875C7.17164 18.9066 7.3634 18.9573 7.54883 19.0263C7.66207 19.0688 7.77232 19.1189 7.87883 19.1762C7.98243 19.234 8.08147 19.2996 8.17509 19.3725C8.42107 19.5571 8.62301 19.794 8.76634 20.0662C8.53884 20.0512 8.30759 20.0362 8.07009 20.0237C7.98133 19.6012 7.48758 19.2625 7.10383 19.055V19.055ZM8.32259 20.6123C8.66509 20.6273 8.9951 20.6473 9.3076 20.6686C9.11925 21.2914 8.79379 21.8641 8.35512 22.3447C7.91645 22.8253 7.3757 23.2015 6.77257 23.4458L5.98006 23.3858L6.32757 23.2108C7.29449 22.6238 8.00765 21.6972 8.32759 20.6123H8.32259ZM6.67632 24.0283C7.05882 24.0183 7.35258 24.0283 7.55133 24.0283L7.70008 24.0683C7.04417 25.3813 6.0689 26.5086 4.8638 27.3467C4.4288 27.3717 3.89504 27.4042 3.30378 27.4454C4.65594 26.5561 5.80585 25.3922 6.67882 24.0295L6.67632 24.0283ZM3.56379 27.7854L4.03879 27.7466C3.95354 28.0209 3.81385 28.2752 3.62806 28.4942C3.44228 28.7133 3.21422 28.8926 2.95753 29.0215L2.56003 29.0703C3.02532 28.7638 3.37675 28.3127 3.56004 27.7866L3.56379 27.7854ZM4.5963 27.7229L4.9713 27.6842C4.90842 27.9442 4.79024 28.1877 4.62479 28.398C4.45934 28.6083 4.25052 28.7804 4.01254 28.9028C4.01254 28.9028 3.70254 28.969 3.63754 28.9728C4.08546 28.6722 4.42264 28.2332 4.59755 27.7229H4.5963ZM4.20004 29.4027L5.12255 29.2677C4.73071 30.1476 4.15785 30.9351 3.44129 31.5788L2.22627 31.66C3.02946 31.0481 3.7008 30.2803 4.20004 29.4027V29.4027ZM5.69006 29.1865L6.65382 29.0515C6.23529 29.9904 5.61066 30.823 4.8263 31.4875C4.42505 31.5163 4.03504 31.54 3.66254 31.565C4.50958 30.9369 5.20322 30.125 5.69131 29.1903L5.69006 29.1865ZM7.26133 28.9665L8.19759 28.8415H8.21759C7.74892 29.8401 7.05538 30.7167 6.19132 31.4025L5.0963 31.475C5.97845 30.7955 6.71475 29.9454 7.26133 28.9753V28.9665ZM8.83759 28.7703L9.1076 28.7403L9.82135 28.6791C9.36554 29.6957 8.67598 30.5904 7.80883 31.29C7.37008 31.32 6.91132 31.3513 6.44382 31.38C7.4021 30.6724 8.21451 29.7863 8.83634 28.7703H8.83759ZM9.25135 23.6458L8.78134 23.5896C10.0282 23.0386 11.0708 22.1105 11.7626 20.9361C12.1501 20.9923 12.4764 21.0473 12.7214 21.0923L12.6739 21.1548C11.8095 22.3095 10.6166 23.1764 9.25135 23.6421V23.6458ZM13.1489 14.2067C12.9289 14.178 12.7114 14.1405 12.4989 14.0942C13.2831 13.9064 14.0187 13.555 14.6577 13.0631C14.8377 12.9281 14.9827 12.8131 15.0864 12.7156L15.5577 12.9656C14.8575 13.5565 14.0341 13.9836 13.1476 14.2155L13.1489 14.2067ZM15.8702 8.05234C16.8227 8.69227 17.2514 10.0459 16.9602 10.3121C16.7252 10.1334 16.4877 9.95715 16.2439 9.78967C16.1456 9.13031 15.9265 8.49474 15.5977 7.91485C15.6914 7.96235 15.7827 8.00609 15.8714 8.05234H15.8702ZM16.2452 10.8021C15.9926 10.951 15.7159 11.0546 15.4277 11.1083C14.6624 11.2292 13.881 11.2012 13.1264 11.0258C12.8697 10.9125 12.598 10.7967 12.3114 10.6783C13.4191 10.7635 14.5327 10.6301 15.5889 10.2859C15.8864 10.4996 16.0989 10.6733 16.2427 10.7983L16.2452 10.8021ZM14.7114 7.50239C15.0792 8.01213 15.3114 8.60692 15.3864 9.23097C15.1364 9.07849 14.8864 8.9285 14.6364 8.78477C14.5234 8.21229 14.295 7.66881 13.9651 7.18742C14.2277 7.29366 14.4739 7.39865 14.7152 7.50364L14.7114 7.50239ZM14.1552 9.37721C14.4577 9.54386 14.7281 9.70592 14.9664 9.86341C13.968 10.2795 12.8955 10.4883 11.8139 10.4771C11.4805 10.3446 11.1285 10.2109 10.7576 10.0759C11.926 10.0725 13.0818 9.83445 14.1564 9.37596L14.1552 9.37721ZM12.4776 8.51979C12.846 8.68644 13.1864 8.85309 13.4989 9.01974C12.5072 9.51836 11.4297 9.82376 10.3239 9.91965C10.0239 9.81341 9.7101 9.70842 9.39135 9.60344C10.4913 9.491 11.5489 9.11965 12.4776 8.51979V8.51979ZM11.7926 8.21857C10.9255 8.83366 9.93377 9.25055 8.88759 9.4397C8.47592 9.30888 8.04842 9.18139 7.60508 9.05724C8.73004 8.8708 9.80053 8.44034 10.7414 7.79611C11.1101 7.93735 11.4614 8.07859 11.7914 8.21857H11.7926ZM8.82634 7.13618C9.2401 7.26117 9.6351 7.39615 10.0101 7.52864C9.16556 8.19995 8.18423 8.67819 7.13508 8.92975C6.75924 8.82809 6.37298 8.72727 5.97631 8.62728C7.02073 8.33644 7.99193 7.82832 8.82634 7.13618V7.13618ZM1.42752 11.052C2.63567 10.6446 3.73338 9.96363 4.63505 9.06224C4.92755 9.10973 5.22631 9.16223 5.52881 9.21722C4.77955 10.1461 3.78286 10.8441 2.65378 11.2308C2.25627 11.1808 1.84252 11.122 1.42377 11.0545L1.42752 11.052ZM3.67754 11.3458C4.7256 10.9094 5.65988 10.2391 6.40882 9.38596C6.63257 9.43345 6.85757 9.48095 7.08382 9.53344C6.46629 10.3593 5.64906 11.0147 4.7088 11.4383C4.3888 11.4145 4.04004 11.3833 3.67379 11.3458H3.67754ZM0.751258 15.6678L0.200002 15.7178C1.92028 14.8217 3.44459 13.5916 4.6838 12.0994L4.69505 12.0857L4.7163 12.0607L5.44506 12.0019L6.24132 11.937L6.14756 12.0732C4.72195 13.7542 2.85185 14.9999 0.751258 15.6678V15.6678ZM2.62628 16.2165L2.65003 16.1378C2.87753 16.094 3.09503 16.0528 3.29753 16.0128C2.8715 16.9264 2.25224 17.7366 1.48252 18.3876C1.32626 18.4151 1.17251 18.4401 1.01251 18.4713C1.72317 17.8597 2.27659 17.0864 2.62628 16.2165V16.2165ZM1.42627 19.0912C4.99505 18.5913 5.78756 19.9549 5.80131 19.9837C5.50714 19.9895 5.20922 19.9995 4.90755 20.0137H4.8188C3.92504 19.105 1.42627 19.0912 1.42627 19.0912V19.0912ZM2.47753 23.4658L1.72752 23.5271L1.96877 23.3121C2.70228 22.5863 3.23949 21.6862 3.53004 20.6961C3.86004 20.6698 4.18254 20.6498 4.50255 20.6336C4.3613 21.0186 3.59254 22.9721 2.48003 23.4646L2.47753 23.4658ZM3.26503 23.4283L3.55879 23.2008C4.32809 22.5013 4.88842 21.6023 5.17755 20.6036C5.51089 20.5903 5.83506 20.5824 6.15007 20.5799C5.7991 21.7276 5.04999 22.7124 4.03754 23.3571L3.26503 23.4283ZM4.58255 23.3608L4.9188 23.1746C5.82794 22.5622 6.48016 21.6369 6.75132 20.5749C7.09008 20.5749 7.42008 20.5749 7.73758 20.5899C7.57603 21.2041 7.27882 21.7744 6.8678 22.2587C6.45679 22.743 5.94243 23.129 5.36256 23.3883L4.57255 23.3571L4.58255 23.3608ZM4.60005 24.1632C5.0563 24.1195 5.46756 24.0883 5.83006 24.067C5.1237 25.41 4.12345 26.5763 2.90378 27.4792C2.46878 27.5129 2.01252 27.5479 1.55502 27.5904C2.77208 26.6452 3.80399 25.4834 4.5988 24.1632H4.60005ZM0.868759 29.1628L0.361254 29.2128C0.843596 28.9281 1.21909 28.4929 1.43002 27.9741L1.93002 27.9304C1.84777 28.1981 1.71073 28.4458 1.5276 28.6578C1.34447 28.8697 1.11925 29.0413 0.866259 29.1615L0.868759 29.1628ZM1.98502 29.0803L1.44877 29.1503C1.9492 28.8726 2.32773 28.4178 2.51003 27.8754L2.99503 27.8216C2.81739 28.346 2.45774 28.7894 1.98127 29.0715L1.98502 29.0803ZM0.758758 31.75C0.718758 31.75 0.665007 31.75 0.612506 31.75C1.46219 31.2183 2.171 30.4894 2.67878 29.6252L3.63754 29.4815C3.26282 30.325 2.70368 31.0737 2.00127 31.6725C1.37626 31.7138 0.92376 31.7413 0.757508 31.7513L0.758758 31.75ZM0.308753 34.3335C1.04126 33.9055 1.69768 33.359 2.25127 32.7162C2.61253 32.6612 2.98503 32.6037 3.36504 32.5437C2.78203 33.3415 2.04764 34.0168 1.20376 34.531C0.896259 34.4722 0.597506 34.406 0.308753 34.3347V34.3335ZM1.42377 34.571C2.41447 34.0271 3.29564 33.3041 4.02254 32.4387C4.31255 32.3924 4.6038 32.3462 4.89755 32.3012C4.90254 32.3018 4.90757 32.3018 4.91255 32.3012L4.99505 32.2899C4.27866 33.2633 3.38461 34.0924 2.36002 34.7335C2.05002 34.686 1.73502 34.6335 1.42627 34.5747L1.42377 34.571ZM2.56503 34.7597C3.78067 34.1272 4.84934 33.2457 5.70131 32.1725L6.82632 31.9962C6.07609 33.1745 5.07894 34.1758 3.90379 34.9309C3.49504 34.8847 3.04128 34.8272 2.56878 34.761L2.56503 34.7597ZM4.49255 34.9947L4.11754 34.9559C5.48927 34.2075 6.6702 33.1533 7.56883 31.875L8.48509 31.73C7.77491 33.0375 6.75249 34.1491 5.50881 34.9659C5.1738 34.9759 4.8388 34.9884 4.4938 34.9909L4.49255 34.9947ZM2.11752 37.8744L2.30252 37.8294C3.15563 37.4517 3.92932 36.9156 4.58255 36.2496C4.95755 36.1433 5.34631 36.0346 5.72881 35.9308C5.25773 36.6883 4.64535 37.3482 3.92504 37.8744L4.09379 37.8831C3.4358 37.9281 2.77551 37.9281 2.11752 37.8831V37.8744ZM5.56006 37.7494C5.0813 37.8007 4.5913 37.8432 4.10629 37.8744C5.01888 37.3178 5.81244 36.5864 6.44132 35.7221C6.73882 35.6421 7.02757 35.5609 7.30508 35.4834C6.84775 36.3285 6.25678 37.0941 5.55506 37.7507L5.56006 37.7494ZM5.88381 37.7144C6.76884 37.056 7.51093 36.2247 8.06509 35.2709L8.52384 35.1459L8.95509 35.1197C8.51713 36.0409 7.907 36.8699 7.15758 37.5619C6.75632 37.6169 6.32882 37.6694 5.88381 37.7207V37.7144ZM8.75134 37.3619L8.36634 37.4094C8.08759 37.4419 7.77008 37.4832 7.43133 37.5269C8.31346 36.8635 9.05277 36.029 9.6051 35.0734C9.89385 35.0497 10.1901 35.0234 10.4964 34.9934C10.0655 35.8837 9.47393 36.6866 8.75134 37.3619V37.3619ZM9.22635 39.598L9.1251 39.6155L8.80134 39.6742L8.69134 39.6942L8.70884 39.6742C9.14419 39.1556 9.46572 38.5514 9.6526 37.9006L10.4951 37.7369C10.3633 38.2181 10.1521 38.6739 9.8701 39.0855C9.77664 39.2163 9.67163 39.3385 9.55635 39.4505C9.5376 39.4692 9.5201 39.4905 9.5001 39.508C9.4801 39.5255 9.4676 39.543 9.4501 39.5592L9.3151 39.583L9.22635 39.598ZM7.50133 43.6663C8.46788 43.0109 9.22517 42.091 9.6826 41.0166L10.7351 40.5966C10.1579 41.7783 9.34543 42.8296 8.34759 43.6863C8.06537 43.6951 7.78288 43.6888 7.50133 43.6676V43.6663ZM9.72885 43.5588C9.3601 43.6138 8.97884 43.6563 8.60384 43.6763C9.72211 42.8162 10.6126 41.6953 11.1976 40.4116L12.2176 40.0029C11.6434 41.3472 10.7973 42.5583 9.7326 43.5601L9.72885 43.5588ZM11.1264 43.2551L11.0639 43.2751C10.7067 43.3784 10.344 43.4618 9.97761 43.5251C11.1666 42.5476 12.0796 41.2766 12.6264 39.838L13.6414 39.4317C13.0744 40.8634 12.2182 42.1629 11.1264 43.2489V43.2551ZM16.3514 46.961L17.1289 46.2836C17.1427 47.8422 16.8257 49.386 16.1989 50.8131C15.9048 50.9898 15.6131 51.1589 15.3239 51.3206C16.0298 49.9781 16.3838 48.4786 16.3527 46.9623L16.3514 46.961ZM15.0777 51.4606C14.8377 51.5897 14.6035 51.7118 14.3752 51.8268C14.8039 50.9028 15.076 49.914 15.1802 48.9008C15.2145 48.5824 15.2316 48.2624 15.2314 47.9422L15.9814 47.286C15.9963 48.7274 15.6879 50.1539 15.0789 51.4606H15.0777ZM17.5289 45.9311L18.1852 45.3574C18.2249 47.0025 17.9098 48.6369 17.2614 50.1494C17.0006 50.3161 16.7373 50.4827 16.4714 50.6494C17.1806 49.1787 17.5428 47.565 17.5302 45.9324L17.5289 45.9311ZM18.5852 45.0099C18.7439 44.8737 18.8965 44.74 19.0377 44.6175C19.2408 46.225 19.0384 47.8577 18.4489 49.367C18.1606 49.5653 17.8635 49.7641 17.5577 49.9632C18.3337 48.4334 18.6883 46.7246 18.5852 45.0124V45.0099ZM18.4339 44.3275C18.1202 44.56 17.7852 44.7975 17.4339 45.0387C17.7871 44.2072 17.9813 43.3169 18.0064 42.414C18.2378 42.4583 18.4723 42.4838 18.7077 42.4902C18.7009 43.1121 18.6075 43.7301 18.4302 44.3263L18.4339 44.3275ZM16.9764 45.3587C16.6264 45.5949 16.2577 45.8349 15.8764 46.0723C16.591 44.8998 16.9565 43.548 16.9302 42.1752L17.0789 42.0765C17.2111 42.1531 17.3495 42.2183 17.4927 42.2715C17.5133 43.3232 17.3382 44.3696 16.9764 45.3574V45.3587ZM15.5052 46.3036C15.2227 46.4785 14.9327 46.6498 14.6302 46.8235C15.331 45.6683 15.7063 44.345 15.7164 42.9939L16.4664 42.4939C16.504 43.8302 16.1713 45.1508 15.5052 46.3098V46.3036ZM15.5339 40.0292C15.1992 40.7619 14.7797 41.4528 14.2839 42.0877C13.9201 42.2277 13.5476 42.3715 13.1864 42.5077C14.2309 41.4746 14.9997 40.1962 15.4227 38.7893C15.4018 39.2052 15.4379 39.6219 15.5302 40.0279L15.5339 40.0292ZM13.2089 42.9039C13.2939 42.8689 13.3789 42.8339 13.4676 42.8039C13.7 42.7244 13.9377 42.6613 14.1789 42.6152C14.4363 42.5651 14.6963 42.5292 14.9577 42.5077C15.1877 42.4889 15.3677 42.4839 15.4577 42.4827H15.5302L14.9052 42.8839L14.7377 42.9901L14.6864 43.0226C14.2701 42.9296 13.8392 42.9228 13.4201 43.0026C13.0901 43.0439 12.8326 43.0951 12.8326 43.0951C12.9533 43.0233 13.0786 42.9594 13.2076 42.9039H13.2089ZM14.5664 43.7788C14.8277 43.5976 15.0739 43.4301 15.3039 43.2789C15.3061 44.5972 14.9547 45.892 14.2864 47.0285C13.9526 47.2172 13.6101 47.4035 13.2589 47.5909C14.0605 46.48 14.515 45.1565 14.5652 43.7876L14.5664 43.7788ZM12.8551 47.7909C12.6001 47.9201 12.3551 48.0405 12.1201 48.1521C12.7883 47.1201 13.1709 45.9293 13.2289 44.7012L14.1139 44.0888C14.0603 45.4184 13.6231 46.7041 12.8551 47.7909V47.7909ZM14.7077 41.9165C15.1014 41.4845 15.4298 40.9973 15.6827 40.4704C15.7435 40.6176 15.8211 40.7572 15.9139 40.8866C16.0252 41.0416 16.1352 41.1828 16.2452 41.3153L14.7077 41.9165ZM15.3014 36.7008L14.7139 36.7633L14.5502 36.7808L14.2664 36.8108C14.3822 36.6881 14.4907 36.5587 14.5914 36.4233C14.7817 36.1707 14.9389 35.8947 15.0589 35.6021C15.1161 35.4673 15.1609 35.3276 15.1927 35.1847C15.307 35.1712 15.4202 35.1495 15.5314 35.1197C15.9249 35.0398 16.2759 34.8194 16.5189 34.4997C16.5189 34.4997 16.5002 34.641 16.4502 34.8484C16.3226 35.5964 15.9105 36.2661 15.3002 36.717L15.3014 36.7008ZM15.0702 38.8531C14.5497 40.2543 13.7694 41.5447 12.7701 42.6564C12.2539 42.8527 11.7939 43.0214 11.4526 43.1389C12.6435 42.0804 13.5546 40.7443 14.1051 39.2493L15.0689 38.8643L15.0702 38.8531ZM11.2939 44.1238C11.4676 43.9988 11.6439 43.8738 11.8264 43.7488C12.5062 43.5391 13.2231 43.4769 13.9289 43.5663C13.7376 43.7038 13.5539 43.8363 13.3689 43.9675C13.0328 43.9369 12.6944 43.9399 12.3589 43.9763C11.9237 44.0211 11.4963 44.1228 11.0876 44.2788L11.2939 44.1275V44.1238ZM9.37635 45.6436L9.3876 45.6324C9.62885 45.4237 9.89635 45.2012 10.1864 44.9674C10.8943 44.6926 11.6566 44.5868 12.4126 44.6587C12.1789 44.8325 11.9601 44.9949 11.7476 45.1587L11.7201 45.1799C10.9102 45.1239 10.1001 45.2857 9.37385 45.6486L9.37635 45.6436ZM10.8989 48.6896C11.5471 47.7842 11.9137 46.7077 11.9526 45.5949L12.7714 45.0237C12.7098 46.2027 12.3475 47.3464 11.7189 48.3459C11.4289 48.4709 11.1589 48.5883 10.8989 48.6908V48.6896ZM11.8301 49.2295C11.8776 49.1795 11.9264 49.1308 11.9751 49.0808C12.1114 48.9433 12.2539 48.8096 12.4014 48.6796C12.9138 48.3981 13.5044 48.2923 14.0827 48.3784L13.5989 48.8408L13.5651 48.8733C12.9654 48.8355 12.3664 48.9585 11.8301 49.2295V49.2295ZM10.3426 52.1917C10.7276 51.8655 11.2301 51.4331 11.8101 50.9294C11.8559 51.5436 11.7166 52.1574 11.4101 52.6917C11.2033 52.7135 10.9945 52.6784 10.8062 52.5903C10.6179 52.5022 10.4571 52.3644 10.3414 52.1917H10.3426ZM11.5926 52.6917C11.995 52.0935 12.1831 51.3768 12.1264 50.6581L12.7514 50.1107C12.8152 50.9697 12.6564 51.8307 12.2901 52.6104C12.0618 52.6556 11.8302 52.6823 11.5976 52.6904L11.5926 52.6917ZM12.4676 52.5667C12.9609 51.7446 13.1716 50.7837 13.0676 49.8307C13.3014 49.6257 13.5414 49.4145 13.7851 49.2058C13.8635 50.272 13.6923 51.3419 13.2851 52.3305C13.0202 52.4286 12.7492 52.5096 12.4739 52.5729L12.4676 52.5667ZM13.5301 52.2192C13.9917 51.1763 14.1975 50.0381 14.1302 48.8996C14.3802 48.6846 14.6272 48.4684 14.8714 48.2509C14.8623 48.7241 14.8268 49.1965 14.7652 49.6657C14.6736 50.4505 14.4628 51.2168 14.1402 51.938C13.9289 52.0417 13.7226 52.1355 13.5251 52.2205L13.5301 52.2192ZM14.0977 53.0704C14.0977 53.0604 14.1076 53.0529 14.1126 53.0454L14.1451 53.0292L14.0977 53.0704ZM14.2977 52.7442C14.4039 52.5817 14.5064 52.4305 14.6039 52.298L14.6977 52.173C15.2834 51.7998 15.9852 51.6532 16.6714 51.7605C16.6747 51.7596 16.6782 51.7596 16.6814 51.7605L16.3539 52.1355C15.6172 52.0736 14.8839 52.2889 14.2977 52.7392V52.7442ZM15.3939 56.1276C15.1572 56.1959 14.9168 56.2506 14.6739 56.2913C14.9727 55.6989 15.091 55.0318 15.0139 54.3728L15.5139 53.8728C15.6381 54.6249 15.5981 55.395 15.3964 56.1301L15.3939 56.1276ZM15.5939 56.0626C15.9111 55.2455 16.0123 54.3604 15.8877 53.4929C16.0764 53.3066 16.2627 53.1179 16.4652 52.9167C16.585 53.8905 16.5141 54.8784 16.2564 55.8251C16.0427 55.9114 15.8202 55.9926 15.5927 56.0639L15.5939 56.0626ZM17.3589 54.6227C17.3277 54.8652 17.2839 55.1227 17.2339 55.3889C17.0164 55.4989 16.7689 55.6164 16.5014 55.7326C16.8668 54.7206 16.9792 53.6346 16.8289 52.5692L17.3164 52.083C17.4689 52.9219 17.485 53.78 17.3639 54.624L17.3589 54.6227ZM17.6352 55.1514L17.5339 55.2289L17.4502 55.2739C17.4739 55.1852 17.5239 54.979 17.5752 54.704L17.5839 54.6565C17.5989 54.579 17.6139 54.4978 17.6264 54.4065C17.6439 54.2953 17.6614 54.179 17.6777 54.0541C17.7822 53.2804 17.7792 52.4959 17.6689 51.723C17.8627 51.5305 18.0564 51.3368 18.2514 51.1456C18.4507 52.3713 18.4027 53.6246 18.1102 54.8315L17.6339 55.1489L17.6352 55.1514ZM19.0577 54.2078L18.2714 54.7315L18.3477 54.6552C18.729 53.413 18.8117 52.0983 18.5889 50.8181L19.1552 50.2619C19.374 51.571 19.3409 52.9098 19.0577 54.2065V54.2078ZM20.4327 52.9579C20.6829 51.6705 20.6629 50.3451 20.374 49.0658C20.5802 48.8658 20.7752 48.6783 20.959 48.5033C21.2432 49.7591 21.2636 51.0602 21.019 52.3242C20.8202 52.5355 20.6252 52.7479 20.4315 52.9567L20.4327 52.9579ZM21.9027 52.208C22.0349 53.4604 22.008 54.7245 21.8227 55.9701L21.104 56.6488C21.3188 55.3721 21.4026 54.0767 21.354 52.7829C21.5427 52.5867 21.729 52.3942 21.909 52.2067L21.9027 52.208ZM20.8902 43.99C21.2762 44.7911 21.3962 45.6945 21.2327 46.5685C21.2115 46.6723 21.1852 46.7773 21.1602 46.8823L20.2852 47.8159C20.7882 46.6068 20.9973 45.2956 20.8952 43.99H20.8902ZM20.044 53.3816L19.3152 54.0228C19.707 52.683 19.7747 51.2693 19.5127 49.8982L19.9765 49.4458C20.3117 50.7324 20.3352 52.0803 20.0452 53.3779L20.044 53.3816ZM19.7027 43.3464C19.4527 43.5488 19.1752 43.7626 18.8877 43.9813C19.0643 43.4981 19.1765 42.9939 19.2215 42.4814C19.4047 42.4666 19.587 42.4424 19.7677 42.4089C19.7121 42.6466 19.6836 42.8898 19.6827 43.1339C19.682 43.206 19.6887 43.2781 19.7027 43.3489V43.3464ZM17.6402 39.2218C17.5926 38.8059 17.6516 38.3847 17.8117 37.9979C17.9718 37.6111 18.2276 37.2714 18.5552 37.0107C17.5552 39.5105 19.5302 40.3417 19.5302 40.3417C19.1827 40.4383 18.813 40.4187 18.4777 40.2858C18.1423 40.1529 17.8596 39.914 17.6727 39.6055C17.6327 39.9036 17.6742 40.207 17.7928 40.4834C17.9115 40.7598 18.1028 40.9989 18.3464 41.1753C14.4364 40.6204 16.3864 37.1395 16.5427 36.8707H16.5527C16.4589 37.3274 16.5139 37.8021 16.7096 38.2252C16.9053 38.6483 17.2314 38.9975 17.6402 39.2218V39.2218ZM16.9939 32.7224C16.9264 33.2028 16.7205 33.6531 16.4014 34.0185C16.249 34.1869 16.0715 34.3306 15.8752 34.4447C15.7698 34.5073 15.6579 34.558 15.5414 34.596C15.7617 34.3709 15.9467 34.1139 16.0902 33.8335C16.3046 33.3523 16.3985 32.8259 16.3637 32.3002C16.3288 31.7744 16.1663 31.2651 15.8902 30.8163C15.6571 30.7524 15.4368 30.6488 15.2389 30.5101C17.0164 33.6961 14.8852 34.6747 14.3539 34.8622C14.3239 34.8644 14.2939 34.8644 14.2639 34.8622V34.8897H14.2439H14.2639C14.1594 35.4689 13.9002 36.0092 13.5139 36.4533C13.1826 36.542 12.8164 36.6295 12.4314 36.7133C12.9561 36.2108 13.4035 35.6333 13.7589 34.9997C13.8482 34.9881 13.9364 34.9693 14.0226 34.9434C13.5816 34.9227 13.1509 34.8025 12.7628 34.592C12.3746 34.3814 12.0392 34.0858 11.7814 33.7273C11.4487 33.2015 11.2408 32.6066 11.1734 31.9882C11.106 31.3697 11.181 30.744 11.3926 30.1589C11.3534 30.6272 11.4072 31.0987 11.5509 31.5462C11.6946 31.9936 11.9255 32.4083 12.2301 32.7662C12.1051 32.4787 11.3951 29.7802 12.2164 29.1028C13.5689 27.9854 14.8227 29.9652 14.8227 29.9652C14.4676 29.2944 14.2794 28.548 14.2739 27.7891C15.0723 28.7519 16.1797 29.4083 17.4077 29.6465L16.8027 30.5676C17.0272 31.2685 17.0938 32.0103 16.9977 32.7399L16.9939 32.7224ZM27.2153 20.0374C27.0342 20.0787 26.8576 20.1373 26.6878 20.2124C25.8053 20.5874 25.1815 21.4198 24.3328 22.9196C24.2703 23.0296 24.2078 23.1284 24.1415 23.2258C23.9456 23.5251 23.7035 23.7913 23.424 24.0145C23.1436 24.2445 22.8082 24.3975 22.4507 24.4584C22.0932 24.5194 21.726 24.4861 21.3852 24.362C23.7603 24.237 24.1078 21.7672 25.229 20.7373C25.6605 20.3738 26.188 20.1429 26.7478 20.0724C26.9021 20.0483 27.0579 20.0345 27.214 20.0312L27.2153 20.0374ZM18.5902 19.8674C20.5952 19.1037 20.2515 18.1576 20.2515 18.1576C20.854 18.6738 20.814 19.5825 19.1265 20.1686C17.8382 20.6929 16.7457 21.6061 16.0014 22.7809C16.1973 22.139 16.5298 21.547 16.976 21.0456C17.4222 20.5442 17.9716 20.1453 18.5864 19.8762L18.5902 19.8674ZM16.4652 24.3945C16.2779 25.46 16.3326 26.5539 16.6252 27.5954C16.4001 27.3984 16.217 27.1581 16.0867 26.8889C15.9563 26.6196 15.8815 26.327 15.8666 26.0282C15.8516 25.7295 15.8969 25.4308 15.9998 25.1499C16.1026 24.869 16.2609 24.6117 16.4652 24.3932V24.3945ZM17.2389 24.3295C16.972 25.6301 17.1058 26.9811 17.6227 28.2041C15.6677 25.9118 17.2377 24.342 17.2377 24.342L17.2389 24.3295ZM18.2389 23.8833C17.801 25.7053 18.1002 27.6264 19.0715 29.229C18.2636 28.6244 17.7245 27.7277 17.5696 26.7307C17.4148 25.7337 17.6563 24.7157 18.2427 23.8945L18.2389 23.8833ZM18.899 24.7694C18.8378 26.0052 19.0447 27.2395 19.5052 28.3878C19.0297 27.9293 18.714 27.3302 18.6046 26.6788C18.4953 26.0274 18.598 25.3581 18.8977 24.7694H18.899ZM19.8765 22.001C20.134 20.8486 21.1265 21.4248 21.574 20.6886C21.5848 20.8922 21.532 21.094 21.4229 21.2662C21.3138 21.4385 21.1539 21.5725 20.9652 21.6497C21.2747 21.6107 21.571 21.5008 21.8311 21.3287C22.0913 21.1566 22.3083 20.9269 22.4652 20.6573C22.4652 20.6573 22.4015 21.746 21.7927 22.066C22.447 21.9408 23.0365 21.5895 23.4577 21.0736C24.1615 20.2086 24.4503 19.7612 25.669 19.8562C24.3553 20.2411 24.2278 22.3559 22.7552 23.3483C21.4065 24.2545 19.4527 23.8895 19.8715 22.001H19.8765ZM26.2765 23.8508C26.265 24.0265 26.2433 24.2013 26.2115 24.3745C26.1809 24.5576 26.125 24.7355 26.0453 24.9032C26.0378 24.9157 26.034 24.9332 26.0253 24.9469C25.9451 25.0798 25.8494 25.2027 25.7403 25.3131C25.5515 25.5144 25.3215 25.7193 25.094 25.9268C24.8016 26.163 24.5532 26.4491 24.3603 26.7717C24.5224 26.1405 24.8168 25.5508 25.224 25.0419C25.2565 25.0069 25.2853 24.9657 25.3165 24.9307C25.4755 24.7333 25.6197 24.5244 25.7478 24.3057C25.8378 24.1532 25.9215 24.0045 25.9978 23.867C26.129 23.6083 26.2228 23.3946 26.2628 23.2996L26.2878 23.2508C26.2878 23.2508 26.2878 23.2746 26.2878 23.3108C26.2878 23.4046 26.2878 23.6083 26.2778 23.852L26.2765 23.8508ZM28.3128 20.8886C28.2884 21.0569 28.2189 21.2154 28.1115 21.3473C27.813 21.6758 27.42 21.9037 26.9865 21.9997L26.889 22.031C26.724 22.0835 26.574 22.1372 26.439 22.1959C26.0358 22.3486 25.6815 22.6078 25.414 22.9459C25.3515 23.0292 25.2919 23.115 25.2353 23.2033C25.0857 23.4525 24.9488 23.709 24.8253 23.972C24.7928 24.0383 24.7603 24.1058 24.7253 24.1757L24.649 24.3332C24.5419 24.5497 24.4199 24.7585 24.284 24.9582C23.169 26.623 21.6652 26.6493 21.3502 25.3269C21.5002 25.5122 21.7026 25.6479 21.931 25.7164C22.1593 25.7848 22.403 25.7828 22.6302 25.7106C23.154 25.5519 23.6703 24.8269 24.1415 24.0445C24.3128 23.7608 24.4778 23.4696 24.6415 23.1958C24.8644 22.7739 25.1264 22.3739 25.424 22.001C25.529 21.8885 25.6353 21.7835 25.7428 21.6872C25.8996 21.547 26.0667 21.4188 26.2428 21.3035C26.3378 21.241 26.4353 21.1785 26.534 21.126C27.0841 20.8289 27.6848 20.6373 28.3053 20.5611C28.3263 20.6694 28.3305 20.7803 28.3178 20.8898L28.3128 20.8886ZM32.5928 16.0578C30.5816 18.2388 27.654 16.5165 27.654 16.5165C28.4665 16.7776 29.3234 16.8717 30.1732 16.7933C31.0229 16.7149 31.8481 16.4656 32.5991 16.0603L32.5928 16.0578ZM19.5315 10.3146C19.6716 9.82499 19.9158 9.3714 20.2474 8.98484C20.5789 8.59828 20.9901 8.28787 21.4527 8.07484C22.3129 7.81417 23.2183 7.7371 24.1103 7.84861C23.9119 8.06725 23.7499 8.3162 23.6302 8.58604C24.116 8.20761 24.6563 7.90503 25.2328 7.68862C25.669 7.50638 26.0836 7.27624 26.469 7.00244H24.899C23.424 7.3774 22.2015 7.28491 21.2302 7.68987C20.752 7.95266 20.3464 8.33002 20.0499 8.78812C19.7534 9.24622 19.5753 9.77073 19.5315 10.3146V10.3146ZM15.4314 27.6067C14.8885 26.6797 14.5657 25.6406 14.4879 24.5692C14.4101 23.4978 14.5793 22.4229 14.9827 21.4273C14.9827 21.4273 12.3901 24.1807 15.4314 27.6067V27.6067ZM41.8854 8.58604C41.1758 8.19564 40.5598 7.65522 40.0804 7.00244L39.7054 7.00244C39.886 7.46899 40.2093 7.86661 40.6292 8.13858C39.5995 7.9981 38.6198 7.60806 37.7754 7.00244L37.4366 7.00244C37.9848 7.62008 38.6801 8.08922 39.4581 8.36629C40.2361 8.64336 41.0715 8.71938 41.8867 8.58729L41.8854 8.58604ZM45.3442 9.19348C46.2239 9.32822 47.1238 9.19049 47.9229 8.79881C48.7219 8.40713 49.382 7.78026 49.8143 7.00244H49.093C48.4588 7.49126 47.6806 7.75636 46.8799 7.75636C46.0791 7.75636 45.3009 7.49126 44.6667 7.00244L44.308 7.00244C44.7933 7.53167 45.4017 7.93306 46.0792 8.17108C45.1046 8.10373 44.1865 7.68908 43.4917 7.00244L43.1992 7.00244C43.5539 7.58521 44.0214 8.0913 44.5742 8.49104C43.6848 8.20298 42.8848 7.69024 42.2517 7.00244L42.0017 7.00244C42.3597 7.5961 42.8469 8.10146 43.4271 8.481C44.0073 8.86053 44.6656 9.10448 45.353 9.19473L45.3442 9.19348ZM24.9765 8.971C24.5826 9.06361 24.223 9.2662 23.9398 9.55519C23.6565 9.84417 23.4612 10.2077 23.3765 10.6033C23.7095 10.0402 24.2467 9.62705 24.8765 9.4497C25.3024 9.34516 25.7045 9.16066 26.0615 8.906C25.8191 9.54779 25.353 10.0804 24.749 10.4059C24.3816 10.5709 24.0574 10.8186 23.8017 11.1298C23.546 11.4409 23.3658 11.807 23.2752 12.1994C23.6717 11.6105 24.2269 11.146 24.8765 10.8596C25.4356 10.55 25.9004 10.095 26.2217 9.54264C26.5431 8.99031 26.7089 8.36131 26.7015 7.72237C26.2994 8.3387 25.683 8.78403 24.9715 8.97225L24.9765 8.971ZM48.213 26.0318C48.8142 26.0871 49.4116 26.1785 50.0018 26.3055V25.9306C49.4051 25.9105 48.8077 25.9432 48.2168 26.0281L48.213 26.0318ZM50.0018 49.292V48.7483C48.8624 48.8046 47.7279 48.9349 46.6055 49.1383C47.734 49.2563 48.8685 49.3064 50.003 49.2883L50.0018 49.292ZM50.0018 47.4834V46.9748C49.194 47.0072 48.3895 47.0966 47.5943 47.2422C48.3852 47.4124 49.1928 47.4933 50.0018 47.4834V47.4834ZM50.0018 48.3584V47.8584C49.1935 47.8821 48.3884 47.9707 47.5943 48.1234C48.3854 48.2924 49.1929 48.3729 50.0018 48.3634V48.3584ZM47.363 24.0808C47.363 24.0808 48.448 24.1358 49.9993 24.3495V23.9883C49.1195 23.9655 48.2391 23.9964 47.363 24.0808V24.0808ZM50.0018 12.9831V12.7231C49.313 12.7156 48.5318 12.7406 47.6268 12.8169C47.6268 12.8181 48.588 12.8406 50.0018 12.9831ZM46.3567 15.0829C46.3567 15.0829 47.9118 15.1191 50.0018 15.3766V15.0329C48.7872 14.9576 47.5688 14.9743 46.3567 15.0829ZM47.1917 13.958C47.1917 13.958 48.3555 13.9843 49.9993 14.168V13.868C49.0626 13.8405 48.125 13.8693 47.1917 13.9543V13.958ZM48.868 35.5221C49.2496 35.5803 49.6274 35.6612 49.9993 35.7646V35.4921C49.6241 35.4719 49.2479 35.482 48.8743 35.5221H48.868ZM50.0018 22.4772V22.3447C49.6968 22.3547 49.3768 22.3684 49.038 22.3947C49.038 22.3947 49.4055 22.4147 50.0018 22.4772ZM50.0018 36.6008V36.3408C49.6328 36.3304 49.2636 36.3454 48.8968 36.3858C49.2686 36.4361 49.6374 36.5062 50.0018 36.5958V36.6008ZM48.3205 29.4902C48.8908 29.5782 49.453 29.712 50.0018 29.8902V29.474C49.443 29.3961 48.8758 29.3995 48.318 29.484L48.3205 29.4902ZM48.3843 31.2151C48.9326 31.2991 49.4734 31.4262 50.0018 31.595V31.2063C49.4624 31.1346 48.9159 31.1355 48.3768 31.2088L48.3843 31.2151ZM45.333 16.2165C45.333 16.2165 47.3768 16.2515 50.0018 16.5902V16.2265C48.4479 16.0808 46.8841 16.075 45.3292 16.209L45.333 16.2165ZM47.958 25.0282C47.958 25.0282 48.7918 25.0844 50.008 25.2781V24.9744C49.4168 24.9607 48.7455 24.9744 47.958 25.0319V25.0282ZM48.583 33.8023C49.0628 33.877 49.5369 33.9847 50.0018 34.1248V33.7623C49.5258 33.7208 49.0466 33.7317 48.573 33.7948L48.583 33.8023ZM48.458 32.08C48.9807 32.1603 49.4967 32.2794 50.0018 32.4362V32.0537C49.4843 31.9954 48.9616 32.0012 48.4455 32.0712L48.458 32.08ZM48.6468 34.6647C49.1047 34.7343 49.5575 34.8349 50.0018 34.9659V34.6247C49.5469 34.589 49.0896 34.5991 48.6368 34.6547L48.6468 34.6647ZM48.5218 32.9399C49.0225 33.0181 49.5171 33.1317 50.0018 33.2799V32.9049C49.5056 32.8527 49.0049 32.8602 48.5105 32.9274L48.5218 32.9399Z" fill="#6C1011"/>
<path d="M50 7H100.001V56.9951H50V7Z" fill="url(#paint1_linear_6474_99710)"/>
<path d="M56.6328 43.665C57.3316 43.6537 57.3566 43.6537 57.9216 43.6412C58.3978 43.6275 58.7753 43.6275 58.9741 43.6275C59.759 43.5158 60.5572 43.7032 61.2104 44.1524C61.4084 44.3295 61.5665 44.5467 61.6743 44.7896C61.782 45.0324 61.8369 45.2954 61.8354 45.561C61.8491 45.9621 61.7246 46.3556 61.4827 46.6758C61.2408 46.996 60.8962 47.2233 60.5066 47.3196C60.9233 47.3611 61.3243 47.5008 61.6766 47.7271C61.9527 47.9235 62.1767 48.1842 62.3292 48.4867C62.4817 48.7893 62.558 49.1244 62.5516 49.4632C62.5518 49.9239 62.4191 50.3749 62.1695 50.7622C61.9199 51.1495 61.5639 51.4566 61.1441 51.6467C60.2701 51.9684 59.3348 52.0889 58.4078 51.9992H56.6328V43.6625V43.665ZM58.7653 47.2021C59.5916 47.2021 59.9203 47.1221 60.2378 46.8472C60.3954 46.7066 60.5197 46.5328 60.6017 46.3382C60.6836 46.1436 60.7212 45.9332 60.7116 45.7223C60.7271 45.4905 60.683 45.2586 60.5837 45.0486C60.4844 44.8386 60.3331 44.6575 60.1441 44.5224C59.7558 44.3215 59.3184 44.2349 58.8828 44.2724C58.5253 44.2724 58.3691 44.2724 57.6591 44.3249V47.1996H58.7666L58.7653 47.2021ZM58.8028 51.3267C59.5204 51.3984 60.2409 51.222 60.8441 50.8268C61.0313 50.6742 61.1817 50.4813 61.2841 50.2625C61.3865 50.0437 61.4382 49.8047 61.4354 49.5631C61.4461 49.2622 61.3682 48.9647 61.2113 48.7076C61.0544 48.4505 60.8254 48.2451 60.5528 48.117C59.9775 47.9042 59.3638 47.8148 58.7516 47.8546H57.6578V51.3155L58.8016 51.3267H58.8028ZM68.0529 43.66L71.2817 51.9992H70.1567L69.1729 49.3044H65.5479L64.4279 51.9992H63.3741L67.2492 43.6625L68.0529 43.66ZM67.4579 44.7411L65.8179 48.657H68.9204L67.4642 44.7499L67.4579 44.7411ZM73.408 43.66L79.0918 50.2843L78.9055 43.66H79.8281L79.8131 51.9592L79.3668 52.1154L73.3555 45.1711L73.5555 51.9992H72.6367V43.6625H73.413L73.408 43.66ZM83.6681 43.66V51.9992H82.6406V43.6625H83.6668L83.6681 43.66ZM89.2182 43.66L84.9431 47.3659L89.4169 51.9904H87.9719L83.7343 47.5321L87.8919 43.6575H89.2219L89.2182 43.66Z" fill="#EEBB31"/>
<path fill-rule="evenodd" clip-rule="evenodd" d="M57.0244 31.6499H59.8482L59.8444 31.6561L63.4245 40.364H61.4094L60.6594 38.3042H57.0919L56.2494 40.364H54.6406L58.3119 32.6348C58.3119 32.6348 56.7244 32.941 56.6981 32.6048C56.7144 32.4336 56.9319 31.7299 56.9319 31.7299L57.0244 31.6499ZM58.9307 33.7209L57.4732 37.3518H60.2707L58.9307 33.7209Z" fill="white"/>
<path d="M66.8133 39.2493V32.0001H64.9808V40.3542H70.6884V39.2493H66.8133Z" fill="white"/>
<path d="M73.9321 40.3605V31.9988H72.1009V40.3605H73.9321Z" fill="white"/>
<path fill-rule="evenodd" clip-rule="evenodd" d="M80.576 40.528C83.5585 40.528 85.576 38.7494 85.576 36.1246V36.1284C85.5892 35.5318 85.4756 34.9392 85.2427 34.3897C85.0099 33.8402 84.663 33.3464 84.2252 32.9409C83.7874 32.5353 83.2684 32.2273 82.7027 32.0371C82.137 31.8469 81.5374 31.7789 80.9435 31.8376C79.7149 31.7994 78.5117 32.192 77.5422 32.9475C77.0297 33.3277 76.6161 33.8254 76.3359 34.3988C76.0557 34.9721 75.9173 35.6042 75.9322 36.2421C75.9231 36.8517 76.0459 37.4561 76.2923 38.0138C76.5387 38.5715 76.9028 39.0693 77.3597 39.4731C78.2714 40.1975 79.4123 40.5717 80.576 40.528ZM78.0059 37.33C77.8727 36.9244 77.8238 36.496 77.8622 36.0709L77.8559 36.0672C77.8095 35.6739 77.8453 35.2753 77.9612 34.8967C78.0771 34.518 78.2705 34.1677 78.5292 33.8678C78.7878 33.5679 79.106 33.3251 79.4635 33.1549C79.8211 32.9846 80.2101 32.8905 80.606 32.8787C81.0409 32.8885 81.469 32.9887 81.863 33.173C82.2571 33.3572 82.6085 33.6214 82.8949 33.9488C83.1813 34.2762 83.3965 34.6596 83.5266 35.0747C83.6568 35.4897 83.6991 35.9273 83.651 36.3596C83.6809 36.8271 83.6038 37.2952 83.4256 37.7284C83.2473 38.1616 82.9725 38.5484 82.6222 38.8594C82.1311 39.2603 81.5175 39.4809 80.8835 39.4843C80.4568 39.4707 80.0374 39.3701 79.6511 39.1887C79.2647 39.0072 78.9195 38.7488 78.6366 38.4291C78.3537 38.1095 78.1391 37.7355 78.0059 37.33Z" fill="white"/>
<path fill-rule="evenodd" clip-rule="evenodd" d="M90.6923 31.9351C90.6923 31.9351 89.6498 31.9588 87.5535 31.9963L87.5485 32.0001V40.3617H89.3823V36.8408C89.5673 36.8558 89.6698 36.8558 89.8173 36.8558C90.0111 36.8558 90.1552 36.847 90.3125 36.8373C90.3682 36.8339 90.4255 36.8303 90.4873 36.8271C90.854 37.6393 91.2858 38.4205 91.7786 39.1631C92.0302 39.5813 92.3866 39.9265 92.8126 40.1648C93.2385 40.4031 93.7193 40.5261 94.2074 40.5217C94.8386 40.5217 95.1936 40.4292 95.2324 40.2567L95.3674 39.7305L95.3274 39.6655C94.2849 39.743 93.3261 38.9719 92.1661 36.5684C92.7283 36.477 93.2434 36.1993 93.6288 35.78C94.0142 35.3606 94.2475 34.8239 94.2911 34.2561C94.306 33.8782 94.2168 33.5034 94.0332 33.1728C93.8495 32.8422 93.5786 32.5684 93.2498 32.3813C92.4588 31.9871 91.5701 31.832 90.6923 31.9351ZM90.3473 35.9122C90.2436 35.9122 90.0848 35.9122 89.3885 35.8847V32.9475C89.9135 32.9337 89.9823 32.9337 90.3373 32.9337C90.7508 32.9021 91.1664 32.9514 91.5611 33.0787C91.818 33.1729 92.0364 33.3496 92.1821 33.5812C92.3278 33.8128 92.3925 34.0862 92.3661 34.3586C92.3661 35.4247 91.7348 35.9122 90.3473 35.9122Z" fill="white"/>
<defs>
<radialGradient id="paint0_radial_6474_99710" cx="0" cy="0" r="1" gradientUnits="userSpaceOnUse" gradientTransform="translate(25.0003 31.9975) scale(25.0003 24.9975)">
<stop stop-color="#F2CB72"/>
<stop offset="1" stop-color="#EFBC32"/>
</radialGradient>
<linearGradient id="paint1_linear_6474_99710" x1="99.9995" y1="31.9996" x2="50" y2="32.0055" gradientUnits="userSpaceOnUse">
<stop stop-color="#6B113D"/>
<stop offset="1" stop-color="#490724"/>
</linearGradient>
</defs>
</svg>
