<svg width="194" height="64" viewBox="0 0 194 64" fill="none" xmlns="http://www.w3.org/2000/svg">
<rect width="194" height="64" fill="#000028" fill-opacity="0.02"/>
<path d="M174.096 26.0605C171.191 26.0605 169.229 27.4082 169.229 29.4269C169.229 31.4497 171.276 32.2654 173.073 32.9925C174.46 33.555 175.918 34.1506 175.918 35.1122C175.918 35.4063 175.828 35.6287 175.668 35.8103C175.339 36.2053 174.65 36.3868 173.572 36.3339C172.513 36.2831 171.315 35.9301 169.978 35.3117L169.429 35.0623V37.5558L169.778 37.6556L170.003 37.7053C170.672 37.866 171.949 38.1542 173.248 38.1542C176.622 38.1542 178.639 36.8216 178.639 34.5885C178.639 32.518 176.557 31.6801 174.72 30.9482C173.372 30.4106 171.975 29.8589 171.975 28.9781C171.975 28.7198 171.96 27.9557 173.697 27.9557C174.995 27.9557 176.278 28.4696 176.966 28.7536L177.615 29.028V26.5096L176.966 26.3849C176.317 26.2592 175.224 26.0605 174.096 26.0605V26.0605ZM60.1344 26.4595V26.5843C60.2242 27.795 60.2841 30.832 60.2841 31.9452C60.2841 32.9606 60.2691 36.3526 60.1094 37.83V37.9545H65.4506C68.0663 37.9545 70.8417 37.1406 70.8417 34.8127C70.8417 33.3526 69.7983 32.2662 67.8216 31.6709C69.2692 31.2861 70.2676 30.2865 70.2676 29.1276C70.2676 27.2326 68.0712 26.5025 66.0245 26.4595H60.1344V26.4595ZM73.0881 26.4595V26.5843C73.1779 27.795 73.2377 30.8023 73.2377 31.9202C73.2377 32.9335 73.2228 36.3548 73.063 37.83V37.9545H75.7337V37.8548C75.5839 35.0382 75.5839 32.2116 75.5839 29.4768C75.6736 29.7971 75.8224 30.11 76.2329 30.7236C76.2727 30.7942 80.8851 37.5067 81.1249 37.9047V37.9545H83.2961L83.2712 37.83C83.1216 36.3517 83.1216 32.9337 83.1216 31.9202C83.1216 30.8021 83.1914 27.7902 83.2712 26.5843V26.4595H80.5756L80.7003 29.352C80.7503 30.7963 80.7753 32.2645 80.875 33.6907C80.6953 33.254 80.5555 33.0135 79.7769 31.8704C79.7569 31.8295 77.0713 27.6605 76.1328 26.4844L76.1078 26.4595H73.0881V26.4595ZM86.2911 26.4595L86.316 26.5594C86.4058 27.7743 86.4658 30.8032 86.4658 31.9203C86.4658 32.9346 86.4507 36.3539 86.2911 37.8301L86.2662 37.9546H89.4858L89.4608 37.8301C89.351 36.7777 89.3211 34.773 89.3111 33.217C89.441 33.2239 89.8852 33.242 89.8852 33.242L90.3346 33.2669C94.5577 33.2669 96.5993 32.1348 96.5993 29.8009C96.5993 27.141 93.739 26.5135 91.3329 26.4597H86.2911V26.4595ZM102.714 26.4595V26.5594C102.804 27.7743 102.889 30.8032 102.889 31.9203C102.889 32.9346 102.849 36.3539 102.689 37.8301V37.9546H105.884V37.8301C105.774 36.7777 105.729 34.773 105.709 33.217C105.849 33.2239 106.308 33.242 106.308 33.242L106.757 33.2669C110.98 33.2669 113.022 32.1348 113.022 29.8009C113.022 27.141 110.137 26.5135 107.731 26.4597H102.714V26.4595ZM117.265 26.4595L117.24 26.5344C116.651 28.1682 112.822 36.5234 112.223 37.8049L112.148 37.9545H114.894L114.919 37.9047C115.158 37.121 115.448 36.2251 115.817 35.2617L118.088 35.2118L119.96 35.2366C119.96 35.2366 120.28 35.2617 120.36 35.2617C120.859 36.5015 121.223 37.442 121.383 37.9047L121.408 37.9545H124.578L119.461 26.4595H117.265V26.4595ZM125.851 26.4595V26.5843C125.941 27.795 126 30.8023 126 31.9202C126 32.9327 125.996 36.3548 125.826 37.83V37.9545H129.02V37.83C128.861 36.3498 128.846 32.9327 128.846 31.9202C128.846 31.1183 128.886 29.3311 128.946 27.9057C129.205 27.8728 129.555 27.8608 129.794 27.8559C131.292 27.8279 132.355 28.1333 132.864 28.7535C133.094 29.0358 133.214 29.3929 133.214 29.8007C133.214 31.1274 131.951 31.7837 130.793 31.8454C130.413 31.8654 130.119 31.8205 130.119 31.8205L129.894 31.7708L130.044 31.9952C131.162 33.6539 132.869 36.5294 133.588 37.9047L133.613 37.9545H137.032L136.932 37.7801C136.813 37.5966 134.561 34.2991 133.613 32.8928C133.613 32.8928 133.583 32.8578 133.563 32.818C135.3 32.2902 136.159 31.3087 136.159 29.8007C136.159 27.1418 133.274 26.5105 130.868 26.4595H125.851V26.4595ZM138.53 26.4595V26.5594C138.62 27.7743 138.68 30.8072 138.68 31.9203C138.68 32.9329 138.664 36.3518 138.505 37.8301V37.9546H141.7L141.675 37.8301C141.515 36.3518 141.525 32.9329 141.525 31.9203C141.525 30.8064 141.595 27.7713 141.675 26.5594V26.4595H138.53V26.4595ZM144.57 26.4595V26.5843C144.66 27.7932 144.72 30.832 144.72 31.9452C144.72 32.9606 144.729 36.3526 144.57 37.83L144.545 37.9545H149.911C152.517 37.9545 155.302 37.1406 155.302 34.8127C155.302 33.3526 154.244 32.2662 152.257 31.6709C153.715 31.2861 154.703 30.2865 154.703 29.1276C154.703 27.2326 152.507 26.5025 150.46 26.4595H144.57V26.4595ZM161.018 26.4595L160.993 26.5094C160.364 28.2469 156.316 37.0786 155.976 37.8048L155.901 37.9543H158.647L158.671 37.8795C158.911 37.0975 159.201 36.2048 159.57 35.2363C159.66 35.2344 161.841 35.2115 161.841 35.2115L163.713 35.2363C163.713 35.2363 164.033 35.2344 164.112 35.2363C164.612 36.4732 164.976 37.4116 165.136 37.8795L165.161 37.9543H168.331L163.214 26.4594H161.018V26.4595ZM63.6786 27.7562C63.8632 27.7428 64.0828 27.7546 64.2775 27.7562C66.5039 27.764 67.3224 28.209 67.3224 29.4268C67.3224 29.7529 67.2377 30.0341 67.048 30.2746C66.6186 30.7842 65.7501 31.0497 64.7017 30.9977H64.652L64.028 32.6186H64.652C65.8799 32.5835 66.9481 32.9715 67.4973 33.641C67.7567 33.9512 67.8717 34.3079 67.8717 34.6882C67.8717 35.9667 66.7485 36.6081 64.5522 36.6081C64.1828 36.6081 63.5839 36.6059 63.2044 36.5832C63.1245 34.9006 63.1294 32.6225 63.1294 31.9452C63.1294 31.1422 63.1545 29.358 63.2044 27.8309C63.3292 27.8095 63.4938 27.7695 63.6786 27.7562V27.7562ZM148.139 27.7562C148.322 27.7428 148.518 27.7546 148.713 27.7562C150.949 27.764 151.783 28.209 151.783 29.4268C151.783 29.7529 151.683 30.0341 151.483 30.2746C151.054 30.7842 150.196 31.0497 149.137 30.9977H149.087L148.463 32.6186H149.112C150.34 32.5835 151.384 32.9715 151.933 33.641C152.192 33.9512 152.332 34.3079 152.332 34.6882C152.332 35.9667 151.209 36.6081 149.013 36.6081C148.633 36.6081 148.044 36.6059 147.665 36.5832C147.585 34.9006 147.565 32.6225 147.565 31.9452C147.565 31.1413 147.605 29.3528 147.665 27.8309C147.784 27.8095 147.956 27.7695 148.139 27.7562V27.7562ZM90.2346 27.8559C91.7321 27.8289 92.7704 28.1312 93.2795 28.7535C93.5092 29.0398 93.6289 29.392 93.6289 29.8007C93.6289 31.4655 91.777 31.8205 90.2095 31.8205L89.5607 31.7957C89.5607 31.7957 89.411 31.7588 89.3111 31.7458C89.3012 31.3627 89.3111 30.8711 89.3111 30.2998C89.3111 29.5667 89.3061 28.7327 89.336 27.9307C89.5257 27.8937 89.8852 27.864 90.2346 27.8559V27.8559ZM106.633 27.8559C108.13 27.8289 109.193 28.1312 109.702 28.7535C109.932 29.0398 110.052 29.392 110.052 29.8007C110.052 31.4655 108.2 31.8205 106.633 31.8205L105.984 31.7957C105.984 31.7957 105.824 31.7588 105.734 31.7458C105.724 31.3627 105.709 30.872 105.709 30.2998C105.709 29.5667 105.729 28.7327 105.759 27.9307C105.959 27.8937 106.293 27.864 106.633 27.8559V27.8559ZM118.089 29.8508C118.348 30.3914 119.012 31.9282 119.761 33.7406C119.651 33.7437 119.511 33.7406 119.511 33.7406L118.089 33.7654C118.089 33.7654 116.646 33.7477 116.416 33.7406C117.015 32.2804 117.579 30.9667 118.089 29.8508ZM161.841 29.8508C162.101 30.3934 162.765 31.9293 163.513 33.7406C163.394 33.7426 163.264 33.7406 163.264 33.7406L161.841 33.7654C161.841 33.7654 160.399 33.7425 160.169 33.7406C160.768 32.2823 161.332 30.9697 161.841 29.8508V29.8508Z" fill="#010000"/>
<path d="M14.75 49.0017H48.7837V15.0017H14.75V49.0017Z" fill="#00925C"/>
<path d="M34.0681 18.7812C34.9968 19.1662 38.7405 21.2109 39.2098 21.8481C37.223 22.1114 33.4392 23.2335 31.5224 24.2419C33.7187 23.7611 36.7788 23.5049 38.8851 23.3941C38.0666 24.6029 37.6173 25.2213 36.2895 26.6605C38.5656 25.2951 39.1997 25.2003 41.3062 23.9676C42.0948 25.1405 42.2996 27.8525 42.3294 30.0018C43.0183 28.6364 43.8519 23.5038 43.5025 22.5713C44.7703 21.7416 44.7703 21.4123 45.0999 20.8508C43.822 20.9646 43.1032 20.9854 42.4044 21.1999C40.6474 20.1207 37.0232 19.0106 34.0681 18.7812V18.7812ZM29.0766 25.2892C28.5076 25.3731 26.9001 26.0931 25.8319 26.935C25.8319 26.935 25.123 26.8482 23.9349 26.8851C22.747 26.937 21.1895 27.2362 20.5905 27.4834C21.7487 27.5373 23.3261 27.8265 23.9349 28.431C23.9349 28.431 22.1679 30.0218 20.4407 33.4928C20.4407 33.4928 23.6154 30.5385 24.9831 29.8024C24.9831 29.8024 25.6821 32.2042 26.1812 33.3931C26.1812 33.3931 26.6254 30.6233 27.3541 29.0294C27.3541 29.0294 27.5588 28.9027 28.5772 28.805C29.5854 28.7152 31.0082 28.6504 33.7436 29.1292C33.7436 29.1292 31.2329 27.5363 28.1279 27.1095C28.2478 26.6846 28.6872 25.7729 29.0766 25.2892V25.2892ZM20.1412 34.7144C19.9415 36.4211 19.8766 37.6647 20.1164 39.0282C19.3377 39.2397 18.7835 39.4173 18.1445 39.7013C19.0429 40.253 19.7819 40.6868 20.7901 41.1475C21.3193 42.2965 21.8634 43.0594 22.7619 43.9402C22.5523 43.1892 22.5074 42.5866 22.5872 41.7958C23.7155 42.124 24.6539 42.3036 25.9316 42.3444C24.7137 41.8955 23.8451 41.3689 22.8867 40.4742C23.1762 39.6903 23.5058 39.0628 24.0348 38.2799C23.0565 38.4198 22.3377 38.5385 21.4891 38.7037C20.8002 37.4963 20.4906 36.3263 20.1412 34.7144V34.7144ZM35.0665 40.0257C34.208 40.6291 33.4593 41.0997 32.4707 41.5715C32.421 41.1088 32.3909 40.7188 32.3709 40.2001C31.8118 40.9423 31.3427 41.5117 30.7236 42.1949C29.6754 42.4802 28.8467 42.5899 27.8285 42.5938C28.4474 42.916 29.0764 43.1115 29.7253 43.2421C29.0764 43.8356 28.5074 44.2605 27.8782 44.6634C28.9465 44.4102 30.3341 43.9512 31.3726 43.342C31.9117 43.3598 32.4507 43.3359 32.82 43.2669C32.7302 42.9459 32.6603 42.7056 32.5705 42.2945C33.5591 41.5337 34.2579 40.8504 35.0665 40.0257V40.0257Z" fill="white"/>
</svg>
