<svg width="120" height="64" viewBox="0 0 120 64" fill="none" xmlns="http://www.w3.org/2000/svg">
<g clip-path="url(#clip0_6474_99655)">
<rect width="120" height="64" fill="white"/>
<rect width="60" height="64" fill="#EE2722"/>
<rect x="60" width="60" height="64" fill="#329935"/>
<path d="M66.0938 0H84.6408V64H66.0938V0Z" fill="#B1161B"/>
<path d="M37.4609 0H66.0928V64H37.4609V0Z" fill="#F57615"/>
<path d="M84.6328 0H86.7552V64H84.6328V0Z" fill="#3068BB"/>
<path d="M6 0H35V64H6V0Z" fill="#EE2722"/>
<path d="M86.7578 0H114.758V64H86.7578V0Z" fill="#329935"/>
<path d="M34.2852 0H37.4619V64H34.2852V0Z" fill="#211E1C"/>
<mask id="mask0_6474_99655" style="mask-type:luminance" maskUnits="userSpaceOnUse" x="5" y="0" width="110" height="65">
<path d="M5 0H114.472V64.0149H5V0Z" fill="white"/>
</mask>
<g mask="url(#mask0_6474_99655)">
<path fill-rule="evenodd" clip-rule="evenodd" d="M103.129 40.2746H99.0075L95.4611 34.8082H93.7837V40.2746H90.1483V22.8633H93.7837V32.013H95.4611L98.8159 27.6481H102.876L98.6105 33.1903L103.129 40.2746ZM87.7862 33.0457V40.2746H84.1508V33.6103C84.1508 31.5655 83.2128 30.6292 81.6039 30.6292C79.8581 30.6292 78.5983 31.7101 78.5983 34.0302V40.2746H74.9628V30.464H73.5593V27.6481H77.8726L78.0643 29.6172C79.0159 28.2127 80.6522 27.4622 82.5829 27.4622C85.5474 27.4622 87.7862 29.1972 87.7862 33.0457ZM71.834 27.6481V40.2746H68.3629V38.8151C67.4523 39.9235 66.1241 40.4605 64.4467 40.4605C60.9003 40.4605 58.1754 37.927 58.1754 33.9614C58.1754 29.9958 60.9003 27.4622 64.4467 27.4622C65.9872 27.4622 67.288 27.9511 68.1986 28.9838V27.6481H71.834ZM68.267 33.9614C68.267 31.7789 66.8704 30.464 65.0766 30.464C63.2554 30.464 61.8519 31.7789 61.8519 33.9614C61.8519 36.1438 63.2554 37.4588 65.0766 37.4588C66.8704 37.4588 68.267 36.1438 68.267 33.9614ZM57.0526 35.7927C57.0526 38.6292 54.8138 40.2746 50.5211 40.2746H42.5039V26.9459H40.7786V23.8478H50.0555C54.136 23.8478 56.2378 25.5552 56.2378 28.1163C56.2378 29.7617 55.3957 31.0285 54.0675 31.7308C55.8887 32.316 57.0526 33.7273 57.0526 35.7927ZM46.2557 26.7118V30.581H49.5899C51.4316 30.581 52.4381 29.927 52.4381 28.6326C52.4381 27.3452 51.4316 26.7118 49.5899 26.7118H46.2557ZM53.2254 35.3934C53.2254 34.0096 52.2053 33.3487 50.2403 33.3487H46.2557V37.4106H50.2403C52.2053 37.4106 53.2254 36.7979 53.2254 35.3934ZM39.6558 33.0457V40.2746H36.0203V33.6103C36.0203 31.5655 35.1097 30.6292 33.6446 30.6292C32.0083 30.6292 30.8718 31.6826 30.8718 33.9339V40.2746H27.2295V33.6103C27.2295 31.5655 26.3668 30.6292 24.8537 30.6292C23.2448 30.6292 22.1015 31.6826 22.1015 33.9339V40.2746H18.466V30.464H17.0625V27.6481H21.3758L21.5675 29.5965C22.4712 28.2127 24.039 27.4622 25.8807 27.4622C27.6266 27.4622 29.1191 28.1369 30.0023 29.5277C31.0087 28.2333 32.6382 27.4622 34.5278 27.4622C37.5128 27.4622 39.6558 29.1972 39.6558 33.0457Z" fill="white"/>
</g>
</g>
<defs>
<clipPath id="clip0_6474_99655">
<rect width="120" height="64" fill="white"/>
</clipPath>
</defs>
</svg>
