<svg width="118" height="64" viewBox="0 0 118 64" fill="none" xmlns="http://www.w3.org/2000/svg">
<rect width="118" height="64" fill="#16161E"/>
<path d="M36.9726 35.3353L24.9183 19H19.945L22.059 21.8288L17.5234 41.6599H21.7906L25.327 26.1986L36.8858 41.6599H40.9218V19H36.9726V35.3353Z" fill="#BCA8FF"/>
<path d="M98.2486 19H91.229V33.9079H94.7968L98.2486 19Z" fill="#BCA8FF"/>
<path fill-rule="evenodd" clip-rule="evenodd" d="M46.4518 34.4239C46.8267 37.0241 48.533 38.5907 50.9236 38.5907C52.8778 38.5907 54.4306 37.3361 54.7194 35.4574L57.8864 36.0526C57.3885 39.343 54.4081 41.6599 50.8683 41.6599C46.3043 41.6599 43.2624 38.1835 43.2624 33.6407C43.2624 29.0978 46.2737 25.5594 50.7147 25.5594C54.7726 25.5594 57.4746 28.5666 57.4746 32.8263V34.4239H46.4518ZM54.3938 31.7309C54.3077 29.9452 52.8163 28.5356 50.7065 28.5356C48.6949 28.5356 47.1361 29.8212 46.6095 31.7309H54.3938Z" fill="#BCA8FF"/>
<path d="M92.6912 36.2932C92.1706 36.2932 91.6616 36.4506 91.2287 36.7454C90.7959 37.0403 90.4584 37.4594 90.2593 37.9497C90.0601 38.4401 90.0079 38.9796 90.1094 39.5002C90.2111 40.0207 90.4617 40.4988 90.8298 40.8741C91.198 41.2494 91.667 41.505 92.1777 41.6085C92.6882 41.712 93.2176 41.6589 93.6985 41.4557C94.1795 41.2527 94.5906 40.9087 94.8799 40.4674C95.1691 40.0261 95.3235 39.5074 95.3235 38.9766C95.3235 38.6242 95.2554 38.2754 95.1231 37.9497C94.9908 37.6242 94.7969 37.3284 94.5525 37.0793C94.3081 36.83 94.0179 36.6323 93.6985 36.4975C93.3792 36.3626 93.0369 36.2932 92.6912 36.2932Z" fill="#BCA8FF"/>
<path d="M63.9662 30.0628C63.9662 30.9066 64.5195 31.3769 66.455 31.5956C70.4819 32.002 72.5085 33.6585 72.5085 36.5611C72.5085 39.5936 69.959 41.6565 66.3962 41.6565C64.7726 41.7085 63.1869 41.1511 61.9409 40.0901C60.695 39.0292 59.8759 37.5389 59.6394 35.903L62.803 35.2842C63.1414 37.2852 64.4304 38.5043 66.3962 38.5043C68.21 38.5043 69.2233 37.7534 69.2233 36.7221C69.2233 35.7544 68.4249 35.1604 66.0902 34.9087C62.4909 34.5332 60.6183 32.8148 60.6183 30.0628C60.6183 27.4676 63.0138 25.5594 66.1469 25.5594C68.82 25.5594 71.1222 27.3418 71.86 30.1247L68.9721 31.0324C68.6052 29.5306 67.5898 28.7487 66.1469 28.7487C64.8255 28.7487 63.9662 29.2191 63.9662 30.0628Z" fill="#BCA8FF"/>
<path d="M83.8461 35.2503C84.0025 37.2763 83.0667 38.5108 81.5407 38.5108C80.0146 38.5108 79.1405 37.5938 79.1405 35.9167V28.9196H86.5589V25.8806H79.1405V21.3858H75.7099V25.8806H73.0939V28.9196H75.712V35.8122C75.712 39.4527 77.9579 41.6605 81.6661 41.6605C84.9403 41.6605 87.3097 39.2544 87.1225 35.5511L83.8461 35.2503Z" fill="#BCA8FF"/>
<path fill-rule="evenodd" clip-rule="evenodd" d="M75.5345 45.4691V51H77.9997C78.5791 51 79.0427 50.8604 79.3903 50.5812C79.7432 50.3021 79.9197 49.8912 79.9197 49.3486C79.9197 49.0168 79.8301 48.7323 79.6511 48.4953C79.472 48.2583 79.2349 48.0844 78.9399 47.9738C79.3982 47.7684 79.6273 47.3918 79.6273 46.844C79.6273 46.4068 79.4799 46.0696 79.1849 45.8326C78.8952 45.5903 78.4738 45.4691 77.9207 45.4691H75.5345ZM77.7943 47.721H76.6328V46.4647H77.7231C77.9812 46.4647 78.1761 46.52 78.3078 46.6306C78.4448 46.7412 78.5133 46.894 78.5133 47.0889C78.5133 47.2785 78.4474 47.4313 78.3157 47.5472C78.184 47.663 78.0102 47.721 77.7943 47.721ZM77.9523 50.0044H76.6328V48.6454H77.9128C78.1814 48.6454 78.3948 48.7034 78.5528 48.8193C78.7108 48.9299 78.7898 49.0905 78.7898 49.3012C78.7898 49.5277 78.7161 49.7016 78.5686 49.8227C78.4211 49.9439 78.2157 50.0044 77.9523 50.0044Z" fill="#BCA8FF"/>
<path fill-rule="evenodd" clip-rule="evenodd" d="M82.5222 45.4691L80.3573 51H81.4872L81.9375 49.8069H84.0867L84.5371 51H85.7064L83.5494 45.4691H82.5222ZM82.2931 48.8746L82.625 47.9896C82.6882 47.8211 82.754 47.6341 82.8225 47.4286C82.891 47.2232 82.9568 47.023 83.02 46.8281C83.0569 46.9598 83.099 47.0994 83.1464 47.2469C83.1991 47.3944 83.2465 47.534 83.2887 47.6657C83.3308 47.7921 83.3677 47.8948 83.3993 47.9738L83.739 48.8746H82.2931Z" fill="#BCA8FF"/>
<path d="M86.5145 51V45.4691H87.5337L90.3861 49.317C90.344 48.9852 90.3123 48.6402 90.2913 48.282C90.2755 47.9185 90.2702 47.4998 90.2755 47.0257V45.4691H91.3896V51H90.3545L87.5179 47.2153C87.5495 47.563 87.5732 47.8395 87.589 48.0449C87.6048 48.2451 87.6154 48.4137 87.6207 48.5506C87.6259 48.6823 87.6286 48.8193 87.6286 48.9615V51H86.5145Z" fill="#BCA8FF"/>
<path d="M92.8417 45.4691V51H93.9794V49.0958L94.572 48.519L96.4446 51H97.7958L95.3227 47.7842L97.693 45.4691H96.2945L93.9794 47.8079V45.4691H92.8417Z" fill="#BCA8FF"/>
<path d="M36.9726 35.3353L24.9183 19H19.945L22.059 21.8288L17.5234 41.6599H21.7906L25.327 26.1986L36.8858 41.6599H40.9218V19H36.9726V35.3353Z" stroke="#BCA8FF" stroke-width="0.0400001"/>
<path d="M98.2486 19H91.229V33.9079H94.7968L98.2486 19Z" stroke="#BCA8FF" stroke-width="0.0400001"/>
<path fill-rule="evenodd" clip-rule="evenodd" d="M46.4518 34.4239C46.8267 37.0241 48.533 38.5907 50.9236 38.5907C52.8778 38.5907 54.4306 37.3361 54.7194 35.4574L57.8864 36.0526C57.3885 39.343 54.4081 41.6599 50.8683 41.6599C46.3043 41.6599 43.2624 38.1835 43.2624 33.6407C43.2624 29.0978 46.2737 25.5594 50.7147 25.5594C54.7726 25.5594 57.4746 28.5666 57.4746 32.8263V34.4239H46.4518ZM54.3938 31.7309C54.3077 29.9452 52.8163 28.5356 50.7065 28.5356C48.6949 28.5356 47.1361 29.8212 46.6095 31.7309H54.3938Z" stroke="#BCA8FF" stroke-width="0.0400001"/>
<path d="M92.6912 36.2932C92.1706 36.2932 91.6616 36.4506 91.2287 36.7454C90.7959 37.0403 90.4584 37.4594 90.2593 37.9497C90.0601 38.4401 90.0079 38.9796 90.1094 39.5002C90.2111 40.0207 90.4617 40.4988 90.8298 40.8741C91.198 41.2494 91.667 41.505 92.1777 41.6085C92.6882 41.712 93.2176 41.6589 93.6985 41.4557C94.1795 41.2527 94.5906 40.9087 94.8799 40.4674C95.1691 40.0261 95.3235 39.5074 95.3235 38.9766C95.3235 38.6242 95.2554 38.2754 95.1231 37.9497C94.9908 37.6242 94.7969 37.3284 94.5525 37.0793C94.3081 36.83 94.0179 36.6323 93.6985 36.4975C93.3792 36.3626 93.0369 36.2932 92.6912 36.2932Z" stroke="#BCA8FF" stroke-width="0.0400001"/>
<path d="M63.9662 30.0628C63.9662 30.9066 64.5195 31.3769 66.455 31.5956C70.4819 32.002 72.5085 33.6585 72.5085 36.5611C72.5085 39.5936 69.959 41.6565 66.3962 41.6565C64.7726 41.7085 63.1869 41.1511 61.9409 40.0901C60.695 39.0292 59.8759 37.5389 59.6394 35.903L62.803 35.2842C63.1414 37.2852 64.4304 38.5043 66.3962 38.5043C68.21 38.5043 69.2233 37.7534 69.2233 36.7221C69.2233 35.7544 68.4249 35.1604 66.0902 34.9087C62.4909 34.5332 60.6183 32.8148 60.6183 30.0628C60.6183 27.4676 63.0138 25.5594 66.1469 25.5594C68.82 25.5594 71.1222 27.3418 71.86 30.1247L68.9721 31.0324C68.6052 29.5306 67.5898 28.7487 66.1469 28.7487C64.8255 28.7487 63.9662 29.2191 63.9662 30.0628Z" stroke="#BCA8FF" stroke-width="0.0400001"/>
<path d="M83.8461 35.2503C84.0025 37.2763 83.0667 38.5108 81.5407 38.5108C80.0146 38.5108 79.1405 37.5938 79.1405 35.9167V28.9196H86.5589V25.8806H79.1405V21.3858H75.7099V25.8806H73.0939V28.9196H75.712V35.8122C75.712 39.4527 77.9579 41.6605 81.6661 41.6605C84.9403 41.6605 87.3097 39.2544 87.1225 35.5511L83.8461 35.2503Z" stroke="#BCA8FF" stroke-width="0.0400001"/>
<path fill-rule="evenodd" clip-rule="evenodd" d="M75.5345 45.4691V51H77.9997C78.5791 51 79.0427 50.8604 79.3903 50.5812C79.7432 50.3021 79.9197 49.8912 79.9197 49.3486C79.9197 49.0168 79.8301 48.7323 79.6511 48.4953C79.472 48.2583 79.2349 48.0844 78.9399 47.9738C79.3982 47.7684 79.6273 47.3918 79.6273 46.844C79.6273 46.4068 79.4799 46.0696 79.1849 45.8326C78.8952 45.5903 78.4738 45.4691 77.9207 45.4691H75.5345ZM77.7943 47.721H76.6328V46.4647H77.7231C77.9812 46.4647 78.1761 46.52 78.3078 46.6306C78.4448 46.7412 78.5133 46.894 78.5133 47.0889C78.5133 47.2785 78.4474 47.4313 78.3157 47.5472C78.184 47.663 78.0102 47.721 77.7943 47.721ZM77.9523 50.0044H76.6328V48.6454H77.9128C78.1814 48.6454 78.3948 48.7034 78.5528 48.8193C78.7108 48.9299 78.7898 49.0905 78.7898 49.3012C78.7898 49.5277 78.7161 49.7016 78.5686 49.8227C78.4211 49.9439 78.2157 50.0044 77.9523 50.0044Z" stroke="#BCA8FF" stroke-width="0.0400001"/>
<path fill-rule="evenodd" clip-rule="evenodd" d="M82.5222 45.4691L80.3573 51H81.4872L81.9375 49.8069H84.0867L84.5371 51H85.7064L83.5494 45.4691H82.5222ZM82.2931 48.8746L82.625 47.9896C82.6882 47.8211 82.754 47.6341 82.8225 47.4286C82.891 47.2232 82.9568 47.023 83.02 46.8281C83.0569 46.9598 83.099 47.0994 83.1464 47.2469C83.1991 47.3944 83.2465 47.534 83.2887 47.6657C83.3308 47.7921 83.3677 47.8948 83.3993 47.9738L83.739 48.8746H82.2931Z" stroke="#BCA8FF" stroke-width="0.0400001"/>
<path d="M86.5145 51V45.4691H87.5337L90.3861 49.317C90.344 48.9852 90.3123 48.6402 90.2913 48.282C90.2755 47.9185 90.2702 47.4998 90.2755 47.0257V45.4691H91.3896V51H90.3545L87.5179 47.2153C87.5495 47.563 87.5732 47.8395 87.589 48.0449C87.6048 48.2451 87.6154 48.4137 87.6207 48.5506C87.6259 48.6823 87.6286 48.8193 87.6286 48.9615V51H86.5145Z" stroke="#BCA8FF" stroke-width="0.0400001"/>
<path d="M92.8417 45.4691V51H93.9794V49.0958L94.572 48.519L96.4446 51H97.7958L95.3227 47.7842L97.693 45.4691H96.2945L93.9794 47.8079V45.4691H92.8417Z" stroke="#BCA8FF" stroke-width="0.0400001"/>
</svg>
