<svg width="210" height="64" viewBox="0 0 210 64" fill="none" xmlns="http://www.w3.org/2000/svg">
<rect width="210" height="64" fill="#000028" fill-opacity="0.02"/>
<g clip-path="url(#clip0_6474_99777)">
<path d="M46.356 27.6192C48.6836 26.2431 51.4829 26.7013 52.568 28.6244C53.6702 30.5475 52.6551 33.2296 50.3277 34.5886C47.9829 35.9468 45.2008 35.5058 44.0978 33.6005C43.0135 31.6595 44.0112 28.9774 46.356 27.6192Z" fill="#D52B1E"/>
<path d="M108.332 38.4553C108.367 38.402 108.384 38.3672 108.384 38.3142C108.384 38.2438 108.367 38.1739 108.314 38.1029C108.279 38.0321 108.227 37.9444 108.139 37.8206L104.395 32.9341L107.719 29.546C107.824 29.4397 107.894 29.3516 107.947 29.2635L107.956 29.2411L107.962 29.2245C107.991 29.1536 108.017 29.0915 108.017 29.0165C108.017 28.9635 107.999 28.9105 107.964 28.8754C107.935 28.8316 107.894 28.8121 107.841 28.7867L107.827 28.7796C107.82 28.7764 107.813 28.773 107.806 28.7694C107.736 28.752 107.649 28.7342 107.526 28.7165C107.479 28.7165 107.421 28.713 107.358 28.7091L107.356 28.709C107.279 28.7043 107.193 28.699 107.106 28.699C107.008 28.699 106.92 28.7046 106.844 28.7094C106.785 28.7132 106.732 28.7164 106.687 28.7164C106.564 28.7342 106.459 28.752 106.372 28.7872C106.284 28.8224 106.214 28.8576 106.161 28.8928C106.092 28.946 106.039 28.9987 105.987 29.0694L102.522 32.9336V24.5157C102.522 24.4627 102.504 24.4098 102.487 24.3746C102.452 24.3216 102.399 24.2861 102.347 24.2687C102.277 24.2335 102.207 24.2157 102.084 24.1979C102.038 24.1979 101.986 24.1946 101.927 24.1907C101.85 24.1858 101.763 24.1802 101.664 24.1802C101.578 24.1802 101.496 24.1856 101.423 24.1904C101.363 24.1943 101.309 24.1979 101.262 24.1979C101.157 24.2157 101.069 24.2335 100.999 24.2687C100.929 24.286 100.894 24.3216 100.859 24.3746C100.842 24.4098 100.824 24.4627 100.824 24.5157V38.3142C100.824 38.3672 100.842 38.4198 100.859 38.4553L100.861 38.4573C100.896 38.4919 100.931 38.5267 101 38.5613C101.069 38.5787 101.157 38.5964 101.262 38.6139C101.367 38.6316 101.507 38.6316 101.665 38.6316C101.839 38.6316 101.979 38.6316 102.084 38.6139C102.203 38.5969 102.273 38.5798 102.34 38.5628L102.347 38.5613L102.349 38.5602C102.4 38.5254 102.453 38.4902 102.487 38.4553C102.505 38.4198 102.522 38.3672 102.522 38.3142V33.1619L106.389 38.3142C106.415 38.3407 106.437 38.3671 106.459 38.3935L106.46 38.3947C106.482 38.4207 106.503 38.4467 106.529 38.4728C106.582 38.5083 106.651 38.5434 106.739 38.5787C106.809 38.5964 106.914 38.6139 107.036 38.6139C107.159 38.6316 107.299 38.6316 107.492 38.6316C107.666 38.6316 107.806 38.6316 107.929 38.6139C108.051 38.5964 108.139 38.5787 108.191 38.5613C108.261 38.526 108.314 38.4905 108.332 38.4553Z" fill="#D52B1E"/>
<path d="M97.6813 38.4554C97.699 38.4199 97.7162 38.3673 97.7162 38.3143L97.7163 32.6481C97.7163 31.9951 97.6637 31.4304 97.5414 30.9541C97.4363 30.4772 97.2439 30.0716 96.9989 29.719C96.7362 29.366 96.3854 29.0838 95.966 28.872C95.5466 28.6601 95.0388 28.5542 94.4265 28.5542C93.9018 28.5542 93.3763 28.6956 92.869 28.9601C92.3444 29.2422 91.8188 29.6659 91.3115 30.2482V29.031C91.3115 28.9606 91.2941 28.9254 91.2765 28.89C91.2592 28.8548 91.2065 28.8191 91.1539 28.7839C91.1015 28.7487 91.0316 28.7309 90.9262 28.7132C90.8777 28.7132 90.8253 28.7094 90.769 28.7054C90.704 28.7008 90.634 28.6958 90.5589 28.6958C90.4697 28.6958 90.3863 28.7014 90.3148 28.7062L90.3075 28.7067C90.2557 28.7101 90.2103 28.7131 90.174 28.7131C90.0689 28.7309 89.9991 28.7487 89.929 28.7839C89.8765 28.8191 89.8415 28.8543 89.8067 28.8895C89.7891 28.925 89.7891 28.9602 89.7891 29.0309V38.3145C89.7891 38.3674 89.7891 38.4201 89.8239 38.4556C89.8415 38.4908 89.8941 38.5263 89.9466 38.5616C90.0164 38.5789 90.1041 38.5967 90.2088 38.6142C90.3315 38.6319 90.4538 38.6319 90.629 38.6319C90.7863 38.6319 90.9262 38.6319 91.0489 38.6142C91.1539 38.5967 91.2414 38.5789 91.2939 38.5616C91.3633 38.5267 91.3981 38.4916 91.4327 38.4568L91.4336 38.4556C91.4512 38.4201 91.4688 38.3674 91.4688 38.3145V31.8212C91.9412 31.2392 92.3789 30.798 92.7987 30.498C93.236 30.198 93.6565 30.0392 94.0763 30.0392C94.4089 30.0392 94.6892 30.1098 94.9338 30.2332C95.1964 30.3569 95.3889 30.5332 95.5465 30.7628C95.704 30.9924 95.8264 31.2747 95.9138 31.6098C95.9839 31.9277 96.0365 32.3507 96.0365 32.88V38.3143C96.0365 38.3673 96.0365 38.4199 96.0713 38.4554C96.1063 38.4907 96.1415 38.5262 96.2113 38.5614C96.2639 38.5788 96.3513 38.5966 96.4563 38.614C96.579 38.6318 96.719 38.6318 96.8765 38.6318C97.0337 38.6318 97.174 38.6318 97.2963 38.614C97.4014 38.5966 97.4888 38.5788 97.5413 38.5614C97.6111 38.5262 97.6464 38.4907 97.6813 38.4554Z" fill="#D52B1E"/>
<path d="M158.461 38.0976C158.479 37.992 158.496 37.8331 158.496 37.6217C158.496 37.4984 158.496 37.4099 158.479 37.3214C158.461 37.2341 158.444 37.1817 158.427 37.1293L158.427 37.1276C158.409 37.0743 158.391 37.0395 158.356 37.0217C158.339 37.004 158.304 37.004 158.269 37.004C158.217 37.004 158.147 37.0217 158.077 37.0395C158.024 37.0743 157.937 37.1099 157.831 37.145C157.744 37.1806 157.639 37.2155 157.516 37.251C157.394 37.2687 157.254 37.2861 157.096 37.2861C156.606 37.2861 156.274 37.1276 156.082 36.7924C155.889 36.4747 155.801 35.9805 155.801 35.3454V30.1752H158.164C158.269 30.1752 158.339 30.1226 158.409 29.999C158.479 29.8931 158.496 29.7167 158.496 29.4697C158.496 29.3286 158.496 29.2227 158.479 29.1346C158.461 29.0461 158.444 28.9757 158.409 28.9049C158.395 28.8648 158.362 28.8348 158.332 28.8073L158.329 28.8047C158.32 28.7969 158.312 28.7892 158.304 28.7816C158.269 28.7638 158.217 28.7464 158.164 28.7464H155.801V26.5412C155.801 26.4879 155.784 26.4527 155.75 26.3997C155.732 26.3645 155.68 26.3293 155.627 26.2941C155.556 26.2585 155.469 26.2411 155.365 26.2234C155.319 26.2234 155.266 26.22 155.207 26.2162C155.131 26.2112 155.043 26.2056 154.944 26.2056C154.857 26.2056 154.776 26.2109 154.703 26.2158L154.701 26.2159C154.642 26.2198 154.589 26.2233 154.542 26.2233C154.437 26.2411 154.349 26.2585 154.28 26.2941C154.209 26.3293 154.174 26.3644 154.139 26.3997L154.136 26.4093C154.133 26.4164 154.131 26.4233 154.129 26.4298L154.128 26.431C154.115 26.4682 154.104 26.499 154.104 26.5411V28.7463H152.827C152.774 28.7463 152.721 28.7637 152.687 28.7815C152.634 28.8167 152.6 28.8519 152.565 28.9049C152.547 28.9756 152.53 29.046 152.512 29.1345C152.494 29.2226 152.477 29.3285 152.477 29.4696C152.477 29.7167 152.512 29.893 152.565 29.9989C152.634 30.1226 152.721 30.1752 152.809 30.1752H154.104V35.5916C154.104 36.139 154.156 36.5976 154.262 36.9856C154.349 37.3912 154.524 37.709 154.734 37.9737C154.962 38.2388 155.242 38.4329 155.574 38.5563C155.906 38.6799 156.327 38.7503 156.799 38.7503C156.956 38.7503 157.114 38.7326 157.271 38.7148C157.357 38.7054 157.441 38.6908 157.524 38.6766L157.532 38.6751C157.599 38.6636 157.665 38.6522 157.727 38.6444C157.867 38.6089 157.989 38.5737 158.095 38.5211C158.199 38.4678 158.286 38.4148 158.339 38.3622C158.391 38.3092 158.427 38.2213 158.461 38.0976Z" fill="#D52B1E"/>
<path d="M151.261 38.1859C151.279 38.0974 151.296 37.974 151.296 37.851C151.296 37.7096 151.279 37.6037 151.261 37.5152C151.244 37.4097 151.227 37.3389 151.192 37.2859C151.157 37.233 151.122 37.1978 151.07 37.1626C151.034 37.1448 150.982 37.1274 150.929 37.1274H146.608L150.649 30.758C150.694 30.69 150.732 30.6219 150.767 30.5586C150.787 30.5233 150.805 30.4896 150.824 30.458C150.876 30.3695 150.911 30.2814 150.929 30.2106C150.964 30.1228 150.982 30.0521 150.999 29.9639C151.017 29.8758 151.017 29.7873 151.017 29.6992V29.364C151.017 29.2403 150.999 29.1522 150.982 29.0818C150.965 28.9944 150.93 28.942 150.895 28.8894L150.894 28.8878C150.843 28.8352 150.789 28.7995 150.737 28.7818C150.684 28.764 150.614 28.7466 150.544 28.7466H145.259C145.19 28.7466 145.137 28.764 145.102 28.7818C145.049 28.817 145.014 28.8522 144.979 28.9051C144.945 28.9759 144.927 29.0462 144.91 29.1348C144.91 29.177 144.907 29.2193 144.904 29.2628L144.902 29.289C144.896 29.3461 144.892 29.4056 144.892 29.4699C144.892 29.7169 144.927 29.911 144.997 30.0169C145.049 30.1402 145.137 30.1932 145.259 30.1932H149.196L145.137 36.5626L145.132 36.5701C145.064 36.6735 144.996 36.7762 144.962 36.8626C144.91 36.9507 144.875 37.0215 144.84 37.1096L144.815 37.2084L144.815 37.2097L144.8 37.2698L144.787 37.3211C144.77 37.4095 144.77 37.498 144.77 37.5857V37.9389C144.77 38.1684 144.805 38.327 144.892 38.4333C144.997 38.5214 145.102 38.574 145.259 38.574H150.929C150.982 38.574 151.033 38.5569 151.085 38.5394L151.087 38.5388C151.091 38.5339 151.096 38.5289 151.102 38.5239L151.114 38.5136L151.116 38.5116C151.146 38.4845 151.179 38.4546 151.192 38.4151C151.227 38.3448 151.244 38.274 151.261 38.1859Z" fill="#D52B1E"/>
<path d="M143.164 37.2027C143.181 37.1146 143.181 37.0265 143.181 36.9031C143.181 36.7616 143.181 36.638 143.164 36.5501C143.161 36.5298 143.158 36.5102 143.156 36.4913L143.152 36.4653C143.144 36.3974 143.137 36.3412 143.112 36.3031C143.094 36.2327 143.059 36.1794 143.024 36.1617C142.989 36.1265 142.954 36.1091 142.902 36.1091C142.814 36.1091 142.709 36.1794 142.57 36.3031C142.518 36.3371 142.466 36.375 142.41 36.4154L142.381 36.4362L142.379 36.4374C142.271 36.5163 142.15 36.6041 142.009 36.6912C141.799 36.8498 141.555 36.9912 141.257 37.1146C140.959 37.238 140.626 37.2909 140.224 37.2909C139.822 37.2909 139.454 37.2202 139.14 37.0791C138.824 36.9205 138.562 36.6912 138.334 36.3912C138.125 36.0912 137.949 35.7209 137.844 35.2621C137.722 34.8033 137.67 34.292 137.67 33.6741C137.67 32.492 137.897 31.592 138.317 30.9569C138.755 30.3218 139.384 30.0039 140.189 30.0039C140.592 30.0039 140.925 30.0569 141.222 30.1802C141.502 30.2861 141.764 30.4276 141.957 30.5509C142.167 30.6921 142.341 30.8154 142.464 30.9391C142.604 31.045 142.727 31.0976 142.814 31.0976C142.919 31.0976 142.989 31.045 143.042 30.9391C143.112 30.8332 143.146 30.6568 143.146 30.3743C143.146 30.3041 143.141 30.2395 143.136 30.1839C143.132 30.1418 143.129 30.1048 143.129 30.0743C143.129 29.9908 143.113 29.9232 143.097 29.8562L143.096 29.8491L143.094 29.845C143.076 29.7743 143.042 29.7217 143.007 29.6865C142.994 29.6486 142.955 29.602 142.908 29.5465L142.902 29.5387C142.885 29.5186 142.867 29.4971 142.849 29.4747C142.761 29.404 142.622 29.2981 142.447 29.1747C142.272 29.0688 142.062 28.9628 141.834 28.8747C141.589 28.7866 141.344 28.7158 141.064 28.6628C140.784 28.5921 140.504 28.5747 140.207 28.5747C139.594 28.5747 139.034 28.6806 138.509 28.8747C138.002 29.0866 137.547 29.3865 137.162 29.8098C136.76 30.2331 136.462 30.7799 136.234 31.4329C136.025 32.0858 135.902 32.8792 135.902 33.7792C135.902 34.5911 136.008 35.2971 136.182 35.9143C136.357 36.5314 136.62 37.0434 136.97 37.4665C137.32 37.8902 137.74 38.2255 138.265 38.4374C138.772 38.6666 139.349 38.7722 140.014 38.7722C140.329 38.7722 140.644 38.737 140.942 38.6844C141.257 38.6134 141.519 38.5429 141.781 38.4374C142.044 38.3311 142.272 38.2252 142.481 38.1015L142.579 38.0308C142.727 37.9243 142.843 37.8397 142.902 37.7666C142.989 37.6959 143.042 37.6255 143.076 37.5726C143.094 37.5374 143.112 37.4844 143.129 37.4137C143.146 37.3608 143.164 37.2909 143.164 37.2027Z" fill="#D52B1E"/>
<path d="M189.266 42.248C189.441 42.1951 189.545 42.1069 189.581 42.0013L194.113 29.3329C194.166 29.2092 194.184 29.1037 194.184 29.0329C194.184 28.9447 194.148 28.874 194.096 28.8211C194.043 28.7859 193.938 28.7507 193.816 28.7329C193.693 28.7152 193.536 28.6978 193.343 28.6978C193.133 28.6978 192.958 28.7152 192.853 28.7329C192.731 28.7507 192.643 28.7681 192.59 28.8211C192.524 28.8542 192.49 28.9345 192.442 29.0466L192.441 29.0494L192.433 29.0681L189.895 36.5681H189.86L187.236 29.1054C187.201 29.0169 187.166 28.9465 187.131 28.8932C187.113 28.8406 187.06 28.8054 186.991 28.7876C186.921 28.7524 186.834 28.7347 186.711 28.7169C186.657 28.7169 186.596 28.7135 186.528 28.7097C186.442 28.7049 186.345 28.6995 186.238 28.6995C186.028 28.6995 185.871 28.7169 185.748 28.7347C185.626 28.7524 185.539 28.7876 185.469 28.8228C185.416 28.8758 185.398 28.9465 185.398 29.0347C185.398 29.1054 185.416 29.2287 185.469 29.3698L188.758 38.243C188.776 38.3133 188.81 38.3837 188.881 38.4371C188.934 38.5074 188.986 38.5426 189.056 38.5778L187.778 41.8069C187.743 41.9132 187.726 41.9836 187.726 42.0539C187.743 42.1247 187.761 42.1777 187.831 42.2303C187.884 42.2662 187.971 42.301 188.075 42.3184C188.181 42.3365 188.321 42.3365 188.513 42.3365C188.845 42.3365 189.108 42.301 189.266 42.248Z" fill="#D52B1E"/>
<path d="M184.356 29.1741C184.373 29.1037 184.373 29.0504 184.373 28.9974C184.373 28.9448 184.373 28.8916 184.338 28.8563C184.321 28.8218 184.287 28.8044 184.22 28.7702L184.216 28.7685C184.164 28.7333 184.075 28.7152 183.988 28.7152C183.943 28.7152 183.895 28.712 183.841 28.7084L183.837 28.7081C183.766 28.7033 183.684 28.6978 183.586 28.6978C183.49 28.6978 183.405 28.7029 183.328 28.7076C183.263 28.7116 183.204 28.7152 183.148 28.7152C183.043 28.7329 182.955 28.7507 182.886 28.7681L182.884 28.7693C182.832 28.8044 182.78 28.8393 182.745 28.874C182.711 28.926 182.694 28.9779 182.677 29.0298L182.675 29.0328L180.489 36.6896L180.471 36.7774L180.454 36.6896L178.248 29.0179C178.248 28.9748 178.225 28.9317 178.207 28.8982L178.202 28.8891L178.2 28.8845L178.196 28.8768C178.161 28.8242 178.127 28.8067 178.057 28.7717L178.056 28.7709C178.004 28.7535 177.916 28.7358 177.811 28.718C177.764 28.718 177.709 28.7145 177.65 28.7106C177.577 28.7058 177.495 28.7006 177.408 28.7006C177.309 28.7006 177.222 28.7061 177.146 28.7109C177.087 28.7147 177.034 28.718 176.989 28.718C176.883 28.7358 176.796 28.7536 176.743 28.771C176.674 28.8061 176.639 28.8409 176.604 28.8757L176.604 28.8769C176.569 28.9289 176.552 28.9808 176.535 29.0329L176.533 29.0358L174.504 36.6925L174.486 36.7803L174.451 36.6925L172.229 29.0358L172.227 29.0296C172.21 28.9787 172.192 28.9278 172.159 28.8769C172.142 28.8427 172.092 28.8085 172.041 28.774L172.039 28.7725L172.036 28.7709C171.966 28.7535 171.879 28.7357 171.756 28.7179C171.712 28.7179 171.658 28.7148 171.595 28.7112C171.511 28.7062 171.412 28.7005 171.301 28.7005C171.218 28.7005 171.144 28.7054 171.075 28.71L171.071 28.7103C171.012 28.7142 170.955 28.7179 170.899 28.7179C170.794 28.7179 170.706 28.7357 170.636 28.7709C170.583 28.7886 170.531 28.8238 170.497 28.859C170.479 28.8942 170.461 28.9475 170.461 29.0001C170.461 29.0531 170.461 29.1064 170.479 29.1768L170.484 29.1964C170.487 29.2079 170.489 29.2198 170.492 29.2322L170.494 29.2381C170.508 29.2962 170.524 29.3649 170.549 29.4412L173.244 38.2621C173.261 38.3328 173.296 38.3857 173.349 38.4391C173.383 38.4917 173.436 38.5272 173.524 38.5625C173.612 38.5799 173.716 38.5976 173.856 38.6151C173.996 38.6328 174.171 38.6328 174.381 38.6328C174.574 38.6328 174.748 38.6328 174.889 38.6151C175.029 38.6151 175.151 38.5976 175.239 38.5625C175.326 38.5446 175.397 38.5095 175.431 38.4565C175.483 38.4032 175.518 38.3506 175.536 38.2621L177.321 31.5225L177.339 31.4344L177.374 31.5225L179.298 38.2621C179.315 38.3321 179.35 38.3847 179.385 38.4375L179.386 38.4391C179.439 38.4917 179.491 38.5272 179.578 38.5625C179.665 38.5799 179.789 38.5976 179.928 38.6151C180.068 38.6328 180.243 38.6328 180.454 38.6328C180.663 38.6328 180.838 38.6328 180.96 38.6151C181.101 38.6151 181.206 38.5976 181.293 38.5625C181.363 38.5446 181.433 38.5095 181.468 38.4565C181.521 38.4032 181.556 38.3506 181.573 38.2621L184.286 29.4412C184.311 29.3633 184.328 29.2946 184.342 29.2357L184.342 29.2323L184.348 29.2091L184.351 29.1946C184.353 29.1885 184.354 29.1826 184.356 29.1767V29.1741Z" fill="#D52B1E"/>
<path fill-rule="evenodd" clip-rule="evenodd" d="M164.417 38.7672H164.505C165.239 38.7498 165.905 38.6251 166.464 38.3781C167.059 38.114 167.549 37.7609 167.934 37.302C168.337 36.8438 168.634 36.279 168.827 35.6438C169.02 35.0087 169.124 34.3207 169.124 33.5446C169.124 32.7856 169.037 32.0976 168.844 31.4625C168.652 30.8453 168.372 30.316 168.004 29.8923C167.62 29.4513 167.147 29.1161 166.587 28.9043C166.027 28.6749 165.362 28.5513 164.61 28.5513H164.505C163.77 28.569 163.122 28.6928 162.545 28.9398C161.967 29.186 161.477 29.557 161.075 30.0159C160.69 30.4749 160.392 31.0218 160.199 31.6569C160.008 32.292 159.902 32.998 159.902 33.739C159.902 34.5331 160.008 35.2381 160.182 35.8562C160.375 36.4734 160.655 37.0027 161.022 37.4263C161.39 37.8675 161.862 38.2027 162.44 38.4323C162.999 38.6438 163.664 38.7672 164.417 38.7672ZM163.244 30.2484C163.612 30.0717 164.014 29.9836 164.505 29.9836L164.54 29.984C165.081 29.984 165.52 30.09 165.887 30.284C166.254 30.4781 166.534 30.7429 166.744 31.0781C166.955 31.4131 167.112 31.8191 167.199 32.2601C167.287 32.7012 167.339 33.1599 167.339 33.6713C167.339 34.2184 167.287 34.6949 167.182 35.1534C167.077 35.5942 166.902 35.9827 166.657 36.3004C166.429 36.6354 166.131 36.8825 165.782 37.0594C165.415 37.2354 164.994 37.3235 164.505 37.3235H164.487C163.962 37.3235 163.507 37.2354 163.14 37.0416C162.79 36.8472 162.493 36.5828 162.282 36.2476C162.055 35.9125 161.915 35.524 161.81 35.0655C161.723 34.6245 161.687 34.1478 161.687 33.6364C161.687 33.1066 161.74 32.6304 161.845 32.1715C161.967 31.7306 162.125 31.3425 162.37 31.0073C162.597 30.6895 162.894 30.425 163.244 30.2484Z" fill="#D52B1E"/>
<path fill-rule="evenodd" clip-rule="evenodd" d="M69.1983 38.5733C69.0408 38.5733 68.9009 38.5207 68.7609 38.4144C68.6206 38.3088 68.5508 38.1148 68.5508 37.8503V25.9249C68.5508 25.6605 68.6206 25.4838 68.7609 25.3602C68.9009 25.2546 69.0408 25.2017 69.1983 25.2017H72.4528C73.1353 25.2191 73.7125 25.2898 74.1498 25.4309C74.6575 25.5898 75.0775 25.8013 75.4275 26.1013C75.7598 26.3835 76.0221 26.7368 76.1797 27.1602C76.3549 27.5836 76.4423 28.0602 76.4423 28.5893C76.4423 28.9071 76.4071 29.2071 76.3196 29.5073C76.2499 29.7895 76.1448 30.0543 75.9872 30.3013C75.8473 30.5483 75.6721 30.7602 75.4447 30.9542C75.2173 31.1482 74.9723 31.3072 74.6745 31.4305C75.0422 31.5009 75.3746 31.6246 75.6895 31.8187C76.0046 31.9949 76.2846 32.2246 76.5119 32.5068C76.7569 32.789 76.9321 33.1242 77.072 33.477C77.212 33.8651 77.2818 34.2889 77.2818 34.7299C77.2818 35.1533 77.2296 35.5411 77.1246 35.8941C77.0195 36.2474 76.8619 36.5826 76.6695 36.865C76.477 37.1473 76.2496 37.3943 75.987 37.6061C75.7071 37.8176 75.4096 37.9943 75.0773 38.1354C74.7273 38.2765 74.3772 38.3999 73.9922 38.4706C73.6072 38.5413 73.1519 38.5765 72.6624 38.5765L69.1983 38.5733ZM72.2923 26.6554C72.3486 26.6597 72.4029 26.6638 72.4532 26.6638C72.8032 26.6812 73.1007 26.7167 73.3278 26.8049C73.6426 26.893 73.8876 27.0341 74.0801 27.2108C74.2725 27.4049 74.4122 27.6167 74.4999 27.8811C74.5873 28.1456 74.6222 28.4459 74.6222 28.7632C74.6222 29.0455 74.5873 29.328 74.4999 29.6102C74.4122 29.875 74.2898 30.122 74.0973 30.3161C73.9048 30.5276 73.6774 30.6865 73.3976 30.8099C73.1522 30.9158 72.8374 30.9688 72.4528 30.9865H70.2834V26.6462H72.1028C72.1666 26.6462 72.2311 26.6508 72.2923 26.6554ZM70.2834 37.1106V32.3994H72.4528C72.9777 32.4172 73.4155 32.4523 73.7827 32.5583C74.1331 32.6642 74.4479 32.8231 74.6752 33.0346C74.9202 33.2287 75.1127 33.4757 75.2353 33.7757C75.3577 34.0756 75.4278 34.446 75.4278 34.8346C75.4278 35.205 75.3577 35.5402 75.2353 35.822C75.0951 36.1049 74.9202 36.3341 74.6925 36.5282C74.4651 36.7223 74.2028 36.8634 73.9051 36.9515C73.6076 37.0578 73.2576 37.1104 72.838 37.1104L70.2834 37.1106Z" fill="#D52B1E"/>
<path fill-rule="evenodd" clip-rule="evenodd" d="M82.9516 38.7158C82.7414 38.7514 82.5317 38.7687 82.3393 38.7687C81.849 38.7687 81.4113 38.6984 81.0087 38.5746C80.624 38.4514 80.2916 38.257 80.0117 38.0273C79.7314 37.7807 79.5213 37.4811 79.3637 37.1281C79.2066 36.7743 79.1367 36.387 79.1367 35.9281C79.1367 35.4161 79.2414 34.9576 79.4515 34.5691C79.6611 34.1815 79.9763 33.8637 80.3612 33.599C80.7634 33.3523 81.236 33.1582 81.8134 33.0523C82.1635 32.9641 82.5482 32.9111 82.9508 32.8934C83.1955 32.8756 83.4753 32.8582 83.7552 32.8582H85.0157V32.1346C85.0157 31.7823 84.9808 31.4646 84.9106 31.1823C84.8405 30.9001 84.7182 30.6705 84.5429 30.4942C84.3858 30.3179 84.158 30.1764 83.8954 30.0883C83.6331 30.0001 83.3179 29.9472 82.9506 29.9472H82.9157C82.4956 29.9472 82.1279 30.0002 81.7955 30.0883C81.4634 30.1942 81.1659 30.3002 80.9209 30.4238C80.6759 30.5471 80.4658 30.6531 80.291 30.759C80.1334 30.8471 80.0111 30.9001 79.9233 30.9001C79.8708 30.9001 79.8183 30.8823 79.7834 30.8646C79.7308 30.8293 79.6959 30.7942 79.6783 30.7412C79.6434 30.6882 79.6258 30.6175 79.6085 30.5293C79.5909 30.4412 79.5909 30.353 79.5909 30.2471C79.5909 30.0704 79.5909 29.9293 79.6257 29.8412C79.6434 29.7353 79.6959 29.6472 79.801 29.5416C79.8884 29.4531 80.046 29.3472 80.2734 29.2413C80.501 29.118 80.746 29.012 81.0435 28.9061C81.3414 28.8005 81.6565 28.7298 82.0062 28.6591C82.3193 28.5889 82.6323 28.5712 82.945 28.5536L82.9514 28.5532H83.0741C83.7211 28.5532 84.2988 28.6417 84.7539 28.7828C85.2265 28.9417 85.5941 29.1532 85.8741 29.4532C86.1715 29.7532 86.3813 30.1061 86.504 30.5473C86.6439 30.9704 86.6965 31.4823 86.6965 32.0644V38.3278C86.6965 38.3982 86.6788 38.469 86.6263 38.5045C86.588 38.5432 86.5313 38.5629 86.4693 38.5844C86.4464 38.5923 86.4226 38.6006 86.3989 38.6101C86.2942 38.6278 86.1539 38.6278 85.9791 38.6278C85.8039 38.6278 85.6639 38.6278 85.5592 38.6101C85.5372 38.6027 85.5159 38.5961 85.4955 38.5898C85.4189 38.5661 85.3555 38.5464 85.3142 38.5045C85.279 38.469 85.2441 38.3982 85.2441 38.3278V37.3928C84.8412 37.8336 84.404 38.1691 83.8964 38.398C83.5991 38.5573 83.2667 38.6631 82.9516 38.7158ZM82.9515 34.0933C82.892 34.1033 82.8338 34.1119 82.777 34.1202L82.7695 34.1213C82.629 34.1421 82.4974 34.1616 82.3744 34.1986C82.0241 34.2693 81.7443 34.393 81.5169 34.5516C81.2892 34.693 81.1316 34.8867 81.0269 35.0986C80.9219 35.3283 80.8693 35.575 80.8693 35.8576C80.8693 36.3342 81.0093 36.7223 81.324 37.0046C81.6218 37.2867 82.0591 37.4282 82.6017 37.4282C82.7067 37.4282 82.8294 37.4282 82.9517 37.4105C83.2489 37.3575 83.5464 37.2516 83.8263 37.0927C84.2114 36.8636 84.6141 36.5105 85.0166 36.0517V34.0755H83.5815C83.3541 34.0755 83.144 34.0755 82.9515 34.0933Z" fill="#D52B1E"/>
<path fill-rule="evenodd" clip-rule="evenodd" d="M129.429 38.7672H129.324C128.571 38.7672 127.906 38.6438 127.346 38.4323C126.786 38.2027 126.314 37.8675 125.929 37.4263C125.562 37.0027 125.282 36.4734 125.088 35.8562C124.914 35.2381 124.809 34.5331 124.809 33.739C124.809 32.998 124.914 32.292 125.106 31.6569C125.299 31.0218 125.597 30.4749 125.981 30.0159C126.384 29.557 126.874 29.186 127.451 28.9398C128.029 28.6928 128.676 28.569 129.429 28.5513H129.516C130.268 28.5513 130.933 28.6749 131.494 28.9043C132.053 29.1161 132.526 29.4513 132.911 29.8923C133.278 30.316 133.558 30.8453 133.75 31.4625C133.943 32.0976 134.03 32.7856 134.03 33.5446C134.03 34.3207 133.926 35.0087 133.733 35.6438C133.541 36.279 133.244 36.8438 132.858 37.302C132.456 37.7609 131.965 38.114 131.371 38.3781C130.811 38.6251 130.164 38.7498 129.429 38.7672ZM129.429 29.9836C128.938 29.9836 128.518 30.0717 128.151 30.2484C127.801 30.425 127.503 30.6895 127.277 31.0073C127.049 31.3425 126.874 31.7306 126.751 32.1715C126.646 32.6304 126.594 33.1066 126.594 33.6364C126.594 34.1478 126.629 34.6245 126.734 35.0655C126.821 35.524 126.979 35.9125 127.188 36.2476C127.399 36.5828 127.696 36.8472 128.046 37.0416C128.414 37.2354 128.868 37.3235 129.411 37.3235H129.429C129.901 37.3235 130.321 37.2354 130.688 37.0594C131.038 36.8825 131.336 36.6354 131.581 36.3004C131.809 35.9827 131.983 35.5942 132.088 35.1534C132.193 34.6949 132.246 34.2184 132.246 33.6713C132.246 33.1599 132.211 32.7012 132.106 32.2601C132.019 31.819 131.861 31.4131 131.651 31.0781C131.441 30.7429 131.161 30.4781 130.793 30.284C130.426 30.09 129.988 29.984 129.446 29.984L129.429 29.9836Z" fill="#D52B1E"/>
<path fill-rule="evenodd" clip-rule="evenodd" d="M119.286 33.4589C119.042 33.4766 118.797 33.4766 118.534 33.4766L117.029 33.4804V38.3147C117.029 38.3677 117.012 38.4026 116.977 38.4558L116.976 38.4572C116.941 38.492 116.906 38.5268 116.837 38.544C116.767 38.5792 116.679 38.597 116.574 38.6144C116.452 38.6321 116.312 38.6321 116.154 38.6321C115.979 38.6321 115.839 38.6321 115.717 38.6144C115.612 38.597 115.525 38.5792 115.455 38.544C115.384 38.5266 115.332 38.4911 115.315 38.4558C115.279 38.4026 115.262 38.3677 115.262 38.3147V25.9789C115.262 25.6967 115.332 25.5026 115.472 25.3789C115.629 25.273 115.787 25.2026 115.962 25.2026H118.797C118.886 25.2026 118.972 25.2072 119.054 25.2117L119.057 25.2119C119.135 25.216 119.211 25.2201 119.286 25.2201C119.35 25.2201 119.408 25.2247 119.464 25.2293L119.466 25.2294C119.518 25.2337 119.569 25.2378 119.619 25.2378C119.881 25.2731 120.197 25.326 120.546 25.3967C120.914 25.4848 121.281 25.626 121.649 25.8378C122.017 26.0668 122.331 26.3316 122.594 26.649C122.856 26.9669 123.049 27.3372 123.189 27.7431C123.329 28.1662 123.399 28.6251 123.399 29.1192C123.399 29.7893 123.294 30.4067 123.084 30.9363C122.856 31.4654 122.542 31.9243 122.139 32.3125C121.736 32.6826 121.229 32.9826 120.651 33.1766C120.249 33.3178 119.794 33.4063 119.286 33.4589ZM119.286 26.7189C119.077 26.6834 118.867 26.6834 118.657 26.6834L117.029 26.6829V32.047H118.622C118.849 32.047 119.077 32.0289 119.286 31.9937C119.532 31.9585 119.742 31.9056 119.934 31.8348C120.284 31.6938 120.581 31.4997 120.827 31.2526C121.072 31.0236 121.247 30.724 121.369 30.3885C121.492 30.0355 121.562 29.6654 121.562 29.2773C121.562 28.7303 121.457 28.2715 121.247 27.9012C121.054 27.5481 120.792 27.2655 120.495 27.0892C120.197 26.9129 119.899 26.7893 119.584 26.7541L119.542 26.747L119.541 26.7468C119.454 26.732 119.377 26.7189 119.286 26.7189Z" fill="#D52B1E"/>
<path fill-rule="evenodd" clip-rule="evenodd" d="M59.4287 30.9992C56.8041 34.9335 49.3317 40.7529 44.5406 40.1037C34.2196 38.7096 36.8241 28.6858 40.4809 22.9171C42.8085 19.141 40.2708 19.0708 39.9208 19.0178C38.6783 18.8237 35.3536 20.2529 31.5402 22.4231C32.9051 22.2819 34.0946 22.476 34.9521 23.0227C37.3671 24.5578 36.1775 28.404 32.3103 31.5824C28.4603 34.7406 23.3326 36.0817 20.9371 34.5466C19.6252 33.7175 19.3796 32.1996 20.0446 30.4533C17.4371 32.7645 15.5125 34.9705 15.1274 36.6996C14.9349 37.6346 16.0371 38.1108 17.3849 37.9697C28.1312 36.4525 32.9745 44.0928 40.691 44.8869C51.7656 46.016 57.2433 38.6406 61.5642 31.0884C61.6692 30.9295 61.7393 30.7532 61.7743 30.6121C61.8092 30.4532 61.8092 30.2946 61.7919 30.171C61.7743 30.0473 61.7217 29.924 61.652 29.8358C61.5818 29.7473 61.4943 29.6769 61.3893 29.6414C61.2843 29.6062 61.162 29.5887 61.022 29.624C60.8644 29.6414 60.7245 29.7121 60.5496 29.8181C60.3744 29.9062 60.1993 30.0651 60.0068 30.2591C59.832 30.4532 59.6395 30.7002 59.4293 31.0002L59.4287 30.9992Z" fill="#D52B1E"/>
<path fill-rule="evenodd" clip-rule="evenodd" d="M26.1775 27.395C27.7872 26.0719 29.9402 25.507 30.9372 26.142C31.9521 26.7949 31.4448 28.401 29.835 29.7241C28.2252 31.0473 26.0902 31.6122 25.0752 30.9592C24.0775 30.3237 24.5676 28.7181 26.1775 27.395Z" fill="#00335B"/>
</g>
<defs>
<clipPath id="clip0_6474_99777">
<rect width="179.105" height="26" fill="white" transform="translate(15.1055 19)"/>
</clipPath>
</defs>
</svg>
