<svg width="172" height="64" viewBox="0 0 172 64" fill="none" xmlns="http://www.w3.org/2000/svg">
<rect width="172" height="64" fill="#00B140"/>
<path fill-rule="evenodd" clip-rule="evenodd" d="M16.9219 22H36.9218V42H16.9219V22ZM28.0425 36.7902C28.0817 36.7902 28.1209 36.751 28.1601 36.7119L32.2355 27.7772C32.3139 27.6596 32.2355 27.5029 32.118 27.4245C32.0984 27.4245 32.0788 27.4147 32.0592 27.4049C32.0396 27.3951 32.02 27.3853 32.0004 27.3853H29.4924C29.3357 27.3853 29.2181 27.4637 29.1398 27.6204C29.1398 27.6204 27.6506 30.9121 27.4939 31.2648C27.2588 31.8135 26.9453 32.8323 26.9453 32.8323C26.9453 32.8715 26.9061 32.8715 26.8669 32.8715L26.8277 32.8323C26.8277 32.8323 26.5142 31.8135 26.2791 31.2648C26.1223 30.873 24.6332 27.6204 24.6332 27.6204C24.5549 27.5029 24.4373 27.3853 24.2806 27.3853H21.7726C21.6158 27.3853 21.5375 27.5029 21.5375 27.6204C21.5375 27.6596 21.5375 27.6988 21.5766 27.738L25.6521 36.7119C25.6913 36.751 25.7305 36.7902 25.7697 36.7902H28.0425Z" fill="white"/>
<path fill-rule="evenodd" clip-rule="evenodd" d="M38.4604 22H58.4603V42H38.4604V22ZM52.6521 36.5551V34.6741C52.6521 34.5174 52.5345 34.439 52.417 34.439H47.3226C47.2835 34.439 47.2443 34.3998 47.2443 34.3606V33.2242C47.2443 33.185 47.2835 33.1458 47.3226 33.1458H51.6332C51.79 33.1458 51.8683 33.0283 51.8683 32.9107V31.2648C51.8683 31.1081 51.7508 31.0297 51.6332 31.0297H47.3226C47.2835 31.0297 47.2443 30.9905 47.2443 30.9513V29.8149C47.2443 29.7757 47.2835 29.7365 47.3226 29.7365H52.3778C52.5345 29.7365 52.6129 29.619 52.6129 29.5014V27.6204C52.6129 27.4637 52.4953 27.3853 52.3778 27.3853H44.7755C44.6187 27.3853 44.5404 27.5029 44.5404 27.6204V36.5159C44.5404 36.6727 44.6579 36.751 44.7755 36.751H52.417C52.5345 36.7902 52.6521 36.6727 52.6521 36.5551Z" fill="white"/>
<path fill-rule="evenodd" clip-rule="evenodd" d="M79.9988 22H59.9989V42H79.9988V22ZM73.8229 34.6091C73.8229 34.4915 73.7445 34.3739 73.5878 34.3739L69.5123 34.4131C69.4732 34.4131 69.434 34.3739 69.434 34.3348V27.6337C69.434 27.5162 69.3556 27.3986 69.1988 27.3986H66.9652C66.8476 27.3986 66.7301 27.477 66.7301 27.6337V36.49C66.7301 36.6076 66.8084 36.7252 66.9652 36.7252H73.5878C73.7054 36.7252 73.8229 36.6468 73.8229 36.49V34.6091Z" fill="white"/>
<path d="M91.8885 34.649C90.4777 34.649 89.3805 33.5126 89.3805 32.1018C89.3805 30.7695 90.5169 29.6722 91.8493 29.633C93.26 29.633 94.3965 30.7303 94.3965 32.141C94.3573 33.5126 93.26 34.649 91.8885 34.649Z" fill="white"/>
<path fill-rule="evenodd" clip-rule="evenodd" d="M81.5374 22H101.537V42H81.5374V22ZM91.4966 27.2426C88.7927 27.4386 86.7942 29.7898 86.9901 32.4937C87.186 35.1976 89.5373 37.1962 92.2412 37.0002C94.7883 36.8043 96.7869 34.6882 96.7869 32.1018C96.6301 29.3587 94.2789 27.1643 91.4966 27.2426Z" fill="white"/>
<path fill-rule="evenodd" clip-rule="evenodd" d="M126.696 27.0472L131.039 36.3683V36.4588C131.039 36.6398 130.949 36.7303 130.768 36.7303H128.234C128.053 36.7303 127.963 36.6398 127.872 36.4588C127.816 36.4029 127.726 36.2087 127.601 35.9403C127.523 35.7745 127.433 35.5803 127.329 35.3729H123.257C123.153 35.5802 123.05 35.7743 122.961 35.9402C122.818 36.2085 122.714 36.4029 122.714 36.4588C122.623 36.6398 122.533 36.7303 122.352 36.7303H119.818C119.637 36.7303 119.547 36.6398 119.547 36.4588V36.3683L123.89 27.0472C123.981 26.9567 124.071 26.8662 124.162 26.8662H126.424C126.557 26.8662 126.592 26.9147 126.637 26.9762C126.654 26.9987 126.671 27.023 126.696 27.0472ZM124.298 33.0652C124.252 33.1783 124.207 33.2914 124.162 33.3819H126.424C126.379 33.2914 126.334 33.1783 126.288 33.0652C126.243 32.9521 126.198 32.8389 126.153 32.7485L125.338 30.3956C125.338 30.3051 125.248 30.3956 125.248 30.3956L124.433 32.7485C124.388 32.8389 124.343 32.9521 124.298 33.0652Z" fill="white"/>
<path d="M147.961 36.7303H145.608C145.518 36.7303 145.337 36.6398 145.246 36.5493V27.1377C145.246 26.9567 145.337 26.8662 145.518 26.8662H147.87C148.051 26.8662 148.142 26.9567 148.142 27.1377V30.9385H148.232C148.232 30.9385 148.413 30.6671 149.047 30.0336C149.68 29.4001 151.852 27.0472 151.852 27.0472C151.943 26.9567 152.033 26.9567 152.124 26.9567H155.02C155.065 26.9567 155.087 26.9793 155.11 27.002C155.133 27.0246 155.155 27.0472 155.201 27.0472C155.291 27.1377 155.291 27.3187 155.201 27.4092L151.4 31.4815V31.572L155.291 36.3683C155.343 36.4204 155.365 36.4425 155.375 36.4691C155.382 36.4887 155.382 36.5109 155.382 36.5493C155.382 36.7303 155.291 36.8208 155.11 36.8208H152.124C152.033 36.8208 151.943 36.7303 151.852 36.6398L149.499 33.7439H149.409L148.232 35.0109V36.4588C148.232 36.6398 148.142 36.7303 147.961 36.7303Z" fill="white"/>
<path d="M140.631 36.7303H142.713C142.894 36.7303 142.984 36.6398 142.984 36.4588V27.1377C142.984 26.9567 142.894 26.8662 142.713 26.8662H140.36C140.179 26.8662 140.088 26.9567 140.088 27.1377V32.115C140.088 32.115 140.088 32.2055 139.998 32.2055H139.907C139.907 32.2055 139.364 31.4815 139.002 31.1195L134.93 27.0472C134.84 26.9567 134.749 26.9567 134.659 26.9567H132.577C132.396 26.9567 132.306 27.0472 132.306 27.2282V36.5493C132.306 36.7303 132.396 36.8208 132.577 36.8208H134.93C135.111 36.8208 135.202 36.7303 135.202 36.5493V31.572C135.202 31.572 135.202 31.4815 135.292 31.4815H135.383C135.383 31.4815 135.926 32.2055 136.288 32.5675L140.36 36.6398C140.36 36.7303 140.45 36.7303 140.631 36.7303Z" fill="white"/>
<path fill-rule="evenodd" clip-rule="evenodd" d="M118.28 29.6708C118.28 30.3042 118.009 30.9377 117.556 31.3902C118.19 31.9332 118.642 32.8381 118.642 33.7431C118.461 35.553 116.923 36.9105 115.113 36.82H109.502C109.321 36.82 109.23 36.7295 109.23 36.5485V27.2274C109.23 27.0464 109.321 26.9559 109.502 26.9559H115.022C116.672 26.9558 118.099 28.0418 118.28 29.6708ZM114.66 29.1278L112.126 29.1278V30.4852C112.126 30.5757 112.217 30.5757 112.217 30.5757H114.66C115.022 30.5757 115.384 30.2137 115.384 29.8518C115.384 29.4898 115.022 29.1278 114.66 29.1278ZM112.126 34.5576H114.932C115.384 34.5576 115.746 34.1051 115.746 33.6526C115.746 33.2001 115.294 32.8381 114.841 32.8381H112.126C112.036 32.8381 112.036 32.9286 112.036 32.9286V34.4671C112.036 34.5576 112.126 34.5576 112.126 34.5576Z" fill="white"/>
</svg>
